<svg width="320" height="754" viewBox="0 0 320 754" fill="none" xmlns="http://www.w3.org/2000/svg">
<path d="M2766 0H-809V1025H2766V0Z" fill="url(#paint0_linear_217_204)"/>
<g clip-path="url(#clip0_217_204)">
<path d="M252.126 419.681H171.011V791.829H252.126V419.681Z" fill="#49D8F7"/>
<path d="M315.431 419.681H252.126V791.829H315.431V419.681Z" fill="#003659"/>
<path d="M315.372 456.943H260.767V791.829H315.372V456.943Z" fill="#C0BDF4"/>
<path d="M294.388 419.681H265.175V791.829H294.388V419.681Z" fill="#49D8F7"/>
<path d="M365.804 419.681H281.457V791.829H365.804V419.681Z" fill="#003659"/>
<g opacity="0.23">
<path d="M252.126 433.023H171.011V445.306H252.126V433.023Z" fill="#003659"/>
<path d="M365.746 433.023H265.175V445.306H365.746V433.023Z" fill="#003659"/>
<path d="M252.126 456.943H171.011V469.227H252.126V456.943Z" fill="#003659"/>
<path d="M365.746 456.943H265.175V469.227H365.746V456.943Z" fill="#003659"/>
<path d="M252.126 480.863H171.011V493.147H252.126V480.863Z" fill="#003659"/>
<path d="M365.746 480.863H265.175V493.147H365.746V480.863Z" fill="#003659"/>
<path d="M252.126 504.784H171.011V517.068H252.126V504.784Z" fill="#003659"/>
<path d="M365.746 504.784H265.175V517.068H365.746V504.784Z" fill="#003659"/>
<path d="M252.126 528.704H171.011V540.988H252.126V528.704Z" fill="#003659"/>
<path d="M365.746 528.704H265.175V540.988H365.746V528.704Z" fill="#003659"/>
<path d="M252.126 552.625H171.011V564.908H252.126V552.625Z" fill="#003659"/>
<path d="M365.746 552.625H265.175V564.908H365.746V552.625Z" fill="#003659"/>
<path d="M252.126 576.545H171.011V588.828H252.126V576.545Z" fill="#003659"/>
<path d="M365.746 576.545H265.175V588.828H365.746V576.545Z" fill="#003659"/>
<path d="M252.126 600.466H171.011V612.749H252.126V600.466Z" fill="#003659"/>
<path d="M365.746 600.466H265.175V612.749H365.746V600.466Z" fill="#003659"/>
<path d="M252.126 624.386H171.011V636.669H252.126V624.386Z" fill="#003659"/>
<path d="M365.746 624.386H265.175V636.669H365.746V624.386Z" fill="#003659"/>
<path d="M252.126 648.306H171.011V660.59H252.126V648.306Z" fill="#003659"/>
<path d="M365.746 648.306H265.175V660.59H365.746V648.306Z" fill="#003659"/>
<path d="M252.126 672.227H171.011V684.451H252.126V672.227Z" fill="#003659"/>
<path d="M365.746 672.227H265.175V684.451H365.746V672.227Z" fill="#003659"/>
<path d="M252.126 696.147H171.011V708.372H252.126V696.147Z" fill="#003659"/>
<path d="M365.746 696.147H265.175V708.372H365.746V696.147Z" fill="#003659"/>
<path d="M252.126 720.067H171.011V732.292H252.126V720.067Z" fill="#003659"/>
<path d="M365.746 720.067H265.175V732.292H365.746V720.067Z" fill="#003659"/>
<path d="M252.126 743.988H171.011V756.213H252.126V743.988Z" fill="#003659"/>
<path d="M365.746 743.988H265.175V756.213H365.746V743.988Z" fill="#003659"/>
</g>
<path opacity="0.06" d="M365.745 466.523V593.413L281.457 788.126V661.236L365.745 466.523Z" fill="white"/>
<path opacity="0.06" d="M365.745 690.799V628.852L295.152 791.828H322.014L365.745 690.799Z" fill="white"/>
<g style="mix-blend-mode:multiply" opacity="0.4">
<path d="M365.804 419.681H315.372H294.388H281.456H265.175H252.126H171.011V433.023V445.306V456.943V469.227V480.863V493.147V504.784V517.067V528.704V540.988V552.625V564.908V576.545V588.828V600.465V612.749V624.386V636.669V648.306V660.59V672.227V684.51V696.147V708.43V720.067V732.351V743.988V756.271V767.908V780.192V791.829H365.804V419.681Z" fill="url(#paint1_linear_217_204)"/>
</g>
<path d="M-118.121 703.787C-118.003 704.963 -117.885 706.138 -117.768 707.314C-117.356 711.957 -117.004 716.6 -116.651 721.243C-116.592 721.948 -116.592 722.653 -116.534 723.359H-113.477V721.302H-95.5496V732.233H-89.2015V732.116H-89.5541V730.823H-89.2015V730.353H-89.5541V729.06H-89.2015V728.589H-89.5541V727.296H-89.2015V726.826H-89.5541V725.533H-89.2015V725.004H-86.7327V675.635H-85.4396V662.529H-66.219V675.635H-64.9258V745.398H-57.2258V750.041H-53.7579V736.347H-52.406V730.529H-37.8289V730.294H-38.8281L-37.7113 728.707V727.943H-37.1823L-36.5945 727.12H-37.7113V725.945H-36.5357V725.122H-37.7113V723.946H-36.5357V723.124H-37.7113V721.948H-36.5357V719.95H-35.5953V717.834H-33.0678V712.016H-31.1869V704.61L-25.4853 703.258L-24.1922 702.965V690.74H-23.4281V702.788L-21.1357 702.259V712.016H-19.5487V717.834H-18.1968V703.435H-17.1975V674.519H-17.7266V673.108H-16.9036V672.52C-16.9036 672.109 -16.6098 671.756 -16.1983 671.756H-15.7869V668.759C-15.7869 667.995 -15.1991 667.348 -14.4937 667.348H-14.4349V664.704C-14.4349 663.94 -13.9647 663.293 -13.2594 663.117V660.766H-12.3777C-12.1426 659.003 -10.8494 657.651 -9.14487 657.357V654.947C-9.14487 654.771 -9.08609 654.654 -8.90974 654.654V648.482H-8.32196V654.654C-8.20441 654.712 -8.08684 654.83 -8.08684 654.947V657.357C-6.44104 657.592 -5.1479 659.003 -4.9128 660.766H-4.03111V663.117C-3.38455 663.293 -2.85555 663.94 -2.85555 664.704V667.348H-2.79675C-2.09142 667.348 -1.50363 667.995 -1.50363 668.759V671.756H-1.0334C-0.621948 671.756 -0.328049 672.109 -0.328049 672.52V673.108H0.318512V674.519H-0.328049V703.435H0.612411V721.243H14.1315V730.411H22.4781V746.456H25.2407V745.692H37.1727V741.989H38.8773V737.582H48.3995V733.409H59.2148V701.201H60.5079V700.672H59.2148V698.733H60.5079V698.204H59.156V696.265H60.5079V695.736H59.156V693.796H60.5079V693.267H59.156V691.328H60.5079V690.74H59.156V688.8H60.5079V688.271H59.156V686.332H60.5079V685.803H59.156V643.898H83.7255V683.805H83.6667V685.744H81.9621V686.273H83.6667V688.213H81.9621V688.742H83.6667V690.681H81.9621V691.269H83.7255V693.208H81.9621V693.737H83.7255V695.677H81.9621V696.206H83.7255V698.145H81.9621V698.674H83.7255V700.614H81.9621V701.143H83.843V725.533H92.0721V718.892H102.358V708.313L104.474 702.201L104.533 701.965L110.117 685.862L117.876 708.313V709.841H118.346V710.546H117.817V711.487H118.287V712.192H117.817V713.132H118.287V713.837H117.817V714.778H118.287V715.483H117.817V716.423H118.287V717.129H117.817V718.069H118.287V718.774H117.817V719.715H118.287V720.42H117.817V721.36H118.287V722.066H117.817V723.006H118.287V723.711H117.817V724.652H118.287V725.357H117.817V726.297H118.287V727.003H117.817V727.943H118.287V728.648H117.817V729.589H118.287V730.294H117.817V731.234H118.287V731.939H117.817V732.88H118.287V733.585H117.817V734.525H118.287V735.231H117.817V736.171H118.287V736.876H117.817V737.817H118.287V738.052H127.222V729.824H140.858V729.53L140.917 728.354V727.355V726.18L140.976 725.181L141.035 724.005V723.006L141.094 721.831V720.831L141.152 719.656L141.211 718.657V717.481V716.482L141.27 715.307V714.308L141.329 713.132V712.133L141.387 710.958V709.958L141.446 708.783V707.784L141.505 706.608V705.609L141.564 704.434L141.681 700.79L147.383 698.733V701.907H149.146L148.97 693.267L158.845 690.622L159.844 704.434L159.961 705.609L160.02 706.608L160.138 707.784L160.197 708.783L160.255 709.958L160.314 710.958L160.373 712.133L160.432 713.132L160.49 714.308L160.549 715.307L160.667 716.482L160.726 717.481L160.784 718.657L160.843 719.656L160.902 720.831L160.961 721.831L161.078 723.006L161.137 724.005L161.255 725.181L161.313 726.18L161.372 727.355L161.431 728.354L161.548 729.53L161.607 730.529L161.666 731.704L161.725 732.703L161.842 733.879L161.901 734.878L162.019 736.053L162.077 737.053L162.136 738.228L162.195 739.227L162.254 740.403L162.313 741.402L162.371 742.577L162.43 743.576L162.489 744.693H172.423V749.806H179.417V738.522H187.176V718.187H191.584V689.506H222.855V793.533H-138.458V703.846L-118.121 703.787Z" fill="#BDE0F4"/>
<path d="M109.235 735.466H104.886H88.3099H83.8428V683.217H109.235V735.466Z" fill="#BDE0F4"/>
<path d="M103.652 683.217H89.4858V735.466H103.652V683.217Z" fill="#49AAF7"/>
<path d="M103.652 683.217H89.4858V685.451H103.652V683.217Z" fill="#BDE0F4"/>
<path d="M103.652 687.214H89.4858V689.447H103.652V687.214Z" fill="#BDE0F4"/>
<path d="M103.652 691.269H89.4858V693.502H103.652V691.269Z" fill="#BDE0F4"/>
<path d="M103.652 695.265H89.4858V697.499H103.652V695.265Z" fill="#BDE0F4"/>
<path d="M103.652 699.321H89.4858V701.554H103.652V699.321Z" fill="#BDE0F4"/>
<path d="M103.652 703.317H89.4858V705.551H103.652V703.317Z" fill="#BDE0F4"/>
<path d="M103.652 707.373H89.4858V709.606H103.652V707.373Z" fill="#BDE0F4"/>
<path d="M103.652 711.369H89.4858V713.603H103.652V711.369Z" fill="#BDE0F4"/>
<path d="M103.652 715.366H89.4858V717.599H103.652V715.366Z" fill="#BDE0F4"/>
<path d="M103.652 719.421H89.4858V721.655H103.652V719.421Z" fill="#BDE0F4"/>
<path d="M103.652 723.418H89.4858V725.651H103.652V723.418Z" fill="#BDE0F4"/>
<path d="M103.652 727.473H89.4858V729.706H103.652V727.473Z" fill="#BDE0F4"/>
<path d="M103.652 731.469H89.4858V733.703H103.652V731.469Z" fill="#BDE0F4"/>
<path d="M86.6641 683.217H83.8428V685.451H86.6641V683.217Z" fill="#BDE0F4"/>
<path d="M86.6641 687.214H83.8428V689.447H86.6641V687.214Z" fill="#BDE0F4"/>
<path d="M86.6641 691.269H83.8428V693.502H86.6641V691.269Z" fill="#BDE0F4"/>
<path d="M86.6641 695.265H83.8428V697.499H86.6641V695.265Z" fill="#BDE0F4"/>
<path d="M86.6641 699.321H83.8428V701.554H86.6641V699.321Z" fill="#BDE0F4"/>
<path d="M86.6641 703.317H83.8428V705.551H86.6641V703.317Z" fill="#BDE0F4"/>
<path d="M86.6641 707.373H83.8428V709.606H86.6641V707.373Z" fill="#BDE0F4"/>
<path d="M86.6641 711.369H83.8428V713.603H86.6641V711.369Z" fill="#BDE0F4"/>
<path d="M86.6641 715.366H83.8428V717.599H86.6641V715.366Z" fill="#BDE0F4"/>
<path d="M86.6641 719.421H83.8428V721.655H86.6641V719.421Z" fill="#BDE0F4"/>
<path d="M86.6641 723.418H83.8428V725.651H86.6641V723.418Z" fill="#BDE0F4"/>
<path d="M86.6641 727.473H83.8428V729.706H86.6641V727.473Z" fill="#BDE0F4"/>
<path d="M86.6641 731.469H83.8428V733.703H86.6641V731.469Z" fill="#BDE0F4"/>
<path d="M109.235 683.217H106.414V685.451H109.235V683.217Z" fill="#BDE0F4"/>
<path d="M109.235 687.214H106.414V689.447H109.235V687.214Z" fill="#BDE0F4"/>
<path d="M109.235 691.269H106.414V693.502H109.235V691.269Z" fill="#BDE0F4"/>
<path d="M109.235 695.265H106.414V697.499H109.235V695.265Z" fill="#BDE0F4"/>
<path d="M109.235 699.321H106.414V701.554H109.235V699.321Z" fill="#BDE0F4"/>
<path d="M109.235 703.317H106.414V705.551H109.235V703.317Z" fill="#BDE0F4"/>
<path d="M109.235 707.373H106.414V709.606H109.235V707.373Z" fill="#BDE0F4"/>
<path d="M109.235 711.369H106.414V713.603H109.235V711.369Z" fill="#BDE0F4"/>
<path d="M109.235 715.366H106.414V717.599H109.235V715.366Z" fill="#BDE0F4"/>
<path d="M109.235 719.421H106.414V721.655H109.235V719.421Z" fill="#BDE0F4"/>
<path d="M109.235 723.418H106.414V725.651H109.235V723.418Z" fill="#BDE0F4"/>
<path d="M109.235 727.473H106.414V729.706H109.235V727.473Z" fill="#BDE0F4"/>
<path d="M109.235 731.469H106.414V733.703H109.235V731.469Z" fill="#BDE0F4"/>
<path d="M83.8428 683.217H74.2031V735.466H83.8428V683.217Z" fill="#49AAF7"/>
<path d="M80.7862 683.217H76.7305V733.703H80.7862V683.217Z" fill="#49AAF7"/>
<path d="M80.7862 683.217H76.7305V685.451H80.7862V683.217Z" fill="#49AAF7"/>
<path d="M80.7862 687.214H76.7305V689.447H80.7862V687.214Z" fill="#49AAF7"/>
<path d="M80.7862 691.269H76.7305V693.502H80.7862V691.269Z" fill="#49AAF7"/>
<path d="M80.7862 695.265H76.7305V697.499H80.7862V695.265Z" fill="#49AAF7"/>
<path d="M80.7862 699.321H76.7305V701.554H80.7862V699.321Z" fill="#49AAF7"/>
<path d="M80.7862 703.317H76.7305V705.551H80.7862V703.317Z" fill="#49AAF7"/>
<path d="M80.7862 707.373H76.7305V709.606H80.7862V707.373Z" fill="#49AAF7"/>
<path d="M80.7862 711.369H76.7305V713.603H80.7862V711.369Z" fill="#49AAF7"/>
<path d="M80.7862 715.366H76.7305V717.599H80.7862V715.366Z" fill="#49AAF7"/>
<path d="M80.7862 719.421H76.7305V721.655H80.7862V719.421Z" fill="#49AAF7"/>
<path d="M80.7862 723.418H76.7305V725.651H80.7862V723.418Z" fill="#49AAF7"/>
<path d="M80.7862 727.473H76.7305V729.706H80.7862V727.473Z" fill="#49AAF7"/>
<path d="M80.7862 731.469H76.7305V733.703H80.7862V731.469Z" fill="#49AAF7"/>
<path d="M97.3621 683.217H95.7163V733.703H97.3621V683.217Z" fill="#49AAF7"/>
<path d="M109.235 735.466H83.8428V787.538H109.235V735.466Z" fill="#BDE0F4"/>
<path d="M103.652 735.466H89.4858V787.538H103.652V735.466Z" fill="#49AAF7"/>
<path d="M103.652 735.466H89.4858V737.464H103.652V735.466Z" fill="#BDE0F4"/>
<path d="M103.652 739.286H89.4858V741.52H103.652V739.286Z" fill="#BDE0F4"/>
<path d="M103.652 743.342H89.4858V745.575H103.652V743.342Z" fill="#BDE0F4"/>
<path d="M103.652 747.338H89.4858V749.572H103.652V747.338Z" fill="#BDE0F4"/>
<path d="M103.652 751.394H89.4858V753.627H103.652V751.394Z" fill="#BDE0F4"/>
<path d="M86.6641 735.466H83.8428V737.464H86.6641V735.466Z" fill="#BDE0F4"/>
<path d="M86.6641 739.286H83.8428V741.52H86.6641V739.286Z" fill="#BDE0F4"/>
<path d="M86.6641 743.342H83.8428V745.575H86.6641V743.342Z" fill="#BDE0F4"/>
<path d="M86.6641 747.338H83.8428V749.572H86.6641V747.338Z" fill="#BDE0F4"/>
<path d="M86.6641 751.394H83.8428V753.627H86.6641V751.394Z" fill="#BDE0F4"/>
<path d="M109.235 735.466H106.414V737.464H109.235V735.466Z" fill="#BDE0F4"/>
<path d="M109.235 739.286H106.414V741.52H109.235V739.286Z" fill="#BDE0F4"/>
<path d="M109.235 743.342H106.414V745.575H109.235V743.342Z" fill="#BDE0F4"/>
<path d="M109.235 747.338H106.414V749.572H109.235V747.338Z" fill="#BDE0F4"/>
<path d="M109.235 751.394H106.414V753.627H109.235V751.394Z" fill="#BDE0F4"/>
<path d="M83.8428 735.466H74.2031V787.538H83.8428V735.466Z" fill="#49AAF7"/>
<path d="M80.7862 735.466H76.7305V785.716H80.7862V735.466Z" fill="#49AAF7"/>
<path d="M80.7862 735.466H76.7305V737.464H80.7862V735.466Z" fill="#49AAF7"/>
<path d="M80.7862 739.286H76.7305V741.52H80.7862V739.286Z" fill="#49AAF7"/>
<path d="M80.7862 743.342H76.7305V745.575H80.7862V743.342Z" fill="#49AAF7"/>
<path d="M80.7862 747.338H76.7305V749.572H80.7862V747.338Z" fill="#49AAF7"/>
<path d="M80.7862 751.394H76.7305V753.627H80.7862V751.394Z" fill="#49AAF7"/>
<path d="M97.3621 735.466H95.7163V785.775H97.3621V735.466Z" fill="#49AAF7"/>
<path d="M109.294 680.043H74.2031V683.217H109.294V680.043Z" fill="#BDE0F4"/>
<path d="M109.294 679.926H74.2031V680.044H109.294V679.926Z" fill="#BDE0F4"/>
<path d="M83.8428 680.043H74.2031V683.217H83.8428V680.043Z" fill="#BDE0F4"/>
<path d="M83.8428 679.926H74.2031V680.044H83.8428V679.926Z" fill="#BDE0F4"/>
<path d="M74.0855 670.287H56.3931V791.652H74.0855V670.287Z" fill="#BDE0F4"/>
<path d="M56.3932 670.287H31.3535V791.652H56.3932V670.287Z" fill="#BDE0F4"/>
<path d="M74.0267 670.287H56.3931V791.652H74.0267V670.287Z" fill="#BDE0F4"/>
<path d="M56.3932 670.287H31.3535V791.652H56.3932V670.287Z" fill="#003659"/>
<path d="M57.7448 671.874H51.1616V674.108H57.7448V671.874Z" fill="#BDE0F4"/>
<path d="M35.4089 671.874H28.8257V674.107H35.4089V671.874Z" fill="#BDE0F4"/>
<path d="M62.3878 671.874H57.6855V674.108H62.3878V671.874Z" fill="#BDE0F4"/>
<path d="M76.3781 671.874H71.6758V674.108H76.3781V671.874Z" fill="#BDE0F4"/>
<path d="M57.7448 675.753H51.1616V677.987H57.7448V675.753Z" fill="#BDE0F4"/>
<path d="M35.4089 675.753H28.8257V677.986H35.4089V675.753Z" fill="#BDE0F4"/>
<path d="M62.3878 675.753H57.6855V677.987H62.3878V675.753Z" fill="#BDE0F4"/>
<path d="M76.3781 675.753H71.6758V677.987H76.3781V675.753Z" fill="#BDE0F4"/>
<path d="M57.7448 679.632H51.1616V681.866H57.7448V679.632Z" fill="#BDE0F4"/>
<path d="M35.4089 679.632H28.8257V681.866H35.4089V679.632Z" fill="#BDE0F4"/>
<path d="M62.3878 679.632H57.6855V681.866H62.3878V679.632Z" fill="#BDE0F4"/>
<path d="M76.3781 679.632H71.6758V681.866H76.3781V679.632Z" fill="#BDE0F4"/>
<path d="M57.7448 683.511H51.1616V685.744H57.7448V683.511Z" fill="#BDE0F4"/>
<path d="M35.4089 683.511H28.8257V685.744H35.4089V683.511Z" fill="#BDE0F4"/>
<path d="M62.3878 683.511H57.6855V685.744H62.3878V683.511Z" fill="#BDE0F4"/>
<path d="M76.3781 683.511H71.6758V685.744H76.3781V683.511Z" fill="#BDE0F4"/>
<path d="M57.7448 687.39H51.1616V689.623H57.7448V687.39Z" fill="#BDE0F4"/>
<path d="M35.4089 687.39H28.8257V689.623H35.4089V687.39Z" fill="#BDE0F4"/>
<path d="M62.3878 687.39H57.6855V689.623H62.3878V687.39Z" fill="#BDE0F4"/>
<path d="M76.3781 687.39H71.6758V689.623H76.3781V687.39Z" fill="#BDE0F4"/>
<path d="M57.7448 691.21H51.1616V693.444H57.7448V691.21Z" fill="#BDE0F4"/>
<path d="M35.4089 691.21H28.8257V693.444H35.4089V691.21Z" fill="#BDE0F4"/>
<path d="M62.3878 691.21H57.6855V693.444H62.3878V691.21Z" fill="#BDE0F4"/>
<path d="M76.3781 691.21H71.6758V693.444H76.3781V691.21Z" fill="#BDE0F4"/>
<path d="M57.7448 695.089H51.1616V697.322H57.7448V695.089Z" fill="#BDE0F4"/>
<path d="M35.4089 695.089H28.8257V697.322H35.4089V695.089Z" fill="#BDE0F4"/>
<path d="M62.3878 695.089H57.6855V697.322H62.3878V695.089Z" fill="#BDE0F4"/>
<path d="M76.3781 695.089H71.6758V697.322H76.3781V695.089Z" fill="#BDE0F4"/>
<path d="M57.7448 698.968H51.1616V701.201H57.7448V698.968Z" fill="#BDE0F4"/>
<path d="M35.4089 698.968H28.8257V701.201H35.4089V698.968Z" fill="#BDE0F4"/>
<path d="M62.3878 698.968H57.6855V701.201H62.3878V698.968Z" fill="#BDE0F4"/>
<path d="M76.3781 698.968H71.6758V701.201H76.3781V698.968Z" fill="#BDE0F4"/>
<path d="M57.7448 702.847H51.1616V705.081H57.7448V702.847Z" fill="#BDE0F4"/>
<path d="M35.4089 702.847H28.8257V705.081H35.4089V702.847Z" fill="#BDE0F4"/>
<path d="M62.3878 702.847H57.6855V705.081H62.3878V702.847Z" fill="#BDE0F4"/>
<path d="M76.3781 702.847H71.6758V705.081H76.3781V702.847Z" fill="#BDE0F4"/>
<path d="M57.7448 706.667H51.1616V708.901H57.7448V706.667Z" fill="#BDE0F4"/>
<path d="M35.4089 706.667H28.8257V708.901H35.4089V706.667Z" fill="#BDE0F4"/>
<path d="M62.3878 706.667H57.6855V708.901H62.3878V706.667Z" fill="#BDE0F4"/>
<path d="M76.3781 706.667H71.6758V708.901H76.3781V706.667Z" fill="#BDE0F4"/>
<path d="M57.7448 710.546H51.1616V712.78H57.7448V710.546Z" fill="#BDE0F4"/>
<path d="M35.4089 710.546H28.8257V712.78H35.4089V710.546Z" fill="#BDE0F4"/>
<path d="M62.3878 710.546H57.6855V712.78H62.3878V710.546Z" fill="#BDE0F4"/>
<path d="M76.3781 710.546H71.6758V712.78H76.3781V710.546Z" fill="#BDE0F4"/>
<path d="M57.7448 714.425H51.1616V716.659H57.7448V714.425Z" fill="#BDE0F4"/>
<path d="M35.4089 714.425H28.8257V716.659H35.4089V714.425Z" fill="#BDE0F4"/>
<path d="M62.3878 714.425H57.6855V716.659H62.3878V714.425Z" fill="#BDE0F4"/>
<path d="M76.3781 714.425H71.6758V716.659H76.3781V714.425Z" fill="#BDE0F4"/>
<path d="M57.7448 718.304H51.1616V720.537H57.7448V718.304Z" fill="#BDE0F4"/>
<path d="M35.4089 718.304H28.8257V720.537H35.4089V718.304Z" fill="#BDE0F4"/>
<path d="M62.3878 718.304H57.6855V720.537H62.3878V718.304Z" fill="#BDE0F4"/>
<path d="M76.3781 718.304H71.6758V720.537H76.3781V718.304Z" fill="#BDE0F4"/>
<path d="M57.7448 722.183H51.1616V724.416H57.7448V722.183Z" fill="#BDE0F4"/>
<path d="M35.4089 722.183H28.8257V724.416H35.4089V722.183Z" fill="#BDE0F4"/>
<path d="M62.3878 722.183H57.6855V724.416H62.3878V722.183Z" fill="#BDE0F4"/>
<path d="M76.3781 722.183H71.6758V724.416H76.3781V722.183Z" fill="#BDE0F4"/>
<path d="M57.7448 726.004H51.1616V728.237H57.7448V726.004Z" fill="#BDE0F4"/>
<path d="M35.4089 726.004H28.8257V728.237H35.4089V726.004Z" fill="#BDE0F4"/>
<path d="M62.3878 726.004H57.6855V728.237H62.3878V726.004Z" fill="#BDE0F4"/>
<path d="M76.3781 726.004H71.6758V728.237H76.3781V726.004Z" fill="#BDE0F4"/>
<path d="M57.7448 729.882H51.1616V732.116H57.7448V729.882Z" fill="#BDE0F4"/>
<path d="M35.4089 729.883H28.8257V732.116H35.4089V729.883Z" fill="#BDE0F4"/>
<path d="M62.3878 729.882H57.6855V732.116H62.3878V729.882Z" fill="#BDE0F4"/>
<path d="M76.3781 729.882H71.6758V732.116H76.3781V729.882Z" fill="#BDE0F4"/>
<path d="M57.7448 733.761H51.1616V735.995H57.7448V733.761Z" fill="#BDE0F4"/>
<path d="M35.4089 733.762H28.8257V735.995H35.4089V733.762Z" fill="#BDE0F4"/>
<path d="M62.3878 733.761H57.6855V735.995H62.3878V733.761Z" fill="#BDE0F4"/>
<path d="M76.3781 733.761H71.6758V735.995H76.3781V733.761Z" fill="#BDE0F4"/>
<path d="M57.7448 737.641H51.1616V739.874H57.7448V737.641Z" fill="#BDE0F4"/>
<path d="M35.4089 737.64H28.8257V739.874H35.4089V737.64Z" fill="#BDE0F4"/>
<path d="M62.3878 737.641H57.6855V739.874H62.3878V737.641Z" fill="#BDE0F4"/>
<path d="M76.3781 737.641H71.6758V739.874H76.3781V737.641Z" fill="#BDE0F4"/>
<path d="M57.7448 741.52H51.1616V743.753H57.7448V741.52Z" fill="#BDE0F4"/>
<path d="M35.4089 741.519H28.8257V743.753H35.4089V741.519Z" fill="#BDE0F4"/>
<path d="M62.3878 741.52H57.6855V743.753H62.3878V741.52Z" fill="#BDE0F4"/>
<path d="M76.3781 741.52H71.6758V743.753H76.3781V741.52Z" fill="#BDE0F4"/>
<path d="M57.7448 745.339H51.1616V747.573H57.7448V745.339Z" fill="#BDE0F4"/>
<path d="M35.4089 745.34H28.8257V747.573H35.4089V745.34Z" fill="#BDE0F4"/>
<path d="M62.3878 745.339H57.6855V747.573H62.3878V745.339Z" fill="#BDE0F4"/>
<path d="M76.3781 745.339H71.6758V747.573H76.3781V745.339Z" fill="#BDE0F4"/>
<path d="M57.7448 749.219H51.1616V751.452H57.7448V749.219Z" fill="#BDE0F4"/>
<path d="M35.4089 749.219H28.8257V751.452H35.4089V749.219Z" fill="#BDE0F4"/>
<path d="M62.3878 749.219H57.6855V751.452H62.3878V749.219Z" fill="#BDE0F4"/>
<path d="M76.3781 749.219H71.6758V751.452H76.3781V749.219Z" fill="#BDE0F4"/>
<path d="M57.7448 753.097H51.1616V755.331H57.7448V753.097Z" fill="#BDE0F4"/>
<path d="M35.4089 753.098H28.8257V755.331H35.4089V753.098Z" fill="#BDE0F4"/>
<path d="M62.3878 753.097H57.6855V755.331H62.3878V753.097Z" fill="#BDE0F4"/>
<path d="M76.3781 753.097H71.6758V755.331H76.3781V753.097Z" fill="#BDE0F4"/>
<path d="M47.8702 670.287H38.0542V789.713H47.8702V670.287Z" fill="#003659"/>
<path d="M69.9709 670.287H63.8579V790.124H69.9709V670.287Z" fill="#003659"/>
<path d="M403.363 698.733H267.702V791.652H403.363V698.733Z" fill="white"/>
<path d="M409.477 711.192H261.531V780.309H409.477V711.192Z" fill="#49D8F7"/>
<path opacity="0.36" d="M409.477 749.982H261.531V757.329H409.477V749.982Z" fill="#49D8F7"/>
<path opacity="0.36" d="M409.477 734.878H261.531V742.224H409.477V734.878Z" fill="#49D8F7"/>
<path opacity="0.36" d="M409.477 719.538H261.531V726.885H409.477V719.538Z" fill="#49D8F7"/>
<path d="M262.824 711.192H261.531V780.309H262.824V711.192Z" fill="white"/>
<path d="M271.993 711.192H270.7V780.309H271.993V711.192Z" fill="white"/>
<path d="M281.222 711.192H279.929V780.309H281.222V711.192Z" fill="white"/>
<path d="M290.449 711.192H289.156V780.309H290.449V711.192Z" fill="white"/>
<path d="M299.619 711.192H298.326V780.309H299.619V711.192Z" fill="white"/>
<path d="M308.848 711.192H307.555V780.309H308.848V711.192Z" fill="white"/>
<path d="M318.075 711.192H316.782V780.309H318.075V711.192Z" fill="white"/>
<g style="mix-blend-mode:overlay" opacity="0.61">
<path d="M281.456 419.681C281.456 419.681 277.048 497.79 224.794 526.588C184.354 548.804 171.129 616.51 171.129 616.51L171.011 419.681H281.456Z" fill="#FEEDC5"/>
</g>
<path d="M422.701 777.841H261.119C261.119 740.403 285.453 710.076 315.43 710.076C319.486 710.076 323.483 710.664 327.303 711.722C331.594 707.549 336.297 704.082 341.352 701.554C347.935 698.204 355.047 696.382 362.512 696.382C395.722 696.324 422.701 732.821 422.701 777.841Z" fill="#3D213D"/>
<path d="M422.701 777.841H261.119C261.119 740.403 285.453 710.076 315.43 710.076C319.486 710.076 323.483 710.664 327.303 711.722C331.594 707.549 336.297 704.082 341.352 701.554C347.935 698.204 355.047 696.382 362.512 696.382C395.722 696.324 422.701 732.821 422.701 777.841Z" fill="url(#paint2_linear_217_204)"/>
<path opacity="0.43" d="M341.293 701.554L304.557 777.899H261.061C261.061 740.461 285.395 710.135 315.372 710.135C319.428 710.135 323.425 710.722 327.245 711.78C331.595 707.49 336.297 704.081 341.293 701.554Z" fill="#FEEDC5"/>
<path d="M21.0081 777.371C36.4928 777.371 49.0456 764.819 49.0456 749.336C49.0456 733.853 36.4928 721.302 21.0081 721.302C5.52348 721.302 -7.0293 733.853 -7.0293 749.336C-7.0293 764.819 5.52348 777.371 21.0081 777.371Z" fill="#3A95A8"/>
<path d="M98.3612 769.848C116.93 769.848 131.983 755.665 131.983 738.17C131.983 720.674 116.93 706.491 98.3612 706.491C79.7926 706.491 64.7397 720.674 64.7397 738.17C64.7397 755.665 79.7926 769.848 98.3612 769.848Z" fill="#888A17"/>
<path d="M99.5956 769.848C117.482 769.848 131.983 756.033 131.983 738.992C131.983 721.951 117.482 708.137 99.5956 708.137C81.7087 708.137 67.2085 721.951 67.2085 738.992C67.2085 756.033 81.7087 769.848 99.5956 769.848Z" fill="#3D213D"/>
<path d="M99.5956 769.848C117.482 769.848 131.983 756.033 131.983 738.992C131.983 721.951 117.482 708.137 99.5956 708.137C81.7087 708.137 67.2085 721.951 67.2085 738.992C67.2085 756.033 81.7087 769.848 99.5956 769.848Z" fill="url(#paint3_linear_217_204)"/>
<path d="M45.9304 745.281C43.9319 749.277 40.5815 752.51 37.525 755.742C35.1151 758.328 32.6464 760.855 30.1189 763.324C32.1761 758.446 33.7632 753.391 34.9975 748.161C35.3502 746.691 33.0578 746.045 32.7052 747.514C31.1769 754.155 29.0021 760.503 26.0632 766.615V749.924C26.0632 747.632 22.5364 747.632 22.5364 749.924V761.032C22.0074 760.797 21.4196 760.62 20.8906 760.385C18.5395 759.445 16.1883 758.505 13.8372 757.564C9.66391 755.86 5.66696 753.862 2.08146 751.099C0.905884 750.159 -0.26969 752.216 0.905884 753.156C4.66772 756.036 8.89978 758.034 13.1906 759.856C15.8944 760.973 18.5983 762.031 21.3021 763.148C21.6548 763.324 22.0662 763.559 22.4777 763.735V812.634C22.4777 814.926 26.0044 814.926 26.0044 812.634V771.787C26.7097 770.494 27.3563 769.142 28.0029 767.791C28.3555 767.849 35.8792 760.856 39.112 757.388C42.2861 754.038 45.8128 750.629 47.8701 746.456C48.5754 745.104 46.5769 743.87 45.9304 745.281Z" fill="#3A95A8"/>
<path d="M64.74 728.883C64.74 738.874 62.5651 748.278 58.627 756.8H-138.458V700.672C-130.993 694.149 -122.118 689.27 -112.301 686.567C-107.07 683.217 -101.251 680.748 -95.0205 679.279C-85.1457 663.058 -67.277 652.244 -46.8808 652.244C-34.4785 652.244 -23.0754 656.24 -13.7296 663.058C-9.96777 662.411 -6.08838 662.059 -2.09143 662.059C3.66888 662.059 9.25285 662.764 14.6017 664.175C43.4621 671.58 64.74 697.734 64.74 728.883Z" fill="url(#paint4_linear_217_204)"/>
<path d="M206.573 773.492C229.621 773.492 248.306 755.888 248.306 734.173C248.306 712.458 229.621 694.854 206.573 694.854C183.524 694.854 164.84 712.458 164.84 734.173C164.84 755.888 183.524 773.492 206.573 773.492Z" fill="#3A95A8"/>
<path d="M208.101 773.492C230.305 773.492 248.306 756.362 248.306 735.231C248.306 714.1 230.305 696.97 208.101 696.97C185.897 696.97 167.896 714.1 167.896 735.231C167.896 756.362 185.897 773.492 208.101 773.492Z" fill="#3A95A8"/>
<path d="M232.083 715.718C232.083 746.28 205.809 771.023 173.363 771.023C158.316 771.023 144.62 765.675 134.216 756.918C122.226 746.809 114.643 732.057 114.643 715.718C114.643 685.156 140.917 660.413 173.363 660.413C189.762 660.413 204.516 666.702 215.213 676.928C225.617 686.861 232.083 700.555 232.083 715.718Z" fill="#AEB11B"/>
<path d="M232.083 715.718C232.083 746.28 205.809 771.023 173.363 771.023C158.316 771.023 144.62 765.675 134.216 756.918C122.226 746.809 114.643 732.057 114.643 715.718C114.643 685.156 140.917 660.413 173.363 660.413C189.762 660.413 204.516 666.702 215.213 676.928C225.617 686.861 232.083 700.555 232.083 715.718Z" fill="url(#paint5_linear_217_204)"/>
<path d="M196.932 703.67H194.581V805.17H196.932V703.67Z" fill="#FFFFFB"/>
<path d="M206.916 700.404L196.068 711.251L196.484 711.666L207.332 700.82L206.916 700.404Z" fill="#FFFFFB"/>
<path d="M215.388 694.384L214.095 694.031C213.272 693.855 212.156 694.09 211.509 694.619L205.278 700.026C204.691 700.555 204.808 701.142 205.631 701.378L206.924 701.73C207.747 701.907 208.864 701.671 209.511 701.142L215.741 695.735C216.388 695.206 216.211 694.619 215.388 694.384Z" fill="#49AAF7"/>
<path d="M-174.597 677.906L260.836 567.002C260.836 567.002 260.483 566.003 259.837 564.475C258.308 560.655 255.311 553.367 253.195 549.664C250.256 544.551 248.845 543.082 248.845 543.082L238.206 540.849L195.298 553.778L-171.07 664.153L-174.597 677.906Z" fill="#889EA3"/>
<path d="M235.973 545.374L-171.422 665.564L-175.419 678.141L241.028 569.647L235.973 545.374Z" fill="#E21A1A"/>
<path d="M161.782 566.698L181.087 585.276L150.681 593.098L133.788 574.52L161.782 566.698Z" fill="#A1C5CD"/>
<path d="M93.0102 587.598L113.438 606.949L81.264 615.097L63.3892 595.746L93.0102 587.598Z" fill="#A1C5CD"/>
<path d="M28.6496 606.297L44.1392 621.005L19.7431 627.197L6.18972 612.49L28.6496 606.297Z" fill="#A1C5CD"/>
<path d="M118.121 581.989L121.413 580.99V586.103L118.121 587.102V581.989Z" fill="#E6E6E6"/>
<path d="M-5.78399 618.369L5.3252 615.137C5.14886 616.547 5.14883 617.958 5.14883 619.368L-6.25422 622.601C-6.13666 621.249 -5.96033 619.839 -5.78399 618.369Z" fill="#E6E6E6"/>
<path d="M22.0773 610.2L28.543 608.319C28.4254 609.848 28.2491 611.376 27.9552 612.845L21.7246 614.608C21.7246 613.139 21.8422 611.669 22.0773 610.2Z" fill="#E6E6E6"/>
<path d="M30.2475 607.791L35.7139 606.204C35.7139 607.732 35.6551 609.201 35.5375 610.729L29.7772 612.375C30.0123 610.847 30.1887 609.319 30.2475 607.791Z" fill="#E6E6E6"/>
<path d="M37.4187 605.674L65.5737 597.387V602.089L37.2424 610.2C37.3599 608.672 37.4187 607.202 37.4187 605.674Z" fill="#E6E6E6"/>
<path d="M74.0377 594.919L86.7339 591.217V596.036L74.0377 599.68V594.919Z" fill="#E6E6E6"/>
<path d="M91.9648 589.63L109.657 584.458V589.512L91.9648 594.567V589.63Z" fill="#E6E6E6"/>
<path d="M123.118 580.52L128.349 578.992V584.164L123.118 585.633V580.52Z" fill="#E6E6E6"/>
<path d="M133.933 582.577V577.346L152.977 571.763V577.17L145.101 579.403V577.699C145.101 576.582 143.396 576.582 143.396 577.699V579.873L133.933 582.577Z" fill="#E6E6E6"/>
<path d="M195.297 553.779L242.614 563.77L259.836 564.475C258.308 560.655 255.31 553.367 253.194 549.664C250.256 544.551 248.845 543.082 248.845 543.082L238.206 540.849L195.297 553.779Z" fill="#FBD5A2"/>
<path d="M238.206 540.849C238.206 540.849 242.438 555.718 243.496 557.129C244.025 557.834 247.728 558.657 251.196 559.244C254.547 559.832 257.721 560.302 257.721 560.302C257.721 560.302 254.723 549.958 248.845 543.082L243.966 542.083L238.206 540.849Z" fill="#3D213D"/>
<path d="M256.436 556.248L257.811 560.373L251.211 559.273L248.736 555.698L256.436 556.248Z" fill="#89CFE1"/>
<path d="M64.4561 593.215L63.2805 620.133L57.1675 621.602L59.5774 594.684L64.4561 593.215Z" fill="#3D213D"/>
<path d="M259.338 563.334L248.58 561.92L243.888 558.798L241.674 545.248L198.556 562.156L198.955 571.758L195.457 572.23L194.749 560.212L192.536 561.096L193.775 578.946L112.01 608.107L111.789 615.647L259.736 564.63L259.338 563.334Z" fill="#ED6F01"/>
<path d="M196.121 558.998L177.787 564.495L179.802 583.198L241.586 567.11L196.121 558.998Z" fill="#E21A1A"/>
<path d="M213.515 549.648L236.637 571.709L213.515 576.598L193.283 554.537L213.515 549.648Z" fill="#A1C5CD"/>
<path d="M234.68 547.431L237.148 558.892L208.406 555.248L234.68 547.431Z" fill="#FBD5A2"/>
<path d="M238.206 540.849C238.206 540.849 242.438 555.718 243.496 557.129C244.025 557.834 247.728 558.657 251.196 559.244L238.206 540.849Z" fill="#E21A1A"/>
<path d="M250.111 544.699L239.936 543.599L238.561 540.849L249.011 543.049L250.111 544.699Z" fill="#607785"/>
<path d="M41.6505 602.325L19.4322 609.025V622.307L20.4314 621.719V609.554L41.7681 602.853L41.6505 602.325Z" fill="#E6E6E6"/>
<path d="M152.977 569.882V570.764L132.169 576.7L132.463 587.396H131.876L131.699 576.112L152.977 569.882Z" fill="#E6E6E6"/>
<path d="M205.837 556.248V557.13L185.029 563.066L185.323 573.762H184.735L184.559 562.478L205.837 556.248Z" fill="#E6E6E6"/>
<path d="M100.37 585.398V585.927L90.9068 588.807V596.859L90.4953 597.388V588.278L100.37 585.398Z" fill="#E6E6E6"/>
<path d="M188.443 568.712V563.482L207.487 557.898V563.305L199.61 565.539V563.834C199.61 562.718 197.906 562.718 197.906 563.834V566.009L188.443 568.712Z" fill="#E6E6E6"/>
<path d="M171.959 568.045L175.251 567.046V572.16L171.959 573.159V568.045Z" fill="#E6E6E6"/>
<path d="M176.956 566.576L182.187 565.048V570.22L176.956 571.69V566.576Z" fill="#E6E6E6"/>
<g style="mix-blend-mode:screen" opacity="0.61">
<path d="M229.714 543.598L237.767 570.986L55.9641 595.965L229.714 543.598Z" fill="#FEEDC5"/>
</g>
<path d="M996.175 410.5L-438.204 749.336V756.095L1273.92 450.65V414.9L996.175 410.5Z" fill="#003659"/>
<path opacity="0.24" d="M42.9589 668.642L-52.0275 659.121L74.9345 628.853L155.05 648.306L42.9589 668.642Z" fill="#FEEDC5"/>
<path d="M996.175 413.25L-438.204 749.336V746.104L927.426 394.001L996.175 413.25Z" fill="#5566C5"/>
<path d="M404.658 534.524L-438.204 747.338V747.867L406.583 538.924L404.658 534.524Z" fill="#3D213D"/>
<path d="M203.836 641.371V653.654L196.312 657.592L184.733 648.012L177.268 642.782V630.498L203.836 641.371Z" fill="#BDD0F4"/>
<path d="M184.733 635.67H213.064V791.652H184.733V635.67Z" fill="#BDD0F4"/>
<path d="M228.251 791.634H213.086L213.086 637.767H228.251L228.251 791.634Z" fill="#3A95A8"/>
<path d="M234.812 636.023V648.306L227.23 652.244L215.768 647.542L208.245 637.433V625.209L234.812 636.023Z" fill="#5566C5"/>
<path d="M177.268 630.498L208.244 625.209V637.433L177.268 642.782V630.498Z" fill="#BDD0F4"/>
<path d="M221.529 630.616L228.229 653.537V651.715L234.812 648.306V636.023L221.529 630.616Z" fill="#003659"/>
<path d="M213.064 643.898L184.733 648.012L177.268 642.782L208.244 637.433L213.064 643.898Z" fill="#3D91D4"/>
<path opacity="0.61" d="M172.801 587.829L173.859 592.179L428.033 529.024L419.508 523.799L172.801 587.829Z" fill="#FEEDC5"/>
<path opacity="0.61" d="M184.733 593.53L186.849 603.051L389.259 555.857L410.158 538.098L184.733 593.53Z" fill="#FEEDC5"/>
<path d="M142.334 815.614C142.334 778.587 116.882 728.396 89.6678 728.396C77.7357 728.396 66.8029 734.155 58.28 743.735C56.4578 743.441 54.6357 743.324 52.7548 743.324C25.5402 743.324 3.43945 793.515 3.43945 830.542C3.43945 831.835 3.49824 833.187 3.49824 834.48H140.041C141.569 828.485 142.334 822.138 142.334 815.614Z" fill="url(#paint6_linear_217_204)"/>
<path d="M293.835 731.981C293.835 770.434 326.893 801.566 367.717 801.566C386.649 801.566 403.881 794.837 416.971 783.819C432.058 771.1 441.598 752.539 441.598 731.981C441.598 693.529 408.54 662.397 367.717 662.397C347.083 662.397 328.52 670.309 315.06 683.176C301.97 695.673 293.835 712.903 293.835 731.981Z" fill="#AEB11B"/>
<path d="M293.835 731.981C293.835 770.434 326.893 801.566 367.717 801.566C386.649 801.566 403.881 794.837 416.971 783.819C432.058 771.1 441.598 752.539 441.598 731.981C441.598 693.529 408.54 662.397 367.717 662.397C347.083 662.397 328.52 670.309 315.06 683.176C301.97 695.673 293.835 712.903 293.835 731.981Z" fill="url(#paint7_linear_217_204)"/>
</g>
<defs>
<linearGradient id="paint0_linear_217_204" x1="978.624" y1="-0.00890668" x2="978.624" y2="1025.18" gradientUnits="userSpaceOnUse">
<stop stop-color="#51C0E1"/>
<stop offset="0.2622" stop-color="#A9E9F2"/>
<stop offset="0.5627" stop-color="#CCFCE0"/>
<stop offset="0.881" stop-color="#E0F096"/>
<stop offset="1" stop-color="#ECE963"/>
</linearGradient>
<linearGradient id="paint1_linear_217_204" x1="268.411" y1="440.198" x2="268.411" y2="830.482" gradientUnits="userSpaceOnUse">
<stop stop-color="white"/>
<stop offset="1"/>
</linearGradient>
<linearGradient id="paint2_linear_217_204" x1="364.182" y1="765.844" x2="254.994" y2="699.104" gradientUnits="userSpaceOnUse">
<stop stop-color="#4DB0A5"/>
<stop offset="1" stop-color="#EFCE3D"/>
</linearGradient>
<linearGradient id="paint3_linear_217_204" x1="108.524" y1="760.759" x2="54.0939" y2="743.154" gradientUnits="userSpaceOnUse">
<stop stop-color="#4DB0A5"/>
<stop offset="1" stop-color="#EFCE3D"/>
</linearGradient>
<linearGradient id="paint4_linear_217_204" x1="-8.85098" y1="741.402" x2="-147.674" y2="658.265" gradientUnits="userSpaceOnUse">
<stop stop-color="#4DB0A5"/>
<stop offset="1" stop-color="#EFCE3D"/>
</linearGradient>
<linearGradient id="paint5_linear_217_204" x1="189.55" y1="754.733" x2="91.0819" y2="722.517" gradientUnits="userSpaceOnUse">
<stop stop-color="#4DB0A5"/>
<stop offset="1" stop-color="#EFCE3D"/>
</linearGradient>
<linearGradient id="paint6_linear_217_204" x1="96.4855" y1="952.647" x2="-31.1272" y2="846.721" gradientUnits="userSpaceOnUse">
<stop stop-color="#4DB0A5"/>
<stop offset="1" stop-color="#EFCE3D"/>
</linearGradient>
<linearGradient id="paint7_linear_217_204" x1="347.349" y1="781.07" x2="471.243" y2="740.535" gradientUnits="userSpaceOnUse">
<stop stop-color="#4DB0A5"/>
<stop offset="1" stop-color="#EFCE3D"/>
</linearGradient>
<clipPath id="clip0_217_204">
<rect width="1925.07" height="548" fill="white" transform="translate(-700.037 352)"/>
</clipPath>
</defs>
</svg>
