<svg width="107" height="136" viewBox="0 0 107 136" fill="none" xmlns="http://www.w3.org/2000/svg">
<g clip-path="url(#clip0_235_89357)">
<mask id="mask0_235_89357" style="mask-type:alpha" maskUnits="userSpaceOnUse" x="-12" y="0" width="146" height="140">
<rect x="-12" width="145.507" height="139.074" rx="17" fill="#FFFEFF"/>
</mask>
<g mask="url(#mask0_235_89357)">
<mask id="mask1_235_89357" style="mask-type:luminance" maskUnits="userSpaceOnUse" x="-263" y="-35" width="393" height="267">
<path d="M129.053 -34.9261H-262.246V231.157H129.053V-34.9261Z" fill="white"/>
</mask>
<g mask="url(#mask1_235_89357)">
<path d="M-398.066 127.548V247.174L-385.25 247.631L-355.371 248.686L-354.22 248.721L-297.722 250.691H-297.363L-296.047 250.726L-295.554 250.761L-294.028 250.796L-292.189 250.866H-291.845L-290.858 250.902H-290.529L-288.645 250.972H-288.241L-286.417 251.042L-279.642 251.288L-277.04 251.394L-275.081 251.464L-272.524 251.535C-272.509 251.535 -272.509 251.535 -272.509 251.535L-266.213 251.746L-265.6 251.781H-265.585L-264.583 251.816L-242.974 252.554L-239.176 252.695L-236.036 252.8L-232.207 252.941L-230.069 253.011L-212.288 253.644L-211.361 253.68L-206.531 253.855L-205.185 253.891L-203.764 253.926L-199.472 254.066L-189.154 254.418L-186.283 254.523L-161.907 255.367C-161.907 255.367 -161.907 255.367 -161.892 255.367L-123.235 256.704L-120.828 256.774L-119.676 256.809L-90.7544 257.829L-87.5542 257.934L-83.8754 258.075L-78.3872 258.251L-74.4692 258.391L-70.4763 258.532C-70.4763 258.532 -70.4764 258.532 -70.4614 258.532L-64.375 258.743L-61.743 258.849H-61.6683L-30.5334 259.939L-26.6303 260.079L-19.9008 260.325L-14.0388 260.536L18.7859 261.697L24.8574 261.908L39.2733 262.4L47.4683 262.681L74.401 263.631L90.3573 264.193L105.087 264.721L149.382 266.268L161.345 266.69L165.906 266.831L178.528 267.288L252.163 269.855H252.193L254.062 269.925L284.225 270.98V260.325V212.503V165.243V73.4309V-24.4293H-398.066V127.548Z" fill="url(#paint0_linear_235_89357)"/>
<g style="mix-blend-mode:screen" opacity="0.84">
<path d="M-48.6733 128.524C83.0061 128.524 189.753 105.697 189.753 77.5394C189.753 49.3815 83.0061 26.5551 -48.6733 26.5551C-180.353 26.5551 -287.1 49.3815 -287.1 77.5394C-287.1 105.697 -180.353 128.524 -48.6733 128.524Z" fill="url(#paint1_radial_235_89357)"/>
</g>
<path d="M5.28602 5.14136C5.21126 4.18297 6.99072 3.70377 7.91782 4.43754C7.90287 3.76367 8.3066 3.0898 9.09912 2.9101C9.89165 2.71543 11.0281 3.22458 11.073 3.89845C11.0879 4.12307 10.9982 4.36267 11.1328 4.57232C11.5664 5.27614 13.1216 4.49744 13.7945 5.09644C10.6842 5.27614 7.54398 5.30608 4.38882 5.20126C4.59817 5.14136 4.82248 5.06649 5.03182 5.00659L5.28602 5.14136Z" fill="url(#paint2_linear_235_89357)"/>
<path d="M46.796 4.5424C48.8596 4.51245 50.9531 5.03657 53.0167 5.41095C58.4447 6.38432 63.9924 6.32442 69.0167 5.23125C68.5681 4.31778 67.3569 3.59899 66.1456 3.50914C64.9344 3.43426 63.8129 4.00331 63.4989 4.87185C59.4167 2.14642 54.811 -0.758709 49.7867 -0.923433C46.5568 -1.02826 43.5362 0.0948594 41.8465 2.0416C40.7698 1.203 39.0054 1.2629 37.9437 1.89185C36.882 2.52079 36.3586 3.53909 35.8651 4.51245C36.4035 3.41929 23.3193 2.0416 31.1399 5.5607C36.1642 7.82191 42.1306 4.58733 46.796 4.5424Z" fill="url(#paint3_linear_235_89357)"/>
<path opacity="0.9" d="M60.8249 41.6951C60.8847 41.3956 62.1558 41.2907 62.2156 40.9912C66.3427 39.1643 72.2642 36.6935 70.1259 31.4522C69.124 28.5471 65.7745 26.81 63.1726 25.4922C57.8342 22.4523 50.8062 18.8284 43.8379 17.9449C42.1781 18.4241 40.608 19.068 39.1875 19.8916C36.8996 21.2094 35.0454 22.9315 33.565 24.7884C30.2154 29.0413 28.8248 34.1926 29.6771 39.1943C28.8996 38.4755 27.6734 38.0562 26.4622 38.0262C28.3762 39.0146 30.2155 39.943 32.1594 40.4222C41.1015 42.9979 52.3763 46.2474 60.8249 41.6951Z" fill="url(#paint4_linear_235_89357)"/>
<path opacity="0.9" d="M83.7461 39.0295C90.6695 38.176 92.1349 32.8 90.9387 27.6336C89.8172 27.1544 88.5461 26.8699 87.2751 26.84C83.8657 26.7651 80.6209 28.5471 79.7237 30.973C79.5891 30.7783 79.4396 30.5987 79.29 30.404C77.7349 33.9081 78.9162 39.7483 83.7461 39.0295Z" fill="url(#paint5_linear_235_89357)"/>
<path opacity="0.42" d="M231.142 42.7733C228.361 41.9796 225.176 42.5038 223.71 44.3606C222.26 42.0545 218.82 40.7517 215.486 40.3773C212.151 39.988 208.787 40.3474 205.437 40.3923C204.256 40.4073 203.03 40.3773 201.938 39.988C201.146 39.7034 200.488 39.2542 199.785 38.8499C196.914 37.2176 192.906 35.4805 189.422 35.8998C189.751 33.8932 188.854 31.7069 186.805 30.3142C184.757 28.9215 181.542 28.4873 179.224 29.4756C177.325 30.2842 176.203 31.1378 176.622 32.3957C176.802 32.6952 176.981 32.9947 177.131 33.3092C176.876 32.9797 176.712 32.6802 176.622 32.3957C175.815 31.0929 174.738 29.8799 173.467 28.7867C172.899 33.3241 170.925 37.4273 165.497 39.7334C157.243 43.3873 149.302 38.206 140.166 38.3557C136.368 38.7001 133.915 42.3091 130.117 42.6535C130.386 43.3124 129.19 43.1327 129.459 43.7766C118.005 45.1094 103.725 44.1809 96.3826 36.3191C94.8125 34.8516 94.6629 33.0995 94.962 31.2576C94.3489 29.7302 92.8536 28.4124 90.9844 27.6187C92.1807 32.785 90.7152 38.1461 83.7918 39.0146C78.9469 39.7334 77.7656 33.8932 79.3208 30.404C75.3731 25.2377 69.5563 20.7003 62.259 18.3792C56.4123 16.5073 49.5786 16.2677 43.8664 17.93C50.8347 18.8135 57.8628 22.4524 63.2011 25.4773C65.803 26.7951 69.1376 28.5172 70.1544 31.4373C72.3077 36.6635 66.3712 39.1494 62.2441 40.9763C62.1843 41.2758 60.9132 41.3806 60.8534 41.6801C52.4048 46.2325 41.13 42.983 32.1879 40.4073C30.2589 39.9281 28.4197 38.9996 26.4907 38.0113C25.8028 37.9963 25.115 38.0862 24.5168 38.3258C22.857 38.9847 22.0495 40.6019 22.7075 41.9647C20.8981 40.7367 9.21957 43.9713 9.09995 45.7683C17.4738 45.7383 26.1318 45.0495 34.5206 45.0195C45.3468 47.6701 56.8459 49.497 67.8815 48.0894C71.9338 47.5802 75.8666 46.6368 79.904 46.0828C88.6068 44.8997 98.8947 46.3074 107.538 48.1643C117.317 50.2607 127.74 50.4255 137.429 48.6285C142.125 47.7599 146.671 46.4422 151.501 46.0528C158.977 45.4538 166.499 47.101 173.886 48.4787C183.217 50.2158 193.056 51.5636 202.147 49.6917C205.99 48.913 209.699 47.5503 213.721 47.6252C216.682 47.6701 219.568 48.4937 222.499 48.898C227.239 49.542 232.951 48.9579 237.228 47.4604C235.987 45.4388 233.923 43.567 231.142 42.7733Z" fill="url(#paint6_linear_235_89357)"/>
<path opacity="0.9" d="M96.3366 36.3341C103.694 44.1959 117.959 45.1243 129.413 43.7915C129.144 43.1327 130.34 43.3124 130.071 42.6684C133.869 42.324 136.322 38.7151 140.12 38.3706C149.256 38.2209 157.197 43.4022 165.451 39.7483C170.879 37.4422 172.868 33.3391 173.421 28.8017C170.341 26.1511 166.079 24.2493 161.503 23.6353C154.625 22.7069 149.137 22.9914 144.92 26.9897C142.707 22.5571 138.071 18.7535 132.329 16.702C126.602 14.6504 119.843 14.3509 114.011 15.9083C104.247 18.5139 99.7459 24.4889 94.916 31.3175C94.916 31.3025 94.9011 31.2875 94.9011 31.2875C94.6169 33.1144 94.7814 34.8665 96.3366 36.3341Z" fill="url(#paint7_linear_235_89357)"/>
</g>
<mask id="mask2_235_89357" style="mask-type:luminance" maskUnits="userSpaceOnUse" x="-233" y="-64" width="393" height="246">
<path d="M159.053 -63.757H-232.246V181.157H159.053V-63.757Z" fill="white"/>
</mask>
<g mask="url(#mask2_235_89357)">
<path d="M162.451 10.6233L154.406 3.19575C153.584 2.447 152.328 2.46198 151.535 3.24068L127.834 26.7513C126.952 27.6348 125.502 27.53 124.739 26.5566L120.044 20.5067C119.296 19.5483 117.89 19.4285 116.993 20.2522C116.141 21.0458 114.795 20.9859 114.032 20.1024L109.651 15.1307C108.903 14.2772 107.618 14.1873 106.75 14.9211L87.8492 30.9592C87.0417 31.6331 85.8604 31.6181 85.0978 30.8993L81.9576 27.9792C81.2249 27.3053 80.1184 27.2454 79.3109 27.8295L14.5779 75.6293C12.9629 76.8123 13.8003 79.373 15.8041 79.373H161.031C162.182 79.373 163.109 78.4446 163.109 77.2915V12.1507C163.109 11.5817 162.87 11.0276 162.451 10.6233Z" fill="url(#paint8_linear_235_89357)"/>
<path opacity="0.35" d="M37.1136 62.9456C37.1136 62.9456 67.4539 66.7941 67.8576 66.9588C68.2763 67.1236 74.452 50.8458 74.467 46.7577C74.4819 42.6696 68.9492 45.3501 68.9492 43.8825C68.9492 42.415 65.9286 43.9724 65.9436 43.3734C65.9585 42.7744 74.7062 40.618 74.7062 40.618C74.7062 40.618 70.4446 40.4083 69.4875 40.618C68.5305 40.8276 70.9978 38.7461 77.5623 36.1105C84.1269 33.46 81.0913 32.3369 81.0913 32.3369C81.0913 32.3369 78.5343 32.5765 79.2221 31.4534C79.91 30.3302 81.6745 27.7546 82.9455 28.9376L81.9137 27.9792C81.181 27.3053 80.0745 27.2454 79.267 27.8294L36.007 59.7709L37.1136 62.9456Z" fill="url(#paint9_linear_235_89357)"/>
<path d="M82.3288 68.0819C75.9886 68.9504 69.5736 69.4446 63.1736 69.1002C60.168 68.9355 57.2371 68.5012 54.2913 67.9471C51.525 67.408 49.1474 66.4197 46.5605 65.3265C43.8838 64.1884 40.5492 63.9339 37.738 63.1102C31.9361 61.4181 26.2688 59.1119 21.2744 55.6827C19.8837 54.7243 17.9846 53.3616 17.536 51.6095C17.1323 50.0671 18.7921 48.4798 20.1828 47.9407C21.9772 47.2369 24.3996 48.1653 24.8333 50.0372C25.222 49.1237 26.852 49.2884 27.0464 50.2618C27.5548 49.8874 28.4071 50.3516 28.3922 50.9806C28.452 50.2618 29.5286 49.8724 30.037 50.3966C29.394 49.7826 29.3043 48.6744 29.8426 47.9557C30.3809 47.2369 31.4576 47.0122 32.2352 47.4465C32.6987 46.2635 33.895 45.4099 35.166 45.35C36.4371 45.2901 37.6931 46.0389 38.2614 47.177C37.8427 46.6079 37.9922 45.7094 38.5754 45.3051C39.1585 44.9008 40.0557 45.0655 40.4445 45.6495C40.2352 44.7211 40.8184 43.6878 41.7156 43.4033C42.6128 43.1038 43.6894 43.583 44.0782 44.4515C44.3174 42.7893 44.6464 40.9923 45.9175 39.9141C47.1885 38.8359 49.6708 39.2103 49.925 40.8575C50.2988 40.2136 50.9567 39.6596 51.7044 39.6745C52.4521 39.6895 53.1549 40.4982 52.8558 41.172C53.5436 40.588 54.6801 40.6479 55.3082 41.3068C55.9362 41.9657 55.9362 43.1038 55.3231 43.7627C55.9362 43.4931 56.7287 43.7178 57.1026 44.2718C57.4764 44.8259 57.4016 45.6495 56.9231 46.1287C57.0577 45.6795 57.5811 45.38 58.0446 45.5147C58.5082 45.6495 58.7923 46.1736 58.6727 46.6229C58.9568 45.5896 60.1082 44.9008 61.1549 45.1404C62.1867 45.38 62.9344 46.5031 62.7549 47.5513C62.8297 46.9374 63.3979 46.4132 64.011 46.4132C64.6241 46.4132 65.2073 46.9074 65.297 47.5364C65.2073 46.5031 66.1344 45.4998 67.1662 45.5147C68.1979 45.5297 69.1101 46.548 69.0054 47.5663C69.5886 46.9224 70.8447 47.2518 71.054 48.0904C71.2484 46.4282 72.9082 45.0805 74.5681 45.2152C76.2279 45.365 77.6335 46.9823 77.5438 48.6445C78.3961 47.8358 80.1008 48.7194 79.9213 49.8874C80.1307 48.7793 81.4167 48.0305 82.4784 48.3749C83.54 48.7343 84.1232 50.112 83.6298 51.1154C84.3027 50.756 85.2597 51.31 85.2896 52.0737C85.7382 51.0405 87.6821 51.5646 87.5625 52.6727C87.6672 51.7892 88.4747 51.0405 89.3719 51.0405C90.2541 51.0255 91.0915 51.7593 91.2111 52.6278C91.3457 51.5646 92.1681 50.6212 93.1999 50.3367C94.2317 50.0521 95.413 50.4565 96.0709 51.31C95.7719 50.9806 96.2504 50.5014 96.684 50.3666C98.6429 49.7826 100.871 50.9207 101.873 52.7177C102.86 54.5147 102.74 56.7908 101.873 58.6477C101.006 60.5046 99.4803 62.0021 97.8055 63.1701C93.2896 66.2699 87.727 67.3481 82.3288 68.0819Z" fill="url(#paint10_linear_235_89357)"/>
<path d="M-233.064 67.4382C-210.903 69.2352 -129.198 66.1953 -101.848 60.1305C-74.5138 54.0656 -47.7922 43.8528 -14.7304 45.4101C20.4548 47.0724 96.8214 73.6079 109.846 80.1519H-233.064V67.4382Z" fill="url(#paint11_linear_235_89357)"/>
<path d="M-67.9331 60.1303C-59.5891 63.7392 -37.4731 59.4564 -30.0862 58.0488C-22.6993 56.6411 -32.6731 61.4331 -29.4731 63.4996C-26.288 65.5662 -6.51974 57.1054 6.07095 55.503C18.6168 53.9157 34.7215 54.8891 34.8411 54.9041C16.2243 49.9024 -1.97395 46.009 -14.7291 45.41C-29.5479 44.7062 -43.0956 46.3684 -56.0003 48.974C-67.963 53.5563 -76.277 56.5213 -67.9331 60.1303Z" fill="url(#paint12_linear_235_89357)"/>
<path d="M53.6661 60.295C30.6978 67.3931 7.46033 74.6859 -19.366 74.6859C-45.8633 74.6859 -78.8951 69.5645 -96.8242 58.9772C-98.4989 59.3816 -100.174 59.7709 -101.848 60.1303C-129.183 66.1951 -210.903 69.235 -233.064 67.438V80.1517H109.846C103.147 76.7974 79.67 68.1269 53.6661 60.295Z" fill="url(#paint13_linear_235_89357)"/>
<path d="M163.107 79.3731V38.4168C143.578 36.1106 126.352 41.5465 105.283 50.5914C76.1538 63.1253 50.2845 79.3731 24.6097 79.3731H163.107Z" fill="url(#paint14_linear_235_89357)"/>
<path d="M105.284 50.5913C94.2032 55.3533 83.5864 60.6694 73.2835 65.4015C73.2835 65.4015 78.7864 63.1852 89.5976 61.5978C100.394 59.9955 111.729 58.6328 109.844 56.3117C107.96 53.9906 113.643 54.4548 125.321 55.3233C135.325 56.0721 153.269 52.2086 163.123 46.0988V38.4167C143.594 36.0956 126.353 41.5315 105.284 50.5913Z" fill="url(#paint15_linear_235_89357)"/>
<path d="M163.106 54.1703C137.387 63.3798 105.925 61.3433 108.407 64.2933C110.889 67.2284 124.691 71.2716 119.712 73.3232C114.732 75.3747 98.3436 79.388 77.5735 79.388H163.106V54.1703Z" fill="url(#paint16_linear_235_89357)"/>
<path d="M105.283 50.5913C104.804 50.8009 104.326 51.0106 103.847 51.2202C104.4 51.0405 121.432 45.3051 131.047 42.8642C140.827 40.3784 155.705 39.3601 163.107 40.9025V38.4167C143.593 36.0956 126.352 41.5315 105.283 50.5913Z" fill="url(#paint17_linear_235_89357)"/>
<path d="M110.304 54.2302C110.245 54.2302 109.258 54.0206 109.377 53.8858C108.809 54.4998 107.688 54.4549 107.179 53.796C107.134 53.7361 107.09 53.6612 107.015 53.6312C106.895 53.5714 106.761 53.6462 106.626 53.6912C106.118 53.8409 105.549 53.2868 105.684 52.7777C105.325 52.9274 104.847 52.6729 104.772 52.2835C104.682 51.8942 105.011 51.4749 105.4 51.4449C105.116 51.2353 105.116 50.786 105.295 50.4865C105.475 50.187 105.789 49.9923 106.088 49.8127C105.759 49.4383 105.49 48.8992 105.729 48.4649C105.998 47.9857 106.656 47.9707 107.209 48.0306C107.119 47.7611 107.075 47.4766 107.075 47.1771C107.149 47.1172 107.239 47.0573 107.314 46.9974C107.045 46.9225 106.865 46.623 106.94 46.3535C107.015 46.0839 107.314 45.9042 107.583 45.9641C107.359 45.7395 107.134 45.4999 107.075 45.2004C106.97 44.5864 107.658 44.6613 107.852 44.227C108.032 43.8377 107.747 43.2836 108.017 42.9392C108.151 42.7745 108.39 42.6996 108.6 42.7595C108.48 42.5349 108.361 42.3102 108.361 42.0557C108.361 41.8011 108.51 41.5315 108.749 41.5016C109.018 41.4567 109.258 41.6963 109.333 41.9508C109.422 42.2054 109.392 42.475 109.437 42.7445C109.676 42.7445 109.901 42.7595 110.14 42.7595C110.125 43.1039 110.02 43.4633 110.29 43.6879C110.544 43.8976 110.962 43.8377 111.232 44.1072C111.501 44.3768 111.59 44.8709 111.321 45.1405C111.232 45.2303 111.097 45.2902 111.037 45.41C110.873 45.7395 111.381 46.039 111.426 46.4134C111.456 46.7278 111.157 47.0573 111.321 47.3268C111.381 47.4167 111.486 47.4766 111.59 47.5215C111.86 47.6413 112.129 47.7761 112.398 47.8959C112.592 47.9857 112.802 48.1055 112.832 48.3152C112.891 48.7644 112.069 48.8393 111.964 49.2885C112.233 49.3335 112.503 49.3784 112.712 49.5281C112.921 49.6779 113.071 49.9774 112.951 50.217C112.906 50.3218 112.817 50.4266 112.847 50.5315C112.876 50.6662 113.056 50.6962 113.146 50.801C113.31 50.9957 113.086 51.2802 112.847 51.385C112.622 51.4898 112.323 51.5797 112.263 51.8193C112.518 51.9091 112.772 52.014 112.966 52.1787C113.176 52.3584 113.31 52.6279 113.25 52.8825C113.176 53.2569 112.862 53.2868 112.622 53.4965C112.398 53.7211 112.323 54.0356 112.054 54.2302C111.605 54.5747 110.858 54.2752 110.304 54.2302Z" fill="url(#paint18_linear_235_89357)"/>
<path d="M96.8326 55.2635C96.8475 55.2785 96.8625 55.2935 96.8774 55.2935C96.6232 55.3234 96.3391 55.3684 96.1746 55.578C95.9802 55.8326 96.1298 56.2519 96.4288 56.3567C96.1746 56.3417 95.9354 56.5664 95.9354 56.8209C95.9354 57.0755 96.1896 57.3001 96.4438 57.2702C96.2344 57.2253 95.9952 57.405 95.9802 57.6146C95.9653 57.8392 96.1597 58.0339 96.384 58.0339C96.04 58.0039 95.6812 58.0638 95.427 58.2735C95.1578 58.4831 95.0083 58.8575 95.1279 59.172C95.2475 59.5164 95.5914 59.6362 95.9354 59.6362C95.7858 59.9507 95.726 60.3251 95.8905 60.6246C96.055 60.9241 96.4737 61.0888 96.7578 60.8941C96.5634 61.0738 96.5485 61.4182 96.7279 61.6279C96.9073 61.8375 97.2363 61.8824 97.4756 61.7477C97.6251 61.6728 97.7447 61.523 97.9092 61.4931C98.1335 61.4482 98.3578 61.5979 98.5672 61.6878C99.1204 61.9124 99.8382 61.6129 100.063 61.0588C100.451 61.568 101.378 61.5979 101.722 61.0438C102.066 60.4898 101.558 59.6212 100.93 59.7111C101.094 59.4266 101.423 59.0073 101.214 58.6628C101.079 58.4382 100.75 58.3484 100.511 58.4831C100.631 58.2136 100.496 57.8692 100.242 57.7344C100.466 57.6895 100.661 57.5098 100.691 57.2852C100.72 57.0605 100.556 56.8209 100.332 56.806C100.601 56.5813 100.9 56.2818 100.87 55.9224C100.84 55.6529 100.616 55.4432 100.362 55.3684C100.107 55.2935 99.8232 55.3384 99.584 55.4432C99.7036 55.0988 99.4942 54.6645 99.1354 54.5597C99.3597 54.41 99.584 54.1554 99.4793 53.9158C99.4045 53.7361 99.1802 53.6762 98.9858 53.6463C99.1802 53.5414 99.27 53.2719 99.1802 53.0622C99.0905 52.8526 98.8363 52.7478 98.627 52.8077C98.7765 52.4333 98.4176 51.5348 97.8943 51.7894C97.7298 51.8642 97.67 52.0739 97.67 52.2536C97.655 52.4632 97.6849 52.6879 97.7597 52.8825C97.6251 52.7478 97.3709 52.7627 97.2513 52.8975C97.1167 53.0323 97.1017 53.2569 97.1914 53.4366C97.2812 53.6013 97.4606 53.7211 97.655 53.7511C97.4307 53.8559 97.1765 53.8709 96.9372 53.9607C96.7129 54.0506 96.4139 54.3201 96.3989 54.5747C96.384 54.8592 96.6232 55.1138 96.8326 55.2635Z" fill="url(#paint19_linear_235_89357)"/>
</g>
<mask id="mask3_235_89357" style="mask-type:luminance" maskUnits="userSpaceOnUse" x="-233" y="-64" width="393" height="246">
<path d="M159.053 -63.757H-232.246V181.157H159.053V-63.757Z" fill="white"/>
</mask>
<g mask="url(#mask3_235_89357)">
<path d="M161.043 72.3198C9.22174 70.3282 -121.082 97.1332 -220.641 127.368C-93.4179 130.303 33.82 133.253 161.043 136.188V72.3198Z" fill="#64A043"/>
<path d="M161.041 81.3049C157.183 80.3614 153.325 79.418 149.467 78.4746C153.25 78.235 157.108 78.0403 161.041 77.8606V72.3349C144.458 72.1252 128.129 72.245 112.084 72.6793C104.951 76.3332 97.8183 79.9721 90.6856 83.626C114.132 83.8206 137.594 84.0153 161.041 84.225V81.3049Z" fill="#91B94B"/>
</g>
<mask id="mask4_235_89357" style="mask-type:luminance" maskUnits="userSpaceOnUse" x="-233" y="-64" width="393" height="246">
<path d="M159.053 -63.757H-232.246V181.157H159.053V-63.757Z" fill="white"/>
</mask>
<g mask="url(#mask4_235_89357)">
<path d="M-136.035 66.3449C-171.37 65.3865 -205 66.1202 -236.701 68.052V139.617C-205.912 141.294 -175.108 142.986 -144.319 144.664C-42.5318 134.825 59.2555 124.987 161.043 115.148V114.085C86.5753 91.7722 -14.7485 69.6393 -136.035 66.3449Z" fill="url(#paint20_linear_235_89357)"/>
</g>
<mask id="mask5_235_89357" style="mask-type:luminance" maskUnits="userSpaceOnUse" x="-233" y="-64" width="393" height="246">
<path d="M159.053 -63.757H-232.246V181.157H159.053V-63.757Z" fill="white"/>
</mask>
<g mask="url(#mask5_235_89357)">
<path d="M-134.21 65.4314C-163.743 64.8474 -198.135 65.2667 -236.685 67.8124V76.8722L-204.162 77.4862L-220.341 73.1435C-192.453 73.2184 -164.55 73.2782 -136.662 73.3531C-115.728 74.5361 -94.7781 75.7341 -73.8434 76.9171C-80.2434 75.4346 -86.6434 73.9371 -93.0435 72.4546C-71.2415 73.7125 -49.4246 74.9554 -27.6077 76.1684C-6.83751 77.3215 13.9327 78.4446 34.7029 79.5527C35.4954 79.5977 -45.2227 67.1984 -134.21 65.4314Z" fill="url(#paint21_linear_235_89357)"/>
</g>
<mask id="mask6_235_89357" style="mask-type:luminance" maskUnits="userSpaceOnUse" x="-233" y="-64" width="393" height="246">
<path d="M159.053 -63.757H-232.246V181.157H159.053V-63.757Z" fill="white"/>
</mask>
<g mask="url(#mask6_235_89357)">
<path d="M161.042 109.443C144.519 106.807 84.2718 98.1516 12.8397 101.611C-2.29305 102.345 -26.8165 104.935 -58.4877 112.602C-89.142 120.015 -114.308 129.704 -132.97 138.09C-106.682 146.086 -80.3943 154.068 -54.0914 162.064C17.6248 158.051 89.341 154.038 161.057 150.01V109.443H161.042Z" fill="url(#paint22_linear_235_89357)"/>
<path d="M161.042 117.963V109.278C147.644 107.166 105.415 100.997 70.7237 100.997H70.7087C64.8769 100.997 59.3592 100.817 54.1554 100.742C53.9909 100.742 53.8414 100.817 53.6769 100.817C52.5853 100.802 51.4937 100.832 50.432 100.817C50.2376 100.817 50.0283 100.907 49.8339 100.907C48.6825 100.892 47.561 100.982 46.4544 100.982H46.275C45.0787 100.982 43.8974 100.907 42.731 100.907C42.5965 100.907 42.4619 100.877 42.3273 100.877C41.3703 100.877 40.4282 100.862 39.5011 100.877C39.1423 100.877 38.7983 100.922 38.4394 100.922C38.0656 100.922 37.6768 100.982 37.303 100.982C27.7029 100.982 19.5235 101.326 12.8244 101.656C-12.3421 102.869 -29.1646 105.04 -43.5945 108.454C-17.2916 108.29 9.01128 108.08 35.3291 107.9C31.5759 108.904 27.8375 110.057 24.0842 110.88H126.963C119.561 112.527 112.144 113.935 104.742 115.448C123.509 116.286 142.275 117.125 161.042 117.963Z" fill="url(#paint23_linear_235_89357)"/>
<path d="M-16.3664 142.867C-15.9926 141.923 -13.5702 136.158 -7.88789 134.526C-6.73649 134.196 -4.1346 133.447 -1.33833 134.69C1.03925 135.739 2.25047 137.64 2.69907 138.434C-3.65609 139.902 -10.0113 141.384 -16.3664 142.867Z" fill="url(#paint24_linear_235_89357)"/>
<path d="M2.7007 138.434C2.28201 137.685 1.14557 135.948 -0.992763 134.87C-1.1722 135.125 -1.38154 135.364 -1.62079 135.619C-3.87875 138.015 -7.91616 139.467 -10.0844 138.045C-10.7872 137.595 -11.1461 136.937 -11.3704 136.248C-14.6003 138.614 -16.0807 142.133 -16.3798 142.867C-10.0096 141.384 -3.65446 139.902 2.7007 138.434Z" fill="url(#paint25_linear_235_89357)"/>
<path d="M-55.6334 111.704C-20.6276 113.651 14.3782 115.597 49.3989 117.544C40.8306 119.176 32.038 121.018 23.0212 123.085C16.9352 124.477 10.9688 125.93 5.15193 127.427C13.5258 129.15 21.8847 130.857 30.2586 132.579C-5.49482 140.59 -41.2482 148.602 -77.0166 156.629C-70.0633 158.141 -63.0951 159.653 -56.1418 161.166C-21.7192 151.297 12.7034 141.414 47.126 131.546C37.4511 130.168 27.7913 128.805 18.1165 127.427C33.5483 123.654 48.9801 119.865 64.412 116.091C27.0436 114.07 -10.3397 112.033 -47.7081 110.012C-50.3548 110.581 -52.9866 111.135 -55.6334 111.704Z" fill="#FFCC8C"/>
</g>
<mask id="mask7_235_89357" style="mask-type:luminance" maskUnits="userSpaceOnUse" x="-233" y="-64" width="393" height="246">
<path d="M159.053 -63.757H-232.246V181.157H159.053V-63.757Z" fill="white"/>
</mask>
<g mask="url(#mask7_235_89357)">
<path d="M-236.701 112.932V184.976C-203.22 184.617 -169.725 184.257 -136.244 183.913C-86.1805 183.374 -36.1317 182.849 13.9321 182.31C-48.3785 155.251 -133.269 126.364 -236.701 112.932Z" fill="#C1D33D"/>
</g>
<mask id="mask8_235_89357" style="mask-type:luminance" maskUnits="userSpaceOnUse" x="-233" y="-64" width="393" height="246">
<path d="M159.053 -63.757H-232.246V181.157H159.053V-63.757Z" fill="white"/>
</mask>
<g mask="url(#mask8_235_89357)">
<path d="M161.043 131.306C110.067 133.627 32.1452 140.396 -59.6982 159.728C-84.4011 164.925 -118.809 172.876 -159.467 184.632C-120.783 184.003 38.5751 183.538 161.028 183.958V131.306H161.043Z" fill="#FFCC8C"/>
</g>
<mask id="mask9_235_89357" style="mask-type:luminance" maskUnits="userSpaceOnUse" x="50" y="12" width="141" height="88">
<path d="M190.558 12.0739H50.7539V99.5772H190.558V12.0739Z" fill="white"/>
</mask>
<g mask="url(#mask9_235_89357)">
<path d="M97.9112 82.5099C99.2415 82.4992 100.577 82.4885 101.907 82.4778C101.608 82.6223 101.309 82.7667 101.01 82.9112C99.765 82.863 98.5256 82.8095 97.2808 82.7614C97.4945 82.6758 97.7028 82.5902 97.9112 82.5099Z" fill="url(#paint26_linear_235_89357)"/>
<path d="M99.4764 81.2205C99.4764 81.4024 99.4603 81.6164 99.4229 81.8465C99.4016 81.9856 99.3695 82.1086 99.3374 82.2263C99.3535 82.3654 99.3748 82.5045 99.3909 82.6437C99.3107 82.649 99.2306 82.6544 99.1505 82.6597C99.2039 82.4457 99.2466 82.1675 99.2466 81.8411C99.2466 81.6325 99.2252 81.4452 99.2039 81.29C99.2947 81.2686 99.3855 81.2419 99.4764 81.2205Z" fill="#DBC7B2"/>
<path d="M100.603 80.9476C100.555 81.0814 100.651 81.1616 100.726 81.4238C100.827 81.7983 100.758 82.1247 100.731 82.2424C100.694 82.4029 100.64 82.5313 100.603 82.6116C100.656 82.6169 100.71 82.6223 100.763 82.6276C100.806 82.4885 100.854 82.3494 100.908 82.2049C101.004 81.9374 101.105 81.6913 101.212 81.4612C101.121 81.2044 101.025 80.953 100.934 80.6962C100.801 80.739 100.651 80.8139 100.603 80.9476Z" fill="#DBC7B2"/>
<path d="M98.3099 80.3805C98.39 80.1611 98.6251 80.0541 98.8601 79.9471C99.0525 79.8615 99.2181 79.8241 99.3143 79.8134C99.7363 79.7545 99.9126 79.8615 100.447 79.9204C101.088 79.9899 101.334 79.899 101.43 80.0648C101.494 80.1772 101.387 80.2467 101.344 80.6427C101.328 80.8032 101.302 81.0493 101.366 81.3489C101.419 81.5789 101.483 81.6378 101.489 81.8411C101.494 81.9749 101.451 82.0284 101.414 82.2477C101.387 82.4136 101.376 82.5527 101.376 82.6436C101.312 82.649 101.243 82.6597 101.179 82.665C101.206 82.542 101.238 82.3547 101.238 82.1354C101.243 81.9321 101.243 81.7876 101.184 81.6217C101.152 81.5254 101.051 81.2954 100.762 81.0974C100.65 81.1509 100.522 81.1991 100.377 81.2419C99.9874 81.3542 99.6455 81.3542 99.3944 81.3328C99.4104 81.4933 99.4051 81.7234 99.3196 81.9695C99.2982 82.0337 99.2715 82.0979 99.2448 82.1514C99.2288 82.3387 99.2127 82.5259 99.2021 82.7132C99.1166 82.7132 99.0311 82.7132 98.9456 82.7132C98.9884 82.6329 99.0364 82.5099 99.0578 82.3547C99.0685 82.2905 99.0685 82.2263 99.0525 81.9749C99.0471 81.8679 99.0311 81.7287 99.0151 81.5575C98.9884 81.5896 98.9563 81.6217 98.9082 81.6271C98.7426 81.6485 98.5823 81.3061 98.5022 81.1349C98.3259 80.7604 98.2351 80.5784 98.3099 80.3805Z" fill="#F0E1CF"/>
<path d="M97.0974 81.4398C97.1028 81.4452 97.1188 81.4826 97.1615 81.4933C97.1989 81.504 97.2256 81.4987 97.2363 81.4933C97.247 81.4987 97.2684 81.5094 97.2897 81.5147C97.4073 81.5415 97.5248 81.4505 97.7813 81.1991C97.9736 81.0118 98.0644 80.9155 98.0537 80.8888C98.0324 80.846 97.8667 80.8513 97.1936 81.1135C97.1669 81.2205 97.1348 81.3328 97.0974 81.4398Z" fill="#DBC7B2"/>
<path d="M97.1231 81.365C97.1605 81.4345 97.3582 81.4238 97.4971 81.3542C97.5879 81.3061 97.7055 81.2151 97.7749 81.0814C97.807 81.0172 97.807 80.9904 97.839 80.9744C97.9459 80.9209 98.1756 81.1456 98.2451 81.2151C98.3786 81.3436 98.432 81.4452 98.5442 81.4452C98.5603 81.4452 98.6083 81.4452 98.6564 81.4131C98.79 81.3221 98.7152 81.1081 98.8114 81.06C98.8274 81.0546 98.8434 81.0493 99.1105 81.1723C99.2281 81.2258 99.2762 81.2526 99.3242 81.2312C99.3723 81.2098 99.4044 81.1509 99.4044 81.0974C99.4044 80.9423 99.1105 80.9102 99.0838 80.7283C99.0678 80.6373 99.1373 80.6213 99.1426 80.5036C99.1479 80.3324 98.9983 80.1237 98.822 80.0755C98.6671 80.0381 98.5122 80.1237 98.213 80.2895C98.0848 80.3591 97.9833 80.434 97.8337 80.4287C97.7696 80.4287 97.6948 80.4287 97.6093 80.3859C97.5505 80.3591 97.5292 80.3324 97.4704 80.3163C97.417 80.3056 97.3208 80.2949 97.2994 80.3377C97.278 80.3752 97.3155 80.4447 97.3902 80.4982C97.3261 80.525 97.2513 80.5678 97.23 80.6427C97.2086 80.7069 97.2567 80.7336 97.262 80.8353C97.2727 80.9316 97.2353 81.0172 97.1712 81.1937C97.1285 81.3168 97.1071 81.3382 97.1231 81.365Z" fill="#1C1817"/>
<path d="M99.6792 80.1237C99.7166 80.0702 99.925 80.1718 99.9517 80.1237C99.973 80.0862 99.8395 80.006 99.8555 79.9578C99.8876 79.8562 100.47 79.9257 100.481 80.0274C100.486 80.0702 100.395 80.0702 100.352 80.1611C100.283 80.3163 100.475 80.5089 100.427 80.5624C100.39 80.5998 100.262 80.4875 100.208 80.5249C100.128 80.5891 100.406 80.953 100.331 81.0279C100.224 81.1349 99.4869 80.6694 99.5403 80.5089C99.551 80.4768 99.5937 80.4554 99.6204 80.4447C99.7219 80.4072 99.8235 80.4982 99.8448 80.4768C99.8876 80.4126 99.6365 80.1879 99.6792 80.1237Z" fill="#1C1817"/>
<path d="M101.372 80.0166C101.414 80.0113 101.489 80.1718 101.516 80.3323C101.553 80.541 101.473 80.5945 101.473 80.862C101.473 81.0974 101.532 81.306 101.532 81.306C101.569 81.4345 101.623 81.5575 101.591 81.7287C101.585 81.7715 101.575 81.8036 101.564 81.825C101.521 81.7929 101.463 81.7448 101.43 81.6699C101.382 81.5629 101.43 81.4933 101.43 81.3221C101.43 81.1241 101.377 81.1348 101.377 80.9208C101.377 80.7389 101.42 80.7229 101.398 80.5784C101.377 80.45 101.34 80.434 101.329 80.3002C101.318 80.1825 101.334 80.022 101.372 80.0166Z" fill="url(#paint27_linear_235_89357)"/>
<path d="M100.527 80.1237C100.457 80.2039 100.527 80.4179 100.676 80.4821C100.751 80.5142 100.863 80.5142 100.906 80.4554C100.97 80.3698 100.879 80.1665 100.73 80.1076C100.671 80.0862 100.569 80.0702 100.527 80.1237Z" fill="#1C1817"/>
</g>
<mask id="mask10_235_89357" style="mask-type:luminance" maskUnits="userSpaceOnUse" x="-233" y="-64" width="393" height="246">
<path d="M159.053 -63.757H-232.246V181.157H159.053V-63.757Z" fill="white"/>
</mask>
<g mask="url(#mask10_235_89357)">
<path d="M66.4758 138.748C66.4758 138.748 111.037 133.986 110.483 151.432C109.885 170.6 97.4441 182.191 97.4441 182.191H135.291L142.663 171.439C142.663 171.439 148.779 136.337 143.022 131.021C137.265 125.705 121.698 120.689 121.698 120.689L66.4758 138.748Z" fill="url(#paint28_linear_235_89357)"/>
</g>
<mask id="mask11_235_89357" style="mask-type:luminance" maskUnits="userSpaceOnUse" x="-233" y="-64" width="393" height="246">
<path d="M159.053 -63.757H-232.246V181.157H159.053V-63.757Z" fill="white"/>
</mask>
<g mask="url(#mask11_235_89357)">
<path d="M-4.08618 102.629C-3.57777 102.584 96.0712 118.667 115.316 127.278C134.561 135.888 144.281 153.993 131.78 182.191H159.428L159.473 118.008L18.9868 105.205L-1.11048 102.434L-4.08618 102.629Z" fill="#FFCC8C"/>
</g>
<mask id="mask12_235_89357" style="mask-type:luminance" maskUnits="userSpaceOnUse" x="-233" y="-64" width="393" height="246">
<path d="M159.053 -63.757H-232.246V181.157H159.053V-63.757Z" fill="white"/>
</mask>
<g mask="url(#mask12_235_89357)">
<path d="M159.414 100.128L138.629 101.087H105.627L77.7541 100.488L20.3183 99.2747L19.2267 100.188L18.9576 101.925V105.22C18.9576 105.22 133.575 120.09 133.919 120.09C134.263 120.09 159.399 125.421 159.399 125.421V100.128H159.414Z" fill="#EBF5FA"/>
<path d="M18.9732 105.22V106.088L55.4294 110.67L135.744 122.8L159.415 128.82V125.421L133.934 120.09L61.5303 110.73L18.9732 105.22Z" fill="#060312"/>
<path d="M140.828 100.997L137.673 104.561L137.853 118.218L159.46 122.246L159.415 125.421L133.935 120.09L69.0524 111.704L27.1233 106.268V105.549L27.6317 105.504L27.6467 103.453L28.4093 103.438L28.4841 105.729L37.6953 106.463L37.7701 101.072L39.2056 99.679H40.2524L38.9215 101.266L38.8168 106.702L39.5944 106.807L39.6393 101.281L40.8804 99.709L41.8225 99.7389L40.5813 101.506L40.6411 106.957L53.2767 108.275L53.2916 101.671L54.8169 100.008L56.2374 100.038L54.6972 101.895L54.6374 108.32L55.6543 108.469L55.7739 105.744H56.5814L56.5066 102.719L55.5346 102.629L55.5645 102L56.9552 100.053L78.5478 100.503L76.0057 102.719L75.8861 110.626L77.3366 110.566L77.3067 107.481L78.3534 107.361L78.2936 104.157H77.0525L77.0226 102.734L79.3403 100.533L80.8207 100.563L78.802 102.794L78.9964 111.075L100.798 113.396L100.739 103.767L102.997 101.042L105.628 101.102L103.146 103.992L103.176 113.8L104.447 113.875V104.067L106.929 101.102H108.066L105.688 104.186L105.883 114.025L131.782 117.424L131.752 104.381L134.727 101.102L140.828 100.997Z" fill="url(#paint29_linear_235_89357)"/>
<path d="M104.07 105.654L105.296 105.354V109.547H104.07V105.654Z" fill="#EBF5FA"/>
<path d="M106.628 109.323H105.791V110.326H106.628V109.323Z" fill="#2D3838"/>
<path d="M100.765 103.872H99.4195V109.742H100.765V103.872Z" fill="#2D3838"/>
<path d="M80.0248 103.078V107.9L97.7594 109.428L97.9089 103.707L100.092 101.611L81.9089 101.206L80.0248 103.078Z" fill="#2D3838"/>
<path d="M80.0248 103.078L97.9089 103.707L100.092 101.611L81.9089 101.206L80.0248 103.078Z" fill="#679FC7"/>
<path d="M82.6292 103.168L82.5545 108.125L83.018 108.155L83.1077 103.168H82.6292Z" fill="black"/>
<path d="M85.5153 103.273V108.379L85.934 108.409V103.288L85.5153 103.273Z" fill="black"/>
<path d="M88.2981 103.363V108.619L88.7916 108.649V103.393L88.2981 103.363Z" fill="black"/>
<path d="M91.466 103.483V108.889L91.9445 108.933V103.498L91.466 103.483Z" fill="black"/>
<path d="M94.7118 103.587V109.173L95.2202 109.203V103.617L94.7118 103.587Z" fill="black"/>
<path opacity="0.5" d="M77.3973 100.443L75.0346 102.464L55.5654 102L56.9561 100.053L77.3973 100.443Z" fill="#EBF5FA"/>
<path d="M70.3666 100.338L68.4974 102.3L73.3423 102.419L75.4956 100.413L70.3666 100.338Z" fill="#679FC7"/>
<path d="M75.0329 104.471H74.3301V107.96H75.0329V104.471Z" fill="#EBF5FA"/>
<path d="M104.803 116.331L105.326 114.819L107.18 115.043L107.464 116.676L104.803 116.331Z" fill="#060312"/>
<path d="M95.7575 115.208L96.1163 113.965L98.7481 114.25L99.1519 115.672L95.7575 115.208Z" fill="#060312"/>
<path d="M77.5003 112.917L77.8742 111.644L79.6536 111.869L80.0275 113.231L77.5003 112.917Z" fill="#060312"/>
<path d="M70.3363 111.899V110.596L72.5494 110.88V112.153L70.3363 111.899Z" fill="#060312"/>
<path d="M59.1821 102.854V105.07L61.2008 105.22V102.929L59.1821 102.854Z" fill="black"/>
<path d="M62.5014 103.003V105.22L64.5201 105.369V103.078L62.5014 103.003Z" fill="black"/>
<path d="M68.4974 102.3V106.762L73.3124 107.136L73.3423 102.419L68.4974 102.3Z" fill="#2D3838"/>
<path d="M75.0314 102.464V112.542L75.8837 112.587L76.0033 102.719L78.5454 100.503L77.394 100.443L75.0314 102.464Z" fill="#9B2F2A"/>
<path d="M41.5536 101.476V104.681L51.5275 105.22V101.641L53.0826 99.9785L43.1686 99.7688L41.5536 101.476Z" fill="#2D3838"/>
<path d="M41.5536 101.476L51.5275 101.641L53.0826 99.9785L43.0191 99.7539L41.5536 101.476Z" fill="#679FC7"/>
<path d="M43.2123 101.506H42.988V104.77H43.2123V101.506Z" fill="black"/>
<path d="M45.0667 101.536H44.8424V104.875H45.0667V101.536Z" fill="black"/>
<path d="M46.9212 101.566H46.6969V104.965H46.9212V101.566Z" fill="black"/>
<path d="M48.76 101.596H48.5357V105.07H48.76V101.596Z" fill="black"/>
<path d="M50.6145 101.626H50.3902V105.16H50.6145V101.626Z" fill="black"/>
<path d="M53.7539 103.393H52.9763V106.058H53.7539V103.393Z" fill="#EBF5FA"/>
<path d="M53.2924 101.671H54.055L55.5653 100.023L54.8177 100.008L53.2924 101.671Z" fill="#679FC7"/>
<path d="M53.7399 109.802C53.7549 109.727 53.7399 107.795 53.7399 107.795H54.6371V108.32V109.832L53.7399 109.802Z" fill="black"/>
<path d="M56.0424 110.057V109.008L57.6574 109.263V110.236L56.0424 110.057Z" fill="#060312"/>
<path d="M50.4947 109.308V108.394L51.9153 108.574V109.488L50.4947 109.308Z" fill="#060312"/>
<path d="M39.8646 107.93V107.256L41.1954 107.406V108.095L39.8646 107.93Z" fill="#060312"/>
<path d="M35.8863 107.421V106.672L37.0677 106.777V107.556L35.8863 107.421Z" fill="#060312"/>
<path d="M28.9778 100.697V103.587L36.4694 103.917V100.922L37.3068 100.038L29.86 99.9037L28.9778 100.697Z" fill="#2D3838"/>
<path d="M28.9778 100.697L36.4694 100.922L37.3068 100.038L29.86 99.9037L28.9778 100.697Z" fill="#679FC7"/>
<path d="M38.054 102.494V104.77L38.5774 104.815V102.494H38.054Z" fill="#EBF5FA"/>
<path d="M39.8016 102.24V104.516L40.325 104.561V102.24H39.8016Z" fill="white"/>
<path opacity="0.5" d="M22.9047 100.293V104.127L23.8916 105.894L26.5832 106.208L26.643 100.383L22.9047 100.293Z" fill="#2D3838"/>
<path d="M19.2425 100.188L27.8108 100.413L28.9771 99.4694L20.3341 99.2897L19.2425 100.188Z" fill="#679FC7"/>
<path d="M20.7669 101.132H19.8547V104.246H20.7669V101.132Z" fill="#2D3838"/>
<path d="M102.01 106.403H101.307V110.326H102.01V106.403Z" fill="#EBF5FA"/>
<path opacity="0.5" d="M100.766 103.872H102.292L104.221 101.611H102.531L100.766 103.872Z" fill="#EBF5FA"/>
<path d="M102.323 116.002L102.294 103.872L104.223 101.611L104.806 101.072L105.628 101.102L103.146 103.992L103.176 113.8L103.131 116.136L102.323 116.002Z" fill="#9B2F2A"/>
</g>
</g>
<g style="mix-blend-mode:screen" opacity="0.25">
<path d="M-17.8267 105.373C19.705 105.373 50.1317 74.9467 50.1317 37.415C50.1317 23.59 46.0017 10.7333 38.92 0H-70V80.955C-57.5283 95.8767 -38.7917 105.373 -17.8267 105.373Z" fill="url(#paint30_radial_235_89357)"/>
</g>
<g style="mix-blend-mode:screen" opacity="0.8">
<path d="M113.423 75.7517C114.508 75.7517 115.593 75.7283 116.667 75.6817V0H44.24C44.0533 2.065 43.96 4.165 43.96 6.27667C43.96 44.6483 75.0633 75.7517 113.423 75.7517Z" fill="url(#paint31_radial_235_89357)"/>
</g>
<g style="mix-blend-mode:screen">
<path d="M62.16 89.915C62.4886 89.915 62.755 87.695 62.755 84.9566C62.755 82.2182 62.4886 79.9983 62.16 79.9983C61.8314 79.9983 61.565 82.2182 61.565 84.9566C61.565 87.695 61.8314 89.915 62.16 89.915Z" fill="url(#paint32_radial_235_89357)"/>
<path d="M62.1834 85.47C59.15 85.47 56.6884 85.2366 56.6884 84.9566C56.6884 84.6766 59.15 84.4433 62.1834 84.4433C65.2167 84.4433 67.6784 84.6766 67.6784 84.9566C67.6784 85.2483 65.2167 85.47 62.1834 85.47Z" fill="url(#paint33_radial_235_89357)"/>
<path d="M61.81 85.3183C60.3633 83.8716 59.36 82.5416 59.57 82.3433C59.7684 82.145 61.0983 83.1483 62.545 84.5833C63.9917 86.03 64.995 87.36 64.785 87.5583C64.5867 87.7683 63.2567 86.765 61.81 85.3183Z" fill="url(#paint34_radial_235_89357)"/>
<path d="M62.545 85.3183C61.0983 86.765 59.7683 87.7683 59.57 87.5583C59.3717 87.36 60.375 86.03 61.81 84.5833C63.2567 83.1366 64.5867 82.1333 64.785 82.3433C64.9833 82.5533 63.98 83.8833 62.545 85.3183Z" fill="url(#paint35_radial_235_89357)"/>
<path d="M62.475 84.9566C62.475 85.1316 62.335 85.2716 62.16 85.2716C61.985 85.2716 61.845 85.1316 61.845 84.9566C61.845 84.7816 61.985 84.6416 62.16 84.6416C62.335 84.6416 62.475 84.7816 62.475 84.9566Z" fill="url(#paint36_radial_235_89357)"/>
</g>
<g style="mix-blend-mode:screen">
<path d="M14.4717 55.9167C14.8003 55.9167 15.0667 53.6967 15.0667 50.9583C15.0667 48.2199 14.8003 46 14.4717 46C14.1431 46 13.8767 48.2199 13.8767 50.9583C13.8767 53.6967 14.1431 55.9167 14.4717 55.9167Z" fill="url(#paint37_radial_235_89357)"/>
<path d="M14.495 51.4717C11.4617 51.4717 9 51.2383 9 50.9583C9 50.6783 11.4617 50.445 14.495 50.445C17.5283 50.445 19.99 50.6783 19.99 50.9583C19.99 51.25 17.5283 51.4717 14.495 51.4717Z" fill="url(#paint38_radial_235_89357)"/>
<path d="M14.1217 51.32C12.675 49.8733 11.6717 48.5433 11.8817 48.345C12.08 48.1467 13.41 49.15 14.8567 50.585C16.3033 52.0317 17.3067 53.3617 17.0967 53.56C16.8983 53.77 15.5683 52.7667 14.1217 51.32Z" fill="url(#paint39_radial_235_89357)"/>
<path d="M14.8567 51.32C13.41 52.7667 12.08 53.77 11.8817 53.56C11.6833 53.3617 12.6867 52.0317 14.1217 50.585C15.5683 49.1383 16.8983 48.135 17.0967 48.345C17.295 48.555 16.2917 49.885 14.8567 51.32Z" fill="url(#paint40_radial_235_89357)"/>
<path d="M14.7867 50.9583C14.7867 51.1333 14.6467 51.2733 14.4717 51.2733C14.2967 51.2733 14.1567 51.1333 14.1567 50.9583C14.1567 50.7833 14.2967 50.6433 14.4717 50.6433C14.6467 50.6433 14.7867 50.7833 14.7867 50.9583Z" fill="url(#paint41_radial_235_89357)"/>
</g>
<g style="mix-blend-mode:screen">
<path d="M33.4717 30.9167C33.8003 30.9167 34.0667 28.6967 34.0667 25.9583C34.0667 23.2199 33.8003 21 33.4717 21C33.1431 21 32.8767 23.2199 32.8767 25.9583C32.8767 28.6967 33.1431 30.9167 33.4717 30.9167Z" fill="url(#paint42_radial_235_89357)"/>
<path d="M33.495 26.4717C30.4617 26.4717 28 26.2383 28 25.9583C28 25.6783 30.4617 25.445 33.495 25.445C36.5283 25.445 38.99 25.6783 38.99 25.9583C38.99 26.25 36.5283 26.4717 33.495 26.4717Z" fill="url(#paint43_radial_235_89357)"/>
<path d="M33.1217 26.32C31.675 24.8733 30.6717 23.5433 30.8817 23.345C31.08 23.1467 32.41 24.15 33.8567 25.585C35.3033 27.0317 36.3067 28.3617 36.0967 28.56C35.8983 28.77 34.5683 27.7667 33.1217 26.32Z" fill="url(#paint44_radial_235_89357)"/>
<path d="M33.8567 26.32C32.41 27.7667 31.08 28.77 30.8817 28.56C30.6833 28.3617 31.6867 27.0317 33.1217 25.585C34.5683 24.1383 35.8983 23.135 36.0967 23.345C36.295 23.555 35.2917 24.885 33.8567 26.32Z" fill="url(#paint45_radial_235_89357)"/>
<path d="M33.7867 25.9583C33.7867 26.1333 33.6467 26.2733 33.4717 26.2733C33.2967 26.2733 33.1567 26.1333 33.1567 25.9583C33.1567 25.7833 33.2967 25.6433 33.4717 25.6433C33.6467 25.6433 33.7867 25.7833 33.7867 25.9583Z" fill="url(#paint46_radial_235_89357)"/>
</g>
<g style="mix-blend-mode:screen">
<path d="M77.4717 79.9167C77.8003 79.9167 78.0667 77.6967 78.0667 74.9583C78.0667 72.2199 77.8003 70 77.4717 70C77.1431 70 76.8767 72.2199 76.8767 74.9583C76.8767 77.6967 77.1431 79.9167 77.4717 79.9167Z" fill="url(#paint47_radial_235_89357)"/>
<path d="M77.495 75.4717C74.4617 75.4717 72 75.2383 72 74.9583C72 74.6783 74.4617 74.445 77.495 74.445C80.5283 74.445 82.99 74.6783 82.99 74.9583C82.99 75.25 80.5283 75.4717 77.495 75.4717Z" fill="url(#paint48_radial_235_89357)"/>
<path d="M77.1217 75.32C75.675 73.8733 74.6717 72.5433 74.8817 72.345C75.08 72.1467 76.41 73.15 77.8567 74.585C79.3033 76.0317 80.3067 77.3617 80.0967 77.56C79.8983 77.77 78.5683 76.7667 77.1217 75.32Z" fill="url(#paint49_radial_235_89357)"/>
<path d="M77.8567 75.32C76.41 76.7667 75.08 77.77 74.8817 77.56C74.6833 77.3617 75.6867 76.0317 77.1217 74.585C78.5683 73.1383 79.8983 72.135 80.0967 72.345C80.295 72.555 79.2917 73.885 77.8567 75.32Z" fill="url(#paint50_radial_235_89357)"/>
<path d="M77.7867 74.9583C77.7867 75.1333 77.6467 75.2733 77.4717 75.2733C77.2967 75.2733 77.1567 75.1333 77.1567 74.9583C77.1567 74.7833 77.2967 74.6433 77.4717 74.6433C77.6467 74.6433 77.7867 74.7833 77.7867 74.9583Z" fill="url(#paint51_radial_235_89357)"/>
</g>
<g style="mix-blend-mode:screen">
<path d="M5.47168 104.917C5.80028 104.917 6.06668 102.697 6.06668 99.9583C6.06668 97.2199 5.80028 95 5.47168 95C5.14307 95 4.87668 97.2199 4.87668 99.9583C4.87668 102.697 5.14307 104.917 5.47168 104.917Z" fill="url(#paint52_radial_235_89357)"/>
<path d="M5.495 100.472C2.46167 100.472 0 100.238 0 99.9583C0 99.6783 2.46167 99.445 5.495 99.445C8.52833 99.445 10.99 99.6783 10.99 99.9583C10.99 100.25 8.52833 100.472 5.495 100.472Z" fill="url(#paint53_radial_235_89357)"/>
<path d="M5.12166 100.32C3.67499 98.8733 2.67166 97.5433 2.88166 97.345C3.08 97.1467 4.40999 98.15 5.85666 99.585C7.30333 101.032 8.30666 102.362 8.09666 102.56C7.89833 102.77 6.56833 101.767 5.12166 100.32Z" fill="url(#paint54_radial_235_89357)"/>
<path d="M5.85666 100.32C4.40999 101.767 3.07999 102.77 2.88166 102.56C2.68333 102.362 3.68666 101.032 5.12166 99.585C6.56833 98.1383 7.89832 97.135 8.09666 97.345C8.29499 97.555 7.29166 98.885 5.85666 100.32Z" fill="url(#paint55_radial_235_89357)"/>
<path d="M5.78668 99.9583C5.78668 100.133 5.64668 100.273 5.47168 100.273C5.29668 100.273 5.15668 100.133 5.15668 99.9583C5.15668 99.7833 5.29668 99.6433 5.47168 99.6433C5.64668 99.6433 5.78668 99.7833 5.78668 99.9583Z" fill="url(#paint56_radial_235_89357)"/>
</g>
<g style="mix-blend-mode:screen">
<path d="M54.4717 16.9167C54.8003 16.9167 55.0667 14.6967 55.0667 11.9583C55.0667 9.21992 54.8003 7 54.4717 7C54.1431 7 53.8767 9.21992 53.8767 11.9583C53.8767 14.6967 54.1431 16.9167 54.4717 16.9167Z" fill="url(#paint57_radial_235_89357)"/>
<path d="M54.495 12.4717C51.4617 12.4717 49 12.2383 49 11.9583C49 11.6783 51.4617 11.445 54.495 11.445C57.5283 11.445 59.99 11.6783 59.99 11.9583C59.99 12.25 57.5283 12.4717 54.495 12.4717Z" fill="url(#paint58_radial_235_89357)"/>
<path d="M54.1217 12.32C52.675 10.8733 51.6717 9.54334 51.8817 9.34501C52.08 9.14668 53.41 10.15 54.8567 11.585C56.3033 13.0317 57.3067 14.3617 57.0967 14.56C56.8983 14.77 55.5683 13.7667 54.1217 12.32Z" fill="url(#paint59_radial_235_89357)"/>
<path d="M54.8567 12.32C53.41 13.7666 52.08 14.77 51.8817 14.56C51.6833 14.3616 52.6867 13.0316 54.1217 11.585C55.5683 10.1383 56.8983 9.13498 57.0967 9.34498C57.295 9.55498 56.2917 10.885 54.8567 12.32Z" fill="url(#paint60_radial_235_89357)"/>
<path d="M54.7867 11.9583C54.7867 12.1333 54.6467 12.2733 54.4717 12.2733C54.2967 12.2733 54.1567 12.1333 54.1567 11.9583C54.1567 11.7833 54.2967 11.6433 54.4717 11.6433C54.6467 11.6433 54.7867 11.7833 54.7867 11.9583Z" fill="url(#paint61_radial_235_89357)"/>
</g>
</g>
<defs>
<linearGradient id="paint0_linear_235_89357" x1="-56.8965" y1="-53.0001" x2="-56.8965" y2="271.031" gradientUnits="userSpaceOnUse">
<stop stop-color="#51C0E1"/>
<stop offset="0.236659" stop-color="#A9E9F2"/>
<stop offset="0.342596" stop-color="#CCFCE0"/>
<stop offset="0.594195" stop-color="#E0F096"/>
<stop offset="0.731029" stop-color="#ECE963"/>
</linearGradient>
<radialGradient id="paint1_radial_235_89357" cx="0" cy="0" r="1" gradientUnits="userSpaceOnUse" gradientTransform="translate(-48.6748 77.5393) scale(229.055 29.5667)">
<stop offset="0.0496183" stop-color="#FFFFD7"/>
<stop offset="0.131" stop-color="#F7F7D0"/>
<stop offset="0.2574" stop-color="#E1E1BE"/>
<stop offset="0.4129" stop-color="#BDBDA0"/>
<stop offset="0.5915" stop-color="#8C8C76"/>
<stop offset="0.7897" stop-color="#4C4C40"/>
<stop offset="1"/>
</radialGradient>
<linearGradient id="paint2_linear_235_89357" x1="9.09199" y1="2.86814" x2="11.5611" y2="9.64711" gradientUnits="userSpaceOnUse">
<stop stop-color="white"/>
<stop offset="0.2622" stop-color="#D1F9FF"/>
<stop offset="0.5627" stop-color="#CCFCE0"/>
<stop offset="0.881" stop-color="#E0F096"/>
<stop offset="1" stop-color="#ECE963"/>
</linearGradient>
<linearGradient id="paint3_linear_235_89357" x1="48.8303" y1="-0.930239" x2="54.5" y2="20.9999" gradientUnits="userSpaceOnUse">
<stop stop-color="white"/>
<stop offset="0.2622" stop-color="#D1F9FF"/>
<stop offset="0.5627" stop-color="#CCFCE0"/>
<stop offset="0.881" stop-color="#E0F096"/>
<stop offset="1" stop-color="#ECE963"/>
</linearGradient>
<linearGradient id="paint4_linear_235_89357" x1="48.5215" y1="17.9447" x2="69.7051" y2="61.9315" gradientUnits="userSpaceOnUse">
<stop stop-color="white"/>
<stop offset="0.2622" stop-color="#D1F9FF"/>
<stop offset="0.5627" stop-color="#CCFCE0"/>
<stop offset="0.881" stop-color="#E0F096"/>
<stop offset="1" stop-color="#ECE963"/>
</linearGradient>
<linearGradient id="paint5_linear_235_89357" x1="84.9812" y1="26.8376" x2="97.3869" y2="42.5517" gradientUnits="userSpaceOnUse">
<stop stop-color="white"/>
<stop offset="0.2622" stop-color="#D1F9FF"/>
<stop offset="0.5627" stop-color="#CCFCE0"/>
<stop offset="0.881" stop-color="#E0F096"/>
<stop offset="1" stop-color="#ECE963"/>
</linearGradient>
<linearGradient id="paint6_linear_235_89357" x1="123.172" y1="16.8164" x2="131.549" y2="86.1271" gradientUnits="userSpaceOnUse">
<stop stop-color="white"/>
<stop offset="0.2622" stop-color="#D1F9FF"/>
<stop offset="0.5627" stop-color="#CCFCE0"/>
<stop offset="0.881" stop-color="#E0F096"/>
<stop offset="1" stop-color="#ECE963"/>
</linearGradient>
<linearGradient id="paint7_linear_235_89357" x1="134.107" y1="14.9205" x2="151.168" y2="70.8732" gradientUnits="userSpaceOnUse">
<stop stop-color="white"/>
<stop offset="0.2622" stop-color="#D1F9FF"/>
<stop offset="0.5627" stop-color="#CCFCE0"/>
<stop offset="0.881" stop-color="#E0F096"/>
<stop offset="1" stop-color="#ECE963"/>
</linearGradient>
<linearGradient id="paint8_linear_235_89357" x1="86.6279" y1="57.4857" x2="79.0998" y2="13.7804" gradientUnits="userSpaceOnUse">
<stop stop-color="#67B599"/>
<stop offset="1" stop-color="#CFFDF8"/>
</linearGradient>
<linearGradient id="paint9_linear_235_89357" x1="58.9137" y1="55.6835" x2="52.8493" y2="34.2109" gradientUnits="userSpaceOnUse">
<stop stop-color="#67B599"/>
<stop offset="1" stop-color="#CFFDF8"/>
</linearGradient>
<linearGradient id="paint10_linear_235_89357" x1="59.0018" y1="60.6796" x2="61.1842" y2="22.3521" gradientUnits="userSpaceOnUse">
<stop stop-color="#67B576"/>
<stop offset="1" stop-color="#B8E3DD"/>
</linearGradient>
<linearGradient id="paint11_linear_235_89357" x1="-65.7188" y1="70.196" x2="-66.4167" y2="49.7497" gradientUnits="userSpaceOnUse">
<stop stop-color="#67B576"/>
<stop offset="1" stop-color="#B8E3DD"/>
</linearGradient>
<linearGradient id="paint12_linear_235_89357" x1="-19.5065" y1="58.5241" x2="-20.1436" y2="47.6671" gradientUnits="userSpaceOnUse">
<stop stop-color="#67B576"/>
<stop offset="1" stop-color="#B8E3DD"/>
</linearGradient>
<linearGradient id="paint13_linear_235_89357" x1="-65.7188" y1="74.1115" x2="-65.9758" y2="61.6977" gradientUnits="userSpaceOnUse">
<stop stop-color="#67B576"/>
<stop offset="1" stop-color="#B8E3DD"/>
</linearGradient>
<linearGradient id="paint14_linear_235_89357" x1="94.9919" y1="75.4871" x2="92.7058" y2="47.9843" gradientUnits="userSpaceOnUse">
<stop stop-color="#67B576"/>
<stop offset="1" stop-color="#B8E3DD"/>
</linearGradient>
<linearGradient id="paint15_linear_235_89357" x1="118.939" y1="62.8236" x2="117.388" y2="44.5849" gradientUnits="userSpaceOnUse">
<stop stop-color="#67B576"/>
<stop offset="1" stop-color="#B8E3DD"/>
</linearGradient>
<linearGradient id="paint16_linear_235_89357" x1="121.04" y1="77.0259" x2="119.672" y2="60.3044" gradientUnits="userSpaceOnUse">
<stop stop-color="#67B576"/>
<stop offset="1" stop-color="#B8E3DD"/>
</linearGradient>
<linearGradient id="paint17_linear_235_89357" x1="133.962" y1="49.9707" x2="133.408" y2="41.1012" gradientUnits="userSpaceOnUse">
<stop stop-color="#67B576"/>
<stop offset="1" stop-color="#B8E3DD"/>
</linearGradient>
<linearGradient id="paint18_linear_235_89357" x1="109.08" y1="53.1857" x2="106.003" y2="45.8708" gradientUnits="userSpaceOnUse">
<stop stop-color="#67B576"/>
<stop offset="1" stop-color="#B8E3DD"/>
</linearGradient>
<linearGradient id="paint19_linear_235_89357" x1="98.515" y1="60.8801" x2="96.1347" y2="55.1385" gradientUnits="userSpaceOnUse">
<stop stop-color="#67B576"/>
<stop offset="1" stop-color="#B8E3DD"/>
</linearGradient>
<linearGradient id="paint20_linear_235_89357" x1="-42.5001" y1="116" x2="-40.6033" y2="66.4748" gradientUnits="userSpaceOnUse">
<stop stop-color="#4DB0A5"/>
<stop offset="1" stop-color="#EFCE3D"/>
</linearGradient>
<linearGradient id="paint21_linear_235_89357" x1="-54.8768" y1="95.5416" x2="-57.7876" y2="60.6501" gradientUnits="userSpaceOnUse">
<stop stop-color="#4DB0A5"/>
<stop offset="1" stop-color="#EFCE3D"/>
</linearGradient>
<linearGradient id="paint22_linear_235_89357" x1="150" y1="167" x2="5.90941" y2="58.2566" gradientUnits="userSpaceOnUse">
<stop stop-color="#4DB0A5"/>
<stop offset="1" stop-color="#EFCE3D"/>
</linearGradient>
<linearGradient id="paint23_linear_235_89357" x1="93.4926" y1="137.146" x2="87.9942" y2="95.7232" gradientUnits="userSpaceOnUse">
<stop stop-color="#4DB0A5"/>
<stop offset="1" stop-color="#EFCE3D"/>
</linearGradient>
<linearGradient id="paint24_linear_235_89357" x1="-3.59433" y1="152.744" x2="-13.9456" y2="138.633" gradientUnits="userSpaceOnUse">
<stop stop-color="#4DB0A5"/>
<stop offset="1" stop-color="#EFCE3D"/>
</linearGradient>
<linearGradient id="paint25_linear_235_89357" x1="-7.0682" y1="140.586" x2="-7.71461" y2="135.986" gradientUnits="userSpaceOnUse">
<stop stop-color="#67B576"/>
<stop offset="1" stop-color="#B8E3DD"/>
</linearGradient>
<linearGradient id="paint26_linear_235_89357" x1="100.38" y1="83.3939" x2="100.227" y2="82.3558" gradientUnits="userSpaceOnUse">
<stop stop-color="#4DB0A5"/>
<stop offset="1" stop-color="#EFCE3D"/>
</linearGradient>
<linearGradient id="paint27_linear_235_89357" x1="101.328" y1="80.9233" x2="101.609" y2="80.9233" gradientUnits="userSpaceOnUse">
<stop stop-color="#F0E1CF"/>
<stop offset="0.388" stop-color="#EAD9C5"/>
<stop offset="1" stop-color="#C0A084"/>
</linearGradient>
<linearGradient id="paint28_linear_235_89357" x1="119.408" y1="250.698" x2="45.6953" y2="190.657" gradientUnits="userSpaceOnUse">
<stop stop-color="#4DB0A5"/>
<stop offset="1" stop-color="#EFCE3D"/>
</linearGradient>
<linearGradient id="paint29_linear_235_89357" x1="93.289" y1="116.5" x2="93.289" y2="101.5" gradientUnits="userSpaceOnUse">
<stop stop-color="#ECD0D0"/>
<stop offset="0.4853" stop-color="#F56868"/>
<stop offset="1" stop-color="#E21A1A"/>
</linearGradient>
<radialGradient id="paint30_radial_235_89357" cx="0" cy="0" r="1" gradientUnits="userSpaceOnUse" gradientTransform="translate(-17.3651 38.3568) scale(62.7605 62.7605)">
<stop stop-color="#F36A38"/>
<stop offset="0.2275" stop-color="#B04D29"/>
<stop offset="0.5053" stop-color="#662C17"/>
<stop offset="0.736" stop-color="#2F140B"/>
<stop offset="0.9072" stop-color="#0D0603"/>
<stop offset="1"/>
</radialGradient>
<radialGradient id="paint31_radial_235_89357" cx="0" cy="0" r="1" gradientUnits="userSpaceOnUse" gradientTransform="translate(113.896 7.24088) scale(64.1572)">
<stop stop-color="#F37C50"/>
<stop offset="0.2275" stop-color="#B05A3A"/>
<stop offset="0.5053" stop-color="#663421"/>
<stop offset="0.736" stop-color="#2F180F"/>
<stop offset="0.9072" stop-color="#0D0704"/>
<stop offset="1"/>
</radialGradient>
<radialGradient id="paint32_radial_235_89357" cx="0" cy="0" r="1" gradientUnits="userSpaceOnUse" gradientTransform="translate(62.1592 84.9586) scale(0.599057 4.95425)">
<stop stop-color="#E6E7E8"/>
<stop offset="0.0315178" stop-color="#C4C5C6"/>
<stop offset="0.0757632" stop-color="#9B9C9D"/>
<stop offset="0.1255" stop-color="#767777"/>
<stop offset="0.1796" stop-color="#565657"/>
<stop offset="0.2394" stop-color="#3B3B3B"/>
<stop offset="0.307" stop-color="#252525"/>
<stop offset="0.3859" stop-color="#141414"/>
<stop offset="0.4834" stop-color="#090909"/>
<stop offset="0.6202" stop-color="#020202"/>
<stop offset="1"/>
</radialGradient>
<radialGradient id="paint33_radial_235_89357" cx="0" cy="0" r="1" gradientUnits="userSpaceOnUse" gradientTransform="translate(62.1785 84.9586) rotate(90) scale(0.515205 5.49872)">
<stop stop-color="#E6E7E8"/>
<stop offset="0.0315178" stop-color="#C4C5C6"/>
<stop offset="0.0757632" stop-color="#9B9C9D"/>
<stop offset="0.1255" stop-color="#767777"/>
<stop offset="0.1796" stop-color="#565657"/>
<stop offset="0.2394" stop-color="#3B3B3B"/>
<stop offset="0.307" stop-color="#252525"/>
<stop offset="0.3859" stop-color="#141414"/>
<stop offset="0.4834" stop-color="#090909"/>
<stop offset="0.6202" stop-color="#020202"/>
<stop offset="1"/>
</radialGradient>
<radialGradient id="paint34_radial_235_89357" cx="0" cy="0" r="1" gradientUnits="userSpaceOnUse" gradientTransform="translate(62.1784 84.9586) rotate(135) scale(0.515276 3.6895)">
<stop stop-color="#E6E7E8"/>
<stop offset="0.0315178" stop-color="#C4C5C6"/>
<stop offset="0.0757632" stop-color="#9B9C9D"/>
<stop offset="0.1255" stop-color="#767777"/>
<stop offset="0.1796" stop-color="#565657"/>
<stop offset="0.2394" stop-color="#3B3B3B"/>
<stop offset="0.307" stop-color="#252525"/>
<stop offset="0.3859" stop-color="#141414"/>
<stop offset="0.4834" stop-color="#090909"/>
<stop offset="0.6202" stop-color="#020202"/>
<stop offset="1"/>
</radialGradient>
<radialGradient id="paint35_radial_235_89357" cx="0" cy="0" r="1" gradientUnits="userSpaceOnUse" gradientTransform="translate(62.1785 84.9586) rotate(45) scale(0.515276 3.6895)">
<stop stop-color="#E6E7E8"/>
<stop offset="0.0289264" stop-color="#C9CACB"/>
<stop offset="0.0771776" stop-color="#9FA0A1"/>
<stop offset="0.131" stop-color="#797A7A"/>
<stop offset="0.1893" stop-color="#585859"/>
<stop offset="0.2534" stop-color="#3C3D3D"/>
<stop offset="0.3251" stop-color="#262626"/>
<stop offset="0.4081" stop-color="#151515"/>
<stop offset="0.5093" stop-color="#090909"/>
<stop offset="0.6481" stop-color="#020202"/>
<stop offset="1"/>
</radialGradient>
<radialGradient id="paint36_radial_235_89357" cx="0" cy="0" r="1" gradientUnits="userSpaceOnUse" gradientTransform="translate(62.1592 84.9586) scale(0.313496)">
<stop stop-color="#E6E7E8"/>
<stop offset="0.2641" stop-color="#E4E5E6"/>
<stop offset="0.4053" stop-color="#DCDDDE"/>
<stop offset="0.5174" stop-color="#CECFD0"/>
<stop offset="0.6142" stop-color="#BBBCBD"/>
<stop offset="0.7013" stop-color="#A2A3A4"/>
<stop offset="0.7813" stop-color="#848585"/>
<stop offset="0.8559" stop-color="#606060"/>
<stop offset="0.9262" stop-color="#353636"/>
<stop offset="0.9908" stop-color="#070707"/>
<stop offset="1"/>
</radialGradient>
<radialGradient id="paint37_radial_235_89357" cx="0" cy="0" r="1" gradientUnits="userSpaceOnUse" gradientTransform="translate(14.4708 50.9603) scale(0.599057 4.95425)">
<stop stop-color="#E6E7E8"/>
<stop offset="0.0315178" stop-color="#C4C5C6"/>
<stop offset="0.0757632" stop-color="#9B9C9D"/>
<stop offset="0.1255" stop-color="#767777"/>
<stop offset="0.1796" stop-color="#565657"/>
<stop offset="0.2394" stop-color="#3B3B3B"/>
<stop offset="0.307" stop-color="#252525"/>
<stop offset="0.3859" stop-color="#141414"/>
<stop offset="0.4834" stop-color="#090909"/>
<stop offset="0.6202" stop-color="#020202"/>
<stop offset="1"/>
</radialGradient>
<radialGradient id="paint38_radial_235_89357" cx="0" cy="0" r="1" gradientUnits="userSpaceOnUse" gradientTransform="translate(14.4901 50.9603) rotate(90) scale(0.515205 5.49872)">
<stop stop-color="#E6E7E8"/>
<stop offset="0.0315178" stop-color="#C4C5C6"/>
<stop offset="0.0757632" stop-color="#9B9C9D"/>
<stop offset="0.1255" stop-color="#767777"/>
<stop offset="0.1796" stop-color="#565657"/>
<stop offset="0.2394" stop-color="#3B3B3B"/>
<stop offset="0.307" stop-color="#252525"/>
<stop offset="0.3859" stop-color="#141414"/>
<stop offset="0.4834" stop-color="#090909"/>
<stop offset="0.6202" stop-color="#020202"/>
<stop offset="1"/>
</radialGradient>
<radialGradient id="paint39_radial_235_89357" cx="0" cy="0" r="1" gradientUnits="userSpaceOnUse" gradientTransform="translate(14.4901 50.9604) rotate(135) scale(0.515276 3.6895)">
<stop stop-color="#E6E7E8"/>
<stop offset="0.0315178" stop-color="#C4C5C6"/>
<stop offset="0.0757632" stop-color="#9B9C9D"/>
<stop offset="0.1255" stop-color="#767777"/>
<stop offset="0.1796" stop-color="#565657"/>
<stop offset="0.2394" stop-color="#3B3B3B"/>
<stop offset="0.307" stop-color="#252525"/>
<stop offset="0.3859" stop-color="#141414"/>
<stop offset="0.4834" stop-color="#090909"/>
<stop offset="0.6202" stop-color="#020202"/>
<stop offset="1"/>
</radialGradient>
<radialGradient id="paint40_radial_235_89357" cx="0" cy="0" r="1" gradientUnits="userSpaceOnUse" gradientTransform="translate(14.4901 50.9603) rotate(45) scale(0.515276 3.6895)">
<stop stop-color="#E6E7E8"/>
<stop offset="0.0289264" stop-color="#C9CACB"/>
<stop offset="0.0771776" stop-color="#9FA0A1"/>
<stop offset="0.131" stop-color="#797A7A"/>
<stop offset="0.1893" stop-color="#585859"/>
<stop offset="0.2534" stop-color="#3C3D3D"/>
<stop offset="0.3251" stop-color="#262626"/>
<stop offset="0.4081" stop-color="#151515"/>
<stop offset="0.5093" stop-color="#090909"/>
<stop offset="0.6481" stop-color="#020202"/>
<stop offset="1"/>
</radialGradient>
<radialGradient id="paint41_radial_235_89357" cx="0" cy="0" r="1" gradientUnits="userSpaceOnUse" gradientTransform="translate(14.4708 50.9603) scale(0.313496)">
<stop stop-color="#E6E7E8"/>
<stop offset="0.2641" stop-color="#E4E5E6"/>
<stop offset="0.4053" stop-color="#DCDDDE"/>
<stop offset="0.5174" stop-color="#CECFD0"/>
<stop offset="0.6142" stop-color="#BBBCBD"/>
<stop offset="0.7013" stop-color="#A2A3A4"/>
<stop offset="0.7813" stop-color="#848585"/>
<stop offset="0.8559" stop-color="#606060"/>
<stop offset="0.9262" stop-color="#353636"/>
<stop offset="0.9908" stop-color="#070707"/>
<stop offset="1"/>
</radialGradient>
<radialGradient id="paint42_radial_235_89357" cx="0" cy="0" r="1" gradientUnits="userSpaceOnUse" gradientTransform="translate(33.4708 25.9603) scale(0.599057 4.95425)">
<stop stop-color="#E6E7E8"/>
<stop offset="0.0315178" stop-color="#C4C5C6"/>
<stop offset="0.0757632" stop-color="#9B9C9D"/>
<stop offset="0.1255" stop-color="#767777"/>
<stop offset="0.1796" stop-color="#565657"/>
<stop offset="0.2394" stop-color="#3B3B3B"/>
<stop offset="0.307" stop-color="#252525"/>
<stop offset="0.3859" stop-color="#141414"/>
<stop offset="0.4834" stop-color="#090909"/>
<stop offset="0.6202" stop-color="#020202"/>
<stop offset="1"/>
</radialGradient>
<radialGradient id="paint43_radial_235_89357" cx="0" cy="0" r="1" gradientUnits="userSpaceOnUse" gradientTransform="translate(33.4901 25.9603) rotate(90) scale(0.515205 5.49872)">
<stop stop-color="#E6E7E8"/>
<stop offset="0.0315178" stop-color="#C4C5C6"/>
<stop offset="0.0757632" stop-color="#9B9C9D"/>
<stop offset="0.1255" stop-color="#767777"/>
<stop offset="0.1796" stop-color="#565657"/>
<stop offset="0.2394" stop-color="#3B3B3B"/>
<stop offset="0.307" stop-color="#252525"/>
<stop offset="0.3859" stop-color="#141414"/>
<stop offset="0.4834" stop-color="#090909"/>
<stop offset="0.6202" stop-color="#020202"/>
<stop offset="1"/>
</radialGradient>
<radialGradient id="paint44_radial_235_89357" cx="0" cy="0" r="1" gradientUnits="userSpaceOnUse" gradientTransform="translate(33.4901 25.9604) rotate(135) scale(0.515276 3.6895)">
<stop stop-color="#E6E7E8"/>
<stop offset="0.0315178" stop-color="#C4C5C6"/>
<stop offset="0.0757632" stop-color="#9B9C9D"/>
<stop offset="0.1255" stop-color="#767777"/>
<stop offset="0.1796" stop-color="#565657"/>
<stop offset="0.2394" stop-color="#3B3B3B"/>
<stop offset="0.307" stop-color="#252525"/>
<stop offset="0.3859" stop-color="#141414"/>
<stop offset="0.4834" stop-color="#090909"/>
<stop offset="0.6202" stop-color="#020202"/>
<stop offset="1"/>
</radialGradient>
<radialGradient id="paint45_radial_235_89357" cx="0" cy="0" r="1" gradientUnits="userSpaceOnUse" gradientTransform="translate(33.4901 25.9603) rotate(45) scale(0.515276 3.6895)">
<stop stop-color="#E6E7E8"/>
<stop offset="0.0289264" stop-color="#C9CACB"/>
<stop offset="0.0771776" stop-color="#9FA0A1"/>
<stop offset="0.131" stop-color="#797A7A"/>
<stop offset="0.1893" stop-color="#585859"/>
<stop offset="0.2534" stop-color="#3C3D3D"/>
<stop offset="0.3251" stop-color="#262626"/>
<stop offset="0.4081" stop-color="#151515"/>
<stop offset="0.5093" stop-color="#090909"/>
<stop offset="0.6481" stop-color="#020202"/>
<stop offset="1"/>
</radialGradient>
<radialGradient id="paint46_radial_235_89357" cx="0" cy="0" r="1" gradientUnits="userSpaceOnUse" gradientTransform="translate(33.4708 25.9603) scale(0.313496)">
<stop stop-color="#E6E7E8"/>
<stop offset="0.2641" stop-color="#E4E5E6"/>
<stop offset="0.4053" stop-color="#DCDDDE"/>
<stop offset="0.5174" stop-color="#CECFD0"/>
<stop offset="0.6142" stop-color="#BBBCBD"/>
<stop offset="0.7013" stop-color="#A2A3A4"/>
<stop offset="0.7813" stop-color="#848585"/>
<stop offset="0.8559" stop-color="#606060"/>
<stop offset="0.9262" stop-color="#353636"/>
<stop offset="0.9908" stop-color="#070707"/>
<stop offset="1"/>
</radialGradient>
<radialGradient id="paint47_radial_235_89357" cx="0" cy="0" r="1" gradientUnits="userSpaceOnUse" gradientTransform="translate(77.4708 74.9603) scale(0.599057 4.95425)">
<stop stop-color="#E6E7E8"/>
<stop offset="0.0315178" stop-color="#C4C5C6"/>
<stop offset="0.0757632" stop-color="#9B9C9D"/>
<stop offset="0.1255" stop-color="#767777"/>
<stop offset="0.1796" stop-color="#565657"/>
<stop offset="0.2394" stop-color="#3B3B3B"/>
<stop offset="0.307" stop-color="#252525"/>
<stop offset="0.3859" stop-color="#141414"/>
<stop offset="0.4834" stop-color="#090909"/>
<stop offset="0.6202" stop-color="#020202"/>
<stop offset="1"/>
</radialGradient>
<radialGradient id="paint48_radial_235_89357" cx="0" cy="0" r="1" gradientUnits="userSpaceOnUse" gradientTransform="translate(77.4901 74.9603) rotate(90) scale(0.515205 5.49872)">
<stop stop-color="#E6E7E8"/>
<stop offset="0.0315178" stop-color="#C4C5C6"/>
<stop offset="0.0757632" stop-color="#9B9C9D"/>
<stop offset="0.1255" stop-color="#767777"/>
<stop offset="0.1796" stop-color="#565657"/>
<stop offset="0.2394" stop-color="#3B3B3B"/>
<stop offset="0.307" stop-color="#252525"/>
<stop offset="0.3859" stop-color="#141414"/>
<stop offset="0.4834" stop-color="#090909"/>
<stop offset="0.6202" stop-color="#020202"/>
<stop offset="1"/>
</radialGradient>
<radialGradient id="paint49_radial_235_89357" cx="0" cy="0" r="1" gradientUnits="userSpaceOnUse" gradientTransform="translate(77.4901 74.9604) rotate(135) scale(0.515276 3.6895)">
<stop stop-color="#E6E7E8"/>
<stop offset="0.0315178" stop-color="#C4C5C6"/>
<stop offset="0.0757632" stop-color="#9B9C9D"/>
<stop offset="0.1255" stop-color="#767777"/>
<stop offset="0.1796" stop-color="#565657"/>
<stop offset="0.2394" stop-color="#3B3B3B"/>
<stop offset="0.307" stop-color="#252525"/>
<stop offset="0.3859" stop-color="#141414"/>
<stop offset="0.4834" stop-color="#090909"/>
<stop offset="0.6202" stop-color="#020202"/>
<stop offset="1"/>
</radialGradient>
<radialGradient id="paint50_radial_235_89357" cx="0" cy="0" r="1" gradientUnits="userSpaceOnUse" gradientTransform="translate(77.4901 74.9603) rotate(45) scale(0.515276 3.6895)">
<stop stop-color="#E6E7E8"/>
<stop offset="0.0289264" stop-color="#C9CACB"/>
<stop offset="0.0771776" stop-color="#9FA0A1"/>
<stop offset="0.131" stop-color="#797A7A"/>
<stop offset="0.1893" stop-color="#585859"/>
<stop offset="0.2534" stop-color="#3C3D3D"/>
<stop offset="0.3251" stop-color="#262626"/>
<stop offset="0.4081" stop-color="#151515"/>
<stop offset="0.5093" stop-color="#090909"/>
<stop offset="0.6481" stop-color="#020202"/>
<stop offset="1"/>
</radialGradient>
<radialGradient id="paint51_radial_235_89357" cx="0" cy="0" r="1" gradientUnits="userSpaceOnUse" gradientTransform="translate(77.4708 74.9603) scale(0.313496)">
<stop stop-color="#E6E7E8"/>
<stop offset="0.2641" stop-color="#E4E5E6"/>
<stop offset="0.4053" stop-color="#DCDDDE"/>
<stop offset="0.5174" stop-color="#CECFD0"/>
<stop offset="0.6142" stop-color="#BBBCBD"/>
<stop offset="0.7013" stop-color="#A2A3A4"/>
<stop offset="0.7813" stop-color="#848585"/>
<stop offset="0.8559" stop-color="#606060"/>
<stop offset="0.9262" stop-color="#353636"/>
<stop offset="0.9908" stop-color="#070707"/>
<stop offset="1"/>
</radialGradient>
<radialGradient id="paint52_radial_235_89357" cx="0" cy="0" r="1" gradientUnits="userSpaceOnUse" gradientTransform="translate(5.47082 99.9603) scale(0.599057 4.95425)">
<stop stop-color="#E6E7E8"/>
<stop offset="0.0315178" stop-color="#C4C5C6"/>
<stop offset="0.0757632" stop-color="#9B9C9D"/>
<stop offset="0.1255" stop-color="#767777"/>
<stop offset="0.1796" stop-color="#565657"/>
<stop offset="0.2394" stop-color="#3B3B3B"/>
<stop offset="0.307" stop-color="#252525"/>
<stop offset="0.3859" stop-color="#141414"/>
<stop offset="0.4834" stop-color="#090909"/>
<stop offset="0.6202" stop-color="#020202"/>
<stop offset="1"/>
</radialGradient>
<radialGradient id="paint53_radial_235_89357" cx="0" cy="0" r="1" gradientUnits="userSpaceOnUse" gradientTransform="translate(5.49011 99.9603) rotate(90) scale(0.515205 5.49872)">
<stop stop-color="#E6E7E8"/>
<stop offset="0.0315178" stop-color="#C4C5C6"/>
<stop offset="0.0757632" stop-color="#9B9C9D"/>
<stop offset="0.1255" stop-color="#767777"/>
<stop offset="0.1796" stop-color="#565657"/>
<stop offset="0.2394" stop-color="#3B3B3B"/>
<stop offset="0.307" stop-color="#252525"/>
<stop offset="0.3859" stop-color="#141414"/>
<stop offset="0.4834" stop-color="#090909"/>
<stop offset="0.6202" stop-color="#020202"/>
<stop offset="1"/>
</radialGradient>
<radialGradient id="paint54_radial_235_89357" cx="0" cy="0" r="1" gradientUnits="userSpaceOnUse" gradientTransform="translate(5.49009 99.9604) rotate(135) scale(0.515276 3.6895)">
<stop stop-color="#E6E7E8"/>
<stop offset="0.0315178" stop-color="#C4C5C6"/>
<stop offset="0.0757632" stop-color="#9B9C9D"/>
<stop offset="0.1255" stop-color="#767777"/>
<stop offset="0.1796" stop-color="#565657"/>
<stop offset="0.2394" stop-color="#3B3B3B"/>
<stop offset="0.307" stop-color="#252525"/>
<stop offset="0.3859" stop-color="#141414"/>
<stop offset="0.4834" stop-color="#090909"/>
<stop offset="0.6202" stop-color="#020202"/>
<stop offset="1"/>
</radialGradient>
<radialGradient id="paint55_radial_235_89357" cx="0" cy="0" r="1" gradientUnits="userSpaceOnUse" gradientTransform="translate(5.4901 99.9603) rotate(45) scale(0.515276 3.6895)">
<stop stop-color="#E6E7E8"/>
<stop offset="0.0289264" stop-color="#C9CACB"/>
<stop offset="0.0771776" stop-color="#9FA0A1"/>
<stop offset="0.131" stop-color="#797A7A"/>
<stop offset="0.1893" stop-color="#585859"/>
<stop offset="0.2534" stop-color="#3C3D3D"/>
<stop offset="0.3251" stop-color="#262626"/>
<stop offset="0.4081" stop-color="#151515"/>
<stop offset="0.5093" stop-color="#090909"/>
<stop offset="0.6481" stop-color="#020202"/>
<stop offset="1"/>
</radialGradient>
<radialGradient id="paint56_radial_235_89357" cx="0" cy="0" r="1" gradientUnits="userSpaceOnUse" gradientTransform="translate(5.47082 99.9603) scale(0.313496)">
<stop stop-color="#E6E7E8"/>
<stop offset="0.2641" stop-color="#E4E5E6"/>
<stop offset="0.4053" stop-color="#DCDDDE"/>
<stop offset="0.5174" stop-color="#CECFD0"/>
<stop offset="0.6142" stop-color="#BBBCBD"/>
<stop offset="0.7013" stop-color="#A2A3A4"/>
<stop offset="0.7813" stop-color="#848585"/>
<stop offset="0.8559" stop-color="#606060"/>
<stop offset="0.9262" stop-color="#353636"/>
<stop offset="0.9908" stop-color="#070707"/>
<stop offset="1"/>
</radialGradient>
<radialGradient id="paint57_radial_235_89357" cx="0" cy="0" r="1" gradientUnits="userSpaceOnUse" gradientTransform="translate(54.4708 11.9603) scale(0.599057 4.95425)">
<stop stop-color="#E6E7E8"/>
<stop offset="0.0315178" stop-color="#C4C5C6"/>
<stop offset="0.0757632" stop-color="#9B9C9D"/>
<stop offset="0.1255" stop-color="#767777"/>
<stop offset="0.1796" stop-color="#565657"/>
<stop offset="0.2394" stop-color="#3B3B3B"/>
<stop offset="0.307" stop-color="#252525"/>
<stop offset="0.3859" stop-color="#141414"/>
<stop offset="0.4834" stop-color="#090909"/>
<stop offset="0.6202" stop-color="#020202"/>
<stop offset="1"/>
</radialGradient>
<radialGradient id="paint58_radial_235_89357" cx="0" cy="0" r="1" gradientUnits="userSpaceOnUse" gradientTransform="translate(54.4901 11.9603) rotate(90) scale(0.515205 5.49872)">
<stop stop-color="#E6E7E8"/>
<stop offset="0.0315178" stop-color="#C4C5C6"/>
<stop offset="0.0757632" stop-color="#9B9C9D"/>
<stop offset="0.1255" stop-color="#767777"/>
<stop offset="0.1796" stop-color="#565657"/>
<stop offset="0.2394" stop-color="#3B3B3B"/>
<stop offset="0.307" stop-color="#252525"/>
<stop offset="0.3859" stop-color="#141414"/>
<stop offset="0.4834" stop-color="#090909"/>
<stop offset="0.6202" stop-color="#020202"/>
<stop offset="1"/>
</radialGradient>
<radialGradient id="paint59_radial_235_89357" cx="0" cy="0" r="1" gradientUnits="userSpaceOnUse" gradientTransform="translate(54.4901 11.9604) rotate(135) scale(0.515276 3.6895)">
<stop stop-color="#E6E7E8"/>
<stop offset="0.0315178" stop-color="#C4C5C6"/>
<stop offset="0.0757632" stop-color="#9B9C9D"/>
<stop offset="0.1255" stop-color="#767777"/>
<stop offset="0.1796" stop-color="#565657"/>
<stop offset="0.2394" stop-color="#3B3B3B"/>
<stop offset="0.307" stop-color="#252525"/>
<stop offset="0.3859" stop-color="#141414"/>
<stop offset="0.4834" stop-color="#090909"/>
<stop offset="0.6202" stop-color="#020202"/>
<stop offset="1"/>
</radialGradient>
<radialGradient id="paint60_radial_235_89357" cx="0" cy="0" r="1" gradientUnits="userSpaceOnUse" gradientTransform="translate(54.4901 11.9603) rotate(45) scale(0.515276 3.6895)">
<stop stop-color="#E6E7E8"/>
<stop offset="0.0289264" stop-color="#C9CACB"/>
<stop offset="0.0771776" stop-color="#9FA0A1"/>
<stop offset="0.131" stop-color="#797A7A"/>
<stop offset="0.1893" stop-color="#585859"/>
<stop offset="0.2534" stop-color="#3C3D3D"/>
<stop offset="0.3251" stop-color="#262626"/>
<stop offset="0.4081" stop-color="#151515"/>
<stop offset="0.5093" stop-color="#090909"/>
<stop offset="0.6481" stop-color="#020202"/>
<stop offset="1"/>
</radialGradient>
<radialGradient id="paint61_radial_235_89357" cx="0" cy="0" r="1" gradientUnits="userSpaceOnUse" gradientTransform="translate(54.4708 11.9603) scale(0.313496)">
<stop stop-color="#E6E7E8"/>
<stop offset="0.2641" stop-color="#E4E5E6"/>
<stop offset="0.4053" stop-color="#DCDDDE"/>
<stop offset="0.5174" stop-color="#CECFD0"/>
<stop offset="0.6142" stop-color="#BBBCBD"/>
<stop offset="0.7013" stop-color="#A2A3A4"/>
<stop offset="0.7813" stop-color="#848585"/>
<stop offset="0.8559" stop-color="#606060"/>
<stop offset="0.9262" stop-color="#353636"/>
<stop offset="0.9908" stop-color="#070707"/>
<stop offset="1"/>
</radialGradient>
<clipPath id="clip0_235_89357">
<rect width="107" height="136" fill="white"/>
</clipPath>
</defs>
</svg>
