<svg width="26" height="26" viewBox="0 0 26 26" fill="none" xmlns="http://www.w3.org/2000/svg">
<path d="M19.4058 5.44854L13 11.8543L6.59427 5.44854C6.4402 5.30756 6.23768 5.23145 6.02889 5.23607C5.8201 5.2407 5.62115 5.3257 5.47348 5.47338C5.3258 5.62105 5.2408 5.82 5.23617 6.02879C5.23155 6.23758 5.30766 6.4401 5.44864 6.59417L11.8511 12.9999L5.44702 19.404C5.36878 19.4786 5.30623 19.5681 5.26306 19.6671C5.21989 19.7662 5.19696 19.8729 5.19562 19.981C5.19428 20.0891 5.21456 20.1963 5.25527 20.2964C5.29597 20.3966 5.35628 20.4875 5.43265 20.564C5.50902 20.6405 5.59991 20.7009 5.69997 20.7418C5.80003 20.7826 5.90725 20.8031 6.01532 20.8019C6.1234 20.8007 6.23014 20.7779 6.32929 20.7349C6.42843 20.6918 6.51797 20.6294 6.59264 20.5513L13 14.1472L19.4058 20.5529C19.5598 20.6939 19.7624 20.77 19.9711 20.7654C20.1799 20.7608 20.3789 20.6758 20.5266 20.5281C20.6742 20.3804 20.7592 20.1815 20.7639 19.9727C20.7685 19.7639 20.6924 19.5614 20.5514 19.4073L14.1456 13.0015L20.5514 6.59417C20.6296 6.5196 20.6922 6.43015 20.7354 6.33107C20.7785 6.23199 20.8015 6.12528 20.8028 6.01721C20.8041 5.90913 20.7839 5.80189 20.7431 5.70177C20.7024 5.60165 20.6421 5.51067 20.5658 5.4342C20.4894 5.35772 20.3985 5.29728 20.2984 5.25643C20.1984 5.21558 20.0912 5.19515 19.9831 5.19634C19.875 5.19752 19.7683 5.2203 19.6691 5.26333C19.57 5.30637 19.4804 5.36878 19.4058 5.44692V5.44854Z" fill="#575656"/>
</svg>
