<svg width="66" height="66" viewBox="0 0 66 66" fill="none" xmlns="http://www.w3.org/2000/svg">
<path d="M20.5261 31.5018C14.4739 31.5018 9.55029 26.5782 9.55029 20.526C9.55029 14.4738 14.4739 9.5502 20.5261 9.5502C26.5783 9.5502 31.5019 14.4738 31.5019 20.526C31.5019 26.5782 26.5783 31.5018 20.5261 31.5018ZM20.5261 11.5302C15.5629 11.5302 11.5303 15.5628 11.5303 20.526C11.5303 25.4892 15.5695 29.5218 20.5261 29.5218C25.4827 29.5218 29.5219 25.4892 29.5219 20.526C29.5219 15.5628 25.4827 11.5302 20.5261 11.5302ZM20.5261 56.4498C14.4739 56.4498 9.55029 51.5262 9.55029 45.474C9.55029 39.4218 14.4739 34.4982 20.5261 34.4982C26.5783 34.4982 31.5019 39.4218 31.5019 45.474C31.5019 51.5262 26.5783 56.4498 20.5261 56.4498ZM20.5261 36.4782C15.5629 36.4782 11.5303 40.5108 11.5303 45.474C11.5303 50.4372 15.5695 54.4698 20.5261 54.4698C25.4827 54.4698 29.5219 50.4372 29.5219 45.474C29.5219 40.5108 25.4827 36.4782 20.5261 36.4782ZM45.4741 56.4498C39.4219 56.4498 34.4983 51.5262 34.4983 45.474C34.4983 39.4218 39.4219 34.4982 45.4741 34.4982C51.5263 34.4982 56.4499 39.4218 56.4499 45.474C56.4499 51.5262 51.5263 56.4498 45.4741 56.4498ZM45.4741 36.4782C40.5109 36.4782 36.4783 40.5108 36.4783 45.474C36.4783 50.4372 40.5175 54.4698 45.4741 54.4698C50.4307 54.4698 54.4699 50.4372 54.4699 45.474C54.4699 40.5108 50.4307 36.4782 45.4741 36.4782ZM45.4741 9.5502C39.4219 9.5502 34.4983 14.4738 34.4983 20.526C34.4983 26.5782 39.4219 31.5018 45.4741 31.5018C51.5263 31.5018 56.4499 26.5782 56.4499 20.526C56.4499 14.4738 51.5263 9.5502 45.4741 9.5502ZM51.3283 18.018L44.7613 24.585C44.5765 24.7698 44.3257 24.8754 44.0617 24.8754C43.7977 24.8754 43.5469 24.7698 43.3621 24.585L39.8113 21.0342C39.4219 20.6448 39.4219 20.0178 39.8113 19.635C40.2007 19.2456 40.8277 19.2456 41.2105 19.635L44.0617 22.4862L49.9291 16.6188C50.3185 16.2294 50.9455 16.2294 51.3283 16.6188C51.7177 17.0082 51.7177 17.6352 51.3283 18.018Z" fill="#E21A1A"/>
</svg>
