<svg width="66" height="66" viewBox="0 0 66 66" fill="none" xmlns="http://www.w3.org/2000/svg">
<path d="M54.7099 44.7092C54.353 42.6398 53.6883 40.1984 52.9112 37.3422L47.4747 17.3653C46.5749 14.059 45.8269 11.3093 44.9354 9.20671C44.8067 8.90295 44.6722 8.6057 44.5303 8.3158C48.485 8.46872 50.894 8.97701 52.5834 10.6663C54.9998 13.0827 54.9998 16.9718 54.9998 24.75V35.75C54.9998 39.5854 54.9998 42.4754 54.7099 44.7092Z" fill="#E21A1A"/>
<path d="M38.7764 7.17151L38.7764 7.17153C39.8973 7.80867 40.71 8.84648 41.4833 10.6706C42.2687 12.5231 42.9569 15.044 43.9074 18.5369L49.2421 38.1397C50.1926 41.6327 50.8766 44.1545 51.1371 46.1451C51.3937 48.1059 51.216 49.4 50.5726 50.4973C49.9277 51.5969 48.8736 52.3993 47.0148 53.1633C45.1307 53.9377 42.5675 54.6161 39.021 55.5516L39.0209 55.5516L31.5552 57.5215C28.0089 58.4571 25.4444 59.1316 23.4191 59.3886C21.4216 59.642 20.0966 59.4669 18.9736 58.8285L18.9735 58.8285C17.8528 58.1914 17.0401 57.1536 16.2667 55.3294C15.4813 53.4769 14.7931 50.9559 13.8425 47.4631L8.50795 27.8603C7.55736 24.3672 6.87335 21.8454 6.61284 19.8549C6.35624 17.8942 6.53388 16.6001 7.17733 15.5027C7.82215 14.4031 8.87628 13.6007 10.7351 12.8367C12.6192 12.0623 15.1824 11.3839 18.7289 10.4482L26.1948 8.47851C29.7411 7.54288 32.3056 6.86844 34.3309 6.61147C36.3284 6.35803 37.6534 6.53312 38.7764 7.17151Z" stroke="#E21A1A" stroke-width="2"/>
</svg>
