<svg width="288" height="366" viewBox="0 0 288 366" fill="none" xmlns="http://www.w3.org/2000/svg">
<g clip-path="url(#clip0_9_88232)">
<path d="M236.126 67.6814H155.011V439.829H236.126V67.6814Z" fill="#49D8F7"/>
<path d="M299.431 67.6814H236.126V439.829H299.431V67.6814Z" fill="#003659"/>
<path d="M299.372 104.943H244.767V439.829H299.372V104.943Z" fill="#C0BDF4"/>
<path d="M278.388 67.6814H249.175V439.829H278.388V67.6814Z" fill="#49D8F7"/>
<path d="M349.804 67.6814H265.457V439.829H349.804V67.6814Z" fill="#003659"/>
<g opacity="0.23">
<path d="M236.126 81.0227H155.011V93.3061H236.126V81.0227Z" fill="#003659"/>
<path d="M349.746 81.0227H249.175V93.3061H349.746V81.0227Z" fill="#003659"/>
<path d="M236.126 104.943H155.011V117.227H236.126V104.943Z" fill="#003659"/>
<path d="M349.746 104.943H249.175V117.227H349.746V104.943Z" fill="#003659"/>
<path d="M236.126 128.864H155.011V141.147H236.126V128.864Z" fill="#003659"/>
<path d="M349.746 128.864H249.175V141.147H349.746V128.864Z" fill="#003659"/>
<path d="M236.126 152.784H155.011V165.068H236.126V152.784Z" fill="#003659"/>
<path d="M349.746 152.784H249.175V165.068H349.746V152.784Z" fill="#003659"/>
<path d="M236.126 176.704H155.011V188.988H236.126V176.704Z" fill="#003659"/>
<path d="M349.746 176.704H249.175V188.988H349.746V176.704Z" fill="#003659"/>
<path d="M236.126 200.625H155.011V212.908H236.126V200.625Z" fill="#003659"/>
<path d="M349.746 200.625H249.175V212.908H349.746V200.625Z" fill="#003659"/>
<path d="M236.126 224.545H155.011V236.828H236.126V224.545Z" fill="#003659"/>
<path d="M349.746 224.545H249.175V236.828H349.746V224.545Z" fill="#003659"/>
<path d="M236.126 248.466H155.011V260.749H236.126V248.466Z" fill="#003659"/>
<path d="M349.746 248.466H249.175V260.749H349.746V248.466Z" fill="#003659"/>
<path d="M236.126 272.386H155.011V284.669H236.126V272.386Z" fill="#003659"/>
<path d="M349.746 272.386H249.175V284.669H349.746V272.386Z" fill="#003659"/>
<path d="M236.126 296.306H155.011V308.59H236.126V296.306Z" fill="#003659"/>
<path d="M349.746 296.306H249.175V308.59H349.746V296.306Z" fill="#003659"/>
<path d="M236.126 320.227H155.011V332.451H236.126V320.227Z" fill="#003659"/>
<path d="M349.746 320.227H249.175V332.451H349.746V320.227Z" fill="#003659"/>
<path d="M236.126 344.147H155.011V356.372H236.126V344.147Z" fill="#003659"/>
<path d="M349.746 344.147H249.175V356.372H349.746V344.147Z" fill="#003659"/>
</g>
<path opacity="0.06" d="M349.745 114.523V241.413L265.457 436.126V309.236L349.745 114.523Z" fill="white"/>
<path opacity="0.06" d="M349.745 338.799V276.852L279.152 439.828H306.014L349.745 338.799Z" fill="white"/>
<g style="mix-blend-mode:multiply" opacity="0.4">
<path d="M349.804 67.6814H299.372H278.388H265.456H249.175H236.126H155.011V81.0227V93.3062V104.943V117.227V128.864V141.147V152.784V165.067V176.704V188.988V200.625V212.908V224.545V236.829V248.465V260.749V272.386V284.669V296.306V308.59V320.227V332.51V344.147V356.43V368.067V380.351V391.988V404.271V415.908V428.192V439.829H349.804V67.6814Z" fill="url(#paint0_linear_9_88232)"/>
</g>
<path d="M-134.121 351.787C-134.003 352.963 -133.885 354.138 -133.768 355.314C-133.356 359.957 -133.004 364.6 -132.651 369.243C-132.592 369.948 -132.592 370.653 -132.534 371.359H-129.477V369.302H-111.55V380.233H-105.201V380.116H-105.554V378.823H-105.201V378.352H-105.554V377.059H-105.201V376.589H-105.554V375.296H-105.201V374.826H-105.554V373.533H-105.201V373.004H-102.733V323.635H-101.44V310.529H-82.219V323.635H-80.9258V393.398H-73.2258V398.041H-69.7579V384.347H-68.406V378.529H-53.8289V378.294H-54.8281L-53.7113 376.707V375.943H-53.1823L-52.5945 375.12H-53.7113V373.945H-52.5357V373.122H-53.7113V371.946H-52.5357V371.123H-53.7113V369.948H-52.5357V367.95H-51.5953V365.834H-49.0678V360.015H-47.1869V352.61L-41.4853 351.258L-40.1922 350.964V338.74H-39.4281V350.788L-37.1357 350.259V360.015H-35.5487V365.834H-34.1968V351.435H-33.1975V322.519H-33.7266V321.108H-32.9036V320.52C-32.9036 320.109 -32.6098 319.756 -32.1983 319.756H-31.7869V316.759C-31.7869 315.995 -31.1991 315.348 -30.4937 315.348H-30.4349V312.704C-30.4349 311.94 -29.9647 311.293 -29.2594 311.117V308.766H-28.3777C-28.1426 307.003 -26.8494 305.651 -25.1449 305.357V302.947C-25.1449 302.771 -25.0861 302.654 -24.9097 302.654V296.482H-24.322V302.654C-24.2044 302.712 -24.0868 302.83 -24.0868 302.947V305.357C-22.441 305.592 -21.1479 307.003 -20.9128 308.766H-20.0311V311.117C-19.3846 311.293 -18.8555 311.94 -18.8555 312.704V315.348H-18.7968C-18.0914 315.348 -17.5036 315.995 -17.5036 316.759V319.756H-17.0334C-16.6219 319.756 -16.328 320.109 -16.328 320.52V321.108H-15.6815V322.519H-16.328V351.435H-15.3876V369.243H-1.86848V378.411H6.47807V394.456H9.24068V393.692H21.1727V389.989H22.8773V385.581H32.3995V381.409H43.2148V349.201H44.5079V348.672H43.2148V346.733H44.5079V346.204H43.156V344.264H44.5079V343.735H43.156V341.796H44.5079V341.267H43.156V339.328H44.5079V338.74H43.156V336.8H44.5079V336.271H43.156V334.332H44.5079V333.803H43.156V291.898H67.7255V331.805H67.6667V333.744H65.9621V334.273H67.6667V336.213H65.9621V336.742H67.6667V338.681H65.9621V339.269H67.7255V341.208H65.9621V341.737H67.7255V343.677H65.9621V344.206H67.7255V346.145H65.9621V346.674H67.7255V348.614H65.9621V349.143H67.843V373.533H76.0721V366.892H86.3584V356.313L88.4744 350.2L88.5331 349.965L94.1171 333.862L101.876 356.313V357.841H102.346V358.546H101.817V359.487H102.287V360.192H101.817V361.132H102.287V361.837H101.817V362.778H102.287V363.483H101.817V364.423H102.287V365.129H101.817V366.069H102.287V366.774H101.817V367.715H102.287V368.42H101.817V369.36H102.287V370.066H101.817V371.006H102.287V371.711H101.817V372.652H102.287V373.357H101.817V374.297H102.287V375.002H101.817V375.943H102.287V376.648H101.817V377.588H102.287V378.294H101.817V379.234H102.287V379.939H101.817V380.88H102.287V381.585H101.817V382.525H102.287V383.231H101.817V384.171H102.287V384.876H101.817V385.817H102.287V386.052H111.222V377.824H124.858V377.53L124.917 376.354V375.355V374.18L124.976 373.181L125.035 372.005V371.006L125.094 369.83V368.831L125.152 367.656L125.211 366.657V365.481V364.482L125.27 363.307V362.308L125.329 361.132V360.133L125.387 358.958V357.958L125.446 356.783V355.784L125.505 354.608V353.609L125.564 352.434L125.681 348.79L131.383 346.733V349.907H133.146L132.97 341.267L142.845 338.622L143.844 352.434L143.961 353.609L144.02 354.608L144.138 355.784L144.197 356.783L144.255 357.958L144.314 358.958L144.373 360.133L144.432 361.132L144.49 362.308L144.549 363.307L144.667 364.482L144.726 365.481L144.784 366.657L144.843 367.656L144.902 368.831L144.961 369.83L145.078 371.006L145.137 372.005L145.255 373.181L145.313 374.18L145.372 375.355L145.431 376.354L145.548 377.53L145.607 378.529L145.666 379.704L145.725 380.703L145.842 381.879L145.901 382.878L146.019 384.053L146.077 385.053L146.136 386.228L146.195 387.227L146.254 388.403L146.313 389.402L146.371 390.577L146.43 391.576L146.489 392.693H156.423V397.806H163.417V386.522H171.176V366.187H175.584V337.506H206.855V441.533H-154.458V351.846L-134.121 351.787Z" fill="#BDE0F4"/>
<path d="M93.2352 383.466H88.8855H72.3099H67.8428V331.217H93.2352V383.466Z" fill="#BDE0F4"/>
<path d="M87.6515 331.217H73.4858V383.466H87.6515V331.217Z" fill="#49AAF7"/>
<path d="M87.6515 331.217H73.4858V333.451H87.6515V331.217Z" fill="#BDE0F4"/>
<path d="M87.6515 335.214H73.4858V337.447H87.6515V335.214Z" fill="#BDE0F4"/>
<path d="M87.6515 339.269H73.4858V341.502H87.6515V339.269Z" fill="#BDE0F4"/>
<path d="M87.6515 343.265H73.4858V345.499H87.6515V343.265Z" fill="#BDE0F4"/>
<path d="M87.6515 347.321H73.4858V349.554H87.6515V347.321Z" fill="#BDE0F4"/>
<path d="M87.6515 351.317H73.4858V353.551H87.6515V351.317Z" fill="#BDE0F4"/>
<path d="M87.6515 355.373H73.4858V357.606H87.6515V355.373Z" fill="#BDE0F4"/>
<path d="M87.6515 359.369H73.4858V361.602H87.6515V359.369Z" fill="#BDE0F4"/>
<path d="M87.6515 363.366H73.4858V365.599H87.6515V363.366Z" fill="#BDE0F4"/>
<path d="M70.6641 331.217H67.8428V333.451H70.6641V331.217Z" fill="#BDE0F4"/>
<path d="M70.6641 335.214H67.8428V337.447H70.6641V335.214Z" fill="#BDE0F4"/>
<path d="M70.6641 339.269H67.8428V341.502H70.6641V339.269Z" fill="#BDE0F4"/>
<path d="M70.6641 343.265H67.8428V345.499H70.6641V343.265Z" fill="#BDE0F4"/>
<path d="M70.6641 347.321H67.8428V349.554H70.6641V347.321Z" fill="#BDE0F4"/>
<path d="M70.6641 351.317H67.8428V353.551H70.6641V351.317Z" fill="#BDE0F4"/>
<path d="M70.6641 355.373H67.8428V357.606H70.6641V355.373Z" fill="#BDE0F4"/>
<path d="M70.6641 359.369H67.8428V361.602H70.6641V359.369Z" fill="#BDE0F4"/>
<path d="M70.6641 363.366H67.8428V365.599H70.6641V363.366Z" fill="#BDE0F4"/>
<path d="M93.2349 331.217H90.4136V333.451H93.2349V331.217Z" fill="#BDE0F4"/>
<path d="M93.2349 335.214H90.4136V337.447H93.2349V335.214Z" fill="#BDE0F4"/>
<path d="M93.2349 339.269H90.4136V341.502H93.2349V339.269Z" fill="#BDE0F4"/>
<path d="M93.2349 343.265H90.4136V345.499H93.2349V343.265Z" fill="#BDE0F4"/>
<path d="M93.2349 347.321H90.4136V349.554H93.2349V347.321Z" fill="#BDE0F4"/>
<path d="M93.2349 351.317H90.4136V353.551H93.2349V351.317Z" fill="#BDE0F4"/>
<path d="M93.2349 355.373H90.4136V357.606H93.2349V355.373Z" fill="#BDE0F4"/>
<path d="M93.2349 359.369H90.4136V361.602H93.2349V359.369Z" fill="#BDE0F4"/>
<path d="M93.2349 363.366H90.4136V365.599H93.2349V363.366Z" fill="#BDE0F4"/>
<path d="M67.8428 331.217H58.2031V383.466H67.8428V331.217Z" fill="#49AAF7"/>
<path d="M64.7862 331.217H60.7305V381.703H64.7862V331.217Z" fill="#49AAF7"/>
<path d="M64.7862 331.217H60.7305V333.451H64.7862V331.217Z" fill="#49AAF7"/>
<path d="M64.7862 335.214H60.7305V337.447H64.7862V335.214Z" fill="#49AAF7"/>
<path d="M64.7862 339.269H60.7305V341.502H64.7862V339.269Z" fill="#49AAF7"/>
<path d="M64.7862 343.265H60.7305V345.499H64.7862V343.265Z" fill="#49AAF7"/>
<path d="M64.7862 347.321H60.7305V349.554H64.7862V347.321Z" fill="#49AAF7"/>
<path d="M64.7862 351.317H60.7305V353.551H64.7862V351.317Z" fill="#49AAF7"/>
<path d="M64.7862 355.373H60.7305V357.606H64.7862V355.373Z" fill="#49AAF7"/>
<path d="M64.7862 359.369H60.7305V361.602H64.7862V359.369Z" fill="#49AAF7"/>
<path d="M64.7862 363.366H60.7305V365.599H64.7862V363.366Z" fill="#49AAF7"/>
<path d="M81.3621 331.217H79.7163V381.703H81.3621V331.217Z" fill="#49AAF7"/>
<path d="M93.294 328.043H58.2031V331.217H93.294V328.043Z" fill="#BDE0F4"/>
<path d="M93.294 327.926H58.2031V328.044H93.294V327.926Z" fill="#BDE0F4"/>
<path d="M67.8428 328.043H58.2031V331.217H67.8428V328.043Z" fill="#BDE0F4"/>
<path d="M67.8428 327.926H58.2031V328.044H67.8428V327.926Z" fill="#BDE0F4"/>
<path d="M58.0855 318.287H40.3931V439.652H58.0855V318.287Z" fill="#BDE0F4"/>
<path d="M40.3932 318.287H15.3535V439.652H40.3932V318.287Z" fill="#BDE0F4"/>
<path d="M58.0267 318.287H40.3931V439.652H58.0267V318.287Z" fill="#BDE0F4"/>
<path d="M40.3932 318.287H15.3535V439.652H40.3932V318.287Z" fill="#003659"/>
<path d="M41.7448 319.874H35.1616V322.108H41.7448V319.874Z" fill="#BDE0F4"/>
<path d="M19.4089 319.874H12.8257V322.107H19.4089V319.874Z" fill="#BDE0F4"/>
<path d="M46.3878 319.874H41.6855V322.108H46.3878V319.874Z" fill="#BDE0F4"/>
<path d="M60.3781 319.874H55.6758V322.108H60.3781V319.874Z" fill="#BDE0F4"/>
<path d="M41.7448 323.753H35.1616V325.987H41.7448V323.753Z" fill="#BDE0F4"/>
<path d="M19.4089 323.753H12.8257V325.986H19.4089V323.753Z" fill="#BDE0F4"/>
<path d="M46.3878 323.753H41.6855V325.987H46.3878V323.753Z" fill="#BDE0F4"/>
<path d="M60.3781 323.753H55.6758V325.987H60.3781V323.753Z" fill="#BDE0F4"/>
<path d="M41.7448 327.632H35.1616V329.866H41.7448V327.632Z" fill="#BDE0F4"/>
<path d="M19.4089 327.632H12.8257V329.866H19.4089V327.632Z" fill="#BDE0F4"/>
<path d="M46.3878 327.632H41.6855V329.866H46.3878V327.632Z" fill="#BDE0F4"/>
<path d="M60.3781 327.632H55.6758V329.866H60.3781V327.632Z" fill="#BDE0F4"/>
<path d="M41.7448 331.511H35.1616V333.744H41.7448V331.511Z" fill="#BDE0F4"/>
<path d="M19.4089 331.511H12.8257V333.744H19.4089V331.511Z" fill="#BDE0F4"/>
<path d="M46.3878 331.511H41.6855V333.744H46.3878V331.511Z" fill="#BDE0F4"/>
<path d="M60.3781 331.511H55.6758V333.744H60.3781V331.511Z" fill="#BDE0F4"/>
<path d="M41.7448 335.39H35.1616V337.623H41.7448V335.39Z" fill="#BDE0F4"/>
<path d="M19.4089 335.39H12.8257V337.623H19.4089V335.39Z" fill="#BDE0F4"/>
<path d="M46.3878 335.39H41.6855V337.623H46.3878V335.39Z" fill="#BDE0F4"/>
<path d="M60.3781 335.39H55.6758V337.623H60.3781V335.39Z" fill="#BDE0F4"/>
<path d="M41.7448 339.21H35.1616V341.444H41.7448V339.21Z" fill="#BDE0F4"/>
<path d="M19.4089 339.21H12.8257V341.444H19.4089V339.21Z" fill="#BDE0F4"/>
<path d="M46.3878 339.21H41.6855V341.444H46.3878V339.21Z" fill="#BDE0F4"/>
<path d="M60.3781 339.21H55.6758V341.444H60.3781V339.21Z" fill="#BDE0F4"/>
<path d="M41.7448 343.089H35.1616V345.322H41.7448V343.089Z" fill="#BDE0F4"/>
<path d="M19.4089 343.089H12.8257V345.322H19.4089V343.089Z" fill="#BDE0F4"/>
<path d="M46.3878 343.089H41.6855V345.322H46.3878V343.089Z" fill="#BDE0F4"/>
<path d="M60.3781 343.089H55.6758V345.322H60.3781V343.089Z" fill="#BDE0F4"/>
<path d="M41.7448 346.968H35.1616V349.201H41.7448V346.968Z" fill="#BDE0F4"/>
<path d="M19.4089 346.968H12.8257V349.201H19.4089V346.968Z" fill="#BDE0F4"/>
<path d="M46.3878 346.968H41.6855V349.201H46.3878V346.968Z" fill="#BDE0F4"/>
<path d="M60.3781 346.968H55.6758V349.201H60.3781V346.968Z" fill="#BDE0F4"/>
<path d="M41.7448 350.847H35.1616V353.081H41.7448V350.847Z" fill="#BDE0F4"/>
<path d="M19.4089 350.847H12.8257V353.081H19.4089V350.847Z" fill="#BDE0F4"/>
<path d="M46.3878 350.847H41.6855V353.081H46.3878V350.847Z" fill="#BDE0F4"/>
<path d="M60.3781 350.847H55.6758V353.081H60.3781V350.847Z" fill="#BDE0F4"/>
<path d="M41.7448 354.667H35.1616V356.901H41.7448V354.667Z" fill="#BDE0F4"/>
<path d="M19.4089 354.667H12.8257V356.901H19.4089V354.667Z" fill="#BDE0F4"/>
<path d="M46.3878 354.667H41.6855V356.901H46.3878V354.667Z" fill="#BDE0F4"/>
<path d="M60.3781 354.667H55.6758V356.901H60.3781V354.667Z" fill="#BDE0F4"/>
<path d="M41.7448 358.546H35.1616V360.78H41.7448V358.546Z" fill="#BDE0F4"/>
<path d="M19.4089 358.546H12.8257V360.78H19.4089V358.546Z" fill="#BDE0F4"/>
<path d="M46.3878 358.546H41.6855V360.78H46.3878V358.546Z" fill="#BDE0F4"/>
<path d="M60.3781 358.546H55.6758V360.78H60.3781V358.546Z" fill="#BDE0F4"/>
<path d="M41.7448 362.426H35.1616V364.659H41.7448V362.426Z" fill="#BDE0F4"/>
<path d="M19.4089 362.425H12.8257V364.659H19.4089V362.425Z" fill="#BDE0F4"/>
<path d="M46.3878 362.426H41.6855V364.659H46.3878V362.426Z" fill="#BDE0F4"/>
<path d="M60.3781 362.426H55.6758V364.659H60.3781V362.426Z" fill="#BDE0F4"/>
<path d="M31.8702 318.287H22.0542V437.713H31.8702V318.287Z" fill="#003659"/>
<path d="M53.9709 318.287H47.8579V438.124H53.9709V318.287Z" fill="#003659"/>
<path d="M387.363 346.733H251.702V439.652H387.363V346.733Z" fill="white"/>
<path d="M393.477 359.192H245.531V428.309H393.477V359.192Z" fill="#49D8F7"/>
<path d="M246.824 359.192H245.531V428.309H246.824V359.192Z" fill="white"/>
<path d="M255.993 359.192H254.7V428.309H255.993V359.192Z" fill="white"/>
<path d="M265.222 359.192H263.929V428.309H265.222V359.192Z" fill="white"/>
<path d="M274.449 359.192H273.156V428.309H274.449V359.192Z" fill="white"/>
<path d="M283.619 359.192H282.326V428.309H283.619V359.192Z" fill="white"/>
<g style="mix-blend-mode:overlay" opacity="0.61">
<path d="M265.456 67.6814C265.456 67.6814 261.048 145.79 208.794 174.588C168.354 196.804 155.129 264.51 155.129 264.51L155.011 67.6814H265.456Z" fill="#FEEDC5"/>
</g>
<path d="M406.701 425.841H245.119C245.119 388.403 269.453 358.076 299.43 358.076C303.486 358.076 307.483 358.664 311.303 359.722C315.594 355.549 320.297 352.082 325.352 349.554C331.935 346.204 339.047 344.382 346.512 344.382C379.722 344.324 406.701 380.821 406.701 425.841Z" fill="#3D213D"/>
<path d="M406.701 425.841H245.119C245.119 388.403 269.453 358.076 299.43 358.076C303.486 358.076 307.483 358.664 311.303 359.722C315.594 355.549 320.297 352.082 325.352 349.554C331.935 346.204 339.047 344.382 346.512 344.382C379.722 344.324 406.701 380.821 406.701 425.841Z" fill="url(#paint1_linear_9_88232)"/>
<path opacity="0.43" d="M325.293 349.554L288.557 425.899H245.061C245.061 388.461 269.395 358.135 299.372 358.135C303.428 358.135 307.425 358.722 311.245 359.78C315.595 355.49 320.297 352.081 325.293 349.554Z" fill="#FEEDC5"/>
<path d="M82.3612 417.848C100.93 417.848 115.983 403.665 115.983 386.17C115.983 368.674 100.93 354.491 82.3612 354.491C63.7926 354.491 48.7397 368.674 48.7397 386.17C48.7397 403.665 63.7926 417.848 82.3612 417.848Z" fill="#888A17"/>
<path d="M83.5956 417.848C101.482 417.848 115.983 404.033 115.983 386.992C115.983 369.951 101.482 356.137 83.5956 356.137C65.7087 356.137 51.2085 369.951 51.2085 386.992C51.2085 404.033 65.7087 417.848 83.5956 417.848Z" fill="#3D213D"/>
<path d="M83.5956 417.848C101.482 417.848 115.983 404.033 115.983 386.992C115.983 369.951 101.482 356.137 83.5956 356.137C65.7087 356.137 51.2085 369.951 51.2085 386.992C51.2085 404.033 65.7087 417.848 83.5956 417.848Z" fill="url(#paint2_linear_9_88232)"/>
<path d="M48.74 376.883C48.74 386.875 46.5651 396.278 42.627 404.8H-154.458V348.672C-146.993 342.149 -138.118 337.271 -128.301 334.567C-123.07 331.217 -117.251 328.749 -111.021 327.279C-101.146 311.058 -83.277 300.244 -62.8808 300.244C-50.4785 300.244 -39.0754 304.24 -29.7296 311.058C-25.9678 310.412 -22.0884 310.059 -18.0914 310.059C-12.3311 310.059 -6.74715 310.764 -1.39828 312.175C27.4621 319.58 48.74 345.734 48.74 376.883Z" fill="url(#paint3_linear_9_88232)"/>
<path d="M190.573 421.492C213.621 421.492 232.306 403.888 232.306 382.173C232.306 360.458 213.621 342.854 190.573 342.854C167.524 342.854 148.84 360.458 148.84 382.173C148.84 403.888 167.524 421.492 190.573 421.492Z" fill="#3A95A8"/>
<path d="M192.101 421.492C214.305 421.492 232.306 404.362 232.306 383.231C232.306 362.1 214.305 344.97 192.101 344.97C169.897 344.97 151.896 362.1 151.896 383.231C151.896 404.362 169.897 421.492 192.101 421.492Z" fill="#3A95A8"/>
<path d="M216.083 363.718C216.083 394.28 189.809 419.023 157.363 419.023C142.316 419.023 128.62 413.675 118.216 404.918C106.226 394.809 98.6431 380.057 98.6431 363.718C98.6431 333.157 124.917 308.413 157.363 308.413C173.762 308.413 188.516 314.702 199.213 324.928C209.617 334.861 216.083 348.555 216.083 363.718Z" fill="#AEB11B"/>
<path d="M216.083 363.718C216.083 394.28 189.809 419.023 157.363 419.023C142.316 419.023 128.62 413.675 118.216 404.918C106.226 394.809 98.6431 380.057 98.6431 363.718C98.6431 333.157 124.917 308.413 157.363 308.413C173.762 308.413 188.516 314.702 199.213 324.928C209.617 334.861 216.083 348.555 216.083 363.718Z" fill="url(#paint4_linear_9_88232)"/>
<path d="M180.932 351.67H178.581V453.17H180.932V351.67Z" fill="#FFFFFB"/>
<path d="M190.916 348.404L180.068 359.251L180.484 359.666L191.332 348.82L190.916 348.404Z" fill="#FFFFFB"/>
<path d="M199.388 342.384L198.095 342.031C197.272 341.855 196.156 342.09 195.509 342.619L189.278 348.026C188.691 348.555 188.808 349.142 189.631 349.378L190.924 349.73C191.747 349.907 192.864 349.671 193.511 349.142L199.741 343.735C200.388 343.206 200.211 342.619 199.388 342.384Z" fill="#49AAF7"/>
<path d="M-190.597 325.906L244.836 215.002C244.836 215.002 244.483 214.003 243.837 212.475C242.308 208.655 239.311 201.367 237.195 197.665C234.256 192.551 232.845 191.082 232.845 191.082L222.206 188.849L179.298 201.779L-187.07 312.153L-190.597 325.906Z" fill="#889EA3"/>
<path d="M219.973 193.374L-187.422 313.564L-191.419 326.141L225.028 217.647L219.973 193.374Z" fill="#E21A1A"/>
<path d="M145.782 214.698L165.087 233.276L134.681 241.098L117.788 222.52L145.782 214.698Z" fill="#A1C5CD"/>
<path d="M77.0102 235.598L97.4385 254.949L65.264 263.097L47.3892 243.746L77.0102 235.598Z" fill="#A1C5CD"/>
<path d="M12.6496 254.298L28.1392 269.005L3.74309 275.197L-9.81028 260.49L12.6496 254.298Z" fill="#A1C5CD"/>
<path d="M102.121 229.989L105.413 228.99V234.103L102.121 235.103V229.989Z" fill="#E6E6E6"/>
<path d="M6.07731 258.2L12.543 256.32C12.4254 257.848 12.2491 259.376 11.9552 260.845L5.72462 262.608C5.72462 261.139 5.8422 259.67 6.07731 258.2Z" fill="#E6E6E6"/>
<path d="M14.2475 255.791L19.7139 254.204C19.7139 255.732 19.6551 257.201 19.5375 258.729L13.7772 260.375C14.0123 258.847 14.1887 257.319 14.2475 255.791Z" fill="#E6E6E6"/>
<path d="M21.4187 253.674L49.5737 245.388V250.089L21.2424 258.2C21.3599 256.672 21.4187 255.203 21.4187 253.674Z" fill="#E6E6E6"/>
<path d="M58.0377 242.919L70.7339 239.217V244.036L58.0377 247.68V242.919Z" fill="#E6E6E6"/>
<path d="M75.9648 237.63L93.6572 232.458V237.512L75.9648 242.567V237.63Z" fill="#E6E6E6"/>
<path d="M107.118 228.52L112.349 226.992V232.164L107.118 233.633V228.52Z" fill="#E6E6E6"/>
<path d="M117.933 230.577V225.346L136.977 219.763V225.17L129.101 227.403V225.699C129.101 224.582 127.396 224.582 127.396 225.699V227.874L117.933 230.577Z" fill="#E6E6E6"/>
<path d="M179.297 201.779L226.614 211.77L243.836 212.475C242.308 208.655 239.31 201.367 237.194 197.665C234.256 192.551 232.845 191.082 232.845 191.082L222.206 188.849L179.297 201.779Z" fill="#FBD5A2"/>
<path d="M222.206 188.849C222.206 188.849 226.438 203.718 227.496 205.129C228.025 205.834 231.728 206.657 235.196 207.244C238.547 207.832 241.721 208.302 241.721 208.302C241.721 208.302 238.723 197.958 232.845 191.082L227.966 190.083L222.206 188.849Z" fill="#3D213D"/>
<path d="M240.436 204.248L241.811 208.373L235.211 207.273L232.736 203.698L240.436 204.248Z" fill="#89CFE1"/>
<path d="M48.4561 241.215L47.2805 268.133L41.1675 269.602L43.5774 242.684L48.4561 241.215Z" fill="#3D213D"/>
<path d="M243.338 211.334L232.58 209.92L227.888 206.798L225.674 193.249L182.556 210.156L182.955 219.759L179.457 220.23L178.749 208.212L176.536 209.096L177.775 226.946L96.0099 256.107L95.7886 263.647L243.736 212.63L243.338 211.334Z" fill="#ED6F01"/>
<path d="M180.121 206.998L161.787 212.495L163.802 231.198L225.586 215.11L180.121 206.998Z" fill="#E21A1A"/>
<path d="M197.515 197.648L220.637 219.709L197.515 224.598L177.283 202.537L197.515 197.648Z" fill="#A1C5CD"/>
<path d="M218.68 195.431L221.148 206.892L192.406 203.248L218.68 195.431Z" fill="#FBD5A2"/>
<path d="M222.206 188.849C222.206 188.849 226.438 203.718 227.496 205.129C228.025 205.834 231.728 206.657 235.196 207.244L222.206 188.849Z" fill="#E21A1A"/>
<path d="M234.111 192.699L223.936 191.599L222.561 188.849L233.011 191.049L234.111 192.699Z" fill="#607785"/>
<path d="M25.6505 250.325L3.43216 257.025V270.307L4.43137 269.72V257.554L25.7681 250.854L25.6505 250.325Z" fill="#E6E6E6"/>
<path d="M136.977 217.882V218.764L116.169 224.7L116.463 235.397H115.876L115.699 224.112L136.977 217.882Z" fill="#E6E6E6"/>
<path d="M189.837 204.248V205.13L169.029 211.066L169.323 221.762H168.735L168.559 210.478L189.837 204.248Z" fill="#E6E6E6"/>
<path d="M84.3701 233.398V233.927L74.9068 236.807V244.859L74.4953 245.388V236.278L84.3701 233.398Z" fill="#E6E6E6"/>
<path d="M172.443 216.713V211.482L191.487 205.898V211.306L183.61 213.539V211.834C183.61 210.718 181.906 210.718 181.906 211.834V214.009L172.443 216.713Z" fill="#E6E6E6"/>
<path d="M155.959 216.046L159.251 215.047V220.16L155.959 221.159V216.046Z" fill="#E6E6E6"/>
<path d="M160.956 214.576L166.187 213.048V218.22L160.956 219.69V214.576Z" fill="#E6E6E6"/>
<g style="mix-blend-mode:screen" opacity="0.61">
<path d="M213.714 191.599L221.767 218.987L39.9641 243.965L213.714 191.599Z" fill="#FEEDC5"/>
</g>
<path d="M980.175 58.5005L-454.204 397.336V404.095L1257.92 98.6499V62.9004L980.175 58.5005Z" fill="#003659"/>
<path opacity="0.24" d="M26.9589 316.642L-68.0275 307.121L58.9345 276.853L139.05 296.306L26.9589 316.642Z" fill="#FEEDC5"/>
<path d="M980.175 61.2504L-454.204 397.336V394.104L911.426 42.0007L980.175 61.2504Z" fill="#5566C5"/>
<path d="M388.658 182.524L-454.204 395.338V395.867L390.583 186.924L388.658 182.524Z" fill="#3D213D"/>
<path d="M187.836 289.371V301.654L180.312 305.592L168.733 296.012L161.268 290.782V278.498L187.836 289.371Z" fill="#BDD0F4"/>
<path d="M168.733 283.67H197.064V439.652H168.733V283.67Z" fill="#BDD0F4"/>
<path d="M212.251 439.634H197.086L197.086 285.768H212.251L212.251 439.634Z" fill="#3A95A8"/>
<path d="M218.812 284.023V296.306L211.23 300.244L199.768 295.542L192.245 285.433V273.209L218.812 284.023Z" fill="#5566C5"/>
<path d="M161.268 278.498L192.244 273.209V285.433L161.268 290.782V278.498Z" fill="#BDD0F4"/>
<path d="M205.529 278.616L212.229 301.537V299.715L218.812 296.306V284.023L205.529 278.616Z" fill="#003659"/>
<path d="M197.064 291.898L168.733 296.013L161.268 290.782L192.244 285.433L197.064 291.898Z" fill="#3D91D4"/>
<path opacity="0.61" d="M156.801 235.829L157.859 240.179L412.033 177.024L403.508 171.799L156.801 235.829Z" fill="#FEEDC5"/>
<path opacity="0.61" d="M168.733 241.53L170.849 251.052L373.259 203.857L394.158 186.099L168.733 241.53Z" fill="#FEEDC5"/>
<path d="M277.835 379.981C277.835 418.434 310.893 449.566 351.717 449.566C370.649 449.566 387.881 442.837 400.971 431.819C416.058 419.1 425.598 400.539 425.598 379.981C425.598 341.529 392.54 310.397 351.717 310.397C331.083 310.397 312.52 318.309 299.06 331.176C285.97 343.673 277.835 360.903 277.835 379.981Z" fill="#AEB11B"/>
<path d="M277.835 379.981C277.835 418.434 310.893 449.566 351.717 449.566C370.649 449.566 387.881 442.837 400.971 431.819C416.058 419.1 425.598 400.539 425.598 379.981C425.598 341.529 392.54 310.397 351.717 310.397C331.083 310.397 312.52 318.309 299.06 331.176C285.97 343.673 277.835 360.903 277.835 379.981Z" fill="url(#paint5_linear_9_88232)"/>
</g>
<defs>
<linearGradient id="paint0_linear_9_88232" x1="252.411" y1="88.1976" x2="252.411" y2="478.482" gradientUnits="userSpaceOnUse">
<stop stop-color="white"/>
<stop offset="1"/>
</linearGradient>
<linearGradient id="paint1_linear_9_88232" x1="348.182" y1="413.844" x2="238.994" y2="347.104" gradientUnits="userSpaceOnUse">
<stop stop-color="#4DB0A5"/>
<stop offset="1" stop-color="#EFCE3D"/>
</linearGradient>
<linearGradient id="paint2_linear_9_88232" x1="92.5238" y1="408.759" x2="38.0939" y2="391.154" gradientUnits="userSpaceOnUse">
<stop stop-color="#4DB0A5"/>
<stop offset="1" stop-color="#EFCE3D"/>
</linearGradient>
<linearGradient id="paint3_linear_9_88232" x1="-24.851" y1="389.402" x2="-163.674" y2="306.265" gradientUnits="userSpaceOnUse">
<stop stop-color="#4DB0A5"/>
<stop offset="1" stop-color="#EFCE3D"/>
</linearGradient>
<linearGradient id="paint4_linear_9_88232" x1="173.55" y1="402.733" x2="75.0819" y2="370.517" gradientUnits="userSpaceOnUse">
<stop stop-color="#4DB0A5"/>
<stop offset="1" stop-color="#EFCE3D"/>
</linearGradient>
<linearGradient id="paint5_linear_9_88232" x1="331.349" y1="429.07" x2="455.243" y2="388.535" gradientUnits="userSpaceOnUse">
<stop stop-color="#4DB0A5"/>
<stop offset="1" stop-color="#EFCE3D"/>
</linearGradient>
<clipPath id="clip0_9_88232">
<rect width="1925.07" height="548" fill="white" transform="translate(-716.037)"/>
</clipPath>
</defs>
</svg>
