<svg width="66" height="66" viewBox="0 0 66 66" fill="none" xmlns="http://www.w3.org/2000/svg">
<path d="M44.55 20.79C49.6452 20.79 53.79 16.6452 53.79 11.55C53.79 6.4548 49.6452 2.31 44.55 2.31H21.45C16.3548 2.31 12.21 6.4548 12.21 11.55C12.21 16.6452 16.3548 20.79 21.45 20.79H34.0428V24.8622C33.6534 24.6972 33.2244 24.6048 32.7756 24.6048C31.4028 24.6048 30.2346 25.4628 29.7594 26.6706C29.3106 26.433 28.809 26.2878 28.2612 26.2878C26.565 26.2878 25.1856 27.6012 25.0404 29.2578C24.6444 29.0862 24.2088 28.9872 23.7468 28.9872C21.9582 28.9872 20.4996 30.4458 20.4996 32.2344V43.5732C20.4996 46.101 21.2652 48.543 22.704 50.622L24.7104 53.5062V62.2908C24.7104 62.8386 25.1526 63.2808 25.7004 63.2808H39.5274C40.0752 63.2808 40.5174 62.8386 40.5174 62.2908V54.1926L43.0716 50.7276C44.6424 48.5892 45.4806 46.0548 45.4806 43.4016V31.4292C45.4806 29.5086 43.923 27.951 42.0024 27.951C41.4678 27.951 40.9728 28.083 40.5174 28.2942V20.79H44.5368H44.55ZM38.5506 31.2906C38.5506 31.3368 38.5374 31.3764 38.5374 31.4226V38.2404C38.5374 38.7882 38.9796 39.2304 39.5274 39.2304C40.0752 39.2304 40.5174 38.7882 40.5174 38.2404V31.4226C40.5174 30.5976 41.1906 29.9244 42.0156 29.9244C42.8406 29.9244 43.5138 30.5976 43.5138 31.4226V43.395C43.5138 45.6258 42.8142 47.751 41.4942 49.5462L38.7486 53.2752C38.6232 53.4468 38.5572 53.6514 38.5572 53.8626V61.2942H26.7102V53.1894C26.7102 52.9848 26.6508 52.7934 26.532 52.6218L24.3474 49.4802C23.133 47.7378 22.4928 45.6918 22.4928 43.5666V32.2278C22.4928 31.5282 23.0604 30.9606 23.76 30.9606C24.4596 30.9606 25.0272 31.5282 25.0272 32.2278V35.3166C25.0272 35.8644 25.4694 36.3066 26.0172 36.3066C26.565 36.3066 27.0072 35.8644 27.0072 35.3166V29.5284C27.0072 28.8288 27.5748 28.2612 28.2744 28.2612C28.974 28.2612 29.5416 28.8288 29.5416 29.5284V35.3166C29.5416 35.6994 29.7594 36.0294 30.0828 36.1944L30.5844 36.3C31.1058 36.2736 31.5216 35.8446 31.5216 35.3166V27.8454C31.5216 27.1458 32.0892 26.5782 32.7888 26.5782C33.4884 26.5782 34.056 27.1458 34.056 27.8454V30.9804C34.056 31.0728 34.0758 31.1652 34.1022 31.251L34.056 31.2642V35.31C34.056 35.8578 34.4982 36.3 35.046 36.3C35.5938 36.3 36.036 35.8578 36.036 35.31V14.7048C36.036 14.0052 36.6036 13.4376 37.3032 13.4376C38.0028 13.4376 38.5704 14.0052 38.5704 14.7048V31.2906H38.5506ZM33.1056 11.55C33.1056 9.1212 35.0724 7.161 37.4946 7.161C39.9168 7.161 41.8836 9.1278 41.8836 11.55C41.8836 12.7974 41.3622 13.9194 40.524 14.7246V14.7114C40.524 12.9228 39.0654 11.4642 37.2768 11.4642C35.6268 11.4642 34.2738 12.7116 34.0692 14.3088C33.462 13.5564 33.0924 12.5994 33.0924 11.55H33.1056Z" fill="#E21A1A"/>
</svg>
