<svg width="1223" height="655" viewBox="0 0 1223 655" fill="none" xmlns="http://www.w3.org/2000/svg">
<g filter="url(#filter0_i_9_71838)">
<g clip-path="url(#clip0_9_71838)">
<g clip-path="url(#clip1_9_71838)">
<rect width="3500" height="864" transform="translate(-781 -9)" fill="white"/>
<g clip-path="url(#clip2_9_71838)">
<path d="M2754 -55.4221H-821V965.578H2754V-55.4221Z" fill="url(#paint0_linear_9_71838)"/>
<path d="M1163.48 59.8066H997.997V819.044H1163.48V59.8066Z" fill="#49D8F7"/>
<path d="M1292.63 59.8066H1163.48V819.044H1292.63V59.8066Z" fill="#003659"/>
<path d="M1292.51 135.826H1181.11V819.044H1292.51V135.826Z" fill="#C0BDF4"/>
<path d="M1249.7 59.8066H1190.11V819.044H1249.7V59.8066Z" fill="#49D8F7"/>
<g opacity="0.23">
<path d="M1163.48 87.0249H997.997V112.085H1163.48V87.0249Z" fill="#003659"/>
<path d="M1395.28 87.0249H1190.11V112.085H1395.28V87.0249Z" fill="#003659"/>
<path d="M1163.48 135.826H997.997V160.887H1163.48V135.826Z" fill="#003659"/>
<path d="M1395.28 135.826H1190.11V160.887H1395.28V135.826Z" fill="#003659"/>
<path d="M1163.48 184.628H997.997V209.688H1163.48V184.628Z" fill="#003659"/>
<path d="M1395.28 184.628H1190.11V209.688H1395.28V184.628Z" fill="#003659"/>
<path d="M1163.48 233.429H997.997V258.489H1163.48V233.429Z" fill="#003659"/>
<path d="M1395.28 233.429H1190.11V258.489H1395.28V233.429Z" fill="#003659"/>
<path d="M1163.48 282.23H997.997V307.29H1163.48V282.23Z" fill="#003659"/>
<path d="M1395.28 282.23H1190.11V307.29H1395.28V282.23Z" fill="#003659"/>
<path d="M1163.48 331.031H997.997V356.092H1163.48V331.031Z" fill="#003659"/>
<path d="M1395.28 331.031H1190.11V356.092H1395.28V331.031Z" fill="#003659"/>
<path d="M1163.48 379.833H997.997V404.893H1163.48V379.833Z" fill="#003659"/>
<path d="M1395.28 379.833H1190.11V404.893H1395.28V379.833Z" fill="#003659"/>
<path d="M1163.48 428.634H997.997V453.694H1163.48V428.634Z" fill="#003659"/>
<path d="M1395.28 428.634H1190.11V453.694H1395.28V428.634Z" fill="#003659"/>
<path d="M1163.48 477.435H997.997V502.495H1163.48V477.435Z" fill="#003659"/>
<path d="M1395.28 477.435H1190.11V502.495H1395.28V477.435Z" fill="#003659"/>
<path d="M1163.48 526.237H997.997V551.297H1163.48V526.237Z" fill="#003659"/>
<path d="M1395.28 526.237H1190.11V551.297H1395.28V526.237Z" fill="#003659"/>
<path d="M1163.48 575.038H997.997V599.978H1163.48V575.038Z" fill="#003659"/>
<path d="M1395.28 575.038H1190.11V599.978H1395.28V575.038Z" fill="#003659"/>
<path d="M1163.48 623.839H997.997V648.779H1163.48V623.839Z" fill="#003659"/>
<path d="M1395.28 623.839H1190.11V648.779H1395.28V623.839Z" fill="#003659"/>
</g>
<g style="mix-blend-mode:multiply" opacity="0.4">
<path d="M1395.4 59.8066H1292.51H1249.7H1223.32H1190.11H1163.48H997.997V87.0251V112.085V135.826V160.886V184.628V209.688V233.429V258.489V282.23V307.29V331.031V356.092V379.833V404.893V428.634V453.694V477.435V502.495V526.237V551.297V575.038V600.098V623.839V648.899V672.64V697.701V721.442V746.502V770.243V795.303V819.044H1395.4V59.8066Z" fill="url(#paint1_linear_9_71838)"/>
</g>
<path d="M-113.253 244.127H12.0579V819.044H-113.253V244.127Z" fill="#49D8F7"/>
<g opacity="0.23">
<path d="M-113.253 264.738H12.0579V283.714H-113.253V264.738Z" fill="#003659"/>
<path d="M-113.253 301.692H12.0579V320.668H-113.253V301.692Z" fill="#003659"/>
<path d="M-113.253 338.645H12.0579V357.622H-113.253V338.645Z" fill="#003659"/>
<path d="M-113.253 375.599H12.0579V394.575H-113.253V375.599Z" fill="#003659"/>
<path d="M-113.253 412.553H12.0579V431.529H-113.253V412.553Z" fill="#003659"/>
<path d="M-113.253 449.507H12.0579V468.483H-113.253V449.507Z" fill="#003659"/>
<path d="M-113.253 486.461H12.0579V505.437H-113.253V486.461Z" fill="#003659"/>
<path d="M-113.253 523.414H12.0579V542.39H-113.253V523.414Z" fill="#003659"/>
<path d="M-113.253 560.368H12.0579V579.344H-113.253V560.368Z" fill="#003659"/>
<path d="M-113.253 597.322H12.0579V616.298H-113.253V597.322Z" fill="#003659"/>
<path d="M-113.253 634.275H12.0579V653.161H-113.253V634.275Z" fill="#003659"/>
</g>
<g style="mix-blend-mode:multiply" opacity="0.4">
<path d="M-288.87 244.127H-210.959H-178.542H-158.565H-133.412H-113.253H12.0579V264.738V283.714V301.692V320.668V338.645V357.622V375.599V394.575V412.553V431.529V449.507V468.483V486.46V505.437V523.414V542.39V560.368V579.344V597.322V616.298V634.275V653.252V671.229V690.205V708.183V727.159V745.137V764.113V782.09V801.067V819.044H-288.87V244.127Z" fill="url(#paint2_linear_9_71838)"/>
</g>
<path d="M408.123 639.426C408.363 641.825 408.603 644.223 408.842 646.621C409.682 656.093 410.401 665.566 411.121 675.038C411.241 676.477 411.241 677.916 411.361 679.355H417.596V675.158H454.171V697.46H467.122V697.221H466.403V694.583H467.122V693.623H466.403V690.986H467.122V690.026H466.403V687.388H467.122V686.429H466.403V683.791H467.122V682.712H472.159V581.992H474.797V555.253H514.01V581.992H516.648V724.319H532.357V733.792H539.433V705.854H542.191V693.983H571.93V693.504H569.892L572.17 690.266V688.707H573.249L574.449 687.029H572.17V684.631H574.568V682.952H572.17V680.554H574.568V678.875H572.17V676.477H574.568V672.4H576.487V668.084H581.644V656.213H585.481V641.105L597.113 638.347L599.751 637.748V612.808H601.31V637.388L605.987 636.309V656.213H609.225V668.084H611.983V638.707H614.021V579.714H612.942V576.836H614.621V575.637C614.621 574.798 615.221 574.078 616.06 574.078H616.899V567.963C616.899 566.404 618.099 565.085 619.538 565.085H619.658V559.69C619.658 558.131 620.617 556.812 622.056 556.452V551.656H623.855C624.334 548.059 626.972 545.301 630.45 544.702V539.786C630.45 539.426 630.57 539.186 630.93 539.186V526.596H632.129V539.186C632.369 539.306 632.609 539.546 632.609 539.786V544.702C635.966 545.181 638.604 548.059 639.084 551.656H640.883V556.452C642.202 556.812 643.281 558.131 643.281 559.69V565.085H643.401C644.84 565.085 646.039 566.404 646.039 567.963V574.078H646.999C647.838 574.078 648.438 574.798 648.438 575.637V576.836H649.757V579.714H648.438V638.707H650.356V675.038H677.937V693.743H694.966V726.477H700.602V724.919H724.945V717.365H728.423V708.372H747.849V699.859H769.914V634.151H772.552V633.072H769.914V629.115H772.552V628.035H769.794V624.079H772.552V622.999H769.794V619.043H772.552V617.963H769.794V614.007H772.552V612.808H769.794V608.851H772.552V607.772H769.794V603.815H772.552V602.736H769.794V517.243H819.92V598.659H819.8V602.616H816.322V603.695H819.8V607.652H816.322V608.731H819.8V612.688H816.322V613.887H819.92V617.844H816.322V618.923H819.92V622.88H816.322V623.959H819.92V627.916H816.322V628.995H819.92V632.952H816.322V634.031H820.16V683.791H836.948V670.242H857.934V648.659L862.251 636.189L862.371 635.709L873.763 602.855L889.592 648.659V651.777H890.551V653.216H889.472V655.134H890.431V656.573H889.472V658.491H890.431V659.93H889.472V661.849H890.431V663.288H889.472V665.206H890.431V666.645H889.472V668.563H890.431V670.002H889.472V671.921H890.431V673.36H889.472V675.278H890.431V676.717H889.472V678.635H890.431V680.074H889.472V681.993H890.431V683.432H889.472V685.35H890.431V686.789H889.472V688.707H890.431V690.146H889.472V692.065H890.431V693.504H889.472V695.422H890.431V696.861H889.472V698.779H890.431V700.218H889.472V702.137H890.431V703.576H889.472V705.494H890.431V706.933H889.472V708.851H890.431V709.331H908.659V692.544H936.48V691.945L936.6 689.547V687.508V685.11L936.72 683.072L936.84 680.674V678.635L936.959 676.237V674.199L937.079 671.801L937.199 669.762V667.364V665.326L937.319 662.928V660.889L937.439 658.491V656.453L937.559 654.055V652.016L937.679 649.618V647.58L937.799 645.182V643.143L937.919 640.745L938.159 633.311L949.791 629.115V635.589H953.388L953.028 617.963L973.175 612.568L975.213 640.745L975.453 643.143L975.573 645.182L975.813 647.58L975.933 649.618L976.053 652.016L976.173 654.055L976.292 656.453L976.412 658.491L976.532 660.889L976.652 662.928L976.892 665.326L977.012 667.364L977.132 669.762L977.252 671.801L977.372 674.199L977.492 676.237L977.732 678.635L977.851 680.674L978.091 683.072L978.211 685.11L978.331 687.508L978.451 689.547L978.691 691.945L978.811 693.983L978.931 696.381L979.051 698.42L979.29 700.818L979.41 702.856L979.65 705.254L979.77 707.293L979.89 709.691L980.01 711.729L980.13 714.127L980.25 716.166L980.37 718.564L980.49 720.602L980.609 722.88H1000.88V733.312H1015.15V710.29H1030.97V668.803H1039.97V610.29H1103.76V822.521H366.631V639.546L408.123 639.426Z" fill="#BDE0F4"/>
<path d="M871.964 704.056H863.09H829.273H820.159V597.46H871.964V704.056Z" fill="#BDE0F4"/>
<path d="M860.572 597.46H831.671V704.056H860.572V597.46Z" fill="#49AAF7"/>
<path d="M860.572 597.46H831.671V602.016H860.572V597.46Z" fill="#BDE0F4"/>
<path d="M860.572 605.614H831.671V610.17H860.572V605.614Z" fill="#BDE0F4"/>
<path d="M860.572 613.887H831.671V618.443H860.572V613.887Z" fill="#BDE0F4"/>
<path d="M860.572 622.041H831.671V626.597H860.572V622.041Z" fill="#BDE0F4"/>
<path d="M860.572 630.314H831.671V634.871H860.572V630.314Z" fill="#BDE0F4"/>
<path d="M860.572 638.468H831.671V643.024H860.572V638.468Z" fill="#BDE0F4"/>
<path d="M860.572 646.741H831.671V651.297H860.572V646.741Z" fill="#BDE0F4"/>
<path d="M860.572 654.894H831.671V659.451H860.572V654.894Z" fill="#BDE0F4"/>
<path d="M825.915 597.46H820.159V602.016H825.915V597.46Z" fill="#BDE0F4"/>
<path d="M825.915 605.614H820.159V610.17H825.915V605.614Z" fill="#BDE0F4"/>
<path d="M825.915 613.887H820.159V618.443H825.915V613.887Z" fill="#BDE0F4"/>
<path d="M825.915 622.041H820.159V626.597H825.915V622.041Z" fill="#BDE0F4"/>
<path d="M825.915 630.314H820.159V634.871H825.915V630.314Z" fill="#BDE0F4"/>
<path d="M825.915 638.468H820.159V643.024H825.915V638.468Z" fill="#BDE0F4"/>
<path d="M825.915 646.741H820.159V651.297H825.915V646.741Z" fill="#BDE0F4"/>
<path d="M825.915 654.894H820.159V659.451H825.915V654.894Z" fill="#BDE0F4"/>
<path d="M871.964 597.46H866.208V602.016H871.964V597.46Z" fill="#BDE0F4"/>
<path d="M871.964 605.614H866.208V610.17H871.964V605.614Z" fill="#BDE0F4"/>
<path d="M871.964 613.887H866.208V618.443H871.964V613.887Z" fill="#BDE0F4"/>
<path d="M871.964 622.041H866.208V626.597H871.964V622.041Z" fill="#BDE0F4"/>
<path d="M871.964 630.314H866.208V634.871H871.964V630.314Z" fill="#BDE0F4"/>
<path d="M871.964 638.468H866.208V643.024H871.964V638.468Z" fill="#BDE0F4"/>
<path d="M871.964 646.741H866.208V651.297H871.964V646.741Z" fill="#BDE0F4"/>
<path d="M871.964 654.894H866.208V659.451H871.964V654.894Z" fill="#BDE0F4"/>
<path d="M820.159 597.46H800.493V704.055H820.159V597.46Z" fill="#49AAF7"/>
<path d="M813.923 597.46H805.649V700.458H813.923V597.46Z" fill="#49AAF7"/>
<path d="M813.923 597.46H805.649V602.016H813.923V597.46Z" fill="#49AAF7"/>
<path d="M813.923 605.614H805.649V610.17H813.923V605.614Z" fill="#49AAF7"/>
<path d="M813.923 613.887H805.649V618.443H813.923V613.887Z" fill="#49AAF7"/>
<path d="M813.923 622.041H805.649V626.597H813.923V622.041Z" fill="#49AAF7"/>
<path d="M813.923 630.314H805.649V634.871H813.923V630.314Z" fill="#49AAF7"/>
<path d="M813.923 638.468H805.649V643.024H813.923V638.468Z" fill="#49AAF7"/>
<path d="M813.923 646.741H805.649V651.297H813.923V646.741Z" fill="#49AAF7"/>
<path d="M813.923 654.894H805.649V659.451H813.923V654.894Z" fill="#49AAF7"/>
<path d="M847.741 597.46H844.383V700.458H847.741V597.46Z" fill="#49AAF7"/>
<path d="M872.084 590.985H800.493V597.46H872.084V590.985Z" fill="#BDE0F4"/>
<path d="M872.084 590.745H800.493V590.985H872.084V590.745Z" fill="#BDE0F4"/>
<path d="M820.159 590.985H800.493V597.46H820.159V590.985Z" fill="#BDE0F4"/>
<path d="M820.159 590.745H800.493V590.985H820.159V590.745Z" fill="#BDE0F4"/>
<path d="M800.253 571.081H764.158V818.684H800.253V571.081Z" fill="#BDE0F4"/>
<path d="M764.158 571.081H713.073V818.684H764.158V571.081Z" fill="#BDE0F4"/>
<path d="M800.133 571.081H764.158V818.684H800.133V571.081Z" fill="#BDE0F4"/>
<path d="M764.158 571.081H713.073V818.684H764.158V571.081Z" fill="#003659"/>
<path d="M766.916 574.318H753.485V578.875H766.916V574.318Z" fill="#BDE0F4"/>
<path d="M721.347 574.318H707.916V578.875H721.347V574.318Z" fill="#BDE0F4"/>
<path d="M776.389 574.318H766.796V578.875H776.389V574.318Z" fill="#BDE0F4"/>
<path d="M804.93 574.318H795.336V578.875H804.93V574.318Z" fill="#BDE0F4"/>
<path d="M766.916 582.232H753.485V586.788H766.916V582.232Z" fill="#BDE0F4"/>
<path d="M721.347 582.232H707.916V586.788H721.347V582.232Z" fill="#BDE0F4"/>
<path d="M776.389 582.232H766.796V586.788H776.389V582.232Z" fill="#BDE0F4"/>
<path d="M804.93 582.232H795.336V586.788H804.93V582.232Z" fill="#BDE0F4"/>
<path d="M766.916 590.146H753.485V594.702H766.916V590.146Z" fill="#BDE0F4"/>
<path d="M721.347 590.146H707.916V594.702H721.347V590.146Z" fill="#BDE0F4"/>
<path d="M776.389 590.146H766.796V594.702H776.389V590.146Z" fill="#BDE0F4"/>
<path d="M804.93 590.146H795.336V594.702H804.93V590.146Z" fill="#BDE0F4"/>
<path d="M766.916 598.059H753.485V602.616H766.916V598.059Z" fill="#BDE0F4"/>
<path d="M721.347 598.059H707.916V602.616H721.347V598.059Z" fill="#BDE0F4"/>
<path d="M776.389 598.059H766.796V602.616H776.389V598.059Z" fill="#BDE0F4"/>
<path d="M804.93 598.059H795.336V602.616H804.93V598.059Z" fill="#BDE0F4"/>
<path d="M766.916 605.973H753.485V610.529H766.916V605.973Z" fill="#BDE0F4"/>
<path d="M721.347 605.973H707.916V610.529H721.347V605.973Z" fill="#BDE0F4"/>
<path d="M776.389 605.973H766.796V610.529H776.389V605.973Z" fill="#BDE0F4"/>
<path d="M804.93 605.973H795.336V610.529H804.93V605.973Z" fill="#BDE0F4"/>
<path d="M766.916 613.767H753.485V618.323H766.916V613.767Z" fill="#BDE0F4"/>
<path d="M721.347 613.767H707.916V618.324H721.347V613.767Z" fill="#BDE0F4"/>
<path d="M776.389 613.767H766.796V618.323H776.389V613.767Z" fill="#BDE0F4"/>
<path d="M804.93 613.767H795.336V618.323H804.93V613.767Z" fill="#BDE0F4"/>
<path d="M766.916 621.681H753.485V626.237H766.916V621.681Z" fill="#BDE0F4"/>
<path d="M721.347 621.681H707.916V626.237H721.347V621.681Z" fill="#BDE0F4"/>
<path d="M776.389 621.681H766.796V626.237H776.389V621.681Z" fill="#BDE0F4"/>
<path d="M804.93 621.681H795.336V626.237H804.93V621.681Z" fill="#BDE0F4"/>
<path d="M766.916 629.594H753.485V634.151H766.916V629.594Z" fill="#BDE0F4"/>
<path d="M721.347 629.594H707.916V634.151H721.347V629.594Z" fill="#BDE0F4"/>
<path d="M776.389 629.594H766.796V634.151H776.389V629.594Z" fill="#BDE0F4"/>
<path d="M804.93 629.594H795.336V634.151H804.93V629.594Z" fill="#BDE0F4"/>
<path d="M766.916 637.508H753.485V642.065H766.916V637.508Z" fill="#BDE0F4"/>
<path d="M721.347 637.508H707.916V642.065H721.347V637.508Z" fill="#BDE0F4"/>
<path d="M776.389 637.508H766.796V642.065H776.389V637.508Z" fill="#BDE0F4"/>
<path d="M804.93 637.508H795.336V642.065H804.93V637.508Z" fill="#BDE0F4"/>
<path d="M766.916 645.302H753.485V649.858H766.916V645.302Z" fill="#BDE0F4"/>
<path d="M721.347 645.302H707.916V649.858H721.347V645.302Z" fill="#BDE0F4"/>
<path d="M776.389 645.302H766.796V649.858H776.389V645.302Z" fill="#BDE0F4"/>
<path d="M804.93 645.302H795.336V649.858H804.93V645.302Z" fill="#BDE0F4"/>
<path d="M766.916 653.216H753.485V657.772H766.916V653.216Z" fill="#BDE0F4"/>
<path d="M721.347 653.216H707.916V657.772H721.347V653.216Z" fill="#BDE0F4"/>
<path d="M776.389 653.216H766.796V657.772H776.389V653.216Z" fill="#BDE0F4"/>
<path d="M804.93 653.216H795.336V657.772H804.93V653.216Z" fill="#BDE0F4"/>
<path d="M746.77 571.081H726.743V814.728H746.77V571.081Z" fill="#003659"/>
<path d="M791.859 571.081H779.387V815.567H791.859V571.081Z" fill="#003659"/>
<path d="M367.145 711.848H358.271H324.454H315.34V605.253H367.145V711.848Z" fill="#BDE0F4"/>
<path d="M355.753 605.253H326.853V711.848H355.753V605.253Z" fill="#49AAF7"/>
<path d="M355.753 605.253H326.853V609.809H355.753V605.253Z" fill="#BDE0F4"/>
<path d="M355.753 613.407H326.853V617.963H355.753V613.407Z" fill="#BDE0F4"/>
<path d="M355.753 621.68H326.853V626.236H355.753V621.68Z" fill="#BDE0F4"/>
<path d="M355.753 629.833H326.853V634.39H355.753V629.833Z" fill="#BDE0F4"/>
<path d="M355.753 638.107H326.853V642.663H355.753V638.107Z" fill="#BDE0F4"/>
<path d="M355.753 646.26H326.853V650.817H355.753V646.26Z" fill="#BDE0F4"/>
<path d="M355.753 654.534H326.853V659.09H355.753V654.534Z" fill="#BDE0F4"/>
<path d="M321.096 605.253H315.34V609.809H321.096V605.253Z" fill="#BDE0F4"/>
<path d="M321.096 613.407H315.34V617.963H321.096V613.407Z" fill="#BDE0F4"/>
<path d="M321.096 621.68H315.34V626.236H321.096V621.68Z" fill="#BDE0F4"/>
<path d="M321.096 629.833H315.34V634.39H321.096V629.833Z" fill="#BDE0F4"/>
<path d="M321.096 638.107H315.34V642.663H321.096V638.107Z" fill="#BDE0F4"/>
<path d="M321.096 646.26H315.34V650.817H321.096V646.26Z" fill="#BDE0F4"/>
<path d="M321.096 654.534H315.34V659.09H321.096V654.534Z" fill="#BDE0F4"/>
<path d="M367.145 605.253H361.389V609.809H367.145V605.253Z" fill="#BDE0F4"/>
<path d="M367.145 613.407H361.389V617.963H367.145V613.407Z" fill="#BDE0F4"/>
<path d="M367.145 621.68H361.389V626.236H367.145V621.68Z" fill="#BDE0F4"/>
<path d="M367.145 629.833H361.389V634.39H367.145V629.833Z" fill="#BDE0F4"/>
<path d="M367.145 638.107H361.389V642.663H367.145V638.107Z" fill="#BDE0F4"/>
<path d="M367.145 646.26H361.389V650.817H367.145V646.26Z" fill="#BDE0F4"/>
<path d="M367.145 654.534H361.389V659.09H367.145V654.534Z" fill="#BDE0F4"/>
<path d="M315.34 605.253H295.674V711.848H315.34V605.253Z" fill="#49AAF7"/>
<path d="M309.105 605.253H300.83V708.251H309.105V605.253Z" fill="#49AAF7"/>
<path d="M309.105 605.253H300.83V609.809H309.105V605.253Z" fill="#49AAF7"/>
<path d="M309.105 613.407H300.83V617.963H309.105V613.407Z" fill="#49AAF7"/>
<path d="M309.105 621.68H300.83V626.236H309.105V621.68Z" fill="#49AAF7"/>
<path d="M309.105 629.833H300.83V634.39H309.105V629.833Z" fill="#49AAF7"/>
<path d="M309.105 638.107H300.83V642.663H309.105V638.107Z" fill="#49AAF7"/>
<path d="M309.105 646.26H300.83V650.817H309.105V646.26Z" fill="#49AAF7"/>
<path d="M309.105 654.534H300.83V659.09H309.105V654.534Z" fill="#49AAF7"/>
<path d="M342.921 605.253H339.564V708.251H342.921V605.253Z" fill="#49AAF7"/>
<path d="M367.265 598.778H295.674V605.253H367.265V598.778Z" fill="#BDE0F4"/>
<path d="M367.265 598.538H295.674V598.778H367.265V598.538Z" fill="#BDE0F4"/>
<path d="M315.34 598.778H295.674V605.253H315.34V598.778Z" fill="#BDE0F4"/>
<path d="M315.34 598.538H295.674V598.778H315.34V598.538Z" fill="#BDE0F4"/>
<path d="M295.434 578.874H259.339V826.477H295.434V578.874Z" fill="#BDE0F4"/>
<path d="M259.339 578.874H208.254V826.477H259.339V578.874Z" fill="#BDE0F4"/>
<path d="M295.314 578.874H259.339V826.477H295.314V578.874Z" fill="#BDE0F4"/>
<path d="M259.339 578.874H208.254V826.477H259.339V578.874Z" fill="#003659"/>
<path d="M262.097 582.111H248.666V586.667H262.097V582.111Z" fill="#BDE0F4"/>
<path d="M216.528 582.111H203.098V586.667H216.528V582.111Z" fill="#BDE0F4"/>
<path d="M271.57 582.111H261.977V586.667H271.57V582.111Z" fill="#BDE0F4"/>
<path d="M300.111 582.111H290.518V586.667H300.111V582.111Z" fill="#BDE0F4"/>
<path d="M262.097 590.025H248.666V594.581H262.097V590.025Z" fill="#BDE0F4"/>
<path d="M216.528 590.025H203.098V594.581H216.528V590.025Z" fill="#BDE0F4"/>
<path d="M271.57 590.025H261.977V594.581H271.57V590.025Z" fill="#BDE0F4"/>
<path d="M300.111 590.025H290.518V594.581H300.111V590.025Z" fill="#BDE0F4"/>
<path d="M262.097 597.939H248.666V602.495H262.097V597.939Z" fill="#BDE0F4"/>
<path d="M216.528 597.939H203.098V602.495H216.528V597.939Z" fill="#BDE0F4"/>
<path d="M271.57 597.939H261.977V602.495H271.57V597.939Z" fill="#BDE0F4"/>
<path d="M300.111 597.939H290.518V602.495H300.111V597.939Z" fill="#BDE0F4"/>
<path d="M262.097 605.852H248.666V610.408H262.097V605.852Z" fill="#BDE0F4"/>
<path d="M216.528 605.852H203.098V610.408H216.528V605.852Z" fill="#BDE0F4"/>
<path d="M271.57 605.852H261.977V610.408H271.57V605.852Z" fill="#BDE0F4"/>
<path d="M300.111 605.852H290.518V610.408H300.111V605.852Z" fill="#BDE0F4"/>
<path d="M262.097 613.766H248.666V618.322H262.097V613.766Z" fill="#BDE0F4"/>
<path d="M216.528 613.766H203.098V618.322H216.528V613.766Z" fill="#BDE0F4"/>
<path d="M271.57 613.766H261.977V618.322H271.57V613.766Z" fill="#BDE0F4"/>
<path d="M300.111 613.766H290.518V618.322H300.111V613.766Z" fill="#BDE0F4"/>
<path d="M262.097 621.56H248.666V626.116H262.097V621.56Z" fill="#BDE0F4"/>
<path d="M216.528 621.56H203.098V626.116H216.528V621.56Z" fill="#BDE0F4"/>
<path d="M271.57 621.56H261.977V626.116H271.57V621.56Z" fill="#BDE0F4"/>
<path d="M300.111 621.56H290.518V626.116H300.111V621.56Z" fill="#BDE0F4"/>
<path d="M262.097 629.474H248.666V634.03H262.097V629.474Z" fill="#BDE0F4"/>
<path d="M216.528 629.474H203.098V634.03H216.528V629.474Z" fill="#BDE0F4"/>
<path d="M271.57 629.474H261.977V634.03H271.57V629.474Z" fill="#BDE0F4"/>
<path d="M300.111 629.474H290.518V634.03H300.111V629.474Z" fill="#BDE0F4"/>
<path d="M262.097 637.387H248.666V641.943H262.097V637.387Z" fill="#BDE0F4"/>
<path d="M216.528 637.387H203.098V641.944H216.528V637.387Z" fill="#BDE0F4"/>
<path d="M271.57 637.387H261.977V641.943H271.57V637.387Z" fill="#BDE0F4"/>
<path d="M300.111 637.387H290.518V641.943H300.111V637.387Z" fill="#BDE0F4"/>
<path d="M262.097 645.301H248.666V649.857H262.097V645.301Z" fill="#BDE0F4"/>
<path d="M216.528 645.301H203.098V649.857H216.528V645.301Z" fill="#BDE0F4"/>
<path d="M271.57 645.301H261.977V649.857H271.57V645.301Z" fill="#BDE0F4"/>
<path d="M300.111 645.301H290.518V649.857H300.111V645.301Z" fill="#BDE0F4"/>
<path d="M262.097 653.095H248.666V657.651H262.097V653.095Z" fill="#BDE0F4"/>
<path d="M216.528 653.095H203.098V657.651H216.528V653.095Z" fill="#BDE0F4"/>
<path d="M271.57 653.095H261.977V657.651H271.57V653.095Z" fill="#BDE0F4"/>
<path d="M300.111 653.095H290.518V657.651H300.111V653.095Z" fill="#BDE0F4"/>
<path d="M241.951 578.874H221.925V822.52H241.951V578.874Z" fill="#003659"/>
<path d="M287.04 578.874H274.568V823.36H287.04V578.874Z" fill="#003659"/>
<path d="M158.44 711.521H149.566H115.749H106.636V604.925H158.44V711.521Z" fill="#BDE0F4"/>
<path d="M147.048 604.925H118.148V711.521H147.048V604.925Z" fill="#49AAF7"/>
<path d="M147.048 604.925H118.148V609.482H147.048V604.925Z" fill="#BDE0F4"/>
<path d="M147.048 613.079H118.148V617.636H147.048V613.079Z" fill="#BDE0F4"/>
<path d="M147.048 621.353H118.148V625.909H147.048V621.353Z" fill="#BDE0F4"/>
<path d="M147.048 629.506H118.148V634.062H147.048V629.506Z" fill="#BDE0F4"/>
<path d="M147.048 637.779H118.148V642.336H147.048V637.779Z" fill="#BDE0F4"/>
<path d="M147.048 645.933H118.148V650.49H147.048V645.933Z" fill="#BDE0F4"/>
<path d="M147.048 654.207H118.148V658.763H147.048V654.207Z" fill="#BDE0F4"/>
<path d="M112.392 604.925H106.636V609.482H112.392V604.925Z" fill="#BDE0F4"/>
<path d="M112.392 613.079H106.636V617.636H112.392V613.079Z" fill="#BDE0F4"/>
<path d="M112.392 621.353H106.636V625.909H112.392V621.353Z" fill="#BDE0F4"/>
<path d="M112.392 629.506H106.636V634.062H112.392V629.506Z" fill="#BDE0F4"/>
<path d="M112.392 637.779H106.636V642.336H112.392V637.779Z" fill="#BDE0F4"/>
<path d="M112.392 645.933H106.636V650.49H112.392V645.933Z" fill="#BDE0F4"/>
<path d="M112.392 654.207H106.636V658.763H112.392V654.207Z" fill="#BDE0F4"/>
<path d="M158.44 604.925H152.684V609.482H158.44V604.925Z" fill="#BDE0F4"/>
<path d="M158.44 613.079H152.684V617.636H158.44V613.079Z" fill="#BDE0F4"/>
<path d="M158.44 621.353H152.684V625.909H158.44V621.353Z" fill="#BDE0F4"/>
<path d="M158.44 629.506H152.684V634.062H158.44V629.506Z" fill="#BDE0F4"/>
<path d="M158.44 637.779H152.684V642.336H158.44V637.779Z" fill="#BDE0F4"/>
<path d="M158.44 645.933H152.684V650.49H158.44V645.933Z" fill="#BDE0F4"/>
<path d="M158.44 654.207H152.684V658.763H158.44V654.207Z" fill="#BDE0F4"/>
<path d="M106.636 604.925H86.9692V711.521H106.636V604.925Z" fill="#49AAF7"/>
<path d="M100.4 604.925H92.1257V707.924H100.4V604.925Z" fill="#49AAF7"/>
<path d="M100.4 604.925H92.1257V609.482H100.4V604.925Z" fill="#49AAF7"/>
<path d="M100.4 613.079H92.1257V617.636H100.4V613.079Z" fill="#49AAF7"/>
<path d="M100.4 621.353H92.1257V625.909H100.4V621.353Z" fill="#49AAF7"/>
<path d="M100.4 629.506H92.1257V634.062H100.4V629.506Z" fill="#49AAF7"/>
<path d="M100.4 637.779H92.1257V642.336H100.4V637.779Z" fill="#49AAF7"/>
<path d="M100.4 645.933H92.1257V650.49H100.4V645.933Z" fill="#49AAF7"/>
<path d="M100.4 654.207H92.1257V658.763H100.4V654.207Z" fill="#49AAF7"/>
<path d="M134.217 604.925H130.859V707.924H134.217V604.925Z" fill="#49AAF7"/>
<path d="M158.56 598.451H86.9692V604.926H158.56V598.451Z" fill="#BDE0F4"/>
<path d="M158.56 598.211H86.9692V598.45H158.56V598.211Z" fill="#BDE0F4"/>
<path d="M106.636 598.451H86.9692V604.926H106.636V598.451Z" fill="#BDE0F4"/>
<path d="M106.636 598.211H86.9692V598.45H106.636V598.211Z" fill="#BDE0F4"/>
<path d="M86.7295 578.546H50.6343V826.15H86.7295V578.546Z" fill="#BDE0F4"/>
<path d="M50.6341 578.546H-0.450806V826.15H50.6341V578.546Z" fill="#BDE0F4"/>
<path d="M86.6096 578.546H50.6343V826.15H86.6096V578.546Z" fill="#BDE0F4"/>
<path d="M50.6341 578.546H-0.450806V826.15H50.6341V578.546Z" fill="#003659"/>
<path d="M53.3923 581.784H39.9615V586.34H53.3923V581.784Z" fill="#BDE0F4"/>
<path d="M7.82369 581.784H-5.60706V586.34H7.82369V581.784Z" fill="#BDE0F4"/>
<path d="M62.8659 581.784H53.2725V586.34H62.8659V581.784Z" fill="#BDE0F4"/>
<path d="M91.4062 581.784H81.8127V586.34H91.4062V581.784Z" fill="#BDE0F4"/>
<path d="M53.3923 589.697H39.9615V594.254H53.3923V589.697Z" fill="#BDE0F4"/>
<path d="M7.82369 589.697H-5.60706V594.254H7.82369V589.697Z" fill="#BDE0F4"/>
<path d="M62.8659 589.697H53.2725V594.254H62.8659V589.697Z" fill="#BDE0F4"/>
<path d="M91.4062 589.697H81.8127V594.254H91.4062V589.697Z" fill="#BDE0F4"/>
<path d="M53.3923 597.611H39.9615V602.168H53.3923V597.611Z" fill="#BDE0F4"/>
<path d="M7.82369 597.611H-5.60706V602.168H7.82369V597.611Z" fill="#BDE0F4"/>
<path d="M62.8659 597.611H53.2725V602.168H62.8659V597.611Z" fill="#BDE0F4"/>
<path d="M91.4062 597.611H81.8127V602.168H91.4062V597.611Z" fill="#BDE0F4"/>
<path d="M53.3923 605.525H39.9615V610.081H53.3923V605.525Z" fill="#BDE0F4"/>
<path d="M7.82369 605.525H-5.60706V610.081H7.82369V605.525Z" fill="#BDE0F4"/>
<path d="M62.8659 605.525H53.2725V610.081H62.8659V605.525Z" fill="#BDE0F4"/>
<path d="M91.4062 605.525H81.8127V610.081H91.4062V605.525Z" fill="#BDE0F4"/>
<path d="M53.3923 613.439H39.9615V617.995H53.3923V613.439Z" fill="#BDE0F4"/>
<path d="M7.82369 613.439H-5.60706V617.995H7.82369V613.439Z" fill="#BDE0F4"/>
<path d="M62.8659 613.439H53.2725V617.995H62.8659V613.439Z" fill="#BDE0F4"/>
<path d="M91.4062 613.439H81.8127V617.995H91.4062V613.439Z" fill="#BDE0F4"/>
<path d="M53.3923 621.232H39.9615V625.789H53.3923V621.232Z" fill="#BDE0F4"/>
<path d="M7.82369 621.232H-5.60706V625.789H7.82369V621.232Z" fill="#BDE0F4"/>
<path d="M62.8659 621.232H53.2725V625.789H62.8659V621.232Z" fill="#BDE0F4"/>
<path d="M91.4062 621.232H81.8127V625.789H91.4062V621.232Z" fill="#BDE0F4"/>
<path d="M53.3923 629.146H39.9615V633.703H53.3923V629.146Z" fill="#BDE0F4"/>
<path d="M7.82369 629.146H-5.60706V633.703H7.82369V629.146Z" fill="#BDE0F4"/>
<path d="M62.8659 629.146H53.2725V633.703H62.8659V629.146Z" fill="#BDE0F4"/>
<path d="M91.4062 629.146H81.8127V633.703H91.4062V629.146Z" fill="#BDE0F4"/>
<path d="M53.3923 637.06H39.9615V641.616H53.3923V637.06Z" fill="#BDE0F4"/>
<path d="M7.82369 637.06H-5.60706V641.616H7.82369V637.06Z" fill="#BDE0F4"/>
<path d="M62.8659 637.06H53.2725V641.616H62.8659V637.06Z" fill="#BDE0F4"/>
<path d="M91.4062 637.06H81.8127V641.616H91.4062V637.06Z" fill="#BDE0F4"/>
<path d="M53.3923 644.974H39.9615V649.53H53.3923V644.974Z" fill="#BDE0F4"/>
<path d="M7.82369 644.974H-5.60706V649.53H7.82369V644.974Z" fill="#BDE0F4"/>
<path d="M62.8659 644.974H53.2725V649.53H62.8659V644.974Z" fill="#BDE0F4"/>
<path d="M91.4062 644.974H81.8127V649.53H91.4062V644.974Z" fill="#BDE0F4"/>
<path d="M53.3923 652.767H39.9615V657.324H53.3923V652.767Z" fill="#BDE0F4"/>
<path d="M7.82369 652.768H-5.60706V657.324H7.82369V652.768Z" fill="#BDE0F4"/>
<path d="M62.8659 652.767H53.2725V657.324H62.8659V652.767Z" fill="#BDE0F4"/>
<path d="M91.4062 652.767H81.8127V657.324H91.4062V652.767Z" fill="#BDE0F4"/>
<path d="M33.2463 578.546H13.2201V822.193H33.2463V578.546Z" fill="#003659"/>
<path d="M78.3352 578.546H65.8638V823.032H78.3352V578.546Z" fill="#003659"/>
<path d="M1472.03 629.115H1195.26V818.684H1472.03V629.115Z" fill="white"/>
<path d="M1484.5 654.534H1182.67V795.542H1484.5V654.534Z" fill="#49D8F7"/>
<path d="M1185.31 654.534H1182.67V795.542H1185.31V654.534Z" fill="white"/>
<path d="M1204.02 654.534H1201.38V795.542H1204.02V654.534Z" fill="white"/>
<path d="M1222.84 654.534H1220.2V795.542H1222.84V654.534Z" fill="white"/>
<path d="M409.921 530.193V497.819H473.838V767.245H378.863V554.654L409.921 530.193Z" fill="#49AAF7"/>
<path d="M441.82 530.193V497.819H505.736V767.245H410.881V554.654L441.82 530.193Z" fill="#BDE0F4"/>
<path d="M418.795 530.193V497.819H426.35V530.193L395.292 554.654V767.245H387.857V554.654L418.795 530.193Z" fill="#5566C5"/>
<path d="M500.219 513.167H497.581V767.365H500.219V513.167Z" fill="#49AAF7"/>
<path d="M494.823 513.167H492.185V767.365H494.823V513.167Z" fill="#49AAF7"/>
<path d="M489.547 513.167H486.909V767.365H489.547V513.167Z" fill="#49AAF7"/>
<path d="M484.15 513.167H481.512V767.365H484.15V513.167Z" fill="#49AAF7"/>
<path d="M478.874 513.167H476.236V767.365H478.874V513.167Z" fill="#49AAF7"/>
<path d="M473.598 513.167H470.96V767.365H473.598V513.167Z" fill="#49AAF7"/>
<path d="M468.202 513.167H465.563V767.365H468.202V513.167Z" fill="#49AAF7"/>
<path d="M462.925 513.167H460.287V767.365H462.925V513.167Z" fill="#49AAF7"/>
<path d="M457.529 513.167H454.891V767.365H457.529V513.167Z" fill="#49AAF7"/>
<path d="M452.252 513.167H449.614V767.365H452.252V513.167Z" fill="#49AAF7"/>
<path d="M441.58 542.903H438.942V767.245H441.58V542.903Z" fill="#49AAF7"/>
<path d="M436.303 550.337H433.665V767.245H436.303V550.337Z" fill="#49AAF7"/>
<path d="M430.907 558.371H428.269V767.245H430.907V558.371Z" fill="#49AAF7"/>
<path d="M425.631 566.045H422.993V767.245H425.631V566.045Z" fill="#49AAF7"/>
<path d="M420.235 566.045H417.596V767.245H420.235V566.045Z" fill="#BDE0F4"/>
<path d="M218.286 610.648V581.912H161.554V821.056H245.854V632.359L218.286 610.648Z" fill="#49AAF7"/>
<path d="M189.973 610.648V581.912H133.241V821.056H217.435V632.359L189.973 610.648Z" fill="#BDE0F4"/>
<path d="M210.409 610.648V581.912H203.704V610.648L231.271 632.359V821.056H237.871V632.359L210.409 610.648Z" fill="#5566C5"/>
<path d="M138.137 595.536H140.479V821.163H138.137V595.536Z" fill="#49AAF7"/>
<path d="M142.927 595.536H145.269V821.163H142.927V595.536Z" fill="#49AAF7"/>
<path d="M147.61 595.536H149.952V821.163H147.61V595.536Z" fill="#49AAF7"/>
<path d="M152.4 595.536H154.742V821.163H152.4V595.536Z" fill="#49AAF7"/>
<path d="M157.083 595.536H159.425V821.163H157.083V595.536Z" fill="#49AAF7"/>
<path d="M161.767 595.536H164.109V821.163H161.767V595.536Z" fill="#49AAF7"/>
<path d="M166.557 595.536H168.898V821.163H166.557V595.536Z" fill="#49AAF7"/>
<path d="M171.24 595.536H173.582V821.163H171.24V595.536Z" fill="#49AAF7"/>
<path d="M176.03 595.536H178.371V821.163H176.03V595.536Z" fill="#49AAF7"/>
<path d="M180.713 595.536H183.054V821.163H180.713V595.536Z" fill="#49AAF7"/>
<path d="M190.186 621.929H192.528V821.056H190.186V621.929Z" fill="#49AAF7"/>
<path d="M194.87 628.528H197.211V821.056H194.87V628.528Z" fill="#49AAF7"/>
<path d="M199.659 635.659H202.001V821.057H199.659V635.659Z" fill="#49AAF7"/>
<path d="M204.342 642.47H206.684V821.056H204.342V642.47Z" fill="#49AAF7"/>
<path d="M209.132 642.47H211.474V821.056H209.132V642.47Z" fill="#BDE0F4"/>
<path d="M9.58162 610.321V581.585H-47.1506V820.729H37.1494V632.032L9.58162 610.321Z" fill="#49AAF7"/>
<path d="M-18.7313 610.321V581.585H-75.4635V820.729H8.7301V632.032L-18.7313 610.321Z" fill="#BDE0F4"/>
<path d="M1.70478 610.321V581.585H-5.0009V610.321L22.5669 632.032V820.729H29.1661V632.032L1.70478 610.321Z" fill="#5566C5"/>
<path d="M0.427742 642.143H2.76941V820.729H0.427742V642.143Z" fill="#BDE0F4"/>
<g style="mix-blend-mode:overlay" opacity="0.61">
<path d="M1223.32 59.8066C1223.32 59.8066 1214.33 219.16 1107.72 277.914C1025.22 323.238 998.237 461.368 998.237 461.368L997.997 59.8066H1223.32Z" fill="#FEEDC5"/>
</g>
<g style="mix-blend-mode:overlay" opacity="0.61">
<path d="M-158.496 244.17C-158.496 244.17 -151.689 364.84 -70.9955 409.331C-8.54662 443.652 11.8763 548.251 11.8763 548.251L12.0579 244.17H-158.496Z" fill="#FEEDC5"/>
</g>
<path d="M1511.48 790.507H1181.83C1181.83 714.127 1231.48 652.257 1292.63 652.257C1300.91 652.257 1309.06 653.456 1316.86 655.614C1325.61 647.101 1335.21 640.026 1345.52 634.87C1358.95 628.036 1373.46 624.319 1388.69 624.319C1456.44 624.199 1511.48 698.66 1511.48 790.507Z" fill="#3D213D"/>
<path d="M1511.48 790.507H1181.83C1181.83 714.127 1231.48 652.257 1292.63 652.257C1300.91 652.257 1309.06 653.456 1316.86 655.614C1325.61 647.101 1335.21 640.026 1345.52 634.87C1358.95 628.036 1373.46 624.319 1388.69 624.319C1456.44 624.199 1511.48 698.66 1511.48 790.507Z" fill="url(#paint3_linear_9_71838)"/>
<path opacity="0.43" d="M1345.4 634.87L1270.45 790.627H1181.71C1181.71 714.247 1231.36 652.376 1292.52 652.376C1300.79 652.376 1308.94 653.575 1316.74 655.734C1325.61 646.98 1335.21 640.026 1345.4 634.87Z" fill="#FEEDC5"/>
<path d="M849.779 774.2C887.662 774.2 918.372 745.264 918.372 709.571C918.372 673.877 887.662 644.942 849.779 644.942C811.897 644.942 781.187 673.877 781.187 709.571C781.187 745.264 811.897 774.2 849.779 774.2Z" fill="#888A17"/>
<path d="M852.298 774.2C888.789 774.2 918.372 746.016 918.372 711.25C918.372 676.483 888.789 648.3 852.298 648.3C815.806 648.3 786.223 676.483 786.223 711.25C786.223 746.016 815.806 774.2 852.298 774.2Z" fill="#3D213D"/>
<path d="M852.298 774.2C888.789 774.2 918.372 746.016 918.372 711.25C918.372 676.483 888.789 648.3 852.298 648.3C815.806 648.3 786.223 676.483 786.223 711.25C786.223 746.016 815.806 774.2 852.298 774.2Z" fill="url(#paint4_linear_9_71838)"/>
<path d="M587.999 818.685H366.631V584.87L587.999 560.889V818.685Z" fill="#C0BDF4"/>
<path d="M519.082 736.094C526.434 705.375 507.488 674.514 476.765 667.163C446.043 659.813 415.178 678.757 407.827 709.476C400.476 740.195 419.422 771.056 450.144 778.407C480.866 785.757 511.731 766.813 519.082 736.094Z" fill="#723E73"/>
<path d="M781.187 690.626C781.187 711.01 776.75 730.195 768.715 747.581H366.631V633.072C381.861 619.762 399.968 609.81 419.995 604.295C430.667 597.46 442.539 592.424 455.25 589.426C475.397 556.333 511.852 534.27 553.463 534.27C578.766 534.27 602.03 542.424 621.097 556.333C628.771 555.014 636.686 554.294 644.84 554.294C656.592 554.294 667.984 555.733 678.897 558.611C737.776 573.719 781.187 627.077 781.187 690.626Z" fill="url(#paint5_linear_9_71838)"/>
<path d="M1070.55 781.634C1117.57 781.634 1155.69 745.72 1155.69 701.418C1155.69 657.115 1117.57 621.201 1070.55 621.201C1023.53 621.201 985.406 657.115 985.406 701.418C985.406 745.72 1023.53 781.634 1070.55 781.634Z" fill="#3A95A8"/>
<path d="M1073.67 781.634C1118.97 781.634 1155.69 746.686 1155.69 703.576C1155.69 660.466 1118.97 625.518 1073.67 625.518C1028.37 625.518 991.642 660.466 991.642 703.576C991.642 746.686 1028.37 781.634 1073.67 781.634Z" fill="#3A95A8"/>
<path d="M1122.59 663.767C1122.59 726.118 1068.99 776.598 1002.79 776.598C972.095 776.598 944.155 765.686 922.929 747.821C898.466 727.197 882.997 697.101 882.997 663.767C882.997 601.417 936.6 550.937 1002.79 550.937C1036.25 550.937 1066.35 563.767 1088.18 584.63C1109.4 604.894 1122.59 632.832 1122.59 663.767Z" fill="#AEB11B"/>
<path d="M1122.59 663.767C1122.59 726.118 1068.99 776.598 1002.79 776.598C972.095 776.598 944.155 765.686 922.929 747.821C898.466 727.197 882.997 697.101 882.997 663.767C882.997 601.417 936.6 550.937 1002.79 550.937C1036.25 550.937 1066.35 563.767 1088.18 584.63C1109.4 604.894 1122.59 632.832 1122.59 663.767Z" fill="url(#paint6_linear_9_71838)"/>
<path d="M1050.88 639.187H1046.08V846.262H1050.88V639.187Z" fill="#FFFFFB"/>
<path d="M1071.25 632.524L1049.12 654.653L1049.97 655.501L1072.1 633.372L1071.25 632.524Z" fill="#FFFFFB"/>
<path d="M1088.53 620.242L1085.9 619.522C1084.22 619.163 1081.94 619.642 1080.62 620.721L1067.91 631.753C1066.71 632.832 1066.95 634.031 1068.63 634.511L1071.27 635.23C1072.95 635.59 1075.22 635.11 1076.54 634.031L1089.25 623C1090.57 621.92 1090.21 620.721 1088.53 620.242Z" fill="#49AAF7"/>
<path d="M292.903 586.624L1181.25 360.364C1181.25 360.364 1180.53 358.325 1179.21 355.208C1176.1 347.414 1169.98 332.546 1165.66 324.992C1159.67 314.56 1156.79 311.563 1156.79 311.563L1135.08 307.006L1047.54 333.385L300.098 558.566L292.903 586.624Z" fill="#889EA3"/>
<path d="M1130.53 316.239L299.379 561.444L291.225 587.104L1140.84 365.759L1130.53 316.239Z" fill="#E21A1A"/>
<path d="M979.166 359.743L1018.55 397.644L956.518 413.602L922.055 375.701L979.166 359.743Z" fill="#A1C5CD"/>
<path d="M838.862 402.382L880.538 441.862L814.897 458.485L778.43 419.005L838.862 402.382Z" fill="#A1C5CD"/>
<path d="M707.557 440.532L739.158 470.537L689.386 483.171L661.735 453.166L707.557 440.532Z" fill="#A1C5CD"/>
<path d="M609.937 468.584L641.538 498.589L591.766 511.222L564.115 481.217L609.937 468.584Z" fill="#A1C5CD"/>
<path d="M514.561 496.635L546.162 526.64L496.39 539.274L468.739 509.269L514.561 496.635Z" fill="#A1C5CD"/>
<path d="M446.298 519.077L468.74 540.396L433.395 549.372L413.758 528.053L446.298 519.077Z" fill="#A1C5CD"/>
<path d="M373.822 539.274L395.805 559.804L361.181 568.448L341.946 547.918L373.822 539.274Z" fill="#A1C5CD"/>
<path d="M326.798 553.3L343.629 574.058L318.462 580.79L304.356 560.032L326.798 553.3Z" fill="#A1C5CD"/>
<path d="M890.093 390.939L896.808 388.901V399.333L890.093 401.371V390.939Z" fill="#E6E6E6"/>
<path d="M493.645 514.681C494.005 512.163 494.365 509.645 494.844 507.127L527.822 497.415C527.342 499.933 527.102 502.451 527.342 505.089L493.645 514.681Z" fill="#E6E6E6"/>
<path d="M390.396 544.178L306.094 568.278L307.053 562.283L391.235 537.583C390.996 539.741 390.756 541.899 390.396 544.178Z" fill="#E6E6E6"/>
<path d="M438.963 530.269L420.495 535.545C420.855 533.267 421.095 530.989 421.335 528.71L440.402 523.075C439.922 525.473 439.442 527.871 438.963 530.269Z" fill="#E6E6E6"/>
<path d="M446.038 521.396L459.829 517.319C459.229 519.837 458.629 522.235 458.03 524.753L444.479 528.59C444.959 526.312 445.439 523.794 446.038 521.396Z" fill="#E6E6E6"/>
<path d="M465.224 515.76L489.328 508.686C488.968 511.204 488.608 513.602 488.368 516.12L463.545 523.194C464.025 520.796 464.625 518.278 465.224 515.76Z" fill="#E6E6E6"/>
<path d="M563.677 486.863L578.546 482.547C578.067 485.304 577.827 487.942 577.707 490.7L562.957 494.897C563.317 492.139 563.437 489.501 563.677 486.863Z" fill="#E6E6E6"/>
<path d="M587.78 479.789L595.335 477.51C595.095 480.268 594.735 483.026 594.496 485.784L586.581 488.062C586.701 485.184 587.061 482.307 587.78 479.789Z" fill="#E6E6E6"/>
<path d="M598.933 476.431L606.247 474.273C606.247 475.712 606.248 477.151 606.367 478.71C606.367 479.909 606.367 481.228 606.367 482.427L598.213 484.705C598.333 481.947 598.693 479.189 598.933 476.431Z" fill="#E6E6E6"/>
<path d="M619.439 470.437L625.914 468.518C625.555 471.276 625.435 474.154 625.435 476.911L618.719 478.83C619.079 476.072 619.319 473.314 619.439 470.437Z" fill="#E6E6E6"/>
<path d="M637.306 465.16L659.971 458.566C659.611 461.443 659.611 464.321 659.611 467.199L636.347 473.793C636.587 471.036 636.947 468.158 637.306 465.16Z" fill="#E6E6E6"/>
<path d="M694.147 448.494L707.338 444.657C707.098 447.774 706.739 450.892 706.139 453.889L693.428 457.487C693.428 454.489 693.668 451.491 694.147 448.494Z" fill="#E6E6E6"/>
<path d="M710.816 443.578L721.968 440.34C721.968 443.458 721.848 446.455 721.609 449.573L709.857 452.93C710.336 449.813 710.696 446.695 710.816 443.578Z" fill="#E6E6E6"/>
<path d="M725.446 439.261L782.886 422.354V431.947L725.086 448.493C725.326 445.376 725.446 442.378 725.446 439.261Z" fill="#E6E6E6"/>
<path d="M800.155 417.319L826.057 409.765V419.597L800.155 427.031V417.319Z" fill="#E6E6E6"/>
<path d="M836.729 406.527L872.825 395.975V406.287L836.729 416.599V406.527Z" fill="#E6E6E6"/>
<path d="M900.285 387.942L910.958 384.824V395.376L900.285 398.373V387.942Z" fill="#E6E6E6"/>
<path d="M922.351 392.138V381.467L961.204 370.076V381.107L945.135 385.664V382.186C945.135 379.908 941.657 379.908 941.657 382.186V386.623L922.351 392.138Z" fill="#E6E6E6"/>
<path d="M1047.54 333.385L1144.08 353.769L1179.21 355.208C1176.1 347.414 1169.98 332.546 1165.66 324.992C1159.67 314.56 1156.79 311.562 1156.79 311.562L1135.08 307.006L1047.54 333.385Z" fill="#FBD5A2"/>
<path d="M1135.08 307.006C1135.08 307.006 1143.72 337.342 1145.88 340.22C1146.96 341.659 1154.51 343.337 1161.59 344.536C1168.42 345.735 1174.9 346.695 1174.9 346.695C1174.9 346.695 1168.78 325.591 1156.79 311.562L1146.84 309.524L1135.08 307.006Z" fill="#3D213D"/>
<path d="M1172.28 338.424L1175.08 346.839L1161.62 344.595L1156.57 337.302L1172.28 338.424Z" fill="#89CFE1"/>
<path d="M780.608 413.841L778.21 468.758L765.738 471.755L770.655 416.839L780.608 413.841Z" fill="#3D213D"/>
<path d="M550.486 483.146L546.289 527.271L538.854 525.113L543.051 485.424L550.486 483.146Z" fill="#3D213D"/>
<path d="M400.709 528.35L395.193 561.923L390.516 563.242L396.872 529.429L400.709 528.35Z" fill="#3D213D"/>
<path d="M1178.2 352.88L1156.25 349.996L1146.68 343.626L1142.16 315.982L1054.19 350.476L1055 370.067L1047.87 371.029L1046.42 346.51L1041.91 348.313L1044.44 384.73L877.624 444.223L877.172 459.607L1179.01 355.524L1178.2 352.88Z" fill="#ED6F01"/>
<path d="M1049.22 344.034L1011.82 355.249L1015.93 393.405L1141.98 360.582L1049.22 344.034Z" fill="#E21A1A"/>
<path d="M1084.71 324.959L1131.88 369.966L1084.71 379.94L1043.43 334.933L1084.71 324.959Z" fill="#A1C5CD"/>
<path d="M1127.89 320.435L1132.93 343.817L1074.29 336.383L1127.89 320.435Z" fill="#FBD5A2"/>
<path d="M1135.08 307.006C1135.08 307.006 1143.72 337.342 1145.88 340.22C1146.96 341.659 1154.51 343.337 1161.59 344.536L1135.08 307.006Z" fill="#E21A1A"/>
<path d="M1159.37 314.86L1138.61 312.616L1135.81 307.006L1157.13 311.494L1159.37 314.86Z" fill="#607785"/>
<path d="M734.08 432.427L688.751 446.096V473.194L690.79 471.995V447.175L734.32 433.506L734.08 432.427Z" fill="#E6E6E6"/>
<path d="M961.204 366.239V368.037L918.753 380.148L919.353 401.971H918.153L917.794 378.949L961.204 366.239Z" fill="#E6E6E6"/>
<path d="M1069.05 338.424V340.222L1026.6 352.333L1027.19 374.155H1026L1025.64 351.134L1069.05 338.424Z" fill="#E6E6E6"/>
<path d="M853.877 397.894V398.973L834.57 404.848V421.275L833.731 422.354V403.769L853.877 397.894Z" fill="#E6E6E6"/>
<path d="M491.247 504.849L489.328 523.434L487.169 523.914L489.208 505.449L491.247 504.849Z" fill="#E6E6E6"/>
<path d="M452.993 516.12L451.434 535.065L449.515 535.664L451.194 516.6L452.993 516.12Z" fill="#E6E6E6"/>
<path d="M419.176 526.072L416.898 544.537L415.219 545.257L417.857 526.432L419.176 526.072Z" fill="#E6E6E6"/>
<path d="M360.177 543.578L356.699 563.242L355.14 563.962L358.258 544.058L360.177 543.578Z" fill="#E6E6E6"/>
<path d="M1033.56 363.852V353.181L1072.41 341.79V352.821L1056.34 357.378V353.9C1056.34 351.622 1052.87 351.622 1052.87 353.9V358.337L1033.56 363.852Z" fill="#E6E6E6"/>
<path d="M999.931 362.492L1006.65 360.454V370.885L999.931 372.924V362.492Z" fill="#E6E6E6"/>
<path d="M1010.12 359.494L1020.8 356.377V366.929L1010.12 369.926V359.494Z" fill="#E6E6E6"/>
<g style="mix-blend-mode:screen" opacity="0.61">
<path d="M1117.76 312.616L1134.19 368.492L763.282 419.451L1117.76 312.616Z" fill="#FEEDC5"/>
</g>
<path d="M2681.46 41.0757L-244.896 732.353V746.142L3248.1 122.987V50.0522L2681.46 41.0757Z" fill="#003659"/>
<path opacity="0.24" d="M736.75 567.724L542.963 548.299L801.985 486.548L965.433 526.237L736.75 567.724Z" fill="#FEEDC5"/>
<path d="M2681.46 46.6862L-244.896 732.353V725.758L2541.2 7.41382L2681.46 46.6862Z" fill="#5566C5"/>
<path d="M1474.67 294.102L-244.896 728.276V729.355L1478.6 303.079L1474.67 294.102Z" fill="#3D213D"/>
<path d="M1064.96 512.088V537.148L1049.62 545.182L1025.99 525.637L1010.76 514.966V489.906L1064.96 512.088Z" fill="#BDD0F4"/>
<path d="M1025.99 500.457H1083.79V818.685H1025.99V500.457Z" fill="#BDD0F4"/>
<path d="M1114.78 818.647H1083.84V504.736H1114.78V818.647Z" fill="#3A95A8"/>
<path d="M1128.16 501.177V526.237L1112.69 534.27L1089.31 524.678L1073.96 504.054V479.114L1128.16 501.177Z" fill="#5566C5"/>
<path d="M1010.76 489.906L1073.96 479.114V504.054L1010.76 514.966V489.906Z" fill="#BDD0F4"/>
<path d="M1101.06 490.146L1114.73 536.909V533.192L1128.16 526.237V501.177L1101.06 490.146Z" fill="#003659"/>
<path d="M1083.79 517.244L1025.99 525.637L1010.76 514.966L1073.96 504.054L1083.79 517.244Z" fill="#3D91D4"/>
<path d="M566.707 598.059V616.045L555.674 621.8L538.646 607.772L527.733 600.098V582.112L566.707 598.059Z" fill="#BDD0F4"/>
<path d="M538.646 589.666H580.257V818.684H538.646V589.666Z" fill="#BDD0F4"/>
<path d="M602.565 818.646H580.26V592.745H602.565V818.646Z" fill="#003659"/>
<path d="M612.155 590.266V608.252L601.003 614.007L584.214 607.172L573.182 592.184V574.318L612.155 590.266Z" fill="#003659"/>
<path d="M527.733 582.112L573.182 574.318V592.184L527.733 600.098V582.112Z" fill="#BDD0F4"/>
<path d="M592.609 582.232L602.562 615.925V613.167L612.155 608.251V590.266L592.609 582.232Z" fill="#003659"/>
<path d="M580.257 601.776L538.646 607.772L527.733 600.098L573.182 592.184L580.257 601.776Z" fill="#3D91D4"/>
<path opacity="0.61" d="M1001.65 402.855L1003.81 411.727L1522.36 282.882L1504.97 272.222L1001.65 402.855Z" fill="#FEEDC5"/>
<path opacity="0.61" d="M1025.99 414.485L1030.31 433.91L1443.26 337.626L1485.89 301.396L1025.99 414.485Z" fill="#FEEDC5"/>
<g style="mix-blend-mode:overlay" opacity="0.58">
<path d="M2721 -55.4221H-788V965.578H2721V-55.4221Z" fill="url(#paint7_radial_9_71838)"/>
</g>
<path d="M-97.9049 828.523C-97.9049 723.83 -25.9415 581.912 51.0078 581.912C84.7458 581.912 115.658 598.198 139.757 625.285C144.909 624.454 150.061 624.122 155.38 624.122C232.329 624.122 294.819 766.039 294.819 870.732C294.819 874.388 294.653 878.21 294.653 881.866H-91.4232C-95.7443 864.916 -97.9049 846.969 -97.9049 828.523Z" fill="url(#paint8_linear_9_71838)"/>
</g>
<g clip-path="url(#clip3_9_71838)">
<rect width="4094.8" height="1089.29" transform="translate(-1033.7 -7.64087)" fill="white"/>
<g clip-path="url(#clip4_9_71838)">
<path d="M2499.11 -60.3167H-1075.89V960.683H2499.11V-60.3167Z" fill="url(#paint9_linear_9_71838)"/>
<path d="M-164.583 104.661H0.503418V862.062H-164.583V104.661Z" fill="#49D8F7"/>
<g opacity="0.23">
<path d="M-164.583 131.813H0.503418V156.813H-164.583V131.813Z" fill="#003659"/>
<path d="M-164.583 180.496H0.503418V205.496H-164.583V180.496Z" fill="#003659"/>
<path d="M-164.583 229.179H0.503418V254.179H-164.583V229.179Z" fill="#003659"/>
<path d="M-164.583 277.863H0.503418V302.862H-164.583V277.863Z" fill="#003659"/>
<path d="M-164.583 326.546H0.503418V351.546H-164.583V326.546Z" fill="#003659"/>
<path d="M-164.583 375.229H0.503418V400.229H-164.583V375.229Z" fill="#003659"/>
<path d="M-164.583 423.913H0.503418V448.912H-164.583V423.913Z" fill="#003659"/>
<path d="M-164.583 472.596H0.503418V497.596H-164.583V472.596Z" fill="#003659"/>
<path d="M-164.583 521.279H0.503418V546.279H-164.583V521.279Z" fill="#003659"/>
<path d="M-164.583 569.963H0.503418V594.962H-164.583V569.963Z" fill="#003659"/>
<path d="M-164.583 618.646H0.503418V643.526H-164.583V618.646Z" fill="#003659"/>
</g>
<g style="mix-blend-mode:multiply" opacity="0.4">
<path d="M-395.943 104.661H-293.302H-250.595H-224.277H-191.14H-164.583H0.503418V131.813V156.813V180.497V205.496V229.18V254.179V277.863V302.863V326.546V351.546V375.23V400.229V423.913V448.912V472.596V497.596V521.279V546.279V569.963V594.962V618.646V643.646V667.329V692.329V716.013V741.012V764.696V789.695V813.379V838.379V862.062H-395.943V104.661Z" fill="url(#paint10_linear_9_71838)"/>
</g>
<g style="mix-blend-mode:overlay" opacity="0.61">
<path d="M-234 104.84C-234 104.84 -224.622 271.008 -113.456 332.273C-27.4245 379.536 0.710709 523.573 0.710709 523.573L0.960815 104.84H-234Z" fill="#FEEDC5"/>
</g>
<path d="M203.999 664.246C204.25 666.747 204.5 669.247 204.75 671.748C205.625 681.625 206.375 691.503 207.126 701.381C207.251 702.881 207.251 704.381 207.376 705.882H213.878V701.506H252.017V724.762H265.522V724.512H264.772V721.761H265.522V720.761H264.772V718.01H265.522V717.01H264.772V714.259H265.522V713.259H264.772V710.508H265.522V709.383H270.774V604.355H273.525V576.473H314.415V604.355H317.166V752.769H333.547V762.646H340.924V733.514H343.8V721.136H374.812V720.635H372.686L375.062 717.26V715.634H376.187L377.438 713.884H375.062V711.383H377.563V709.633H375.062V707.132H377.563V705.382H375.062V702.881H377.563V698.63H379.564V694.129H384.941V681.75H388.942V665.996L401.071 663.121L403.822 662.495V636.489H405.448V662.12L410.325 660.995V681.75H413.701V694.129H416.577V663.496H418.703V601.98H417.577V598.979H419.328V597.729C419.328 596.853 419.953 596.103 420.829 596.103H421.704V589.727C421.704 588.101 422.954 586.726 424.455 586.726H424.58V581.099C424.58 579.474 425.58 578.099 427.081 577.723V572.722H428.957C429.457 568.971 432.208 566.095 435.834 565.47V560.344C435.834 559.969 435.959 559.719 436.334 559.719V546.59H437.585V559.719C437.835 559.844 438.085 560.094 438.085 560.344V565.47C441.586 565.97 444.337 568.971 444.837 572.722H446.713V577.723C448.089 578.099 449.214 579.474 449.214 581.099V586.726H449.339C450.84 586.726 452.09 588.101 452.09 589.727V596.103H453.09C453.966 596.103 454.591 596.853 454.591 597.729V598.979H455.966V601.98H454.591V663.496H456.592V701.381H485.352V720.886H503.109V755.019H508.986V753.394H534.37V745.517H537.996V736.14H558.254V727.262H581.262V658.744H584.013V657.619H581.262V653.493H584.013V652.368H581.137V648.242H584.013V647.116H581.137V642.99H584.013V641.865H581.137V637.739H584.013V636.489H581.137V632.363H584.013V631.237H581.137V627.111H584.013V625.986H581.137V536.838H633.406V621.735H633.281V625.861H629.655V626.986H633.281V631.112H629.655V632.238H633.281V636.364H629.655V637.614H633.406V641.74H629.655V642.865H633.406V646.991H629.655V648.117H633.406V652.243H629.655V653.368H633.406V657.494H629.655V658.619H633.656V710.508H651.163V696.379H673.046V673.873L677.547 660.87L677.672 660.37L689.552 626.111L706.058 673.873V677.124H707.058V678.625H705.933V680.625H706.933V682.126H705.933V684.126H706.933V685.626H705.933V687.627H706.933V689.127H705.933V691.128H706.933V692.628H705.933V694.629H706.933V696.129H705.933V698.13H706.933V699.63H705.933V701.631H706.933V703.131H705.933V705.132H706.933V706.632H705.933V708.632H706.933V710.133H705.933V712.133H706.933V713.634H705.933V715.634H706.933V717.135H705.933V719.135H706.933V720.635H705.933V722.636H706.933V724.136H705.933V726.137H706.933V727.637H705.933V729.638H706.933V731.138H705.933V733.139H706.933V734.639H705.933V736.64H706.933V737.14H725.94V719.635H754.951V719.01L755.076 716.509V714.384V711.883L755.201 709.758L755.326 707.257V705.132L755.451 702.631V700.505L755.576 698.005L755.701 695.879V693.378V691.253L755.826 688.752V686.627L755.951 684.126V682.001L756.076 679.5V677.374L756.201 674.874V672.748L756.326 670.247V668.122L756.451 665.621L756.701 657.869L768.831 653.493V660.245H772.582L772.207 641.865L793.215 636.239L795.34 665.621L795.59 668.122L795.715 670.247L795.966 672.748L796.091 674.874L796.216 677.374L796.341 679.5L796.466 682.001L796.591 684.126L796.716 686.627L796.841 688.752L797.091 691.253L797.216 693.378L797.341 695.879L797.466 698.005L797.591 700.505L797.716 702.631L797.966 705.132L798.091 707.257L798.341 709.758L798.466 711.883L798.592 714.384L798.717 716.509L798.967 719.01L799.092 721.136L799.217 723.636L799.342 725.762L799.592 728.262L799.717 730.388L799.967 732.889L800.092 735.014L800.217 737.515L800.342 739.64L800.467 742.141L800.592 744.267L800.717 746.767L800.842 748.893L800.967 751.268H822.1V762.146H836.981V738.14H853.487V694.879H862.865V633.863H929.389V855.17H160.734V664.371L203.999 664.246Z" fill="#BDE0F4"/>
<path d="M687.676 731.638H678.423H643.16H633.656V620.484H687.676V731.638Z" fill="#BDE0F4"/>
<path d="M675.797 620.484H645.661V731.638H675.797V620.484Z" fill="#49AAF7"/>
<path d="M675.797 620.484H645.661V625.236H675.797V620.484Z" fill="#BDE0F4"/>
<path d="M675.797 628.987H645.661V633.738H675.797V628.987Z" fill="#BDE0F4"/>
<path d="M675.797 637.614H645.661V642.365H675.797V637.614Z" fill="#BDE0F4"/>
<path d="M675.797 646.116H645.661V650.867H675.797V646.116Z" fill="#BDE0F4"/>
<path d="M675.797 654.743H645.661V659.495H675.797V654.743Z" fill="#BDE0F4"/>
<path d="M639.659 620.484H633.656V625.236H639.659V620.484Z" fill="#BDE0F4"/>
<path d="M639.659 628.987H633.656V633.738H639.659V628.987Z" fill="#BDE0F4"/>
<path d="M639.659 637.614H633.656V642.365H639.659V637.614Z" fill="#BDE0F4"/>
<path d="M639.659 646.116H633.656V650.867H639.659V646.116Z" fill="#BDE0F4"/>
<path d="M639.659 654.743H633.656V659.495H639.659V654.743Z" fill="#BDE0F4"/>
<path d="M687.676 620.484H681.674V625.236H687.676V620.484Z" fill="#BDE0F4"/>
<path d="M687.676 628.987H681.674V633.738H687.676V628.987Z" fill="#BDE0F4"/>
<path d="M687.676 637.614H681.674V642.365H687.676V637.614Z" fill="#BDE0F4"/>
<path d="M687.676 646.116H681.674V650.867H687.676V646.116Z" fill="#BDE0F4"/>
<path d="M687.676 654.743H681.674V659.495H687.676V654.743Z" fill="#BDE0F4"/>
<path d="M633.656 620.484H613.149V731.638H633.656V620.484Z" fill="#49AAF7"/>
<path d="M627.154 620.484H618.526V727.887H627.154V620.484Z" fill="#49AAF7"/>
<path d="M627.154 620.484H618.526V625.236H627.154V620.484Z" fill="#49AAF7"/>
<path d="M627.154 628.987H618.526V633.738H627.154V628.987Z" fill="#49AAF7"/>
<path d="M627.154 637.614H618.526V642.365H627.154V637.614Z" fill="#49AAF7"/>
<path d="M627.154 646.116H618.526V650.867H627.154V646.116Z" fill="#49AAF7"/>
<path d="M627.154 654.743H618.526V659.495H627.154V654.743Z" fill="#49AAF7"/>
<path d="M662.417 620.484H658.916V727.887H662.417V620.484Z" fill="#49AAF7"/>
<path d="M687.801 613.733H613.149V620.485H687.801V613.733Z" fill="#BDE0F4"/>
<path d="M687.801 613.483H613.149V613.733H687.801V613.483Z" fill="#BDE0F4"/>
<path d="M633.656 613.733H613.149V620.485H633.656V613.733Z" fill="#BDE0F4"/>
<path d="M633.656 613.483H613.149V613.733H633.656V613.483Z" fill="#BDE0F4"/>
<path d="M612.899 592.977H575.26V851.169H612.899V592.977Z" fill="#BDE0F4"/>
<path d="M575.26 592.977H521.991V851.169H575.26V592.977Z" fill="#BDE0F4"/>
<path d="M612.774 592.977H575.26V851.169H612.774V592.977Z" fill="#BDE0F4"/>
<path d="M575.26 592.977H521.991V851.169H575.26V592.977Z" fill="#003659"/>
<path d="M578.136 596.353H564.131V601.104H578.136V596.353Z" fill="#BDE0F4"/>
<path d="M530.619 596.353H516.614V601.104H530.619V596.353Z" fill="#BDE0F4"/>
<path d="M588.015 596.353H578.011V601.104H588.015V596.353Z" fill="#BDE0F4"/>
<path d="M617.776 596.353H607.772V601.104H617.776V596.353Z" fill="#BDE0F4"/>
<path d="M578.136 604.605H564.131V609.357H578.136V604.605Z" fill="#BDE0F4"/>
<path d="M530.619 604.605H516.614V609.357H530.619V604.605Z" fill="#BDE0F4"/>
<path d="M588.015 604.605H578.011V609.357H588.015V604.605Z" fill="#BDE0F4"/>
<path d="M617.776 604.605H607.772V609.357H617.776V604.605Z" fill="#BDE0F4"/>
<path d="M578.136 612.858H564.131V617.609H578.136V612.858Z" fill="#BDE0F4"/>
<path d="M530.619 612.858H516.614V617.609H530.619V612.858Z" fill="#BDE0F4"/>
<path d="M588.015 612.858H578.011V617.609H588.015V612.858Z" fill="#BDE0F4"/>
<path d="M617.776 612.858H607.772V617.609H617.776V612.858Z" fill="#BDE0F4"/>
<path d="M578.136 621.11H564.131V625.861H578.136V621.11Z" fill="#BDE0F4"/>
<path d="M530.619 621.11H516.614V625.861H530.619V621.11Z" fill="#BDE0F4"/>
<path d="M588.015 621.11H578.011V625.861H588.015V621.11Z" fill="#BDE0F4"/>
<path d="M617.776 621.11H607.772V625.861H617.776V621.11Z" fill="#BDE0F4"/>
<path d="M578.136 629.362H564.131V634.113H578.136V629.362Z" fill="#BDE0F4"/>
<path d="M530.619 629.362H516.614V634.113H530.619V629.362Z" fill="#BDE0F4"/>
<path d="M588.015 629.362H578.011V634.113H588.015V629.362Z" fill="#BDE0F4"/>
<path d="M617.776 629.362H607.772V634.113H617.776V629.362Z" fill="#BDE0F4"/>
<path d="M578.136 637.489H564.131V642.24H578.136V637.489Z" fill="#BDE0F4"/>
<path d="M530.619 637.489H516.614V642.24H530.619V637.489Z" fill="#BDE0F4"/>
<path d="M588.015 637.489H578.011V642.24H588.015V637.489Z" fill="#BDE0F4"/>
<path d="M617.776 637.489H607.772V642.24H617.776V637.489Z" fill="#BDE0F4"/>
<path d="M578.136 645.741H564.131V650.492H578.136V645.741Z" fill="#BDE0F4"/>
<path d="M530.619 645.741H516.614V650.492H530.619V645.741Z" fill="#BDE0F4"/>
<path d="M588.015 645.741H578.011V650.492H588.015V645.741Z" fill="#BDE0F4"/>
<path d="M617.776 645.741H607.772V650.492H617.776V645.741Z" fill="#BDE0F4"/>
<path d="M578.136 653.993H564.131V658.744H578.136V653.993Z" fill="#BDE0F4"/>
<path d="M530.619 653.993H516.614V658.744H530.619V653.993Z" fill="#BDE0F4"/>
<path d="M588.015 653.993H578.011V658.744H588.015V653.993Z" fill="#BDE0F4"/>
<path d="M617.776 653.993H607.772V658.744H617.776V653.993Z" fill="#BDE0F4"/>
<path d="M557.128 592.977H536.246V847.043H557.128V592.977Z" fill="#003659"/>
<path d="M604.146 592.977H591.141V847.918H604.146V592.977Z" fill="#003659"/>
<path d="M468.299 720.841H456.608H412.058H400.051V580.411H468.299V720.841Z" fill="#BDE0F4"/>
<path d="M453.291 580.411H415.217V720.841H453.291V580.411Z" fill="#49AAF7"/>
<path d="M453.291 580.411H415.217V586.414H453.291V580.411Z" fill="#BDE0F4"/>
<path d="M453.291 591.153H415.217V597.155H453.291V591.153Z" fill="#BDE0F4"/>
<path d="M453.291 602.052H415.217V608.055H453.291V602.052Z" fill="#BDE0F4"/>
<path d="M453.291 612.794H415.217V618.796H453.291V612.794Z" fill="#BDE0F4"/>
<path d="M453.291 623.693H415.217V629.696H453.291V623.693Z" fill="#BDE0F4"/>
<path d="M453.291 634.435H415.217V640.437H453.291V634.435Z" fill="#BDE0F4"/>
<path d="M453.291 645.334H415.217V651.337H453.291V645.334Z" fill="#BDE0F4"/>
<path d="M407.634 580.411H400.051V586.414H407.634V580.411Z" fill="#BDE0F4"/>
<path d="M407.634 591.153H400.051V597.155H407.634V591.153Z" fill="#BDE0F4"/>
<path d="M407.634 602.052H400.051V608.055H407.634V602.052Z" fill="#BDE0F4"/>
<path d="M407.634 612.794H400.051V618.796H407.634V612.794Z" fill="#BDE0F4"/>
<path d="M407.634 623.693H400.051V629.696H407.634V623.693Z" fill="#BDE0F4"/>
<path d="M407.634 634.435H400.051V640.437H407.634V634.435Z" fill="#BDE0F4"/>
<path d="M407.634 645.334H400.051V651.337H407.634V645.334Z" fill="#BDE0F4"/>
<path d="M468.299 580.411H460.716V586.414H468.299V580.411Z" fill="#BDE0F4"/>
<path d="M468.299 591.153H460.716V597.155H468.299V591.153Z" fill="#BDE0F4"/>
<path d="M468.299 602.052H460.716V608.055H468.299V602.052Z" fill="#BDE0F4"/>
<path d="M468.299 612.794H460.716V618.796H468.299V612.794Z" fill="#BDE0F4"/>
<path d="M468.299 623.693H460.716V629.696H468.299V623.693Z" fill="#BDE0F4"/>
<path d="M468.299 634.435H460.716V640.437H468.299V634.435Z" fill="#BDE0F4"/>
<path d="M468.299 645.334H460.716V651.337H468.299V645.334Z" fill="#BDE0F4"/>
<path d="M400.051 580.411H374.142V720.841H400.051V580.411Z" fill="#49AAF7"/>
<path d="M391.836 580.411H380.936V716.102H391.836V580.411Z" fill="#49AAF7"/>
<path d="M391.836 580.411H380.936V586.414H391.836V580.411Z" fill="#49AAF7"/>
<path d="M391.836 591.153H380.936V597.155H391.836V591.153Z" fill="#49AAF7"/>
<path d="M391.836 602.052H380.936V608.055H391.836V602.052Z" fill="#49AAF7"/>
<path d="M391.836 612.794H380.936V618.796H391.836V612.794Z" fill="#49AAF7"/>
<path d="M391.836 623.693H380.936V629.696H391.836V623.693Z" fill="#49AAF7"/>
<path d="M391.836 634.435H380.936V640.437H391.836V634.435Z" fill="#49AAF7"/>
<path d="M391.836 645.334H380.936V651.337H391.836V645.334Z" fill="#49AAF7"/>
<path d="M436.387 580.411H431.963V716.102H436.387V580.411Z" fill="#49AAF7"/>
<path d="M468.457 571.881H374.142V580.412H468.457V571.881Z" fill="#BDE0F4"/>
<path d="M468.457 571.565H374.142V571.881H468.457V571.565Z" fill="#BDE0F4"/>
<path d="M400.051 571.881H374.142V580.412H400.051V571.881Z" fill="#BDE0F4"/>
<path d="M400.051 571.565H374.142V571.881H400.051V571.565Z" fill="#BDE0F4"/>
<path d="M373.826 545.659H326.274V871.855H373.826V545.659Z" fill="#BDE0F4"/>
<path d="M326.274 545.659H258.974V871.855H326.274V545.659Z" fill="#BDE0F4"/>
<path d="M373.668 545.659H326.274V871.855H373.668V545.659Z" fill="#BDE0F4"/>
<path d="M326.274 545.659H258.974V871.855H326.274V545.659Z" fill="#003659"/>
<path d="M329.908 549.924H312.214V555.927H329.908V549.924Z" fill="#BDE0F4"/>
<path d="M269.875 549.924H252.181V555.927H269.875V549.924Z" fill="#BDE0F4"/>
<path d="M342.388 549.924H329.75V555.927H342.388V549.924Z" fill="#BDE0F4"/>
<path d="M379.988 549.924H367.349V555.927H379.988V549.924Z" fill="#BDE0F4"/>
<path d="M329.908 560.35H312.214V566.352H329.908V560.35Z" fill="#BDE0F4"/>
<path d="M269.875 560.35H252.181V566.352H269.875V560.35Z" fill="#BDE0F4"/>
<path d="M342.388 560.35H329.75V566.352H342.388V560.35Z" fill="#BDE0F4"/>
<path d="M379.988 560.35H367.349V566.352H379.988V560.35Z" fill="#BDE0F4"/>
<path d="M329.908 570.775H312.214V576.778H329.908V570.775Z" fill="#BDE0F4"/>
<path d="M269.875 570.775H252.181V576.778H269.875V570.775Z" fill="#BDE0F4"/>
<path d="M342.388 570.775H329.75V576.778H342.388V570.775Z" fill="#BDE0F4"/>
<path d="M379.988 570.775H367.349V576.778H379.988V570.775Z" fill="#BDE0F4"/>
<path d="M329.908 581.201H312.214V587.204H329.908V581.201Z" fill="#BDE0F4"/>
<path d="M269.875 581.201H252.181V587.204H269.875V581.201Z" fill="#BDE0F4"/>
<path d="M342.388 581.201H329.75V587.204H342.388V581.201Z" fill="#BDE0F4"/>
<path d="M379.988 581.201H367.349V587.204H379.988V581.201Z" fill="#BDE0F4"/>
<path d="M329.908 591.626H312.214V597.629H329.908V591.626Z" fill="#BDE0F4"/>
<path d="M269.875 591.627H252.181V597.629H269.875V591.627Z" fill="#BDE0F4"/>
<path d="M342.388 591.626H329.75V597.629H342.388V591.626Z" fill="#BDE0F4"/>
<path d="M379.988 591.626H367.349V597.629H379.988V591.626Z" fill="#BDE0F4"/>
<path d="M329.908 601.894H312.214V607.897H329.908V601.894Z" fill="#BDE0F4"/>
<path d="M269.875 601.894H252.181V607.897H269.875V601.894Z" fill="#BDE0F4"/>
<path d="M342.388 601.894H329.75V607.897H342.388V601.894Z" fill="#BDE0F4"/>
<path d="M379.988 601.894H367.349V607.897H379.988V601.894Z" fill="#BDE0F4"/>
<path d="M329.908 612.32H312.214V618.323H329.908V612.32Z" fill="#BDE0F4"/>
<path d="M269.875 612.32H252.181V618.323H269.875V612.32Z" fill="#BDE0F4"/>
<path d="M342.388 612.32H329.75V618.323H342.388V612.32Z" fill="#BDE0F4"/>
<path d="M379.988 612.32H367.349V618.323H379.988V612.32Z" fill="#BDE0F4"/>
<path d="M329.908 622.745H312.214V628.748H329.908V622.745Z" fill="#BDE0F4"/>
<path d="M269.875 622.745H252.181V628.748H269.875V622.745Z" fill="#BDE0F4"/>
<path d="M342.388 622.745H329.75V628.748H342.388V622.745Z" fill="#BDE0F4"/>
<path d="M379.988 622.745H367.349V628.748H379.988V622.745Z" fill="#BDE0F4"/>
<path d="M329.908 633.171H312.214V639.174H329.908V633.171Z" fill="#BDE0F4"/>
<path d="M269.875 633.171H252.181V639.174H269.875V633.171Z" fill="#BDE0F4"/>
<path d="M342.388 633.171H329.75V639.174H342.388V633.171Z" fill="#BDE0F4"/>
<path d="M379.988 633.171H367.349V639.174H379.988V633.171Z" fill="#BDE0F4"/>
<path d="M329.908 643.439H312.214V649.442H329.908V643.439Z" fill="#BDE0F4"/>
<path d="M269.875 643.439H252.181V649.441H269.875V643.439Z" fill="#BDE0F4"/>
<path d="M342.388 643.439H329.75V649.442H342.388V643.439Z" fill="#BDE0F4"/>
<path d="M379.988 643.439H367.349V649.442H379.988V643.439Z" fill="#BDE0F4"/>
<path d="M329.908 653.864H312.214V659.867H329.908V653.864Z" fill="#BDE0F4"/>
<path d="M269.875 653.864H252.181V659.867H269.875V653.864Z" fill="#BDE0F4"/>
<path d="M342.388 653.864H329.75V659.867H342.388V653.864Z" fill="#BDE0F4"/>
<path d="M379.988 653.864H367.349V659.867H379.988V653.864Z" fill="#BDE0F4"/>
<path d="M303.367 545.659H276.984V866.642H303.367V545.659Z" fill="#003659"/>
<path d="M362.768 545.659H346.338V867.748H362.768V545.659Z" fill="#003659"/>
<path d="M1435.46 653.493H1146.86V851.169H1435.46V653.493Z" fill="white"/>
<path d="M272.191 587.519V549.663H197.451V864.713H308.509V616.122L272.191 587.519Z" fill="#49AAF7"/>
<path d="M234.891 587.519V549.662H160.152V864.713H271.069V616.122L234.891 587.519Z" fill="#BDE0F4"/>
<path d="M261.814 587.519V549.662H252.98V587.519L289.298 616.122V864.713H297.992V616.122L261.814 587.519Z" fill="#5566C5"/>
<path d="M166.602 567.609H169.687V864.854H166.602V567.609Z" fill="#49AAF7"/>
<path d="M172.912 567.609H175.997V864.854H172.912V567.609Z" fill="#49AAF7"/>
<path d="M179.082 567.609H182.167V864.854H179.082V567.609Z" fill="#49AAF7"/>
<path d="M185.392 567.609H188.477V864.854H185.392V567.609Z" fill="#49AAF7"/>
<path d="M191.562 567.609H194.646V864.854H191.562V567.609Z" fill="#49AAF7"/>
<path d="M197.732 567.609H200.817V864.854H197.732V567.609Z" fill="#49AAF7"/>
<path d="M204.042 567.609H207.127V864.854H204.042V567.609Z" fill="#49AAF7"/>
<path d="M210.212 567.609H213.297V864.854H210.212V567.609Z" fill="#49AAF7"/>
<path d="M216.522 567.609H219.607V864.854H216.522V567.609Z" fill="#49AAF7"/>
<path d="M222.691 567.609H225.776V864.854H222.691V567.609Z" fill="#49AAF7"/>
<path d="M235.171 602.381H238.256V864.713H235.171V602.381Z" fill="#49AAF7"/>
<path d="M241.342 611.074H244.427V864.713H241.342V611.074Z" fill="#49AAF7"/>
<path d="M247.652 620.468H250.737V864.713H247.652V620.468Z" fill="#49AAF7"/>
<path d="M253.821 629.442H256.906V864.713H253.821V629.442Z" fill="#49AAF7"/>
<path d="M260.132 629.442H263.217V864.713H260.132V629.442Z" fill="#BDE0F4"/>
<path d="M-19.72 668.241H-3.99081H55.9502H72.1045V479.298H-19.72V668.241Z" fill="#BDE0F4"/>
<path d="M0.47253 479.298H51.6987V668.241H0.47253V479.298Z" fill="#49AAF7"/>
<path d="M0.47253 479.298H51.6987V487.375H0.47253V479.298Z" fill="#BDE0F4"/>
<path d="M0.47253 493.751H51.6987V501.827H0.47253V493.751Z" fill="#BDE0F4"/>
<path d="M0.47253 508.416H51.6987V516.492H0.47253V508.416Z" fill="#BDE0F4"/>
<path d="M0.47253 522.868H51.6987V530.944H0.47253V522.868Z" fill="#BDE0F4"/>
<path d="M0.47253 537.533H51.6987V545.609H0.47253V537.533Z" fill="#BDE0F4"/>
<path d="M0.47253 551.985H51.6987V560.061H0.47253V551.985Z" fill="#BDE0F4"/>
<path d="M0.47253 566.65H51.6987V574.726H0.47253V566.65Z" fill="#BDE0F4"/>
<path d="M0.47253 581.102H51.6987V589.179H0.47253V581.102Z" fill="#BDE0F4"/>
<path d="M0.47253 595.555H51.6987V603.631H0.47253V595.555Z" fill="#BDE0F4"/>
<path d="M0.47253 610.219H51.6987V618.296H0.47253V610.219Z" fill="#BDE0F4"/>
<path d="M0.47253 624.672H51.6987V632.748H0.47253V624.672Z" fill="#BDE0F4"/>
<path d="M0.47253 639.337H51.6987V647.413H0.47253V639.337Z" fill="#BDE0F4"/>
<path d="M0.47253 653.789H51.6987V661.865H0.47253V653.789Z" fill="#BDE0F4"/>
<path d="M61.9018 479.298H72.1045V487.375H61.9018V479.298Z" fill="#BDE0F4"/>
<path d="M61.9018 493.751H72.1045V501.827H61.9018V493.751Z" fill="#BDE0F4"/>
<path d="M61.9018 508.416H72.1045V516.492H61.9018V508.416Z" fill="#BDE0F4"/>
<path d="M61.9018 522.868H72.1045V530.944H61.9018V522.868Z" fill="#BDE0F4"/>
<path d="M61.9018 537.533H72.1045V545.609H61.9018V537.533Z" fill="#BDE0F4"/>
<path d="M61.9018 551.985H72.1045V560.061H61.9018V551.985Z" fill="#BDE0F4"/>
<path d="M61.9018 566.65H72.1045V574.726H61.9018V566.65Z" fill="#BDE0F4"/>
<path d="M61.9018 581.102H72.1045V589.179H61.9018V581.102Z" fill="#BDE0F4"/>
<path d="M61.9018 595.555H72.1045V603.631H61.9018V595.555Z" fill="#BDE0F4"/>
<path d="M61.9018 610.219H72.1045V618.296H61.9018V610.219Z" fill="#BDE0F4"/>
<path d="M61.9018 624.672H72.1045V632.748H61.9018V624.672Z" fill="#BDE0F4"/>
<path d="M61.9018 639.337H72.1045V647.413H61.9018V639.337Z" fill="#BDE0F4"/>
<path d="M61.9018 653.789H72.1045V661.865H61.9018V653.789Z" fill="#BDE0F4"/>
<path d="M72.1043 479.298H106.964V668.241H72.1043V479.298Z" fill="#49AAF7"/>
<path d="M83.1573 479.298H97.8237V661.865H83.1573V479.298Z" fill="#49AAF7"/>
<path d="M83.1573 479.298H97.8237V487.375H83.1573V479.298Z" fill="#49AAF7"/>
<path d="M83.1573 493.751H97.8237V501.827H83.1573V493.751Z" fill="#49AAF7"/>
<path d="M83.1573 508.416H97.8237V516.492H83.1573V508.416Z" fill="#49AAF7"/>
<path d="M83.1573 522.868H97.8237V530.944H83.1573V522.868Z" fill="#49AAF7"/>
<path d="M83.1573 537.533H97.8237V545.609H83.1573V537.533Z" fill="#49AAF7"/>
<path d="M83.1573 551.985H97.8237V560.061H83.1573V551.985Z" fill="#49AAF7"/>
<path d="M83.1573 566.65H97.8237V574.726H83.1573V566.65Z" fill="#49AAF7"/>
<path d="M83.1573 581.102H97.8237V589.179H83.1573V581.102Z" fill="#49AAF7"/>
<path d="M83.1573 595.555H97.8237V603.631H83.1573V595.555Z" fill="#49AAF7"/>
<path d="M83.1573 610.219H97.8237V618.296H83.1573V610.219Z" fill="#49AAF7"/>
<path d="M83.1573 624.672H97.8237V632.748H83.1573V624.672Z" fill="#49AAF7"/>
<path d="M83.1573 639.337H97.8237V647.413H83.1573V639.337Z" fill="#49AAF7"/>
<path d="M83.1573 653.789H97.8237V661.865H83.1573V653.789Z" fill="#49AAF7"/>
<path d="M23.2161 479.298H29.1677V661.865H23.2161V479.298Z" fill="#49AAF7"/>
<path d="M-19.9328 467.822H106.964V479.299H-19.9328V467.822Z" fill="#BDE0F4"/>
<path d="M-19.9328 467.396H106.964V467.821H-19.9328V467.396Z" fill="#BDE0F4"/>
<path d="M72.1043 467.822H106.964V479.299H72.1043V467.822Z" fill="#BDE0F4"/>
<path d="M72.1043 467.396H106.964V467.821H72.1043V467.396Z" fill="#BDE0F4"/>
<path d="M107.389 432.541H171.368V871.424H107.389V432.541Z" fill="#BDE0F4"/>
<path d="M171.368 432.541H261.917V871.424H171.368V432.541Z" fill="#BDE0F4"/>
<path d="M107.601 432.541H171.368V871.424H107.601V432.541Z" fill="#BDE0F4"/>
<path d="M171.368 432.541H261.917V871.424H171.368V432.541Z" fill="#003659"/>
<path d="M166.48 438.279H190.286V446.355H166.48V438.279Z" fill="#BDE0F4"/>
<path d="M247.251 438.279H271.057V446.355H247.251V438.279Z" fill="#BDE0F4"/>
<path d="M149.687 438.279H166.692V446.355H149.687V438.279Z" fill="#BDE0F4"/>
<path d="M99.099 438.279H116.104V446.355H99.099V438.279Z" fill="#BDE0F4"/>
<path d="M166.48 452.307H190.286V460.383H166.48V452.307Z" fill="#BDE0F4"/>
<path d="M247.251 452.307H271.057V460.383H247.251V452.307Z" fill="#BDE0F4"/>
<path d="M149.687 452.307H166.692V460.383H149.687V452.307Z" fill="#BDE0F4"/>
<path d="M99.099 452.307H116.104V460.383H99.099V452.307Z" fill="#BDE0F4"/>
<path d="M166.48 466.333H190.286V474.41H166.48V466.333Z" fill="#BDE0F4"/>
<path d="M247.251 466.334H271.057V474.41H247.251V466.334Z" fill="#BDE0F4"/>
<path d="M149.687 466.333H166.692V474.41H149.687V466.333Z" fill="#BDE0F4"/>
<path d="M99.099 466.333H116.104V474.41H99.099V466.333Z" fill="#BDE0F4"/>
<path d="M166.48 480.361H190.286V488.437H166.48V480.361Z" fill="#BDE0F4"/>
<path d="M247.251 480.361H271.057V488.437H247.251V480.361Z" fill="#BDE0F4"/>
<path d="M149.687 480.361H166.692V488.437H149.687V480.361Z" fill="#BDE0F4"/>
<path d="M99.099 480.361H116.104V488.437H99.099V480.361Z" fill="#BDE0F4"/>
<path d="M166.48 494.388H190.286V502.465H166.48V494.388Z" fill="#BDE0F4"/>
<path d="M247.251 494.388H271.057V502.465H247.251V494.388Z" fill="#BDE0F4"/>
<path d="M149.687 494.388H166.692V502.465H149.687V494.388Z" fill="#BDE0F4"/>
<path d="M99.099 494.388H116.104V502.465H99.099V494.388Z" fill="#BDE0F4"/>
<path d="M166.48 508.203H190.286V516.279H166.48V508.203Z" fill="#BDE0F4"/>
<path d="M247.251 508.203H271.057V516.279H247.251V508.203Z" fill="#BDE0F4"/>
<path d="M149.687 508.203H166.692V516.279H149.687V508.203Z" fill="#BDE0F4"/>
<path d="M99.099 508.203H116.104V516.279H99.099V508.203Z" fill="#BDE0F4"/>
<path d="M166.48 522.23H190.286V530.307H166.48V522.23Z" fill="#BDE0F4"/>
<path d="M247.251 522.23H271.057V530.307H247.251V522.23Z" fill="#BDE0F4"/>
<path d="M149.687 522.23H166.692V530.307H149.687V522.23Z" fill="#BDE0F4"/>
<path d="M99.099 522.23H116.104V530.307H99.099V522.23Z" fill="#BDE0F4"/>
<path d="M166.48 536.258H190.286V544.334H166.48V536.258Z" fill="#BDE0F4"/>
<path d="M247.251 536.257H271.057V544.334H247.251V536.257Z" fill="#BDE0F4"/>
<path d="M149.687 536.258H166.692V544.334H149.687V536.258Z" fill="#BDE0F4"/>
<path d="M99.099 536.258H116.104V544.334H99.099V536.258Z" fill="#BDE0F4"/>
<path d="M166.48 550.285H190.286V558.361H166.48V550.285Z" fill="#BDE0F4"/>
<path d="M247.251 550.285H271.057V558.361H247.251V550.285Z" fill="#BDE0F4"/>
<path d="M149.687 550.285H166.692V558.361H149.687V550.285Z" fill="#BDE0F4"/>
<path d="M99.099 550.285H116.104V558.361H99.099V550.285Z" fill="#BDE0F4"/>
<path d="M166.48 564.099H190.286V572.176H166.48V564.099Z" fill="#BDE0F4"/>
<path d="M247.251 564.099H271.057V572.176H247.251V564.099Z" fill="#BDE0F4"/>
<path d="M149.687 564.099H166.692V572.176H149.687V564.099Z" fill="#BDE0F4"/>
<path d="M99.099 564.099H116.104V572.176H99.099V564.099Z" fill="#BDE0F4"/>
<path d="M166.48 578.127H190.286V586.203H166.48V578.127Z" fill="#BDE0F4"/>
<path d="M247.251 578.126H271.057V586.203H247.251V578.126Z" fill="#BDE0F4"/>
<path d="M149.687 578.127H166.692V586.203H149.687V578.127Z" fill="#BDE0F4"/>
<path d="M99.099 578.127H116.104V586.203H99.099V578.127Z" fill="#BDE0F4"/>
<path d="M166.48 592.154H190.286V600.231H166.48V592.154Z" fill="#BDE0F4"/>
<path d="M247.251 592.154H271.057V600.23H247.251V592.154Z" fill="#BDE0F4"/>
<path d="M149.687 592.154H166.692V600.231H149.687V592.154Z" fill="#BDE0F4"/>
<path d="M99.099 592.154H116.104V600.231H99.099V592.154Z" fill="#BDE0F4"/>
<path d="M166.48 606.181H190.286V614.257H166.48V606.181Z" fill="#BDE0F4"/>
<path d="M247.251 606.181H271.057V614.257H247.251V606.181Z" fill="#BDE0F4"/>
<path d="M149.687 606.181H166.692V614.257H149.687V606.181Z" fill="#BDE0F4"/>
<path d="M99.099 606.181H116.104V614.257H99.099V606.181Z" fill="#BDE0F4"/>
<path d="M166.48 620.209H190.286V628.285H166.48V620.209Z" fill="#BDE0F4"/>
<path d="M247.251 620.209H271.057V628.285H247.251V620.209Z" fill="#BDE0F4"/>
<path d="M149.687 620.209H166.692V628.285H149.687V620.209Z" fill="#BDE0F4"/>
<path d="M99.099 620.209H116.104V628.285H99.099V620.209Z" fill="#BDE0F4"/>
<path d="M166.48 634.023H190.286V642.1H166.48V634.023Z" fill="#BDE0F4"/>
<path d="M247.251 634.023H271.057V642.1H247.251V634.023Z" fill="#BDE0F4"/>
<path d="M149.687 634.023H166.692V642.1H149.687V634.023Z" fill="#BDE0F4"/>
<path d="M99.099 634.023H116.104V642.1H99.099V634.023Z" fill="#BDE0F4"/>
<path d="M166.48 648.051H190.286V656.127H166.48V648.051Z" fill="#BDE0F4"/>
<path d="M247.251 648.051H271.057V656.127H247.251V648.051Z" fill="#BDE0F4"/>
<path d="M149.687 648.051H166.692V656.127H149.687V648.051Z" fill="#BDE0F4"/>
<path d="M99.099 648.051H116.104V656.127H99.099V648.051Z" fill="#BDE0F4"/>
<path d="M202.189 432.541H237.686V864.41H202.189V432.541Z" fill="#003659"/>
<path d="M122.268 432.541H144.374V865.898H122.268V432.541Z" fill="#003659"/>
<path d="M-36.5733 439.421V394H-126.247V772.004H7.00183V473.739L-36.5733 439.421Z" fill="#49AAF7"/>
<path d="M244.135 488.861V437.927H344.694V861.815H195.271V527.345L244.135 488.861Z" fill="#49AAF7"/>
<path d="M294.32 488.861V437.927H394.88V861.815H245.645V527.345L294.32 488.861Z" fill="#BDE0F4"/>
<path d="M258.097 488.861V437.927H269.983V488.861L221.118 527.345V861.815H209.421V527.345L258.097 488.861Z" fill="#5566C5"/>
<path d="M386.201 462.074H382.05V862.004H386.201V462.074Z" fill="#49AAF7"/>
<path d="M377.711 462.074H373.561V862.004H377.711V462.074Z" fill="#49AAF7"/>
<path d="M369.41 462.074H365.259V862.004H369.41V462.074Z" fill="#49AAF7"/>
<path d="M360.92 462.074H356.769V862.004H360.92V462.074Z" fill="#49AAF7"/>
<path d="M352.619 462.074H348.468V862.004H352.619V462.074Z" fill="#49AAF7"/>
<path d="M344.317 462.074H340.166V862.004H344.317V462.074Z" fill="#49AAF7"/>
<path d="M335.827 462.074H331.677V862.004H335.827V462.074Z" fill="#49AAF7"/>
<path d="M327.526 462.074H323.375V862.004H327.526V462.074Z" fill="#49AAF7"/>
<path d="M319.036 462.074H314.885V862.004H319.036V462.074Z" fill="#49AAF7"/>
<path d="M310.735 462.074H306.584V862.004H310.735V462.074Z" fill="#49AAF7"/>
<path d="M293.944 508.858H289.793V861.815H293.944V508.858Z" fill="#49AAF7"/>
<path d="M285.642 520.554H281.491V861.815H285.642V520.554Z" fill="#49AAF7"/>
<path d="M277.152 533.193H273.001V861.815H277.152V533.193Z" fill="#49AAF7"/>
<path d="M268.851 545.266H264.7V861.815H268.851V545.266Z" fill="#49AAF7"/>
<path d="M260.36 545.266H256.21V861.815H260.36V545.266Z" fill="#BDE0F4"/>
<path d="M1113.72 59.8396H941.158V851.545H1113.72V59.8396Z" fill="#49D8F7"/>
<path d="M1248.39 59.8396H1113.72V851.545H1248.39V59.8396Z" fill="#003659"/>
<path d="M1248.27 139.11H1132.1V851.545H1248.27V139.11Z" fill="#C0BDF4"/>
<path d="M1203.63 59.8396H1141.48V851.545H1203.63V59.8396Z" fill="#49D8F7"/>
<path d="M1355.56 59.8396H1176.12V851.545H1355.56V59.8396Z" fill="#003659"/>
<g opacity="0.23">
<path d="M1113.72 88.2219H941.157V114.354H1113.72V88.2219Z" fill="#003659"/>
<path d="M1355.43 88.2219H1141.48V114.354H1355.43V88.2219Z" fill="#003659"/>
<path d="M1113.72 139.11H941.157V165.242H1113.72V139.11Z" fill="#003659"/>
<path d="M1355.43 139.11H1141.48V165.242H1355.43V139.11Z" fill="#003659"/>
<path d="M1113.72 189.998H941.157V216.13H1113.72V189.998Z" fill="#003659"/>
<path d="M1355.43 189.998H1141.48V216.13H1355.43V189.998Z" fill="#003659"/>
<path d="M1113.72 240.886H941.157V267.018H1113.72V240.886Z" fill="#003659"/>
<path d="M1355.43 240.886H1141.48V267.018H1355.43V240.886Z" fill="#003659"/>
<path d="M1113.72 291.775H941.157V317.906H1113.72V291.775Z" fill="#003659"/>
<path d="M1355.43 291.775H1141.48V317.906H1355.43V291.775Z" fill="#003659"/>
<path d="M1113.72 342.663H941.157V368.795H1113.72V342.663Z" fill="#003659"/>
<path d="M1355.43 342.663H1141.48V368.795H1355.43V342.663Z" fill="#003659"/>
<path d="M1113.72 393.551H941.157V419.683H1113.72V393.551Z" fill="#003659"/>
<path d="M1355.43 393.551H1141.48V419.683H1355.43V393.551Z" fill="#003659"/>
<path d="M1113.72 444.439H941.157V470.571H1113.72V444.439Z" fill="#003659"/>
<path d="M1355.43 444.439H1141.48V470.571H1355.43V444.439Z" fill="#003659"/>
<path d="M1113.72 495.327H941.157V521.459H1113.72V495.327Z" fill="#003659"/>
<path d="M1355.43 495.327H1141.48V521.459H1355.43V495.327Z" fill="#003659"/>
<path d="M1113.72 546.215H941.157V572.347H1113.72V546.215Z" fill="#003659"/>
<path d="M1355.43 546.215H1141.48V572.347H1355.43V546.215Z" fill="#003659"/>
<path d="M1113.72 597.104H941.157V623.11H1113.72V597.104Z" fill="#003659"/>
<path d="M1355.43 597.104H1141.48V623.11H1355.43V597.104Z" fill="#003659"/>
<path d="M1113.72 647.992H941.157V673.999H1113.72V647.992Z" fill="#003659"/>
<path d="M1355.43 647.992H1141.48V673.999H1355.43V647.992Z" fill="#003659"/>
</g>
<path opacity="0.06" d="M1355.43 159.49V429.435L1176.12 843.668V573.723L1355.43 159.49Z" fill="white"/>
<path opacity="0.06" d="M1355.43 636.614V504.83L1205.25 851.545H1262.4L1355.43 636.614Z" fill="white"/>
<g style="mix-blend-mode:multiply" opacity="0.4">
<path d="M1355.56 59.8396H1248.27H1203.63H1176.12H1141.48H1113.72H941.158V88.222V114.354V139.11V165.242V189.998V216.13V240.886V267.018V291.775V317.906V342.663V368.795V393.551V419.683V444.439V470.571V495.327V521.459V546.216V572.347V597.104V623.235V647.992V674.124V698.88V725.012V749.768V775.9V800.656V826.788V851.545H1355.56V59.8396Z" fill="url(#paint11_linear_9_71838)"/>
</g>
<g style="mix-blend-mode:overlay" opacity="0.61">
<path d="M1176.12 59.8396C1176.12 59.8396 1166.74 226.008 1055.57 287.273C969.543 334.536 941.408 478.573 941.408 478.573L941.158 59.8396H1176.12Z" fill="#FEEDC5"/>
</g>
<path d="M1354.54 821.787H1010.79C1010.79 742.141 1062.56 677.624 1126.34 677.624C1134.96 677.624 1143.47 678.875 1151.6 681.125C1160.72 672.248 1170.73 664.871 1181.48 659.495C1195.49 652.368 1210.62 648.492 1226.5 648.492C1297.15 648.367 1354.54 726.012 1354.54 821.787Z" fill="#3D213D"/>
<path d="M1354.54 821.787H1010.79C1010.79 742.141 1062.56 677.624 1126.34 677.624C1134.96 677.624 1143.47 678.875 1151.6 681.125C1160.72 672.248 1170.73 664.871 1181.48 659.495C1195.49 652.368 1210.62 648.492 1226.5 648.492C1297.15 648.367 1354.54 726.012 1354.54 821.787Z" fill="url(#paint12_linear_9_71838)"/>
<path d="M391.568 851.17H160.734V607.356L391.568 582.35V851.17Z" fill="#C0BDF4"/>
<path d="M593.016 717.635C593.016 738.891 588.39 758.896 580.012 777.025H160.734V657.619C176.614 643.741 195.496 633.363 216.379 627.612C227.508 620.485 239.888 615.233 253.142 612.108C274.15 577.599 312.164 554.593 355.555 554.593C381.939 554.593 406.198 563.095 426.081 577.599C434.083 576.223 442.336 575.473 450.84 575.473C463.094 575.473 474.973 576.974 486.353 579.974C547.75 595.728 593.016 651.368 593.016 717.635Z" fill="url(#paint13_linear_9_71838)"/>
<path d="M894.752 812.534C943.785 812.534 983.534 775.084 983.534 728.888C983.534 682.691 943.785 645.241 894.752 645.241C845.718 645.241 805.969 682.691 805.969 728.888C805.969 775.084 845.718 812.534 894.752 812.534Z" fill="#3A95A8"/>
<path d="M898.003 812.535C945.24 812.535 983.534 776.092 983.534 731.138C983.534 686.185 945.24 649.742 898.003 649.742C850.765 649.742 812.471 686.185 812.471 731.138C812.471 776.092 850.765 812.535 898.003 812.535Z" fill="#3A95A8"/>
<path d="M949.022 689.627C949.022 754.644 893.126 807.283 824.101 807.283C792.089 807.283 762.954 795.905 740.821 777.275C715.311 755.77 699.18 724.386 699.18 689.627C699.18 624.611 755.076 571.972 824.101 571.972C858.989 571.972 890.375 585.35 913.134 607.106C935.267 628.237 949.022 657.369 949.022 689.627Z" fill="#AEB11B"/>
<path d="M949.022 689.627C949.022 754.644 893.126 807.283 824.101 807.283C792.089 807.283 762.954 795.905 740.821 777.275C715.311 755.77 699.18 724.386 699.18 689.627C699.18 624.611 755.076 571.972 824.101 571.972C858.989 571.972 890.375 585.35 913.134 607.106C935.267 628.237 949.022 657.369 949.022 689.627Z" fill="url(#paint14_linear_9_71838)"/>
<path d="M913.508 644.241L910.757 643.491C909.007 643.116 906.631 643.616 905.255 644.741L892.001 656.244C890.75 657.369 891 658.62 892.751 659.12L895.502 659.87C897.252 660.245 899.628 659.745 901.004 658.62L914.259 647.117C915.634 645.991 915.259 644.741 913.508 644.241Z" fill="#49AAF7"/>
<path d="M83.8525 609.186L1010.19 373.249C1010.19 373.249 1009.44 371.124 1008.06 367.873C1004.81 359.746 998.436 344.242 993.935 336.365C987.682 325.487 984.681 322.361 984.681 322.361L962.048 317.61L870.765 345.117L91.355 579.928L83.8525 609.186Z" fill="#889EA3"/>
<path d="M957.296 327.238L90.605 582.929L82.1019 609.686L968.05 378.876L957.296 327.238Z" fill="#E21A1A"/>
<path d="M799.462 372.602L840.533 412.124L775.846 428.765L739.909 389.243L799.462 372.602Z" fill="#A1C5CD"/>
<path d="M653.158 417.064L696.617 458.233L628.169 475.567L590.142 434.398L653.158 417.064Z" fill="#A1C5CD"/>
<path d="M516.238 456.846L549.19 488.134L497.29 501.308L468.457 470.02L516.238 456.846Z" fill="#A1C5CD"/>
<path d="M414.444 486.097L447.396 517.385L395.496 530.559L366.662 499.271L414.444 486.097Z" fill="#A1C5CD"/>
<path d="M314.989 515.349L347.942 546.637L296.042 559.811L267.208 528.523L314.989 515.349Z" fill="#A1C5CD"/>
<path d="M243.807 538.75L267.208 560.981L230.351 570.341L209.876 548.11L243.807 538.75Z" fill="#A1C5CD"/>
<path d="M168.231 559.811L191.155 581.218L155.05 590.232L134.992 568.824L168.231 559.811Z" fill="#A1C5CD"/>
<path d="M119.197 574.436L136.747 596.082L110.505 603.103L95.7955 581.457L119.197 574.436Z" fill="#A1C5CD"/>
<path d="M706.58 405.133L713.583 403.007V413.885L706.58 416.011V405.133Z" fill="#E6E6E6"/>
<path d="M293.179 534.166C293.554 531.541 293.929 528.915 294.429 526.289L328.817 516.162C328.317 518.787 328.067 521.413 328.317 524.164L293.179 534.166Z" fill="#E6E6E6"/>
<path d="M185.514 564.924L97.6072 590.056L98.6076 583.804L186.39 558.047C186.14 560.298 185.889 562.548 185.514 564.924Z" fill="#E6E6E6"/>
<path d="M236.158 550.421L216.901 555.922C217.276 553.546 217.526 551.171 217.776 548.795L237.658 542.919C237.158 545.419 236.658 547.92 236.158 550.421Z" fill="#E6E6E6"/>
<path d="M243.536 541.168L257.916 536.917C257.291 539.543 256.666 542.043 256.04 544.669L241.91 548.67C242.41 546.294 242.911 543.669 243.536 541.168Z" fill="#E6E6E6"/>
<path d="M263.543 535.291L288.677 527.914C288.302 530.54 287.927 533.041 287.677 535.666L261.792 543.043C262.292 540.543 262.918 537.917 263.543 535.291Z" fill="#E6E6E6"/>
<path d="M366.205 505.158L381.711 500.657C381.211 503.533 380.96 506.284 380.835 509.16L365.455 513.536C365.83 510.66 365.955 507.909 366.205 505.158Z" fill="#E6E6E6"/>
<path d="M391.339 497.782L399.217 495.406C398.967 498.282 398.592 501.158 398.342 504.033L390.089 506.409C390.214 503.408 390.589 500.407 391.339 497.782Z" fill="#E6E6E6"/>
<path d="M402.969 494.281L410.597 492.03C410.597 493.531 410.597 495.031 410.722 496.656C410.722 497.907 410.722 499.282 410.722 500.532L402.219 502.908C402.344 500.032 402.719 497.157 402.969 494.281Z" fill="#E6E6E6"/>
<path d="M424.352 488.029L431.104 486.029C430.729 488.905 430.604 491.905 430.604 494.781L423.602 496.782C423.977 493.906 424.227 491.03 424.352 488.029Z" fill="#E6E6E6"/>
<path d="M442.984 482.528L466.617 475.651C466.242 478.652 466.242 481.652 466.242 484.653L441.983 491.53C442.233 488.654 442.608 485.653 442.984 482.528Z" fill="#E6E6E6"/>
<path d="M502.255 465.148L516.01 461.147C515.76 464.398 515.385 467.649 514.76 470.775L501.505 474.526C501.505 471.4 501.755 468.274 502.255 465.148Z" fill="#E6E6E6"/>
<path d="M519.636 460.022L531.266 456.646C531.266 459.897 531.141 463.023 530.891 466.274L518.636 469.775C519.136 466.524 519.511 463.273 519.636 460.022Z" fill="#E6E6E6"/>
<path d="M534.892 455.521L594.789 437.891V447.894L534.517 465.148C534.767 461.897 534.892 458.772 534.892 455.521Z" fill="#E6E6E6"/>
<path d="M612.796 432.64L639.805 424.763V435.015L612.796 442.767V432.64Z" fill="#E6E6E6"/>
<path d="M650.934 421.387L688.573 410.384V421.137L650.934 431.89V421.387Z" fill="#E6E6E6"/>
<path d="M717.208 402.007L728.337 398.756V409.759L717.208 412.885V402.007Z" fill="#E6E6E6"/>
<path d="M740.217 406.383V395.255L780.732 383.377V394.88L763.976 399.631V396.005C763.976 393.63 760.349 393.63 760.349 396.005V400.632L740.217 406.383Z" fill="#E6E6E6"/>
<path d="M870.765 345.117L971.426 366.373L1008.06 367.873C1004.81 359.746 998.436 344.242 993.935 336.365C987.682 325.487 984.681 322.361 984.681 322.361L962.048 317.61L870.765 345.117Z" fill="#FBD5A2"/>
<path d="M962.048 317.61C962.048 317.61 971.051 349.243 973.302 352.244C974.427 353.744 982.305 355.495 989.683 356.745C996.811 357.996 1003.56 358.996 1003.56 358.996C1003.56 358.996 997.186 336.99 984.681 322.361L974.302 320.236L962.048 317.61Z" fill="#3D213D"/>
<path d="M1000.83 350.371L1003.76 359.147L989.715 356.807L984.449 349.201L1000.83 350.371Z" fill="#89CFE1"/>
<path d="M592.413 429.014L589.912 486.279L576.907 489.405L582.034 432.14L592.413 429.014Z" fill="#3D213D"/>
<path d="M352.45 501.283L348.074 547.295L340.321 545.044L344.698 503.658L352.45 501.283Z" fill="#3D213D"/>
<path d="M196.268 548.42L190.516 583.429L185.639 584.804L192.267 549.545L196.268 548.42Z" fill="#3D213D"/>
<path d="M1007 365.446L984.117 362.438L974.135 355.796L969.426 326.97L877.696 362.94L878.544 383.368L871.103 384.37L869.597 358.804L864.888 360.684L867.525 398.658L693.577 460.695L693.107 476.737L1007.85 368.203L1007 365.446Z" fill="#ED6F01"/>
<path d="M872.516 356.222L833.513 367.916L837.799 407.704L969.239 373.478L872.516 356.222Z" fill="#E21A1A"/>
<path d="M909.518 336.331L958.708 383.263L909.518 393.663L866.477 346.731L909.518 336.331Z" fill="#A1C5CD"/>
<path d="M954.545 331.614L959.797 355.995L898.65 348.243L954.545 331.614Z" fill="#FBD5A2"/>
<path d="M962.048 317.61C962.048 317.61 971.051 349.243 973.302 352.244C974.427 353.744 982.305 355.495 989.683 356.745L962.048 317.61Z" fill="#E21A1A"/>
<path d="M987.375 325.8L965.729 323.46L962.803 317.61L985.034 322.29L987.375 325.8Z" fill="#607785"/>
<path d="M543.895 448.394L496.628 462.648V490.905L498.754 489.655V463.773L544.146 449.519L543.895 448.394Z" fill="#E6E6E6"/>
<path d="M780.732 379.376V381.251L736.466 393.88L737.091 416.636H735.84L735.465 392.629L780.732 379.376Z" fill="#E6E6E6"/>
<path d="M893.185 350.371V352.247L848.919 364.875L849.544 387.631H848.294L847.919 363.625L893.185 350.371Z" fill="#E6E6E6"/>
<path d="M668.815 412.385V413.51L648.683 419.637V436.766L647.808 437.891V418.511L668.815 412.385Z" fill="#E6E6E6"/>
<path d="M290.678 523.914L288.677 543.294L286.426 543.794L288.552 524.539L290.678 523.914Z" fill="#E6E6E6"/>
<path d="M250.788 535.667L249.163 555.422L247.162 556.047L248.912 536.167L250.788 535.667Z" fill="#E6E6E6"/>
<path d="M215.525 546.044L213.149 565.299L211.399 566.049L214.15 546.419L215.525 546.044Z" fill="#E6E6E6"/>
<path d="M154.003 564.299L150.377 584.804L148.751 585.554L152.002 564.799L154.003 564.299Z" fill="#E6E6E6"/>
<path d="M856.181 376.888V365.76L896.696 353.882V365.385L879.939 370.136V366.51C879.939 364.134 876.313 364.134 876.313 366.51V371.136L856.181 376.888Z" fill="#E6E6E6"/>
<path d="M821.115 375.469L828.118 373.343V384.221L821.115 386.347V375.469Z" fill="#E6E6E6"/>
<path d="M831.744 372.343L842.873 369.092V380.095L831.744 383.221V372.343Z" fill="#E6E6E6"/>
<g style="mix-blend-mode:screen" opacity="0.61">
<path d="M961.635 318L978.766 376.265L592 429.404L961.635 318Z" fill="#FEEDC5"/>
</g>
<path d="M2574.55 40.3079L-476.944 761.146V775.525L3165.42 125.722V49.6683L2574.55 40.3079Z" fill="#003659"/>
<path opacity="0.24" d="M546.68 589.477L344.606 569.222L614.704 504.83L785.142 546.216L546.68 589.477Z" fill="#FEEDC5"/>
<path d="M2574.55 46.1581L-476.944 761.146V754.269L2428.29 5.2063L2574.55 46.1581Z" fill="#5566C5"/>
<path d="M1316.16 304.154L-476.944 756.895V758.02L1320.25 313.515L1316.16 304.154Z" fill="#3D213D"/>
<path d="M888.865 531.931V558.419L872.641 566.91L847.671 546.252L831.574 534.973V508.484L888.865 531.931Z" fill="#BDD0F4"/>
<path d="M847.671 519.637H908.765V856H847.671V519.637Z" fill="#BDD0F4"/>
<path d="M941.516 855.96H908.814V524.161H941.516V855.96Z" fill="#3A95A8"/>
<path d="M955.664 520.398V546.886L939.313 555.377L914.596 545.238L898.372 523.44V497.078L955.664 520.398Z" fill="#5566C5"/>
<path d="M831.574 508.484L898.372 497.078V523.44L831.574 534.973V508.484Z" fill="#BDD0F4"/>
<path d="M927.018 508.738L941.467 558.166V554.237L955.664 546.886V520.398L927.018 508.738Z" fill="#003659"/>
<path d="M908.765 537.381L847.671 546.252L831.574 534.973L898.372 523.439L908.765 537.381Z" fill="#3D91D4"/>
<path d="M369.365 621.11V639.865L357.861 645.866L340.104 631.237L328.725 623.235V604.481L369.365 621.11Z" fill="#BDD0F4"/>
<path d="M340.104 612.358H383.495V851.17H340.104V612.358Z" fill="#BDD0F4"/>
<path d="M406.757 851.129H383.498L383.498 615.568H406.757V851.129Z" fill="#003659"/>
<path d="M416.757 612.983V631.738L405.128 637.739L387.621 630.612L376.117 614.983V596.354L416.757 612.983Z" fill="#003659"/>
<path d="M328.725 604.481L376.117 596.354V614.983L328.725 623.236V604.481Z" fill="#BDD0F4"/>
<path d="M396.375 604.606L406.753 639.74V636.864L416.757 631.738V612.983L396.375 604.606Z" fill="#003659"/>
<path d="M383.495 624.986L340.104 631.238L328.725 623.236L376.117 614.983L383.495 624.986Z" fill="#3D91D4"/>
<path opacity="0.61" d="M822.905 417.557L825.156 426.81L1365.89 292.454L1347.75 281.339L822.905 417.557Z" fill="#FEEDC5"/>
<path opacity="0.61" d="M848.289 429.685L852.791 449.941L1283.4 349.54L1327.86 311.76L848.289 429.685Z" fill="#FEEDC5"/>
<g style="mix-blend-mode:overlay" opacity="0.58">
<path d="M2729.71 -60.3167H-1043.57V1037.58H2729.71V-60.3167Z" fill="url(#paint15_radial_9_71838)"/>
</g>
<path d="M1213.29 574.992C1221.43 591.276 1235.08 604.446 1247.54 617.617C1257.35 628.153 1267.41 638.45 1277.71 648.507C1269.33 628.632 1262.86 608.038 1257.83 586.726C1256.4 580.74 1265.74 578.106 1267.17 584.092C1273.4 611.151 1282.26 637.013 1294.24 661.917V593.91C1294.24 584.571 1308.6 584.571 1308.6 593.91V639.168C1310.76 638.21 1313.15 637.492 1315.31 636.534C1324.89 632.703 1334.47 628.871 1344.05 625.04C1361.05 618.096 1377.34 609.954 1391.95 598.699C1396.74 594.868 1401.53 603.249 1396.74 607.08C1381.41 618.814 1364.17 626.956 1346.68 634.379C1335.67 638.929 1324.65 643.239 1313.63 647.789C1312.2 648.507 1310.52 649.465 1308.84 650.184V849.416C1308.84 858.755 1294.48 858.755 1294.48 849.416V682.99C1291.6 677.722 1288.97 672.214 1286.33 666.706C1284.9 666.946 1254.24 638.45 1241.07 624.322C1228.14 610.672 1213.77 596.783 1205.39 579.782C1202.51 574.274 1210.65 569.245 1213.29 574.992Z" fill="#3A95A8"/>
<path d="M1136.65 508.183C1136.65 548.891 1145.51 587.205 1161.56 621.927H1964.56C1964.56 621.927 2062.26 614.803 2062.26 520.614C2062.26 408.574 1964.56 393.241 1964.56 393.241C1934.14 366.661 1897.98 346.786 1857.99 335.77C1836.67 322.121 1812.96 312.064 1787.58 306.077C1747.34 239.986 1674.54 195.925 1591.44 195.925C1540.91 195.925 1494.45 212.208 1456.37 239.986C1441.04 237.352 1425.23 235.915 1408.95 235.915C1385.48 235.915 1362.73 238.788 1340.94 244.535C1223.35 274.707 1136.65 381.268 1136.65 508.183Z" fill="url(#paint16_linear_9_71838)"/>
<path d="M37.0001 633.034C37.0001 714.839 107.328 781.069 194.176 781.069C234.453 781.069 271.111 766.753 298.959 743.313C331.055 716.255 351.351 676.768 351.351 633.034C351.351 551.23 281.023 485 194.176 485C150.28 485 110.789 501.833 82.1546 529.206C54.3067 555.792 37.0001 592.447 37.0001 633.034Z" fill="#AEB11B"/>
<path d="M37.0001 633.034C37.0001 714.839 107.328 781.069 194.176 781.069C234.453 781.069 271.111 766.753 298.959 743.313C331.055 716.255 351.351 676.768 351.351 633.034C351.351 551.23 281.023 485 194.176 485C150.28 485 110.789 501.833 82.1546 529.206C54.3067 555.792 37.0001 592.447 37.0001 633.034Z" fill="url(#paint17_linear_9_71838)"/>
<path d="M-141.385 747.557C-141.385 674.726 -91.3228 576 -37.7923 576C-14.3222 576 7.1825 587.329 23.9469 606.173C27.531 605.595 31.1151 605.363 34.8148 605.363C88.3453 605.363 131.817 704.089 131.817 776.92C131.817 779.463 131.702 782.122 131.702 784.666H-136.876C-139.882 772.874 -141.385 760.389 -141.385 747.557Z" fill="url(#paint18_linear_9_71838)"/>
</g>
</g>
</g>
</g>
</g>
<defs>
<filter id="filter0_i_9_71838" x="0" y="0" width="1231" height="659" filterUnits="userSpaceOnUse" color-interpolation-filters="sRGB">
<feFlood flood-opacity="0" result="BackgroundImageFix"/>
<feBlend mode="normal" in="SourceGraphic" in2="BackgroundImageFix" result="shape"/>
<feColorMatrix in="SourceAlpha" type="matrix" values="0 0 0 0 0 0 0 0 0 0 0 0 0 0 0 0 0 0 127 0" result="hardAlpha"/>
<feOffset dx="8" dy="4"/>
<feGaussianBlur stdDeviation="4.5"/>
<feComposite in2="hardAlpha" operator="arithmetic" k2="-1" k3="1"/>
<feColorMatrix type="matrix" values="0 0 0 0 1 0 0 0 0 1 0 0 0 0 1 0 0 0 0.45 0"/>
<feBlend mode="normal" in2="shape" result="effect1_innerShadow_9_71838"/>
</filter>
<linearGradient id="paint0_linear_9_71838" x1="966.624" y1="-55.431" x2="966.624" y2="965.755" gradientUnits="userSpaceOnUse">
<stop stop-color="#51C0E1"/>
<stop offset="0.2622" stop-color="#A9E9F2"/>
<stop offset="0.5627" stop-color="#CCFCE0"/>
<stop offset="0.881" stop-color="#E0F096"/>
<stop offset="1" stop-color="#ECE963"/>
</linearGradient>
<linearGradient id="paint1_linear_9_71838" x1="1196.71" y1="101.663" x2="1196.71" y2="897.903" gradientUnits="userSpaceOnUse">
<stop stop-color="white"/>
<stop offset="1"/>
</linearGradient>
<linearGradient id="paint2_linear_9_71838" x1="-138.412" y1="275.822" x2="-138.412" y2="878.758" gradientUnits="userSpaceOnUse">
<stop stop-color="white"/>
<stop offset="1"/>
</linearGradient>
<linearGradient id="paint3_linear_9_71838" x1="1392.1" y1="766.032" x2="1169.34" y2="629.87" gradientUnits="userSpaceOnUse">
<stop stop-color="#4DB0A5"/>
<stop offset="1" stop-color="#EFCE3D"/>
</linearGradient>
<linearGradient id="paint4_linear_9_71838" x1="870.512" y1="755.658" x2="759.467" y2="719.741" gradientUnits="userSpaceOnUse">
<stop stop-color="#4DB0A5"/>
<stop offset="1" stop-color="#EFCE3D"/>
</linearGradient>
<linearGradient id="paint5_linear_9_71838" x1="631.05" y1="716.166" x2="347.829" y2="546.555" gradientUnits="userSpaceOnUse">
<stop stop-color="#4DB0A5"/>
<stop offset="1" stop-color="#EFCE3D"/>
</linearGradient>
<linearGradient id="paint6_linear_9_71838" x1="1035.82" y1="743.364" x2="834.928" y2="677.637" gradientUnits="userSpaceOnUse">
<stop stop-color="#4DB0A5"/>
<stop offset="1" stop-color="#EFCE3D"/>
</linearGradient>
<radialGradient id="paint7_radial_9_71838" cx="0" cy="0" r="1" gradientUnits="userSpaceOnUse" gradientTransform="translate(97.115 267.424) scale(2231.26 1030.99)">
<stop stop-color="#FEF4DD"/>
<stop offset="1" stop-color="#5E272A"/>
</radialGradient>
<linearGradient id="paint8_linear_9_71838" x1="31.7308" y1="1215.98" x2="392.556" y2="916.477" gradientUnits="userSpaceOnUse">
<stop stop-color="#4DB0A5"/>
<stop offset="1" stop-color="#EFCE3D"/>
</linearGradient>
<linearGradient id="paint9_linear_9_71838" x1="711.736" y1="-60.3255" x2="711.736" y2="960.861" gradientUnits="userSpaceOnUse">
<stop stop-color="#51C0E1"/>
<stop offset="0.2622" stop-color="#A9E9F2"/>
<stop offset="0.5627" stop-color="#CCFCE0"/>
<stop offset="0.881" stop-color="#E0F096"/>
<stop offset="1" stop-color="#ECE963"/>
</linearGradient>
<linearGradient id="paint10_linear_9_71838" x1="-197.727" y1="146.416" x2="-197.727" y2="940.73" gradientUnits="userSpaceOnUse">
<stop stop-color="white"/>
<stop offset="1"/>
</linearGradient>
<linearGradient id="paint11_linear_9_71838" x1="1148.37" y1="103.486" x2="1148.37" y2="933.775" gradientUnits="userSpaceOnUse">
<stop stop-color="white"/>
<stop offset="1"/>
</linearGradient>
<linearGradient id="paint12_linear_9_71838" x1="1230.05" y1="796.265" x2="997.764" y2="654.281" gradientUnits="userSpaceOnUse">
<stop stop-color="#4DB0A5"/>
<stop offset="1" stop-color="#EFCE3D"/>
</linearGradient>
<linearGradient id="paint13_linear_9_71838" x1="436.459" y1="744.267" x2="141.127" y2="567.403" gradientUnits="userSpaceOnUse">
<stop stop-color="#4DB0A5"/>
<stop offset="1" stop-color="#EFCE3D"/>
</linearGradient>
<linearGradient id="paint14_linear_9_71838" x1="858.538" y1="772.628" x2="649.056" y2="704.09" gradientUnits="userSpaceOnUse">
<stop stop-color="#4DB0A5"/>
<stop offset="1" stop-color="#EFCE3D"/>
</linearGradient>
<radialGradient id="paint15_radial_9_71838" cx="0" cy="0" r="1" gradientUnits="userSpaceOnUse" gradientTransform="translate(-91.7886 286.844) scale(2399.3 1108.64)">
<stop stop-color="#FEF4DD"/>
<stop offset="1" stop-color="#5E272A"/>
</radialGradient>
<linearGradient id="paint16_linear_9_71838" x1="1436.49" y1="559.188" x2="2002.11" y2="220.458" gradientUnits="userSpaceOnUse">
<stop stop-color="#4DB0A5"/>
<stop offset="1" stop-color="#EFCE3D"/>
</linearGradient>
<linearGradient id="paint17_linear_9_71838" x1="150.847" y1="737.466" x2="414.417" y2="651.232" gradientUnits="userSpaceOnUse">
<stop stop-color="#4DB0A5"/>
<stop offset="1" stop-color="#EFCE3D"/>
</linearGradient>
<linearGradient id="paint18_linear_9_71838" x1="-51.2026" y1="1017.1" x2="199.809" y2="808.743" gradientUnits="userSpaceOnUse">
<stop stop-color="#4DB0A5"/>
<stop offset="1" stop-color="#EFCE3D"/>
</linearGradient>
<clipPath id="clip0_9_71838">
<rect width="1223" height="655" rx="40" fill="white"/>
</clipPath>
<clipPath id="clip1_9_71838">
<rect width="3500" height="864" fill="white" transform="translate(-781 -9)"/>
</clipPath>
<clipPath id="clip2_9_71838">
<rect width="3927.24" height="1095.14" fill="white" transform="translate(-779 -55.4221)"/>
</clipPath>
<clipPath id="clip3_9_71838">
<rect width="4094.8" height="1089.29" fill="white" transform="translate(-1033.7 -7.64087)"/>
</clipPath>
<clipPath id="clip4_9_71838">
<rect width="4095.18" height="1141.97" fill="white" transform="translate(-1033.89 -60.3167)"/>
</clipPath>
</defs>
</svg>
