<svg width="223" height="48" viewBox="0 0 223 48" fill="none" xmlns="http://www.w3.org/2000/svg">
<g clip-path="url(#clip0_153_9762)">
<path d="M80.7265 0H0V48H80.7265V0Z" fill="#E21A1A"/>
<path d="M52.0003 14.068V14.9438H59.7689C60.2842 14.9438 61.063 14.9438 61.5783 15.4499C62.0936 15.952 62.0936 16.7072 62.0936 17.2132V24.7571C62.0936 25.2593 62.0936 26.0145 61.5783 26.5166C61.063 27.0188 60.2842 27.0188 59.7689 27.0188H56.0164C55.3713 27.0188 54.5256 27.0188 54.2031 26.3259C53.8805 25.6369 54.3329 25.0063 54.7223 24.5041L59.7689 17.9723H52.0003L48.9007 21.9934C48.3815 22.6668 47.9331 23.2507 47.9331 24.002C47.9331 24.7571 48.3461 25.3021 48.9007 26.0184L49.6796 27.0227C50.4505 28.027 51.2293 29.0351 52.2638 29.5373C53.3023 30.0394 54.5295 30.0394 56.2091 30.0394H59.5762C61.5154 30.0394 64.4261 30.0394 66.3653 28.1554C68.3045 26.2675 68.3045 23.5037 68.3045 22.4955V19.4787C68.3045 18.4706 68.3045 15.7068 66.3653 13.8228C64.4261 11.9387 61.5114 11.9387 59.5762 11.9387H54.2031C53.6878 11.9387 53.0387 11.9387 52.5235 12.4409C52.0003 12.9352 52.0003 13.5619 52.0003 14.068Z" fill="white"/>
<path d="M42.6899 17.9684H50.4507L41.1362 30.0394H33.3755L42.6899 17.9684Z" fill="white"/>
<path d="M12.418 20.1016C12.418 19.5994 12.418 18.9727 12.9372 18.4705C13.4564 17.9723 14.0976 17.9723 14.6207 17.9723H27.6208C29.3043 17.9723 30.5316 17.9723 31.5661 18.4705C32.6006 18.9727 33.3755 19.9809 34.1582 20.9852L34.9292 21.9934C35.4799 22.7057 35.9008 23.2507 35.9008 24.002C35.9008 24.7571 35.4523 25.341 34.9292 26.0145L31.8257 30.0394H24.061L29.1077 23.4959C29.4971 22.9977 29.9494 22.3671 29.6269 21.6703C29.3004 20.9774 28.4626 20.9774 27.8096 20.9774H21.7363V36.0652H15.5293V20.9813H12.4219V20.1016H12.418Z" fill="white"/>
<path d="M100.15 17.6803C100.665 16.82 101.039 16.0337 101.275 15.3252C101.511 14.6168 101.672 14.064 101.759 13.6592C101.802 13.4373 101.849 13.1765 101.896 12.8768C101.947 12.5771 101.991 12.2306 102.038 11.8336C102.081 11.4365 102.117 10.9811 102.144 10.4595C102.172 9.93785 102.203 9.33839 102.231 8.65718L102.337 4.92804H110.994V17.6803H112.709V22.7641H110.566V19.5137H101.031V22.7641H98.8872V17.6803H100.15ZM104.245 6.76147L104.115 9.84443C104.087 10.5685 104.048 11.2575 103.997 11.9192C103.946 12.5771 103.828 13.3167 103.643 14.138C103.485 14.8036 103.304 15.4187 103.096 15.9714C102.888 16.5281 102.604 17.0964 102.25 17.6803H108.851V6.76147H104.245Z" fill="black"/>
<path d="M126.335 4.92804V19.5137H124.191V6.76147H119.412L119.325 10.3466C119.325 10.6658 119.321 10.9577 119.314 11.2224C119.306 11.4871 119.298 11.7557 119.282 12.036C119.266 12.3124 119.251 12.6238 119.239 12.9624C119.227 13.305 119.203 13.702 119.176 14.1614C119.121 15.0099 119.026 15.8235 118.901 16.6098C118.771 17.3961 118.495 18.0579 118.071 18.599C117.744 18.9999 117.37 19.2918 116.954 19.4631C116.537 19.6383 116.057 19.7239 115.522 19.7239C115.282 19.7239 115.062 19.7084 114.861 19.6733C114.664 19.6383 114.491 19.5994 114.354 19.5604L114.416 17.7659C114.531 17.7932 114.656 17.8204 114.79 17.8477C114.928 17.8749 115.05 17.8905 115.164 17.8905C115.734 17.8905 116.143 17.7543 116.387 17.4818C116.631 17.2093 116.812 16.9018 116.922 16.5553C116.95 16.4424 116.981 16.3101 117.016 16.1583C117.052 16.0065 117.083 15.8002 117.111 15.5432C117.142 15.2863 117.17 14.9632 117.209 14.574C117.245 14.1847 117.276 13.702 117.304 13.1337C117.319 12.9546 117.331 12.6938 117.347 12.363C117.363 12.0282 117.374 11.6895 117.39 11.3509C117.406 11.0083 117.414 10.6852 117.422 10.3816C117.429 10.0741 117.433 9.86 117.433 9.73544L117.496 4.93582H126.335V4.92804Z" fill="black"/>
<path d="M139.485 19.5137H137.341V13.6787H134.961L131.83 19.5137H129.214L132.817 13.2622C132.503 13.1648 132.223 13.0481 131.98 12.9079C131.736 12.7678 131.531 12.6354 131.358 12.5109C131.185 12.3863 131.051 12.2695 130.949 12.1683C130.847 12.0632 130.784 11.9971 130.756 11.9698C130.469 11.6234 130.245 11.2146 130.084 10.7514C129.918 10.2882 129.836 9.79772 129.836 9.28389C129.836 9.03476 129.856 8.76617 129.899 8.48201C129.942 8.19785 130.021 7.91369 130.135 7.62952C130.249 7.34536 130.402 7.06509 130.595 6.78482C130.788 6.50845 131.036 6.25153 131.334 6.01408C131.948 5.51193 132.589 5.20831 133.254 5.09542C133.919 4.98643 134.548 4.92804 135.15 4.92804H139.481V19.5137H139.485ZM137.341 6.76147H135.024C134.698 6.76147 134.348 6.7965 133.974 6.86657C133.604 6.93664 133.254 7.10791 132.924 7.38818C132.68 7.58281 132.483 7.84362 132.334 8.1706C132.184 8.49758 132.109 8.88295 132.109 9.32671C132.109 9.77047 132.184 10.1403 132.334 10.4322C132.483 10.7242 132.644 10.9538 132.817 11.1173C133.219 11.5066 133.675 11.7479 134.19 11.8375C134.702 11.927 135.197 11.9737 135.669 11.9737H137.341V6.76147Z" fill="black"/>
<path d="M159.117 4.92804V19.5137H156.973V6.76147H152.194L152.107 10.3466C152.107 10.6658 152.103 10.9577 152.095 11.2224C152.088 11.4871 152.08 11.7557 152.064 12.036C152.048 12.3124 152.032 12.6238 152.021 12.9624C152.005 13.305 151.985 13.702 151.958 14.1614C151.903 15.0099 151.808 15.8235 151.682 16.6098C151.553 17.3961 151.277 18.0579 150.852 18.599C150.526 18.9999 150.152 19.2918 149.735 19.4631C149.318 19.6383 148.838 19.7239 148.3 19.7239C148.06 19.7239 147.839 19.7084 147.639 19.6733C147.442 19.6383 147.269 19.5994 147.127 19.5604L147.19 17.7659C147.304 17.7932 147.43 17.8204 147.564 17.8477C147.698 17.8749 147.824 17.8905 147.938 17.8905C148.508 17.8905 148.917 17.7543 149.161 17.4818C149.405 17.2093 149.582 16.9018 149.696 16.5553C149.724 16.4424 149.755 16.3101 149.79 16.1583C149.826 16.0065 149.857 15.8002 149.885 15.5432C149.916 15.2863 149.944 14.9632 149.983 14.574C150.019 14.1847 150.05 13.702 150.078 13.1337C150.093 12.9546 150.105 12.6938 150.121 12.363C150.137 12.0282 150.148 11.6895 150.164 11.3509C150.176 11.0083 150.188 10.6852 150.196 10.3816C150.203 10.0741 150.207 9.86 150.207 9.73544L150.27 4.93582H159.117V4.92804Z" fill="black"/>
<path d="M167.766 11.0356C167.837 10.3271 168.014 9.61088 168.301 8.89075C168.588 8.16672 168.985 7.51665 169.505 6.93275C170.103 6.23987 170.834 5.6949 171.692 5.30563C172.549 4.91637 173.576 4.72174 174.775 4.72174C175.975 4.72174 177.014 4.92026 177.895 5.31731C178.772 5.71047 179.519 6.25154 180.133 6.93275C180.691 7.55947 181.136 8.31464 181.474 9.20216C181.809 10.0936 181.978 11.0979 181.978 12.2228C181.978 13.3634 181.805 14.3832 181.462 15.2863C181.12 16.1894 180.676 16.9368 180.133 17.5363C179.889 17.801 179.606 18.0657 179.275 18.3304C178.945 18.5951 178.563 18.8286 178.131 19.0388C177.694 19.2451 177.198 19.4125 176.64 19.5371C176.081 19.6616 175.464 19.7239 174.775 19.7239C174.091 19.7239 173.473 19.6616 172.931 19.5371C172.388 19.4125 171.904 19.2451 171.471 19.0388C171.043 18.8286 170.665 18.5951 170.335 18.3304C170.008 18.0657 169.729 17.801 169.501 17.5363C168.958 16.9096 168.533 16.1855 168.226 15.3603C167.919 14.5312 167.742 13.702 167.699 12.8729H165.194V19.5176H163.05V4.92805H165.194V11.0317H167.766V11.0356ZM174.775 6.55517C173.89 6.55517 173.143 6.72644 172.537 7.0651C171.932 7.40765 171.456 7.79302 171.113 8.22121C170.728 8.70779 170.421 9.30726 170.193 10.0235C169.965 10.7397 169.851 11.4716 169.851 12.2228C169.851 12.8495 169.945 13.5269 170.138 14.2548C170.331 14.9866 170.657 15.6406 171.113 16.2245C171.483 16.6838 171.963 17.0769 172.549 17.4C173.135 17.727 173.879 17.8905 174.779 17.8905C175.68 17.8905 176.424 17.727 177.01 17.4C177.596 17.0731 178.076 16.6838 178.445 16.2245C178.902 15.6406 179.228 14.9827 179.421 14.2548C179.614 13.5269 179.712 12.8495 179.712 12.2228C179.712 11.4716 179.598 10.7397 179.37 10.0235C179.142 9.30726 178.835 8.70779 178.449 8.22121C178.107 7.78913 177.631 7.40765 177.025 7.0651C176.408 6.72255 175.66 6.55517 174.775 6.55517Z" fill="black"/>
<path d="M184.346 17.6803C184.861 16.82 185.235 16.0337 185.471 15.3252C185.707 14.6168 185.868 14.064 185.954 13.6592C185.998 13.4373 186.045 13.1765 186.092 12.8768C186.143 12.5771 186.187 12.2306 186.234 11.8336C186.277 11.4365 186.312 10.9811 186.34 10.4595C186.367 9.93785 186.399 9.33839 186.426 8.65718L186.533 4.92804H195.19V17.6803H196.905V22.7641H194.761V19.5137H185.227V22.7641H183.083V17.6803H184.346ZM188.44 6.76147L188.311 9.84443C188.283 10.5685 188.244 11.2575 188.193 11.9192C188.141 12.5771 188.023 13.3167 187.839 14.138C187.681 14.8036 187.5 15.4187 187.292 15.9714C187.083 16.5281 186.804 17.0964 186.446 17.6803H193.046V6.76147H188.44Z" fill="black"/>
<path d="M199.494 4.92804H207.872V6.76147H201.637V11.0356H207.313V12.869H201.637V17.6803H207.872V19.5137H199.494V4.92804Z" fill="black"/>
<path d="M211.062 4.92807H213.206V14.8659L213.143 16.6799H213.249C213.379 16.4308 213.497 16.2089 213.603 16.0143C213.713 15.8196 213.815 15.6406 213.914 15.4732C214.016 15.3058 214.122 15.1345 214.236 14.9633C214.35 14.7881 214.472 14.5974 214.598 14.3872L220.601 4.92807H223V19.5137H220.856V9.57587L220.919 7.7619H220.813C220.671 8.05385 220.542 8.30298 220.428 8.51318C220.314 8.71949 220.203 8.91023 220.097 9.07372C219.991 9.2411 219.885 9.4007 219.786 9.55251C219.688 9.70432 219.582 9.87171 219.464 10.0508L213.461 19.5099H211.062V4.92807ZM220.494 1.07437C220.467 1.56094 220.345 1.98524 220.129 2.34725C219.916 2.70927 219.664 2.98565 219.377 3.18028C219.106 3.37491 218.756 3.52672 218.327 3.63961C217.898 3.75249 217.477 3.80699 217.064 3.80699C216.651 3.80699 216.227 3.75249 215.802 3.63961C215.373 3.53061 215.023 3.37491 214.752 3.18028C214.464 2.98565 214.217 2.70927 214 2.34725C213.788 1.98524 213.666 1.56094 213.634 1.07437L215.07 0.906982C215.141 1.19893 215.243 1.42081 215.369 1.57262C215.499 1.72443 215.578 1.81396 215.605 1.84121C215.822 2.03584 216.061 2.15262 216.337 2.19544C216.608 2.23826 216.852 2.25772 217.064 2.25772C217.281 2.25772 217.521 2.23826 217.792 2.19544C218.064 2.15262 218.307 2.03584 218.52 1.84121C218.547 1.81396 218.626 1.72443 218.756 1.57262C218.886 1.42081 218.984 1.19893 219.055 0.906982L220.494 1.07437Z" fill="black"/>
<path d="M100.15 41.2502C100.665 40.3899 101.039 39.6036 101.275 38.8951C101.511 38.1867 101.672 37.63 101.759 37.2291C101.802 37.0072 101.849 36.7464 101.896 36.4467C101.947 36.1469 101.991 35.8005 102.038 35.4034C102.081 35.0064 102.117 34.551 102.144 34.0293C102.172 33.5077 102.203 32.9083 102.231 32.2271L102.337 28.4979H110.994V41.2502H112.709V46.3339H110.566V43.0875H101.031V46.3339H98.8872V41.2502H100.15ZM104.245 30.3314L104.115 33.4143C104.087 34.1383 104.048 34.8273 103.997 35.4891C103.946 36.1508 103.828 36.8904 103.643 37.7079C103.485 38.3735 103.304 38.9886 103.096 39.5413C102.888 40.098 102.604 40.6663 102.25 41.2502H108.851V30.3314H104.245Z" fill="black"/>
<path d="M115.298 28.4979H123.676V30.3314H117.442V34.6016H123.118V36.435H117.442V41.2502H123.676V43.0836H115.298V28.4979Z" fill="black"/>
<path d="M137.813 28.4979V43.0836H135.669V30.3314H130.89L130.803 33.9126C130.803 34.2318 130.8 34.5237 130.792 34.7884C130.784 35.0531 130.776 35.3217 130.76 35.602C130.744 35.8783 130.729 36.1898 130.717 36.5284C130.701 36.8671 130.682 37.268 130.654 37.7273C130.599 38.5759 130.504 39.3934 130.379 40.1758C130.249 40.9621 129.973 41.6239 129.549 42.1649C129.222 42.5659 128.849 42.8578 128.432 43.0291C128.015 43.2043 127.535 43.2899 127 43.2899C126.76 43.2899 126.54 43.2743 126.339 43.2393C126.142 43.2043 125.969 43.1653 125.832 43.1264L125.894 41.3319C126.009 41.3592 126.134 41.3864 126.268 41.4137C126.402 41.4409 126.528 41.4565 126.642 41.4565C127.212 41.4565 127.621 41.3202 127.865 41.0517C128.109 40.7792 128.286 40.4716 128.4 40.1213C128.428 40.0123 128.459 39.8761 128.495 39.7243C128.53 39.5725 128.561 39.3661 128.589 39.1092C128.62 38.8523 128.648 38.5292 128.687 38.14C128.723 37.7507 128.754 37.2719 128.782 36.6997C128.797 36.5206 128.809 36.2598 128.825 35.929C128.841 35.5942 128.852 35.2555 128.868 34.9169C128.88 34.5743 128.892 34.2512 128.9 33.9476C128.908 33.6401 128.911 33.426 128.911 33.3014L128.974 28.5018H137.813V28.4979Z" fill="black"/>
<path d="M146.636 28.4979H148.885L155.21 43.0836H152.874L151.352 39.3934H144.024L142.501 43.0836H140.248L146.636 28.4979ZM147.686 30.4559L144.704 37.6845H150.663L147.686 30.4559Z" fill="black"/>
</g>
<defs>
<clipPath id="clip0_153_9762">
<rect width="223" height="48" fill="white"/>
</clipPath>
</defs>
</svg>
