<svg width="48" height="48" viewBox="0 0 48 48" fill="none" xmlns="http://www.w3.org/2000/svg">
<path d="M10.567 9.35949C10.567 8.86499 10.166 8.46399 9.67147 8.46399H8.47747C7.98297 8.46399 7.58197 8.86499 7.58197 9.35949C7.58197 9.85399 7.98297 10.255 8.47747 10.255H9.67147C10.1665 10.2555 10.567 9.85399 10.567 9.35949Z" fill="#E21A1A"/>
<path d="M40.2085 24.123H22.5075V8.10596C22.5075 6.05746 21.354 4.88196 19.343 4.88196H7.654C5.4685 4.88196 4 6.17746 4 8.10596V32.8705C4 34.8855 5.639 36.5235 7.654 36.5235H11.788V39.462C11.788 41.478 13.428 43.1175 15.4435 43.1175H40.2085C42.2245 43.1175 43.864 41.478 43.864 39.462V27.7785C43.864 25.7625 42.224 24.123 40.2085 24.123ZM7.654 34.733C6.627 34.733 5.791 33.898 5.791 32.871V8.10596C5.791 6.77646 7.217 6.67296 7.654 6.67296H19.3435C20.3445 6.67296 20.717 7.06146 20.717 8.10596V24.123H15.4435C13.428 24.123 11.788 25.7625 11.788 27.7785V29.9565H10.8655C10.371 29.9565 9.97 30.3575 9.97 30.852C9.97 31.3465 10.371 31.7475 10.8655 31.7475H11.788V34.7325H7.654V34.733ZM42.073 39.4625C42.073 40.491 41.2365 41.327 40.2085 41.327H15.4435C14.4155 41.327 13.5795 40.491 13.5795 39.4625V27.7785C13.5795 26.75 14.416 25.914 15.4435 25.914H40.2085C41.2365 25.914 42.073 26.75 42.073 27.7785V39.4625Z" fill="#E21A1A"/>
<path d="M39.5225 27.5685C39.028 27.5685 38.627 27.9695 38.627 28.464V29.658C38.627 30.1525 39.028 30.5535 39.5225 30.5535C40.017 30.5535 40.418 30.1525 40.418 29.658V28.464C40.418 27.97 40.017 27.5685 39.5225 27.5685Z" fill="#E21A1A"/>
<path d="M17.3755 29.9669C16.881 29.9669 16.48 30.3679 16.48 30.8624V35.1839C16.48 35.6784 16.881 36.0794 17.3755 36.0794C17.87 36.0794 18.271 35.6784 18.271 35.1839V30.8624C18.271 30.3684 17.87 29.9669 17.3755 29.9669Z" fill="#E21A1A"/>
<path d="M42.531 16.5704L40.1425 18.5609V14.6874C40.1425 9.93142 36.287 6.07642 31.5315 6.07642H26.4365C25.9905 6.07642 25.577 6.38092 25.505 6.82142C25.4135 7.38242 25.844 7.86792 26.388 7.86792H31.5315C35.298 7.86792 38.351 10.9209 38.351 14.6874V18.5614L35.962 16.5709C35.544 16.2204 34.902 16.3194 34.613 16.8094C34.387 17.1934 34.5095 17.6919 34.852 17.9774L38.606 21.1059C38.977 21.4149 39.5155 21.4149 39.8865 21.1059L43.677 17.9464C44.057 17.6294 44.108 17.0649 43.7915 16.6849C43.4755 16.3044 42.9105 16.2519 42.531 16.5704Z" fill="#E21A1A"/>
</svg>
