<svg width="107" height="136" fill="none" xmlns="http://www.w3.org/2000/svg"><g clip-path="url(#a)"><mask id="b" style="mask-type:alpha" maskUnits="userSpaceOnUse" x="-12" y="0" width="146" height="140"><rect x="-12" width="145.507" height="139.074" rx="17" fill="#FFFEFF"/></mask><g mask="url(#b)"><mask id="c" style="mask-type:luminance" maskUnits="userSpaceOnUse" x="-263" y="-35" width="393" height="267"><path d="M129.053-34.926h-391.299v266.083h391.299V-34.926Z" fill="#fff"/></mask><g mask="url(#c)"><path d="M-398.066 127.548v119.626l12.816.457 29.879 1.055 1.151.035 56.498 1.97h.359l1.316.035.493.035 1.526.035 1.839.07h.344l.987.036h.329l1.884.07h.404l1.824.07 6.775.246 2.602.106 1.959.07 2.557.071h.015l6.296.211.613.035h.015l1.002.035 21.609.738 3.798.141 3.14.105 3.829.141 2.138.07 17.781.633.927.036 4.83.175 1.346.036 1.421.035 4.292.14 10.318.352 2.871.105 24.376.844h.015l38.657 1.337 2.407.07 1.152.035 28.922 1.02 3.2.105 3.679.141 5.488.176 3.918.14 3.993.141h.015l6.086.211 2.632.106h.075l31.135 1.09 3.903.14 6.73.246 5.861.211 32.825 1.161 6.071.211 14.416.492 8.195.281 26.933.95 15.956.562 14.73.528 44.295 1.547 11.963.422 4.561.141 12.622.457 73.635 2.567h.03l1.869.07 30.163 1.055V-24.429h-682.291v151.977Z" fill="url(#d)"/><path d="M-48.673 128.524c131.68 0 238.426-22.827 238.426-50.985 0-28.157-106.747-50.984-238.426-50.984-131.68 0-238.427 22.827-238.427 50.984 0 28.158 106.747 50.985 238.427 50.985Z" fill="url(#e)" style="mix-blend-mode:screen" opacity=".84"/><path d="M5.286 5.141c-.075-.958 1.705-1.437 2.632-.703-.015-.674.389-1.348 1.181-1.528.793-.195 1.93.315 1.974.988.015.225-.075.465.06.674.433.704 1.989-.075 2.662.524-3.11.18-6.251.21-9.406.105.21-.06.433-.135.643-.194l.254.134Z" fill="url(#f)"/><path d="M46.796 4.542c2.064-.03 4.157.495 6.22.869 5.429.973 10.976.913 16-.18-.448-.913-1.66-1.632-2.87-1.722-1.212-.075-2.333.494-2.647 1.363-4.082-2.726-8.688-5.63-13.712-5.795-3.23-.105-6.25 1.018-7.94 2.965-1.077-.839-2.842-.78-3.903-.15-1.062.629-1.585 1.647-2.079 2.62.538-1.093-12.546-2.47-4.725 1.049 5.024 2.26 10.99-.974 15.656-1.019Z" fill="url(#g)"/><path opacity=".9" d="M60.825 41.695c.06-.3 1.33-.404 1.39-.704 4.128-1.827 10.05-4.297 7.91-9.539-1.001-2.905-4.35-4.642-6.952-5.96-5.339-3.04-12.367-6.664-19.335-7.547-1.66.48-3.23 1.123-4.65 1.947-2.288 1.317-4.143 3.04-5.623 4.896-3.35 4.253-4.74 9.405-3.888 14.406-.777-.719-2.004-1.138-3.215-1.168 1.914.989 3.753 1.917 5.697 2.396 8.943 2.576 20.217 5.825 28.666 1.273Z" fill="url(#h)"/><path opacity=".9" d="M83.746 39.03c6.924-.854 8.389-6.23 7.193-11.396a10.037 10.037 0 0 0-3.664-.794c-3.41-.075-6.654 1.707-7.551 4.133-.135-.195-.284-.374-.434-.569-1.555 3.504-.374 9.344 4.456 8.625Z" fill="url(#i)"/><path opacity=".42" d="M231.142 42.773c-2.781-.793-5.966-.27-7.432 1.588-1.45-2.306-4.89-3.61-8.224-3.984-3.335-.389-6.699-.03-10.049.015-1.181.015-2.407-.015-3.499-.404-.792-.285-1.45-.734-2.153-1.138-2.871-1.632-6.879-3.37-10.363-2.95.329-2.007-.568-4.193-2.617-5.586-2.048-1.392-5.263-1.827-7.581-.838-1.899.808-3.021 1.662-2.602 2.92.18.3.359.599.509.913-.255-.33-.419-.629-.509-.913-.807-1.303-1.884-2.516-3.155-3.61-.568 4.538-2.542 8.641-7.97 10.947-8.254 3.654-16.195-1.527-25.331-1.377-3.798.344-6.251 3.953-10.049 4.297.269.66-.927.48-.658 1.124-11.454 1.332-25.734.404-33.076-7.458-1.57-1.467-1.72-3.22-1.421-5.061-.613-1.528-2.108-2.846-3.978-3.64 1.197 5.167-.269 10.528-7.192 11.397-4.845.718-6.026-5.122-4.471-8.611-3.948-5.166-9.765-9.704-17.062-12.025-5.847-1.872-12.68-2.111-18.393-.449 6.969.884 13.997 4.522 19.335 7.547 2.602 1.318 5.937 3.04 6.953 5.96 2.154 5.226-3.783 7.712-7.91 9.54-.06.299-1.33.404-1.39.703-8.45 4.553-19.724 1.303-28.666-1.273-1.93-.479-3.768-1.407-5.697-2.396-.688-.015-1.376.075-1.974.315-1.66.659-2.468 2.276-1.81 3.639C20.898 40.737 9.22 43.97 9.1 45.768c8.374-.03 17.032-.718 25.42-.748 10.827 2.65 22.326 4.477 33.361 3.07 4.053-.51 7.986-1.453 12.023-2.007 8.703-1.183 18.99.224 27.634 2.081 9.779 2.097 20.202 2.261 29.891.465 4.696-.87 9.242-2.187 14.072-2.576 7.476-.6 14.998 1.048 22.385 2.426 9.331 1.737 19.17 3.085 28.261 1.213 3.843-.779 7.552-2.142 11.574-2.067 2.961.045 5.847.869 8.778 1.273 4.74.644 10.452.06 14.729-1.438-1.241-2.021-3.305-3.893-6.086-4.687Z" fill="url(#j)"/><path opacity=".9" d="M96.337 36.334c7.357 7.862 21.622 8.79 33.076 7.457-.269-.658.927-.479.658-1.123 3.798-.344 6.251-3.953 10.049-4.297 9.136-.15 17.077 5.031 25.331 1.377 5.428-2.306 7.417-6.409 7.97-10.946-3.08-2.65-7.342-4.553-11.918-5.167-6.878-.928-12.366-.644-16.583 3.355-2.213-4.433-6.849-8.236-12.591-10.288-5.727-2.052-12.486-2.351-18.318-.794-9.764 2.606-14.265 8.58-19.095 15.41 0-.016-.015-.03-.015-.03-.284 1.826-.12 3.579 1.436 5.046Z" fill="url(#k)"/></g><mask id="l" style="mask-type:luminance" maskUnits="userSpaceOnUse" x="-233" y="-64" width="393" height="246"><path d="M159.053-63.757h-391.299v244.914h391.299V-63.757Z" fill="#fff"/></mask><g mask="url(#l)"><path d="m162.451 10.623-8.045-7.427a2.085 2.085 0 0 0-2.871.045l-23.701 23.51a2.072 2.072 0 0 1-3.095-.194l-4.695-6.05a2.082 2.082 0 0 0-3.051-.255 2.06 2.06 0 0 1-2.961-.15l-4.381-4.971a2.07 2.07 0 0 0-2.901-.21L87.85 30.96c-.808.674-1.99.66-2.752-.06l-3.14-2.92a2.095 2.095 0 0 0-2.647-.15l-64.733 47.8c-1.615 1.183-.778 3.744 1.226 3.744h145.227a2.075 2.075 0 0 0 2.078-2.082v-65.14c0-.57-.239-1.123-.658-1.528Z" fill="url(#m)"/><path opacity=".35" d="M37.114 62.946s30.34 3.848 30.744 4.013c.418.165 6.594-16.113 6.609-20.201.015-4.088-5.518-1.408-5.518-2.876 0-1.467-3.02.09-3.005-.509.014-.599 8.762-2.755 8.762-2.755s-4.261-.21-5.219 0c-.956.21 1.51-1.872 8.075-4.508 6.565-2.65 3.53-3.773 3.53-3.773s-2.558.24-1.87-.884c.688-1.123 2.453-3.698 3.724-2.515l-1.032-.959a2.095 2.095 0 0 0-2.647-.15l-43.26 31.942 1.107 3.175Z" fill="url(#n)"/><path d="M82.329 68.082c-6.34.868-12.755 1.363-19.155 1.018-3.006-.164-5.937-.599-8.883-1.153-2.766-.539-5.144-1.527-7.73-2.62-2.677-1.139-6.012-1.393-8.823-2.217-5.802-1.692-11.47-3.998-16.464-7.427-1.39-.959-3.29-2.321-3.738-4.074-.404-1.542 1.256-3.13 2.647-3.668 1.794-.704 4.217.224 4.65 2.096.389-.913 2.019-.749 2.213.225.509-.375 1.361.09 1.346.719.06-.72 1.137-1.109 1.645-.584-.643-.614-.733-1.723-.194-2.441.538-.72 1.615-.944 2.392-.51.464-1.182 1.66-2.036 2.931-2.096 1.271-.06 2.527.689 3.095 1.827-.418-.57-.269-1.468.314-1.872.583-.404 1.48-.24 1.87.345-.21-.929.373-1.962 1.27-2.247.898-.3 1.974.18 2.363 1.049.24-1.663.568-3.46 1.84-4.538 1.27-1.078 3.753-.704 4.007.944.374-.644 1.032-1.198 1.78-1.183.747.015 1.45.823 1.15 1.497.689-.584 1.825-.524 2.453.135.628.659.628 1.797.015 2.456.613-.27 1.406-.045 1.78.509.373.554.299 1.378-.18 1.857.135-.45.658-.749 1.122-.614a.94.94 0 0 1 .628 1.108c.284-1.033 1.435-1.722 2.482-1.483 1.032.24 1.78 1.363 1.6 2.411.075-.614.643-1.138 1.256-1.138s1.196.494 1.286 1.123c-.09-1.033.837-2.036 1.87-2.021 1.03.015 1.943 1.033 1.838 2.051.584-.644 1.84-.314 2.049.524.194-1.662 1.854-3.01 3.514-2.875 1.66.15 3.066 1.767 2.976 3.43.852-.81 2.557.074 2.377 1.242.21-1.108 1.496-1.856 2.557-1.512 1.062.36 1.645 1.737 1.152 2.74.673-.359 1.63.195 1.66.959.448-1.033 2.392-.51 2.272.599.105-.884.913-1.633 1.81-1.633.882-.014 1.72.72 1.84 1.588.134-1.063.956-2.007 1.988-2.291 1.032-.285 2.213.12 2.87.973-.298-.33.18-.809.614-.943 1.959-.584 4.187.554 5.189 2.35.987 1.798.867 4.074 0 5.93-.867 1.858-2.393 3.355-4.068 4.523-4.515 3.1-10.078 4.178-15.476 4.912Z" fill="url(#o)"/><path d="M-233.064 67.438c22.161 1.797 103.866-1.243 131.216-7.308 27.334-6.064 54.056-16.277 87.118-14.72 35.185 1.662 111.55 28.198 124.576 34.742h-342.91V67.438Z" fill="url(#p)"/><path d="M-67.933 60.13c8.344 3.61 30.46-.674 37.847-2.081 7.387-1.408-2.587 3.384.613 5.45 3.185 2.067 22.953-6.394 35.544-7.996 12.546-1.587 28.65-.614 28.77-.599-18.617-5.002-36.815-8.895-49.57-9.494-14.819-.704-28.367.958-41.271 3.564-11.963 4.582-20.277 7.547-11.933 11.156Z" fill="url(#q)"/><path d="M53.666 60.295c-22.968 7.098-46.206 14.39-73.032 14.39-26.497 0-59.53-5.12-77.458-15.708-1.675.405-3.35.794-5.024 1.153-27.335 6.065-109.055 9.105-131.216 7.308v12.714h342.91c-6.699-3.355-30.176-12.025-56.18-19.857Z" fill="url(#r)"/><path d="M163.107 79.373V38.417c-19.529-2.306-36.755 3.13-57.824 12.174-29.13 12.534-54.998 28.782-80.673 28.782h138.497Z" fill="url(#s)"/><path d="M105.284 50.591c-11.08 4.762-21.698 10.078-32 14.81 0 0 5.502-2.216 16.314-3.803 10.796-1.602 22.131-2.965 20.246-5.286-1.884-2.321 3.799-1.857 15.477-.989 10.004.75 27.948-3.114 37.802-9.224v-7.682c-19.529-2.321-36.77 3.114-57.839 12.174Z" fill="url(#t)"/><path d="M163.106 54.17c-25.719 9.21-57.181 7.173-54.699 10.123 2.482 2.935 16.284 6.979 11.305 9.03-4.98 2.052-21.368 6.065-42.139 6.065h85.533V54.17Z" fill="url(#u)"/><path d="m105.283 50.591-1.436.63c.553-.18 17.585-5.916 27.2-8.357 9.78-2.486 24.658-3.504 32.06-1.961v-2.486c-19.514-2.321-36.755 3.114-57.824 12.174Z" fill="url(#v)"/><path d="M110.304 54.23c-.059 0-1.046-.21-.927-.344-.568.614-1.689.569-2.198-.09-.045-.06-.089-.135-.164-.165-.12-.06-.254.015-.389.06-.508.15-1.077-.404-.942-.913-.359.15-.837-.105-.912-.495-.09-.389.239-.808.628-.838-.284-.21-.284-.659-.105-.959.18-.299.494-.494.793-.673-.329-.375-.598-.914-.359-1.348.269-.48.927-.494 1.48-.434a2.676 2.676 0 0 1-.134-.854c.074-.06.164-.12.239-.18a.542.542 0 0 1-.374-.644.564.564 0 0 1 .643-.389c-.224-.224-.449-.464-.508-.764-.105-.614.583-.539.777-.973.18-.39-.105-.943.165-1.288a.568.568 0 0 1 .583-.18c-.12-.224-.239-.449-.239-.703 0-.255.149-.524.388-.554.269-.045.509.194.584.449.089.254.059.524.104.794.239 0 .464.015.703.015-.015.344-.12.703.15.928.254.21.672.15.942.42.269.269.358.763.089 1.033-.089.09-.224.15-.284.269-.164.33.344.629.389 1.003.03.315-.269.644-.105.914.06.09.165.15.269.195.27.12.539.254.808.374.194.09.404.21.434.42.059.448-.763.523-.868.972.269.046.539.09.748.24.209.15.359.45.239.689-.045.105-.134.21-.104.315.029.134.209.164.299.269.164.195-.06.48-.299.584-.225.105-.524.195-.584.434.255.09.509.195.703.36.21.18.344.449.284.703-.074.375-.388.405-.628.614-.224.225-.299.54-.568.734-.449.345-1.196.045-1.75 0Z" fill="url(#w)"/><path d="M96.833 55.264c.014.014.03.03.044.03-.254.03-.538.074-.702.284-.195.255-.045.674.254.779a.482.482 0 0 0-.494.464c0 .255.255.48.509.45-.21-.046-.449.134-.464.344a.406.406 0 0 0 .404.419c-.344-.03-.703.03-.957.24-.27.21-.419.584-.3.898.12.344.464.464.808.464-.15.315-.209.69-.044.989.164.3.583.464.867.27-.195.179-.21.523-.03.733.18.21.508.254.748.12.15-.075.269-.225.433-.255.224-.045.449.105.658.195.553.224 1.271-.075 1.496-.63.388.51 1.315.54 1.659-.014.344-.554-.164-1.423-.792-1.333.164-.284.493-.704.284-1.048a.54.54 0 0 0-.703-.18c.12-.27-.015-.614-.269-.749.224-.044.419-.224.449-.449.029-.224-.135-.464-.359-.479.269-.225.568-.524.538-.884-.03-.27-.254-.479-.508-.554-.255-.075-.539-.03-.778.075.12-.344-.09-.779-.449-.883.225-.15.449-.405.344-.644-.075-.18-.299-.24-.493-.27.194-.105.284-.374.194-.584a.475.475 0 0 0-.553-.254c.15-.375-.21-1.273-.733-1.019-.164.075-.224.285-.224.465-.015.21.015.434.09.629-.135-.135-.39-.12-.509.014-.134.135-.15.36-.06.54a.65.65 0 0 0 .464.314c-.224.105-.478.12-.718.21-.224.09-.523.36-.538.614-.015.284.224.539.434.688Z" fill="url(#x)"/></g><mask id="y" style="mask-type:luminance" maskUnits="userSpaceOnUse" x="-233" y="-64" width="393" height="246"><path d="M159.053-63.757h-391.299v244.914h391.299V-63.757Z" fill="#fff"/></mask><g mask="url(#y)"><path d="M161.043 72.32C9.222 70.328-121.082 97.133-220.641 127.368c127.223 2.935 254.461 5.885 381.684 8.82V72.32Z" fill="#64A043"/><path d="m161.041 81.305-11.574-2.83c3.783-.24 7.641-.435 11.574-.614v-5.526c-16.583-.21-32.912-.09-48.957.344-7.133 3.654-14.266 7.293-21.398 10.947 23.446.195 46.908.39 70.355.599v-2.92Z" fill="#91B94B"/></g><mask id="z" style="mask-type:luminance" maskUnits="userSpaceOnUse" x="-233" y="-64" width="393" height="246"><path d="M159.053-63.757h-391.299v244.914h391.299V-63.757Z" fill="#fff"/></mask><g mask="url(#z)"><path d="M-136.035 66.345a1144.568 1144.568 0 0 0-100.666 1.707v71.565c30.789 1.677 61.593 3.369 92.382 5.047l305.362-29.516v-1.063C86.575 91.772-14.749 69.639-136.035 66.345Z" fill="url(#A)"/></g><mask id="B" style="mask-type:luminance" maskUnits="userSpaceOnUse" x="-233" y="-64" width="393" height="246"><path d="M159.053-63.757h-391.299v244.914h391.299V-63.757Z" fill="#fff"/></mask><g mask="url(#B)"><path d="M-134.21 65.431a1194.9 1194.9 0 0 0-102.475 2.381v9.06l32.523.614-16.179-4.343c27.888.075 55.791.135 83.679.21 20.934 1.183 41.884 2.381 62.819 3.564-6.4-1.482-12.8-2.98-19.2-4.462 21.802 1.258 43.618 2.5 65.435 3.713 20.77 1.153 41.54 2.277 62.31 3.385.793.045-79.925-12.355-168.912-14.122Z" fill="url(#C)"/></g><mask id="D" style="mask-type:luminance" maskUnits="userSpaceOnUse" x="-233" y="-64" width="393" height="246"><path d="M159.053-63.757h-391.299v244.914h391.299V-63.757Z" fill="#fff"/></mask><g mask="url(#D)"><path d="M161.042 109.443c-16.523-2.636-76.77-11.291-148.202-7.832-15.133.734-39.657 3.324-71.328 10.991a426.236 426.236 0 0 0-74.482 25.488c26.288 7.996 52.576 15.978 78.879 23.974 71.716-4.013 143.432-8.026 215.148-12.054v-40.567h-.015Z" fill="url(#E)"/><path d="M161.042 117.963v-8.685c-13.398-2.112-55.627-8.281-90.318-8.281h-.015c-5.832 0-11.35-.18-16.554-.255-.164 0-.314.075-.478.075-1.092-.015-2.183.015-3.245 0-.194 0-.404.09-.598.09-1.152-.015-2.273.075-3.38.075h-.179c-1.196 0-2.378-.075-3.544-.075-.135 0-.27-.03-.404-.03-.957 0-1.899-.015-2.826 0-.359 0-.703.045-1.062.045-.373 0-.762.06-1.136.06-9.6 0-17.78.344-24.479.674-25.166 1.213-41.989 3.384-56.418 6.798 26.302-.164 52.605-.374 78.923-.554-3.753 1.004-7.492 2.157-11.245 2.98h102.879c-7.402 1.647-14.819 3.055-22.221 4.568l56.3 2.515Z" fill="url(#F)"/><path d="M-16.366 142.867c.373-.944 2.796-6.709 8.478-8.341 1.152-.33 3.753-1.079 6.55.164 2.377 1.049 3.588 2.95 4.037 3.744-6.355 1.468-12.71 2.95-19.065 4.433Z" fill="url(#G)"/><path d="M2.7 138.434c-.418-.749-1.554-2.486-3.693-3.564-.18.255-.389.494-.628.749-2.258 2.396-6.295 3.848-8.463 2.426-.703-.45-1.062-1.108-1.286-1.797-3.23 2.366-4.71 5.885-5.01 6.619 6.37-1.483 12.726-2.965 19.08-4.433Z" fill="url(#H)"/><path d="m-55.633 111.704 105.032 5.84a726.012 726.012 0 0 0-26.378 5.541 680.746 680.746 0 0 0-17.87 4.342c8.375 1.723 16.734 3.43 25.108 5.152a326602.84 326602.84 0 0 0-107.276 24.05c6.954 1.512 13.922 3.024 20.875 4.537 34.423-9.869 68.845-19.752 103.268-29.62-9.675-1.378-19.335-2.741-29.01-4.119 15.432-3.773 30.864-7.562 46.296-11.336-37.368-2.021-74.752-4.058-112.12-6.079-2.647.569-5.279 1.123-7.925 1.692Z" fill="#FFCC8C"/></g><mask id="I" style="mask-type:luminance" maskUnits="userSpaceOnUse" x="-233" y="-64" width="393" height="246"><path d="M159.053-63.757h-391.299v244.914h391.299V-63.757Z" fill="#fff"/></mask><g mask="url(#I)"><path d="M-236.701 112.932v72.044c33.481-.359 66.976-.719 100.457-1.063 50.064-.539 100.112-1.064 150.176-1.603-62.31-27.059-147.201-55.946-250.633-69.378Z" fill="#C1D33D"/></g><mask id="J" style="mask-type:luminance" maskUnits="userSpaceOnUse" x="-233" y="-64" width="393" height="246"><path d="M159.053-63.757h-391.299v244.914h391.299V-63.757Z" fill="#fff"/></mask><g mask="url(#J)"><path d="M161.043 131.306c-50.976 2.321-128.898 9.09-220.741 28.422a1388.705 1388.705 0 0 0-99.769 24.904c38.684-.629 198.042-1.094 320.495-.674v-52.652h.015Z" fill="#FFCC8C"/></g><mask id="K" style="mask-type:luminance" maskUnits="userSpaceOnUse" x="50" y="12" width="141" height="88"><path d="M190.558 12.074H50.754v87.503h139.804V12.074Z" fill="#fff"/></mask><g mask="url(#K)"><path d="m97.911 82.51 3.996-.032-.897.433c-1.245-.048-2.484-.102-3.73-.15.215-.085.423-.17.631-.251Z" fill="url(#L)"/><path d="M99.476 81.22c0 .182-.016.396-.053.627a3.096 3.096 0 0 1-.086.38c.016.138.038.277.054.417l-.24.016c.053-.214.096-.492.096-.819a4 4 0 0 0-.043-.551c.09-.021.181-.048.272-.07Zm1.127-.272c-.048.133.048.214.123.476.101.374.032.7.005.818-.037.16-.091.29-.128.37l.16.016c.043-.14.091-.279.145-.423a8.84 8.84 0 0 1 .304-.744c-.091-.257-.187-.508-.278-.765-.133.043-.283.118-.331.252Z" fill="#DBC7B2"/><path d="M98.31 80.38c.08-.219.315-.326.55-.433a1.66 1.66 0 0 1 .454-.134c.422-.059.599.049 1.133.107.641.07.887-.021.983.145.064.112-.043.182-.086.578-.016.16-.042.406.022.706.053.23.117.289.123.492.005.134-.038.187-.075.407a2.622 2.622 0 0 0-.038.396c-.064.005-.133.016-.197.021.027-.123.059-.31.059-.53.005-.203.005-.347-.054-.513a1.057 1.057 0 0 0-.422-.525c-.112.054-.24.102-.385.145-.39.112-.731.112-.983.09a1.507 1.507 0 0 1-.15.82c-.015.187-.031.374-.042.561h-.256c.042-.08.09-.203.112-.358.01-.065.01-.129-.006-.38-.005-.107-.02-.246-.037-.417-.027.032-.059.064-.107.07-.165.02-.326-.322-.406-.493-.176-.375-.267-.557-.192-.755Z" fill="#F0E1CF"/><path d="M97.097 81.44c.006.005.022.043.065.053.037.011.064.006.074 0a.27.27 0 0 0 .054.022c.117.026.235-.064.491-.316.193-.187.283-.284.273-.31-.022-.043-.187-.038-.86.225a3.76 3.76 0 0 1-.097.326Z" fill="#DBC7B2"/><path d="M97.123 81.365c.037.07.235.059.374-.01a.674.674 0 0 0 .278-.274c.032-.064.032-.09.064-.107.107-.053.337.172.406.241.134.129.187.23.3.23.015 0 .063 0 .111-.032.134-.09.06-.305.155-.353.016-.005.032-.01.3.112.117.054.165.08.213.06.048-.022.08-.081.08-.135 0-.155-.293-.187-.32-.369-.016-.09.053-.107.059-.224a.476.476 0 0 0-.321-.428c-.155-.038-.31.048-.609.214-.128.07-.23.144-.38.139-.063 0-.138 0-.224-.043-.058-.027-.08-.054-.139-.07-.053-.01-.15-.021-.17.022-.022.037.016.107.09.16-.064.027-.139.07-.16.145-.021.064.027.09.032.192.01.097-.027.182-.09.359-.043.123-.065.144-.049.171Zm2.557-1.241c.037-.054.245.048.272 0 .021-.038-.112-.118-.096-.166.032-.102.614-.032.625.07.005.042-.086.042-.129.133-.069.155.123.348.075.401-.037.038-.165-.075-.219-.037-.08.064.198.428.123.503-.107.107-.844-.359-.79-.52.01-.031.053-.053.08-.063.1-.038.203.053.224.032.043-.064-.209-.29-.166-.353Z" fill="#1C1817"/><path d="M101.372 80.017c.042-.006.117.155.144.315.037.209-.043.263-.043.53 0 .235.059.444.059.444.037.129.091.252.059.423a.31.31 0 0 1-.027.096.397.397 0 0 1-.134-.155c-.048-.107 0-.177 0-.348 0-.198-.053-.187-.053-.401 0-.182.043-.198.021-.343-.021-.128-.058-.144-.069-.278-.011-.117.005-.278.043-.283Z" fill="url(#M)"/><path d="M100.527 80.124c-.07.08 0 .294.149.358.075.032.187.032.23-.027.064-.085-.027-.288-.176-.347-.059-.022-.161-.038-.203.016Z" fill="#1C1817"/></g><mask id="N" style="mask-type:luminance" maskUnits="userSpaceOnUse" x="-233" y="-64" width="393" height="246"><path d="M159.053-63.757h-391.299v244.914h391.299V-63.757Z" fill="#fff"/></mask><g mask="url(#N)"><path d="M66.476 138.748s44.561-4.762 44.007 12.684c-.598 19.168-13.039 30.759-13.039 30.759h37.847l7.372-10.752s6.116-35.102.359-40.418c-5.757-5.316-21.324-10.332-21.324-10.332l-55.222 18.059Z" fill="url(#O)"/></g><mask id="P" style="mask-type:luminance" maskUnits="userSpaceOnUse" x="-233" y="-64" width="393" height="246"><path d="M159.053-63.757h-391.299v244.914h391.299V-63.757Z" fill="#fff"/></mask><g mask="url(#P)"><path d="M-4.086 102.629c.508-.045 100.157 16.038 119.402 24.649 19.245 8.61 28.965 26.715 16.464 54.913h27.648l.045-64.183-140.486-12.803-20.097-2.771-2.976.195Z" fill="#FFCC8C"/></g><mask id="Q" style="mask-type:luminance" maskUnits="userSpaceOnUse" x="-233" y="-64" width="393" height="246"><path d="M159.053-63.757h-391.299v244.914h391.299V-63.757Z" fill="#fff"/></mask><g mask="url(#Q)"><path d="m159.414 100.128-20.785.959h-33.002l-27.873-.599-57.436-1.213-1.091.913-.27 1.737v3.295s114.618 14.87 114.962 14.87c.344 0 25.48 5.331 25.48 5.331v-25.293h.015Z" fill="#EBF5FA"/><path d="M18.973 105.22v.868l36.456 4.582 80.315 12.13 23.671 6.02v-3.399l-25.481-5.331-72.404-9.36-42.557-5.51Z" fill="#060312"/><path d="m140.828 100.997-3.155 3.564.18 13.657 21.607 4.028-.045 3.175-25.48-5.331-64.883-8.386-41.929-5.436v-.719l.509-.045.015-2.051.762-.015.075 2.291 9.211.734.075-5.391 1.436-1.393h1.046l-1.33 1.587-.105 5.436.777.105.045-5.526 1.241-1.572.942.03-1.24 1.767.06 5.451 12.635 1.318.015-6.604 1.525-1.663 1.42.03-1.54 1.857-.06 6.425 1.017.149.12-2.725h.807l-.074-3.025-.972-.09.03-.629 1.39-1.947 21.593.45-2.542 2.216-.12 7.907 1.45-.06-.03-3.085 1.047-.12-.06-3.204h-1.24l-.03-1.423 2.317-2.201 1.48.03-2.018 2.231.194 8.281 21.802 2.321-.059-9.629 2.258-2.725 2.631.06-2.482 2.89.03 9.808 1.271.075v-9.808l2.482-2.965h1.137l-2.378 3.084.195 9.839 25.899 3.399-.03-13.043 2.975-3.279 6.101-.105Z" fill="url(#R)"/><path d="m104.07 105.654 1.226-.3v4.193h-1.226v-3.893Z" fill="#EBF5FA"/><path d="M106.628 109.323h-.837v1.003h.837v-1.003Zm-5.863-5.451h-1.346v5.87h1.346v-5.87Zm-20.74-.794v4.822l17.734 1.528.15-5.721 2.183-2.096-18.183-.405-1.884 1.872Z" fill="#2D3838"/><path d="m80.025 103.078 17.884.629 2.183-2.096-18.183-.405-1.884 1.872Z" fill="#679FC7"/><path d="m82.63 103.168-.075 4.957.463.03.09-4.987h-.479Zm2.885.105v5.106l.419.03v-5.121l-.419-.015Zm2.783.09v5.256l.494.03v-5.256l-.494-.03Zm3.168.12v5.406l.479.044v-5.435l-.479-.015Zm3.246.104v5.586l.508.03v-5.586l-.508-.03Z" fill="#000"/><path opacity=".5" d="m77.397 100.443-2.362 2.021-19.47-.464 1.391-1.947 20.441.39Z" fill="#EBF5FA"/><path d="m70.367 100.338-1.87 1.962 4.845.119 2.154-2.006-5.13-.075Z" fill="#679FC7"/><path d="M75.033 104.471h-.703v3.489h.703v-3.489Z" fill="#EBF5FA"/><path d="m104.803 116.331.523-1.512 1.854.224.284 1.633-2.661-.345Zm-9.046-1.123.36-1.243 2.631.285.404 1.422-3.395-.464ZM77.5 112.917l.374-1.273 1.78.225.374 1.362-2.528-.314Zm-7.164-1.018v-1.303l2.213.284v1.273l-2.213-.254Z" fill="#060312"/><path d="M59.182 102.854v2.216l2.019.15v-2.291l-2.019-.075Zm3.319.149v2.217l2.02.149v-2.291l-2.02-.075Z" fill="#000"/><path d="M68.497 102.3v4.462l4.815.374.03-4.717-4.845-.119Z" fill="#2D3838"/><path d="M75.031 102.464v10.078l.853.045.12-9.868 2.541-2.216-1.151-.06-2.363 2.021Z" fill="#9B2F2A"/><path d="M41.554 101.476v3.205l9.974.539v-3.579l1.555-1.663-9.914-.21-1.615 1.708Z" fill="#2D3838"/><path d="m41.554 101.476 9.974.165 1.555-1.663-10.064-.224-1.465 1.722Z" fill="#679FC7"/><path d="M43.212 101.506h-.224v3.264h.224v-3.264Zm1.855.03h-.225v3.339h.225v-3.339Zm1.854.03h-.224v3.399h.224v-3.399Zm1.839.03h-.224v3.474h.224v-3.474Zm1.854.03h-.224v3.534h.224v-3.534Z" fill="#000"/><path d="M53.754 103.393h-.778v2.665h.778v-2.665Z" fill="#EBF5FA"/><path d="M53.292 101.671h.763l1.51-1.648-.747-.015-1.526 1.663Z" fill="#679FC7"/><path d="M53.74 109.802c.015-.075 0-2.007 0-2.007h.897v2.037l-.897-.03Z" fill="#000"/><path d="M56.042 110.057v-1.049l1.615.255v.973l-1.615-.179Zm-5.547-.749v-.914l1.42.18v.914l-1.42-.18Zm-10.63-1.378v-.674l1.33.15v.689l-1.33-.165Zm-3.979-.509v-.749l1.182.105v.779l-1.182-.135Z" fill="#060312"/><path d="M28.978 100.697v2.89l7.491.33v-2.995l.838-.884-7.447-.134-.882.793Z" fill="#2D3838"/><path d="m28.978 100.697 7.491.225.838-.884-7.447-.134-.882.793Z" fill="#679FC7"/><path d="M38.054 102.494v2.276l.523.045v-2.321h-.523Z" fill="#EBF5FA"/><path d="M39.802 102.24v2.276l.523.045v-2.321h-.523Z" fill="#fff"/><path opacity=".5" d="M22.905 100.293v3.834l.987 1.767 2.691.314.06-5.825-3.738-.09Z" fill="#2D3838"/><path d="m19.242 100.188 8.569.225 1.166-.944-8.643-.18-1.091.899Z" fill="#679FC7"/><path d="M20.767 101.132h-.912v3.114h.912v-3.114Z" fill="#2D3838"/><path d="M102.01 106.403h-.703v3.923h.703v-3.923Z" fill="#EBF5FA"/><path opacity=".5" d="M100.766 103.872h1.526l1.929-2.261h-1.69l-1.765 2.261Z" fill="#EBF5FA"/><path d="m102.323 116.002-.029-12.13 1.929-2.261.583-.539.822.03-2.482 2.89.03 9.808-.045 2.336-.808-.134Z" fill="#9B2F2A"/></g></g><path d="M-17.827 105.373c37.532 0 67.959-30.426 67.959-67.958 0-13.825-4.13-26.682-11.212-37.415H-70v80.955c12.472 14.922 31.208 24.418 52.173 24.418Z" fill="url(#S)" style="mix-blend-mode:screen" opacity=".25"/><path d="M113.423 75.752c1.085 0 2.17-.024 3.244-.07V0H44.24a69.804 69.804 0 0 0-.28 6.277c0 38.371 31.103 69.475 69.463 69.475Z" fill="url(#T)" style="mix-blend-mode:screen" opacity=".8"/><g style="mix-blend-mode:screen"><path d="M62.16 89.915c.329 0 .595-2.22.595-4.958 0-2.739-.266-4.959-.595-4.959-.329 0-.595 2.22-.595 4.959 0 2.738.266 4.958.595 4.958Z" fill="url(#U)"/><path d="M62.183 85.47c-3.033 0-5.495-.233-5.495-.513s2.462-.514 5.495-.514c3.034 0 5.495.234 5.495.514 0 .291-2.461.513-5.495.513Z" fill="url(#V)"/><path d="M61.81 85.318c-1.447-1.446-2.45-2.776-2.24-2.975.198-.198 1.528.805 2.975 2.24 1.447 1.447 2.45 2.777 2.24 2.975-.198.21-1.528-.793-2.975-2.24Z" fill="url(#W)"/><path d="M62.545 85.318c-1.447 1.447-2.777 2.45-2.975 2.24-.198-.198.805-1.528 2.24-2.975 1.447-1.446 2.777-2.45 2.975-2.24.198.21-.805 1.54-2.24 2.975Z" fill="url(#X)"/><path d="M62.475 84.957c0 .175-.14.315-.315.315a.314.314 0 0 1-.315-.315c0-.175.14-.315.315-.315s.315.14.315.315Z" fill="url(#Y)"/></g><g style="mix-blend-mode:screen"><path d="M14.472 55.917c.328 0 .595-2.22.595-4.959 0-2.738-.267-4.958-.595-4.958-.329 0-.595 2.22-.595 4.958 0 2.739.266 4.959.595 4.959Z" fill="url(#Z)"/><path d="M14.495 51.472c-3.033 0-5.495-.234-5.495-.514s2.462-.513 5.495-.513 5.495.233 5.495.513c0 .292-2.462.514-5.495.514Z" fill="url(#aa)"/><path d="M14.122 51.32c-1.447-1.447-2.45-2.777-2.24-2.975.198-.198 1.528.805 2.975 2.24 1.446 1.447 2.45 2.777 2.24 2.975-.199.21-1.529-.793-2.975-2.24Z" fill="url(#ab)"/><path d="M14.857 51.32c-1.447 1.447-2.777 2.45-2.975 2.24-.199-.198.805-1.528 2.24-2.975 1.446-1.447 2.776-2.45 2.975-2.24.198.21-.805 1.54-2.24 2.975Z" fill="url(#ac)"/><path d="M14.787 50.958c0 .175-.14.315-.315.315a.314.314 0 0 1-.315-.315c0-.175.14-.315.315-.315s.315.14.315.315Z" fill="url(#ad)"/></g><g style="mix-blend-mode:screen"><path d="M33.472 30.917c.328 0 .595-2.22.595-4.959 0-2.738-.267-4.958-.595-4.958-.329 0-.595 2.22-.595 4.958 0 2.739.266 4.959.595 4.959Z" fill="url(#ae)"/><path d="M33.495 26.472c-3.033 0-5.495-.234-5.495-.514s2.462-.513 5.495-.513 5.495.233 5.495.513c0 .292-2.462.514-5.495.514Z" fill="url(#af)"/><path d="M33.122 26.32c-1.447-1.447-2.45-2.777-2.24-2.975.198-.198 1.528.805 2.975 2.24 1.446 1.447 2.45 2.777 2.24 2.975-.199.21-1.529-.793-2.975-2.24Z" fill="url(#ag)"/><path d="M33.857 26.32c-1.447 1.447-2.777 2.45-2.975 2.24-.199-.198.805-1.528 2.24-2.975 1.446-1.447 2.776-2.45 2.975-2.24.198.21-.805 1.54-2.24 2.975Z" fill="url(#ah)"/><path d="M33.787 25.958c0 .175-.14.315-.315.315a.314.314 0 0 1-.315-.315c0-.175.14-.315.315-.315s.315.14.315.315Z" fill="url(#ai)"/></g><g style="mix-blend-mode:screen"><path d="M77.472 79.917c.328 0 .595-2.22.595-4.959 0-2.738-.267-4.958-.595-4.958-.329 0-.595 2.22-.595 4.958 0 2.739.266 4.959.595 4.959Z" fill="url(#aj)"/><path d="M77.495 75.472c-3.033 0-5.495-.234-5.495-.514s2.462-.513 5.495-.513 5.495.233 5.495.513c0 .292-2.462.514-5.495.514Z" fill="url(#ak)"/><path d="M77.122 75.32c-1.447-1.447-2.45-2.777-2.24-2.975.198-.198 1.528.805 2.975 2.24 1.446 1.447 2.45 2.777 2.24 2.975-.199.21-1.529-.793-2.975-2.24Z" fill="url(#al)"/><path d="M77.857 75.32c-1.447 1.447-2.777 2.45-2.975 2.24-.199-.198.805-1.528 2.24-2.975 1.446-1.447 2.776-2.45 2.975-2.24.198.21-.805 1.54-2.24 2.975Z" fill="url(#am)"/><path d="M77.787 74.958c0 .175-.14.315-.315.315a.314.314 0 0 1-.315-.315c0-.175.14-.315.315-.315s.315.14.315.315Z" fill="url(#an)"/></g><g style="mix-blend-mode:screen"><path d="M5.472 104.917c.328 0 .595-2.22.595-4.959C6.067 97.22 5.8 95 5.472 95c-.329 0-.595 2.22-.595 4.958 0 2.739.266 4.959.595 4.959Z" fill="url(#ao)"/><path d="M5.495 100.472c-3.033 0-5.495-.234-5.495-.514s2.462-.513 5.495-.513 5.495.233 5.495.513c0 .292-2.462.514-5.495.514Z" fill="url(#ap)"/><path d="M5.122 100.32c-1.447-1.447-2.45-2.777-2.24-2.975.198-.198 1.528.805 2.975 2.24 1.446 1.447 2.45 2.777 2.24 2.975-.199.21-1.529-.793-2.975-2.24Z" fill="url(#aq)"/><path d="M5.857 100.32c-1.447 1.447-2.777 2.45-2.975 2.24-.199-.198.805-1.528 2.24-2.975 1.446-1.447 2.776-2.45 2.975-2.24.198.21-.805 1.54-2.24 2.975Z" fill="url(#ar)"/><path d="M5.787 99.958c0 .175-.14.315-.315.315a.314.314 0 0 1-.315-.315c0-.175.14-.315.315-.315s.315.14.315.315Z" fill="url(#as)"/></g><g style="mix-blend-mode:screen"><path d="M54.472 16.917c.328 0 .595-2.22.595-4.959C55.067 9.22 54.8 7 54.472 7c-.329 0-.595 2.22-.595 4.958 0 2.739.266 4.959.595 4.959Z" fill="url(#at)"/><path d="M54.495 12.472c-3.033 0-5.495-.234-5.495-.514s2.462-.513 5.495-.513 5.495.233 5.495.513c0 .292-2.462.514-5.495.514Z" fill="url(#au)"/><path d="M54.122 12.32c-1.447-1.447-2.45-2.777-2.24-2.975.198-.198 1.528.805 2.975 2.24 1.446 1.447 2.45 2.777 2.24 2.975-.199.21-1.529-.793-2.975-2.24Z" fill="url(#av)"/><path d="M54.857 12.32c-1.447 1.447-2.777 2.45-2.975 2.24-.199-.198.805-1.528 2.24-2.975 1.446-1.447 2.776-2.45 2.975-2.24.198.21-.805 1.54-2.24 2.975Z" fill="url(#aw)"/><path d="M54.787 11.958c0 .175-.14.315-.315.315a.314.314 0 0 1-.315-.315c0-.175.14-.315.315-.315s.315.14.315.315Z" fill="url(#ax)"/></g></g><defs><radialGradient id="e" cx="0" cy="0" r="1" gradientUnits="userSpaceOnUse" gradientTransform="matrix(229.055 0 0 29.5667 -48.675 77.54)"><stop offset=".05" stop-color="#FFFFD7"/><stop offset=".131" stop-color="#F7F7D0"/><stop offset=".257" stop-color="#E1E1BE"/><stop offset=".413" stop-color="#BDBDA0"/><stop offset=".592" stop-color="#8C8C76"/><stop offset=".79" stop-color="#4C4C40"/><stop offset="1"/></radialGradient><radialGradient id="S" cx="0" cy="0" r="1" gradientUnits="userSpaceOnUse" gradientTransform="translate(-17.365 38.357) scale(62.7605)"><stop stop-color="#F36A38"/><stop offset=".228" stop-color="#B04D29"/><stop offset=".505" stop-color="#662C17"/><stop offset=".736" stop-color="#2F140B"/><stop offset=".907" stop-color="#0D0603"/><stop offset="1"/></radialGradient><radialGradient id="T" cx="0" cy="0" r="1" gradientUnits="userSpaceOnUse" gradientTransform="translate(113.896 7.24) scale(64.1572)"><stop stop-color="#F37C50"/><stop offset=".228" stop-color="#B05A3A"/><stop offset=".505" stop-color="#663421"/><stop offset=".736" stop-color="#2F180F"/><stop offset=".907" stop-color="#0D0704"/><stop offset="1"/></radialGradient><radialGradient id="U" cx="0" cy="0" r="1" gradientUnits="userSpaceOnUse" gradientTransform="matrix(.59906 0 0 4.95425 62.16 84.959)"><stop stop-color="#E6E7E8"/><stop offset=".032" stop-color="#C4C5C6"/><stop offset=".076" stop-color="#9B9C9D"/><stop offset=".126" stop-color="#767777"/><stop offset=".18" stop-color="#565657"/><stop offset=".239" stop-color="#3B3B3B"/><stop offset=".307" stop-color="#252525"/><stop offset=".386" stop-color="#141414"/><stop offset=".483" stop-color="#090909"/><stop offset=".62" stop-color="#020202"/><stop offset="1"/></radialGradient><radialGradient id="V" cx="0" cy="0" r="1" gradientUnits="userSpaceOnUse" gradientTransform="matrix(0 .5152 -5.49872 0 62.178 84.959)"><stop stop-color="#E6E7E8"/><stop offset=".032" stop-color="#C4C5C6"/><stop offset=".076" stop-color="#9B9C9D"/><stop offset=".126" stop-color="#767777"/><stop offset=".18" stop-color="#565657"/><stop offset=".239" stop-color="#3B3B3B"/><stop offset=".307" stop-color="#252525"/><stop offset=".386" stop-color="#141414"/><stop offset=".483" stop-color="#090909"/><stop offset=".62" stop-color="#020202"/><stop offset="1"/></radialGradient><radialGradient id="W" cx="0" cy="0" r="1" gradientUnits="userSpaceOnUse" gradientTransform="rotate(135 13.494 55.357) scale(.51528 3.68947)"><stop stop-color="#E6E7E8"/><stop offset=".032" stop-color="#C4C5C6"/><stop offset=".076" stop-color="#9B9C9D"/><stop offset=".126" stop-color="#767777"/><stop offset=".18" stop-color="#565657"/><stop offset=".239" stop-color="#3B3B3B"/><stop offset=".307" stop-color="#252525"/><stop offset=".386" stop-color="#141414"/><stop offset=".483" stop-color="#090909"/><stop offset=".62" stop-color="#020202"/><stop offset="1"/></radialGradient><radialGradient id="X" cx="0" cy="0" r="1" gradientUnits="userSpaceOnUse" gradientTransform="rotate(45 -71.464 117.537) scale(.51528 3.68947)"><stop stop-color="#E6E7E8"/><stop offset=".029" stop-color="#C9CACB"/><stop offset=".077" stop-color="#9FA0A1"/><stop offset=".131" stop-color="#797A7A"/><stop offset=".189" stop-color="#585859"/><stop offset=".253" stop-color="#3C3D3D"/><stop offset=".325" stop-color="#262626"/><stop offset=".408" stop-color="#151515"/><stop offset=".509" stop-color="#090909"/><stop offset=".648" stop-color="#020202"/><stop offset="1"/></radialGradient><radialGradient id="Y" cx="0" cy="0" r="1" gradientUnits="userSpaceOnUse" gradientTransform="translate(62.16 84.959) scale(.3135)"><stop stop-color="#E6E7E8"/><stop offset=".264" stop-color="#E4E5E6"/><stop offset=".405" stop-color="#DCDDDE"/><stop offset=".517" stop-color="#CECFD0"/><stop offset=".614" stop-color="#BBBCBD"/><stop offset=".701" stop-color="#A2A3A4"/><stop offset=".781" stop-color="#848585"/><stop offset=".856" stop-color="#606060"/><stop offset=".926" stop-color="#353636"/><stop offset=".991" stop-color="#070707"/><stop offset="1"/></radialGradient><radialGradient id="Z" cx="0" cy="0" r="1" gradientUnits="userSpaceOnUse" gradientTransform="matrix(.59906 0 0 4.95425 14.47 50.96)"><stop stop-color="#E6E7E8"/><stop offset=".032" stop-color="#C4C5C6"/><stop offset=".076" stop-color="#9B9C9D"/><stop offset=".126" stop-color="#767777"/><stop offset=".18" stop-color="#565657"/><stop offset=".239" stop-color="#3B3B3B"/><stop offset=".307" stop-color="#252525"/><stop offset=".386" stop-color="#141414"/><stop offset=".483" stop-color="#090909"/><stop offset=".62" stop-color="#020202"/><stop offset="1"/></radialGradient><radialGradient id="aa" cx="0" cy="0" r="1" gradientUnits="userSpaceOnUse" gradientTransform="matrix(0 .5152 -5.49872 0 14.49 50.96)"><stop stop-color="#E6E7E8"/><stop offset=".032" stop-color="#C4C5C6"/><stop offset=".076" stop-color="#9B9C9D"/><stop offset=".126" stop-color="#767777"/><stop offset=".18" stop-color="#565657"/><stop offset=".239" stop-color="#3B3B3B"/><stop offset=".307" stop-color="#252525"/><stop offset=".386" stop-color="#141414"/><stop offset=".483" stop-color="#090909"/><stop offset=".62" stop-color="#020202"/><stop offset="1"/></radialGradient><radialGradient id="ab" cx="0" cy="0" r="1" gradientUnits="userSpaceOnUse" gradientTransform="rotate(135 -3.31 28.481) scale(.51528 3.68947)"><stop stop-color="#E6E7E8"/><stop offset=".032" stop-color="#C4C5C6"/><stop offset=".076" stop-color="#9B9C9D"/><stop offset=".126" stop-color="#767777"/><stop offset=".18" stop-color="#565657"/><stop offset=".239" stop-color="#3B3B3B"/><stop offset=".307" stop-color="#252525"/><stop offset=".386" stop-color="#141414"/><stop offset=".483" stop-color="#090909"/><stop offset=".62" stop-color="#020202"/><stop offset="1"/></radialGradient><radialGradient id="ac" cx="0" cy="0" r="1" gradientUnits="userSpaceOnUse" gradientTransform="rotate(45 -54.27 42.972) scale(.51528 3.68947)"><stop stop-color="#E6E7E8"/><stop offset=".029" stop-color="#C9CACB"/><stop offset=".077" stop-color="#9FA0A1"/><stop offset=".131" stop-color="#797A7A"/><stop offset=".189" stop-color="#585859"/><stop offset=".253" stop-color="#3C3D3D"/><stop offset=".325" stop-color="#262626"/><stop offset=".408" stop-color="#151515"/><stop offset=".509" stop-color="#090909"/><stop offset=".648" stop-color="#020202"/><stop offset="1"/></radialGradient><radialGradient id="ad" cx="0" cy="0" r="1" gradientUnits="userSpaceOnUse" gradientTransform="translate(14.47 50.96) scale(.3135)"><stop stop-color="#E6E7E8"/><stop offset=".264" stop-color="#E4E5E6"/><stop offset=".405" stop-color="#DCDDDE"/><stop offset=".517" stop-color="#CECFD0"/><stop offset=".614" stop-color="#BBBCBD"/><stop offset=".701" stop-color="#A2A3A4"/><stop offset=".781" stop-color="#848585"/><stop offset=".856" stop-color="#606060"/><stop offset=".926" stop-color="#353636"/><stop offset=".991" stop-color="#070707"/><stop offset="1"/></radialGradient><radialGradient id="ae" cx="0" cy="0" r="1" gradientUnits="userSpaceOnUse" gradientTransform="matrix(.59906 0 0 4.95425 33.47 25.96)"><stop stop-color="#E6E7E8"/><stop offset=".032" stop-color="#C4C5C6"/><stop offset=".076" stop-color="#9B9C9D"/><stop offset=".126" stop-color="#767777"/><stop offset=".18" stop-color="#565657"/><stop offset=".239" stop-color="#3B3B3B"/><stop offset=".307" stop-color="#252525"/><stop offset=".386" stop-color="#141414"/><stop offset=".483" stop-color="#090909"/><stop offset=".62" stop-color="#020202"/><stop offset="1"/></radialGradient><radialGradient id="af" cx="0" cy="0" r="1" gradientUnits="userSpaceOnUse" gradientTransform="matrix(0 .5152 -5.49872 0 33.49 25.96)"><stop stop-color="#E6E7E8"/><stop offset=".032" stop-color="#C4C5C6"/><stop offset=".076" stop-color="#9B9C9D"/><stop offset=".126" stop-color="#767777"/><stop offset=".18" stop-color="#565657"/><stop offset=".239" stop-color="#3B3B3B"/><stop offset=".307" stop-color="#252525"/><stop offset=".386" stop-color="#141414"/><stop offset=".483" stop-color="#090909"/><stop offset=".62" stop-color="#020202"/><stop offset="1"/></radialGradient><radialGradient id="ag" cx="0" cy="0" r="1" gradientUnits="userSpaceOnUse" gradientTransform="rotate(135 11.369 19.916) scale(.51528 3.68947)"><stop stop-color="#E6E7E8"/><stop offset=".032" stop-color="#C4C5C6"/><stop offset=".076" stop-color="#9B9C9D"/><stop offset=".126" stop-color="#767777"/><stop offset=".18" stop-color="#565657"/><stop offset=".239" stop-color="#3B3B3B"/><stop offset=".307" stop-color="#252525"/><stop offset=".386" stop-color="#141414"/><stop offset=".483" stop-color="#090909"/><stop offset=".62" stop-color="#020202"/><stop offset="1"/></radialGradient><radialGradient id="ah" cx="0" cy="0" r="1" gradientUnits="userSpaceOnUse" gradientTransform="rotate(45 -14.591 53.407) scale(.51528 3.68947)"><stop stop-color="#E6E7E8"/><stop offset=".029" stop-color="#C9CACB"/><stop offset=".077" stop-color="#9FA0A1"/><stop offset=".131" stop-color="#797A7A"/><stop offset=".189" stop-color="#585859"/><stop offset=".253" stop-color="#3C3D3D"/><stop offset=".325" stop-color="#262626"/><stop offset=".408" stop-color="#151515"/><stop offset=".509" stop-color="#090909"/><stop offset=".648" stop-color="#020202"/><stop offset="1"/></radialGradient><radialGradient id="ai" cx="0" cy="0" r="1" gradientUnits="userSpaceOnUse" gradientTransform="translate(33.47 25.96) scale(.3135)"><stop stop-color="#E6E7E8"/><stop offset=".264" stop-color="#E4E5E6"/><stop offset=".405" stop-color="#DCDDDE"/><stop offset=".517" stop-color="#CECFD0"/><stop offset=".614" stop-color="#BBBCBD"/><stop offset=".701" stop-color="#A2A3A4"/><stop offset=".781" stop-color="#848585"/><stop offset=".856" stop-color="#606060"/><stop offset=".926" stop-color="#353636"/><stop offset=".991" stop-color="#070707"/><stop offset="1"/></radialGradient><radialGradient id="aj" cx="0" cy="0" r="1" gradientUnits="userSpaceOnUse" gradientTransform="matrix(.59906 0 0 4.95425 77.47 74.96)"><stop stop-color="#E6E7E8"/><stop offset=".032" stop-color="#C4C5C6"/><stop offset=".076" stop-color="#9B9C9D"/><stop offset=".126" stop-color="#767777"/><stop offset=".18" stop-color="#565657"/><stop offset=".239" stop-color="#3B3B3B"/><stop offset=".307" stop-color="#252525"/><stop offset=".386" stop-color="#141414"/><stop offset=".483" stop-color="#090909"/><stop offset=".62" stop-color="#020202"/><stop offset="1"/></radialGradient><radialGradient id="ak" cx="0" cy="0" r="1" gradientUnits="userSpaceOnUse" gradientTransform="matrix(0 .5152 -5.49872 0 77.49 74.96)"><stop stop-color="#E6E7E8"/><stop offset=".032" stop-color="#C4C5C6"/><stop offset=".076" stop-color="#9B9C9D"/><stop offset=".126" stop-color="#767777"/><stop offset=".18" stop-color="#565657"/><stop offset=".239" stop-color="#3B3B3B"/><stop offset=".307" stop-color="#252525"/><stop offset=".386" stop-color="#141414"/><stop offset=".483" stop-color="#090909"/><stop offset=".62" stop-color="#020202"/><stop offset="1"/></radialGradient><radialGradient id="al" cx="0" cy="0" r="1" gradientUnits="userSpaceOnUse" gradientTransform="rotate(135 23.22 53.53) scale(.51528 3.68947)"><stop stop-color="#E6E7E8"/><stop offset=".032" stop-color="#C4C5C6"/><stop offset=".076" stop-color="#9B9C9D"/><stop offset=".126" stop-color="#767777"/><stop offset=".18" stop-color="#565657"/><stop offset=".239" stop-color="#3B3B3B"/><stop offset=".307" stop-color="#252525"/><stop offset=".386" stop-color="#141414"/><stop offset=".483" stop-color="#090909"/><stop offset=".62" stop-color="#020202"/><stop offset="1"/></radialGradient><radialGradient id="am" cx="0" cy="0" r="1" gradientUnits="userSpaceOnUse" gradientTransform="rotate(45 -51.739 131.02) scale(.51528 3.68947)"><stop stop-color="#E6E7E8"/><stop offset=".029" stop-color="#C9CACB"/><stop offset=".077" stop-color="#9FA0A1"/><stop offset=".131" stop-color="#797A7A"/><stop offset=".189" stop-color="#585859"/><stop offset=".253" stop-color="#3C3D3D"/><stop offset=".325" stop-color="#262626"/><stop offset=".408" stop-color="#151515"/><stop offset=".509" stop-color="#090909"/><stop offset=".648" stop-color="#020202"/><stop offset="1"/></radialGradient><radialGradient id="an" cx="0" cy="0" r="1" gradientUnits="userSpaceOnUse" gradientTransform="translate(77.47 74.96) scale(.3135)"><stop stop-color="#E6E7E8"/><stop offset=".264" stop-color="#E4E5E6"/><stop offset=".405" stop-color="#DCDDDE"/><stop offset=".517" stop-color="#CECFD0"/><stop offset=".614" stop-color="#BBBCBD"/><stop offset=".701" stop-color="#A2A3A4"/><stop offset=".781" stop-color="#848585"/><stop offset=".856" stop-color="#606060"/><stop offset=".926" stop-color="#353636"/><stop offset=".991" stop-color="#070707"/><stop offset="1"/></radialGradient><radialGradient id="ao" cx="0" cy="0" r="1" gradientUnits="userSpaceOnUse" gradientTransform="matrix(.59906 0 0 4.95425 5.47 99.96)"><stop stop-color="#E6E7E8"/><stop offset=".032" stop-color="#C4C5C6"/><stop offset=".076" stop-color="#9B9C9D"/><stop offset=".126" stop-color="#767777"/><stop offset=".18" stop-color="#565657"/><stop offset=".239" stop-color="#3B3B3B"/><stop offset=".307" stop-color="#252525"/><stop offset=".386" stop-color="#141414"/><stop offset=".483" stop-color="#090909"/><stop offset=".62" stop-color="#020202"/><stop offset="1"/></radialGradient><radialGradient id="ap" cx="0" cy="0" r="1" gradientUnits="userSpaceOnUse" gradientTransform="matrix(0 .5152 -5.49872 0 5.49 99.96)"><stop stop-color="#E6E7E8"/><stop offset=".032" stop-color="#C4C5C6"/><stop offset=".076" stop-color="#9B9C9D"/><stop offset=".126" stop-color="#767777"/><stop offset=".18" stop-color="#565657"/><stop offset=".239" stop-color="#3B3B3B"/><stop offset=".307" stop-color="#252525"/><stop offset=".386" stop-color="#141414"/><stop offset=".483" stop-color="#090909"/><stop offset=".62" stop-color="#020202"/><stop offset="1"/></radialGradient><radialGradient id="aq" cx="0" cy="0" r="1" gradientUnits="userSpaceOnUse" gradientTransform="rotate(135 -17.957 51.117) scale(.51528 3.68947)"><stop stop-color="#E6E7E8"/><stop offset=".032" stop-color="#C4C5C6"/><stop offset=".076" stop-color="#9B9C9D"/><stop offset=".126" stop-color="#767777"/><stop offset=".18" stop-color="#565657"/><stop offset=".239" stop-color="#3B3B3B"/><stop offset=".307" stop-color="#252525"/><stop offset=".386" stop-color="#141414"/><stop offset=".483" stop-color="#090909"/><stop offset=".62" stop-color="#020202"/><stop offset="1"/></radialGradient><radialGradient id="ar" cx="0" cy="0" r="1" gradientUnits="userSpaceOnUse" gradientTransform="rotate(45 -117.918 56.609) scale(.51528 3.68947)"><stop stop-color="#E6E7E8"/><stop offset=".029" stop-color="#C9CACB"/><stop offset=".077" stop-color="#9FA0A1"/><stop offset=".131" stop-color="#797A7A"/><stop offset=".189" stop-color="#585859"/><stop offset=".253" stop-color="#3C3D3D"/><stop offset=".325" stop-color="#262626"/><stop offset=".408" stop-color="#151515"/><stop offset=".509" stop-color="#090909"/><stop offset=".648" stop-color="#020202"/><stop offset="1"/></radialGradient><radialGradient id="as" cx="0" cy="0" r="1" gradientUnits="userSpaceOnUse" gradientTransform="translate(5.47 99.96) scale(.3135)"><stop stop-color="#E6E7E8"/><stop offset=".264" stop-color="#E4E5E6"/><stop offset=".405" stop-color="#DCDDDE"/><stop offset=".517" stop-color="#CECFD0"/><stop offset=".614" stop-color="#BBBCBD"/><stop offset=".701" stop-color="#A2A3A4"/><stop offset=".781" stop-color="#848585"/><stop offset=".856" stop-color="#606060"/><stop offset=".926" stop-color="#353636"/><stop offset=".991" stop-color="#070707"/><stop offset="1"/></radialGradient><radialGradient id="at" cx="0" cy="0" r="1" gradientUnits="userSpaceOnUse" gradientTransform="matrix(.59906 0 0 4.95425 54.47 11.96)"><stop stop-color="#E6E7E8"/><stop offset=".032" stop-color="#C4C5C6"/><stop offset=".076" stop-color="#9B9C9D"/><stop offset=".126" stop-color="#767777"/><stop offset=".18" stop-color="#565657"/><stop offset=".239" stop-color="#3B3B3B"/><stop offset=".307" stop-color="#252525"/><stop offset=".386" stop-color="#141414"/><stop offset=".483" stop-color="#090909"/><stop offset=".62" stop-color="#020202"/><stop offset="1"/></radialGradient><radialGradient id="au" cx="0" cy="0" r="1" gradientUnits="userSpaceOnUse" gradientTransform="matrix(0 .5152 -5.49872 0 54.49 11.96)"><stop stop-color="#E6E7E8"/><stop offset=".032" stop-color="#C4C5C6"/><stop offset=".076" stop-color="#9B9C9D"/><stop offset=".126" stop-color="#767777"/><stop offset=".18" stop-color="#565657"/><stop offset=".239" stop-color="#3B3B3B"/><stop offset=".307" stop-color="#252525"/><stop offset=".386" stop-color="#141414"/><stop offset=".483" stop-color="#090909"/><stop offset=".62" stop-color="#020202"/><stop offset="1"/></radialGradient><radialGradient id="av" cx="0" cy="0" r="1" gradientUnits="userSpaceOnUse" gradientTransform="rotate(135 24.768 17.265) scale(.51528 3.68947)"><stop stop-color="#E6E7E8"/><stop offset=".032" stop-color="#C4C5C6"/><stop offset=".076" stop-color="#9B9C9D"/><stop offset=".126" stop-color="#767777"/><stop offset=".18" stop-color="#565657"/><stop offset=".239" stop-color="#3B3B3B"/><stop offset=".307" stop-color="#252525"/><stop offset=".386" stop-color="#141414"/><stop offset=".483" stop-color="#090909"/><stop offset=".62" stop-color="#020202"/><stop offset="1"/></radialGradient><radialGradient id="aw" cx="0" cy="0" r="1" gradientUnits="userSpaceOnUse" gradientTransform="rotate(45 12.808 71.756) scale(.51528 3.68947)"><stop stop-color="#E6E7E8"/><stop offset=".029" stop-color="#C9CACB"/><stop offset=".077" stop-color="#9FA0A1"/><stop offset=".131" stop-color="#797A7A"/><stop offset=".189" stop-color="#585859"/><stop offset=".253" stop-color="#3C3D3D"/><stop offset=".325" stop-color="#262626"/><stop offset=".408" stop-color="#151515"/><stop offset=".509" stop-color="#090909"/><stop offset=".648" stop-color="#020202"/><stop offset="1"/></radialGradient><radialGradient id="ax" cx="0" cy="0" r="1" gradientUnits="userSpaceOnUse" gradientTransform="translate(54.47 11.96) scale(.3135)"><stop stop-color="#E6E7E8"/><stop offset=".264" stop-color="#E4E5E6"/><stop offset=".405" stop-color="#DCDDDE"/><stop offset=".517" stop-color="#CECFD0"/><stop offset=".614" stop-color="#BBBCBD"/><stop offset=".701" stop-color="#A2A3A4"/><stop offset=".781" stop-color="#848585"/><stop offset=".856" stop-color="#606060"/><stop offset=".926" stop-color="#353636"/><stop offset=".991" stop-color="#070707"/><stop offset="1"/></radialGradient><linearGradient id="d" x1="-56.897" y1="-53" x2="-56.897" y2="271.031" gradientUnits="userSpaceOnUse"><stop stop-color="#51C0E1"/><stop offset=".237" stop-color="#A9E9F2"/><stop offset=".343" stop-color="#CCFCE0"/><stop offset=".594" stop-color="#E0F096"/><stop offset=".731" stop-color="#ECE963"/></linearGradient><linearGradient id="f" x1="9.092" y1="2.868" x2="11.561" y2="9.647" gradientUnits="userSpaceOnUse"><stop stop-color="#fff"/><stop offset=".262" stop-color="#D1F9FF"/><stop offset=".563" stop-color="#CCFCE0"/><stop offset=".881" stop-color="#E0F096"/><stop offset="1" stop-color="#ECE963"/></linearGradient><linearGradient id="g" x1="48.83" y1="-.93" x2="54.5" y2="21" gradientUnits="userSpaceOnUse"><stop stop-color="#fff"/><stop offset=".262" stop-color="#D1F9FF"/><stop offset=".563" stop-color="#CCFCE0"/><stop offset=".881" stop-color="#E0F096"/><stop offset="1" stop-color="#ECE963"/></linearGradient><linearGradient id="h" x1="48.522" y1="17.945" x2="69.705" y2="61.931" gradientUnits="userSpaceOnUse"><stop stop-color="#fff"/><stop offset=".262" stop-color="#D1F9FF"/><stop offset=".563" stop-color="#CCFCE0"/><stop offset=".881" stop-color="#E0F096"/><stop offset="1" stop-color="#ECE963"/></linearGradient><linearGradient id="i" x1="84.981" y1="26.838" x2="97.387" y2="42.552" gradientUnits="userSpaceOnUse"><stop stop-color="#fff"/><stop offset=".262" stop-color="#D1F9FF"/><stop offset=".563" stop-color="#CCFCE0"/><stop offset=".881" stop-color="#E0F096"/><stop offset="1" stop-color="#ECE963"/></linearGradient><linearGradient id="j" x1="123.172" y1="16.816" x2="131.549" y2="86.127" gradientUnits="userSpaceOnUse"><stop stop-color="#fff"/><stop offset=".262" stop-color="#D1F9FF"/><stop offset=".563" stop-color="#CCFCE0"/><stop offset=".881" stop-color="#E0F096"/><stop offset="1" stop-color="#ECE963"/></linearGradient><linearGradient id="k" x1="134.107" y1="14.921" x2="151.168" y2="70.873" gradientUnits="userSpaceOnUse"><stop stop-color="#fff"/><stop offset=".262" stop-color="#D1F9FF"/><stop offset=".563" stop-color="#CCFCE0"/><stop offset=".881" stop-color="#E0F096"/><stop offset="1" stop-color="#ECE963"/></linearGradient><linearGradient id="m" x1="86.628" y1="57.486" x2="79.1" y2="13.78" gradientUnits="userSpaceOnUse"><stop stop-color="#67B599"/><stop offset="1" stop-color="#CFFDF8"/></linearGradient><linearGradient id="n" x1="58.914" y1="55.684" x2="52.849" y2="34.211" gradientUnits="userSpaceOnUse"><stop stop-color="#67B599"/><stop offset="1" stop-color="#CFFDF8"/></linearGradient><linearGradient id="o" x1="59.002" y1="60.68" x2="61.184" y2="22.352" gradientUnits="userSpaceOnUse"><stop stop-color="#67B576"/><stop offset="1" stop-color="#B8E3DD"/></linearGradient><linearGradient id="p" x1="-65.719" y1="70.196" x2="-66.417" y2="49.75" gradientUnits="userSpaceOnUse"><stop stop-color="#67B576"/><stop offset="1" stop-color="#B8E3DD"/></linearGradient><linearGradient id="q" x1="-19.506" y1="58.524" x2="-20.144" y2="47.667" gradientUnits="userSpaceOnUse"><stop stop-color="#67B576"/><stop offset="1" stop-color="#B8E3DD"/></linearGradient><linearGradient id="r" x1="-65.719" y1="74.112" x2="-65.976" y2="61.698" gradientUnits="userSpaceOnUse"><stop stop-color="#67B576"/><stop offset="1" stop-color="#B8E3DD"/></linearGradient><linearGradient id="s" x1="94.992" y1="75.487" x2="92.706" y2="47.984" gradientUnits="userSpaceOnUse"><stop stop-color="#67B576"/><stop offset="1" stop-color="#B8E3DD"/></linearGradient><linearGradient id="t" x1="118.939" y1="62.824" x2="117.388" y2="44.585" gradientUnits="userSpaceOnUse"><stop stop-color="#67B576"/><stop offset="1" stop-color="#B8E3DD"/></linearGradient><linearGradient id="u" x1="121.04" y1="77.026" x2="119.672" y2="60.304" gradientUnits="userSpaceOnUse"><stop stop-color="#67B576"/><stop offset="1" stop-color="#B8E3DD"/></linearGradient><linearGradient id="v" x1="133.962" y1="49.971" x2="133.408" y2="41.101" gradientUnits="userSpaceOnUse"><stop stop-color="#67B576"/><stop offset="1" stop-color="#B8E3DD"/></linearGradient><linearGradient id="w" x1="109.08" y1="53.186" x2="106.003" y2="45.871" gradientUnits="userSpaceOnUse"><stop stop-color="#67B576"/><stop offset="1" stop-color="#B8E3DD"/></linearGradient><linearGradient id="x" x1="98.515" y1="60.88" x2="96.135" y2="55.139" gradientUnits="userSpaceOnUse"><stop stop-color="#67B576"/><stop offset="1" stop-color="#B8E3DD"/></linearGradient><linearGradient id="A" x1="-42.5" y1="116" x2="-40.603" y2="66.475" gradientUnits="userSpaceOnUse"><stop stop-color="#4DB0A5"/><stop offset="1" stop-color="#EFCE3D"/></linearGradient><linearGradient id="C" x1="-54.877" y1="95.542" x2="-57.788" y2="60.65" gradientUnits="userSpaceOnUse"><stop stop-color="#4DB0A5"/><stop offset="1" stop-color="#EFCE3D"/></linearGradient><linearGradient id="E" x1="150" y1="167" x2="5.909" y2="58.257" gradientUnits="userSpaceOnUse"><stop stop-color="#4DB0A5"/><stop offset="1" stop-color="#EFCE3D"/></linearGradient><linearGradient id="F" x1="93.493" y1="137.146" x2="87.994" y2="95.723" gradientUnits="userSpaceOnUse"><stop stop-color="#4DB0A5"/><stop offset="1" stop-color="#EFCE3D"/></linearGradient><linearGradient id="G" x1="-3.594" y1="152.744" x2="-13.946" y2="138.633" gradientUnits="userSpaceOnUse"><stop stop-color="#4DB0A5"/><stop offset="1" stop-color="#EFCE3D"/></linearGradient><linearGradient id="H" x1="-7.068" y1="140.586" x2="-7.715" y2="135.986" gradientUnits="userSpaceOnUse"><stop stop-color="#67B576"/><stop offset="1" stop-color="#B8E3DD"/></linearGradient><linearGradient id="L" x1="100.38" y1="83.394" x2="100.227" y2="82.356" gradientUnits="userSpaceOnUse"><stop stop-color="#4DB0A5"/><stop offset="1" stop-color="#EFCE3D"/></linearGradient><linearGradient id="M" x1="101.328" y1="80.923" x2="101.609" y2="80.923" gradientUnits="userSpaceOnUse"><stop stop-color="#F0E1CF"/><stop offset=".388" stop-color="#EAD9C5"/><stop offset="1" stop-color="#C0A084"/></linearGradient><linearGradient id="O" x1="119.408" y1="250.698" x2="45.695" y2="190.657" gradientUnits="userSpaceOnUse"><stop stop-color="#4DB0A5"/><stop offset="1" stop-color="#EFCE3D"/></linearGradient><linearGradient id="R" x1="93.289" y1="116.5" x2="93.289" y2="101.5" gradientUnits="userSpaceOnUse"><stop stop-color="#ECD0D0"/><stop offset=".485" stop-color="#F56868"/><stop offset="1" stop-color="#E21A1A"/></linearGradient><clipPath id="a"><path fill="#fff" d="M0 0h107v136H0z"/></clipPath></defs></svg>