<svg width="280" height="280" fill="none" xmlns="http://www.w3.org/2000/svg"><path d="M140 280c77.321 0 140-62.679 140-140C280 62.68 217.321 0 140 0 62.68 0 0 62.68 0 140c0 77.321 62.68 140 140 140" fill="#D6001C"/><path d="M79 73v47.472c7.3-8.618 15.85-12.955 26-12.955 5.227 0 9.789.988 13.989 2.948 4.211 1.948 7.359 4.448 9.485 7.483 2.138 3.065 3.583 6.42 4.364 10.118.776 3.681 1.163 9.408 1.163 17.177V196H111v-45.716c0-9.071-.093-14.816-.957-17.258a11.164 11.164 0 0 0-4.552-5.815c-2.185-1.459-4.904-2.18-8.187-2.18-3.76 0-7.13.93-10.062 2.779-2.995 1.861-5.145 4.64-6.508 8.356-1.386 3.721-1.757 9.216-1.734 16.491V196H56.001V73H79Zm89.999 0v47.472c7.301-8.618 15.85-12.955 26-12.955 5.227 0 9.789.988 13.988 2.948 4.212 1.948 7.36 4.448 9.486 7.483 2.138 3.065 3.583 6.42 4.364 10.118.775 3.681 1.163 9.408 1.163 17.177V196h-23.001v-45.716c0-9.071-.094-14.816-.957-17.258a11.17 11.17 0 0 0-4.552-5.815c-2.185-1.459-4.904-2.18-8.188-2.18-3.759 0-7.13.93-10.061 2.779-2.995 1.861-5.145 4.64-6.508 8.356-1.386 3.721-1.758 9.216-1.734 16.491V196H146V73h22.999Z" fill="#fff"/></svg>