<svg width="960" height="514" fill="none" xmlns="http://www.w3.org/2000/svg"><g filter="url(#a)"><g clip-path="url(#b)"><g clip-path="url(#c)"><path fill="#fff" d="M-545 0h2612.85v645H-545z"/><g clip-path="url(#d)"><path d="M2989.49-34.656H-585.507v1021H2989.49v-1021Z" fill="url(#e)"/><path d="M906.611 51.366h-123.54v566.792h123.54V51.366Z" fill="#49D8F7"/><path d="M1003.03 51.366h-96.419v566.792h96.419V51.366Z" fill="#003659"/><path d="M1002.94 108.117h-83.169v510.041h83.169V108.117Z" fill="#C0BDF4"/><path d="M970.977 51.366h-44.492v566.792h44.492V51.366Z" fill="#49D8F7"/><path d="M1079.75 51.366H951.282v566.792h128.468V51.366Z" fill="#003659"/><path d="M906.611 71.685h-123.54v18.708h123.54V71.685Zm173.049 0H926.485v18.708h153.175V71.685Zm-173.049 36.432h-123.54v18.708h123.54v-18.708Zm173.049 0H926.485v18.708h153.175v-18.708Zm-173.049 36.431h-123.54v18.708h123.54v-18.708Zm173.049 0H926.485v18.708h153.175v-18.708ZM906.611 180.98h-123.54v18.708h123.54V180.98Zm173.049 0H926.485v18.708h153.175V180.98Zm-173.049 36.431h-123.54v18.708h123.54v-18.708Zm173.049 0H926.485v18.708h153.175v-18.708Zm-173.049 36.432h-123.54v18.708h123.54v-18.708Zm173.049 0H926.485v18.708h153.175v-18.708Zm-173.049 36.431h-123.54v18.708h123.54v-18.708Zm173.049 0H926.485v18.708h153.175v-18.708Zm-173.049 36.432h-123.54v18.708h123.54v-18.708Zm173.049 0H926.485v18.708h153.175v-18.708Zm-173.049 36.431h-123.54v18.708h123.54v-18.708Zm173.049 0H926.485v18.708h153.175v-18.708Zm-173.049 36.432h-123.54v18.708h123.54v-18.708Zm173.049 0H926.485v18.708h153.175v-18.708ZM906.611 436h-123.54v18.619h123.54V436Zm173.049 0H926.485v18.619h153.175V436Zm-173.049 36.432h-123.54v18.619h123.54v-18.619Zm173.049 0H926.485v18.619h153.175v-18.619Zm-173.049 36.431h-123.54v18.619h123.54v-18.619Zm173.049 0H926.485v18.619h153.175v-18.619Z" opacity=".23" fill="#003659"/><path opacity=".06" d="M1079.66 122.708v193.257L951.282 612.519V419.262l128.378-296.554Z" fill="#fff"/><path d="M1079.75 51.366H783.071v566.792h296.679V51.366Z" fill="url(#f)" style="mix-blend-mode:multiply" opacity=".4"/><path d="M-46.508 188.967H47.04v429.191h-93.548V188.967Z" fill="#49D8F7"/><path d="M-46.508 204.353H47.04v14.166h-93.548v-14.166Zm0 27.587H47.04v14.166h-93.548V231.94Zm0 27.587H47.04v14.166h-93.548v-14.166Zm0 27.587H47.04v14.166h-93.548v-14.166Zm0 27.587H47.04v14.166h-93.548v-14.166Zm0 27.587H47.04v14.166h-93.548v-14.166Zm0 27.587H47.04v14.166h-93.548v-14.166Zm0 27.587H47.04v14.166h-93.548v-14.166Zm0 27.587H47.04v14.166h-93.548v-14.166Zm0 27.587H47.04v14.166h-93.548v-14.166Zm0 27.587H47.04v14.098h-93.548v-14.098Zm0 27.587H47.04v14.099h-93.548V507.81Z" opacity=".23" fill="#003659"/><path d="M-177.611 188.967H47.04v429.191h-224.651V188.967Z" fill="url(#g)" style="mix-blend-mode:multiply" opacity=".4"/><path d="m342.713 484.068.537 5.371c.627 7.072 1.164 14.143 1.701 21.215.09 1.074.09 2.148.179 3.222h4.656v-3.133h27.304v16.649h9.668v-.179h-.537v-1.969h.537v-.716h-.537v-1.969h.537v-.716h-.537v-1.97h.537v-.716h-.537v-1.969h.537v-.806h3.76v-75.19h1.969v-19.961h29.274v19.961h1.97v106.251h11.727v7.072h5.282v-20.857h2.059v-8.862H465v-.358h-1.522l1.701-2.416v-1.164h.806l.895-1.253h-1.701v-1.79h1.791v-1.254h-1.791v-1.79h1.791v-1.253h-1.791v-1.79h1.791v-3.044h1.432v-3.222h3.849V496.6h2.865v-11.278l8.684-2.059 1.969-.448v-18.618h1.164v18.35l3.491-.806V496.6h2.417v8.862h2.059v-21.931h1.522v-44.04h-.805v-2.148h1.253v-.895c0-.627.448-1.164 1.074-1.164h.627v-4.565c0-1.164.895-2.148 1.969-2.148h.09v-4.028c0-1.164.716-2.149 1.79-2.417v-3.581h1.343c.358-2.685 2.328-4.744 4.924-5.191v-3.67c0-.269.089-.448.358-.448v-9.399h.895v9.399c.179.09.358.269.358.448v3.67c2.507.358 4.476 2.506 4.834 5.191h1.343v3.581c.985.268 1.791 1.253 1.791 2.417v4.028h.089c1.074 0 1.97.984 1.97 2.148v4.565h.716c.626 0 1.074.537 1.074 1.164v.895h.985v2.148h-.985v44.04h1.432v27.123h20.59v13.963h12.713v24.437h4.207v-1.163h18.173v-5.64h2.596v-6.713h14.503v-6.355h16.472V480.13h1.969v-.806h-1.969v-2.954h1.969v-.805h-2.059v-2.954h2.059v-.806h-2.059v-2.954h2.059v-.805h-2.059v-2.954h2.059v-.895h-2.059v-2.954h2.059v-.806h-2.059v-2.954h2.059v-.805h-2.059v-63.823h37.42v60.779h-.089v2.954h-2.596v.806h2.596v2.954h-2.596v.805h2.596v2.954h-2.596v.895h2.685v2.954h-2.685v.806h2.685v2.954h-2.685v.805h2.685v2.954h-2.685v.806h2.685v2.954h-2.685v.805h2.864v37.148h12.533v-10.115h15.667v-16.112l3.222-9.309.09-.358 8.505-24.527 11.816 34.194v2.327h.717v1.074h-.806v1.432h.716v1.075h-.716v1.432h.716v1.074h-.716v1.432h.716v1.074h-.716v1.433h.716v1.074h-.716v1.432h.716v1.074h-.716v1.432h.716v1.074h-.716v1.433h.716v1.074h-.716v1.432h.716v1.074h-.716v1.432h.716v1.074h-.716v1.433h.716v1.074h-.716v1.432h.716v1.074h-.716v1.432h.716v1.074h-.716v1.433h.716v1.074h-.716v1.432h.716v1.074h-.716v1.432h.716v1.074h-.716v1.433h.716v1.074h-.716v1.432h.716v.358h13.607v-12.532h20.769v-.447l.09-1.79v-3.312l.09-1.522.089-1.79v-1.522l.09-1.79v-1.522l.089-1.79.09-1.522v-3.312l.089-1.79v-1.522l.09-1.79v-1.522l.089-1.79v-1.522l.09-1.79v-1.522l.089-1.79v-1.522l.09-1.79.179-5.55 8.683-3.133v4.834h2.686l-.269-13.158 15.04-4.028 1.522 21.035.179 1.79.09 1.522.179 1.79.089 1.522.09 1.79.089 1.522.09 1.79.089 1.522.09 1.79.089 1.522.179 1.79.09 1.522.089 1.79.09 1.522.089 1.79.09 1.522.179 1.79.089 1.522.18 1.79.089 1.522.09 1.79.089 1.522.179 1.79.09 1.521.089 1.791.09 1.521.179 1.791.089 1.521.179 1.791.09 1.521.089 1.791.09 1.521.089 1.791.09 1.521.089 1.791.09 1.521.089 1.701h15.13v7.788h10.653V536.97h11.817v-30.971h6.714v-43.682h47.625v158.437h-550.29V484.158l30.974-.09Z" fill="#BDE0F4"/><path d="M688.984 532.316h-38.673v-79.577h38.673v79.577Z" fill="#BDE0F4"/><path d="M680.479 452.739h-21.575v79.577h21.575v-79.577Z" fill="#49AAF7"/><path d="M680.479 452.739h-21.575v3.402h21.575v-3.402Zm0 6.087h-21.575v3.402h21.575v-3.402Zm0 6.176h-21.575v3.402h21.575v-3.402Zm0 6.087h-21.575v3.402h21.575v-3.402Zm0 6.177h-21.575v3.401h21.575v-3.401Zm0 6.086h-21.575v3.402h21.575v-3.402Zm0 6.177h-21.575v3.401h21.575v-3.401Zm0 6.086h-21.575v3.402h21.575v-3.402Zm0 6.088h-21.575v3.401h21.575v-3.401Zm0 6.176h-21.575v3.401h21.575v-3.401Zm0 6.087h-21.575v3.401h21.575v-3.401Zm-25.871-61.227h-4.297v3.402h4.297v-3.402Zm0 6.087h-4.297v3.402h4.297v-3.402Zm0 6.176h-4.297v3.402h4.297v-3.402Zm0 6.087h-4.297v3.402h4.297v-3.402Zm0 6.177h-4.297v3.401h4.297v-3.401Zm0 6.086h-4.297v3.402h4.297v-3.402Zm0 6.177h-4.297v3.401h4.297v-3.401Zm0 6.086h-4.297v3.402h4.297v-3.402Zm0 6.088h-4.297v3.401h4.297v-3.401Zm0 6.176h-4.297v3.401h4.297v-3.401Zm0 6.087h-4.297v3.401h4.297v-3.401Zm34.376-61.227h-4.297v3.402h4.297v-3.402Zm0 6.087h-4.297v3.402h4.297v-3.402Zm0 6.176h-4.297v3.402h4.297v-3.402Zm0 6.087h-4.297v3.402h4.297v-3.402Zm0 6.177h-4.297v3.401h4.297v-3.401Zm0 6.086h-4.297v3.402h4.297v-3.402Zm0 6.177h-4.297v3.401h4.297v-3.401Zm0 6.086h-4.297v3.402h4.297v-3.402Zm0 6.088h-4.297v3.401h4.297v-3.401Zm0 6.176h-4.297v3.401h4.297v-3.401Zm0 6.087h-4.297v3.401h4.297v-3.401Z" fill="#BDE0F4"/><path d="M650.311 452.739h-14.682v79.577h14.682v-79.577Z" fill="#49AAF7"/><path d="M645.655 452.739h-6.177v76.891h6.177v-76.891Z" fill="#49AAF7"/><path d="M645.655 452.739h-6.177v3.402h6.177v-3.402Zm0 6.087h-6.177v3.402h6.177v-3.402Zm0 6.176h-6.177v3.402h6.177v-3.402Zm0 6.087h-6.177v3.402h6.177v-3.402Zm0 6.177h-6.177v3.401h6.177v-3.401Zm0 6.086h-6.177v3.402h6.177v-3.402Zm0 6.177h-6.177v3.401h6.177v-3.401Zm0 6.086h-6.177v3.402h6.177v-3.402Zm0 6.088h-6.177v3.401h6.177v-3.401Zm0 6.176h-6.177v3.401h6.177v-3.401Zm0 6.087h-6.177v3.401h6.177v-3.401Zm25.246-61.227h-2.507v76.891h2.507v-76.891Z" fill="#49AAF7"/><path d="M689.073 447.906h-53.444v4.833h53.444v-4.833Zm0-.179h-53.444v.179h53.444v-.179Z" fill="#BDE0F4"/><path d="M650.311 447.906h-14.682v4.833h14.682v-4.833Zm0-.179h-14.682v.179h14.682v-.179Zm-14.862-14.68h-26.946V617.89h26.946V433.047Z" fill="#BDE0F4"/><path d="M608.503 433.047h-38.136V617.89h38.136V433.047Zm26.857 0h-26.857V617.89h26.857V433.047Z" fill="#BDE0F4"/><path d="M608.503 433.047h-38.136V617.89h38.136V433.047Z" fill="#003659"/><path d="M610.562 435.464h-10.026v3.401h10.026v-3.401Zm-34.018-.001h-10.026v3.402h10.026v-3.402Z" fill="#BDE0F4"/><path d="M617.634 435.464h-7.161v3.401h7.161v-3.401Zm21.307 0h-7.162v3.401h7.162v-3.401Zm-28.379 5.907h-10.026v3.402h10.026v-3.402Zm-34.018 0h-10.026v3.402h10.026v-3.402Z" fill="#BDE0F4"/><path d="M617.634 441.371h-7.161v3.402h7.161v-3.402Zm21.307 0h-7.162v3.402h7.162v-3.402Zm-28.379 5.908h-10.026v3.402h10.026v-3.402Zm-34.018 0h-10.026v3.402h10.026v-3.402Z" fill="#BDE0F4"/><path d="M617.634 447.279h-7.161v3.402h7.161v-3.402Zm21.307 0h-7.162v3.402h7.162v-3.402Zm-28.379 5.908h-10.026v3.401h10.026v-3.401Zm-34.018 0h-10.026v3.401h10.026v-3.401Z" fill="#BDE0F4"/><path d="M617.634 453.187h-7.161v3.401h7.161v-3.401Zm21.307 0h-7.162v3.401h7.162v-3.401Zm-28.379 5.907h-10.026v3.402h10.026v-3.402Zm-34.018 0h-10.026v3.402h10.026v-3.402Z" fill="#BDE0F4"/><path d="M617.634 459.094h-7.161v3.402h7.161v-3.402Zm21.307 0h-7.162v3.402h7.162v-3.402Zm-28.379 5.819h-10.026v3.402h10.026v-3.402Zm-34.018 0h-10.026v3.402h10.026v-3.402Z" fill="#BDE0F4"/><path d="M617.634 464.913h-7.161v3.402h7.161v-3.402Zm21.307 0h-7.162v3.402h7.162v-3.402Zm-28.379 5.908h-10.026v3.401h10.026v-3.401Zm-34.018 0h-10.026v3.401h10.026v-3.401Z" fill="#BDE0F4"/><path d="M617.634 470.821h-7.161v3.401h7.161v-3.401Zm21.307 0h-7.162v3.401h7.162v-3.401Zm-28.379 5.908h-10.026v3.401h10.026v-3.401Zm-34.018 0h-10.026v3.401h10.026v-3.401Z" fill="#BDE0F4"/><path d="M617.634 476.729h-7.161v3.401h7.161v-3.401Zm21.307 0h-7.162v3.401h7.162v-3.401Zm-28.379 5.908h-10.026v3.401h10.026v-3.401Zm-34.018 0h-10.026v3.401h10.026v-3.401Z" fill="#BDE0F4"/><path d="M617.634 482.637h-7.161v3.401h7.161v-3.401Zm21.307 0h-7.162v3.401h7.162v-3.401Zm-28.379 5.818h-10.026v3.401h10.026v-3.401Zm-34.018 0h-10.026v3.401h10.026v-3.401Z" fill="#BDE0F4"/><path d="M617.634 488.455h-7.161v3.401h7.161v-3.401Zm21.307 0h-7.162v3.401h7.162v-3.401Zm-28.379 5.908h-10.026v3.401h10.026v-3.401Zm-34.018 0h-10.026v3.401h10.026v-3.401Z" fill="#BDE0F4"/><path d="M617.634 494.363h-7.161v3.401h7.161v-3.401Zm21.307 0h-7.162v3.401h7.162v-3.401Zm-28.379 5.908h-10.026v3.401h10.026v-3.401Zm-34.018-.001h-10.026v3.402h10.026v-3.402Z" fill="#BDE0F4"/><path d="M617.634 500.271h-7.161v3.401h7.161v-3.401Zm21.307 0h-7.162v3.401h7.162v-3.401Zm-28.379 5.907h-10.026v3.402h10.026v-3.402Zm-34.018 0h-10.026v3.402h10.026v-3.402Z" fill="#BDE0F4"/><path d="M617.634 506.178h-7.161v3.402h7.161v-3.402Zm21.307 0h-7.162v3.402h7.162v-3.402Zm-28.379 5.908h-10.026v3.401h10.026v-3.401Zm-34.018 0h-10.026v3.401h10.026v-3.401Z" fill="#BDE0F4"/><path d="M617.634 512.086h-7.161v3.401h7.161v-3.401Zm21.307 0h-7.162v3.401h7.162v-3.401Z" fill="#BDE0F4"/><path d="M595.523 433.047h-14.95v181.889h14.95V433.047Zm33.66 0h-9.31v182.515h9.31V433.047Z" fill="#003659"/><path d="M312.122 538.133h-38.673v-79.576h38.673v79.576Z" fill="#BDE0F4"/><path d="M303.618 458.557h-21.575v79.576h21.575v-79.576Z" fill="#49AAF7"/><path d="M303.618 458.557h-21.575v3.401h21.575v-3.401Zm0 6.087h-21.575v3.401h21.575v-3.401Zm0 6.176h-21.575v3.402h21.575v-3.402Zm0 6.087h-21.575v3.402h21.575v-3.402Zm0 6.176h-21.575v3.402h21.575v-3.402Zm0 6.087h-21.575v3.402h21.575v-3.402Zm0 6.177h-21.575v3.401h21.575v-3.401Zm0 6.086h-21.575v3.402h21.575v-3.402Zm0 6.087h-21.575v3.402h21.575v-3.402Zm0 6.177h-21.575v3.401h21.575v-3.401Zm-25.872-55.14h-4.297v3.401h4.297v-3.401Zm0 6.087h-4.297v3.401h4.297v-3.401Zm0 6.176h-4.297v3.402h4.297v-3.402Zm0 6.087h-4.297v3.402h4.297v-3.402Zm0 6.176h-4.297v3.402h4.297v-3.402Zm0 6.087h-4.297v3.402h4.297v-3.402Zm0 6.177h-4.297v3.401h4.297v-3.401Zm0 6.086h-4.297v3.402h4.297v-3.402Zm0 6.087h-4.297v3.402h4.297v-3.402Zm0 6.177h-4.297v3.401h4.297v-3.401Zm34.376-55.14h-4.297v3.401h4.297v-3.401Zm0 6.087h-4.297v3.401h4.297v-3.401Zm0 6.176h-4.297v3.402h4.297v-3.402Zm0 6.087h-4.297v3.402h4.297v-3.402Zm0 6.176h-4.297v3.402h4.297v-3.402Zm0 6.087h-4.297v3.402h4.297v-3.402Zm0 6.177h-4.297v3.401h4.297v-3.401Zm0 6.086h-4.297v3.402h4.297v-3.402Zm0 6.087h-4.297v3.402h4.297v-3.402Zm0 6.177h-4.297v3.401h4.297v-3.401Z" fill="#BDE0F4"/><path d="M273.449 458.557h-14.682v79.576h14.682v-79.576Z" fill="#49AAF7"/><path d="M268.794 458.557h-6.177v76.891h6.177v-76.891Z" fill="#49AAF7"/><path d="M268.794 458.557h-6.177v3.401h6.177v-3.401Zm0 6.087h-6.177v3.401h6.177v-3.401Zm0 6.176h-6.177v3.402h6.177v-3.402Zm0 6.087h-6.177v3.402h6.177v-3.402Zm0 6.176h-6.177v3.402h6.177v-3.402Zm0 6.087h-6.177v3.402h6.177v-3.402Zm0 6.177h-6.177v3.401h6.177v-3.401Zm0 6.086h-6.177v3.402h6.177v-3.402Zm0 6.087h-6.177v3.402h6.177v-3.402Zm0 6.177h-6.177v3.401h6.177v-3.401Zm25.245-55.14h-2.507v76.891h2.507v-76.891Z" fill="#49AAF7"/><path d="M312.212 453.723h-53.445v4.834h53.445v-4.834Zm0-.179h-53.445v.179h53.445v-.179Z" fill="#BDE0F4"/><path d="M273.449 453.723h-14.682v4.834h14.682v-4.834Zm0-.179h-14.682v.179h14.682v-.179Zm-14.861-14.68h-26.946v184.843h26.946V438.864Zm-26.946 0h-38.136v184.843h38.136V438.864Z" fill="#BDE0F4"/><path d="M258.499 438.864h-26.857v184.843h26.857V438.864Z" fill="#BDE0F4"/><path d="M231.642 438.864h-38.136v184.843h38.136V438.864Z" fill="#003659"/><path d="M233.701 441.281h-10.026v3.401h10.026v-3.401Zm-34.018 0h-10.026v3.401h10.026v-3.401Z" fill="#BDE0F4"/><path d="M240.774 441.281h-7.162v3.401h7.162v-3.401Zm21.306 0h-7.162v3.401h7.162v-3.401Zm-28.379 5.908h-10.026v3.401h10.026v-3.401Zm-34.018-.001h-10.026v3.402h10.026v-3.402Z" fill="#BDE0F4"/><path d="M240.774 447.189h-7.162v3.401h7.162v-3.401Zm21.306 0h-7.162v3.401h7.162v-3.401Zm-28.379 5.908h-10.026v3.401h10.026v-3.401Zm-34.018-.001h-10.026v3.402h10.026v-3.402Z" fill="#BDE0F4"/><path d="M240.774 453.097h-7.162v3.401h7.162v-3.401Zm21.306 0h-7.162v3.401h7.162v-3.401Zm-28.379 5.907h-10.026v3.401h10.026v-3.401Zm-34.018 0h-10.026v3.401h10.026v-3.401Z" fill="#BDE0F4"/><path d="M240.774 459.004h-7.162v3.401h7.162v-3.401Zm21.306 0h-7.162v3.401h7.162v-3.401Zm-28.379 5.908h-10.026v3.401h10.026v-3.401Zm-34.018 0h-10.026v3.401h10.026v-3.401Z" fill="#BDE0F4"/><path d="M240.774 464.912h-7.162v3.401h7.162v-3.401Zm21.306 0h-7.162v3.401h7.162v-3.401Zm-28.379 5.818h-10.026v3.402h10.026v-3.402Zm-34.018 0h-10.026v3.402h10.026v-3.402Z" fill="#BDE0F4"/><path d="M240.774 470.73h-7.162v3.402h7.162v-3.402Zm21.306 0h-7.162v3.402h7.162v-3.402Zm-28.379 5.908h-10.026v3.402h10.026v-3.402Zm-34.018 0h-10.026v3.402h10.026v-3.402Z" fill="#BDE0F4"/><path d="M240.774 476.638h-7.162v3.402h7.162v-3.402Zm21.306 0h-7.162v3.402h7.162v-3.402Zm-28.379 5.908h-10.026v3.401h10.026v-3.401Zm-34.018 0h-10.026v3.401h10.026v-3.401Z" fill="#BDE0F4"/><path d="M240.774 482.546h-7.162v3.401h7.162v-3.401Zm21.306 0h-7.162v3.401h7.162v-3.401Zm-28.379 5.908h-10.026v3.401h10.026v-3.401Zm-34.018 0h-10.026v3.401h10.026v-3.401Z" fill="#BDE0F4"/><path d="M240.774 488.454h-7.162v3.401h7.162v-3.401Zm21.306 0h-7.162v3.401h7.162v-3.401Zm-28.379 5.818h-10.026v3.402h10.026v-3.402Zm-34.018 0h-10.026v3.402h10.026v-3.402Z" fill="#BDE0F4"/><path d="M240.774 494.272h-7.162v3.402h7.162v-3.402Zm21.306 0h-7.162v3.402h7.162v-3.402Zm-28.379 5.908h-10.026v3.401h10.026v-3.401Zm-34.018 0h-10.026v3.401h10.026v-3.401Z" fill="#BDE0F4"/><path d="M240.774 500.18h-7.162v3.401h7.162v-3.401Zm21.306 0h-7.162v3.401h7.162v-3.401Zm-28.379 5.908h-10.026v3.401h10.026v-3.401Zm-34.018 0h-10.026v3.401h10.026v-3.401Z" fill="#BDE0F4"/><path d="M240.774 506.088h-7.162v3.401h7.162v-3.401Zm21.306 0h-7.162v3.401h7.162v-3.401Zm-28.379 5.907h-10.026v3.402h10.026v-3.402Zm-34.018 0h-10.026v3.402h10.026v-3.402Z" fill="#BDE0F4"/><path d="M240.774 511.995h-7.162v3.402h7.162v-3.402Zm21.306 0h-7.162v3.402h7.162v-3.402Z" fill="#BDE0F4"/><path d="M218.662 438.864h-14.951v181.889h14.951V438.864Zm33.66 0h-9.31v182.515h9.31V438.864Z" fill="#003659"/><path d="M156.318 537.889h-38.673v-79.576h38.673v79.576Z" fill="#BDE0F4"/><path d="M147.814 458.313h-21.575v79.576h21.575v-79.576Z" fill="#49AAF7"/><path d="M147.814 458.313h-21.575v3.401h21.575v-3.401Zm0 6.087h-21.575v3.401h21.575V464.4Zm0 6.176h-21.575v3.401h21.575v-3.401Zm0 6.087h-21.575v3.401h21.575v-3.401Zm0 6.176h-21.575v3.402h21.575v-3.402Zm0 6.087h-21.575v3.402h21.575v-3.402Zm0 6.176h-21.575v3.402h21.575v-3.402Zm0 6.087h-21.575v3.402h21.575v-3.402Zm0 6.087h-21.575v3.402h21.575v-3.402Zm0 6.176h-21.575v3.402h21.575v-3.402Zm-25.872-55.139h-4.297v3.401h4.297v-3.401Zm0 6.087h-4.297v3.401h4.297V464.4Zm0 6.176h-4.297v3.401h4.297v-3.401Zm0 6.087h-4.297v3.401h4.297v-3.401Zm0 6.176h-4.297v3.402h4.297v-3.402Zm0 6.087h-4.297v3.402h4.297v-3.402Zm0 6.176h-4.297v3.402h4.297v-3.402Zm0 6.087h-4.297v3.402h4.297v-3.402Zm0 6.087h-4.297v3.402h4.297v-3.402Zm0 6.176h-4.297v3.402h4.297v-3.402Zm34.377-55.139h-4.298v3.401h4.298v-3.401Zm0 6.087h-4.298v3.401h4.298V464.4Zm0 6.176h-4.298v3.401h4.298v-3.401Zm0 6.087h-4.298v3.401h4.298v-3.401Zm0 6.176h-4.298v3.402h4.298v-3.402Zm0 6.087h-4.298v3.402h4.298v-3.402Zm0 6.176h-4.298v3.402h4.298v-3.402Zm0 6.087h-4.298v3.402h4.298v-3.402Zm0 6.087h-4.298v3.402h4.298v-3.402Zm0 6.176h-4.298v3.402h4.298v-3.402Z" fill="#BDE0F4"/><path d="M117.645 458.312h-14.682v79.577h14.682v-79.577Z" fill="#49AAF7"/><path d="M112.99 458.313h-6.177v76.891h6.177v-76.891Z" fill="#49AAF7"/><path d="M112.99 458.313h-6.177v3.401h6.177v-3.401Zm0 6.087h-6.177v3.401h6.177V464.4Zm0 6.176h-6.177v3.401h6.177v-3.401Zm0 6.087h-6.177v3.401h6.177v-3.401Zm0 6.176h-6.177v3.402h6.177v-3.402Zm0 6.087h-6.177v3.402h6.177v-3.402Zm0 6.176h-6.177v3.402h6.177v-3.402Zm0 6.087h-6.177v3.402h6.177v-3.402Zm0 6.087h-6.177v3.402h6.177v-3.402Zm0 6.176h-6.177v3.402h6.177v-3.402Zm25.245-55.139h-2.506v76.891h2.506v-76.891Z" fill="#49AAF7"/><path d="M156.408 453.479h-53.445v4.834h53.445v-4.834Zm0-.179h-53.445v.179h53.445v-.179Z" fill="#BDE0F4"/><path d="M117.645 453.479h-14.682v4.834h14.682v-4.834Zm0-.179h-14.682v.179h14.682v-.179Zm-14.861-14.68H75.838v184.843h26.946V438.62Zm-26.946 0H37.702v184.843h38.136V438.62Z" fill="#BDE0F4"/><path d="M102.695 438.62H75.838v184.843h26.857V438.62Z" fill="#BDE0F4"/><path d="M75.838 438.62H37.702v184.843h38.136V438.62Z" fill="#003659"/><path d="M77.897 441.036H67.871v3.402h10.026v-3.402Zm-34.018.001H33.853v3.401h10.026v-3.401Z" fill="#BDE0F4"/><path d="M84.97 441.036h-7.162v3.402h7.161v-3.402Zm21.306 0h-7.162v3.402h7.162v-3.402Zm-28.379 5.908H67.871v3.402h10.026v-3.402Zm-34.018 0H33.853v3.402h10.026v-3.402Z" fill="#BDE0F4"/><path d="M84.97 446.944h-7.162v3.402h7.161v-3.402Zm21.306 0h-7.162v3.402h7.162v-3.402Zm-28.379 5.909H67.871v3.401h10.026v-3.401Zm-34.018-.001H33.853v3.402h10.026v-3.402Z" fill="#BDE0F4"/><path d="M84.97 452.853h-7.162v3.401h7.161v-3.401Zm21.306 0h-7.162v3.401h7.162v-3.401Zm-28.379 5.907H67.871v3.401h10.026v-3.401Zm-34.018 0H33.853v3.401h10.026v-3.401Z" fill="#BDE0F4"/><path d="M84.97 458.76h-7.162v3.401h7.161v-3.401Zm21.306 0h-7.162v3.401h7.162v-3.401Zm-28.379 5.908H67.871v3.401h10.026v-3.401Zm-34.018 0H33.853v3.401h10.026v-3.401Z" fill="#BDE0F4"/><path d="M84.97 464.668h-7.162v3.401h7.161v-3.401Zm21.306 0h-7.162v3.401h7.162v-3.401Zm-28.379 5.818H67.871v3.402h10.026v-3.402Zm-34.018 0H33.853v3.402h10.026v-3.402Z" fill="#BDE0F4"/><path d="M84.97 470.486h-7.162v3.402h7.161v-3.402Zm21.306 0h-7.162v3.402h7.162v-3.402Zm-28.379 5.908H67.871v3.401h10.026v-3.401Zm-34.018 0H33.853v3.401h10.026v-3.401Z" fill="#BDE0F4"/><path d="M84.97 476.394h-7.162v3.401h7.161v-3.401Zm21.306 0h-7.162v3.401h7.162v-3.401Zm-28.379 5.908H67.871v3.401h10.026v-3.401Zm-34.018 0H33.853v3.401h10.026v-3.401Z" fill="#BDE0F4"/><path d="M84.97 482.302h-7.162v3.401h7.161v-3.401Zm21.306 0h-7.162v3.401h7.162v-3.401Zm-28.379 5.908H67.871v3.401h10.026v-3.401Zm-34.018 0H33.853v3.401h10.026v-3.401Z" fill="#BDE0F4"/><path d="M84.97 488.21h-7.162v3.401h7.161v-3.401Zm21.306 0h-7.162v3.401h7.162v-3.401Zm-28.379 5.818H67.871v3.401h10.026v-3.401Zm-34.018 0H33.853v3.401h10.026v-3.401Z" fill="#BDE0F4"/><path d="M84.97 494.028h-7.162v3.401h7.161v-3.401Zm21.306 0h-7.162v3.401h7.162v-3.401Zm-28.379 5.908H67.871v3.401h10.026v-3.401Zm-34.018 0H33.853v3.401h10.026v-3.401Z" fill="#BDE0F4"/><path d="M84.97 499.936h-7.162v3.401h7.161v-3.401Zm21.306 0h-7.162v3.401h7.162v-3.401Zm-28.379 5.908H67.871v3.401h10.026v-3.401Zm-34.018 0H33.853v3.401h10.026v-3.401Z" fill="#BDE0F4"/><path d="M84.97 505.844h-7.162v3.401h7.161v-3.401Zm21.306 0h-7.162v3.401h7.162v-3.401Zm-28.379 5.907H67.871v3.402h10.026v-3.402Zm-34.018 0H33.853v3.402h10.026v-3.402Z" fill="#BDE0F4"/><path d="M84.97 511.751h-7.162v3.402h7.161v-3.402Zm21.306 0h-7.162v3.402h7.162v-3.402Z" fill="#BDE0F4"/><path d="M62.858 438.62h-14.95v181.889h14.95V438.62Zm33.66 0h-9.31v182.515h9.31V438.62Z" fill="#003659"/><path d="M1136.95 476.37H930.334v141.519h206.616V476.37Z" fill="#fff"/><path d="M1146.26 495.347H920.935v105.266h225.325V495.347Z" fill="#49D8F7"/><path opacity=".36" d="M1146.26 508.058H920.935v11.189h225.325v-11.189Z" fill="#49D8F7"/><path d="M922.905 495.347h-1.97v105.266h1.97V495.347Zm13.965 0h-1.97v105.266h1.97V495.347Zm14.055 0h-1.969v105.266h1.969V495.347Z" fill="#fff"/><path d="M344.056 402.523v-24.169h47.715v201.135H320.87V420.783l23.186-18.26Z" fill="#49AAF7"/><path d="M367.869 402.523v-24.169h47.715v201.135h-70.812V420.783l23.097-18.26Z" fill="#BDE0F4"/><path d="M350.681 402.523v-24.169h5.64v24.169l-23.186 18.26v158.706h-5.551V420.783l23.097-18.26Z" fill="#5566C5"/><path d="M411.467 389.812h-1.97v189.766h1.97V389.812Zm-4.029 0h-1.97v189.766h1.97V389.812Zm-3.939 0h-1.969v189.766h1.969V389.812Zm-4.029 0h-1.969v189.766h1.969V389.812Zm-3.939 0h-1.969v189.766h1.969V389.812Zm-3.938 0h-1.97v189.766h1.97V389.812Zm-4.029 0h-1.969v189.766h1.969V389.812Zm-3.939 0h-1.969v189.766h1.969V389.812Zm-4.028 0h-1.97v189.766h1.97V389.812Zm-3.94 0h-1.969v189.766h1.969V389.812Zm-7.967 22.199h-1.969v167.478h1.969V412.011Zm-3.939 5.55h-1.969v161.928h1.969V417.561Zm-4.028 5.997h-1.97v155.931h1.97V423.558Zm-3.939 5.729h-1.97v150.202h1.97V429.287Z" fill="#49AAF7"/><path d="M351.756 429.287h-1.97v150.202h1.97V429.287Z" fill="#BDE0F4"/><path d="M200.995 462.585v-21.452h-42.352V619.66h62.932V478.793l-20.58-16.208Z" fill="#49AAF7"/><path d="M179.859 462.585v-21.452h-42.352V619.66h62.853V478.793l-20.501-16.208Z" fill="#BDE0F4"/><path d="M195.115 462.585v-21.452h-5.006v21.452l20.58 16.208V619.66h4.927V478.793l-20.501-16.208Z" fill="#5566C5"/><path d="M141.162 451.303h1.748V619.74h-1.748V451.303Zm3.576 0h1.748V619.74h-1.748V451.303Zm3.496 0h1.748V619.74h-1.748V451.303Zm3.576 0h1.748V619.74h-1.748V451.303Zm3.496 0h1.748V619.74h-1.748V451.303Zm3.496 0h1.748V619.74h-1.748V451.303Zm3.576 0h1.748V619.74h-1.748V451.303Zm3.496 0h1.748V619.74h-1.748V451.303Zm3.576 0h1.748V619.74h-1.748V451.303Zm3.496 0h1.748V619.74h-1.748V451.303Zm7.072 19.703h1.748V619.66h-1.748V471.006Zm3.496 4.926h1.748V619.66h-1.748V475.932Zm3.576 5.324h1.748v138.405h-1.748V481.256Zm3.496 5.085h1.748V619.66h-1.748V486.341Z" fill="#49AAF7"/><path d="M194.162 486.341h1.748V619.66h-1.748V486.341Z" fill="#BDE0F4"/><path d="M45.191 462.34v-21.452H2.84v178.528h62.933V478.548l-20.58-16.208Z" fill="#49AAF7"/><path d="M24.055 462.34v-21.452h-42.352v178.527h62.853V478.548L24.055 462.34Z" fill="#BDE0F4"/><path d="M39.31 462.34v-21.452h-5.005v21.452l20.58 16.208v140.867h4.927V478.548L39.31 462.34Z" fill="#5566C5"/><path d="M-.499 451.058H1.25v168.437H-.5V451.058Zm3.497 0h1.748v168.437H2.998V451.058Zm3.576 0h1.748v168.437H6.574V451.058Zm3.496 0h1.748v168.437H10.07V451.058Zm3.575 0h1.749v168.437h-1.749V451.058Zm3.497 0h1.748v168.437h-1.748V451.058Zm7.072 19.704h1.748v148.653h-1.748V470.762Zm3.496 4.926h1.748v143.728H27.71V475.688Zm3.576 5.323h1.748v138.405h-1.748V481.011Zm3.496 5.085h1.748v133.32h-1.748v-133.32Z" fill="#49AAF7"/><path d="M38.358 486.096h1.748v133.32h-1.748v-133.32Z" fill="#BDE0F4"/><path d="M951.282 51.366s-6.714 118.962-86.299 162.823c-61.591 33.835-81.733 136.954-81.733 136.954l-.179-299.777h168.211ZM-80.284 188.999s5.083 90.083 65.322 123.296c46.62 25.622 61.867 103.708 61.867 103.708l.135-227.004H-80.283Z" fill="#FEEDC5" style="mix-blend-mode:overlay" opacity=".61"/><path d="M1166.4 596.854H920.308c0-57.019 37.062-103.208 82.722-103.208 6.17 0 12.26.895 18.08 2.507 6.53-6.356 13.7-11.637 21.4-15.486 10.02-5.102 20.85-7.877 32.22-7.877 50.58-.089 91.67 55.498 91.67 124.064Z" fill="#3D213D"/><path d="M1166.4 596.854H920.308c0-57.019 37.062-103.208 82.722-103.208 6.17 0 12.26.895 18.08 2.507 6.53-6.356 13.7-11.637 21.4-15.486 10.02-5.102 20.85-7.877 32.22-7.877 50.58-.089 91.67 55.498 91.67 124.064Z" fill="url(#h)"/><path opacity=".43" d="m1042.42 480.667-55.955 116.276h-66.246c0-57.019 37.062-103.207 82.721-103.207 6.17 0 12.26.895 18.08 2.506 6.62-6.534 13.79-11.726 21.4-15.575Z" fill="#FEEDC5"/><path d="M554.612 596.138c23.583 0 42.701-19.117 42.701-42.698s-19.118-42.697-42.701-42.697c-23.584 0-42.702 19.116-42.702 42.697 0 23.581 19.118 42.698 42.702 42.698Z" fill="#3A95A8"/><path d="M672.422 584.68c28.281 0 51.207-21.601 51.207-48.247s-22.926-48.247-51.207-48.247c-28.28 0-51.206 21.601-51.206 48.247s22.926 48.247 51.206 48.247Z" fill="#888A17"/><path d="M674.302 584.68c27.242 0 49.327-21.04 49.327-46.994s-22.085-46.994-49.327-46.994c-27.242 0-49.326 21.04-49.326 46.994s22.084 46.994 49.326 46.994Z" fill="#3D213D"/><path d="M674.302 584.68c27.242 0 49.327-21.04 49.327-46.994s-22.085-46.994-49.327-46.994c-27.242 0-49.326 21.04-49.326 46.994s22.084 46.994 49.326 46.994Z" fill="url(#i)"/><path d="M476.996 617.89H311.739V443.341l165.257-17.903V617.89Z" fill="#C0BDF4"/><path d="M425.548 556.233c5.488-22.932-8.656-45.971-31.591-51.458-22.935-5.488-45.976 8.654-51.464 31.587-5.488 22.933 8.656 45.972 31.591 51.459 22.935 5.487 45.976-8.655 51.464-31.588Z" fill="#723E73"/><path d="M621.216 522.29c0 15.217-3.313 29.539-9.311 42.519H311.739v-85.485c11.369-9.936 24.887-17.365 39.837-21.483 7.967-5.102 16.83-8.861 26.319-11.099 15.04-24.706 42.255-41.176 73.319-41.176 18.889 0 36.256 6.087 50.49 16.47a104.524 104.524 0 0 1 17.725-1.521c8.774 0 17.278 1.074 25.425 3.222 43.955 11.279 76.362 51.112 76.362 98.553Z" fill="url(#j)"/><path d="M837.232 590.23c35.104 0 63.561-26.811 63.561-59.884 0-33.072-28.457-59.883-63.561-59.883-35.103 0-63.56 26.811-63.56 59.883 0 33.073 28.457 59.884 63.56 59.884Z" fill="#3A95A8"/><path d="M839.56 590.23c33.818 0 61.233-26.089 61.233-58.272s-27.415-58.273-61.233-58.273-61.233 26.09-61.233 58.273c0 32.183 27.415 58.272 61.233 58.272Z" fill="#3A95A8"/><path d="M876.085 502.239c0 46.547-40.016 84.231-89.432 84.231-22.918 0-43.777-8.145-59.622-21.482-18.262-15.397-29.811-37.864-29.811-62.749 0-46.546 40.016-84.231 89.433-84.231 24.976 0 47.446 9.578 63.739 25.153 15.845 15.128 25.693 35.984 25.693 59.078Z" fill="#AEB11B"/><path d="M876.085 502.239c0 46.547-40.016 84.231-89.432 84.231-22.918 0-43.777-8.145-59.622-21.482-18.262-15.397-29.811-37.864-29.811-62.749 0-46.546 40.016-84.231 89.433-84.231 24.976 0 47.446 9.578 63.739 25.153 15.845 15.128 25.693 35.984 25.693 59.078Z" fill="url(#k)"/><path d="M822.55 483.89h-3.581v154.587h3.581V483.89Z" fill="#FFFFFB"/><path d="m837.755 478.916-16.521 16.52.633.633 16.521-16.52-.633-.633Z" fill="#FFFFFB"/><path d="m850.66 469.746-1.97-.537c-1.253-.268-2.954.09-3.939.895l-9.489 8.235c-.895.806-.716 1.701.537 2.059l1.97.537c1.253.269 2.954-.089 3.939-.895l9.489-8.235c.985-.806.716-1.701-.537-2.059Z" fill="#49AAF7"/><path d="m256.699 444.65 663.178-168.91s-.537-1.521-1.522-3.849c-2.327-5.818-6.893-16.918-10.116-22.557-4.476-7.787-6.624-10.025-6.624-10.025l-16.204-3.402L820.06 255.6 262.071 423.704l-5.372 20.946Z" fill="#889EA3"/><path d="M882.01 242.8 261.534 425.852l-6.088 19.156 634.262-165.24-7.698-36.968Z" fill="#E21A1A"/><path d="m769.014 275.277 29.403 28.294-46.31 11.914-25.728-28.295 42.635-11.913Zm-104.741 31.831 31.113 29.473-49.003 12.41-27.224-29.473 45.114-12.41Zm-98.023 28.48 23.591 22.4-37.156 9.431-20.642-22.399 34.207-9.432Zm-72.876 20.941 23.591 22.4-37.156 9.431-20.642-22.399 34.207-9.432Zm-71.2 20.942 23.591 22.399-37.156 9.432-20.643-22.4 34.208-9.431Zm-50.961 16.753 16.753 15.915-26.386 6.702-14.659-15.916 24.292-6.701Zm-54.106 15.078 16.412 15.326-25.848 6.453-14.36-15.326 23.796-6.453Zm-35.104 10.471 12.564 15.496-18.787 5.026-10.531-15.496 16.754-5.026Z" fill="#A1C5CD"/><path d="m702.518 298.566 5.014-1.522v7.788l-5.014 1.521v-7.787Zm-295.959 92.377c.269-1.88.537-3.76.895-5.64l24.619-7.25c-.358 1.88-.537 3.759-.358 5.729l-25.156 7.161Zm-77.078 22.019-62.934 17.992.716-4.475 62.844-18.44c-.179 1.612-.358 3.223-.626 4.923Zm36.256-10.383-13.786 3.939c.268-1.701.448-3.402.627-5.102l14.234-4.207-1.075 5.37Zm5.282-6.624 10.295-3.043c-.448 1.88-.895 3.67-1.343 5.55l-10.116 2.864c.358-1.701.716-3.58 1.164-5.371Zm14.323-4.207 17.994-5.281c-.269 1.88-.537 3.67-.716 5.55l-18.531 5.281c.358-1.79.805-3.67 1.253-5.55Zm73.498-21.572 11.1-3.223c-.358 2.059-.537 4.028-.626 6.087l-11.011 3.133c.268-2.059.358-4.028.537-5.997Zm17.993-5.282 5.64-1.7c-.179 2.059-.447 4.117-.627 6.176l-5.908 1.701c.09-2.148.358-4.297.895-6.177Zm8.326-2.506 5.461-1.611c0 1.074 0 2.148.089 3.312v2.775l-6.087 1.701c.09-2.059.358-4.118.537-6.177Zm15.309-4.475 4.834-1.432c-.269 2.058-.358 4.207-.358 6.265l-5.014 1.433c.269-2.059.448-4.118.538-6.266Zm13.338-3.939 16.92-4.923c-.268 2.148-.269 4.296-.269 6.445l-17.367 4.923c.179-2.059.448-4.207.716-6.445Zm42.434-12.442 9.847-2.865c-.179 2.328-.448 4.655-.895 6.893l-9.49 2.685c0-2.238.179-4.475.538-6.713Zm12.443-3.67 8.326-2.417c0 2.328-.09 4.565-.269 6.893l-8.773 2.506c.358-2.327.627-4.655.716-6.982Zm10.921-3.223 42.881-12.621v7.161l-43.149 12.353c.179-2.328.268-4.565.268-6.893Zm55.773-16.38 19.337-5.639v7.34l-19.337 5.549v-7.25Zm27.304-8.056 26.946-7.878v7.699l-26.946 7.698v-7.519Zm47.446-13.875 7.968-2.327v7.877l-7.968 2.238v-7.788Zm16.472 3.133v-7.966l29.005-8.504v8.235l-11.995 3.401v-2.595c0-1.701-2.597-1.701-2.597 0v3.312l-14.413 4.117Z" fill="#E6E6E6"/><path d="m820.06 255.6 72.065 15.217 26.23 1.074c-2.328-5.818-6.893-16.918-10.116-22.557-4.476-7.787-6.625-10.025-6.625-10.025l-16.203-3.402L820.06 255.6Z" fill="#FBD5A2"/><path d="M885.411 235.907s6.446 22.647 8.057 24.795c.806 1.074 6.446 2.327 11.727 3.223 5.103.895 9.937 1.611 9.937 1.611s-4.565-15.754-13.517-26.227l-7.431-1.522-8.773-1.88Z" fill="#3D213D"/><path d="m913.176 259.362 2.094 6.282-10.052-1.675-3.769-5.445 11.727.838Z" fill="#89CFE1"/><path d="m620.785 315.663-1.791 40.997-9.31 2.237 3.67-40.996 7.431-2.238Zm-171.793 51.738-3.133 32.941-5.55-1.612 3.133-29.628 5.55-1.701ZM337.18 401.147l-4.118 25.063-3.492.985 4.745-25.243 2.865-.805Z" fill="#3D213D"/><path d="M917.595 270.154 901.211 268l-7.146-4.755-3.372-20.636-65.67 25.75.607 14.625-5.327.718-1.078-18.304-3.372 1.346 1.888 27.186-124.531 44.414-.337 11.484 225.329-77.7-.607-1.974Z" fill="#ED6F01"/><path d="m821.315 263.55-27.923 8.372 3.068 28.485 94.1-24.503-69.245-12.354Z" fill="#E21A1A"/><path d="m847.805 249.31 35.216 33.599-35.216 7.446-30.814-33.599 30.814-7.446Z" fill="#A1C5CD"/><path d="m880.04 245.933 3.76 17.455-43.776-5.55 40.016-11.905Z" fill="#FBD5A2"/><path d="M885.411 235.907s6.446 22.647 8.057 24.795c.806 1.074 6.446 2.327 11.727 3.223l-19.784-28.018Z" fill="#E21A1A"/><path d="m903.542 241.771-15.496-1.675-2.094-4.189 15.915 3.351 1.675 2.513Z" fill="#607785"/><path d="m586.05 329.537-33.839 10.205v20.229l1.522-.895v-18.529l32.496-10.204-.179-.806Zm169.554-49.411v1.343l-31.69 9.041.447 16.291h-.895l-.268-17.186 32.406-9.489Zm80.508-20.765v1.343l-31.691 9.041.448 16.291h-.896l-.268-17.186 32.407-9.489Zm-160.63 44.397v.805l-14.413 4.386v12.264l-.626.805v-13.874l15.039-4.386Zm-270.713 79.845-1.433 13.874-1.611.358 1.522-13.785 1.522-.447Zm-28.558 8.414-1.164 14.143-1.432.447 1.253-14.232 1.343-.358Zm-25.245 7.429-1.701 13.785-1.253.537 1.969-14.053.985-.269Zm-44.045 13.069-2.596 14.68-1.164.537 2.328-14.859 1.432-.358Z" fill="#E6E6E6"/><path d="M809.619 278.345v-7.967l29.006-8.503v8.235l-11.996 3.401v-2.596c0-1.7-2.597-1.7-2.597 0v3.312l-14.413 4.118Zm-25.103-1.016 5.013-1.522v7.788l-5.013 1.522v-7.788Zm7.609-2.238 7.967-2.327v7.877l-7.967 2.238v-7.788Z" fill="#E6E6E6"/><path d="m872.477 240.096 12.265 41.712-276.891 38.043 264.626-79.755Z" fill="#FEEDC5" style="mix-blend-mode:screen" opacity=".61"/><path d="M2039.82 37.383-144.783 553.44v10.294L2462.84 98.532V44.084l-423.02-6.701Z" fill="#003659"/><path opacity=".24" d="m588.043 430.54-144.668-14.501 193.368-46.099 122.018 29.629-170.718 30.971Z" fill="#FEEDC5"/><path d="m2039.82 41.571-2184.603 511.87v-4.924L1935.11 12.253l104.71 29.318Z" fill="#5566C5"/><path d="M1138.92 226.274-144.783 550.397v.806L1141.85 232.975l-2.93-6.701Z" fill="#3D213D"/><path d="M833.064 389.007v18.708l-11.459 5.997-17.636-14.591-11.369-7.966v-18.708l40.464 16.56Z" fill="#BDD0F4"/><path d="M803.969 380.324h43.15V617.89h-43.15V380.324Z" fill="#BDD0F4"/><path d="M870.25 617.861h-23.097V383.518h23.097v234.343Z" fill="#3A95A8"/><path d="M880.242 380.861v18.708l-11.548 5.997-17.457-7.161-11.459-15.396v-18.618l40.464 16.47Z" fill="#5566C5"/><path d="m792.6 372.447 47.178-8.056v18.618l-47.178 8.146v-18.708Z" fill="#BDD0F4"/><path d="m860.01 372.626 10.206 34.91v-2.775l10.026-5.192v-18.708l-20.232-8.235Z" fill="#003659"/><path d="m847.119 392.856-43.15 6.265-11.369-7.966 47.178-8.146 7.341 9.847Z" fill="#3D91D4"/><path d="M461.101 453.186v13.427l-8.236 4.297-12.712-10.473-8.147-5.729v-13.427l29.095 11.905Z" fill="#BDD0F4"/><path d="M440.153 446.921h31.064v170.968h-31.064V446.921Z" fill="#BDD0F4"/><path d="M487.87 617.86h-16.651V449.219h16.651V617.86Z" fill="#003659"/><path d="M495.03 447.369v13.426l-8.326 4.297-12.533-5.102-8.236-11.189v-13.338l29.095 11.906Z" fill="#003659"/><path d="m432.006 441.282 33.929-5.819v13.338l-33.929 5.908v-13.427Z" fill="#BDD0F4"/><path d="m480.438 441.371 7.43 25.153v-2.059l7.162-3.67v-13.427l-14.592-5.997Z" fill="#003659"/><path d="m471.217 455.961-31.064 4.476-8.147-5.729 33.929-5.908 5.282 7.161Z" fill="#3D91D4"/><path opacity=".61" d="m785.796 307.461 1.612 6.624 387.112-96.187-12.98-7.958-375.744 97.521Zm18.173 8.682 3.223 14.501 308.278-71.878 31.83-27.047-343.331 84.424Z" fill="#FEEDC5"/><path d="M2956.49-34.656H-552.507V986.346H2956.49v-1021Z" fill="url(#l)" style="mix-blend-mode:overlay" opacity=".58"/><path d="M-35.05 625.234c0-78.156 53.722-184.101 111.167-184.101 25.186 0 48.264 12.157 66.254 32.379 3.846-.621 7.692-.869 11.663-.869 57.444 0 104.095 105.945 104.095 184.102 0 2.729-.124 5.582-.124 8.312H-30.211c-3.226-12.654-4.84-26.053-4.84-39.823Z" fill="url(#m)"/></g><g clip-path="url(#n)"><path fill="#fff" d="M-733.647 1.015h3056.88v813.188h-3056.88z"/><g clip-path="url(#o)"><path d="M2799.21-38.31H-775.789V982.692H2799.21v-1021Z" fill="url(#p)"/><path d="M-84.828 84.85H38.414v565.422H-84.828V84.851Z" fill="#49D8F7"/><path d="M-84.828 105.121H38.414v18.663H-84.828v-18.663Zm0 36.343H38.414v18.663H-84.828v-18.663Zm0 36.344H38.414v18.662H-84.828v-18.662Zm0 36.343H38.414v18.663H-84.828v-18.663Zm0 36.344H38.414v18.662H-84.828v-18.662Zm0 36.343H38.414v18.663H-84.828v-18.663Zm0 36.343H38.414v18.663H-84.828v-18.663Zm0 36.344H38.414v18.663H-84.828v-18.663Zm0 36.343H38.414v18.663H-84.828v-18.663Zm0 36.344H38.414v18.662H-84.828v-18.662Zm0 36.343H38.414v18.573H-84.828v-18.573Zm0 36.344H38.414v18.573H-84.828v-18.573Z" opacity=".23" fill="#003659"/><path d="M-257.544 84.85H38.414v565.423h-295.958V84.851Z" fill="url(#q)" style="mix-blend-mode:multiply" opacity=".4"/><path d="M-136.649 84.984s7.001 124.049 89.99 169.786c64.224 35.283 85.228 142.811 85.228 142.811l.186-312.597h-175.404Z" fill="#FEEDC5" style="mix-blend-mode:overlay" opacity=".61"/><path d="m190.329 502.597.56 5.6c.654 7.374 1.214 14.748 1.774 22.122.093 1.12.093 2.24.187 3.36h4.854v-3.267h28.472v17.361h10.082v-.186h-.56v-2.054h.56v-.746h-.56v-2.054h.56v-.747h-.56v-2.053h.56v-.747h-.56v-2.053h.56v-.84h3.92v-78.406h2.054v-20.815h30.525v20.815h2.054v110.795h12.229v7.373h5.508v-21.748h2.147v-9.24h23.151v-.374h-1.587l1.773-2.52v-1.213h.84l.934-1.307h-1.774v-1.867h1.867v-1.307h-1.867v-1.867h1.867v-1.306h-1.867v-1.867h1.867v-3.174h1.494v-3.36h4.014v-9.241h2.987v-11.76l9.055-2.147 2.054-.467v-19.415h1.213v19.135l3.641-.84v15.494h2.52v9.241h2.148v-22.868h1.586v-45.924h-.84v-2.24h1.307v-.933c0-.654.467-1.214 1.12-1.214h.654v-4.76c0-1.213.933-2.24 2.054-2.24h.093v-4.2c0-1.214.747-2.241 1.867-2.521v-3.733h1.4c.374-2.8 2.427-4.947 5.134-5.414v-3.827c0-.28.094-.467.374-.467v-9.8h.933v9.8c.187.094.374.28.374.467v3.827c2.614.373 4.667 2.614 5.041 5.414h1.4v3.733c1.027.28 1.867 1.307 1.867 2.521v4.2h.093c1.12 0 2.054 1.027 2.054 2.24v4.76h.747c.653 0 1.12.56 1.12 1.214v.933h1.027v2.24h-1.027v45.924h1.494v28.282h21.47v14.561h13.256v25.482h4.387v-1.214h18.95v-5.88h2.707v-7.001h15.123v-6.627h17.177v-51.15h2.053v-.84h-2.053v-3.08h2.053v-.841h-2.147v-3.08h2.147v-.84h-2.147v-3.08h2.147v-.84h-2.147v-3.08h2.147v-.934h-2.147v-3.08h2.147v-.84h-2.147v-3.08h2.147v-.84h-2.147v-66.552h39.02v63.378h-.093v3.08h-2.707v.84h2.707v3.081h-2.707v.84h2.707v3.08h-2.707v.933h2.8v3.081h-2.8v.84h2.8v3.08h-2.8v.84h2.8v3.08h-2.8v.84h2.8v3.08h-2.8v.84h2.987v38.737h13.069v-10.548h16.336v-16.801l3.361-9.707.093-.374 8.869-25.575 12.322 35.656v2.427h.747v1.12h-.84v1.493h.746v1.12h-.746v1.494h.746v1.12h-.746v1.493h.746v1.12h-.746v1.494h.746v1.12h-.746v1.493h.746v1.121h-.746v1.493h.746v1.12h-.746v1.493h.746v1.121h-.746v1.493h.746v1.12h-.746v1.494h.746v1.12h-.746v1.493h.746v1.12h-.746v1.494h.746v1.12h-.746v1.493h.746v1.12h-.746v1.494h.746v1.12h-.746v1.493h.746v1.12h-.746v1.494h.746v1.12h-.746v1.493h.746v1.12h-.746v1.494h.746v.373h14.19v-13.068h21.657v-.466l.093-1.867v-3.454l.093-1.586.094-1.867v-1.587l.093-1.867v-1.587l.094-1.866.093-1.587v-3.454l.093-1.867v-1.586l.094-1.867v-1.587l.093-1.867v-1.587l.093-1.866v-1.587l.094-1.867v-1.587l.093-1.867.187-5.787 9.055-3.266v5.04h2.8l-.28-13.721 15.683-4.2 1.587 21.934.187 1.867.093 1.587.187 1.867.093 1.587.093 1.866.094 1.587.093 1.867.093 1.587.094 1.867.093 1.586.187 1.867.093 1.587.093 1.867.094 1.587.093 1.866.093 1.587.187 1.867.094 1.587.186 1.867.094 1.586.093 1.867.093 1.587.187 1.867.093 1.587.094 1.866.093 1.587.187 1.867.093 1.587.187 1.867.093 1.586.093 1.867.094 1.587.093 1.867.094 1.586.093 1.867.093 1.587.094 1.773h15.776v8.121h11.108v-17.921h12.323v-32.296h7.001v-45.55h49.662v165.212H158.03V502.69l32.299-.093Z" fill="#BDE0F4"/><path d="M551.407 552.907H511.08v-82.98h40.327v82.98Z" fill="#BDE0F4"/><path d="M542.539 469.927h-22.497v82.98h22.497v-82.98Z" fill="#49AAF7"/><path d="M542.539 469.927h-22.497v3.547h22.497v-3.547Zm0 6.348h-22.497v3.547h22.497v-3.547Zm0 6.44h-22.497v3.547h22.497v-3.547Zm0 6.347h-22.497v3.547h22.497v-3.547Zm0 6.441h-22.497v3.547h22.497v-3.547Zm0 6.347h-22.497v3.547h22.497v-3.547Zm0 6.44h-22.497v3.547h22.497v-3.547Zm-26.978-38.363h-4.481v3.547h4.481v-3.547Zm0 6.348h-4.481v3.547h4.481v-3.547Zm0 6.44h-4.481v3.547h4.481v-3.547Zm0 6.347h-4.481v3.547h4.481v-3.547Zm0 6.441h-4.481v3.547h4.481v-3.547Zm0 6.347h-4.481v3.547h4.481v-3.547Zm0 6.44h-4.481v3.547h4.481v-3.547Zm35.847-38.363h-4.481v3.547h4.481v-3.547Zm0 6.348h-4.481v3.547h4.481v-3.547Zm0 6.44h-4.481v3.547h4.481v-3.547Zm0 6.347h-4.481v3.547h4.481v-3.547Zm0 6.441h-4.481v3.547h4.481v-3.547Zm0 6.347h-4.481v3.547h4.481v-3.547Zm0 6.44h-4.481v3.547h4.481v-3.547Z" fill="#BDE0F4"/><path d="M511.08 469.927h-15.309v82.98h15.309v-82.98Z" fill="#49AAF7"/><path d="M506.226 469.927h-6.441v80.18h6.441v-80.18Z" fill="#49AAF7"/><path d="M506.226 469.927h-6.441v3.547h6.441v-3.547Zm0 6.348h-6.441v3.547h6.441v-3.547Zm0 6.44h-6.441v3.547h6.441v-3.547Zm0 6.347h-6.441v3.547h6.441v-3.547Zm0 6.441h-6.441v3.547h6.441v-3.547Zm0 6.347h-6.441v3.547h6.441v-3.547Zm0 6.44h-6.441v3.547h6.441v-3.547Zm26.325-38.363h-2.614v80.18h2.614v-80.18Z" fill="#49AAF7"/><path d="M551.5 464.887h-55.729v5.04H551.5v-5.04Zm0-.187h-55.729v.187H551.5v-.187Z" fill="#BDE0F4"/><path d="M511.08 464.887h-15.309v5.04h15.309v-5.04Zm0-.187h-15.309v.187h15.309v-.187Zm-15.496-15.307h-28.098V642.14h28.098V449.393Zm-28.099 0h-39.767V642.14h39.767V449.393Z" fill="#BDE0F4"/><path d="M495.491 449.393h-28.005V642.14h28.005V449.393Z" fill="#BDE0F4"/><path d="M467.485 449.393h-39.767V642.14h39.767V449.393Z" fill="#003659"/><path d="M469.633 451.913h-10.455v3.547h10.455v-3.547Zm-35.473 0h-10.455v3.547h10.455v-3.547Z" fill="#BDE0F4"/><path d="M477.008 451.913h-7.468v3.547h7.468v-3.547Zm22.217 0h-7.468v3.547h7.468v-3.547Zm-29.592 6.16h-10.455v3.547h10.455v-3.547Zm-35.473 0h-10.455v3.547h10.455v-3.547Z" fill="#BDE0F4"/><path d="M477.008 458.073h-7.468v3.547h7.468v-3.547Zm22.217 0h-7.468v3.547h7.468v-3.547Zm-29.592 6.161h-10.455v3.547h10.455v-3.547Zm-35.473 0h-10.455v3.547h10.455v-3.547Z" fill="#BDE0F4"/><path d="M477.008 464.234h-7.468v3.547h7.468v-3.547Zm22.217 0h-7.468v3.547h7.468v-3.547Zm-29.592 6.16h-10.455v3.547h10.455v-3.547Zm-35.473 0h-10.455v3.547h10.455v-3.547Z" fill="#BDE0F4"/><path d="M477.008 470.394h-7.468v3.547h7.468v-3.547Zm22.217 0h-7.468v3.547h7.468v-3.547Zm-29.592 6.161h-10.455v3.547h10.455v-3.547Zm-35.473 0h-10.455v3.547h10.455v-3.547Z" fill="#BDE0F4"/><path d="M477.008 476.555h-7.468v3.547h7.468v-3.547Zm22.217 0h-7.468v3.547h7.468v-3.547Zm-29.592 6.067h-10.455v3.547h10.455v-3.547Zm-35.473 0h-10.455v3.547h10.455v-3.547Z" fill="#BDE0F4"/><path d="M477.008 482.622h-7.468v3.547h7.468v-3.547Zm22.217 0h-7.468v3.547h7.468v-3.547Zm-29.592 6.16h-10.455v3.547h10.455v-3.547Zm-35.473 0h-10.455v3.547h10.455v-3.547Z" fill="#BDE0F4"/><path d="M477.008 488.782h-7.468v3.547h7.468v-3.547Zm22.217 0h-7.468v3.547h7.468v-3.547Zm-29.592 6.161h-10.455v3.547h10.455v-3.547Zm-35.473 0h-10.455v3.547h10.455v-3.547Z" fill="#BDE0F4"/><path d="M477.008 494.943h-7.468v3.547h7.468v-3.547Zm22.217 0h-7.468v3.547h7.468v-3.547Zm-29.592 6.16h-10.455v3.547h10.455v-3.547Zm-35.473 0h-10.455v3.547h10.455v-3.547Z" fill="#BDE0F4"/><path d="M477.008 501.103h-7.468v3.547h7.468v-3.547Zm22.217 0h-7.468v3.547h7.468v-3.547Zm-29.592 6.068h-10.455v3.546h10.455v-3.546Zm-35.473-.001h-10.455v3.547h10.455v-3.547Z" fill="#BDE0F4"/><path d="M477.008 507.171h-7.468v3.546h7.468v-3.546Zm22.217 0h-7.468v3.546h7.468v-3.546Zm-29.592 6.16h-10.455v3.547h10.455v-3.547Zm-35.473 0h-10.455v3.547h10.455v-3.547Z" fill="#BDE0F4"/><path d="M477.008 513.331h-7.468v3.547h7.468v-3.547Zm22.217 0h-7.468v3.547h7.468v-3.547Z" fill="#BDE0F4"/><path d="M453.95 449.393h-15.59V639.06h15.59V449.393Zm35.1 0h-9.709v190.32h9.709v-190.32Z" fill="#003659"/><path d="M387.636 544.847h-50.948V440.012h50.948v104.835Z" fill="#BDE0F4"/><path d="M376.432 440.012h-28.423v104.835h28.423V440.012Z" fill="#49AAF7"/><path d="M376.432 440.012h-28.423v4.481h28.423v-4.481Zm0 8.019h-28.423v4.481h28.423v-4.481Zm0 8.137h-28.423v4.481h28.423v-4.481Zm0 8.019h-28.423v4.481h28.423v-4.481Zm0 8.136h-28.423v4.482h28.423v-4.482Zm0 8.019h-28.423v4.481h28.423v-4.481Zm0 8.137h-28.423v4.481h28.423v-4.481Zm0 8.019h-28.423v4.481h28.423v-4.481Zm0 8.019h-28.423v4.481h28.423v-4.481Zm0 8.137h-28.423v4.481h28.423v-4.481Zm-34.084-72.642h-5.66v4.481h5.66v-4.481Zm0 8.019h-5.66v4.481h5.66v-4.481Zm0 8.137h-5.66v4.481h5.66v-4.481Zm0 8.019h-5.66v4.481h5.66v-4.481Zm0 8.136h-5.66v4.482h5.66v-4.482Zm0 8.019h-5.66v4.481h5.66v-4.481Zm0 8.137h-5.66v4.481h5.66v-4.481Zm0 8.019h-5.66v4.481h5.66v-4.481Zm0 8.019h-5.66v4.481h5.66v-4.481Zm0 8.137h-5.66v4.481h5.66v-4.481Zm45.288-72.642h-5.661v4.481h5.661v-4.481Zm0 8.019h-5.661v4.481h5.661v-4.481Zm0 8.137h-5.661v4.481h5.661v-4.481Zm0 8.019h-5.661v4.481h5.661v-4.481Zm0 8.136h-5.661v4.482h5.661v-4.482Zm0 8.019h-5.661v4.481h5.661v-4.481Zm0 8.137h-5.661v4.481h5.661v-4.481Zm0 8.019h-5.661v4.481h5.661v-4.481Zm0 8.019h-5.661v4.481h5.661v-4.481Zm0 8.137h-5.661v4.481h5.661v-4.481Z" fill="#BDE0F4"/><path d="M336.687 440.012h-19.341v104.835h19.341V440.012Z" fill="#49AAF7"/><path d="M330.555 440.012h-8.138v101.297h8.138V440.012Z" fill="#49AAF7"/><path d="M330.555 440.012h-8.138v4.481h8.138v-4.481Zm0 8.019h-8.138v4.481h8.138v-4.481Zm0 8.137h-8.138v4.481h8.138v-4.481Zm0 8.019h-8.138v4.481h8.138v-4.481Zm0 8.136h-8.138v4.482h8.138v-4.482Zm0 8.019h-8.138v4.481h8.138v-4.481Zm0 8.137h-8.138v4.481h8.138v-4.481Zm0 8.019h-8.138v4.481h8.138v-4.481Zm0 8.019h-8.138v4.481h8.138v-4.481Zm0 8.137h-8.138v4.481h8.138v-4.481Zm33.258-72.642h-3.302v101.297h3.302V440.012Z" fill="#49AAF7"/><path d="M387.754 433.644h-70.408v6.368h70.408v-6.368Zm0-.236h-70.408v.236h70.408v-.236Z" fill="#BDE0F4"/><path d="M336.687 433.644h-19.341v6.368h19.341v-6.368Zm0-.236h-19.341v.236h19.341v-.236Zm-19.577-19.339h-35.499v243.514h35.499V414.069Zm-35.499 0H231.37v243.514h50.241V414.069Z" fill="#BDE0F4"/><path d="M316.992 414.069h-35.381v243.514h35.381V414.069Z" fill="#BDE0F4"/><path d="M281.611 414.069H231.37v243.514h50.241V414.069Z" fill="#003659"/><path d="M284.324 417.253h-13.209v4.481h13.209v-4.481Zm-44.817 0h-13.209v4.481h13.209v-4.481Z" fill="#BDE0F4"/><path d="M293.641 417.253h-9.435v4.481h9.435v-4.481Zm28.068 0h-9.435v4.481h9.435v-4.481Zm-37.385 7.783h-13.209v4.481h13.209v-4.481Zm-44.817 0h-13.209v4.481h13.209v-4.481Z" fill="#BDE0F4"/><path d="M293.641 425.036h-9.435v4.481h9.435v-4.481Zm28.068 0h-9.435v4.481h9.435v-4.481Zm-37.385 7.783h-13.209v4.481h13.209v-4.481Zm-44.817 0h-13.209v4.481h13.209v-4.481Z" fill="#BDE0F4"/><path d="M293.641 432.819h-9.435v4.481h9.435v-4.481Zm28.068 0h-9.435v4.481h9.435v-4.481Zm-37.385 7.783h-13.209v4.481h13.209v-4.481Zm-44.817 0h-13.209v4.481h13.209v-4.481Z" fill="#BDE0F4"/><path d="M293.641 440.602h-9.435v4.481h9.435v-4.481Zm28.068 0h-9.435v4.481h9.435v-4.481Zm-37.385 7.783h-13.209v4.481h13.209v-4.481Zm-44.817 0h-13.209v4.481h13.209v-4.481Z" fill="#BDE0F4"/><path d="M293.641 448.385h-9.435v4.481h9.435v-4.481Zm28.068 0h-9.435v4.481h9.435v-4.481Zm-37.385 7.664h-13.209v4.482h13.209v-4.482Zm-44.817.001h-13.209v4.481h13.209v-4.481Z" fill="#BDE0F4"/><path d="M293.641 456.049h-9.435v4.482h9.435v-4.482Zm28.068 0h-9.435v4.482h9.435v-4.482Zm-37.385 7.784h-13.209v4.481h13.209v-4.481Zm-44.817 0h-13.209v4.481h13.209v-4.481Z" fill="#BDE0F4"/><path d="M293.641 463.833h-9.435v4.481h9.435v-4.481Zm28.068 0h-9.435v4.481h9.435v-4.481Zm-37.385 7.783h-13.209v4.481h13.209v-4.481Zm-44.817 0h-13.209v4.481h13.209v-4.481Z" fill="#BDE0F4"/><path d="M293.641 471.616h-9.435v4.481h9.435v-4.481Zm28.068 0h-9.435v4.481h9.435v-4.481Zm-37.385 7.783h-13.209v4.481h13.209v-4.481Zm-44.817 0h-13.209v4.481h13.209v-4.481Z" fill="#BDE0F4"/><path d="M293.641 479.399h-9.435v4.481h9.435v-4.481Zm28.068 0h-9.435v4.481h9.435v-4.481Zm-37.385 7.665h-13.209v4.481h13.209v-4.481Zm-44.817 0h-13.209v4.481h13.209v-4.481Z" fill="#BDE0F4"/><path d="M293.641 487.064h-9.435v4.481h9.435v-4.481Zm28.068 0h-9.435v4.481h9.435v-4.481Zm-37.385 7.783h-13.209v4.481h13.209v-4.481Zm-44.817 0h-13.209v4.481h13.209v-4.481Z" fill="#BDE0F4"/><path d="M293.641 494.847h-9.435v4.481h9.435v-4.481Zm28.068 0h-9.435v4.481h9.435v-4.481Zm-37.385 7.783h-13.209v4.481h13.209v-4.481Zm-44.817 0h-13.209v4.481h13.209v-4.481Z" fill="#BDE0F4"/><path d="M293.641 502.63h-9.435v4.481h9.435v-4.481Zm28.068 0h-9.435v4.481h9.435v-4.481Zm-37.385 7.783h-13.209v4.481h13.209v-4.481Zm-44.817 0h-13.209v4.481h13.209v-4.481Z" fill="#BDE0F4"/><path d="M293.641 510.413h-9.435v4.481h9.435v-4.481Zm28.068 0h-9.435v4.481h9.435v-4.481Z" fill="#BDE0F4"/><path d="M264.51 414.069h-19.696v239.622h19.696V414.069Zm44.344 0h-12.265v240.448h12.265V414.069Z" fill="#003659"/><path d="M1109.65 494.57H894.199v147.57h215.451V494.57Z" fill="#fff"/><path d="M241.236 445.318v-28.261h-55.795v235.194h82.908v-185.58l-27.113-21.353Z" fill="#49AAF7"/><path d="M213.391 445.318v-28.261h-55.795v235.194h82.803v-185.58l-27.008-21.353Z" fill="#BDE0F4"/><path d="M233.489 445.318v-28.261h-6.595v28.261l27.113 21.353v185.58h6.49v-185.58l-27.008-21.353Z" fill="#5566C5"/><path d="M162.411 430.455h2.303v221.901h-2.303V430.455Zm4.71 0h2.303v221.901h-2.303V430.455Zm4.607 0h2.303v221.901h-2.303V430.455Zm4.71 0h2.303v221.901h-2.303V430.455Zm4.606 0h2.303v221.901h-2.303V430.455Zm4.606 0h2.303v221.901h-2.303V430.455Zm4.711 0h2.303v221.901h-2.303V430.455Zm4.606 0h2.303v221.901h-2.303V430.455Zm4.71 0h2.303v221.901h-2.303V430.455Zm4.606 0h2.303v221.901h-2.303V430.455Zm9.317 25.958h2.303v195.838H213.6V456.413Zm4.606 6.489h2.303v189.349h-2.303V462.902Zm4.711 7.014h2.303v182.335h-2.303V469.916Zm4.605 6.698h2.303v175.637h-2.303V476.614Z" fill="#49AAF7"/><path d="M232.234 476.614h2.303v175.637h-2.303V476.614ZM23.316 505.58h68.55V364.528h-68.55V505.58Z" fill="#BDE0F4"/><path d="M38.39 364.528h38.242V505.58H38.39V364.528Z" fill="#49AAF7"/><path d="M38.39 364.528h38.242v6.03H38.39v-6.03Zm0 10.789h38.242v6.03H38.39v-6.03Zm0 10.948h38.242v6.029H38.39v-6.029Zm0 10.789h38.242v6.029H38.39v-6.029Zm0 10.948h38.242v6.029H38.39v-6.029Zm0 10.789h38.242v6.029H38.39v-6.029Zm0 10.948h38.242v6.029H38.39v-6.029Zm0 10.789h38.242v6.029H38.39v-6.029Zm0 10.789h38.242v6.029H38.39v-6.029Zm0 10.948h38.242v6.029H38.39v-6.029Zm0 10.789h38.242v6.029H38.39v-6.029Zm0 10.947h38.242v6.029H38.39v-6.029Zm0 10.789h38.242v6.03H38.39v-6.03Zm45.86-130.262h7.616v6.03h-7.617v-6.03Zm0 10.789h7.616v6.03h-7.617v-6.03Zm0 10.948h7.616v6.029h-7.617v-6.029Zm0 10.789h7.616v6.029h-7.617v-6.029Zm0 10.948h7.616v6.029h-7.617v-6.029Zm0 10.789h7.616v6.029h-7.617v-6.029Zm0 10.948h7.616v6.029h-7.617v-6.029Zm0 10.789h7.616v6.029h-7.617v-6.029Zm0 10.789h7.616v6.029h-7.617v-6.029Zm0 10.948h7.616v6.029h-7.617v-6.029Zm0 10.789h7.616v6.029h-7.617v-6.029Zm0 10.947h7.616v6.029h-7.617v-6.029Zm0 10.789h7.616v6.03h-7.617v-6.03ZM23.316 364.528h7.617v6.03h-7.617v-6.03Zm0 10.789h7.617v6.03h-7.617v-6.03Zm0 10.948h7.617v6.029h-7.617v-6.029Zm0 10.789h7.617v6.029h-7.617v-6.029Zm0 10.948h7.617v6.029h-7.617v-6.029Zm0 10.789h7.617v6.029h-7.617v-6.029Zm0 10.948h7.617v6.029h-7.617v-6.029Zm0 10.789h7.617v6.029h-7.617v-6.029Zm0 10.789h7.617v6.029h-7.617v-6.029Zm0 10.948h7.617v6.029h-7.617v-6.029Zm0 10.789h7.617v6.029h-7.617v-6.029Zm0 10.947h7.617v6.029h-7.617v-6.029Zm0 10.789h7.617v6.03h-7.617v-6.03Z" fill="#BDE0F4"/><path d="M91.866 364.528h26.023V505.58H91.866V364.528Z" fill="#49AAF7"/><path d="M100.117 364.528h10.949V500.82h-10.949V364.528Z" fill="#49AAF7"/><path d="M100.117 364.528h10.949v6.03h-10.949v-6.03Zm0 10.789h10.949v6.03h-10.949v-6.03Zm0 10.948h10.949v6.029h-10.949v-6.029Zm0 10.789h10.949v6.029h-10.949v-6.029Zm0 10.948h10.949v6.029h-10.949v-6.029Zm0 10.789h10.949v6.029h-10.949v-6.029Zm0 10.948h10.949v6.029h-10.949v-6.029Zm0 10.789h10.949v6.029h-10.949v-6.029Zm0 10.789h10.949v6.029h-10.949v-6.029Zm0 10.948h10.949v6.029h-10.949v-6.029Zm0 10.789h10.949v6.029h-10.949v-6.029Zm0 10.947h10.949v6.029h-10.949v-6.029Zm0 10.789h10.949v6.03h-10.949v-6.03ZM55.37 364.528h4.443V500.82h-4.444V364.528Z" fill="#49AAF7"/><path d="M23.316 505.579h68.55v140.576h-68.55V505.579Z" fill="#BDE0F4"/><path d="M38.39 505.579h38.242v140.576H38.39V505.579Z" fill="#49AAF7"/><path d="M38.39 505.579h38.242v5.395H38.39v-5.395Zm45.86 0h7.616v5.395h-7.617v-5.395Zm-60.934 0h7.617v5.395h-7.617v-5.395Z" fill="#BDE0F4"/><path d="M91.866 505.579h26.023v140.575H91.866V505.579Z" fill="#49AAF7"/><path d="M100.117 505.579h10.949v135.657h-10.949V505.579Z" fill="#49AAF7"/><path d="M100.117 505.579h10.949v5.395h-10.949v-5.395Zm-44.747 0h4.443v135.816h-4.444V505.579Z" fill="#49AAF7"/><path d="M23.157 355.961h94.732v8.568H23.158v-8.568Zm0-.318h94.732v.317H23.158v-.317Z" fill="#BDE0F4"/><path d="M91.866 355.961h26.023v8.568H91.866v-8.568Zm0-.318h26.023v.317H91.866v-.317Zm26.34-26.021h47.763v327.639h-47.763V329.622Zm47.763 0h67.597v327.639h-67.597V329.622Z" fill="#BDE0F4"/><path d="M118.365 329.622h47.604v327.639h-47.604V329.622Z" fill="#BDE0F4"/><path d="M165.969 329.622h67.597v327.639h-67.597V329.622Z" fill="#003659"/><path d="M162.319 333.906h17.772v6.03h-17.772v-6.03Zm60.299 0h17.772v6.03h-17.772v-6.03Z" fill="#BDE0F4"/><path d="M149.784 333.906h12.694v6.03h-12.694v-6.03Zm-37.766 0h12.694v6.03h-12.694v-6.03Zm50.301 10.472h17.772v6.03h-17.772v-6.03Zm60.299 0h17.772v6.029h-17.772v-6.029Z" fill="#BDE0F4"/><path d="M149.784 344.378h12.694v6.03h-12.694v-6.03Zm-37.766 0h12.694v6.03h-12.694v-6.03Zm50.301 10.472h17.772v6.029h-17.772v-6.029Zm60.299 0h17.772v6.029h-17.772v-6.029Z" fill="#BDE0F4"/><path d="M149.784 354.85h12.694v6.029h-12.694v-6.029Zm-37.766 0h12.694v6.029h-12.694v-6.029Zm50.301 10.471h17.772v6.03h-17.772v-6.03Zm60.299.001h17.772v6.029h-17.772v-6.029Z" fill="#BDE0F4"/><path d="M149.784 365.321h12.694v6.03h-12.694v-6.03Zm-37.766 0h12.694v6.03h-12.694v-6.03Zm50.301 10.472h17.772v6.03h-17.772v-6.03Zm60.299 0h17.772v6.029h-17.772v-6.029Z" fill="#BDE0F4"/><path d="M149.784 375.793h12.694v6.03h-12.694v-6.03Zm-37.766 0h12.694v6.03h-12.694v-6.03Zm50.301 10.313h17.772v6.029h-17.772v-6.029Zm60.299 0h17.772v6.029h-17.772v-6.029Z" fill="#BDE0F4"/><path d="M149.784 386.106h12.694v6.029h-12.694v-6.029Zm-37.766 0h12.694v6.029h-12.694v-6.029Zm50.301 10.472h17.772v6.029h-17.772v-6.029Zm60.299 0h17.772v6.029h-17.772v-6.029Z" fill="#BDE0F4"/><path d="M149.784 396.578h12.694v6.029h-12.694v-6.029Zm-37.766 0h12.694v6.029h-12.694v-6.029Zm50.301 10.472h17.772v6.029h-17.772v-6.029Zm60.299 0h17.772v6.029h-17.772v-6.029Z" fill="#BDE0F4"/><path d="M149.784 407.05h12.694v6.029h-12.694v-6.029Zm-37.766 0h12.694v6.029h-12.694v-6.029Zm50.301 10.472h17.772v6.029h-17.772v-6.029Zm60.299 0h17.772v6.029h-17.772v-6.029Z" fill="#BDE0F4"/><path d="M149.784 417.522h12.694v6.029h-12.694v-6.029Zm-37.766 0h12.694v6.029h-12.694v-6.029Zm50.301 10.313h17.772v6.029h-17.772v-6.029Zm60.299 0h17.772v6.029h-17.772v-6.029Z" fill="#BDE0F4"/><path d="M149.784 427.835h12.694v6.029h-12.694v-6.029Zm-37.766 0h12.694v6.029h-12.694v-6.029Zm50.301 10.472h17.772v6.029h-17.772v-6.029Zm60.299-.001h17.772v6.03h-17.772v-6.03Z" fill="#BDE0F4"/><path d="M149.784 438.307h12.694v6.029h-12.694v-6.029Zm-37.766 0h12.694v6.029h-12.694v-6.029Zm50.301 10.471h17.772v6.029h-17.772v-6.029Zm60.299 0h17.772v6.029h-17.772v-6.029Z" fill="#BDE0F4"/><path d="M149.784 448.778h12.694v6.029h-12.694v-6.029Zm-37.766 0h12.694v6.029h-12.694v-6.029Zm50.301 10.472h17.772v6.029h-17.772v-6.029Zm60.299 0h17.772v6.029h-17.772v-6.029Z" fill="#BDE0F4"/><path d="M149.784 459.25h12.694v6.029h-12.694v-6.029Zm-37.766 0h12.694v6.029h-12.694v-6.029Zm50.301 10.472h17.772v6.029h-17.772v-6.029Zm60.299 0h17.772v6.029h-17.772v-6.029Z" fill="#BDE0F4"/><path d="M149.784 469.722h12.694v6.029h-12.694v-6.029Zm-37.766 0h12.694v6.029h-12.694v-6.029Zm50.301 10.313h17.772v6.029h-17.772v-6.029Zm60.299 0h17.772v6.029h-17.772v-6.029Z" fill="#BDE0F4"/><path d="M149.784 480.035h12.694v6.029h-12.694v-6.029Zm-37.766 0h12.694v6.029h-12.694v-6.029Zm50.301 10.471h17.772v6.03h-17.772v-6.03Zm60.299.001h17.772v6.029h-17.772v-6.029Z" fill="#BDE0F4"/><path d="M149.784 490.506h12.694v6.03h-12.694v-6.03Zm-37.766 0h12.694v6.03h-12.694v-6.03Zm50.301 10.472h17.772v6.03h-17.772v-6.03Zm60.299 0h17.772v6.029h-17.772v-6.029Z" fill="#BDE0F4"/><path d="M149.784 500.978h12.694v6.03h-12.694v-6.03Zm-37.766 0h12.694v6.03h-12.694v-6.03Zm50.301 10.472h17.772v6.029h-17.772v-6.029Zm60.299 0h17.772v6.029h-17.772v-6.029Z" fill="#BDE0F4"/><path d="M149.784 511.45h12.694v6.029h-12.694v-6.029Zm-37.766 0h12.694v6.029h-12.694v-6.029Z" fill="#BDE0F4"/><path d="M188.977 329.622h26.5v322.403h-26.5V329.622Zm-59.663 0h16.502v323.514h-16.502V329.622Z" fill="#003659"/><path d="M10.735 334.759v-33.908H-56.21v282.19h99.474V360.378l-32.53-25.619Z" fill="#49AAF7"/><path d="M-22.674 334.759v-33.908H-89.62v282.19H9.73V360.379l-32.404-25.62Z" fill="#BDE0F4"/><path d="M1.44 334.759v-33.908h-7.912v33.908l32.53 25.62v222.662h7.787V360.379L1.44 334.759Z" fill="#5566C5"/><path d="M-.067 372.309h2.763v210.732H-.067V372.309Z" fill="#BDE0F4"/><path d="M220.291 371.668v-38.024h75.07v316.444H183.812V400.397l36.479-28.729Z" fill="#49AAF7"/><path d="M257.756 371.668v-38.024h75.07v316.444H221.418V400.397l36.338-28.729Z" fill="#BDE0F4"/><path d="M230.714 371.668v-38.024h8.873v38.024l-36.479 28.729v249.691h-8.732V400.397l36.338-28.729Z" fill="#5566C5"/><path d="M326.347 351.67h-3.098v298.559h3.098V351.67Zm-6.337 0h-3.099v298.559h3.099V351.67Zm-6.198 0h-3.099v298.559h3.099V351.67Zm-6.338 0h-3.099v298.559h3.099V351.67Zm-6.197 0h-3.098v298.559h3.098V351.67Zm-6.197 0h-3.099v298.559h3.099V351.67Zm-6.338 0h-3.098v298.559h3.098V351.67Zm-6.198 0h-3.098v298.559h3.098V351.67Zm-6.338 0h-3.098v298.559h3.098V351.67Zm-6.196 0h-3.099v298.559h3.099V351.67Zm-12.535 34.926h-3.099v263.492h3.099V386.596Zm-6.198 8.731h-3.099v254.761h3.099V395.327Zm-6.338 9.436h-3.099v245.325h3.099V404.763Zm-6.197 9.013h-3.098v236.312h3.098V413.776Z" fill="#49AAF7"/><path d="M232.404 413.776h-3.099v236.312h3.099V413.776Z" fill="#BDE0F4"/><path d="M869.461 51.39H740.638v591.03h128.823V51.39Z" fill="#49D8F7"/><path d="M969.999 51.39H869.461v591.03h100.538V51.39Z" fill="#003659"/><path d="M969.906 110.568h-86.722v531.853h86.722V110.568Z" fill="#C0BDF4"/><path d="M936.58 51.39h-46.395v591.03h46.395V51.39Z" fill="#49D8F7"/><path d="M1050 51.39H916.043v591.03H1050V51.39Z" fill="#003659"/><path d="M869.461 72.579H740.638v19.508h128.823V72.579Zm180.449 0H890.185v19.508h159.725V72.579Zm-180.449 37.989H740.638v19.508h128.823v-19.508Zm180.449 0H890.185v19.508h159.725v-19.508Zm-180.449 37.99H740.638v19.508h128.823v-19.508Zm180.449 0H890.185v19.508h159.725v-19.508Zm-180.449 37.989H740.638v19.508h128.823v-19.508Zm180.449 0H890.185v19.508h159.725v-19.508Zm-180.449 37.989H740.638v19.509h128.823v-19.509Zm180.449 0H890.185v19.509h159.725v-19.509Zm-180.449 37.99H740.638v19.508h128.823v-19.508Zm180.449 0H890.185v19.508h159.725v-19.508Zm-180.449 37.989H740.638v19.508h128.823v-19.508Zm180.449 0H890.185v19.508h159.725v-19.508Zm-180.449 37.99H740.638v19.508h128.823v-19.508Zm180.449 0H890.185v19.508h159.725v-19.508Zm-180.449 37.989H740.638v19.508h128.823v-19.508Zm180.449 0H890.185v19.508h159.725v-19.508Zm-180.449 37.99H740.638v19.508h128.823v-19.508Zm180.449 0H890.185v19.508h159.725v-19.508Zm-180.449 37.989H740.638v19.415h128.823v-19.415Zm180.449 0H890.185v19.415h159.725v-19.415Zm-180.449 37.99H740.638v19.415h128.823v-19.415Zm180.449 0H890.185v19.415h159.725v-19.415Z" opacity=".23" fill="#003659"/><path opacity=".06" d="M1049.91 125.783v201.521L916.043 636.54V435.019l133.867-309.236Zm0 356.186v-98.381L937.793 642.42h42.661l69.456-160.451Z" fill="#fff"/><path d="M1050 51.39H740.638v591.03H1050V51.39Z" fill="url(#r)" style="mix-blend-mode:multiply" opacity=".4"/><path d="M916.043 51.39s-7.001 124.05-89.99 169.786c-64.224 35.283-85.228 142.811-85.228 142.811l-.187-312.596h175.405Z" fill="#FEEDC5" style="mix-blend-mode:overlay" opacity=".61"/><path d="M1049.24 620.205H792.624c0-59.457 38.646-107.621 86.255-107.621 6.441 0 12.789.934 18.857 2.614 6.814-6.627 14.282-12.135 22.31-16.148 10.456-5.321 21.751-8.214 33.606-8.214 52.748-.093 95.588 57.871 95.588 129.369Z" fill="#3D213D"/><path d="M1049.24 620.205H792.624c0-59.457 38.646-107.621 86.255-107.621 6.441 0 12.789.934 18.857 2.614 6.814-6.627 14.282-12.135 22.31-16.148 10.456-5.321 21.751-8.214 33.606-8.214 52.748-.093 95.588 57.871 95.588 129.369Z" fill="url(#s)"/><path opacity=".43" d="m919.953 499.05-58.344 121.249H792.53c0-59.458 38.647-107.621 86.256-107.621 6.441 0 12.789.933 18.856 2.613 6.908-6.814 14.376-12.227 22.311-16.241Z" fill="#FEEDC5"/><path d="M534.137 607.511c29.49 0 53.397-22.524 53.397-50.31s-23.907-50.31-53.397-50.31-53.396 22.524-53.396 50.31 23.906 50.31 53.396 50.31Z" fill="#888A17"/><path d="M536.098 607.511c28.407 0 51.435-21.939 51.435-49.003s-23.028-49.004-51.435-49.004c-28.408 0-51.436 21.94-51.436 49.004 0 27.064 23.028 49.003 51.436 49.003Z" fill="#3D213D"/><path d="M536.098 607.511c28.407 0 51.435-21.939 51.435-49.003s-23.028-49.004-51.435-49.004c-28.408 0-51.436 21.94-51.436 49.004 0 27.064 23.028 49.003 51.436 49.003Z" fill="url(#t)"/><path d="M330.354 642.141H158.03V460.127l172.324-18.668v200.682Z" fill="#C0BDF4"/><path d="M276.706 577.848c5.722-23.914-9.026-47.938-32.942-53.66-23.916-5.722-47.942 9.025-53.665 32.939-5.723 23.913 9.026 47.937 32.942 53.659 23.916 5.722 47.942-9.025 53.665-32.938Z" fill="#723E73"/><path d="M480.741 542.453c0 15.868-3.454 30.802-9.708 44.337H158.03v-89.14c11.856-10.361 25.952-18.108 41.541-22.402 8.308-5.32 17.55-9.24 27.445-11.574 15.683-25.762 44.061-42.936 76.454-42.936 19.697 0 37.806 6.347 52.649 17.174a109.004 109.004 0 0 1 18.483-1.587c9.149 0 18.017 1.121 26.512 3.361 45.835 11.761 79.627 53.297 79.627 102.767Z" fill="url(#u)"/><path d="M705.995 613.298c36.604 0 66.278-27.957 66.278-62.444 0-34.488-29.674-62.445-66.278-62.445-36.605 0-66.279 27.957-66.279 62.445 0 34.487 29.674 62.444 66.279 62.444Z" fill="#3A95A8"/><path d="M708.422 613.298c35.264 0 63.851-27.205 63.851-60.764 0-33.559-28.587-60.765-63.851-60.765-35.264 0-63.852 27.206-63.852 60.765s28.588 60.764 63.852 60.764Z" fill="#3A95A8"/><path d="M746.509 521.545c0 48.537-41.727 87.833-93.257 87.833-23.897 0-45.648-8.494-62.171-22.402-19.043-16.054-31.085-39.482-31.085-65.431 0-48.537 41.727-87.833 93.256-87.833 26.045 0 49.476 9.987 66.466 26.228 16.523 15.775 26.791 37.523 26.791 61.605Z" fill="#AEB11B"/><path d="M746.509 521.545c0 48.537-41.727 87.833-93.257 87.833-23.897 0-45.648-8.494-62.171-22.402-19.043-16.054-31.085-39.482-31.085-65.431 0-48.537 41.727-87.833 93.256-87.833 26.045 0 49.476 9.987 66.466 26.228 16.523 15.775 26.791 37.523 26.791 61.605Z" fill="url(#v)"/><path d="M690.685 502.41h-3.734v161.199h3.734V502.41Z" fill="#FFFFFB"/><path d="m706.541 497.224-17.228 17.226.66.66 17.228-17.226-.66-.66Z" fill="#FFFFFB"/><path d="m719.997 487.663-2.054-.56c-1.307-.28-3.08.093-4.107.933l-9.895 8.587c-.934.84-.747 1.774.56 2.147l2.054.56c1.307.28 3.08-.093 4.107-.933l9.895-8.588c1.027-.84.747-1.773-.56-2.146Z" fill="#49AAF7"/><path d="m100.634 461.492 691.537-176.133s-.56-1.587-1.587-4.013c-2.427-6.068-7.188-17.642-10.549-23.522-4.667-8.121-6.908-10.454-6.908-10.454l-16.896-3.547-68.145 20.535L106.235 439.65l-5.601 21.842Z" fill="#889EA3"/><path d="M752.684 251.01 105.675 441.891l-6.348 19.975L760.712 289.56l-8.028-38.55Z" fill="#E21A1A"/><path d="m634.856 284.876 30.661 29.504-48.291 12.423-26.828-29.504 44.458-12.423Zm-109.22 33.192 32.443 30.734-51.098 12.94-28.388-30.733 47.043-12.941Zm-102.215 29.698 24.6 23.358-38.745 9.834-21.525-23.357 35.67-9.835Zm-75.992 21.837 24.6 23.358-38.745 9.834-21.525-23.357 35.67-9.835Zm-74.246 21.837 24.6 23.358-38.745 9.834-21.525-23.357 35.67-9.835Zm-53.139 17.47 17.47 16.596-27.515 6.988-15.286-16.597 25.331-6.987Zm-56.419 15.722 17.113 15.982-26.953 6.729-14.974-15.982 24.814-6.729Zm-36.606 10.919 13.102 16.159-19.591 5.241-10.981-16.159 17.47-5.241Z" fill="#A1C5CD"/><path d="m565.517 309.161 5.228-1.587v8.121l-5.228 1.587v-8.121Zm-308.616 96.327c.28-1.96.56-3.92.934-5.88l25.671-7.561c-.374 1.96-.56 3.92-.374 5.974l-26.231 7.467Zm-80.374 22.962-65.625 18.761.746-4.667 65.532-19.228c-.187 1.68-.373 3.36-.653 5.134Zm37.806-10.828-14.375 4.107c.28-1.773.466-3.547.653-5.32l14.843-4.387-1.121 5.6Zm5.508-6.907 10.736-3.173c-.467 1.96-.934 3.826-1.401 5.787l-10.548 2.986c.373-1.773.747-3.733 1.213-5.6Zm14.936-4.387 18.764-5.507c-.281 1.96-.561 3.827-.747 5.787l-19.324 5.507c.374-1.867.84-3.827 1.307-5.787Zm76.641-22.495 11.575-3.36c-.373 2.147-.56 4.2-.653 6.347l-11.482 3.267c.28-2.147.373-4.201.56-6.254Zm18.763-5.507 5.881-1.774c-.187 2.147-.467 4.294-.653 6.441l-6.162 1.773c.094-2.24.374-4.48.934-6.44Zm8.682-2.614 5.694-1.68c0 1.12 0 2.24.093 3.454v2.893l-6.347 1.774c.093-2.147.373-4.294.56-6.441Zm15.963-4.666 5.041-1.494c-.28 2.147-.374 4.387-.374 6.534l-5.227 1.494c.28-2.147.466-4.294.56-6.534Zm13.909-4.107 17.643-5.134c-.28 2.24-.28 4.48-.28 6.72l-18.11 5.134c.187-2.147.467-4.387.747-6.72Zm44.247-12.975 10.269-2.987c-.187 2.427-.467 4.854-.934 7.188l-9.895 2.8c0-2.334.187-4.667.56-7.001Zm12.976-3.827 8.682-2.52c0 2.427-.094 4.76-.28 7.187l-9.149 2.614c.374-2.427.654-4.854.747-7.281Zm11.389-3.36 44.715-13.161v7.467l-44.995 12.881c.186-2.427.28-4.76.28-7.187Zm58.157-17.081 20.164-5.881v7.654l-20.164 5.787v-7.56Zm28.472-8.401 28.098-8.214v8.027l-28.098 8.028v-7.841Zm49.475-14.468 8.308-2.426v8.213l-8.308 2.334v-8.121Zm17.177 3.267v-8.307l30.245-8.867v8.587l-12.509 3.547v-2.707c0-1.773-2.707-1.773-2.707 0v3.454l-15.029 4.293Z" fill="#E6E6E6"/><path d="m688.085 264.358 75.147 15.867 27.351 1.121c-2.427-6.068-7.187-17.642-10.548-23.522-4.668-8.121-6.908-10.454-6.908-10.454l-16.896-3.547-68.146 20.535Z" fill="#FBD5A2"/><path d="M756.23 243.823s6.722 23.615 8.402 25.855c.84 1.12 6.721 2.427 12.229 3.36 5.321.934 10.362 1.68 10.362 1.68s-4.761-16.428-14.096-27.348l-7.748-1.587-9.149-1.96Z" fill="#3D213D"/><path d="m785.183 268.28 2.183 6.551-10.481-1.747-3.931-5.677 12.229.873Z" fill="#89CFE1"/><path d="m480.288 326.989-1.867 42.75-9.708 2.333 3.827-42.749 7.748-2.334Zm-179.139 53.95-3.267 34.35-5.787-1.68 3.267-30.896 5.787-1.774Zm-116.594 35.19-4.294 26.135-3.641 1.027 4.948-26.322 2.987-.84Z" fill="#3D213D"/><path d="m789.791 279.534-17.085-2.246-7.452-4.959-3.516-21.518-68.479 26.851.633 15.251-5.554.748-1.125-19.086-3.515 1.403 1.968 28.349L555.81 350.64l-.352 11.975 234.965-81.023-.632-2.058Z" fill="#ED6F01"/><path d="m689.393 272.648-29.118 8.729 3.2 29.704 98.124-25.551-72.206-12.882Z" fill="#E21A1A"/><path d="m717.016 257.798 36.722 35.037-36.722 7.764-32.131-35.036 32.131-7.765Z" fill="#A1C5CD"/><path d="m750.63 254.277 3.92 18.201-45.648-5.787 41.728-12.414Z" fill="#FBD5A2"/><path d="M756.23 243.823s6.722 23.615 8.402 25.855c.84 1.12 6.721 2.427 12.229 3.36l-20.631-29.215Z" fill="#E21A1A"/><path d="m775.138 249.937-16.16-1.747-2.183-4.367 16.596 3.494 1.747 2.62Z" fill="#607785"/><path d="m444.069 341.457-35.287 10.641v21.094l1.587-.933v-19.321l33.886-10.641-.186-.84Zm176.804-51.524v1.4l-33.046 9.427.467 16.988h-.934l-.28-17.921 33.793-9.894Zm83.95-21.653v1.4l-33.046 9.428.467 16.988h-.934l-.28-17.922 33.793-9.894Zm-167.498 46.295v.84l-15.03 4.573v12.788l-.653.84v-14.468l15.683-4.573Zm-282.291 83.259-1.493 14.468-1.681.373 1.587-14.374 1.587-.467Zm-29.778 8.774-1.214 14.748-1.493.467 1.307-14.842 1.4-.373Zm-26.325 7.747-1.774 14.375-1.307.56 2.054-14.655 1.027-.28Zm-45.928 13.628-2.707 15.308-1.214.56 2.427-15.495 1.494-.373Z" fill="#E6E6E6"/><path d="M677.198 288.075v-8.307l30.245-8.867v8.587l-12.509 3.547v-2.707c0-1.774-2.707-1.774-2.707 0v3.453l-15.029 4.294Zm-26.177-1.059 5.228-1.587v8.121l-5.228 1.587v-8.121Zm7.934-2.334 8.309-2.426v8.214l-8.309 2.333v-8.121Z" fill="#E6E6E6"/><path d="m755.942 244 12.789 43.496-288.732 39.67L755.942 244Z" fill="#FEEDC5" style="mix-blend-mode:screen" opacity=".61"/><path d="M1960.01 36.809-318.016 574.935v10.734L2401.11 100.573V43.797l-441.1-6.988Z" fill="#003659"/><path opacity=".24" d="m446.149 446.779-150.853-15.121 201.636-48.07 127.236 30.896-178.019 32.295Z" fill="#FEEDC5"/><path d="M1960.01 41.176-318.016 574.935v-5.134L1850.82 10.605l109.19 30.571Z" fill="#5566C5"/><path d="M1020.58 233.778-318.016 571.761v.84L1023.64 240.765l-3.06-6.987Z" fill="#3D213D"/><path d="M701.599 403.819v19.774l-12.112 6.34-18.641-15.422-12.017-8.421v-19.774l42.77 17.503Z" fill="#BDD0F4"/><path d="M670.846 394.642h45.609v251.104h-45.609V394.642Z" fill="#BDD0F4"/><path d="M740.904 645.716h-24.413V398.019h24.413v247.697Z" fill="#3A95A8"/><path d="M751.465 395.21v19.774l-12.206 6.339-18.452-7.569-12.111-16.274v-19.679l42.769 17.409Z" fill="#5566C5"/><path d="m658.829 386.316 49.867-8.515v19.679l-49.867 8.61v-19.774Z" fill="#BDD0F4"/><path d="m730.08 386.505 10.787 36.899v-2.933l10.598-5.487V395.21l-21.385-8.705Z" fill="#003659"/><path d="m716.455 407.888-45.609 6.623-12.017-8.421 49.866-8.61 7.76 10.408Z" fill="#3D91D4"/><path d="M313.778 470.394v14.001l-8.588 4.481-13.256-10.921-8.494-5.974V457.98l30.338 12.414Z" fill="#BDD0F4"/><path d="M291.935 463.861h32.392v178.28h-32.392v-178.28Z" fill="#BDD0F4"/><path d="M341.693 642.11H324.33V466.257h17.363V642.11Z" fill="#003659"/><path d="M349.158 464.327v14.001l-8.681 4.481-13.069-5.321-8.589-11.667v-13.908l30.339 12.414Z" fill="#003659"/><path d="m283.44 457.98 35.379-6.067v13.908l-35.379 6.16V457.98Z" fill="#BDD0F4"/><path d="m333.942 458.074 7.748 26.228v-2.147l7.468-3.827v-14.001l-15.216-6.253Z" fill="#003659"/><path d="m324.327 473.288-32.392 4.667-8.495-5.974 35.379-6.16 5.508 7.467Z" fill="#3D91D4"/><path opacity=".61" d="m652.357 318.436 1.681 6.907 403.672-100.3-13.54-8.298-391.813 101.691Zm18.951 9.054 3.36 15.121 321.46-74.952 33.192-28.204-358.012 88.035Z" fill="#FEEDC5"/><path d="M3029.81-38.31H-743.466v1097.9H3029.81V-38.31Z" fill="url(#w)" style="mix-blend-mode:overlay" opacity=".58"/><path d="M943.792 435.967c6.078 12.156 16.269 21.988 25.566 31.82a685.302 685.302 0 0 0 22.527 23.06c-6.258-14.837-11.085-30.211-14.84-46.121-1.072-4.469 5.9-6.435 6.973-1.966 4.648 20.2 11.263 39.507 20.202 58.098v-50.769c0-6.972 10.73-6.972 10.73 0v33.787c1.61-.715 3.39-1.252 5-1.967 7.15-2.86 14.31-5.72 21.46-8.581 12.69-5.184 24.85-11.262 35.75-19.664 3.58-2.86 7.16 3.397 3.58 6.257-11.44 8.76-24.31 14.838-37.37 20.379-8.22 3.397-16.44 6.615-24.67 10.011-1.07.536-2.32 1.251-3.57 1.788v148.732c0 6.972-10.73 6.972-10.73 0V516.59c-2.15-3.933-4.11-8.045-6.079-12.156-1.073.178-23.957-21.095-33.79-31.642-9.655-10.189-20.382-20.558-26.639-33.25-2.146-4.112 3.933-7.866 5.9-3.575Z" fill="#3A95A8"/><path d="M886.58 386.091c0 30.39 6.615 58.993 18.594 84.914h599.466s72.93-5.319 72.93-75.634c0-83.64-72.93-95.087-72.93-95.087-22.71-19.843-49.71-34.68-79.56-42.903-15.91-10.19-33.61-17.698-52.57-22.167-30.03-49.339-84.38-82.232-146.42-82.232-37.72 0-72.41 12.156-100.83 32.893a208.703 208.703 0 0 0-35.4-3.039c-17.52 0-34.51 2.145-50.78 6.435-87.78 22.525-152.5 102.075-152.5 196.82Z" fill="url(#x)"/><path d="M65.66 479.296c0 61.07 52.501 110.512 117.335 110.512 30.068 0 57.435-10.687 78.224-28.185 23.961-20.2 39.112-49.678 39.112-82.327 0-61.069-52.502-110.511-117.336-110.511-32.769 0-62.25 12.566-83.627 33.001-20.789 19.847-33.709 47.211-33.709 77.51Z" fill="#AEB11B"/><path d="M65.66 479.296c0 61.07 52.501 110.512 117.335 110.512 30.068 0 57.435-10.687 78.224-28.185 23.961-20.2 39.112-49.678 39.112-82.327 0-61.069-52.502-110.511-117.336-110.511-32.769 0-62.25 12.566-83.627 33.001-20.789 19.847-33.709 47.211-33.709 77.51Z" fill="url(#y)"/><path d="M-67.51 564.791c0-54.371 37.373-128.072 77.335-128.072 17.52 0 33.575 8.457 46.09 22.525 2.675-.432 5.351-.605 8.113-.605 39.962 0 72.415 73.702 72.415 128.072 0 1.899-.086 3.884-.086 5.783h-200.5c-2.245-8.803-3.367-18.124-3.367-27.703Z" fill="url(#z)"/></g></g></g></g></g><defs><linearGradient id="e" x1="1202.12" y1="-34.664" x2="1202.12" y2="986.522" gradientUnits="userSpaceOnUse"><stop stop-color="#51C0E1"/><stop offset=".262" stop-color="#A9E9F2"/><stop offset=".563" stop-color="#CCFCE0"/><stop offset=".881" stop-color="#E0F096"/><stop offset="1" stop-color="#ECE963"/></linearGradient><linearGradient id="f" x1="931.414" y1="82.613" x2="931.414" y2="677.028" gradientUnits="userSpaceOnUse"><stop stop-color="#fff"/><stop offset="1"/></linearGradient><linearGradient id="g" x1="-65.29" y1="212.628" x2="-65.29" y2="662.736" gradientUnits="userSpaceOnUse"><stop stop-color="#fff"/><stop offset="1"/></linearGradient><linearGradient id="h" x1="1077.28" y1="578.583" x2="910.98" y2="476.934" gradientUnits="userSpaceOnUse"><stop stop-color="#4DB0A5"/><stop offset="1" stop-color="#EFCE3D"/></linearGradient><linearGradient id="i" x1="687.9" y1="570.838" x2="605.002" y2="544.025" gradientUnits="userSpaceOnUse"><stop stop-color="#4DB0A5"/><stop offset="1" stop-color="#EFCE3D"/></linearGradient><linearGradient id="j" x1="509.134" y1="541.356" x2="297.702" y2="414.737" gradientUnits="userSpaceOnUse"><stop stop-color="#4DB0A5"/><stop offset="1" stop-color="#EFCE3D"/></linearGradient><linearGradient id="k" x1="811.307" y1="561.66" x2="661.336" y2="512.594" gradientUnits="userSpaceOnUse"><stop stop-color="#4DB0A5"/><stop offset="1" stop-color="#EFCE3D"/></linearGradient><linearGradient id="m" x1="61.726" y1="914.485" x2="331.093" y2="690.894" gradientUnits="userSpaceOnUse"><stop stop-color="#4DB0A5"/><stop offset="1" stop-color="#EFCE3D"/></linearGradient><linearGradient id="p" x1="1011.84" y1="-38.318" x2="1011.84" y2="982.868" gradientUnits="userSpaceOnUse"><stop stop-color="#51C0E1"/><stop offset=".262" stop-color="#A9E9F2"/><stop offset=".563" stop-color="#CCFCE0"/><stop offset=".881" stop-color="#E0F096"/><stop offset="1" stop-color="#ECE963"/></linearGradient><linearGradient id="q" x1="-109.571" y1="116.022" x2="-109.571" y2="709" gradientUnits="userSpaceOnUse"><stop stop-color="#fff"/><stop offset="1"/></linearGradient><linearGradient id="r" x1="895.325" y1="83.974" x2="895.325" y2="703.808" gradientUnits="userSpaceOnUse"><stop stop-color="#fff"/><stop offset="1"/></linearGradient><linearGradient id="s" x1="956.305" y1="601.153" x2="782.897" y2="495.158" gradientUnits="userSpaceOnUse"><stop stop-color="#4DB0A5"/><stop offset="1" stop-color="#EFCE3D"/></linearGradient><linearGradient id="t" x1="550.277" y1="593.077" x2="463.834" y2="565.118" gradientUnits="userSpaceOnUse"><stop stop-color="#4DB0A5"/><stop offset="1" stop-color="#EFCE3D"/></linearGradient><linearGradient id="u" x1="363.867" y1="562.335" x2="143.393" y2="430.301" gradientUnits="userSpaceOnUse"><stop stop-color="#4DB0A5"/><stop offset="1" stop-color="#EFCE3D"/></linearGradient><linearGradient id="v" x1="678.961" y1="583.507" x2="522.577" y2="532.342" gradientUnits="userSpaceOnUse"><stop stop-color="#4DB0A5"/><stop offset="1" stop-color="#EFCE3D"/></linearGradient><linearGradient id="x" x1="1110.42" y1="424.168" x2="1532.67" y2="171.297" gradientUnits="userSpaceOnUse"><stop stop-color="#4DB0A5"/><stop offset="1" stop-color="#EFCE3D"/></linearGradient><linearGradient id="y" x1="150.649" y1="557.257" x2="347.412" y2="492.881" gradientUnits="userSpaceOnUse"><stop stop-color="#4DB0A5"/><stop offset="1" stop-color="#EFCE3D"/></linearGradient><linearGradient id="z" x1="-.186" y1="766.011" x2="187.201" y2="610.468" gradientUnits="userSpaceOnUse"><stop stop-color="#4DB0A5"/><stop offset="1" stop-color="#EFCE3D"/></linearGradient><clipPath id="b"><rect width="960" height="514" rx="40" fill="#fff"/></clipPath><clipPath id="c"><path fill="#fff" transform="translate(-545)" d="M0 0h2612.85v645H0z"/></clipPath><clipPath id="d"><path fill="#fff" transform="translate(-543.507 -34.656)" d="M0 0h2931.79v817.551H0z"/></clipPath><clipPath id="n"><path fill="#fff" transform="translate(-733.647 1.015)" d="M0 0h3056.88v813.188H0z"/></clipPath><clipPath id="o"><path fill="#fff" transform="translate(-733.789 -38.31)" d="M0 0h3057.16v852.512H0z"/></clipPath><radialGradient id="l" cx="0" cy="0" r="1" gradientUnits="userSpaceOnUse" gradientTransform="matrix(2231.26 0 0 1030.99 332.608 288.19)"><stop stop-color="#FEF4DD"/><stop offset="1" stop-color="#5E272A"/></radialGradient><radialGradient id="w" cx="0" cy="0" r="1" gradientUnits="userSpaceOnUse" gradientTransform="matrix(2399.3 0 0 1108.64 208.311 308.852)"><stop stop-color="#FEF4DD"/><stop offset="1" stop-color="#5E272A"/></radialGradient><filter id="a" x="0" y="0" width="968" height="518" filterUnits="userSpaceOnUse" color-interpolation-filters="sRGB"><feFlood flood-opacity="0" result="BackgroundImageFix"/><feBlend in="SourceGraphic" in2="BackgroundImageFix" result="shape"/><feColorMatrix in="SourceAlpha" values="0 0 0 0 0 0 0 0 0 0 0 0 0 0 0 0 0 0 127 0" result="hardAlpha"/><feOffset dx="8" dy="4"/><feGaussianBlur stdDeviation="4.5"/><feComposite in2="hardAlpha" operator="arithmetic" k2="-1" k3="1"/><feColorMatrix values="0 0 0 0 1 0 0 0 0 1 0 0 0 0 1 0 0 0 0.45 0"/><feBlend in2="shape" result="effect1_innerShadow_9_76949"/></filter></defs></svg>