<svg width="1223" height="655" fill="none" xmlns="http://www.w3.org/2000/svg"><g filter="url(#a)"><g clip-path="url(#b)"><g clip-path="url(#c)"><path fill="#fff" d="M-781-9h3500v864H-781z"/><g clip-path="url(#d)"><path d="M2754-55.422H-821v1021h3575v-1021Z" fill="url(#e)"/><path d="M1163.48 59.807H997.997v759.237h165.483V59.807Z" fill="#49D8F7"/><path d="M1292.63 59.807h-129.15v759.237h129.15V59.807Z" fill="#003659"/><path d="M1292.51 135.826h-111.4v683.218h111.4V135.826Z" fill="#C0BDF4"/><path d="M1249.7 59.807h-59.59v759.237h59.59V59.807Z" fill="#49D8F7"/><path d="M1163.48 87.025H997.997v25.06h165.483v-25.06Zm231.8 0h-205.17v25.06h205.17v-25.06Zm-231.8 48.801H997.997v25.061h165.483v-25.061Zm231.8 0h-205.17v25.061h205.17v-25.061Zm-231.8 48.802H997.997v25.06h165.483v-25.06Zm231.8 0h-205.17v25.06h205.17v-25.06Zm-231.8 48.801H997.997v25.06h165.483v-25.06Zm231.8 0h-205.17v25.06h205.17v-25.06Zm-231.8 48.801H997.997v25.06h165.483v-25.06Zm231.8 0h-205.17v25.06h205.17v-25.06Zm-231.8 48.801H997.997v25.061h165.483v-25.061Zm231.8 0h-205.17v25.061h205.17v-25.061Zm-231.8 48.802H997.997v25.06h165.483v-25.06Zm231.8 0h-205.17v25.06h205.17v-25.06Zm-231.8 48.801H997.997v25.06h165.483v-25.06Zm231.8 0h-205.17v25.06h205.17v-25.06Zm-231.8 48.801H997.997v25.06h165.483v-25.06Zm231.8 0h-205.17v25.06h205.17v-25.06Zm-231.8 48.802H997.997v25.06h165.483v-25.06Zm231.8 0h-205.17v25.06h205.17v-25.06Zm-231.8 48.801H997.997v24.94h165.483v-24.94Zm231.8 0h-205.17v24.94h205.17v-24.94Zm-231.8 48.801H997.997v24.94h165.483v-24.94Zm231.8 0h-205.17v24.94h205.17v-24.94Z" opacity=".23" fill="#003659"/><path d="M1395.4 59.807H997.997v759.237H1395.4V59.807Z" fill="url(#f)" style="mix-blend-mode:multiply" opacity=".4"/><path d="M-113.253 244.127h125.31v574.917h-125.31V244.127Z" fill="#49D8F7"/><path d="M-113.253 264.738h125.31v18.976h-125.31v-18.976Zm0 36.954h125.31v18.976h-125.31v-18.976Zm0 36.953h125.31v18.977h-125.31v-18.977Zm0 36.954h125.31v18.976h-125.31v-18.976Zm0 36.954h125.31v18.976h-125.31v-18.976Zm0 36.954h125.31v18.976h-125.31v-18.976Zm0 36.954h125.31v18.976h-125.31v-18.976Zm0 36.953h125.31v18.976h-125.31v-18.976Zm0 36.954h125.31v18.976h-125.31v-18.976Zm0 36.954h125.31v18.976h-125.31v-18.976Zm0 36.953h125.31v18.886h-125.31v-18.886Z" opacity=".23" fill="#003659"/><path d="M-288.87 244.127H12.057v574.917H-288.87V244.127Z" fill="url(#g)" style="mix-blend-mode:multiply" opacity=".4"/><path d="m408.123 639.426.719 7.195c.84 9.472 1.559 18.945 2.279 28.417.12 1.439.12 2.878.24 4.317h6.235v-4.197h36.575v22.302h12.951v-.239h-.719v-2.638h.719v-.96h-.719v-2.637h.719v-.96h-.719v-2.638h.719v-.959h-.719v-2.638h.719v-1.079h5.037v-100.72h2.638v-26.739h39.213v26.739h2.638v142.327h15.709v9.473h7.076v-27.938h2.758v-11.871h29.739v-.479h-2.038l2.278-3.238v-1.559h1.079l1.2-1.678h-2.279v-2.398h2.398v-1.679h-2.398v-2.398h2.398v-1.679h-2.398v-2.398h2.398V672.4h1.919v-4.316h5.157v-11.871h3.837v-15.108l11.632-2.758 2.638-.599v-24.94h1.559v24.58l4.677-1.079v19.904h3.238v11.871h2.758v-29.377h2.038v-58.993h-1.079v-2.878h1.679v-1.199c0-.839.6-1.559 1.439-1.559h.839v-6.115c0-1.559 1.2-2.878 2.639-2.878h.12v-5.395c0-1.559.959-2.878 2.398-3.238v-4.796h1.799c.479-3.597 3.117-6.355 6.595-6.954v-4.916c0-.36.12-.6.48-.6v-12.59h1.199v12.59c.24.12.48.36.48.6v4.916c3.357.479 5.995 3.357 6.475 6.954h1.799v4.796c1.319.36 2.398 1.679 2.398 3.238v5.395h.12c1.439 0 2.638 1.319 2.638 2.878v6.115h.96c.839 0 1.439.72 1.439 1.559v1.199h1.319v2.878h-1.319v58.993h1.918v36.331h27.581v18.705h17.029v32.734h5.636v-1.558h24.343v-7.554h3.478v-8.993h19.426v-8.513h22.065v-65.708h2.638v-1.079h-2.638v-3.957h2.638v-1.08h-2.758v-3.956h2.758v-1.08h-2.758v-3.956h2.758v-1.08h-2.758v-3.956h2.758v-1.199h-2.758v-3.957h2.758v-1.079h-2.758v-3.957h2.758v-1.079h-2.758v-85.493h50.126v81.416h-.12v3.957h-3.478v1.079h3.478v3.957h-3.478v1.079h3.478v3.957h-3.478v1.199h3.598v3.957h-3.598v1.079h3.598v3.957h-3.598v1.079h3.598v3.957h-3.598v1.079h3.598v3.957h-3.598v1.079h3.838v49.76h16.788v-13.549h20.986v-21.583l4.317-12.47.12-.48 11.392-32.854 15.829 45.804v3.118h.959v1.439h-1.079v1.918h.959v1.439h-.959v1.918h.959v1.439h-.959v1.919h.959v1.439h-.959v1.918h.959v1.439h-.959v1.918h.959v1.439h-.959v1.919h.959v1.439h-.959v1.918h.959v1.439h-.959v1.918h.959v1.439h-.959v1.919h.959v1.439h-.959v1.918h.959v1.439h-.959v1.918h.959v1.439h-.959v1.919h.959v1.439h-.959v1.918h.959v1.439h-.959v1.918h.959v1.439h-.959v1.919h.959v1.439h-.959v1.918h.959v1.439h-.959v1.918h.959v.48h18.228v-16.787h27.821v-.599l.12-2.398v-4.437l.12-2.038.12-2.398v-2.039l.119-2.398v-2.038l.12-2.398.12-2.039v-4.436l.12-2.398v-2.039l.12-2.398v-2.038l.12-2.398v-2.039l.12-2.398v-2.038l.12-2.398v-2.039l.12-2.398.24-7.434 11.632-4.196v6.474h3.597l-.36-17.626 20.147-5.395 2.038 28.177.24 2.398.12 2.039.24 2.398.12 2.038.12 2.398.12 2.039.119 2.398.12 2.038.12 2.398.12 2.039.24 2.398.12 2.038.12 2.398.12 2.039.12 2.398.12 2.038.24 2.398.119 2.039.24 2.398.12 2.038.12 2.398.12 2.039.24 2.398.12 2.038.12 2.398.12 2.039.239 2.398.12 2.038.24 2.398.12 2.039.12 2.398.12 2.038.12 2.398.12 2.039.12 2.398.12 2.038.119 2.278h20.271v10.432h14.27V710.29h15.82v-41.487h9V610.29h63.79v212.231H366.631V639.546l41.492-.12Z" fill="#BDE0F4"/><path d="M871.964 704.056h-51.805V597.46h51.805v106.596Z" fill="#BDE0F4"/><path d="M860.572 597.46h-28.901v106.596h28.901V597.46Z" fill="#49AAF7"/><path d="M860.572 597.46h-28.901v4.556h28.901v-4.556Zm0 8.154h-28.901v4.556h28.901v-4.556Zm0 8.273h-28.901v4.556h28.901v-4.556Zm0 8.154h-28.901v4.556h28.901v-4.556Zm0 8.273h-28.901v4.557h28.901v-4.557Zm0 8.154h-28.901v4.556h28.901v-4.556Zm0 8.273h-28.901v4.556h28.901v-4.556Zm0 8.153h-28.901v4.557h28.901v-4.557Zm-34.657-57.434h-5.756v4.556h5.756v-4.556Zm0 8.154h-5.756v4.556h5.756v-4.556Zm0 8.273h-5.756v4.556h5.756v-4.556Zm0 8.154h-5.756v4.556h5.756v-4.556Zm0 8.273h-5.756v4.557h5.756v-4.557Zm0 8.154h-5.756v4.556h5.756v-4.556Zm0 8.273h-5.756v4.556h5.756v-4.556Zm0 8.153h-5.756v4.557h5.756v-4.557Zm46.049-57.434h-5.756v4.556h5.756v-4.556Zm0 8.154h-5.756v4.556h5.756v-4.556Zm0 8.273h-5.756v4.556h5.756v-4.556Zm0 8.154h-5.756v4.556h5.756v-4.556Zm0 8.273h-5.756v4.557h5.756v-4.557Zm0 8.154h-5.756v4.556h5.756v-4.556Zm0 8.273h-5.756v4.556h5.756v-4.556Zm0 8.153h-5.756v4.557h5.756v-4.557Z" fill="#BDE0F4"/><path d="M820.159 597.46h-19.666v106.595h19.666V597.46Z" fill="#49AAF7"/><path d="M813.923 597.46h-8.274v102.998h8.274V597.46Z" fill="#49AAF7"/><path d="M813.923 597.46h-8.274v4.556h8.274v-4.556Zm0 8.154h-8.274v4.556h8.274v-4.556Zm0 8.273h-8.274v4.556h8.274v-4.556Zm0 8.154h-8.274v4.556h8.274v-4.556Zm0 8.273h-8.274v4.557h8.274v-4.557Zm0 8.154h-8.274v4.556h8.274v-4.556Zm0 8.273h-8.274v4.556h8.274v-4.556Zm0 8.153h-8.274v4.557h8.274v-4.557Zm33.818-57.434h-3.358v102.998h3.358V597.46Z" fill="#49AAF7"/><path d="M872.084 590.985h-71.591v6.475h71.591v-6.475Zm0-.24h-71.591v.24h71.591v-.24Z" fill="#BDE0F4"/><path d="M820.159 590.985h-19.666v6.475h19.666v-6.475Zm0-.24h-19.666v.24h19.666v-.24Zm-19.906-19.664h-36.095v247.603h36.095V571.081Zm-36.095 0h-51.085v247.603h51.085V571.081Z" fill="#BDE0F4"/><path d="M800.133 571.081h-35.975v247.603h35.975V571.081Z" fill="#BDE0F4"/><path d="M764.158 571.081h-51.085v247.603h51.085V571.081Z" fill="#003659"/><path d="M766.916 574.318h-13.431v4.557h13.431v-4.557Zm-45.569 0h-13.431v4.557h13.431v-4.557Z" fill="#BDE0F4"/><path d="M776.389 574.318h-9.593v4.557h9.593v-4.557Zm28.541 0h-9.594v4.557h9.594v-4.557Zm-38.014 7.914h-13.431v4.556h13.431v-4.556Zm-45.569 0h-13.431v4.556h13.431v-4.556Z" fill="#BDE0F4"/><path d="M776.389 582.232h-9.593v4.556h9.593v-4.556Zm28.541 0h-9.594v4.556h9.594v-4.556Zm-38.014 7.914h-13.431v4.556h13.431v-4.556Zm-45.569 0h-13.431v4.556h13.431v-4.556Z" fill="#BDE0F4"/><path d="M776.389 590.146h-9.593v4.556h9.593v-4.556Zm28.541 0h-9.594v4.556h9.594v-4.556Zm-38.014 7.913h-13.431v4.557h13.431v-4.557Zm-45.569 0h-13.431v4.557h13.431v-4.557Z" fill="#BDE0F4"/><path d="M776.389 598.059h-9.593v4.557h9.593v-4.557Zm28.541 0h-9.594v4.557h9.594v-4.557Zm-38.014 7.914h-13.431v4.556h13.431v-4.556Zm-45.569 0h-13.431v4.556h13.431v-4.556Z" fill="#BDE0F4"/><path d="M776.389 605.973h-9.593v4.556h9.593v-4.556Zm28.541 0h-9.594v4.556h9.594v-4.556Zm-38.014 7.794h-13.431v4.556h13.431v-4.556Zm-45.569 0h-13.431v4.557h13.431v-4.557Z" fill="#BDE0F4"/><path d="M776.389 613.767h-9.593v4.556h9.593v-4.556Zm28.541 0h-9.594v4.556h9.594v-4.556Zm-38.014 7.914h-13.431v4.556h13.431v-4.556Zm-45.569 0h-13.431v4.556h13.431v-4.556Z" fill="#BDE0F4"/><path d="M776.389 621.681h-9.593v4.556h9.593v-4.556Zm28.541 0h-9.594v4.556h9.594v-4.556Zm-38.014 7.913h-13.431v4.557h13.431v-4.557Zm-45.569 0h-13.431v4.557h13.431v-4.557Z" fill="#BDE0F4"/><path d="M776.389 629.594h-9.593v4.557h9.593v-4.557Zm28.541 0h-9.594v4.557h9.594v-4.557Zm-38.014 7.914h-13.431v4.557h13.431v-4.557Zm-45.569 0h-13.431v4.557h13.431v-4.557Z" fill="#BDE0F4"/><path d="M776.389 637.508h-9.593v4.557h9.593v-4.557Zm28.541 0h-9.594v4.557h9.594v-4.557Zm-38.014 7.794h-13.431v4.556h13.431v-4.556Zm-45.569 0h-13.431v4.556h13.431v-4.556Z" fill="#BDE0F4"/><path d="M776.389 645.302h-9.593v4.556h9.593v-4.556Zm28.541 0h-9.594v4.556h9.594v-4.556Zm-38.014 7.914h-13.431v4.556h13.431v-4.556Zm-45.569 0h-13.431v4.556h13.431v-4.556Z" fill="#BDE0F4"/><path d="M776.389 653.216h-9.593v4.556h9.593v-4.556Zm28.541 0h-9.594v4.556h9.594v-4.556Z" fill="#BDE0F4"/><path d="M746.77 571.081h-20.027v243.647h20.027V571.081Zm45.089 0h-12.472v244.486h12.472V571.081Z" fill="#003659"/><path d="M367.145 711.848H315.34V605.253h51.805v106.595Z" fill="#BDE0F4"/><path d="M355.753 605.253h-28.9v106.595h28.9V605.253Z" fill="#49AAF7"/><path d="M355.753 605.253h-28.9v4.556h28.9v-4.556Zm0 8.154h-28.9v4.556h28.9v-4.556Zm0 8.273h-28.9v4.556h28.9v-4.556Zm0 8.153h-28.9v4.557h28.9v-4.557Zm0 8.274h-28.9v4.556h28.9v-4.556Zm0 8.153h-28.9v4.557h28.9v-4.557Zm0 8.274h-28.9v4.556h28.9v-4.556Zm-34.657-49.281h-5.756v4.556h5.756v-4.556Zm0 8.154h-5.756v4.556h5.756v-4.556Zm0 8.273h-5.756v4.556h5.756v-4.556Zm0 8.153h-5.756v4.557h5.756v-4.557Zm0 8.274h-5.756v4.556h5.756v-4.556Zm0 8.153h-5.756v4.557h5.756v-4.557Zm0 8.274h-5.756v4.556h5.756v-4.556Zm46.049-49.281h-5.756v4.556h5.756v-4.556Zm0 8.154h-5.756v4.556h5.756v-4.556Zm0 8.273h-5.756v4.556h5.756v-4.556Zm0 8.153h-5.756v4.557h5.756v-4.557Zm0 8.274h-5.756v4.556h5.756v-4.556Zm0 8.153h-5.756v4.557h5.756v-4.557Zm0 8.274h-5.756v4.556h5.756v-4.556Z" fill="#BDE0F4"/><path d="M315.34 605.253h-19.666v106.595h19.666V605.253Z" fill="#49AAF7"/><path d="M309.105 605.253h-8.275v102.998h8.275V605.253Z" fill="#49AAF7"/><path d="M309.105 605.253h-8.275v4.556h8.275v-4.556Zm0 8.154h-8.275v4.556h8.275v-4.556Zm0 8.273h-8.275v4.556h8.275v-4.556Zm0 8.153h-8.275v4.557h8.275v-4.557Zm0 8.274h-8.275v4.556h8.275v-4.556Zm0 8.153h-8.275v4.557h8.275v-4.557Zm0 8.274h-8.275v4.556h8.275v-4.556Zm33.816-49.281h-3.357v102.998h3.357V605.253Z" fill="#49AAF7"/><path d="M367.265 598.778h-71.591v6.475h71.591v-6.475Zm0-.24h-71.591v.24h71.591v-.24Z" fill="#BDE0F4"/><path d="M315.34 598.778h-19.666v6.475h19.666v-6.475Zm0-.24h-19.666v.24h19.666v-.24Zm-19.906-19.664h-36.095v247.603h36.095V578.874Zm-36.095 0h-51.085v247.603h51.085V578.874Z" fill="#BDE0F4"/><path d="M295.314 578.874h-35.975v247.603h35.975V578.874Z" fill="#BDE0F4"/><path d="M259.339 578.874h-51.085v247.603h51.085V578.874Z" fill="#003659"/><path d="M262.097 582.111h-13.431v4.556h13.431v-4.556Zm-45.569 0h-13.43v4.556h13.43v-4.556Z" fill="#BDE0F4"/><path d="M271.57 582.111h-9.593v4.556h9.593v-4.556Zm28.541 0h-9.593v4.556h9.593v-4.556Zm-38.014 7.914h-13.431v4.556h13.431v-4.556Zm-45.569 0h-13.43v4.556h13.43v-4.556Z" fill="#BDE0F4"/><path d="M271.57 590.025h-9.593v4.556h9.593v-4.556Zm28.541 0h-9.593v4.556h9.593v-4.556Zm-38.014 7.914h-13.431v4.556h13.431v-4.556Zm-45.569 0h-13.43v4.556h13.43v-4.556Z" fill="#BDE0F4"/><path d="M271.57 597.939h-9.593v4.556h9.593v-4.556Zm28.541 0h-9.593v4.556h9.593v-4.556Zm-38.014 7.913h-13.431v4.556h13.431v-4.556Zm-45.569 0h-13.43v4.556h13.43v-4.556Z" fill="#BDE0F4"/><path d="M271.57 605.852h-9.593v4.556h9.593v-4.556Zm28.541 0h-9.593v4.556h9.593v-4.556Zm-38.014 7.914h-13.431v4.556h13.431v-4.556Zm-45.569 0h-13.43v4.556h13.43v-4.556Z" fill="#BDE0F4"/><path d="M271.57 613.766h-9.593v4.556h9.593v-4.556Zm28.541 0h-9.593v4.556h9.593v-4.556Zm-38.014 7.794h-13.431v4.556h13.431v-4.556Zm-45.569 0h-13.43v4.556h13.43v-4.556Z" fill="#BDE0F4"/><path d="M271.57 621.56h-9.593v4.556h9.593v-4.556Zm28.541 0h-9.593v4.556h9.593v-4.556Zm-38.014 7.914h-13.431v4.556h13.431v-4.556Zm-45.569 0h-13.43v4.556h13.43v-4.556Z" fill="#BDE0F4"/><path d="M271.57 629.474h-9.593v4.556h9.593v-4.556Zm28.541 0h-9.593v4.556h9.593v-4.556Zm-38.014 7.913h-13.431v4.556h13.431v-4.556Zm-45.569 0h-13.43v4.557h13.43v-4.557Z" fill="#BDE0F4"/><path d="M271.57 637.387h-9.593v4.556h9.593v-4.556Zm28.541 0h-9.593v4.556h9.593v-4.556Zm-38.014 7.914h-13.431v4.556h13.431v-4.556Zm-45.569 0h-13.43v4.556h13.43v-4.556Z" fill="#BDE0F4"/><path d="M271.57 645.301h-9.593v4.556h9.593v-4.556Zm28.541 0h-9.593v4.556h9.593v-4.556Zm-38.014 7.794h-13.431v4.556h13.431v-4.556Zm-45.569 0h-13.43v4.556h13.43v-4.556Z" fill="#BDE0F4"/><path d="M271.57 653.095h-9.593v4.556h9.593v-4.556Zm28.541 0h-9.593v4.556h9.593v-4.556Z" fill="#BDE0F4"/><path d="M241.951 578.874h-20.026V822.52h20.026V578.874Zm45.089 0h-12.472V823.36h12.472V578.874Z" fill="#003659"/><path d="M158.44 711.521h-51.804V604.925h51.804v106.596Z" fill="#BDE0F4"/><path d="M147.048 604.925h-28.9v106.596h28.9V604.925Z" fill="#49AAF7"/><path d="M147.048 604.925h-28.9v4.557h28.9v-4.557Zm0 8.154h-28.9v4.557h28.9v-4.557Zm0 8.274h-28.9v4.556h28.9v-4.556Zm0 8.153h-28.9v4.556h28.9v-4.556Zm0 8.273h-28.9v4.557h28.9v-4.557Zm0 8.154h-28.9v4.557h28.9v-4.557Zm0 8.274h-28.9v4.556h28.9v-4.556Zm-34.656-49.282h-5.756v4.557h5.756v-4.557Zm0 8.154h-5.756v4.557h5.756v-4.557Zm0 8.274h-5.756v4.556h5.756v-4.556Zm0 8.153h-5.756v4.556h5.756v-4.556Zm0 8.273h-5.756v4.557h5.756v-4.557Zm0 8.154h-5.756v4.557h5.756v-4.557Zm0 8.274h-5.756v4.556h5.756v-4.556Zm46.048-49.282h-5.756v4.557h5.756v-4.557Zm0 8.154h-5.756v4.557h5.756v-4.557Zm0 8.274h-5.756v4.556h5.756v-4.556Zm0 8.153h-5.756v4.556h5.756v-4.556Zm0 8.273h-5.756v4.557h5.756v-4.557Zm0 8.154h-5.756v4.557h5.756v-4.557Zm0 8.274h-5.756v4.556h5.756v-4.556Z" fill="#BDE0F4"/><path d="M106.636 604.925H86.969v106.596h19.667V604.925Z" fill="#49AAF7"/><path d="M100.4 604.925h-8.274v102.999h8.274V604.925Z" fill="#49AAF7"/><path d="M100.4 604.925h-8.274v4.557h8.274v-4.557Zm0 8.154h-8.274v4.557h8.274v-4.557Zm0 8.274h-8.274v4.556h8.274v-4.556Zm0 8.153h-8.274v4.556h8.274v-4.556Zm0 8.273h-8.274v4.557h8.274v-4.557Zm0 8.154h-8.274v4.557h8.274v-4.557Zm0 8.274h-8.274v4.556h8.274v-4.556Zm33.817-49.282h-3.358v102.999h3.358V604.925Z" fill="#49AAF7"/><path d="M158.56 598.451H86.97v6.475h71.59v-6.475Zm0-.24H86.97v.239h71.59v-.239Z" fill="#BDE0F4"/><path d="M106.636 598.451H86.969v6.475h19.667v-6.475Zm0-.24H86.969v.239h19.667v-.239ZM86.73 578.546H50.634V826.15H86.73V578.546Z" fill="#BDE0F4"/><path d="M50.634 578.546H-.45V826.15h51.085V578.546Z" fill="#BDE0F4"/><path d="M86.61 578.546H50.634V826.15H86.61V578.546Z" fill="#BDE0F4"/><path d="M50.634 578.546H-.45V826.15h51.085V578.546Z" fill="#003659"/><path d="M53.392 581.784h-13.43v4.556h13.43v-4.556Zm-45.568 0H-5.607v4.556h13.43v-4.556Z" fill="#BDE0F4"/><path d="M62.866 581.784h-9.593v4.556h9.593v-4.556Zm28.54 0h-9.593v4.556h9.593v-4.556Zm-38.014 7.913h-13.43v4.557h13.43v-4.557Zm-45.568 0H-5.607v4.557h13.43v-4.557Z" fill="#BDE0F4"/><path d="M62.866 589.697h-9.593v4.557h9.593v-4.557Zm28.54 0h-9.593v4.557h9.593v-4.557Zm-38.014 7.914h-13.43v4.557h13.43v-4.557Zm-45.568 0H-5.607v4.557h13.43v-4.557Z" fill="#BDE0F4"/><path d="M62.866 597.611h-9.593v4.557h9.593v-4.557Zm28.54 0h-9.593v4.557h9.593v-4.557Zm-38.014 7.914h-13.43v4.556h13.43v-4.556Zm-45.568 0H-5.607v4.556h13.43v-4.556Z" fill="#BDE0F4"/><path d="M62.866 605.525h-9.593v4.556h9.593v-4.556Zm28.54 0h-9.593v4.556h9.593v-4.556Zm-38.014 7.914h-13.43v4.556h13.43v-4.556Zm-45.568 0H-5.607v4.556h13.43v-4.556Z" fill="#BDE0F4"/><path d="M62.866 613.439h-9.593v4.556h9.593v-4.556Zm28.54 0h-9.593v4.556h9.593v-4.556Zm-38.014 7.793h-13.43v4.557h13.43v-4.557Zm-45.568 0H-5.607v4.557h13.43v-4.557Z" fill="#BDE0F4"/><path d="M62.866 621.232h-9.593v4.557h9.593v-4.557Zm28.54 0h-9.593v4.557h9.593v-4.557Zm-38.014 7.914h-13.43v4.557h13.43v-4.557Zm-45.568 0H-5.607v4.557h13.43v-4.557Z" fill="#BDE0F4"/><path d="M62.866 629.146h-9.593v4.557h9.593v-4.557Zm28.54 0h-9.593v4.557h9.593v-4.557Zm-38.014 7.914h-13.43v4.556h13.43v-4.556Zm-45.568 0H-5.607v4.556h13.43v-4.556Z" fill="#BDE0F4"/><path d="M62.866 637.06h-9.593v4.556h9.593v-4.556Zm28.54 0h-9.593v4.556h9.593v-4.556Zm-38.014 7.914h-13.43v4.556h13.43v-4.556Zm-45.568 0H-5.607v4.556h13.43v-4.556Z" fill="#BDE0F4"/><path d="M62.866 644.974h-9.593v4.556h9.593v-4.556Zm28.54 0h-9.593v4.556h9.593v-4.556Zm-38.014 7.793h-13.43v4.557h13.43v-4.557Zm-45.568.001H-5.607v4.556h13.43v-4.556Z" fill="#BDE0F4"/><path d="M62.866 652.767h-9.593v4.557h9.593v-4.557Zm28.54 0h-9.593v4.557h9.593v-4.557Z" fill="#BDE0F4"/><path d="M33.246 578.546H13.22v243.647h20.026V578.546Zm45.089 0H65.864v244.486h12.471V578.546Z" fill="#003659"/><path d="M1472.03 629.115h-276.77v189.569h276.77V629.115Z" fill="#fff"/><path d="M1484.5 654.534h-301.83v141.008h301.83V654.534Z" fill="#49D8F7"/><path d="M1185.31 654.534h-2.64v141.008h2.64V654.534Zm18.71 0h-2.64v141.008h2.64V654.534Zm18.82 0h-2.64v141.008h2.64V654.534Z" fill="#fff"/><path d="M409.921 530.193v-32.374h63.917v269.426h-94.975V554.654l31.058-24.461Z" fill="#49AAF7"/><path d="M441.82 530.193v-32.374h63.916v269.426h-94.855V554.654l30.939-24.461Z" fill="#BDE0F4"/><path d="M418.795 530.193v-32.374h7.555v32.374l-31.058 24.461v212.591h-7.435V554.654l30.938-24.461Z" fill="#5566C5"/><path d="M500.219 513.167h-2.638v254.198h2.638V513.167Zm-5.396 0h-2.638v254.198h2.638V513.167Zm-5.276 0h-2.638v254.198h2.638V513.167Zm-5.397 0h-2.638v254.198h2.638V513.167Zm-5.276 0h-2.638v254.198h2.638V513.167Zm-5.276 0h-2.638v254.198h2.638V513.167Zm-5.396 0h-2.639v254.198h2.639V513.167Zm-5.277 0h-2.638v254.198h2.638V513.167Zm-5.396 0h-2.638v254.198h2.638V513.167Zm-5.277 0h-2.638v254.198h2.638V513.167Zm-10.672 29.736h-2.638v224.342h2.638V542.903Zm-5.277 7.434h-2.638v216.908h2.638V550.337Zm-5.396 8.034h-2.638v208.874h2.638V558.371Zm-5.276 7.674h-2.638v201.2h2.638v-201.2Z" fill="#49AAF7"/><path d="M420.235 566.045h-2.639v201.2h2.639v-201.2Z" fill="#BDE0F4"/><path d="M218.286 610.648v-28.736h-56.732v239.144h84.3V632.359l-27.568-21.711Z" fill="#49AAF7"/><path d="M189.973 610.648v-28.736h-56.732v239.144h84.194V632.359l-27.462-21.711Z" fill="#BDE0F4"/><path d="M210.409 610.648v-28.736h-6.705v28.736l27.567 21.711v188.697h6.6V632.359l-27.462-21.711Z" fill="#5566C5"/><path d="M138.137 595.536h2.342v225.627h-2.342V595.536Zm4.79 0h2.342v225.627h-2.342V595.536Zm4.683 0h2.342v225.627h-2.342V595.536Zm4.79 0h2.342v225.627H152.4V595.536Zm4.683 0h2.342v225.627h-2.342V595.536Zm4.684 0h2.342v225.627h-2.342V595.536Zm4.79 0h2.341v225.627h-2.341V595.536Zm4.683 0h2.342v225.627h-2.342V595.536Zm4.79 0h2.341v225.627h-2.341V595.536Zm4.683 0h2.341v225.627h-2.341V595.536Zm9.473 26.393h2.342v199.127h-2.342V621.929Zm4.684 6.599h2.341v192.528h-2.341V628.528Zm4.789 7.131h2.342v185.398h-2.342V635.659Zm4.683 6.811h2.342v178.586h-2.342V642.47Z" fill="#49AAF7"/><path d="M209.132 642.47h2.342v178.586h-2.342V642.47Z" fill="#BDE0F4"/><path d="M9.582 610.321v-28.736h-56.733v239.144h84.3V632.032L9.582 610.321Z" fill="#49AAF7"/><path d="M-18.731 610.321v-28.736h-56.732v239.144H8.73V632.032l-27.461-21.711Z" fill="#BDE0F4"/><path d="M1.705 610.321v-28.736h-6.706v28.736l27.568 21.711v188.697h6.6V632.032L1.704 610.321Z" fill="#5566C5"/><path d="M.428 642.143h2.341v178.586H.428V642.143Z" fill="#BDE0F4"/><path d="M1223.32 59.807s-8.99 159.353-115.6 218.107c-82.5 45.324-109.483 183.454-109.483 183.454l-.24-401.561h225.323ZM-158.496 244.17s6.807 120.67 87.5 165.161c62.45 34.321 82.872 138.92 82.872 138.92l.182-304.081h-170.554Z" fill="#FEEDC5" style="mix-blend-mode:overlay" opacity=".61"/><path d="M1511.48 790.507h-329.65c0-76.38 49.65-138.25 110.8-138.25 8.28 0 16.43 1.199 24.23 3.357 8.75-8.513 18.35-15.588 28.66-20.744 13.43-6.834 27.94-10.551 43.17-10.551 67.75-.12 122.79 74.341 122.79 166.188Z" fill="#3D213D"/><path d="M1511.48 790.507h-329.65c0-76.38 49.65-138.25 110.8-138.25 8.28 0 16.43 1.199 24.23 3.357 8.75-8.513 18.35-15.588 28.66-20.744 13.43-6.834 27.94-10.551 43.17-10.551 67.75-.12 122.79 74.341 122.79 166.188Z" fill="url(#h)"/><path opacity=".43" d="m1345.4 634.87-74.95 155.757h-88.74c0-76.38 49.65-138.251 110.81-138.251 8.27 0 16.42 1.199 24.22 3.358 8.87-8.754 18.47-15.708 28.66-20.864Z" fill="#FEEDC5"/><path d="M849.779 774.2c37.883 0 68.593-28.936 68.593-64.629 0-35.694-30.71-64.629-68.593-64.629-37.882 0-68.592 28.935-68.592 64.629 0 35.693 30.71 64.629 68.592 64.629Z" fill="#888A17"/><path d="M852.298 774.2c36.491 0 66.074-28.184 66.074-62.95 0-34.767-29.583-62.95-66.074-62.95-36.492 0-66.075 28.183-66.075 62.95 0 34.766 29.583 62.95 66.075 62.95Z" fill="#3D213D"/><path d="M852.298 774.2c36.491 0 66.074-28.184 66.074-62.95 0-34.767-29.583-62.95-66.074-62.95-36.492 0-66.075 28.183-66.075 62.95 0 34.766 29.583 62.95 66.075 62.95Z" fill="url(#i)"/><path d="M587.999 818.685H366.631V584.87l221.368-23.981v257.796Z" fill="#C0BDF4"/><path d="M519.082 736.094c7.352-30.719-11.594-61.58-42.317-68.931-30.722-7.35-61.587 11.594-68.938 42.313-7.351 30.719 11.595 61.58 42.317 68.931 30.722 7.35 61.587-11.594 68.938-42.313Z" fill="#723E73"/><path d="M781.187 690.626c0 20.384-4.437 39.569-12.472 56.955H366.631V633.072c15.23-13.31 33.337-23.262 53.364-28.777 10.672-6.835 22.544-11.871 35.255-14.869 20.147-33.093 56.602-55.156 98.213-55.156 25.303 0 48.567 8.154 67.634 22.063a139.913 139.913 0 0 1 23.743-2.039c11.752 0 23.144 1.439 34.057 4.317 58.879 15.108 102.29 68.466 102.29 132.015Z" fill="url(#j)"/><path d="M1070.55 781.634c47.02 0 85.14-35.914 85.14-80.216 0-44.303-38.12-80.217-85.14-80.217s-85.144 35.914-85.144 80.217c0 44.302 38.124 80.216 85.144 80.216Z" fill="#3A95A8"/><path d="M1073.67 781.634c45.3 0 82.02-34.948 82.02-78.058 0-43.11-36.72-78.058-82.02-78.058s-82.028 34.948-82.028 78.058c0 43.11 36.728 78.058 82.028 78.058Z" fill="#3A95A8"/><path d="M1122.59 663.767c0 62.351-53.6 112.831-119.8 112.831-30.695 0-58.635-10.912-79.861-28.777-24.463-20.624-39.932-50.72-39.932-84.054 0-62.35 53.603-112.83 119.793-112.83 33.46 0 63.56 12.83 85.39 33.693 21.22 20.264 34.41 48.202 34.41 79.137Z" fill="#AEB11B"/><path d="M1122.59 663.767c0 62.351-53.6 112.831-119.8 112.831-30.695 0-58.635-10.912-79.861-28.777-24.463-20.624-39.932-50.72-39.932-84.054 0-62.35 53.603-112.83 119.793-112.83 33.46 0 63.56 12.83 85.39 33.693 21.22 20.264 34.41 48.202 34.41 79.137Z" fill="url(#k)"/><path d="M1050.88 639.187h-4.8v207.075h4.8V639.187Z" fill="#FFFFFB"/><path d="m1071.25 632.524-22.13 22.129.85.848 22.13-22.129-.85-.848Z" fill="#FFFFFB"/><path d="m1088.53 620.242-2.63-.72c-1.68-.359-3.96.12-5.28 1.199l-12.71 11.032c-1.2 1.079-.96 2.278.72 2.758l2.64.719c1.68.36 3.95-.12 5.27-1.199L1089.25 623c1.32-1.08.96-2.279-.72-2.758Z" fill="#49AAF7"/><path d="m292.903 586.624 888.347-226.26s-.72-2.039-2.04-5.156c-3.11-7.794-9.23-22.662-13.55-30.216-5.99-10.432-8.87-13.429-8.87-13.429l-21.71-4.557-87.54 26.379-747.442 225.181-7.195 28.058Z" fill="#889EA3"/><path d="M1130.53 316.239 299.379 561.444l-8.154 25.66 849.615-221.345-10.31-49.52Z" fill="#E21A1A"/><path d="m979.166 359.743 39.384 37.901-62.032 15.958-34.463-37.901 57.111-15.958Zm-140.304 42.639 41.676 39.48-65.641 16.623-36.467-39.48 60.432-16.623Zm-131.305 38.15 31.601 30.005-49.772 12.634-27.651-30.005 45.822-12.634Zm-97.62 28.052 31.601 30.005-49.772 12.633-27.651-30.005 45.822-12.633Zm-95.376 28.051 31.601 30.005-49.772 12.634-27.651-30.005 45.822-12.634Zm-68.263 22.442 22.442 21.319-35.345 8.976-19.637-21.319 32.54-8.976Zm-72.476 20.197 21.983 20.53-34.624 8.644-19.235-20.53 31.876-8.644ZM326.798 553.3l16.831 20.758-25.167 6.732-14.106-20.758 22.442-6.732Z" fill="#A1C5CD"/><path d="m890.093 390.939 6.715-2.038v10.432l-6.715 2.038v-10.432ZM493.645 514.681c.36-2.518.72-5.036 1.199-7.554l32.978-9.712c-.48 2.518-.72 5.036-.48 7.674l-33.697 9.592Zm-103.249 29.497-84.302 24.1.959-5.995 84.182-24.7c-.239 2.158-.479 4.316-.839 6.595Zm48.567-13.909-18.468 5.276c.36-2.278.6-4.556.84-6.835l19.067-5.635-1.439 7.194Zm7.075-8.873 13.791-4.077c-.6 2.518-1.2 4.916-1.799 7.434l-13.551 3.837c.48-2.278.96-4.796 1.559-7.194Zm19.186-5.636 24.104-7.074c-.36 2.518-.72 4.916-.96 7.434l-24.823 7.074c.48-2.398 1.08-4.916 1.679-7.434Zm98.453-28.897 14.869-4.316c-.479 2.757-.719 5.395-.839 8.153l-14.75 4.197c.36-2.758.48-5.396.72-8.034Zm24.103-7.074 7.555-2.279c-.24 2.758-.6 5.516-.839 8.274l-7.915 2.278c.12-2.878.48-5.755 1.199-8.273Zm11.153-3.358 7.314-2.158c0 1.439.001 2.878.12 4.437v3.717l-8.154 2.278c.12-2.758.48-5.516.72-8.274Zm20.506-5.994 6.475-1.919c-.359 2.758-.479 5.636-.479 8.393l-6.716 1.919c.36-2.758.6-5.516.72-8.393Zm17.867-5.277 22.665-6.594c-.36 2.877-.36 5.755-.36 8.633l-23.264 6.594c.24-2.757.6-5.635.959-8.633Zm56.841-16.666 13.191-3.837c-.24 3.117-.599 6.235-1.199 9.232l-12.711 3.598c0-2.998.24-5.996.719-8.993Zm16.669-4.916 11.152-3.238c0 3.118-.12 6.115-.359 9.233l-11.752 3.357c.479-3.117.839-6.235.959-9.352Zm14.63-4.317 57.44-16.907v9.593l-57.8 16.546c.24-3.117.36-6.115.36-9.232Zm74.709-21.942 25.902-7.554v9.832l-25.902 7.434v-9.712Zm36.574-10.792 36.096-10.552v10.312l-36.096 10.312v-10.072Zm63.556-18.585 10.673-3.118v10.552l-10.673 2.997v-10.431Zm22.066 4.196v-10.671l38.853-11.391v11.031l-16.069 4.557v-3.478c0-2.278-3.478-2.278-3.478 0v4.437l-19.306 5.515Z" fill="#E6E6E6"/><path d="m1047.54 333.385 96.54 20.384 35.13 1.439c-3.11-7.794-9.23-22.662-13.55-30.216-5.99-10.432-8.87-13.43-8.87-13.43l-21.71-4.556-87.54 26.379Z" fill="#FBD5A2"/><path d="M1135.08 307.006s8.64 30.336 10.8 33.214c1.08 1.439 8.63 3.117 15.71 4.316a573.653 573.653 0 0 0 13.31 2.159s-6.12-21.104-18.11-35.133l-9.95-2.038-11.76-2.518Z" fill="#3D213D"/><path d="m1172.28 338.424 2.8 8.415-13.46-2.244-5.05-7.293 15.71 1.122Z" fill="#89CFE1"/><path d="m780.608 413.841-2.398 54.917-12.472 2.997 4.917-54.916 9.953-2.998Zm-230.122 69.305-4.197 44.125-7.435-2.158 4.197-39.689 7.435-2.278ZM400.709 528.35l-5.516 33.573-4.677 1.319 6.356-33.813 3.837-1.079Z" fill="#3D213D"/><path d="m1178.2 352.88-21.95-2.884-9.57-6.37-4.52-27.644-87.97 34.494.81 19.591-7.13.962-1.45-24.519-4.51 1.803 2.53 36.417-166.816 59.493-.452 15.384 301.838-104.083-.81-2.644Z" fill="#ED6F01"/><path d="m1049.22 344.034-37.4 11.215 4.11 38.156 126.05-32.823-92.76-16.548Z" fill="#E21A1A"/><path d="m1084.71 324.959 47.17 45.007-47.17 9.974-41.28-45.007 41.28-9.974Z" fill="#A1C5CD"/><path d="m1127.89 320.435 5.04 23.382-58.64-7.434 53.6-15.948Z" fill="#FBD5A2"/><path d="M1135.08 307.006s8.64 30.336 10.8 33.214c1.08 1.439 8.63 3.117 15.71 4.316l-26.51-37.53Z" fill="#E21A1A"/><path d="m1159.37 314.86-20.76-2.244-2.8-5.61 21.32 4.488 2.24 3.366Z" fill="#607785"/><path d="m734.08 432.427-45.329 13.669v27.098l2.039-1.199v-24.82l43.53-13.669-.24-1.079Zm227.124-66.188v1.798l-42.451 12.111.6 21.823h-1.2l-.359-23.022 43.41-12.71Zm107.846-27.815v1.798l-42.45 12.111.59 21.822H1026l-.36-23.021 43.41-12.71Zm-215.173 59.47v1.079l-19.307 5.875v16.427l-.839 1.079v-18.585l20.146-5.875Zm-362.63 106.955-1.919 18.585-2.159.48 2.039-18.465 2.039-.6Zm-38.254 11.271-1.559 18.945-1.919.599 1.679-19.064 1.799-.48Zm-33.817 9.952-2.278 18.465-1.679.72 2.638-18.825 1.319-.36Zm-58.999 17.506-3.478 19.664-1.559.72 3.118-19.904 1.919-.48Z" fill="#E6E6E6"/><path d="M1033.56 363.852v-10.671l38.85-11.391v11.031l-16.07 4.557V353.9c0-2.278-3.47-2.278-3.47 0v4.437l-19.31 5.515Zm-33.629-1.36 6.719-2.038v10.431l-6.719 2.039v-10.432Zm10.189-2.998 10.68-3.117v10.552l-10.68 2.997v-10.432Z" fill="#E6E6E6"/><path d="m1117.76 312.616 16.43 55.876-370.908 50.959 354.478-106.835Z" fill="#FEEDC5" style="mix-blend-mode:screen" opacity=".61"/><path d="M2681.46 41.076-244.896 732.353v13.789L3248.1 122.987V50.052l-566.64-8.976Z" fill="#003659"/><path opacity=".24" d="m736.75 567.724-193.787-19.425 259.022-61.751 163.448 39.689-228.683 41.487Z" fill="#FEEDC5"/><path d="M2681.46 46.686-244.896 732.353v-6.595L2541.2 7.414l140.26 39.272Z" fill="#5566C5"/><path d="M1474.67 294.102-244.896 728.276v1.079L1478.6 303.079l-3.93-8.977Z" fill="#3D213D"/><path d="M1064.96 512.088v25.06l-15.34 8.034-23.63-19.545-15.23-10.671v-25.06l54.2 22.182Z" fill="#BDD0F4"/><path d="M1025.99 500.457h57.8v318.228h-57.8V500.457Z" fill="#BDD0F4"/><path d="M1114.78 818.647h-30.94V504.736h30.94v313.911Z" fill="#3A95A8"/><path d="M1128.16 501.177v25.06l-15.47 8.033-23.38-9.592-15.35-20.624v-24.94l54.2 22.063Z" fill="#5566C5"/><path d="m1010.76 489.906 63.2-10.792v24.94l-63.2 10.912v-25.06Z" fill="#BDD0F4"/><path d="m1101.06 490.146 13.67 46.763v-3.717l13.43-6.955v-25.06l-27.1-11.031Z" fill="#003659"/><path d="m1083.79 517.244-57.8 8.393-15.23-10.671 63.2-10.912 9.83 13.19Z" fill="#3D91D4"/><path d="M566.707 598.059v17.986l-11.033 5.755-17.028-14.028-10.913-7.674v-17.986l38.974 15.947Z" fill="#BDD0F4"/><path d="M538.646 589.666h41.611v229.018h-41.611V589.666Z" fill="#BDD0F4"/><path d="M602.565 818.646H580.26V592.745h22.305v225.901Z" fill="#003659"/><path d="M612.155 590.266v17.986l-11.152 5.755-16.789-6.835-11.032-14.988v-17.866l38.973 15.948Z" fill="#003659"/><path d="m527.733 582.112 45.449-7.794v17.866l-45.449 7.914v-17.986Z" fill="#BDD0F4"/><path d="m592.609 582.232 9.953 33.693v-2.758l9.593-4.916v-17.985l-19.546-8.034Z" fill="#003659"/><path d="m580.257 601.776-41.611 5.996-10.913-7.674 45.449-7.914 7.075 9.592Z" fill="#3D91D4"/><path opacity=".61" d="m1001.65 402.855 2.16 8.872 518.55-128.845-17.39-10.66-503.32 130.633Zm24.34 11.63 4.32 19.425 412.95-96.284 42.63-36.23-459.9 113.089Z" fill="#FEEDC5"/><path d="M2721-55.422H-788v1021h3509v-1021Z" fill="url(#l)" style="mix-blend-mode:overlay" opacity=".58"/><path d="M-97.905 828.523c0-104.693 71.963-246.611 148.913-246.611 33.738 0 64.65 16.286 88.749 43.373 5.152-.831 10.304-1.163 15.623-1.163 76.949 0 139.439 141.917 139.439 246.61 0 3.656-.166 7.478-.166 11.134H-91.423c-4.321-16.95-6.482-34.897-6.482-53.343Z" fill="url(#m)"/></g><g clip-path="url(#n)"><path fill="#fff" d="M-1033.7-7.64h4094.8v1089.29h-4094.8z"/><g clip-path="url(#o)"><path d="M2499.11-60.317h-3575v1021h3575v-1021Z" fill="url(#p)"/><path d="M-164.583 104.661H.503v757.401h-165.086V104.661Z" fill="#49D8F7"/><path d="M-164.583 131.813H.503v25h-165.086v-25Zm0 48.683H.503v25h-165.086v-25Zm0 48.683H.503v25h-165.086v-25Zm0 48.684H.503v24.999h-165.086v-24.999Zm0 48.683H.503v25h-165.086v-25Zm0 48.683H.503v25h-165.086v-25Zm0 48.684H.503v24.999h-165.086v-24.999Zm0 48.683H.503v25h-165.086v-25Zm0 48.683H.503v25h-165.086v-25Zm0 48.684H.503v24.999h-165.086v-24.999Zm0 48.683H.503v24.88h-165.086v-24.88Z" opacity=".23" fill="#003659"/><path d="M-395.943 104.661H.503v757.401h-396.446V104.661Z" fill="url(#q)" style="mix-blend-mode:multiply" opacity=".4"/><path d="M-234 104.84s9.378 166.168 120.544 227.433C-27.424 379.536.711 523.573.711 523.573L.96 104.84H-234Z" fill="#FEEDC5" style="mix-blend-mode:overlay" opacity=".61"/><path d="m203.999 664.246.751 7.502c.875 9.877 1.625 19.755 2.376 29.633.125 1.5.125 3 .25 4.501h6.502v-4.376h38.139v23.256h13.505v-.25h-.75v-2.751h.75v-1h-.75v-2.751h.75v-1h-.75v-2.751h.75v-1h-.75v-2.751h.75v-1.125h5.252V604.355h2.751v-27.882h40.89v27.882h2.751v148.414h16.381v9.877h7.377v-29.132h2.876v-12.378h31.012v-.501h-2.126l2.376-3.375v-1.626h1.125l1.251-1.75h-2.376v-2.501h2.501v-1.75h-2.501v-2.501h2.501v-1.75h-2.501v-2.501h2.501v-4.251h2.001v-4.501h5.377V681.75h4.001v-15.754l12.129-2.875 2.751-.626v-26.006h1.626v25.631l4.877-1.125v20.755h3.376v12.379h2.876v-30.633h2.126V601.98h-1.126v-3.001h1.751v-1.25c0-.876.625-1.626 1.501-1.626h.875v-6.376c0-1.626 1.25-3.001 2.751-3.001h.125v-5.627c0-1.625 1-3 2.501-3.376v-5.001h1.876c.5-3.751 3.251-6.627 6.877-7.252v-5.126c0-.375.125-.625.5-.625V546.59h1.251v13.129c.25.125.5.375.5.625v5.126c3.501.5 6.252 3.501 6.752 7.252h1.876v5.001c1.376.376 2.501 1.751 2.501 3.376v5.627h.125c1.501 0 2.751 1.375 2.751 3.001v6.376h1c.876 0 1.501.75 1.501 1.626v1.25h1.375v3.001h-1.375v61.516h2.001v37.885h28.76v19.505h17.757v34.133h5.877v-1.625h25.384v-7.877h3.626v-9.377h20.258v-8.878h23.008v-68.518h2.751v-1.125h-2.751v-4.126h2.751v-1.125h-2.876v-4.126h2.876v-1.126h-2.876v-4.126h2.876v-1.125h-2.876v-4.126h2.876v-1.25h-2.876v-4.126h2.876v-1.126h-2.876v-4.126h2.876v-1.125h-2.876v-89.148h52.269v84.897h-.125v4.126h-3.626v1.125h3.626v4.126h-3.626v1.126h3.626v4.126h-3.626v1.25h3.751v4.126h-3.751v1.125h3.751v4.126h-3.751v1.126h3.751v4.126h-3.751v1.125h3.751v4.126h-3.751v1.125h4.001v51.889h17.507v-14.129h21.883v-22.506l4.501-13.003.125-.5 11.88-34.259 16.506 47.762v3.251h1v1.501h-1.125v2h1v1.501h-1v2h1v1.5h-1v2.001h1v1.5h-1v2.001h1v1.5h-1v2.001h1v1.5h-1v2.001h1v1.5h-1v2.001h1v1.5h-1v2.001h1v1.5h-1v2h1v1.501h-1v2h1v1.501h-1v2h1v1.501h-1v2h1v1.5h-1v2.001h1v1.5h-1v2.001h1v1.5h-1v2.001h1v1.5h-1v2.001h1v1.5h-1v2.001h1v.5h19.007v-17.505h29.011v-.625l.125-2.501v-4.626l.125-2.125.125-2.501v-2.125l.125-2.501v-2.126l.125-2.5.125-2.126v-4.626l.125-2.501v-2.125l.125-2.501v-2.125l.125-2.501v-2.126l.125-2.5v-2.126l.125-2.501v-2.125l.125-2.501.25-7.752 12.13-4.376v6.752h3.751l-.375-18.38 21.008-5.626 2.125 29.382.25 2.501.125 2.125.251 2.501.125 2.126.125 2.5.125 2.126.125 2.501.125 2.125.125 2.501.125 2.125.25 2.501.125 2.125.125 2.501.125 2.126.125 2.5.125 2.126.25 2.501.125 2.125.25 2.501.125 2.125.126 2.501.125 2.125.25 2.501.125 2.126.125 2.5.125 2.126.25 2.5.125 2.126.25 2.501.125 2.125.125 2.501.125 2.125.125 2.501.125 2.126.125 2.5.125 2.126.125 2.375H822.1v10.878h14.881V738.14h16.506v-43.261h9.378v-61.016h66.524V855.17H160.734V664.371l43.265-.125Z" fill="#BDE0F4"/><path d="M687.676 731.638h-54.02V620.484h54.02v111.154Z" fill="#BDE0F4"/><path d="M675.797 620.484h-30.136v111.154h30.136V620.484Z" fill="#49AAF7"/><path d="M675.797 620.484h-30.136v4.752h30.136v-4.752Zm0 8.503h-30.136v4.751h30.136v-4.751Zm0 8.627h-30.136v4.751h30.136v-4.751Zm0 8.502h-30.136v4.751h30.136v-4.751Zm0 8.627h-30.136v4.752h30.136v-4.752Zm-36.138-34.259h-6.003v4.752h6.003v-4.752Zm0 8.503h-6.003v4.751h6.003v-4.751Zm0 8.627h-6.003v4.751h6.003v-4.751Zm0 8.502h-6.003v4.751h6.003v-4.751Zm0 8.627h-6.003v4.752h6.003v-4.752Zm48.017-34.259h-6.002v4.752h6.002v-4.752Zm0 8.503h-6.002v4.751h6.002v-4.751Zm0 8.627h-6.002v4.751h6.002v-4.751Zm0 8.502h-6.002v4.751h6.002v-4.751Zm0 8.627h-6.002v4.752h6.002v-4.752Z" fill="#BDE0F4"/><path d="M633.656 620.484h-20.507v111.154h20.507V620.484Z" fill="#49AAF7"/><path d="M627.154 620.484h-8.628v107.403h8.628V620.484Z" fill="#49AAF7"/><path d="M627.154 620.484h-8.628v4.752h8.628v-4.752Zm0 8.503h-8.628v4.751h8.628v-4.751Zm0 8.627h-8.628v4.751h8.628v-4.751Zm0 8.502h-8.628v4.751h8.628v-4.751Zm0 8.627h-8.628v4.752h8.628v-4.752Zm35.263-34.259h-3.501v107.403h3.501V620.484Z" fill="#49AAF7"/><path d="M687.801 613.733h-74.652v6.752h74.652v-6.752Zm0-.25h-74.652v.25h74.652v-.25Z" fill="#BDE0F4"/><path d="M633.656 613.733h-20.507v6.752h20.507v-6.752Zm0-.25h-20.507v.25h20.507v-.25Zm-20.757-20.506H575.26v258.192h37.639V592.977Zm-37.639 0h-53.269v258.192h53.269V592.977Z" fill="#BDE0F4"/><path d="M612.774 592.977H575.26v258.192h37.514V592.977Z" fill="#BDE0F4"/><path d="M575.26 592.977h-53.269v258.192h53.269V592.977Z" fill="#003659"/><path d="M578.136 596.353h-14.005v4.751h14.005v-4.751Zm-47.517 0h-14.005v4.751h14.005v-4.751Z" fill="#BDE0F4"/><path d="M588.015 596.353h-10.004v4.751h10.004v-4.751Zm29.761 0h-10.004v4.751h10.004v-4.751Zm-39.64 8.252h-14.005v4.752h14.005v-4.752Zm-47.517 0h-14.005v4.752h14.005v-4.752Z" fill="#BDE0F4"/><path d="M588.015 604.605h-10.004v4.752h10.004v-4.752Zm29.761 0h-10.004v4.752h10.004v-4.752Zm-39.64 8.253h-14.005v4.751h14.005v-4.751Zm-47.517 0h-14.005v4.751h14.005v-4.751Z" fill="#BDE0F4"/><path d="M588.015 612.858h-10.004v4.751h10.004v-4.751Zm29.761 0h-10.004v4.751h10.004v-4.751Zm-39.64 8.252h-14.005v4.751h14.005v-4.751Zm-47.517 0h-14.005v4.751h14.005v-4.751Z" fill="#BDE0F4"/><path d="M588.015 621.11h-10.004v4.751h10.004v-4.751Zm29.761 0h-10.004v4.751h10.004v-4.751Zm-39.64 8.252h-14.005v4.751h14.005v-4.751Zm-47.517 0h-14.005v4.751h14.005v-4.751Z" fill="#BDE0F4"/><path d="M588.015 629.362h-10.004v4.751h10.004v-4.751Zm29.761 0h-10.004v4.751h10.004v-4.751Zm-39.64 8.127h-14.005v4.751h14.005v-4.751Zm-47.517 0h-14.005v4.751h14.005v-4.751Z" fill="#BDE0F4"/><path d="M588.015 637.489h-10.004v4.751h10.004v-4.751Zm29.761 0h-10.004v4.751h10.004v-4.751Zm-39.64 8.252h-14.005v4.751h14.005v-4.751Zm-47.517 0h-14.005v4.751h14.005v-4.751Z" fill="#BDE0F4"/><path d="M588.015 645.741h-10.004v4.751h10.004v-4.751Zm29.761 0h-10.004v4.751h10.004v-4.751Zm-39.64 8.252h-14.005v4.751h14.005v-4.751Zm-47.517 0h-14.005v4.751h14.005v-4.751Z" fill="#BDE0F4"/><path d="M588.015 653.993h-10.004v4.751h10.004v-4.751Zm29.761 0h-10.004v4.751h10.004v-4.751Z" fill="#BDE0F4"/><path d="M557.128 592.977h-20.882v254.066h20.882V592.977Zm47.018 0h-13.005v254.941h13.005V592.977Z" fill="#003659"/><path d="M468.299 720.841h-68.248v-140.43h68.248v140.43Z" fill="#BDE0F4"/><path d="M453.291 580.411h-38.074v140.43h38.074v-140.43Z" fill="#49AAF7"/><path d="M453.291 580.411h-38.074v6.003h38.074v-6.003Zm0 10.742h-38.074v6.002h38.074v-6.002Zm0 10.899h-38.074v6.003h38.074v-6.003Zm0 10.742h-38.074v6.002h38.074v-6.002Zm0 10.899h-38.074v6.003h38.074v-6.003Zm0 10.742h-38.074v6.002h38.074v-6.002Zm0 10.899h-38.074v6.003h38.074v-6.003Zm-45.657-64.923h-7.583v6.003h7.583v-6.003Zm0 10.742h-7.583v6.002h7.583v-6.002Zm0 10.899h-7.583v6.003h7.583v-6.003Zm0 10.742h-7.583v6.002h7.583v-6.002Zm0 10.899h-7.583v6.003h7.583v-6.003Zm0 10.742h-7.583v6.002h7.583v-6.002Zm0 10.899h-7.583v6.003h7.583v-6.003Zm60.665-64.923h-7.583v6.003h7.583v-6.003Zm0 10.742h-7.583v6.002h7.583v-6.002Zm0 10.899h-7.583v6.003h7.583v-6.003Zm0 10.742h-7.583v6.002h7.583v-6.002Zm0 10.899h-7.583v6.003h7.583v-6.003Zm0 10.742h-7.583v6.002h7.583v-6.002Zm0 10.899h-7.583v6.003h7.583v-6.003Z" fill="#BDE0F4"/><path d="M400.051 580.411h-25.909v140.43h25.909v-140.43Z" fill="#49AAF7"/><path d="M391.836 580.411h-10.9v135.691h10.9V580.411Z" fill="#49AAF7"/><path d="M391.836 580.411h-10.9v6.003h10.9v-6.003Zm0 10.742h-10.9v6.002h10.9v-6.002Zm0 10.899h-10.9v6.003h10.9v-6.003Zm0 10.742h-10.9v6.002h10.9v-6.002Zm0 10.899h-10.9v6.003h10.9v-6.003Zm0 10.742h-10.9v6.002h10.9v-6.002Zm0 10.899h-10.9v6.003h10.9v-6.003Zm44.551-64.923h-4.424v135.691h4.424V580.411Z" fill="#49AAF7"/><path d="M468.457 571.881h-94.315v8.531h94.315v-8.531Z" fill="#BDE0F4"/><path d="M468.457 571.565h-94.315v.316h94.315v-.316Z" fill="#BDE0F4"/><path d="M400.051 571.881h-25.909v8.531h25.909v-8.531Z" fill="#BDE0F4"/><path d="M400.051 571.565h-25.909v.316h25.909v-.316Zm-26.225-25.906h-47.552v326.196h47.552V545.659Zm-47.552 0h-67.3v326.196h67.3V545.659Z" fill="#BDE0F4"/><path d="M373.668 545.659h-47.394v326.196h47.394V545.659Z" fill="#BDE0F4"/><path d="M326.274 545.659h-67.3v326.196h67.3V545.659Z" fill="#003659"/><path d="M329.908 549.924h-17.694v6.003h17.694v-6.003Zm-60.033 0h-17.694v6.003h17.694v-6.003Z" fill="#BDE0F4"/><path d="M342.388 549.924H329.75v6.003h12.638v-6.003Zm37.6 0h-12.639v6.003h12.639v-6.003Zm-50.08 10.426h-17.694v6.002h17.694v-6.002Zm-60.033 0h-17.694v6.002h17.694v-6.002Z" fill="#BDE0F4"/><path d="M342.388 560.35H329.75v6.002h12.638v-6.002Zm37.6 0h-12.639v6.002h12.639v-6.002Zm-50.08 10.425h-17.694v6.003h17.694v-6.003Zm-60.033 0h-17.694v6.003h17.694v-6.003Z" fill="#BDE0F4"/><path d="M342.388 570.775H329.75v6.003h12.638v-6.003Zm37.6 0h-12.639v6.003h12.639v-6.003Zm-50.08 10.426h-17.694v6.003h17.694v-6.003Zm-60.033 0h-17.694v6.003h17.694v-6.003Z" fill="#BDE0F4"/><path d="M342.388 581.201H329.75v6.003h12.638v-6.003Zm37.6 0h-12.639v6.003h12.639v-6.003Zm-50.08 10.425h-17.694v6.003h17.694v-6.003Zm-60.033.001h-17.694v6.002h17.694v-6.002Z" fill="#BDE0F4"/><path d="M342.388 591.626H329.75v6.003h12.638v-6.003Zm37.6 0h-12.639v6.003h12.639v-6.003Zm-50.08 10.268h-17.694v6.003h17.694v-6.003Zm-60.033 0h-17.694v6.003h17.694v-6.003Z" fill="#BDE0F4"/><path d="M342.388 601.894H329.75v6.003h12.638v-6.003Zm37.6 0h-12.639v6.003h12.639v-6.003Zm-50.08 10.426h-17.694v6.003h17.694v-6.003Zm-60.033 0h-17.694v6.003h17.694v-6.003Z" fill="#BDE0F4"/><path d="M342.388 612.32H329.75v6.003h12.638v-6.003Zm37.6 0h-12.639v6.003h12.639v-6.003Zm-50.08 10.425h-17.694v6.003h17.694v-6.003Zm-60.033 0h-17.694v6.003h17.694v-6.003Z" fill="#BDE0F4"/><path d="M342.388 622.745H329.75v6.003h12.638v-6.003Zm37.6 0h-12.639v6.003h12.639v-6.003Zm-50.08 10.426h-17.694v6.003h17.694v-6.003Zm-60.033 0h-17.694v6.003h17.694v-6.003Z" fill="#BDE0F4"/><path d="M342.388 633.171H329.75v6.003h12.638v-6.003Zm37.6 0h-12.639v6.003h12.639v-6.003Zm-50.08 10.268h-17.694v6.003h17.694v-6.003Zm-60.033 0h-17.694v6.002h17.694v-6.002Z" fill="#BDE0F4"/><path d="M342.388 643.439H329.75v6.003h12.638v-6.003Zm37.6 0h-12.639v6.003h12.639v-6.003Zm-50.08 10.425h-17.694v6.003h17.694v-6.003Zm-60.033 0h-17.694v6.003h17.694v-6.003Z" fill="#BDE0F4"/><path d="M342.388 653.864H329.75v6.003h12.638v-6.003Zm37.6 0h-12.639v6.003h12.639v-6.003Z" fill="#BDE0F4"/><path d="M303.367 545.659h-26.383v320.983h26.383V545.659Zm59.401 0h-16.43v322.089h16.43V545.659Z" fill="#003659"/><path d="M1435.46 653.493h-288.6v197.676h288.6V653.493Z" fill="#fff"/><path d="M272.191 587.519v-37.856h-74.74v315.05h111.058V616.122l-36.318-28.603Z" fill="#49AAF7"/><path d="M234.891 587.519v-37.857h-74.739v315.051h110.917V616.122l-36.178-28.603Z" fill="#BDE0F4"/><path d="M261.814 587.519v-37.857h-8.834v37.857l36.318 28.603v248.591h8.694V616.122l-36.178-28.603Z" fill="#5566C5"/><path d="M166.602 567.609h3.085v297.245h-3.085V567.609Zm6.31 0h3.085v297.245h-3.085V567.609Zm6.17 0h3.085v297.245h-3.085V567.609Zm6.31 0h3.085v297.245h-3.085V567.609Zm6.17 0h3.084v297.245h-3.084V567.609Zm6.17 0h3.085v297.245h-3.085V567.609Zm6.31 0h3.085v297.245h-3.085V567.609Zm6.17 0h3.085v297.245h-3.085V567.609Zm6.31 0h3.085v297.245h-3.085V567.609Zm6.169 0h3.085v297.245h-3.085V567.609Zm12.48 34.772h3.085v262.332h-3.085V602.381Zm6.171 8.693h3.085v253.639h-3.085V611.074Zm6.31 9.394h3.085v244.245h-3.085V620.468Zm6.169 8.974h3.085v235.271h-3.085V629.442Z" fill="#49AAF7"/><path d="M260.132 629.442h3.085v235.271h-3.085V629.442ZM-19.72 668.241h91.824V479.298H-19.72v188.943Z" fill="#BDE0F4"/><path d="M.473 479.298h51.226v188.943H.473V479.298Z" fill="#49AAF7"/><path d="M.473 479.298h51.226v8.077H.473v-8.077Zm0 14.453h51.226v8.076H.473v-8.076Zm0 14.665h51.226v8.076H.473v-8.076Zm0 14.452h51.226v8.076H.473v-8.076Zm0 14.665h51.226v8.076H.473v-8.076Zm0 14.452h51.226v8.076H.473v-8.076Zm0 14.665h51.226v8.076H.473v-8.076Zm0 14.452h51.226v8.077H.473v-8.077Zm0 14.453h51.226v8.076H.473v-8.076Zm0 14.664h51.226v8.077H.473v-8.077Zm0 14.453h51.226v8.076H.473v-8.076Zm0 14.665h51.226v8.076H.473v-8.076Zm0 14.452h51.226v8.076H.473v-8.076Zm61.429-174.491h10.203v8.077H61.901v-8.077Zm0 14.453h10.203v8.076H61.901v-8.076Zm0 14.665h10.203v8.076H61.901v-8.076Zm0 14.452h10.203v8.076H61.901v-8.076Zm0 14.665h10.203v8.076H61.901v-8.076Zm0 14.452h10.203v8.076H61.901v-8.076Zm0 14.665h10.203v8.076H61.901v-8.076Zm0 14.452h10.203v8.077H61.901v-8.077Zm0 14.453h10.203v8.076H61.901v-8.076Zm0 14.664h10.203v8.077H61.901v-8.077Zm0 14.453h10.203v8.076H61.901v-8.076Zm0 14.665h10.203v8.076H61.901v-8.076Zm0 14.452h10.203v8.076H61.901v-8.076Z" fill="#BDE0F4"/><path d="M72.104 479.298h34.86v188.943h-34.86V479.298Z" fill="#49AAF7"/><path d="M83.157 479.298h14.667v182.567H83.157V479.298Z" fill="#49AAF7"/><path d="M83.157 479.298h14.667v8.077H83.157v-8.077Zm0 14.453h14.667v8.076H83.157v-8.076Zm0 14.665h14.667v8.076H83.157v-8.076Zm0 14.452h14.667v8.076H83.157v-8.076Zm0 14.665h14.667v8.076H83.157v-8.076Zm0 14.452h14.667v8.076H83.157v-8.076Zm0 14.665h14.667v8.076H83.157v-8.076Zm0 14.452h14.667v8.077H83.157v-8.077Zm0 14.453h14.667v8.076H83.157v-8.076Zm0 14.664h14.667v8.077H83.157v-8.077Zm0 14.453h14.667v8.076H83.157v-8.076Zm0 14.665h14.667v8.076H83.157v-8.076Zm0 14.452h14.667v8.076H83.157v-8.076ZM23.216 479.298h5.952v182.567h-5.952V479.298Z" fill="#49AAF7"/><path d="M-19.933 467.822h126.897v11.477H-19.933v-11.477Zm0-.426h126.897v.425H-19.933v-.425Z" fill="#BDE0F4"/><path d="M72.104 467.822h34.86v11.477h-34.86v-11.477Zm0-.426h34.86v.425h-34.86v-.425Zm35.285-34.855h63.979v438.883h-63.979V432.541Zm63.979 0h90.549v438.883h-90.549V432.541Z" fill="#BDE0F4"/><path d="M107.601 432.541h63.767v438.883h-63.767V432.541Z" fill="#BDE0F4"/><path d="M171.368 432.541h90.549v438.883h-90.549V432.541Z" fill="#003659"/><path d="M166.48 438.279h23.806v8.076H166.48v-8.076Zm80.771 0h23.806v8.076h-23.806v-8.076Z" fill="#BDE0F4"/><path d="M149.687 438.279h17.005v8.076h-17.005v-8.076Zm-50.588 0h17.005v8.076H99.099v-8.076Zm67.381 14.028h23.806v8.076H166.48v-8.076Zm80.771 0h23.806v8.076h-23.806v-8.076Z" fill="#BDE0F4"/><path d="M149.687 452.307h17.005v8.076h-17.005v-8.076Zm-50.588 0h17.005v8.076H99.099v-8.076Zm67.381 14.026h23.806v8.077H166.48v-8.077Zm80.771.001h23.806v8.076h-23.806v-8.076Z" fill="#BDE0F4"/><path d="M149.687 466.333h17.005v8.077h-17.005v-8.077Zm-50.588 0h17.005v8.077H99.099v-8.077Zm67.381 14.028h23.806v8.076H166.48v-8.076Zm80.771 0h23.806v8.076h-23.806v-8.076Z" fill="#BDE0F4"/><path d="M149.687 480.361h17.005v8.076h-17.005v-8.076Zm-50.588 0h17.005v8.076H99.099v-8.076Zm67.381 14.027h23.806v8.077H166.48v-8.077Zm80.771 0h23.806v8.077h-23.806v-8.077Z" fill="#BDE0F4"/><path d="M149.687 494.388h17.005v8.077h-17.005v-8.077Zm-50.588 0h17.005v8.077H99.099v-8.077Zm67.381 13.815h23.806v8.076H166.48v-8.076Zm80.771 0h23.806v8.076h-23.806v-8.076Z" fill="#BDE0F4"/><path d="M149.687 508.203h17.005v8.076h-17.005v-8.076Zm-50.588 0h17.005v8.076H99.099v-8.076Zm67.381 14.027h23.806v8.077H166.48v-8.077Zm80.771 0h23.806v8.077h-23.806v-8.077Z" fill="#BDE0F4"/><path d="M149.687 522.23h17.005v8.077h-17.005v-8.077Zm-50.588 0h17.005v8.077H99.099v-8.077Zm67.381 14.028h23.806v8.076H166.48v-8.076Zm80.771-.001h23.806v8.077h-23.806v-8.077Z" fill="#BDE0F4"/><path d="M149.687 536.258h17.005v8.076h-17.005v-8.076Zm-50.588 0h17.005v8.076H99.099v-8.076Zm67.381 14.027h23.806v8.076H166.48v-8.076Zm80.771 0h23.806v8.076h-23.806v-8.076Z" fill="#BDE0F4"/><path d="M149.687 550.285h17.005v8.076h-17.005v-8.076Zm-50.588 0h17.005v8.076H99.099v-8.076Zm67.381 13.814h23.806v8.077H166.48v-8.077Zm80.771 0h23.806v8.077h-23.806v-8.077Z" fill="#BDE0F4"/><path d="M149.687 564.099h17.005v8.077h-17.005v-8.077Zm-50.588 0h17.005v8.077H99.099v-8.077Zm67.381 14.028h23.806v8.076H166.48v-8.076Zm80.771-.001h23.806v8.077h-23.806v-8.077Z" fill="#BDE0F4"/><path d="M149.687 578.127h17.005v8.076h-17.005v-8.076Zm-50.588 0h17.005v8.076H99.099v-8.076Zm67.381 14.027h23.806v8.077H166.48v-8.077Zm80.771 0h23.806v8.076h-23.806v-8.076Z" fill="#BDE0F4"/><path d="M149.687 592.154h17.005v8.077h-17.005v-8.077Zm-50.588 0h17.005v8.077H99.099v-8.077Zm67.381 14.027h23.806v8.076H166.48v-8.076Zm80.771 0h23.806v8.076h-23.806v-8.076Z" fill="#BDE0F4"/><path d="M149.687 606.181h17.005v8.076h-17.005v-8.076Zm-50.588 0h17.005v8.076H99.099v-8.076Zm67.381 14.028h23.806v8.076H166.48v-8.076Zm80.771 0h23.806v8.076h-23.806v-8.076Z" fill="#BDE0F4"/><path d="M149.687 620.209h17.005v8.076h-17.005v-8.076Zm-50.588 0h17.005v8.076H99.099v-8.076Zm67.381 13.814h23.806v8.077H166.48v-8.077Zm80.771 0h23.806v8.077h-23.806v-8.077Z" fill="#BDE0F4"/><path d="M149.687 634.023h17.005v8.077h-17.005v-8.077Zm-50.588 0h17.005v8.077H99.099v-8.077Zm67.381 14.028h23.806v8.076H166.48v-8.076Zm80.771 0h23.806v8.076h-23.806v-8.076Z" fill="#BDE0F4"/><path d="M149.687 648.051h17.005v8.076h-17.005v-8.076Zm-50.588 0h17.005v8.076H99.099v-8.076Z" fill="#BDE0F4"/><path d="M202.189 432.541h35.497V864.41h-35.497V432.541Zm-79.921 0h22.106v433.357h-22.106V432.541Z" fill="#003659"/><path d="M-36.573 439.421V394h-89.674v378.004H7.002V473.739l-43.575-34.318Zm280.708 49.44v-50.934h100.559v423.888H195.271v-334.47l48.864-38.484Z" fill="#49AAF7"/><path d="M294.32 488.861v-50.934h100.56v423.888H245.645v-334.47l48.675-38.484Z" fill="#BDE0F4"/><path d="M258.097 488.861v-50.934h11.886v50.934l-48.865 38.484v334.47h-11.697v-334.47l48.676-38.484Z" fill="#5566C5"/><path d="M386.201 462.074h-4.151v399.93h4.151v-399.93Zm-8.49 0h-4.15v399.93h4.15v-399.93Zm-8.301 0h-4.151v399.93h4.151v-399.93Zm-8.49 0h-4.151v399.93h4.151v-399.93Zm-8.301 0h-4.151v399.93h4.151v-399.93Zm-8.302 0h-4.151v399.93h4.151v-399.93Zm-8.49 0h-4.15v399.93h4.15v-399.93Zm-8.301 0h-4.151v399.93h4.151v-399.93Zm-8.49 0h-4.151v399.93h4.151v-399.93Zm-8.301 0h-4.151v399.93h4.151v-399.93Zm-16.791 46.784h-4.151v352.957h4.151V508.858Zm-8.302 11.696h-4.151v341.261h4.151V520.554Zm-8.49 12.639h-4.151v328.622h4.151V533.193Zm-8.301 12.073H264.7v316.549h4.151V545.266Z" fill="#49AAF7"/><path d="M260.36 545.266h-4.15v316.549h4.15V545.266Z" fill="#BDE0F4"/><path d="M1113.72 59.84H941.158v791.705h172.562V59.84Z" fill="#49D8F7"/><path d="M1248.39 59.84h-134.67v791.705h134.67V59.84Z" fill="#003659"/><path d="M1248.27 139.11H1132.1v712.435h116.17V139.11Z" fill="#C0BDF4"/><path d="M1203.63 59.84h-62.15v791.705h62.15V59.84Z" fill="#49D8F7"/><path d="M1355.56 59.84h-179.44v791.705h179.44V59.84Z" fill="#003659"/><path d="M1113.72 88.222H941.157v26.132h172.563V88.222Zm241.71 0h-213.95v26.132h213.95V88.222Zm-241.71 50.888H941.157v26.132h172.563V139.11Zm241.71 0h-213.95v26.132h213.95V139.11Zm-241.71 50.888H941.157v26.132h172.563v-26.132Zm241.71 0h-213.95v26.132h213.95v-26.132Zm-241.71 50.888H941.157v26.132h172.563v-26.132Zm241.71 0h-213.95v26.132h213.95v-26.132Zm-241.71 50.889H941.157v26.131h172.563v-26.131Zm241.71 0h-213.95v26.131h213.95v-26.131Zm-241.71 50.888H941.157v26.132h172.563v-26.132Zm241.71 0h-213.95v26.132h213.95v-26.132Zm-241.71 50.888H941.157v26.132h172.563v-26.132Zm241.71 0h-213.95v26.132h213.95v-26.132Zm-241.71 50.888H941.157v26.132h172.563v-26.132Zm241.71 0h-213.95v26.132h213.95v-26.132Zm-241.71 50.888H941.157v26.132h172.563v-26.132Zm241.71 0h-213.95v26.132h213.95v-26.132Zm-241.71 50.888H941.157v26.132h172.563v-26.132Zm241.71 0h-213.95v26.132h213.95v-26.132Zm-241.71 50.889H941.157v26.006h172.563v-26.006Zm241.71 0h-213.95v26.006h213.95v-26.006Zm-241.71 50.888H941.157v26.007h172.563v-26.007Zm241.71 0h-213.95v26.007h213.95v-26.007Z" opacity=".23" fill="#003659"/><path opacity=".06" d="M1355.43 159.49v269.945l-179.31 414.233V573.723l179.31-414.233Zm0 477.124V504.83l-150.18 346.715h57.15l93.03-214.931Z" fill="#fff"/><path d="M1355.56 59.84H941.158v791.705h414.402V59.84Z" fill="url(#r)" style="mix-blend-mode:multiply" opacity=".4"/><path d="M1176.12 59.84s-9.38 166.168-120.55 227.433c-86.027 47.263-114.162 191.3-114.162 191.3l-.25-418.733h234.962Z" fill="#FEEDC5" style="mix-blend-mode:overlay" opacity=".61"/><path d="M1354.54 821.787h-343.75c0-79.646 51.77-144.163 115.55-144.163 8.62 0 17.13 1.251 25.26 3.501 9.12-8.877 19.13-16.254 29.88-21.63 14.01-7.127 29.14-11.003 45.02-11.003 70.65-.125 128.04 77.52 128.04 173.295Z" fill="#3D213D"/><path d="M1354.54 821.787h-343.75c0-79.646 51.77-144.163 115.55-144.163 8.62 0 17.13 1.251 25.26 3.501 9.12-8.877 19.13-16.254 29.88-21.63 14.01-7.127 29.14-11.003 45.02-11.003 70.65-.125 128.04 77.52 128.04 173.295Z" fill="url(#s)"/><path d="M391.568 851.17H160.734V607.356l230.834-25.006v268.82Z" fill="#C0BDF4"/><path d="M593.016 717.635c0 21.256-4.626 41.261-13.004 59.39H160.734V657.619c15.88-13.878 34.762-24.256 55.645-30.007 11.129-7.127 23.509-12.379 36.763-15.504 21.008-34.509 59.022-57.515 102.413-57.515 26.384 0 50.643 8.502 70.526 23.006a145.83 145.83 0 0 1 24.759-2.126c12.254 0 24.133 1.501 35.513 4.501 61.397 15.754 106.663 71.394 106.663 137.661Z" fill="url(#t)"/><path d="M894.752 812.534c49.033 0 88.782-37.45 88.782-83.646 0-46.197-39.749-83.647-88.782-83.647-49.034 0-88.783 37.45-88.783 83.647 0 46.196 39.749 83.646 88.783 83.646Z" fill="#3A95A8"/><path d="M898.003 812.535c47.237 0 85.531-36.443 85.531-81.397 0-44.953-38.294-81.396-85.531-81.396-47.238 0-85.532 36.443-85.532 81.396 0 44.954 38.294 81.397 85.532 81.397Z" fill="#3A95A8"/><path d="M949.022 689.627c0 65.017-55.896 117.656-124.921 117.656-32.012 0-61.147-11.378-83.28-30.008-25.51-21.505-41.641-52.889-41.641-87.648 0-65.016 55.896-117.655 124.921-117.655 34.888 0 66.274 13.378 89.033 35.134 22.133 21.131 35.888 50.263 35.888 82.521Z" fill="#AEB11B"/><path d="M949.022 689.627c0 65.017-55.896 117.656-124.921 117.656-32.012 0-61.147-11.378-83.28-30.008-25.51-21.505-41.641-52.889-41.641-87.648 0-65.016 55.896-117.655 124.921-117.655 34.888 0 66.274 13.378 89.033 35.134 22.133 21.131 35.888 50.263 35.888 82.521Z" fill="url(#u)"/><path d="m913.508 644.241-2.751-.75c-1.75-.375-4.126.125-5.502 1.25l-13.254 11.503c-1.251 1.125-1.001 2.376.75 2.876l2.751.75c1.75.375 4.126-.125 5.502-1.25l13.255-11.503c1.375-1.126 1-2.376-.751-2.876Z" fill="#49AAF7"/><path d="m83.853 609.186 926.337-235.937s-.75-2.125-2.13-5.376c-3.25-8.127-9.624-23.631-14.125-31.508-6.253-10.878-9.254-14.004-9.254-14.004l-22.633-4.751-91.283 27.507-779.41 234.811-7.502 29.258Z" fill="#889EA3"/><path d="M957.296 327.238 90.605 582.929l-8.503 26.757 885.948-230.81-10.754-51.638Z" fill="#E21A1A"/><path d="m799.462 372.602 41.071 39.522-64.687 16.641-35.937-39.522 59.553-16.641Zm-146.304 44.462 43.459 41.169-68.448 17.334-38.027-41.169 63.016-17.334Zm-136.92 39.782 32.952 31.288-51.9 13.174-28.833-31.288 47.781-13.174Zm-101.794 29.251 32.952 31.288-51.9 13.174-28.834-31.288 47.782-13.174Zm-99.455 29.252 32.953 31.288-51.9 13.174-28.834-31.288 47.781-13.174Zm-71.182 23.401 23.401 22.231-36.857 9.36-20.475-22.231 33.931-9.36Zm-75.576 21.061 22.924 21.407-36.105 9.014-20.058-21.408 33.239-9.013Zm-49.034 14.625 17.55 21.646-26.242 7.021-14.71-21.646 23.402-7.021Z" fill="#A1C5CD"/><path d="m706.58 405.133 7.003-2.126v10.878l-7.003 2.126v-10.878ZM293.179 534.166c.375-2.625.75-5.251 1.25-7.877l34.388-10.127c-.5 2.625-.75 5.251-.5 8.002l-35.138 10.002Zm-107.665 30.758-87.907 25.132 1-6.252 87.783-25.757c-.25 2.251-.501 4.501-.876 6.877Zm50.644-14.503-19.257 5.501c.375-2.376.625-4.751.875-7.127l19.882-5.876-1.5 7.502Zm7.378-9.253 14.38-4.251c-.625 2.626-1.25 5.126-1.876 7.752l-14.13 4.001c.5-2.376 1.001-5.001 1.626-7.502Zm20.007-5.877 25.134-7.377c-.375 2.626-.75 5.127-1 7.752l-25.885 7.377c.5-2.5 1.126-5.126 1.751-7.752Zm102.662-30.133 15.506-4.501c-.5 2.876-.751 5.627-.876 8.503l-15.38 4.376c.375-2.876.5-5.627.75-8.378Zm25.134-7.376 7.878-2.376c-.25 2.876-.625 5.752-.875 8.627l-8.253 2.376c.125-3.001.5-6.002 1.25-8.627Zm11.63-3.501 7.628-2.251c0 1.501 0 3.001.125 4.626v3.876l-8.503 2.376c.125-2.876.5-5.751.75-8.627Zm21.383-6.252 6.752-2c-.375 2.876-.5 5.876-.5 8.752l-7.002 2.001c.375-2.876.625-5.752.75-8.753Zm18.632-5.501 23.633-6.877c-.375 3.001-.375 6.001-.375 9.002l-24.259 6.877c.25-2.876.625-5.877 1.001-9.002Zm59.271-17.38 13.755-4.001c-.25 3.251-.625 6.502-1.25 9.628l-13.255 3.751c0-3.126.25-6.252.75-9.378Zm17.381-5.126 11.63-3.376c0 3.251-.125 6.377-.375 9.628l-12.255 3.501c.5-3.251.875-6.502 1-9.753Zm15.256-4.501 59.897-17.63v10.003l-60.272 17.254a123.9 123.9 0 0 0 .375-9.627Zm77.904-22.881 27.009-7.877v10.252l-27.009 7.752V432.64Zm38.138-11.253 37.639-11.003v10.753l-37.639 10.753v-10.503Zm66.274-19.38 11.129-3.251v11.003l-11.129 3.126v-10.878Zm23.009 4.376v-11.128l40.515-11.878v11.503l-16.756 4.751v-3.626c0-2.375-3.627-2.375-3.627 0v4.627l-20.132 5.751Z" fill="#E6E6E6"/><path d="m870.765 345.117 100.661 21.256 36.634 1.5c-3.25-8.127-9.624-23.631-14.125-31.508-6.253-10.878-9.254-14.004-9.254-14.004l-22.633-4.751-91.283 27.507Z" fill="#FBD5A2"/><path d="M962.048 317.61s9.003 31.633 11.254 34.634c1.125 1.5 9.003 3.251 16.381 4.501a599.36 599.36 0 0 0 13.877 2.251s-6.374-22.006-18.879-36.635l-10.379-2.125-12.254-2.626Z" fill="#3D213D"/><path d="m1000.83 350.371 2.93 8.776-14.045-2.34-5.266-7.606 16.381 1.17Z" fill="#89CFE1"/><path d="m592.413 429.014-2.501 57.265-13.005 3.126 5.127-57.265 10.379-3.126ZM352.45 501.283l-4.376 46.012-7.753-2.251 4.377-41.386 7.752-2.375ZM196.268 548.42l-5.752 35.009-4.877 1.375 6.628-35.259 4.001-1.125Z" fill="#3D213D"/><path d="m1007 365.446-22.883-3.008-9.982-6.642-4.709-28.826-91.73 35.97.848 20.428-7.441 1.002-1.506-25.566-4.709 1.88 2.637 37.974-173.948 62.037-.47 16.042 314.743-108.534-.85-2.757Z" fill="#ED6F01"/><path d="m872.516 356.222-39.003 11.694 4.286 39.788 131.44-34.226-96.723-17.256Z" fill="#E21A1A"/><path d="m909.518 336.331 49.19 46.932-49.19 10.4-43.041-46.932 43.041-10.4Z" fill="#A1C5CD"/><path d="m954.545 331.614 5.252 24.381-61.147-7.752 55.895-16.629Z" fill="#FBD5A2"/><path d="M962.048 317.61s9.003 31.633 11.254 34.634c1.125 1.5 9.003 3.251 16.381 4.501l-27.635-39.135Z" fill="#E21A1A"/><path d="m987.375 325.8-21.646-2.34-2.926-5.85 22.231 4.68 2.341 3.51Z" fill="#607785"/><path d="m543.895 448.394-47.267 14.254v28.257l2.126-1.25v-25.882l45.392-14.254-.251-1.125Zm236.837-69.018v1.875l-44.266 12.629.625 22.756h-1.251l-.375-24.007 45.267-13.253Zm112.453-29.005v1.876l-44.266 12.628.625 22.756h-1.25l-.375-24.006 45.266-13.254Zm-224.37 62.014v1.125l-20.132 6.127v17.129l-.875 1.125v-19.38l21.007-6.126ZM290.678 523.914l-2.001 19.38-2.251.5 2.126-19.255 2.126-.625Zm-39.89 11.753-1.625 19.755-2.001.625 1.75-19.88 1.876-.5Zm-35.263 10.377-2.376 19.255-1.75.75 2.751-19.63 1.375-.375Zm-61.522 18.255-3.626 20.505-1.626.75 3.251-20.755 2.001-.5Z" fill="#E6E6E6"/><path d="M856.181 376.888V365.76l40.515-11.878v11.503l-16.757 4.751v-3.626c0-2.376-3.626-2.376-3.626 0v4.626l-20.132 5.752Zm-35.066-1.419 7.003-2.126v10.878l-7.003 2.126v-10.878Zm10.629-3.126 11.129-3.251v11.003l-11.129 3.126v-10.878Z" fill="#E6E6E6"/><path d="m961.635 318 17.131 58.265L592 429.404 961.635 318Z" fill="#FEEDC5" style="mix-blend-mode:screen" opacity=".61"/><path d="M2574.55 40.308-476.944 761.146v14.379L3165.42 125.722V49.668l-590.87-9.36Z" fill="#003659"/><path opacity=".24" d="m546.68 589.477-202.074-20.255 270.098-64.392 170.438 41.386-238.462 43.261Z" fill="#FEEDC5"/><path d="M2574.55 46.158-476.944 761.146v-6.877L2428.29 5.206l146.26 40.952Z" fill="#5566C5"/><path d="M1316.16 304.154-476.944 756.895v1.125L1320.25 313.515l-4.09-9.361Z" fill="#3D213D"/><path d="M888.865 531.931v26.488l-16.224 8.491-24.97-20.658-16.097-11.279v-26.489l57.291 23.447Z" fill="#BDD0F4"/><path d="M847.671 519.637h61.094V856h-61.094V519.637Z" fill="#BDD0F4"/><path d="M941.516 855.96h-32.702V524.161h32.702V855.96Z" fill="#3A95A8"/><path d="M955.664 520.398v26.488l-16.351 8.491-24.717-10.139-16.224-21.798v-26.362l57.292 23.32Z" fill="#5566C5"/><path d="m831.574 508.484 66.798-11.406v26.362l-66.798 11.533v-26.489Z" fill="#BDD0F4"/><path d="m927.018 508.738 14.449 49.428v-3.929l14.197-7.351v-26.488l-28.646-11.66Z" fill="#003659"/><path d="m908.765 537.381-61.094 8.871-16.097-11.279 66.798-11.534 10.393 13.942Z" fill="#3D91D4"/><path d="M369.365 621.11v18.755l-11.504 6.001-17.757-14.629-11.379-8.002v-18.754l40.64 16.629Z" fill="#BDD0F4"/><path d="M340.104 612.358h43.391V851.17h-43.391V612.358Z" fill="#BDD0F4"/><path d="M406.757 851.129h-23.259V615.568h23.259v235.561Z" fill="#003659"/><path d="M416.757 612.983v18.755l-11.629 6.001-17.507-7.127-11.504-15.629v-18.629l40.64 16.629Z" fill="#003659"/><path d="m328.725 604.481 47.392-8.127v18.629l-47.392 8.253v-18.755Z" fill="#BDD0F4"/><path d="m396.375 604.606 10.378 35.134v-2.876l10.004-5.126v-18.755l-20.382-8.377Z" fill="#003659"/><path d="m383.495 624.986-43.391 6.252-11.379-8.002 47.392-8.253 7.378 10.003Z" fill="#3D91D4"/><path opacity=".61" d="m822.905 417.557 2.251 9.253 540.734-134.356-18.14-11.115-524.845 136.218Zm25.384 12.128 4.502 20.256L1283.4 349.54l44.46-37.78-479.571 117.925Z" fill="#FEEDC5"/><path d="M2729.71-60.317h-3773.28V1037.58h3773.28V-60.317Z" fill="url(#v)" style="mix-blend-mode:overlay" opacity=".58"/><path d="M1213.29 574.992c8.14 16.284 21.79 29.454 34.25 42.625a907.084 907.084 0 0 0 30.17 30.89c-8.38-19.875-14.85-40.469-19.88-61.781-1.43-5.986 7.91-8.62 9.34-2.634 6.23 27.059 15.09 52.921 27.07 77.825V593.91c0-9.339 14.36-9.339 14.36 0v45.258c2.16-.958 4.55-1.676 6.71-2.634l28.74-11.494c17-6.944 33.29-15.086 47.9-26.341 4.79-3.831 9.58 4.55 4.79 8.381-15.33 11.734-32.57 19.876-50.06 27.299-11.01 4.55-22.03 8.86-33.05 13.41-1.43.718-3.11 1.676-4.79 2.395v199.232c0 9.339-14.36 9.339-14.36 0V682.99c-2.88-5.268-5.51-10.776-8.15-16.284-1.43.24-32.09-28.256-45.26-42.384-12.93-13.65-27.3-27.539-35.68-44.54-2.88-5.508 5.26-10.537 7.9-4.79Z" fill="#3A95A8"/><path d="M1136.65 508.183c0 40.708 8.86 79.022 24.91 113.744h803s97.7-7.124 97.7-101.313c0-112.04-97.7-127.373-97.7-127.373-30.42-26.58-66.58-46.455-106.57-57.471-21.32-13.649-45.03-23.706-70.41-29.693-40.24-66.091-113.04-110.152-196.14-110.152-50.53 0-96.99 16.283-135.07 44.061-15.33-2.634-31.14-4.071-47.42-4.071-23.47 0-46.22 2.873-68.01 8.62-117.59 30.172-204.29 136.733-204.29 263.648Z" fill="url(#w)"/><path d="M37 633.034c0 81.805 70.328 148.035 157.176 148.035 40.277 0 76.935-14.316 104.783-37.756 32.096-27.058 52.392-66.545 52.392-110.279C351.351 551.23 281.023 485 194.176 485c-43.896 0-83.387 16.833-112.021 44.206C54.307 555.792 37 592.447 37 633.034Z" fill="#AEB11B"/><path d="M37 633.034c0 81.805 70.328 148.035 157.176 148.035 40.277 0 76.935-14.316 104.783-37.756 32.096-27.058 52.392-66.545 52.392-110.279C351.351 551.23 281.023 485 194.176 485c-43.896 0-83.387 16.833-112.021 44.206C54.307 555.792 37 592.447 37 633.034Z" fill="url(#x)"/><path d="M-141.385 747.557C-141.385 674.726-91.323 576-37.792 576c23.47 0 44.974 11.329 61.739 30.173 3.584-.578 7.168-.81 10.868-.81 53.53 0 97.002 98.726 97.002 171.557 0 2.543-.115 5.202-.115 7.746h-268.578c-3.006-11.792-4.509-24.277-4.509-37.109Z" fill="url(#y)"/></g></g></g></g></g><defs><linearGradient id="e" x1="966.624" y1="-55.431" x2="966.624" y2="965.755" gradientUnits="userSpaceOnUse"><stop stop-color="#51C0E1"/><stop offset=".262" stop-color="#A9E9F2"/><stop offset=".563" stop-color="#CCFCE0"/><stop offset=".881" stop-color="#E0F096"/><stop offset="1" stop-color="#ECE963"/></linearGradient><linearGradient id="f" x1="1196.71" y1="101.663" x2="1196.71" y2="897.903" gradientUnits="userSpaceOnUse"><stop stop-color="#fff"/><stop offset="1"/></linearGradient><linearGradient id="g" x1="-138.412" y1="275.822" x2="-138.412" y2="878.758" gradientUnits="userSpaceOnUse"><stop stop-color="#fff"/><stop offset="1"/></linearGradient><linearGradient id="h" x1="1392.1" y1="766.032" x2="1169.34" y2="629.87" gradientUnits="userSpaceOnUse"><stop stop-color="#4DB0A5"/><stop offset="1" stop-color="#EFCE3D"/></linearGradient><linearGradient id="i" x1="870.512" y1="755.658" x2="759.467" y2="719.741" gradientUnits="userSpaceOnUse"><stop stop-color="#4DB0A5"/><stop offset="1" stop-color="#EFCE3D"/></linearGradient><linearGradient id="j" x1="631.05" y1="716.166" x2="347.829" y2="546.555" gradientUnits="userSpaceOnUse"><stop stop-color="#4DB0A5"/><stop offset="1" stop-color="#EFCE3D"/></linearGradient><linearGradient id="k" x1="1035.82" y1="743.364" x2="834.928" y2="677.637" gradientUnits="userSpaceOnUse"><stop stop-color="#4DB0A5"/><stop offset="1" stop-color="#EFCE3D"/></linearGradient><linearGradient id="m" x1="31.731" y1="1215.98" x2="392.556" y2="916.477" gradientUnits="userSpaceOnUse"><stop stop-color="#4DB0A5"/><stop offset="1" stop-color="#EFCE3D"/></linearGradient><linearGradient id="p" x1="711.736" y1="-60.325" x2="711.736" y2="960.861" gradientUnits="userSpaceOnUse"><stop stop-color="#51C0E1"/><stop offset=".262" stop-color="#A9E9F2"/><stop offset=".563" stop-color="#CCFCE0"/><stop offset=".881" stop-color="#E0F096"/><stop offset="1" stop-color="#ECE963"/></linearGradient><linearGradient id="q" x1="-197.727" y1="146.416" x2="-197.727" y2="940.73" gradientUnits="userSpaceOnUse"><stop stop-color="#fff"/><stop offset="1"/></linearGradient><linearGradient id="r" x1="1148.37" y1="103.486" x2="1148.37" y2="933.775" gradientUnits="userSpaceOnUse"><stop stop-color="#fff"/><stop offset="1"/></linearGradient><linearGradient id="s" x1="1230.05" y1="796.265" x2="997.764" y2="654.281" gradientUnits="userSpaceOnUse"><stop stop-color="#4DB0A5"/><stop offset="1" stop-color="#EFCE3D"/></linearGradient><linearGradient id="t" x1="436.459" y1="744.267" x2="141.127" y2="567.403" gradientUnits="userSpaceOnUse"><stop stop-color="#4DB0A5"/><stop offset="1" stop-color="#EFCE3D"/></linearGradient><linearGradient id="u" x1="858.538" y1="772.628" x2="649.056" y2="704.09" gradientUnits="userSpaceOnUse"><stop stop-color="#4DB0A5"/><stop offset="1" stop-color="#EFCE3D"/></linearGradient><linearGradient id="w" x1="1436.49" y1="559.188" x2="2002.11" y2="220.458" gradientUnits="userSpaceOnUse"><stop stop-color="#4DB0A5"/><stop offset="1" stop-color="#EFCE3D"/></linearGradient><linearGradient id="x" x1="150.847" y1="737.466" x2="414.417" y2="651.232" gradientUnits="userSpaceOnUse"><stop stop-color="#4DB0A5"/><stop offset="1" stop-color="#EFCE3D"/></linearGradient><linearGradient id="y" x1="-51.203" y1="1017.1" x2="199.809" y2="808.743" gradientUnits="userSpaceOnUse"><stop stop-color="#4DB0A5"/><stop offset="1" stop-color="#EFCE3D"/></linearGradient><clipPath id="b"><rect width="1223" height="655" rx="40" fill="#fff"/></clipPath><clipPath id="c"><path fill="#fff" transform="translate(-781 -9)" d="M0 0h3500v864H0z"/></clipPath><clipPath id="d"><path fill="#fff" transform="translate(-779 -55.422)" d="M0 0h3927.24v1095.14H0z"/></clipPath><clipPath id="n"><path fill="#fff" transform="translate(-1033.7 -7.64)" d="M0 0h4094.8v1089.29H0z"/></clipPath><clipPath id="o"><path fill="#fff" transform="translate(-1033.89 -60.317)" d="M0 0h4095.18v1141.97H0z"/></clipPath><radialGradient id="l" cx="0" cy="0" r="1" gradientUnits="userSpaceOnUse" gradientTransform="matrix(2231.26 0 0 1030.99 97.115 267.424)"><stop stop-color="#FEF4DD"/><stop offset="1" stop-color="#5E272A"/></radialGradient><radialGradient id="v" cx="0" cy="0" r="1" gradientUnits="userSpaceOnUse" gradientTransform="matrix(2399.3 0 0 1108.64 -91.789 286.844)"><stop stop-color="#FEF4DD"/><stop offset="1" stop-color="#5E272A"/></radialGradient><filter id="a" x="0" y="0" width="1231" height="659" filterUnits="userSpaceOnUse" color-interpolation-filters="sRGB"><feFlood flood-opacity="0" result="BackgroundImageFix"/><feBlend in="SourceGraphic" in2="BackgroundImageFix" result="shape"/><feColorMatrix in="SourceAlpha" values="0 0 0 0 0 0 0 0 0 0 0 0 0 0 0 0 0 0 127 0" result="hardAlpha"/><feOffset dx="8" dy="4"/><feGaussianBlur stdDeviation="4.5"/><feComposite in2="hardAlpha" operator="arithmetic" k2="-1" k3="1"/><feColorMatrix values="0 0 0 0 1 0 0 0 0 1 0 0 0 0 1 0 0 0 0.45 0"/><feBlend in2="shape" result="effect1_innerShadow_9_71838"/></filter></defs></svg>