<svg width="66" height="66" fill="none" xmlns="http://www.w3.org/2000/svg"><path d="M44.55 20.79c5.095 0 9.24-4.145 9.24-9.24 0-5.095-4.145-9.24-9.24-9.24h-23.1c-5.095 0-9.24 4.145-9.24 9.24 0 5.095 4.145 9.24 9.24 9.24h12.593v4.072a3.244 3.244 0 0 0-4.283 1.808 3.176 3.176 0 0 0-1.499-.382c-1.696 0-3.075 1.313-3.22 2.97a3.241 3.241 0 0 0-1.294-.27 3.253 3.253 0 0 0-3.247 3.246v11.34c0 2.527.765 4.969 2.204 7.048l2.006 2.884v8.785c0 .548.443.99.99.99h13.827c.548 0 .99-.442.99-.99v-8.098l2.555-3.465a12.303 12.303 0 0 0 2.409-7.326V31.429a3.479 3.479 0 0 0-3.479-3.478c-.534 0-1.03.132-1.485.343V20.79h4.033Zm-6 10.5c0 .047-.013.086-.013.133v6.817a.99.99 0 1 0 1.98 0v-6.817c0-.825.674-1.499 1.499-1.499.825 0 1.498.674 1.498 1.499v11.972c0 2.23-.7 4.356-2.02 6.151l-2.745 3.73a.992.992 0 0 0-.192.587v7.431H26.71V53.19a.98.98 0 0 0-.178-.567l-2.185-3.142a10.294 10.294 0 0 1-1.854-5.913v-11.34a1.268 1.268 0 0 1 2.534 0v3.09a.99.99 0 1 0 1.98 0v-5.789a1.268 1.268 0 0 1 2.535 0v5.789c0 .382.217.712.54.877l.502.106a.986.986 0 0 0 .938-.983v-7.472a1.268 1.268 0 0 1 2.534 0v3.135c0 .093.02.185.046.271l-.046.013v4.046c0 .548.442.99.99.99s.99-.442.99-.99V14.705a1.268 1.268 0 0 1 2.534 0V31.29h-.02Zm-5.444-19.74a4.387 4.387 0 0 1 4.389-4.389 4.391 4.391 0 0 1 4.389 4.389c0 1.247-.522 2.37-1.36 3.175v-.014a3.253 3.253 0 0 0-3.247-3.247c-1.65 0-3.003 1.248-3.208 2.845a4.376 4.376 0 0 1-.977-2.759h.014Z" fill="#E21A1A"/></svg>