<svg width="288" height="366" fill="none" xmlns="http://www.w3.org/2000/svg"><g clip-path="url(#a)"><path d="M236.126 67.681h-81.115V439.83h81.115V67.681Z" fill="#49D8F7"/><path d="M299.431 67.681h-63.305V439.83h63.305V67.681Z" fill="#003659"/><path d="M299.372 104.943h-54.605v334.886h54.605V104.943Z" fill="#C0BDF4"/><path d="M278.388 67.681h-29.213V439.83h29.213V67.681Z" fill="#49D8F7"/><path d="M349.804 67.681h-84.347V439.83h84.347V67.681Z" fill="#003659"/><path d="M236.126 81.023h-81.115v12.283h81.115V81.023Zm113.62 0H249.175v12.283h100.571V81.023Zm-113.62 23.92h-81.115v12.284h81.115v-12.284Zm113.62 0H249.175v12.284h100.571v-12.284Zm-113.62 23.921h-81.115v12.283h81.115v-12.283Zm113.62 0H249.175v12.283h100.571v-12.283Zm-113.62 23.92h-81.115v12.284h81.115v-12.284Zm113.62 0H249.175v12.284h100.571v-12.284Zm-113.62 23.92h-81.115v12.284h81.115v-12.284Zm113.62 0H249.175v12.284h100.571v-12.284Zm-113.62 23.921h-81.115v12.283h81.115v-12.283Zm113.62 0H249.175v12.283h100.571v-12.283Zm-113.62 23.92h-81.115v12.283h81.115v-12.283Zm113.62 0H249.175v12.283h100.571v-12.283Zm-113.62 23.921h-81.115v12.283h81.115v-12.283Zm113.62 0H249.175v12.283h100.571v-12.283Zm-113.62 23.92h-81.115v12.283h81.115v-12.283Zm113.62 0H249.175v12.283h100.571v-12.283Zm-113.62 23.92h-81.115v12.284h81.115v-12.284Zm113.62 0H249.175v12.284h100.571v-12.284Zm-113.62 23.921h-81.115v12.224h81.115v-12.224Zm113.62 0H249.175v12.224h100.571v-12.224Zm-113.62 23.92h-81.115v12.225h81.115v-12.225Zm113.62 0H249.175v12.225h100.571v-12.225Z" opacity=".23" fill="#003659"/><path opacity=".06" d="M349.745 114.523v126.89l-84.288 194.713v-126.89l84.288-194.713Zm0 224.276v-61.947l-70.593 162.976h26.862l43.731-101.029Z" fill="#fff"/><path d="M349.804 67.681H155.011V439.83h194.793V67.681Z" fill="url(#b)" style="mix-blend-mode:multiply" opacity=".4"/><path d="m-134.121 351.787.353 3.527c.412 4.643.764 9.286 1.117 13.929.059.705.059 1.41.117 2.116h3.057v-2.057h17.927v10.931h6.349v-.117h-.353v-1.293h.353v-.471h-.353v-1.293h.353v-.47h-.353v-1.293h.353v-.47h-.353v-1.293h.353v-.529h2.468v-49.369h1.293v-13.106h19.221v13.106h1.293v69.763h7.7v4.643h3.468v-13.694h1.352v-5.818h14.577v-.235h-1l1.118-1.587v-.764h.529l.588-.823h-1.117v-1.175h1.175v-.823h-1.175v-1.176h1.175v-.823h-1.175v-1.175h1.175v-1.998h.94v-2.116h2.528v-5.819h1.881v-7.405l5.702-1.352 1.293-.294V338.74h.764v12.048l2.292-.529v9.756h1.587v5.819h1.352v-14.399h1v-28.916h-.53v-1.411h.823v-.588c0-.411.294-.764.706-.764h.411v-2.997c0-.764.588-1.411 1.293-1.411h.06v-2.644c0-.764.47-1.411 1.175-1.587v-2.351h.881c.235-1.763 1.529-3.115 3.233-3.409v-2.41c0-.176.059-.293.235-.293v-6.172h.588v6.172c.118.058.235.176.235.293v2.41c1.646.235 2.94 1.646 3.174 3.409h.882v2.351c.646.176 1.175.823 1.175 1.587v2.644h.06c.705 0 1.292.647 1.292 1.411v2.997h.47c.412 0 .706.353.706.764v.588h.646v1.411h-.646v28.916h.94v17.808h13.52v9.168h8.346v16.045h2.763v-.764h11.932v-3.703h1.704v-4.408H32.4v-4.172h10.815v-32.208h1.293v-.529h-1.293v-1.939h1.293v-.529h-1.352v-1.94h1.352v-.529h-1.352v-1.939h1.352v-.529h-1.352v-1.939h1.352v-.588h-1.352v-1.94h1.352v-.529h-1.352v-1.939h1.352v-.529h-1.352v-41.905h24.57v39.907h-.06v1.939h-1.704v.529h1.705v1.94h-1.705v.529h1.705v1.939h-1.705v.588h1.763v1.939h-1.763v.529h1.763v1.94h-1.763v.529h1.763v1.939h-1.763v.529h1.763v1.94h-1.763v.529h1.881v24.39h8.23v-6.641h10.285v-10.579l2.116-6.113.06-.235 5.583-16.103 7.759 22.451v1.528h.47v.705h-.529v.941h.47v.705h-.47v.94h.47v.705h-.47v.941h.47v.705h-.47v.94h.47v.706h-.47v.94h.47v.705h-.47v.941h.47v.705h-.47v.94h.47v.706h-.47v.94h.47v.705h-.47v.941h.47v.705h-.47v.94h.47v.705h-.47v.941h.47v.705h-.47v.94h.47v.706h-.47v.94h.47v.705h-.47v.941h.47v.705h-.47v.94h.47v.706h-.47v.94h.47v.705h-.47v.941h.47v.235h8.935v-8.228h13.636v-.294l.059-1.176v-2.174l.059-.999.059-1.176v-.999l.059-1.176v-.999l.058-1.175.059-.999v-2.175l.059-1.175v-.999l.059-1.176v-.999l.058-1.175v-1l.059-1.175v-.999l.059-1.176v-.999l.059-1.175.117-3.644 5.702-2.057v3.174h1.763l-.176-8.64 9.875-2.645.999 13.812.117 1.175.059.999.118 1.176.059.999.058 1.175.059 1 .059 1.175.059.999.058 1.176.059.999.118 1.175.059.999.058 1.176.059.999.059 1.175.059.999.117 1.176.059.999.118 1.176.058.999.059 1.175.059.999.117 1.176.059.999.059 1.175.059.999.117 1.176.059.999.118 1.175.058 1 .059 1.175.059.999.059 1.176.059.999.058 1.175.059.999.059 1.117h9.934v5.113h6.994v-11.284h7.759v-20.335h4.408v-28.681h31.271v104.027h-361.313v-89.687l20.337-.059Z" fill="#BDE0F4"/><path d="M93.235 383.466H67.843v-52.249h25.392v52.249Z" fill="#BDE0F4"/><path d="M87.651 331.217H73.487v52.249H87.65v-52.249Z" fill="#49AAF7"/><path d="M87.651 331.217H73.487v2.234H87.65v-2.234Zm0 3.997H73.487v2.233H87.65v-2.233Zm0 4.055H73.487v2.233H87.65v-2.233Zm0 3.996H73.487v2.234H87.65v-2.234Zm0 4.056H73.487v2.233H87.65v-2.233Zm0 3.996H73.487v2.234H87.65v-2.234Zm0 4.056H73.487v2.233H87.65v-2.233Zm0 3.996H73.487v2.233H87.65v-2.233Zm0 3.997H73.487v2.233H87.65v-2.233Zm-16.987-32.149h-2.821v2.234h2.821v-2.234Zm0 3.997h-2.821v2.233h2.821v-2.233Zm0 4.055h-2.821v2.233h2.821v-2.233Zm0 3.996h-2.821v2.234h2.821v-2.234Zm0 4.056h-2.821v2.233h2.821v-2.233Zm0 3.996h-2.821v2.234h2.821v-2.234Zm0 4.056h-2.821v2.233h2.821v-2.233Zm0 3.996h-2.821v2.233h2.821v-2.233Zm0 3.997h-2.821v2.233h2.821v-2.233Zm22.571-32.149h-2.821v2.234h2.82v-2.234Zm0 3.997h-2.821v2.233h2.82v-2.233Zm0 4.055h-2.821v2.233h2.82v-2.233Zm0 3.996h-2.821v2.234h2.82v-2.234Zm0 4.056h-2.821v2.233h2.82v-2.233Zm0 3.996h-2.821v2.234h2.82v-2.234Zm0 4.056h-2.821v2.233h2.82v-2.233Zm0 3.996h-2.821v2.233h2.82v-2.233Zm0 3.997h-2.821v2.233h2.82v-2.233Z" fill="#BDE0F4"/><path d="M67.843 331.217h-9.64v52.249h9.64v-52.249Z" fill="#49AAF7"/><path d="M64.786 331.217H60.73v50.486h4.056v-50.486Z" fill="#49AAF7"/><path d="M64.786 331.217H60.73v2.234h4.056v-2.234Zm0 3.997H60.73v2.233h4.056v-2.233Zm0 4.055H60.73v2.233h4.056v-2.233Zm0 3.996H60.73v2.234h4.056v-2.234Zm0 4.056H60.73v2.233h4.056v-2.233Zm0 3.996H60.73v2.234h4.056v-2.234Zm0 4.056H60.73v2.233h4.056v-2.233Zm0 3.996H60.73v2.233h4.056v-2.233Zm0 3.997H60.73v2.233h4.056v-2.233Zm16.576-32.149h-1.646v50.486h1.646v-50.486Z" fill="#49AAF7"/><path d="M93.294 328.043h-35.09v3.174h35.09v-3.174Z" fill="#BDE0F4"/><path d="M93.294 327.926h-35.09v.118h35.09v-.118Z" fill="#BDE0F4"/><path d="M67.843 328.043h-9.64v3.174h9.64v-3.174Z" fill="#BDE0F4"/><path d="M67.843 327.926h-9.64v.118h9.64v-.118Zm-9.757-9.639H40.392v121.365h17.693V318.287Z" fill="#BDE0F4"/><path d="M40.393 318.287h-25.04v121.365h25.04V318.287Zm17.634 0H40.393v121.365h17.634V318.287Z" fill="#BDE0F4"/><path d="M40.393 318.287h-25.04v121.365h25.04V318.287Z" fill="#003659"/><path d="M41.745 319.874h-6.583v2.234h6.583v-2.234Zm-22.336 0h-6.583v2.233h6.583v-2.233Z" fill="#BDE0F4"/><path d="M46.388 319.874h-4.703v2.234h4.703v-2.234Zm13.99 0h-4.702v2.234h4.702v-2.234Zm-18.633 3.879h-6.583v2.234h6.583v-2.234Zm-22.336 0h-6.583v2.233h6.583v-2.233Z" fill="#BDE0F4"/><path d="M46.388 323.753h-4.703v2.234h4.703v-2.234Zm13.99 0h-4.702v2.234h4.702v-2.234Zm-18.633 3.879h-6.583v2.234h6.583v-2.234Zm-22.336 0h-6.583v2.234h6.583v-2.234Z" fill="#BDE0F4"/><path d="M46.388 327.632h-4.703v2.234h4.703v-2.234Zm13.99 0h-4.702v2.234h4.702v-2.234Zm-18.633 3.879h-6.583v2.233h6.583v-2.233Zm-22.336 0h-6.583v2.233h6.583v-2.233Z" fill="#BDE0F4"/><path d="M46.388 331.511h-4.703v2.233h4.703v-2.233Zm13.99 0h-4.702v2.233h4.702v-2.233Zm-18.633 3.879h-6.583v2.233h6.583v-2.233Zm-22.336 0h-6.583v2.233h6.583v-2.233Z" fill="#BDE0F4"/><path d="M46.388 335.39h-4.703v2.233h4.703v-2.233Zm13.99 0h-4.702v2.233h4.702v-2.233Zm-18.633 3.82h-6.583v2.234h6.583v-2.234Zm-22.336 0h-6.583v2.234h6.583v-2.234Z" fill="#BDE0F4"/><path d="M46.388 339.21h-4.703v2.234h4.703v-2.234Zm13.99 0h-4.702v2.234h4.702v-2.234Zm-18.633 3.879h-6.583v2.233h6.583v-2.233Zm-22.336 0h-6.583v2.233h6.583v-2.233Z" fill="#BDE0F4"/><path d="M46.388 343.089h-4.703v2.233h4.703v-2.233Zm13.99 0h-4.702v2.233h4.702v-2.233Zm-18.633 3.879h-6.583v2.233h6.583v-2.233Zm-22.336 0h-6.583v2.233h6.583v-2.233Z" fill="#BDE0F4"/><path d="M46.388 346.968h-4.703v2.233h4.703v-2.233Zm13.99 0h-4.702v2.233h4.702v-2.233Zm-18.633 3.879h-6.583v2.234h6.583v-2.234Zm-22.336 0h-6.583v2.234h6.583v-2.234Z" fill="#BDE0F4"/><path d="M46.388 350.847h-4.703v2.234h4.703v-2.234Zm13.99 0h-4.702v2.234h4.702v-2.234Zm-18.633 3.82h-6.583v2.234h6.583v-2.234Zm-22.336 0h-6.583v2.234h6.583v-2.234Z" fill="#BDE0F4"/><path d="M46.388 354.667h-4.703v2.234h4.703v-2.234Zm13.99 0h-4.702v2.234h4.702v-2.234Zm-18.633 3.879h-6.583v2.234h6.583v-2.234Zm-22.336 0h-6.583v2.234h6.583v-2.234Z" fill="#BDE0F4"/><path d="M46.388 358.546h-4.703v2.234h4.703v-2.234Zm13.99 0h-4.702v2.234h4.702v-2.234Zm-18.633 3.88h-6.583v2.233h6.583v-2.233Zm-22.336-.001h-6.583v2.234h6.583v-2.234Z" fill="#BDE0F4"/><path d="M46.388 362.426h-4.703v2.233h4.703v-2.233Zm13.99 0h-4.702v2.233h4.702v-2.233Z" fill="#BDE0F4"/><path d="M31.87 318.287h-9.816v119.426h9.816V318.287Zm22.1 0h-6.112v119.837h6.113V318.287Z" fill="#003659"/><path d="M387.363 346.733H251.702v92.919h135.661v-92.919Z" fill="#fff"/><path d="M393.477 359.192H245.531v69.117h147.946v-69.117Z" fill="#49D8F7"/><path d="M246.824 359.192h-1.293v69.117h1.293v-69.117Zm9.169 0H254.7v69.117h1.293v-69.117Zm9.229 0h-1.293v69.117h1.293v-69.117Zm9.227 0h-1.293v69.117h1.293v-69.117Zm9.17 0h-1.293v69.117h1.293v-69.117Z" fill="#fff"/><path d="M265.456 67.681s-4.408 78.109-56.662 106.907c-40.44 22.216-53.665 89.922-53.665 89.922l-.118-196.829h110.445Z" fill="#FEEDC5" style="mix-blend-mode:overlay" opacity=".61"/><path d="M406.701 425.841H245.119c0-37.438 24.334-67.765 54.311-67.765 4.056 0 8.053.588 11.873 1.646 4.291-4.173 8.994-7.64 14.049-10.168 6.583-3.35 13.695-5.172 21.16-5.172 33.21-.058 60.189 36.439 60.189 81.459Z" fill="#3D213D"/><path d="M406.701 425.841H245.119c0-37.438 24.334-67.765 54.311-67.765 4.056 0 8.053.588 11.873 1.646 4.291-4.173 8.994-7.64 14.049-10.168 6.583-3.35 13.695-5.172 21.16-5.172 33.21-.058 60.189 36.439 60.189 81.459Z" fill="url(#c)"/><path opacity=".43" d="m325.293 349.554-36.736 76.345h-43.496c0-37.438 24.334-67.764 54.311-67.764 4.056 0 8.053.587 11.873 1.645 4.35-4.29 9.052-7.699 14.048-10.226Z" fill="#FEEDC5"/><path d="M82.361 417.848c18.569 0 33.622-14.183 33.622-31.678 0-17.496-15.053-31.679-33.622-31.679-18.568 0-33.621 14.183-33.621 31.679 0 17.495 15.053 31.678 33.621 31.678Z" fill="#888A17"/><path d="M83.596 417.848c17.886 0 32.387-13.815 32.387-30.856 0-17.041-14.501-30.855-32.387-30.855-17.887 0-32.388 13.814-32.388 30.855s14.5 30.856 32.388 30.856Z" fill="#3D213D"/><path d="M83.596 417.848c17.886 0 32.387-13.815 32.387-30.856 0-17.041-14.501-30.855-32.387-30.855-17.887 0-32.388 13.814-32.388 30.855s14.5 30.856 32.388 30.856Z" fill="url(#d)"/><path d="M48.74 376.883c0 9.992-2.175 19.395-6.113 27.917h-197.085v-56.128c7.465-6.523 16.34-11.401 26.157-14.105 5.231-3.35 11.05-5.818 17.28-7.288 9.875-16.221 27.744-27.035 48.14-27.035 12.403 0 23.806 3.996 33.151 10.814a68.638 68.638 0 0 1 11.639-.999c5.76 0 11.344.705 16.693 2.116 28.86 7.405 50.138 33.559 50.138 64.708Z" fill="url(#e)"/><path d="M190.573 421.492c23.048 0 41.733-17.604 41.733-39.319 0-21.715-18.685-39.319-41.733-39.319-23.049 0-41.733 17.604-41.733 39.319 0 21.715 18.684 39.319 41.733 39.319Z" fill="#3A95A8"/><path d="M192.101 421.492c22.204 0 40.205-17.13 40.205-38.261 0-21.131-18.001-38.261-40.205-38.261-22.204 0-40.205 17.13-40.205 38.261 0 21.131 18.001 38.261 40.205 38.261Z" fill="#3A95A8"/><path d="M216.083 363.718c0 30.562-26.274 55.305-58.72 55.305-15.047 0-28.743-5.348-39.147-14.105-11.99-10.109-19.573-24.861-19.573-41.2 0-30.561 26.274-55.305 58.72-55.305 16.399 0 31.153 6.289 41.85 16.515 10.404 9.933 16.87 23.627 16.87 38.79Z" fill="#AEB11B"/><path d="M216.083 363.718c0 30.562-26.274 55.305-58.72 55.305-15.047 0-28.743-5.348-39.147-14.105-11.99-10.109-19.573-24.861-19.573-41.2 0-30.561 26.274-55.305 58.72-55.305 16.399 0 31.153 6.289 41.85 16.515 10.404 9.933 16.87 23.627 16.87 38.79Z" fill="url(#f)"/><path d="M180.932 351.67h-2.351v101.5h2.351v-101.5Z" fill="#FFFFFB"/><path d="m190.916 348.404-10.848 10.847.416.415 10.848-10.846-.416-.416Z" fill="#FFFFFB"/><path d="m199.388 342.384-1.293-.353c-.823-.176-1.939.059-2.586.588l-6.231 5.407c-.587.529-.47 1.116.353 1.352l1.293.352c.823.177 1.94-.059 2.587-.588l6.23-5.407c.647-.529.47-1.116-.353-1.351Z" fill="#49AAF7"/><path d="m-190.597 325.906 435.433-110.904s-.353-.999-.999-2.527c-1.529-3.82-4.526-11.108-6.642-14.81-2.939-5.114-4.35-6.583-4.35-6.583l-10.639-2.233-42.908 12.93-366.368 110.374-3.527 13.753Z" fill="#889EA3"/><path d="m219.973 193.374-407.395 120.19-3.997 12.577 416.447-108.494-5.055-24.273Z" fill="#E21A1A"/><path d="m145.782 214.698 19.305 18.578-30.406 7.822-16.893-18.578 27.994-7.822Zm-68.772 20.9 20.428 19.351-32.174 8.148-17.875-19.351 29.621-8.148Zm-64.36 18.7 15.49 14.707-24.397 6.192L-9.81 260.49l22.46-6.192Z" fill="#A1C5CD"/><path d="m102.121 229.989 3.292-.999v5.113l-3.292 1v-5.114ZM6.077 258.2l6.466-1.88c-.118 1.528-.294 3.056-.588 4.525l-6.23 1.763c0-1.469.117-2.938.352-4.408Zm8.171-2.409 5.466-1.587a58.49 58.49 0 0 1-.176 4.525l-5.76 1.646c.234-1.528.41-3.056.47-4.584Zm7.171-2.117 28.155-8.286v4.701L21.242 258.2c.118-1.528.177-2.997.177-4.526Zm36.619-10.755 12.696-3.702v4.819l-12.696 3.644v-4.761Zm17.927-5.289 17.692-5.172v5.054l-17.692 5.055v-4.937Zm31.153-9.11 5.231-1.528v5.172l-5.231 1.469v-5.113Zm10.815 2.057v-5.231l19.044-5.583v5.407l-7.876 2.233v-1.704c0-1.117-1.705-1.117-1.705 0v2.175l-9.463 2.703Z" fill="#E6E6E6"/><path d="m179.297 201.779 47.317 9.991 17.222.705c-1.528-3.82-4.526-11.108-6.642-14.81-2.938-5.114-4.349-6.583-4.349-6.583l-10.639-2.233-42.909 12.93Z" fill="#FBD5A2"/><path d="M222.206 188.849s4.232 14.869 5.29 16.28c.529.705 4.232 1.528 7.7 2.115a281.24 281.24 0 0 0 6.525 1.058s-2.998-10.344-8.876-17.22l-4.879-.999-5.76-1.234Z" fill="#3D213D"/><path d="m240.436 204.248 1.375 4.125-6.6-1.1-2.475-3.575 7.7.55Z" fill="#89CFE1"/><path d="m48.456 241.215-1.175 26.918-6.114 1.469 2.41-26.918 4.88-1.469Z" fill="#3D213D"/><path d="m243.338 211.334-10.758-1.414-4.692-3.122-2.214-13.549-43.118 16.907.399 9.603-3.498.471-.708-12.018-2.213.884 1.239 17.85-81.765 29.161-.221 7.54 147.947-51.017-.398-1.296Z" fill="#ED6F01"/><path d="m180.121 206.998-18.334 5.497 2.015 18.703 61.784-16.088-45.465-8.112Z" fill="#E21A1A"/><path d="m197.515 197.648 23.122 22.061-23.122 4.889-20.232-22.061 20.232-4.889Z" fill="#A1C5CD"/><path d="m218.68 195.431 2.468 11.461-28.742-3.644 26.274-7.817Z" fill="#FBD5A2"/><path d="M222.206 188.849s4.232 14.869 5.29 16.28c.529.705 4.232 1.528 7.7 2.115l-12.99-18.395Z" fill="#E21A1A"/><path d="m234.111 192.699-10.175-1.1-1.375-2.75 10.45 2.2 1.1 1.65Z" fill="#607785"/><path d="m25.65 250.325-22.218 6.7v13.282l1-.587v-12.166l21.336-6.7-.117-.529Zm111.327-32.443v.882l-20.808 5.936.294 10.697h-.587l-.177-11.285 21.278-6.23Zm52.86-13.634v.882l-20.808 5.936.294 10.696h-.588l-.176-11.284 21.278-6.23ZM84.37 233.398v.529l-9.463 2.88v8.052l-.412.529v-9.11l9.875-2.88Z" fill="#E6E6E6"/><path d="M172.443 216.713v-5.231l19.044-5.584v5.408l-7.877 2.233v-1.705c0-1.116-1.704-1.116-1.704 0v2.175l-9.463 2.704Zm-16.484-.667 3.292-.999v5.113l-3.292.999v-5.113Zm4.997-1.47 5.231-1.528v5.172l-5.231 1.47v-5.114Z" fill="#E6E6E6"/><path d="m213.714 191.599 8.053 27.388-181.803 24.978 173.75-52.366Z" fill="#FEEDC5" style="mix-blend-mode:screen" opacity=".61"/><path d="M980.175 58.5-454.204 397.337v6.759L1257.92 98.65V62.9l-277.745-4.4Z" fill="#003659"/><path opacity=".24" d="m26.959 316.642-94.987-9.521 126.963-30.268 80.115 19.453-112.091 20.336Z" fill="#FEEDC5"/><path d="M980.175 61.25-454.204 397.336v-3.232L911.426 42.001l68.749 19.25Z" fill="#5566C5"/><path d="m388.658 182.524-842.862 212.814v.529l844.787-208.943-1.925-4.4Z" fill="#3D213D"/><path d="M187.836 289.371v12.283l-7.524 3.938-11.579-9.58-7.465-5.23v-12.284l26.568 10.873Z" fill="#BDD0F4"/><path d="M168.733 283.67h28.331v155.982h-28.331V283.67Z" fill="#BDD0F4"/><path d="M212.251 439.634h-15.165V285.768h15.165v153.866Z" fill="#3A95A8"/><path d="M218.812 284.023v12.283l-7.582 3.938-11.462-4.702-7.523-10.109v-12.224l26.567 10.814Z" fill="#5566C5"/><path d="m161.268 278.498 30.976-5.289v12.224l-30.976 5.349v-12.284Z" fill="#BDD0F4"/><path d="m205.529 278.616 6.7 22.921v-1.822l6.583-3.409v-12.283l-13.283-5.407Z" fill="#003659"/><path d="m197.064 291.898-28.331 4.115-7.465-5.231 30.976-5.349 4.82 6.465Z" fill="#3D91D4"/><path opacity=".61" d="m156.801 235.829 1.058 4.35 254.174-63.155-8.525-5.225-246.707 64.03Zm11.932 5.701 2.116 9.522 202.41-47.195 20.899-17.758-225.425 55.431Z" fill="#FEEDC5"/><path d="M277.835 379.981c0 38.453 33.058 69.585 73.882 69.585 18.932 0 36.164-6.729 49.254-17.747 15.087-12.719 24.627-31.28 24.627-51.838 0-38.452-33.058-69.584-73.881-69.584-20.634 0-39.197 7.912-52.657 20.779-13.09 12.497-21.225 29.727-21.225 48.805Z" fill="#AEB11B"/><path d="M277.835 379.981c0 38.453 33.058 69.585 73.882 69.585 18.932 0 36.164-6.729 49.254-17.747 15.087-12.719 24.627-31.28 24.627-51.838 0-38.452-33.058-69.584-73.881-69.584-20.634 0-39.197 7.912-52.657 20.779-13.09 12.497-21.225 29.727-21.225 48.805Z" fill="url(#g)"/></g><defs><linearGradient id="b" x1="252.411" y1="88.198" x2="252.411" y2="478.482" gradientUnits="userSpaceOnUse"><stop stop-color="#fff"/><stop offset="1"/></linearGradient><linearGradient id="c" x1="348.182" y1="413.844" x2="238.994" y2="347.104" gradientUnits="userSpaceOnUse"><stop stop-color="#4DB0A5"/><stop offset="1" stop-color="#EFCE3D"/></linearGradient><linearGradient id="d" x1="92.524" y1="408.759" x2="38.094" y2="391.154" gradientUnits="userSpaceOnUse"><stop stop-color="#4DB0A5"/><stop offset="1" stop-color="#EFCE3D"/></linearGradient><linearGradient id="e" x1="-24.851" y1="389.402" x2="-163.674" y2="306.265" gradientUnits="userSpaceOnUse"><stop stop-color="#4DB0A5"/><stop offset="1" stop-color="#EFCE3D"/></linearGradient><linearGradient id="f" x1="173.55" y1="402.733" x2="75.082" y2="370.517" gradientUnits="userSpaceOnUse"><stop stop-color="#4DB0A5"/><stop offset="1" stop-color="#EFCE3D"/></linearGradient><linearGradient id="g" x1="331.349" y1="429.07" x2="455.243" y2="388.535" gradientUnits="userSpaceOnUse"><stop stop-color="#4DB0A5"/><stop offset="1" stop-color="#EFCE3D"/></linearGradient><clipPath id="a"><path fill="#fff" transform="translate(-716.037)" d="M0 0h1925.07v548H0z"/></clipPath></defs></svg>