<svg width="66" height="66" fill="none" xmlns="http://www.w3.org/2000/svg"><path d="M54.71 44.71c-.357-2.07-1.022-4.512-1.799-7.368l-5.436-19.977c-.9-3.306-1.648-6.056-2.54-8.158a17.987 17.987 0 0 0-.405-.891c3.955.153 6.364.661 8.053 2.35C55 13.083 55 16.972 55 24.75v11c0 3.835 0 6.725-.29 8.96Z" fill="#E21A1A"/><path d="M38.776 7.172c1.121.637 1.934 1.674 2.707 3.499.786 1.852 1.474 4.373 2.424 7.866l5.335 19.603c.95 3.493 1.635 6.014 1.895 8.005.257 1.96.079 3.255-.564 4.352-.645 1.1-1.7 1.902-3.558 2.666-1.884.775-4.447 1.453-7.994 2.389l-7.466 1.97c-3.546.935-6.11 1.61-8.136 1.867-1.997.253-3.322.078-4.445-.56-1.121-.638-1.934-1.675-2.707-3.5-.786-1.852-1.474-4.373-2.425-7.866L8.508 27.86c-.95-3.493-1.635-6.015-1.895-8.005-.257-1.96-.08-3.255.564-4.352.645-1.1 1.7-1.902 3.558-2.666 1.884-.775 4.447-1.453 7.994-2.389l7.466-1.97c3.546-.935 6.11-1.61 8.136-1.867 1.997-.253 3.322-.078 4.445.56Z" stroke="#E21A1A" stroke-width="2"/></svg>