<svg width="768" height="648" fill="none" xmlns="http://www.w3.org/2000/svg"><g clip-path="url(#a)"><path fill="#fff" d="M0 0h768v648H0z"/><path d="M3261.46 1H-685.938v1131.77H3261.46V1Z" fill="url(#b)"/><path d="M-77.055 274.278H.329V629.31h-77.384V274.278Z" fill="#49D8F7"/><path d="M-77.055 287.006H.329v11.719h-77.384v-11.719Zm0 22.82H.329v11.719h-77.384v-11.719Zm0 22.821H.329v11.718h-77.384v-11.718Zm0 22.82H.329v11.719h-77.384v-11.719Zm0 22.82H.329v11.719h-77.384v-11.719Zm0 22.821H.329v11.718h-77.384v-11.718Zm0 22.82H.329v11.718h-77.384v-11.718Zm0 22.82H.329v11.719h-77.384v-11.719Zm0 22.82H.329v11.719h-77.384v-11.719Zm0 22.821H.329v11.718h-77.384v-11.718Zm0 22.82H.329v11.662h-77.384v-11.662Zm0 22.82H.329v11.663h-77.384v-11.663Zm0 22.821H.329v11.662h-77.384V560.85Zm0 22.82H.329v11.662h-77.384V583.67Zm0 22.82H.329v11.663h-77.384V606.49Z" opacity=".23" fill="#003659"/><path d="M-185.505 274.278H.329V629.31h-185.834V274.278Z" fill="url(#c)" style="mix-blend-mode:multiply" opacity=".4"/><path d="M-109.594 274.362s4.396 77.892 56.505 106.61C-12.762 403.126.427 470.644.427 470.644l.117-196.282h-110.138Z" fill="#FEEDC5" style="mix-blend-mode:overlay" opacity=".61"/><path d="m95.718 536.584.352 3.517c.41 4.63.762 9.26 1.114 13.89.058.703.058 1.407.117 2.11h3.048v-2.051h17.878v10.901h6.33v-.117h-.352v-1.29h.352v-.469h-.352v-1.289h.352v-.469h-.352v-1.289h.352v-.469h-.352v-1.29h.352v-.527h2.462V508.51h1.289v-13.069h19.168v13.069h1.289v69.569h7.679v4.63h3.458v-13.656h1.348v-5.802h14.537v-.234h-.997l1.114-1.583v-.762h.527l.587-.82h-1.114v-1.172h1.172v-.821h-1.172v-1.172h1.172v-.821h-1.172v-1.172h1.172v-1.992h.938v-2.11h2.52v-5.803h1.876v-7.384l5.686-1.348 1.289-.293v-12.191h.762v12.015l2.286-.528v9.729h1.583v5.803h1.348v-14.36h.997v-28.835h-.528v-1.407h.821v-.586c0-.41.293-.762.703-.762h.41v-2.989c0-.762.586-1.406 1.29-1.406h.058v-2.638c0-.762.469-1.406 1.173-1.582v-2.345h.879c.234-1.758 1.524-3.106 3.224-3.399v-2.403c0-.176.058-.293.234-.293v-6.154h.586v6.154c.118.059.235.176.235.293v2.403c1.641.234 2.931 1.641 3.165 3.399h.879v2.345c.645.176 1.173.82 1.173 1.582v2.638h.058c.704 0 1.29.644 1.29 1.406v2.989h.469c.41 0 .703.352.703.762v.586h.645v1.407h-.645v28.835h.938v17.759h13.481v9.143h8.324v16h2.755v-.762h11.899v-3.692h1.699v-4.396h9.496v-4.161h10.785v-32.118h1.29v-.527h-1.29v-1.934h1.29v-.528h-1.348v-1.934h1.348v-.527h-1.348v-1.934h1.348v-.528h-1.348v-1.934h1.348v-.586h-1.348v-1.934h1.348v-.528h-1.348v-1.934h1.348v-.527h-1.348v-41.788h24.501v39.795h-.059v1.934h-1.7v.528h1.7v1.934h-1.7v.527h1.7v1.934h-1.7v.586h1.759v1.934h-1.759v.528h1.759v1.934h-1.759v.528h1.759v1.934h-1.759v.527h1.759v1.934h-1.759v.528h1.876v24.322h8.206v-6.622h10.258v-10.55l2.11-6.095.059-.235 5.568-16.059 7.737 22.389v1.524h.469v.703H331v.938h.468v.703H331v.938h.468v.703H331v.938h.468v.703H331v.938h.468v.703H331v.938h.468v.703H331v.938h.468v.703H331v.938h.468v.703H331v.938h.468v.704H331v.937h.468v.704H331v.937h.468v.704H331v.937h.468v.704H331v.937h.468v.704H331v.937h.468v.704H331v.937h.468v.704H331v.938h.468v.703H331v.938h.468v.703H331v.938h.468v.234h8.91v-8.205h13.599v-.293l.058-1.172v-2.169l.059-.996.059-1.172v-.997l.058-1.172v-.996l.059-1.173.058-.996v-2.168l.059-1.173v-.996l.059-1.172v-.996l.058-1.173v-.996l.059-1.172v-.997l.058-1.172v-.996l.059-1.172.117-3.634 5.686-2.051v3.165h1.758l-.175-8.616 9.847-2.637.996 13.773.118 1.172.058.996.117 1.172.059.997.059 1.172.058.996.059 1.173.059.996.058 1.172.059.996.117 1.173.059.996.058 1.172.059.996.058 1.173.059.996.117 1.172.059.997.117 1.172.059.996.058 1.172.059.997.117 1.172.059.996.058 1.172.059.997.117 1.172.059.996.117 1.172.059.997.058 1.172.059.996.059 1.172.058.997.059 1.172.058.996.059 1.114h9.906v5.099h6.975v-11.253h7.737v-20.279h4.397v-28.601h31.183V626.08H75.437v-89.437l20.281-.059Z" fill="#BDE0F4"/><path d="M322.441 568.174H297.12v-52.103h25.321v52.103Z" fill="#BDE0F4"/><path d="M316.873 516.071h-14.126v52.103h14.126v-52.103Z" fill="#49AAF7"/><path d="M316.873 516.071h-14.126v2.227h14.126v-2.227Zm0 3.985h-14.126v2.227h14.126v-2.227Zm0 4.044h-14.126v2.227h14.126V524.1Zm0 3.986h-14.126v2.227h14.126v-2.227Zm0 4.044h-14.126v2.227h14.126v-2.227Zm0 3.985h-14.126v2.227h14.126v-2.227Zm0 4.044h-14.126v2.227h14.126v-2.227Zm0 3.986h-14.126v2.227h14.126v-2.227Zm0 3.985h-14.126v2.227h14.126v-2.227Zm0 4.044h-14.126v2.227h14.126v-2.227Zm0 3.985h-14.126v2.228h14.126v-2.228Zm0 4.044h-14.126v2.228h14.126v-2.228Zm0 3.986h-14.126v2.227h14.126v-2.227Zm-16.94-48.118h-2.813v2.227h2.813v-2.227Zm0 3.985h-2.813v2.227h2.813v-2.227Zm0 4.044h-2.813v2.227h2.813V524.1Zm0 3.986h-2.813v2.227h2.813v-2.227Zm0 4.044h-2.813v2.227h2.813v-2.227Zm0 3.985h-2.813v2.227h2.813v-2.227Zm0 4.044h-2.813v2.227h2.813v-2.227Zm0 3.986h-2.813v2.227h2.813v-2.227Zm0 3.985h-2.813v2.227h2.813v-2.227Zm0 4.044h-2.813v2.227h2.813v-2.227Zm0 3.985h-2.813v2.228h2.813v-2.228Zm0 4.044h-2.813v2.228h2.813v-2.228Zm0 3.986h-2.813v2.227h2.813v-2.227Zm22.509-48.118h-2.814v2.227h2.814v-2.227Zm0 3.985h-2.814v2.227h2.814v-2.227Zm0 4.044h-2.814v2.227h2.814V524.1Zm0 3.986h-2.814v2.227h2.814v-2.227Zm0 4.044h-2.814v2.227h2.814v-2.227Zm0 3.985h-2.814v2.227h2.814v-2.227Zm0 4.044h-2.814v2.227h2.814v-2.227Zm0 3.986h-2.814v2.227h2.814v-2.227Zm0 3.985h-2.814v2.227h2.814v-2.227Zm0 4.044h-2.814v2.227h2.814v-2.227Zm0 3.985h-2.814v2.228h2.814v-2.228Zm0 4.044h-2.814v2.228h2.814v-2.228Zm0 3.986h-2.814v2.227h2.814v-2.227Z" fill="#BDE0F4"/><path d="M297.12 516.071h-9.613v52.103h9.613v-52.103Z" fill="#49AAF7"/><path d="M294.072 516.071h-4.045v50.345h4.045v-50.345Z" fill="#49AAF7"/><path d="M294.072 516.071h-4.045v2.227h4.045v-2.227Zm0 3.985h-4.045v2.227h4.045v-2.227Zm0 4.044h-4.045v2.227h4.045V524.1Zm0 3.986h-4.045v2.227h4.045v-2.227Zm0 4.044h-4.045v2.227h4.045v-2.227Zm0 3.985h-4.045v2.227h4.045v-2.227Zm0 4.044h-4.045v2.227h4.045v-2.227Zm0 3.986h-4.045v2.227h4.045v-2.227Zm0 3.985h-4.045v2.227h4.045v-2.227Zm0 4.044h-4.045v2.227h4.045v-2.227Zm0 3.985h-4.045v2.228h4.045v-2.228Zm0 4.044h-4.045v2.228h4.045v-2.228Zm0 3.986h-4.045v2.227h4.045v-2.227Zm16.53-48.118h-1.642v50.345h1.642v-50.345Z" fill="#49AAF7"/><path d="M322.441 568.174H297.12v51.927h25.321v-51.927Z" fill="#BDE0F4"/><path d="M316.873 568.174h-14.126v51.927h14.126v-51.927Z" fill="#49AAF7"/><path d="M316.873 568.174h-14.126v1.993h14.126v-1.993Zm0 3.81h-14.126v2.227h14.126v-2.227Zm0 4.044h-14.126v2.227h14.126v-2.227Zm0 3.985h-14.126v2.227h14.126v-2.227Zm0 4.044h-14.126v2.227h14.126v-2.227Zm0 3.985h-14.126v2.228h14.126v-2.228Zm0 4.044h-14.126v2.228h14.126v-2.228Zm0 3.986h-14.126v2.227h14.126v-2.227Zm0 4.044h-14.126v2.227h14.126v-2.227Zm0 3.985h-14.126v2.227h14.126v-2.227Zm0 3.986h-14.126v2.227h14.126v-2.227Zm0 4.044h-14.126v2.227h14.126v-2.227Zm0 3.985h-14.126v2.227h14.126v-2.227Zm-16.94-47.942h-2.813v1.993h2.813v-1.993Zm0 3.81h-2.813v2.227h2.813v-2.227Zm0 4.044h-2.813v2.227h2.813v-2.227Zm0 3.985h-2.813v2.227h2.813v-2.227Zm0 4.044h-2.813v2.227h2.813v-2.227Zm0 3.985h-2.813v2.228h2.813v-2.228Zm0 4.044h-2.813v2.228h2.813v-2.228Zm0 3.986h-2.813v2.227h2.813v-2.227Zm0 4.044h-2.813v2.227h2.813v-2.227Zm0 3.985h-2.813v2.227h2.813v-2.227Zm0 3.986h-2.813v2.227h2.813v-2.227Zm0 4.044h-2.813v2.227h2.813v-2.227Zm0 3.985h-2.813v2.227h2.813v-2.227Zm22.509-47.942h-2.814v1.993h2.814v-1.993Zm0 3.81h-2.814v2.227h2.814v-2.227Zm0 4.044h-2.814v2.227h2.814v-2.227Zm0 3.985h-2.814v2.227h2.814v-2.227Zm0 4.044h-2.814v2.227h2.814v-2.227Zm0 3.985h-2.814v2.228h2.814v-2.228Zm0 4.044h-2.814v2.228h2.814v-2.228Zm0 3.986h-2.814v2.227h2.814v-2.227Zm0 4.044h-2.814v2.227h2.814v-2.227Zm0 3.985h-2.814v2.227h2.814v-2.227Zm0 3.986h-2.814v2.227h2.814v-2.227Zm0 4.044h-2.814v2.227h2.814v-2.227Zm0 3.985h-2.814v2.227h2.814v-2.227Z" fill="#BDE0F4"/><path d="M297.12 568.174h-9.613v51.927h9.613v-51.927Z" fill="#49AAF7"/><path d="M294.072 568.174h-4.045v50.111h4.045v-50.111Z" fill="#49AAF7"/><path d="M294.072 568.174h-4.045v1.993h4.045v-1.993Zm0 3.81h-4.045v2.227h4.045v-2.227Zm0 4.044h-4.045v2.227h4.045v-2.227Zm0 3.985h-4.045v2.227h4.045v-2.227Zm0 4.044h-4.045v2.227h4.045v-2.227Zm0 3.985h-4.045v2.228h4.045v-2.228Zm0 4.044h-4.045v2.228h4.045v-2.228Zm0 3.986h-4.045v2.227h4.045v-2.227Zm0 4.044h-4.045v2.227h4.045v-2.227Zm0 3.985h-4.045v2.227h4.045v-2.227Zm0 3.986h-4.045v2.227h4.045v-2.227Zm0 4.044h-4.045v2.227h4.045v-2.227Zm0 3.985h-4.045v2.227h4.045v-2.227Zm16.53-47.942h-1.642v50.169h1.642v-50.169Z" fill="#49AAF7"/><path d="M322.441 620.102H297.12v4.102h25.321v-4.102Z" fill="#BDE0F4"/><path d="M316.873 620.102h-14.126v4.102h14.126v-4.102Z" fill="#49AAF7"/><path d="M316.873 620.102h-14.126v1.992h14.126v-1.992Zm0 3.809h-14.126v.293h14.126v-.293Zm-16.94-3.809h-2.813v1.992h2.813v-1.992Zm0 3.809h-2.813v.293h2.813v-.293Zm22.509-3.809h-2.814v1.992h2.814v-1.992Zm0 3.809h-2.814v.293h2.814v-.293Z" fill="#BDE0F4"/><path d="M297.12 619.808h-9.613v4.396h9.613v-4.396Z" fill="#49AAF7"/><path d="M294.072 620.102h-4.045v4.102h4.045v-4.102Z" fill="#49AAF7"/><path d="M294.072 620.102h-4.045v1.992h4.045v-1.992Zm0 3.809h-4.045v.293h4.045v-.293Zm16.53-3.809h-1.642v4.102h1.642v-4.102Z" fill="#49AAF7"/><path d="M322.5 512.906h-34.993v3.165H322.5v-3.165Zm0-.117h-34.993v.117H322.5v-.117Z" fill="#BDE0F4"/><path d="M297.12 512.906h-9.613v3.165h9.613v-3.165Zm0-.117h-9.613v.117h9.613v-.117Zm-9.73-9.612h-17.643v121.027h17.643V503.177Zm-17.644 0h-24.97v121.027h24.97V503.177Z" fill="#BDE0F4"/><path d="M287.331 503.177h-17.584v121.027h17.584V503.177Z" fill="#BDE0F4"/><path d="M269.746 503.177h-24.97v121.027h24.97V503.177Z" fill="#003659"/><path d="M271.095 504.759h-6.565v2.227h6.565v-2.227Zm-22.274 0h-6.565v2.227h6.565v-2.227Z" fill="#BDE0F4"/><path d="M275.725 504.759h-4.689v2.227h4.689v-2.227Zm13.951 0h-4.689v2.227h4.689v-2.227Zm-18.581 3.868h-6.565v2.228h6.565v-2.228Zm-22.274 0h-6.565v2.228h6.565v-2.228Z" fill="#BDE0F4"/><path d="M275.725 508.627h-4.689v2.228h4.689v-2.228Zm13.951 0h-4.689v2.228h4.689v-2.228Zm-18.581 3.869h-6.565v2.227h6.565v-2.227Zm-22.274 0h-6.565v2.227h6.565v-2.227Z" fill="#BDE0F4"/><path d="M275.725 512.496h-4.689v2.227h4.689v-2.227Zm13.951 0h-4.689v2.227h4.689v-2.227Zm-18.581 3.868h-6.565v2.227h6.565v-2.227Zm-22.274 0h-6.565v2.227h6.565v-2.227Z" fill="#BDE0F4"/><path d="M275.725 516.364h-4.689v2.227h4.689v-2.227Zm13.951 0h-4.689v2.227h4.689v-2.227Zm-18.581 3.868h-6.565v2.227h6.565v-2.227Zm-22.274 0h-6.565v2.227h6.565v-2.227Z" fill="#BDE0F4"/><path d="M275.725 520.232h-4.689v2.227h4.689v-2.227Zm13.951 0h-4.689v2.227h4.689v-2.227Zm-18.581 3.81h-6.565v2.227h6.565v-2.227Zm-22.274 0h-6.565v2.227h6.565v-2.227Z" fill="#BDE0F4"/><path d="M275.725 524.042h-4.689v2.227h4.689v-2.227Zm13.951 0h-4.689v2.227h4.689v-2.227Zm-18.581 3.868h-6.565v2.227h6.565v-2.227Zm-22.274 0h-6.565v2.227h6.565v-2.227Z" fill="#BDE0F4"/><path d="M275.725 527.91h-4.689v2.227h4.689v-2.227Zm13.951 0h-4.689v2.227h4.689v-2.227Zm-18.581 3.868h-6.565v2.227h6.565v-2.227Zm-22.274 0h-6.565v2.227h6.565v-2.227Z" fill="#BDE0F4"/><path d="M275.725 531.778h-4.689v2.227h4.689v-2.227Zm13.951 0h-4.689v2.227h4.689v-2.227Zm-18.581 3.868h-6.565v2.227h6.565v-2.227Zm-22.274 0h-6.565v2.227h6.565v-2.227Z" fill="#BDE0F4"/><path d="M275.725 535.646h-4.689v2.227h4.689v-2.227Zm13.951 0h-4.689v2.227h4.689v-2.227Zm-18.581 3.81h-6.565v2.227h6.565v-2.227Zm-22.274 0h-6.565v2.227h6.565v-2.227Z" fill="#BDE0F4"/><path d="M275.725 539.456h-4.689v2.227h4.689v-2.227Zm13.951 0h-4.689v2.227h4.689v-2.227Zm-18.581 3.868h-6.565v2.227h6.565v-2.227Zm-22.274 0h-6.565v2.227h6.565v-2.227Z" fill="#BDE0F4"/><path d="M275.725 543.324h-4.689v2.227h4.689v-2.227Zm13.951 0h-4.689v2.227h4.689v-2.227Zm-18.581 3.868h-6.565v2.228h6.565v-2.228Zm-22.274 0h-6.565v2.227h6.565v-2.227Z" fill="#BDE0F4"/><path d="M275.725 547.192h-4.689v2.228h4.689v-2.228Zm13.951 0h-4.689v2.228h4.689v-2.228Zm-18.581 3.868h-6.565v2.228h6.565v-2.228Zm-22.274 0h-6.565v2.227h6.565v-2.227Z" fill="#BDE0F4"/><path d="M275.725 551.06h-4.689v2.228h4.689v-2.228Zm13.951 0h-4.689v2.228h4.689v-2.228Zm-18.581 3.868h-6.565v2.227h6.565v-2.227Zm-22.274.001h-6.565v2.227h6.565v-2.227Z" fill="#BDE0F4"/><path d="M275.725 554.928h-4.689v2.227h4.689v-2.227Zm13.951 0h-4.689v2.227h4.689v-2.227Zm-18.581 3.81h-6.565v2.227h6.565v-2.227Zm-22.274 0h-6.565v2.227h6.565v-2.227Z" fill="#BDE0F4"/><path d="M275.725 558.738h-4.689v2.227h4.689v-2.227Zm13.951 0h-4.689v2.227h4.689v-2.227Zm-18.581 3.868h-6.565v2.227h6.565v-2.227Zm-22.274 0h-6.565v2.227h6.565v-2.227Z" fill="#BDE0F4"/><path d="M275.725 562.606h-4.689v2.227h4.689v-2.227Zm13.951 0h-4.689v2.227h4.689v-2.227Zm-18.581 3.868h-6.565v2.228h6.565v-2.228Zm-22.274 0h-6.565v2.227h6.565v-2.227Z" fill="#BDE0F4"/><path d="M275.725 566.474h-4.689v2.228h4.689v-2.228Zm13.951 0h-4.689v2.228h4.689v-2.228Zm-18.581 3.869h-6.565v2.227h6.565v-2.227Zm-22.274 0h-6.565v2.227h6.565v-2.227Z" fill="#BDE0F4"/><path d="M275.725 570.343h-4.689v2.227h4.689v-2.227Zm13.951 0h-4.689v2.227h4.689v-2.227Zm-18.581 3.868h-6.565v2.227h6.565v-2.227Zm-22.274 0h-6.565v2.227h6.565v-2.227Z" fill="#BDE0F4"/><path d="M275.725 574.211h-4.689v2.227h4.689v-2.227Zm13.951 0h-4.689v2.227h4.689v-2.227Zm-18.581 3.81h-6.565v2.227h6.565v-2.227Zm-22.274 0h-6.565v2.227h6.565v-2.227Z" fill="#BDE0F4"/><path d="M275.725 578.021h-4.689v2.227h4.689v-2.227Zm13.951 0h-4.689v2.227h4.689v-2.227Zm-18.581 3.868h-6.565v2.227h6.565v-2.227Zm-22.274 0h-6.565v2.227h6.565v-2.227Z" fill="#BDE0F4"/><path d="M275.725 581.889h-4.689v2.227h4.689v-2.227Zm13.951 0h-4.689v2.227h4.689v-2.227Zm-18.581 3.868h-6.565v2.227h6.565v-2.227Zm-22.274 0h-6.565v2.227h6.565v-2.227Z" fill="#BDE0F4"/><path d="M275.725 585.757h-4.689v2.227h4.689v-2.227Zm13.951 0h-4.689v2.227h4.689v-2.227Zm-18.581 3.868h-6.565v2.227h6.565v-2.227Zm-22.274 0h-6.565v2.227h6.565v-2.227Z" fill="#BDE0F4"/><path d="M275.725 589.625h-4.689v2.227h4.689v-2.227Zm13.951 0h-4.689v2.227h4.689v-2.227Zm-18.581 3.868h-6.565v2.227h6.565v-2.227Zm-22.274 0h-6.565v2.227h6.565v-2.227Z" fill="#BDE0F4"/><path d="M275.725 593.493h-4.689v2.227h4.689v-2.227Zm13.951 0h-4.689v2.227h4.689v-2.227Zm-18.581 3.809h-6.565v2.228h6.565v-2.228Zm-22.274.001h-6.565v2.227h6.565v-2.227Z" fill="#BDE0F4"/><path d="M275.725 597.302h-4.689v2.228h4.689v-2.228Zm13.951 0h-4.689v2.228h4.689v-2.228Zm-18.581 3.869h-6.565v2.227h6.565v-2.227Zm-22.274 0h-6.565v2.227h6.565v-2.227Z" fill="#BDE0F4"/><path d="M275.725 601.171h-4.689v2.227h4.689v-2.227Zm13.951 0h-4.689v2.227h4.689v-2.227Zm-18.581 3.868h-6.565v2.227h6.565v-2.227Zm-22.274 0h-6.565v2.227h6.565v-2.227Z" fill="#BDE0F4"/><path d="M275.725 605.039h-4.689v2.227h4.689v-2.227Zm13.951 0h-4.689v2.227h4.689v-2.227Zm-18.581 3.868h-6.565v2.227h6.565v-2.227Zm-22.274 0h-6.565v2.227h6.565v-2.227Z" fill="#BDE0F4"/><path d="M275.725 608.907h-4.689v2.227h4.689v-2.227Zm13.951 0h-4.689v2.227h4.689v-2.227Zm-18.581 3.81h-6.565v2.227h6.565v-2.227Zm-22.274 0h-6.565v2.227h6.565v-2.227Z" fill="#BDE0F4"/><path d="M275.725 612.717h-4.689v2.227h4.689v-2.227Zm13.951 0h-4.689v2.227h4.689v-2.227Zm-18.581 3.868h-6.565v2.227h6.565v-2.227Zm-22.274 0h-6.565v2.227h6.565v-2.227Z" fill="#BDE0F4"/><path d="M275.725 616.585h-4.689v2.227h4.689v-2.227Zm13.951 0h-4.689v2.227h4.689v-2.227Zm-18.581 3.868h-6.565v2.228h6.565v-2.228Zm-22.274 0h-6.565v2.228h6.565v-2.228Z" fill="#BDE0F4"/><path d="M275.725 620.453h-4.689v2.228h4.689v-2.228Zm13.951 0h-4.689v2.228h4.689v-2.228Z" fill="#BDE0F4"/><path d="M261.247 503.177h-9.789V622.27h9.789V503.177Zm22.04 0h-6.096V622.68h6.096V503.177Z" fill="#003659"/><path d="M219.609 563.113h-31.991v-65.826h31.991v65.826Z" fill="#BDE0F4"/><path d="M212.573 497.287h-17.846v65.826h17.846v-65.826Z" fill="#49AAF7"/><path d="M212.573 497.287h-17.846v2.813h17.846v-2.813Zm0 5.035h-17.846v2.814h17.846v-2.814Zm0 5.109h-17.846v2.814h17.846v-2.814Zm0 5.035h-17.846v2.814h17.846v-2.814Zm0 5.109h-17.846v2.814h17.846v-2.814Zm0 5.035h-17.846v2.814h17.846v-2.814Zm0 5.109h-17.846v2.814h17.846v-2.814Zm0 5.036h-17.846v2.813h17.846v-2.813Zm0 5.035h-17.846v2.813h17.846v-2.813Zm0 5.109h-17.846v2.814h17.846v-2.814Zm0 5.035h-17.846v2.814h17.846v-2.814Zm0 5.109h-17.846v2.814h17.846v-2.814Zm0 5.035h-17.846v2.814h17.846v-2.814Zm-21.401-60.791h-3.554v2.813h3.554v-2.813Zm0 5.035h-3.554v2.814h3.554v-2.814Zm0 5.109h-3.554v2.814h3.554v-2.814Zm0 5.035h-3.554v2.814h3.554v-2.814Zm0 5.109h-3.554v2.814h3.554v-2.814Zm0 5.035h-3.554v2.814h3.554v-2.814Zm0 5.109h-3.554v2.814h3.554v-2.814Zm0 5.036h-3.554v2.813h3.554v-2.813Zm0 5.035h-3.554v2.813h3.554v-2.813Zm0 5.109h-3.554v2.814h3.554v-2.814Zm0 5.035h-3.554v2.814h3.554v-2.814Zm0 5.109h-3.554v2.814h3.554v-2.814Zm0 5.035h-3.554v2.814h3.554v-2.814Zm28.436-60.791h-3.554v2.813h3.554v-2.813Zm0 5.035h-3.554v2.814h3.554v-2.814Zm0 5.109h-3.554v2.814h3.554v-2.814Zm0 5.035h-3.554v2.814h3.554v-2.814Zm0 5.109h-3.554v2.814h3.554v-2.814Zm0 5.035h-3.554v2.814h3.554v-2.814Zm0 5.109h-3.554v2.814h3.554v-2.814Zm0 5.036h-3.554v2.813h3.554v-2.813Zm0 5.035h-3.554v2.813h3.554v-2.813Zm0 5.109h-3.554v2.814h3.554v-2.814Zm0 5.035h-3.554v2.814h3.554v-2.814Zm0 5.109h-3.554v2.814h3.554v-2.814Zm0 5.035h-3.554v2.814h3.554v-2.814Z" fill="#BDE0F4"/><path d="M187.617 497.286h-12.144v65.827h12.144v-65.827Z" fill="#49AAF7"/><path d="M183.766 497.287h-5.109v63.605h5.109v-63.605Z" fill="#49AAF7"/><path d="M183.766 497.287h-5.109v2.813h5.109v-2.813Zm0 5.035h-5.109v2.814h5.109v-2.814Zm0 5.109h-5.109v2.814h5.109v-2.814Zm0 5.035h-5.109v2.814h5.109v-2.814Zm0 5.109h-5.109v2.814h5.109v-2.814Zm0 5.035h-5.109v2.814h5.109v-2.814Zm0 5.109h-5.109v2.814h5.109v-2.814Zm0 5.036h-5.109v2.813h5.109v-2.813Zm0 5.035h-5.109v2.813h5.109v-2.813Zm0 5.109h-5.109v2.814h5.109v-2.814Zm0 5.035h-5.109v2.814h5.109v-2.814Zm0 5.109h-5.109v2.814h5.109v-2.814Zm0 5.035h-5.109v2.814h5.109v-2.814Zm20.884-60.791h-2.074v63.605h2.074v-63.605Z" fill="#49AAF7"/><path d="M219.609 563.113h-31.991v65.604h31.991v-65.604Z" fill="#BDE0F4"/><path d="M212.573 563.113h-17.846v65.604h17.846v-65.604Z" fill="#49AAF7"/><path d="M212.573 563.113h-17.846v2.518h17.846v-2.518Zm0 4.813h-17.846v2.814h17.846v-2.814Zm0 5.109h-17.846v2.814h17.846v-2.814Zm0 5.035h-17.846v2.814h17.846v-2.814Zm0 5.109h-17.846v2.814h17.846v-2.814Zm0 5.035h-17.846v2.814h17.846v-2.814Zm0 5.11h-17.846v2.813h17.846v-2.813Zm0 5.035h-17.846v2.813h17.846v-2.813Zm0 5.109h-17.846v2.814h17.846v-2.814Zm0 5.035h-17.846v2.814h17.846v-2.814Zm0 5.035h-17.846v2.814h17.846v-2.814Zm0 5.109h-17.846v2.814h17.846v-2.814Zm0 5.035h-17.846v2.814h17.846v-2.814Zm-21.401-60.569h-3.554v2.518h3.554v-2.518Zm0 4.813h-3.554v2.814h3.554v-2.814Zm0 5.109h-3.554v2.814h3.554v-2.814Zm0 5.035h-3.554v2.814h3.554v-2.814Zm0 5.109h-3.554v2.814h3.554v-2.814Zm0 5.035h-3.554v2.814h3.554v-2.814Zm0 5.11h-3.554v2.813h3.554v-2.813Zm0 5.035h-3.554v2.813h3.554v-2.813Zm0 5.109h-3.554v2.814h3.554v-2.814Zm0 5.035h-3.554v2.814h3.554v-2.814Zm0 5.035h-3.554v2.814h3.554v-2.814Zm0 5.109h-3.554v2.814h3.554v-2.814Zm0 5.035h-3.554v2.814h3.554v-2.814Zm28.436-60.569h-3.554v2.518h3.554v-2.518Zm0 4.813h-3.554v2.814h3.554v-2.814Zm0 5.109h-3.554v2.814h3.554v-2.814Zm0 5.035h-3.554v2.814h3.554v-2.814Zm0 5.109h-3.554v2.814h3.554v-2.814Zm0 5.035h-3.554v2.814h3.554v-2.814Zm0 5.11h-3.554v2.813h3.554v-2.813Zm0 5.035h-3.554v2.813h3.554v-2.813Zm0 5.109h-3.554v2.814h3.554v-2.814Zm0 5.035h-3.554v2.814h3.554v-2.814Zm0 5.035h-3.554v2.814h3.554v-2.814Zm0 5.109h-3.554v2.814h3.554v-2.814Zm0 5.035h-3.554v2.814h3.554v-2.814Z" fill="#BDE0F4"/><path d="M187.617 563.113h-12.144v65.605h12.144v-65.605Z" fill="#49AAF7"/><path d="M183.766 563.113h-5.109v63.309h5.109v-63.309Z" fill="#49AAF7"/><path d="M183.766 563.113h-5.109v2.518h5.109v-2.518Zm0 4.813h-5.109v2.814h5.109v-2.814Zm0 5.109h-5.109v2.814h5.109v-2.814Zm0 5.035h-5.109v2.814h5.109v-2.814Zm0 5.109h-5.109v2.814h5.109v-2.814Zm0 5.035h-5.109v2.814h5.109v-2.814Zm0 5.11h-5.109v2.813h5.109v-2.813Zm0 5.035h-5.109v2.813h5.109v-2.813Zm0 5.109h-5.109v2.814h5.109v-2.814Zm0 5.035h-5.109v2.814h5.109v-2.814Zm0 5.035h-5.109v2.814h5.109v-2.814Zm0 5.109h-5.109v2.814h5.109v-2.814Zm0 5.035h-5.109v2.814h5.109v-2.814Zm20.884-60.569h-2.074v63.383h2.074v-63.383Z" fill="#49AAF7"/><path d="M219.609 628.718h-31.991v5.183h31.991v-5.183Z" fill="#BDE0F4"/><path d="M212.573 628.718h-17.846v5.183h17.846v-5.183Z" fill="#49AAF7"/><path d="M212.573 628.718h-17.846v2.517h17.846v-2.517Zm0 4.813h-17.846v.37h17.846v-.37Zm-21.401-4.813h-3.554v2.517h3.554v-2.517Zm0 4.813h-3.554v.37h3.554v-.37Zm28.436-4.813h-3.554v2.517h3.554v-2.517Zm0 4.813h-3.554v.37h3.554v-.37Z" fill="#BDE0F4"/><path d="M187.617 628.347h-12.144v5.554h12.144v-5.554Z" fill="#49AAF7"/><path d="M183.766 628.718h-5.109v5.183h5.109v-5.183Z" fill="#49AAF7"/><path d="M183.766 628.718h-5.109v2.517h5.109v-2.517Zm0 4.813h-5.109v.37h5.109v-.37Zm20.884-4.813h-2.074v5.183h2.074v-5.183Z" fill="#49AAF7"/><path d="M219.683 493.288h-44.21v3.999h44.21v-3.999Zm0-.148h-44.21v.148h44.21v-.148Z" fill="#BDE0F4"/><path d="M187.617 493.288h-12.144v3.999h12.144v-3.999Zm0-.148h-12.144v.148h12.144v-.148Zm-12.292-12.143h-22.29v152.904h22.29V480.997Zm-22.29 0h-31.547v152.904h31.547V480.997Z" fill="#BDE0F4"/><path d="M175.251 480.997h-22.216v152.904h22.216V480.997Z" fill="#BDE0F4"/><path d="M153.035 480.997h-31.547v152.904h31.547V480.997Z" fill="#003659"/><path d="M154.738 482.996h-8.294v2.813h8.294v-2.813Zm-28.141 0h-8.294v2.813h8.294v-2.813Z" fill="#BDE0F4"/><path d="M160.588 482.996h-5.924v2.813h5.924v-2.813Zm17.625 0h-5.924v2.813h5.924v-2.813Zm-23.475 4.887h-8.294v2.813h8.294v-2.813Zm-28.141 0h-8.294v2.813h8.294v-2.813Z" fill="#BDE0F4"/><path d="M160.588 487.883h-5.924v2.813h5.924v-2.813Zm17.625 0h-5.924v2.813h5.924v-2.813Zm-23.475 4.887h-8.294v2.813h8.294v-2.813Zm-28.141 0h-8.294v2.813h8.294v-2.813Z" fill="#BDE0F4"/><path d="M160.588 492.77h-5.924v2.813h5.924v-2.813Zm17.625 0h-5.924v2.813h5.924v-2.813Zm-23.475 4.887h-8.294v2.814h8.294v-2.814Zm-28.141 0h-8.294v2.813h8.294v-2.813Z" fill="#BDE0F4"/><path d="M160.588 497.657h-5.924v2.814h5.924v-2.814Zm17.625 0h-5.924v2.814h5.924v-2.814Zm-23.475 4.887h-8.294v2.814h8.294v-2.814Zm-28.141 0h-8.294v2.814h8.294v-2.814Z" fill="#BDE0F4"/><path d="M160.588 502.544h-5.924v2.814h5.924v-2.814Zm17.625 0h-5.924v2.814h5.924v-2.814Zm-23.475 4.813h-8.294v2.813h8.294v-2.813Zm-28.141 0h-8.294v2.813h8.294v-2.813Z" fill="#BDE0F4"/><path d="M160.588 507.357h-5.924v2.813h5.924v-2.813Zm17.625 0h-5.924v2.813h5.924v-2.813Zm-23.475 4.887h-8.294v2.813h8.294v-2.813Zm-28.141 0h-8.294v2.813h8.294v-2.813Z" fill="#BDE0F4"/><path d="M160.588 512.244h-5.924v2.813h5.924v-2.813Zm17.625 0h-5.924v2.813h5.924v-2.813Zm-23.475 4.887h-8.294v2.813h8.294v-2.813Zm-28.141 0h-8.294v2.813h8.294v-2.813Z" fill="#BDE0F4"/><path d="M160.588 517.131h-5.924v2.813h5.924v-2.813Zm17.625 0h-5.924v2.813h5.924v-2.813Zm-23.475 4.887h-8.294v2.813h8.294v-2.813Zm-28.141 0h-8.294v2.813h8.294v-2.813Z" fill="#BDE0F4"/><path d="M160.588 522.018h-5.924v2.813h5.924v-2.813Zm17.625 0h-5.924v2.813h5.924v-2.813Zm-23.475 4.813h-8.294v2.814h8.294v-2.814Zm-28.141 0h-8.294v2.814h8.294v-2.814Z" fill="#BDE0F4"/><path d="M160.588 526.831h-5.924v2.814h5.924v-2.814Zm17.625 0h-5.924v2.814h5.924v-2.814Zm-23.475 4.887h-8.294v2.814h8.294v-2.814Zm-28.141 0h-8.294v2.813h8.294v-2.813Z" fill="#BDE0F4"/><path d="M160.588 531.718h-5.924v2.814h5.924v-2.814Zm17.625 0h-5.924v2.814h5.924v-2.814Zm-23.475 4.887h-8.294v2.814h8.294v-2.814Zm-28.141 0h-8.294v2.814h8.294v-2.814Z" fill="#BDE0F4"/><path d="M160.588 536.605h-5.924v2.814h5.924v-2.814Zm17.625 0h-5.924v2.814h5.924v-2.814Zm-23.475 4.887h-8.294v2.814h8.294v-2.814Zm-28.141 0h-8.294v2.814h8.294v-2.814Z" fill="#BDE0F4"/><path d="M160.588 541.492h-5.924v2.814h5.924v-2.814Zm17.625 0h-5.924v2.814h5.924v-2.814Zm-23.475 4.887h-8.294v2.814h8.294v-2.814Zm-28.141 0h-8.294v2.814h8.294v-2.814Z" fill="#BDE0F4"/><path d="M160.588 546.379h-5.924v2.814h5.924v-2.814Zm17.625 0h-5.924v2.814h5.924v-2.814Zm-23.475 4.813h-8.294v2.813h8.294v-2.813Zm-28.141 0h-8.294v2.814h8.294v-2.814Z" fill="#BDE0F4"/><path d="M160.588 551.192h-5.924v2.813h5.924v-2.813Zm17.625 0h-5.924v2.813h5.924v-2.813Zm-23.475 4.887h-8.294v2.813h8.294v-2.813Zm-28.141 0h-8.294v2.813h8.294v-2.813Z" fill="#BDE0F4"/><path d="M160.588 556.079h-5.924v2.813h5.924v-2.813Zm17.625 0h-5.924v2.813h5.924v-2.813Zm-23.475 4.887h-8.294v2.813h8.294v-2.813Zm-28.141 0h-8.294v2.813h8.294v-2.813Z" fill="#BDE0F4"/><path d="M160.588 560.966h-5.924v2.813h5.924v-2.813Zm17.625 0h-5.924v2.813h5.924v-2.813Zm-23.475 4.887h-8.294v2.813h8.294v-2.813Zm-28.141 0h-8.294v2.813h8.294v-2.813Z" fill="#BDE0F4"/><path d="M160.588 565.853h-5.924v2.813h5.924v-2.813Zm17.625 0h-5.924v2.813h5.924v-2.813Zm-23.475 4.887h-8.294v2.814h8.294v-2.814Zm-28.141 0h-8.294v2.814h8.294v-2.814Z" fill="#BDE0F4"/><path d="M160.588 570.74h-5.924v2.814h5.924v-2.814Zm17.625 0h-5.924v2.814h5.924v-2.814Zm-23.475 4.813h-8.294v2.814h8.294v-2.814Zm-28.141 0h-8.294v2.814h8.294v-2.814Z" fill="#BDE0F4"/><path d="M160.588 575.553h-5.924v2.814h5.924v-2.814Zm17.625 0h-5.924v2.814h5.924v-2.814Zm-23.475 4.887h-8.294v2.813h8.294v-2.813Zm-28.141 0h-8.294v2.814h8.294v-2.814Z" fill="#BDE0F4"/><path d="M160.588 580.44h-5.924v2.813h5.924v-2.813Zm17.625 0h-5.924v2.813h5.924v-2.813Zm-23.475 4.887h-8.294v2.814h8.294v-2.814Zm-28.141 0h-8.294v2.814h8.294v-2.814Z" fill="#BDE0F4"/><path d="M160.588 585.327h-5.924v2.814h5.924v-2.814Zm17.625 0h-5.924v2.814h5.924v-2.814Zm-23.475 4.887h-8.294v2.814h8.294v-2.814Zm-28.141 0h-8.294v2.813h8.294v-2.813Z" fill="#BDE0F4"/><path d="M160.588 590.214h-5.924v2.814h5.924v-2.814Zm17.625 0h-5.924v2.814h5.924v-2.814Zm-23.475 4.886h-8.294v2.814h8.294V595.1Zm-28.141.001h-8.294v2.813h8.294v-2.813Z" fill="#BDE0F4"/><path d="M160.588 595.1h-5.924v2.814h5.924V595.1Zm17.625 0h-5.924v2.814h5.924V595.1Zm-23.475 4.814h-8.294v2.814h8.294v-2.814Zm-28.141 0h-8.294v2.814h8.294v-2.814Z" fill="#BDE0F4"/><path d="M160.588 599.914h-5.924v2.814h5.924v-2.814Zm17.625 0h-5.924v2.814h5.924v-2.814Zm-23.475 4.887h-8.294v2.813h8.294v-2.813Zm-28.141 0h-8.294v2.813h8.294v-2.813Z" fill="#BDE0F4"/><path d="M160.588 604.801h-5.924v2.813h5.924v-2.813Zm17.625 0h-5.924v2.813h5.924v-2.813Zm-23.475 4.887h-8.294v2.814h8.294v-2.814Zm-28.141 0h-8.294v2.814h8.294v-2.814Z" fill="#BDE0F4"/><path d="M160.588 609.688h-5.924v2.814h5.924v-2.814Zm17.625 0h-5.924v2.814h5.924v-2.814Zm-23.475 4.887h-8.294v2.814h8.294v-2.814Zm-28.141 0h-8.294v2.814h8.294v-2.814Z" fill="#BDE0F4"/><path d="M160.588 614.575h-5.924v2.814h5.924v-2.814Zm17.625 0h-5.924v2.814h5.924v-2.814Zm-23.475 4.813h-8.294v2.814h8.294v-2.814Zm-28.141 0h-8.294v2.813h8.294v-2.813Z" fill="#BDE0F4"/><path d="M160.588 619.388h-5.924v2.814h5.924v-2.814Zm17.625 0h-5.924v2.814h5.924v-2.814Zm-23.475 4.887h-8.294v2.814h8.294v-2.814Zm-28.141 0h-8.294v2.814h8.294v-2.814Z" fill="#BDE0F4"/><path d="M160.588 624.275h-5.924v2.814h5.924v-2.814Zm17.625 0h-5.924v2.814h5.924v-2.814Zm-23.475 4.887h-8.294v2.814h8.294v-2.814Zm-28.141 0h-8.294v2.814h8.294v-2.814Z" fill="#BDE0F4"/><path d="M160.588 629.162h-5.924v2.814h5.924v-2.814Zm17.625 0h-5.924v2.814h5.924v-2.814Z" fill="#BDE0F4"/><path d="M142.297 480.997H129.93v150.46h12.367v-150.46Zm27.844 0h-7.702v150.979h7.702V480.997Z" fill="#003659"/><path d="M635.394 389.124h-41.441v209.644h41.441V389.124Z" fill="#fff"/><path d="M635.511 416.377h-41.558v3.751h41.558v-3.751Zm0 8.264h-41.558v3.751h41.558v-3.751Zm0 8.322h-41.558v3.751h41.558v-3.751Zm0 8.323h-41.558v3.751h41.558v-3.751Zm0 8.264h-41.558v3.751h41.558v-3.751Zm0 8.322h-41.558v3.751h41.558v-3.751Zm0 8.323h-41.558v3.751h41.558v-3.751Zm0 8.264h-41.558v3.751h41.558v-3.751Zm0 8.322h-41.558v3.751h41.558v-3.751Zm0 8.264h-41.558v3.751h41.558v-3.751Zm0 8.322h-41.558v3.751h41.558v-3.751Zm0 8.323h-41.558v3.751h41.558v-3.751Zm0 8.264h-41.558v3.751h41.558v-3.751Zm0 8.322h-41.558v3.751h41.558v-3.751Zm0 8.264h-41.558v3.751h41.558v-3.751Zm0 8.323h-41.558v3.751h41.558v-3.751Zm0 8.322h-41.558v3.751h41.558v-3.751Zm0 8.264h-41.558v3.751h41.558v-3.751Zm0 8.322h-41.558v3.751h41.558v-3.751Zm0 8.323h-41.558v3.751h41.558v-3.751Zm0 8.264h-41.558v3.751h41.558v-3.751Zm0 8.322h-41.558v3.751h41.558v-3.751Z" fill="#49D8F7"/><path d="M618.337 405.124h-19.05v8.264h19.05v-8.264Z" fill="#003659"/><path opacity=".19" d="M623.554 389.124h-29.601v209.644h29.601V389.124Z" fill="#723E73"/><path d="M752.097 295.291h-95.601v328.913h95.601V295.291Z" fill="#49D8F7"/><path d="M656.437 295.291h-21.043v328.913h21.043V295.291Z" fill="#5566C5"/><path d="M752.097 305.372h-95.601v2.93h95.601v-2.93Zm0 12.894h-95.601v2.93h95.601v-2.93Zm0 12.893h-95.601v2.931h95.601v-2.931Zm0 12.895h-95.601v2.93h95.601v-2.93Zm0 12.894h-95.601v2.93h95.601v-2.93Zm0 12.894h-95.601v2.93h95.601v-2.93Zm0 12.893h-95.601v2.931h95.601v-2.931Zm0 12.895h-95.601v2.93h95.601v-2.93Zm0 12.893h-95.601v2.931h95.601v-2.931Zm0 12.953h-95.601v2.931h95.601v-2.931Zm0 12.894h-95.601v2.93h95.601v-2.93Zm0 12.894h-95.601v2.93h95.601v-2.93Zm0 12.894h-95.601v2.931h95.601v-2.931Zm0 12.894h-95.601v2.93h95.601v-2.93Zm0 12.894h-95.601v2.93h95.601v-2.93Zm0 12.894h-95.601v2.93h95.601v-2.93Zm0 12.894h-95.601v2.93h95.601v-2.93Zm0 12.894h-95.601v2.93h95.601v-2.93Zm0 12.952h-95.601v2.931h95.601v-2.931Zm0 12.894h-95.601v2.931h95.601v-2.931Zm0 12.894h-95.601v2.931h95.601v-2.931Zm0 12.894h-95.601v2.931h95.601v-2.931Zm0 12.894h-95.601v2.931h95.601v-2.931Zm0 12.894h-95.601v2.931h95.601v-2.931Zm0 12.894h-95.601v2.931h95.601v-2.931Z" opacity=".6" fill="#5566C5"/><path d="M752.097 295.291h-42.73v328.913h42.73V295.291Z" fill="#723E73" style="mix-blend-mode:multiply" opacity=".36"/><path d="M703.505 295.291h-7.737v328.913h7.737V295.291Zm-14.009 0h-16.998v328.913h16.998V295.291Z" fill="#5566C5" style="mix-blend-mode:screen" opacity=".3"/><path opacity=".3" d="M709.366 528.437v95.767h-73.972V454.473c40.855 0 73.972 33.114 73.972 73.964Z" fill="#5566C5"/><path d="M648.524 302.324h-8.206v19.282h8.206v-19.282Z" fill="#49D8F7"/><path d="M672.967 531.544H537.683v92.66h135.284v-92.66Z" fill="#fff"/><path d="M679.063 543.969H531.528v68.924h147.535v-68.924Z" fill="#49D8F7"/><path opacity=".36" d="M679.063 597.655H531.528v7.326h147.535v-7.326Zm0-15.004H531.528v7.326h147.535v-7.326Zm0-15.063H531.528v7.326h147.535v-7.326Zm0-15.297H531.528v7.326h147.535v-7.326Z" fill="#49D8F7"/><path d="M570.39 616.703h-26.787v7.501h26.787v-7.501Zm32.707 0H576.31v7.501h26.787v-7.501Zm32.298 0h-26.788v7.501h26.788v-7.501Zm33.117 0h-26.787v7.501h26.787v-7.501Z" fill="#49D8F7"/><path d="M532.818 543.969h-1.29v68.924h1.29v-68.924Zm9.144 0h-1.29v68.924h1.29v-68.924Zm9.203 0h-1.29v68.924h1.29v-68.924Zm9.202 0h-1.289v68.924h1.289v-68.924Zm9.144 0h-1.29v68.924h1.29v-68.924Zm9.202 0h-1.289v68.924h1.289v-68.924Zm9.203 0h-1.29v68.924h1.29v-68.924Zm9.144 0h-1.289v68.924h1.289v-68.924Zm9.203 0h-1.29v68.924h1.29v-68.924Zm9.202 0h-1.289v68.924h1.289v-68.924Zm9.144 0h-1.289v68.924h1.289v-68.924Zm9.203 0h-1.29v68.924h1.29v-68.924Zm9.203 0h-1.29v68.924h1.29v-68.924Zm9.143 0h-1.289v68.924h1.289v-68.924Zm9.203 0h-1.29v68.924h1.29v-68.924Zm9.202 0h-1.289v68.924h1.289v-68.924Zm9.145 0h-1.29v68.924h1.29v-68.924Z" fill="#fff"/><path opacity=".3" d="M679.707 543.969h-73.444v68.924h73.444v-68.924Z" fill="#723E73"/><path d="M127.683 500.618v-17.745H92.649v147.68h52.058V514.026l-17.024-13.408Z" fill="#49AAF7"/><path d="M110.199 500.618v-17.745H75.165v147.68h51.992V514.026l-16.958-13.408Z" fill="#BDE0F4"/><path d="M122.818 500.618v-17.745h-4.141v17.745l17.025 13.408v116.527h4.075V514.026l-16.959-13.408Z" fill="#5566C5"/><path d="M78.188 491.286h1.446v139.333h-1.446V491.286Zm2.958 0h1.446v139.333h-1.446V491.286Zm2.892 0h1.446v139.333h-1.446V491.286Zm2.958 0h1.446v139.333h-1.446V491.286Zm2.892 0h1.446v139.333h-1.446V491.286Zm2.892 0h1.446v139.333H92.78V491.286Zm2.958 0h1.446v139.333h-1.446V491.286Zm2.892 0h1.446v139.333H98.63V491.286Zm2.958 0h1.446v139.333h-1.446V491.286Zm2.892 0h1.446v139.333h-1.446V491.286Zm5.85 16.299h1.446v122.968h-1.446V507.585Zm2.892 4.075h1.446v118.893h-1.446V511.66Zm2.958 4.403h1.446v114.49h-1.446v-114.49Zm2.892 4.207h1.446v110.283h-1.446V520.27Z" fill="#49AAF7"/><path d="M122.03 520.27h1.446v110.283h-1.446V520.27ZM-9.15 538.457h43.042V449.89H-9.15v88.567Z" fill="#BDE0F4"/><path d="M.315 449.89h24.012v88.567H.315V449.89Z" fill="#49AAF7"/><path d="M.315 449.89h24.012v3.786H.315v-3.786Zm0 6.774h24.012v3.786H.315v-3.786Zm0 6.875h24.012v3.785H.315v-3.785Zm0 6.774h24.012v3.786H.315v-3.786Zm0 6.874h24.012v3.786H.315v-3.786Zm0 6.775h24.012v3.786H.315v-3.786Zm0 6.874h24.012v3.786H.315v-3.786Zm0 6.774h24.012v3.786H.315v-3.786Zm0 6.775h24.012v3.786H.315v-3.786Zm0 6.874h24.012v3.786H.315v-3.786Zm0 6.775h24.012v3.785H.315v-3.785Zm0 6.874h24.012v3.785H.315v-3.785Zm0 6.774h24.012v3.786H.315v-3.786ZM29.11 449.89h4.782v3.786H29.11v-3.786Zm0 6.774h4.782v3.786H29.11v-3.786Zm0 6.875h4.782v3.785H29.11v-3.785Zm0 6.774h4.782v3.786H29.11v-3.786Zm0 6.874h4.782v3.786H29.11v-3.786Zm0 6.775h4.782v3.786H29.11v-3.786Zm0 6.874h4.782v3.786H29.11v-3.786Zm0 6.774h4.782v3.786H29.11v-3.786Zm0 6.775h4.782v3.786H29.11v-3.786Zm0 6.874h4.782v3.786H29.11v-3.786Zm0 6.775h4.782v3.785H29.11v-3.785Zm0 6.874h4.782v3.785H29.11v-3.785Zm0 6.774h4.782v3.786H29.11v-3.786Z" fill="#BDE0F4"/><path d="M33.892 449.89h16.34v88.567h-16.34V449.89Z" fill="#49AAF7"/><path d="M39.073 449.89h6.875v85.578h-6.875V449.89Z" fill="#49AAF7"/><path d="M39.073 449.89h6.875v3.786h-6.875v-3.786Zm0 6.774h6.875v3.786h-6.875v-3.786Zm0 6.875h6.875v3.785h-6.875v-3.785Zm0 6.774h6.875v3.786h-6.875v-3.786Zm0 6.874h6.875v3.786h-6.875v-3.786Zm0 6.775h6.875v3.786h-6.875v-3.786Zm0 6.874h6.875v3.786h-6.875v-3.786Zm0 6.774h6.875v3.786h-6.875v-3.786Zm0 6.775h6.875v3.786h-6.875v-3.786Zm0 6.874h6.875v3.786h-6.875v-3.786Zm0 6.775h6.875v3.785h-6.875v-3.785Zm0 6.874h6.875v3.785h-6.875v-3.785Zm0 6.774h6.875v3.786h-6.875v-3.786ZM10.976 449.89h2.79v85.578h-2.79V449.89Z" fill="#49AAF7"/><path d="M-9.15 538.457h43.042v88.268H-9.15v-88.268Z" fill="#BDE0F4"/><path d="M.315 538.457h24.012v88.268H.315v-88.268Z" fill="#49AAF7"/><path d="M.315 538.457h24.012v3.387H.315v-3.387Zm0 6.475h24.012v3.786H.315v-3.786Zm0 6.875h24.012v3.785H.315v-3.785Zm0 6.774h24.012v3.786H.315v-3.786Zm0 6.874h24.012v3.786H.315v-3.786Zm0 6.775h24.012v3.785H.315v-3.785Zm0 6.874h24.012v3.786H.315v-3.786Zm0 6.774h24.012v3.786H.315v-3.786Zm0 6.875h24.012v3.785H.315v-3.785Zm0 6.774h24.012v3.786H.315v-3.786Zm0 6.775h24.012v3.785H.315v-3.785Zm0 6.874h24.012v3.786H.315v-3.786Zm0 6.774h24.012v3.786H.315v-3.786Zm28.795-81.493h4.782v3.387H29.11v-3.387Zm0 6.475h4.782v3.786H29.11v-3.786Zm0 6.875h4.782v3.785H29.11v-3.785Zm0 6.774h4.782v3.786H29.11v-3.786Zm0 6.874h4.782v3.786H29.11v-3.786Zm0 6.775h4.782v3.785H29.11v-3.785Zm0 6.874h4.782v3.786H29.11v-3.786Zm0 6.774h4.782v3.786H29.11v-3.786Zm0 6.875h4.782v3.785H29.11v-3.785Zm0 6.774h4.782v3.786H29.11v-3.786Zm0 6.775h4.782v3.785H29.11v-3.785Zm0 6.874h4.782v3.786H29.11v-3.786Zm0 6.774h4.782v3.786H29.11v-3.786Z" fill="#BDE0F4"/><path d="M33.892 538.457h16.34v88.268h-16.34v-88.268Z" fill="#49AAF7"/><path d="M39.073 538.457h6.875v85.18h-6.875v-85.18Z" fill="#49AAF7"/><path d="M39.073 538.457h6.875v3.387h-6.875v-3.387Zm0 6.475h6.875v3.786h-6.875v-3.786Zm0 6.875h6.875v3.785h-6.875v-3.785Zm0 6.774h6.875v3.786h-6.875v-3.786Zm0 6.874h6.875v3.786h-6.875v-3.786Zm0 6.775h6.875v3.785h-6.875v-3.785Zm0 6.874h6.875v3.786h-6.875v-3.786Zm0 6.774h6.875v3.786h-6.875v-3.786Zm0 6.875h6.875v3.785h-6.875v-3.785Zm0 6.774h6.875v3.786h-6.875v-3.786Zm0 6.775h6.875v3.785h-6.875v-3.785Zm0 6.874h6.875v3.786h-6.875v-3.786Zm0 6.774h6.875v3.786h-6.875v-3.786Zm-28.097-81.493h2.79v85.279h-2.79v-85.279Z" fill="#49AAF7"/><path d="M-9.15 626.725h43.042v6.974H-9.15v-6.974Z" fill="#BDE0F4"/><path d="M.315 626.725h24.012v6.974H.315v-6.974Z" fill="#49AAF7"/><path d="M.315 626.725h24.012v3.387H.315v-3.387Zm0 6.475h24.012v.499H.315v-.499Zm28.795-6.475h4.782v3.387H29.11v-3.387Zm0 6.475h4.782v.499H29.11v-.499Z" fill="#BDE0F4"/><path d="M33.892 626.227h16.34v7.472h-16.34v-7.472Z" fill="#49AAF7"/><path d="M39.073 626.725h6.875v6.974h-6.875v-6.974Z" fill="#49AAF7"/><path d="M39.073 626.725h6.875v3.387h-6.875v-3.387Zm0 6.475h6.875v.499h-6.875v-.499Zm-28.097-6.475h2.79v6.974h-2.79v-6.974Z" fill="#49AAF7"/><path d="M-9.25 444.51h59.482v5.38H-9.25v-5.38Zm0-.199h59.482v.199H-9.25v-.199Z" fill="#BDE0F4"/><path d="M33.892 444.51h16.34v5.38h-16.34v-5.38Zm0-.199h16.34v.199h-16.34v-.199Zm16.539-16.339h29.99v205.727h-29.99V427.972Zm29.991 0h42.445v205.727H80.422V427.972Z" fill="#BDE0F4"/><path d="M50.531 427.972h29.89v205.727h-29.89V427.972Z" fill="#BDE0F4"/><path d="M80.422 427.972h42.445v205.727H80.422V427.972Z" fill="#003659"/><path d="M78.13 430.662h11.16v3.786H78.13v-3.786Zm37.862 0h11.159v3.786h-11.159v-3.786Z" fill="#BDE0F4"/><path d="M70.26 430.662h7.97v3.786h-7.97v-3.786Zm-23.714 0h7.971v3.786h-7.97v-3.786Zm31.584 6.575h11.16v3.786H78.13v-3.786Zm37.862 0h11.159v3.786h-11.159v-3.786Z" fill="#BDE0F4"/><path d="M70.26 437.237h7.97v3.786h-7.97v-3.786Zm-23.714 0h7.971v3.786h-7.97v-3.786Zm31.584 6.575h11.16v3.786H78.13v-3.786Zm37.862 0h11.159v3.786h-11.159v-3.786Z" fill="#BDE0F4"/><path d="M70.26 443.812h7.97v3.786h-7.97v-3.786Zm-23.714 0h7.971v3.786h-7.97v-3.786Zm31.584 6.576h11.16v3.786H78.13v-3.786Zm37.862 0h11.159v3.786h-11.159v-3.786Z" fill="#BDE0F4"/><path d="M70.26 450.388h7.97v3.786h-7.97v-3.786Zm-23.714 0h7.971v3.786h-7.97v-3.786Zm31.584 6.575h11.16v3.786H78.13v-3.786Zm37.862 0h11.159v3.786h-11.159v-3.786Z" fill="#BDE0F4"/><path d="M70.26 456.963h7.97v3.786h-7.97v-3.786Zm-23.714 0h7.971v3.786h-7.97v-3.786Zm31.584 6.476h11.16v3.786H78.13v-3.786Zm37.862 0h11.159v3.786h-11.159v-3.786Z" fill="#BDE0F4"/><path d="M70.26 463.439h7.97v3.786h-7.97v-3.786Zm-23.714 0h7.971v3.786h-7.97v-3.786Zm31.584 6.575h11.16v3.786H78.13v-3.786Zm37.862 0h11.159v3.786h-11.159v-3.786Z" fill="#BDE0F4"/><path d="M70.26 470.014h7.97v3.786h-7.97v-3.786Zm-23.714 0h7.971v3.786h-7.97v-3.786Zm31.584 6.575h11.16v3.786H78.13v-3.786Zm37.862 0h11.159v3.786h-11.159v-3.786Z" fill="#BDE0F4"/><path d="M70.26 476.589h7.97v3.786h-7.97v-3.786Zm-23.714 0h7.971v3.786h-7.97v-3.786Zm31.584 6.576h11.16v3.785H78.13v-3.785Zm37.862 0h11.159v3.785h-11.159v-3.785Z" fill="#BDE0F4"/><path d="M70.26 483.165h7.97v3.785h-7.97v-3.785Zm-23.714 0h7.971v3.785h-7.97v-3.785Zm31.584 6.475h11.16v3.786H78.13v-3.786Zm37.862.001h11.159v3.785h-11.159v-3.785Z" fill="#BDE0F4"/><path d="M70.26 489.64h7.97v3.786h-7.97v-3.786Zm-23.714 0h7.971v3.786h-7.97v-3.786Zm31.584 6.576h11.16v3.785H78.13v-3.785Zm37.862-.001h11.159v3.786h-11.159v-3.786Z" fill="#BDE0F4"/><path d="M70.26 496.216h7.97v3.785h-7.97v-3.785Zm-23.714 0h7.971v3.785h-7.97v-3.785Zm31.584 6.575h11.16v3.786H78.13v-3.786Zm37.862 0h11.159v3.786h-11.159v-3.786Z" fill="#BDE0F4"/><path d="M70.26 502.791h7.97v3.786h-7.97v-3.786Zm-23.714 0h7.971v3.786h-7.97v-3.786Zm31.584 6.575h11.16v3.786H78.13v-3.786Zm37.862 0h11.159v3.786h-11.159v-3.786Z" fill="#BDE0F4"/><path d="M70.26 509.366h7.97v3.786h-7.97v-3.786Zm-23.714 0h7.971v3.786h-7.97v-3.786Zm31.584 6.576h11.16v3.785H78.13v-3.785Zm37.862 0h11.159v3.785h-11.159v-3.785Z" fill="#BDE0F4"/><path d="M70.26 515.942h7.97v3.785h-7.97v-3.785Zm-23.714 0h7.971v3.785h-7.97v-3.785Zm31.584 6.475h11.16v3.786H78.13v-3.786Zm37.862 0h11.159v3.786h-11.159v-3.786Z" fill="#BDE0F4"/><path d="M70.26 522.417h7.97v3.786h-7.97v-3.786Zm-23.714 0h7.971v3.786h-7.97v-3.786Zm31.584 6.575h11.16v3.786H78.13v-3.786Zm37.862 0h11.159v3.786h-11.159v-3.786Z" fill="#BDE0F4"/><path d="M70.26 528.992h7.97v3.786h-7.97v-3.786Zm-23.714 0h7.971v3.786h-7.97v-3.786Zm31.584 6.576h11.16v3.786H78.13v-3.786Zm37.862 0h11.159v3.785h-11.159v-3.785Z" fill="#BDE0F4"/><path d="M70.26 535.568h7.97v3.786h-7.97v-3.786Zm-23.714 0h7.971v3.786h-7.97v-3.786Zm31.584 6.575h11.16v3.786H78.13v-3.786Zm37.862 0h11.159v3.786h-11.159v-3.786Z" fill="#BDE0F4"/><path d="M70.26 542.143h7.97v3.786h-7.97v-3.786Zm-23.714 0h7.971v3.786h-7.97v-3.786Zm31.584 6.575h11.16v3.786H78.13v-3.786Zm37.862 0h11.159v3.786h-11.159v-3.786Z" fill="#BDE0F4"/><path d="M70.26 548.718h7.97v3.786h-7.97v-3.786Zm-23.714 0h7.971v3.786h-7.97v-3.786Zm31.584 6.476h11.16v3.786H78.13v-3.786Zm37.862 0h11.159v3.786h-11.159v-3.786Z" fill="#BDE0F4"/><path d="M70.26 555.194h7.97v3.786h-7.97v-3.786Zm-23.714 0h7.971v3.786h-7.97v-3.786Zm31.584 6.575h11.16v3.786H78.13v-3.786Zm37.862 0h11.159v3.786h-11.159v-3.786Z" fill="#BDE0F4"/><path d="M70.26 561.769h7.97v3.786h-7.97v-3.786Zm-23.714 0h7.971v3.786h-7.97v-3.786Zm31.584 6.575h11.16v3.786H78.13v-3.786Zm37.862 0h11.159v3.786h-11.159v-3.786Z" fill="#BDE0F4"/><path d="M70.26 568.344h7.97v3.786h-7.97v-3.786Zm-23.714 0h7.971v3.786h-7.97v-3.786Zm31.584 6.576h11.16v3.785H78.13v-3.785Zm37.862 0h11.159v3.785h-11.159v-3.785Z" fill="#BDE0F4"/><path d="M70.26 574.92h7.97v3.785h-7.97v-3.785Zm-23.714 0h7.971v3.785h-7.97v-3.785Zm31.584 6.575h11.16v3.786H78.13v-3.786Zm37.862 0h11.159v3.786h-11.159v-3.786Z" fill="#BDE0F4"/><path d="M70.26 581.495h7.97v3.786h-7.97v-3.786Zm-23.714 0h7.971v3.786h-7.97v-3.786Zm31.584 6.476h11.16v3.786H78.13v-3.786Zm37.862 0h11.159v3.785h-11.159v-3.785Z" fill="#BDE0F4"/><path d="M70.26 587.971h7.97v3.786h-7.97v-3.786Zm-23.714 0h7.971v3.786h-7.97v-3.786Zm31.584 6.575h11.16v3.786H78.13v-3.786Zm37.862 0h11.159v3.786h-11.159v-3.786Z" fill="#BDE0F4"/><path d="M70.26 594.546h7.97v3.786h-7.97v-3.786Zm-23.714 0h7.971v3.786h-7.97v-3.786Zm31.584 6.575h11.16v3.786H78.13v-3.786Zm37.862 0h11.159v3.786h-11.159v-3.786Z" fill="#BDE0F4"/><path d="M70.26 601.121h7.97v3.786h-7.97v-3.786Zm-23.714 0h7.971v3.786h-7.97v-3.786Zm31.584 6.575h11.16v3.786H78.13v-3.786Zm37.862 0h11.159v3.786h-11.159v-3.786Z" fill="#BDE0F4"/><path d="M70.26 607.696h7.97v3.786h-7.97v-3.786Zm-23.714 0h7.971v3.786h-7.97v-3.786Zm31.584 6.476h11.16v3.786H78.13v-3.786Zm37.862 0h11.159v3.786h-11.159v-3.786Z" fill="#BDE0F4"/><path d="M70.26 614.172h7.97v3.786h-7.97v-3.786Zm-23.714 0h7.971v3.786h-7.97v-3.786Zm31.584 6.575h11.16v3.786H78.13v-3.786Zm37.862 0h11.159v3.786h-11.159v-3.786Z" fill="#BDE0F4"/><path d="M70.26 620.747h7.97v3.786h-7.97v-3.786Zm-23.714 0h7.971v3.786h-7.97v-3.786Zm31.584 6.576h11.16v3.785H78.13v-3.785Zm37.862 0h11.159v3.785h-11.159v-3.785Z" fill="#BDE0F4"/><path d="M70.26 627.323h7.97v3.785h-7.97v-3.785Zm-23.714 0h7.971v3.785h-7.97v-3.785Z" fill="#BDE0F4"/><path d="M94.87 427.972h16.638v202.439H94.869V427.972Zm-37.464 0h10.362v203.136H57.406V427.972Z" fill="#003659"/><path d="M-17.05 431.197v-21.291h-42.035v177.189h62.46V447.284l-20.425-16.087Zm131.582 23.175v-23.875h47.137v198.698H91.626V472.412l22.906-18.04Z" fill="#49AAF7"/><path d="M138.056 454.372v-23.875h47.137v198.698h-69.954V472.412l22.817-18.04Z" fill="#BDE0F4"/><path d="M121.076 454.372v-23.875h5.572v23.875l-22.906 18.04v156.783h-5.483V472.412l22.817-18.04Z" fill="#5566C5"/><path d="M181.125 441.816h-1.946v187.467h1.946V441.816Zm-3.98 0H175.2v187.467h1.945V441.816Zm-3.891 0h-1.946v187.467h1.946V441.816Zm-3.98 0h-1.945v187.467h1.945V441.816Zm-3.891 0h-1.945v187.467h1.945V441.816Zm-3.891 0h-1.946v187.467h1.946V441.816Zm-3.979 0h-1.946v187.467h1.946V441.816Zm-3.893 0h-1.945v187.467h1.945V441.816Zm-3.979 0h-1.946v187.467h1.946V441.816Zm-3.891 0h-1.946v187.467h1.946V441.816Zm-7.871 21.93h-1.945v165.448h1.945V463.746Zm-3.891 5.482h-1.946v159.967h1.946V469.228Zm-3.98 5.925h-1.946v154.042h1.946V475.153Zm-3.891 5.659h-1.946v148.383h1.946V480.812Z" fill="#49AAF7"/><path d="M122.137 480.812h-1.946v148.383h1.946V480.812Z" fill="#BDE0F4"/><path d="M815.571 449.433h-78.896v174.83h78.896v-174.83Z" fill="#5566C5"/><path d="M815.629 475.338h-86.574v148.925h86.574V475.338Z" fill="#5566C5"/><path d="M815.629 480.495h-86.574v5.627h86.574v-5.627Zm0 10.667h-86.574v5.627h86.574v-5.627Zm0 10.609h-86.574v5.626h86.574v-5.626Zm0 10.608h-86.574v5.626h86.574v-5.626Zm0 10.667h-86.574v5.626h86.574v-5.626Zm0 10.608h-86.574v5.626h86.574v-5.626Zm0 10.608h-86.574v5.626h86.574v-5.626Zm0 10.667h-86.574v5.626h86.574v-5.626Zm0 10.608h-86.574v5.626h86.574v-5.626Zm0 10.608h-86.574v5.627h86.574v-5.627Zm0 10.667h-86.574v5.626h86.574v-5.626Zm0 10.608h-86.574v5.627h86.574v-5.627Zm0 10.609h-86.574v5.626h86.574v-5.626Zm0 10.666h-86.574v5.627h86.574v-5.627Z" fill="#49D8F7"/><path d="M736.675 449.433h-7.62v25.905h7.62v-25.905Z" fill="#003659"/><path d="M766.627 449.433h-71.804v174.83h71.804v-174.83Z" fill="#5566C5"/><path d="M775.654 475.338h-80.831v148.925h80.831V475.338Z" fill="#5566C5"/><path d="M775.654 480.495h-80.831v5.627h80.831v-5.627Zm0 10.667h-80.831v5.627h80.831v-5.627Zm0 10.608h-80.831v5.627h80.831v-5.627Zm0 10.609h-80.831v5.626h80.831v-5.626Zm0 10.667h-80.831v5.626h80.831v-5.626Zm0 10.608h-80.831v5.626h80.831v-5.626Zm0 10.608h-80.831v5.626h80.831v-5.626Zm0 10.667h-80.831v5.626h80.831v-5.626Zm0 10.608h-80.831v5.626h80.831v-5.626Zm0 10.608h-80.831v5.627h80.831v-5.627Zm0 10.667h-80.831v5.626h80.831v-5.626Zm0 10.608h-80.831v5.627h80.831v-5.627Zm0 10.608h-80.831v5.627h80.831v-5.627Zm0 10.667h-80.831v5.627h80.831v-5.627Z" fill="#49D8F7"/><path opacity=".27" d="M702.443 449.433h-7.62v174.83h7.62v-174.83Z" fill="#003659"/><path opacity=".27" d="M775.712 449.433h-9.026v174.83h9.026v-174.83Z" fill="#fff"/><path d="M722.255 455.528h-14.36v16.059h14.36v-16.059Zm34.114 0h-28.545v3.692h28.545v-3.692Zm0 6.154h-28.545v3.692h28.545v-3.692Zm0 6.213h-28.545v3.692h28.545v-3.692Z" fill="#003659"/><path d="M522.15 253.269h-80.889V624.38h80.889V253.269Z" fill="#49D8F7"/><path d="M585.278 253.269H522.15V624.38h63.128V253.269Z" fill="#003659"/><path d="M585.22 290.427h-54.453V624.38h54.453V290.427Z" fill="#C0BDF4"/><path d="M564.294 253.269h-29.131V624.38h29.131V253.269Z" fill="#49D8F7"/><path d="M635.512 253.269h-84.113V624.38h84.113V253.269Z" fill="#003659"/><path d="M522.15 266.573h-80.889v12.249h80.889v-12.249Zm113.303 0h-100.29v12.249h100.29v-12.249ZM522.15 290.427h-80.889v12.249h80.889v-12.249Zm113.303 0h-100.29v12.249h100.29v-12.249ZM522.15 314.281h-80.889v12.249h80.889v-12.249Zm113.303 0h-100.29v12.249h100.29v-12.249ZM522.15 338.134h-80.889v12.25h80.889v-12.25Zm113.303 0h-100.29v12.25h100.29v-12.25ZM522.15 361.988h-80.889v12.249h80.889v-12.249Zm113.303 0h-100.29v12.249h100.29v-12.249ZM522.15 385.842h-80.889v12.249h80.889v-12.249Zm113.303 0h-100.29v12.249h100.29v-12.249ZM522.15 409.696h-80.889v12.249h80.889v-12.249Zm113.303 0h-100.29v12.249h100.29v-12.249ZM522.15 433.55h-80.889v12.249h80.889V433.55Zm113.303 0h-100.29v12.249h100.29V433.55ZM522.15 457.403h-80.889v12.25h80.889v-12.25Zm113.303 0h-100.29v12.25h100.29v-12.25ZM522.15 481.257h-80.889v12.249h80.889v-12.249Zm113.303 0h-100.29v12.249h100.29v-12.249ZM522.15 505.111h-80.889v12.191h80.889v-12.191Zm113.303 0h-100.29v12.191h100.29v-12.191ZM522.15 528.965h-80.889v12.191h80.889v-12.191Zm113.303 0h-100.29v12.191h100.29v-12.191ZM522.15 552.819h-80.889v12.19h80.889v-12.19Zm113.303 0h-100.29v12.19h100.29v-12.19ZM522.15 576.673h-80.889v12.19h80.889v-12.19Zm113.303 0h-100.29v12.19h100.29v-12.19ZM522.15 600.526h-80.889v12.191h80.889v-12.191Zm113.303 0h-100.29v12.191h100.29v-12.191Z" opacity=".23" fill="#003659"/><path opacity=".06" d="M635.453 299.98v126.536l-84.054 194.172V494.151l84.054-194.171Zm0 223.652v-61.774L565.056 624.38h26.787l43.61-100.748Z" fill="#fff"/><path d="M635.511 253.269h-194.25V624.38h194.25V253.269Z" fill="url(#d)" style="mix-blend-mode:multiply" opacity=".4"/><path d="M551.399 253.269s-4.397 77.891-56.505 106.609c-40.328 22.154-53.516 89.672-53.516 89.672l-.117-196.281h110.138Z" fill="#FEEDC5" style="mix-blend-mode:overlay" opacity=".61"/><path d="M549.574 608.673v3.341c-2.93-1.524-5.627-3.458-8.088-5.744-.821-.762-2.052.469-1.231 1.231 1.231 1.172 2.579 2.286 3.985 3.224a15.177 15.177 0 0 1-5.568-1.993c-.996-.586-1.876.938-.879 1.524 2.755 1.641 5.861 2.461 9.027 2.344.117 0 .175 0 .234-.059.821.469 1.641.938 2.462 1.348v16.176c0 2.638 4.103 2.638 4.103 0v-21.392c.059-2.637-4.045-2.637-4.045 0Zm59.495-2.344v4.865c-4.807-1.29-9.32-3.283-13.54-5.92-.938-.586-1.818.938-.88 1.524 2.638 1.641 5.334 3.048 8.148 4.161-8.206 1.583-15.709-.41-23.505-3.282-1.055-.41-1.524 1.289-.469 1.7 8.793 3.223 17.233 5.274 26.494 2.813l.352-.176c1.114.352 2.227.703 3.4.996v15.297c0 1.876 2.93 1.876 2.93 0v-21.978c0-1.876-2.93-1.876-2.93 0Zm28.78-2.344c-2.873 1.816-5.803 3.633-8.675 5.45-2.052 1.29-4.162 2.696-6.272 3.927v-7.033c0-4.161-6.448-4.161-6.448 0v20.22c0 4.161 6.448 4.161 6.448 0v-11.136c5.51-2.754 10.785-6.681 15.884-9.905.88-.586 0-2.11-.937-1.523Zm25.966 2.754c-1.641 1.641-3.517 2.931-5.51 4.103-1.348.762-2.931 1.817-4.513 2.403 2.462-2.52 4.689-5.275 6.623-8.323.587-.937-.937-1.817-1.524-.879-2.344 3.751-5.216 7.092-8.499 10.022v-8.381c0-3.047-4.689-3.047-2.344 0v22.858c-2.345 3.047 2.344 3.047 2.344 0v-12.191c.293-.234.586-.527.938-.82 2.579-.118 4.865-1.583 7.092-2.814 2.462-1.289 4.69-2.871 6.624-4.806.821-.703-.469-1.992-1.231-1.172Zm11.021.059a15.964 15.964 0 0 1-3.341 6.212v-7.853c0-3.048-4.689-3.048-2.345 0v24.322c-2.344 3.048 2.345 3.048 2.345 0V615.53c2.403-2.285 4.103-5.04 5.041-8.263.293-1.114-1.407-1.524-1.7-.469Z" fill="#3A95A8"/><path d="M679.408 606.915v4.513c-.821-.586-1.465-1.29-1.641-2.227-.176-1.114-1.876-.645-1.7.468.293 1.7 1.817 2.989 3.341 3.81v15.062c0 1.876 2.931 1.876 2.931 0v-21.685c0-1.817-2.931-1.817-2.931.059Zm25.791-3.399c-2.521 4.337-8.089 7.443-13.013 9.67 1.29-1.875 2.345-3.985 2.696-6.154.176-1.114-1.524-1.582-1.699-.469-.411 2.638-1.876 5.041-3.517 7.15v-5.333c0-1.875-2.931-1.875-1.759 0v18.755c-1.172 1.875 1.759 1.875 1.759 0v-10.726c.117-.117.175-.234.293-.351.058 0 .176-.059.234-.059 5.686-2.461 13.306-6.036 16.588-11.604.528-.938-.996-1.817-1.582-.879Zm-171.744 1.641v7.326c-1.113-.586-2.286-.996-3.458-1.524-1.524-.703-2.989-1.465-4.513-2.227-.997-.527-1.876.996-.88 1.524 1.29.645 2.579 1.348 3.928 1.993 1.465.703 3.106 1.172 4.454 2.051.176.117.293.117.469.117v13.89c0 1.876 2.931 1.876 2.931 0v-23.15c0-1.876-2.931-1.876-2.931 0Z" fill="#3A95A8"/><path d="M635.036 610.431H473.903c0-37.334 24.267-67.576 54.16-67.576 4.045 0 8.031.586 11.841 1.641 4.278-4.161 8.968-7.619 14.009-10.139 6.564-3.341 13.657-5.158 21.101-5.158 33.118-.058 60.022 36.338 60.022 81.232Z" fill="#3D213D"/><path d="M635.036 610.431H473.903c0-37.334 24.267-67.576 54.16-67.576 4.045 0 8.031.586 11.841 1.641 4.278-4.161 8.968-7.619 14.009-10.139 6.564-3.341 13.657-5.158 21.101-5.158 33.118-.058 60.022 36.338 60.022 81.232Z" fill="url(#e)"/><path opacity=".43" d="m553.854 534.357-36.635 76.133h-43.375c0-37.334 24.267-67.576 54.161-67.576 4.044 0 8.03.586 11.84 1.641 4.337-4.279 9.027-7.678 14.009-10.198Z" fill="#FEEDC5"/><path d="M162.422 614.827c15.442 0 27.96-12.516 27.96-27.956s-12.518-27.957-27.96-27.957c-15.441 0-27.959 12.517-27.959 27.957 0 15.44 12.518 27.956 27.959 27.956Z" fill="#723E73"/><path d="M234.46 609.962c15.442 0 27.96-12.516 27.96-27.956s-12.518-27.957-27.96-27.957c-15.441 0-27.959 12.517-27.959 27.957 0 15.44 12.518 27.956 27.959 27.956Z" fill="#3A95A8"/><path d="M637.908 551.119v5.978l3.693 1.934 5.568-4.63 3.635-2.579v-5.978l-12.896 5.275Z" fill="#C0BDF4"/><path d="M626.041 624.289h7.386v-74.902h-7.386v74.902Z" fill="#3D213D"/><path d="M622.844 548.54v5.978l3.693 1.935 5.568-2.286 3.693-4.982v-5.919l-12.954 5.274Z" fill="#3D213D"/><path d="m650.803 545.844-15.005-2.578v5.919l15.005 2.637v-5.978Z" fill="#C0BDF4"/><path d="m629.292 545.903-3.283 11.136v-.879l-3.165-1.642v-5.978l6.448-2.637Z" fill="#3D213D"/><path d="m633.395 552.35 13.775 2.051 3.634-2.579-15.006-2.637-2.403 3.165Z" fill="#3D91D4"/><path d="M739.898 568.409v4.571l2.814 1.465 4.338-3.575 2.754-1.934v-4.571l-9.906 4.044Z" fill="#C0BDF4"/><path d="M730.896 624.295h5.627v-57.261h-5.627v57.261Z" fill="#3D213D"/><path d="M728.41 566.416v4.572l2.814 1.465 4.279-1.758 2.813-3.751v-4.572l-9.906 4.044Z" fill="#3D213D"/><path d="m749.804 564.365-11.488-1.993v4.571l11.488 1.993v-4.571Z" fill="#C0BDF4"/><path d="m733.334 564.365-2.521 8.557v-.704l-2.403-1.231v-4.571l4.924-2.051Z" fill="#3D213D"/><path d="m736.499 569.346 10.551 1.524 2.755-1.934-11.489-1.993-1.817 2.403Z" fill="#3D91D4"/><path d="M1435.07 624.197H-507.577v111.886H1435.07V624.197Z" fill="#3A95A8"/><path d="m696.699 636.512-135.108 18.931-140.623 77.075 1041.252 6.033-.82-76.785-764.701-25.254Z" fill="#4DB0A5"/><path d="M311.598 602.461c18.517 0 33.528-14.144 33.528-31.591 0-17.446-15.011-31.59-33.528-31.59s-33.528 14.144-33.528 31.59c0 17.447 15.011 31.591 33.528 31.591Z" fill="#888A17"/><path d="M312.828 602.461c17.837 0 32.297-13.776 32.297-30.77s-14.46-30.77-32.297-30.77c-17.837 0-32.297 13.776-32.297 30.77s14.46 30.77 32.297 30.77Z" fill="#3D213D"/><path d="M312.828 602.461c17.837 0 32.297-13.776 32.297-30.77s-14.46-30.77-32.297-30.77c-17.837 0-32.297 13.776-32.297 30.77s14.46 30.77 32.297 30.77Z" fill="url(#f)"/><path d="M183.641 624.205H75.438V509.917l108.203-11.722v126.01Z" fill="#C0BDF4"/><path d="M183.641 624.204H75.438v-47.59l108.203-4.865v52.455Z" fill="#3D91D4"/><path d="M461.828 624.204h-671.591l285.2 21.1 386.391-21.1Z" fill="#723E73"/><path d="M89.974 558.973c-5.334 0-10.316 1.465-14.537 4.102v47.649a27.824 27.824 0 0 0 14.537 4.103c15.416 0 27.959-12.484 27.959-27.956 0-15.415-12.543-27.898-27.959-27.898Z" fill="#3A95A8"/><path d="M149.955 583.835c3.593-15.016-5.668-30.101-20.685-33.693-15.017-3.593-30.103 5.666-33.697 20.682-3.593 15.015 5.668 30.1 20.685 33.693 15.017 3.593 30.103-5.667 33.697-20.682Z" fill="#723E73"/><path d="M196.829 579.193a88.296 88.296 0 0 1-17.291 14.007v-1.699c2.696-2.931 5.334-5.92 7.796-9.085 1.348-1.758-1.114-4.278-2.462-2.461a179.982 179.982 0 0 1-5.276 6.388v-8.44c0-2.285-3.517-2.285-3.517 0v12.25c-.996 1.055-2.051 2.168-3.106 3.165v-18.169c0-3.048-4.689-3.048-4.689 0v8.205c-.118.234-.176.528-.293.762-.469 1.348-.938 2.696-1.466 3.985-1.172 3.165-2.52 6.272-3.868 9.319-1.466 3.165-3.048 6.213-5.041 9.026v-20.572c0-4.923-7.62-4.923-7.62 0v9.085a61.958 61.958 0 0 1-18.112-15.708c-.938-1.172-2.931 0-2.052 1.173 5.51 7.091 12.251 12.952 20.105 17.231v4.981c-14.478-4.337-27.549-12.425-37.983-23.443-1.055-1.114-2.696.586-1.641 1.641 10.844 11.429 24.56 19.868 39.624 24.264v38.799c0 4.923 7.62 4.923 7.62 0v-31.825a48.722 48.722 0 0 0 3.4-4.395c.351.058 5.275-3.634 7.268-5.334v39.796c0 3.047 4.689 3.047 4.689 0v-42.668c1.055-.527 2.11-1.054 3.107-1.582v45.246c0 2.286 3.517 2.286 3.517 0v-47.18c6.975-4.161 13.364-9.202 18.991-15.121.996-1.055-.645-2.755-1.7-1.641Zm-28.663 18.52c-1.055.938-2.11 1.876-3.165 2.755.352-.703.704-1.407.997-2.169.762-1.641 1.465-3.34 2.168-4.981v4.395Z" fill="#247889"/><path d="M204.332 576.907v63.298c0 2.285 3.517 2.285 3.517 0v-63.298c0-2.227-3.517-2.227-3.517 0Zm54.981 1.055c-1.993 3.985-5.334 7.209-8.382 10.432a225.086 225.086 0 0 1-7.385 7.561c2.051-4.865 3.634-9.905 4.865-15.121.351-1.465-1.935-2.11-2.286-.645-1.524 6.623-3.693 12.953-6.624 19.048v-16.645c0-2.286-3.517-2.286-3.517 0v11.077c-.527-.234-1.114-.41-1.641-.644l-7.034-2.814c-4.162-1.699-8.147-3.692-11.723-6.447-1.172-.937-2.344 1.114-1.172 2.052 3.751 2.872 7.971 4.864 12.25 6.681 2.697 1.114 5.393 2.169 8.089 3.282.352.176.762.41 1.173.586v48.763c0 2.286 3.516 2.286 3.516 0v-40.733c.704-1.29 1.349-2.638 1.993-3.986.352.059 7.855-6.916 11.079-10.373 3.165-3.341 6.682-6.741 8.733-10.902.704-1.348-1.289-2.579-1.934-1.172Z" fill="#3A95A8"/><path d="M278.07 561.61c0 9.964-2.169 19.341-6.096 27.839H75.438v-55.971c7.444-6.506 16.294-11.37 26.083-14.066 5.217-3.341 11.02-5.802 17.233-7.268 9.847-16.176 27.666-26.96 48.006-26.96 12.368 0 23.739 3.986 33.059 10.784a68.466 68.466 0 0 1 11.606-.996c5.744 0 11.312.703 16.646 2.11 28.78 7.385 49.999 33.466 49.999 64.528Z" fill="url(#g)"/><path d="m870.158 633.795-118.067-9.591h123.552l-5.485 9.591Z" fill="#3D213D"/><path d="m870.158 633.795-118.067-9.591h123.552l-5.485 9.591Z" fill="url(#h)"/><path d="M697.578 630.651v-6.447l-65.473.059 65.473 6.388Z" fill="#3D213D"/><path d="M697.578 630.651v-6.447l-65.473.059 65.473 6.388Z" fill="url(#i)"/><path d="M419.508 606.094c22.985 0 41.617-17.554 41.617-39.209 0-21.655-18.632-39.21-41.617-39.21-22.984 0-41.616 17.555-41.616 39.21s18.632 39.209 41.616 39.209Z" fill="#3A95A8"/><path d="M443.833 596.717c-.058-.059-.117-.059-.175-.117-.704-.411-1.349.703-.645 1.055-.528-.293-3.81 3.282-4.338 3.751a137.273 137.273 0 0 1-4.455 3.751l-2.286 1.758c.704-1.876 1.407-3.693 2.111-5.568.117-.235-.293-.352-.411-.117-.762 2.051-1.582 4.102-2.344 6.154a154.49 154.49 0 0 1-5.041 3.458 78.886 78.886 0 0 0 4.865-9.378c.058-.058.176-.176.176-.293l.176-.527c.234-.645-.88-1.114-1.114-.469a87.988 87.988 0 0 1-4.396 8.791c-.118-1.817-.411-6.974-.352-6.974a.206.206 0 0 0 0-.411c-.879-.058-.41 1.759-.41 2.228.117 1.934.234 3.809.41 5.743v.059c-.703 1.172-1.407 2.286-2.11 3.458v-15.473c0-1.876-2.931-1.876-2.931 0v10.608c-.645-.117-1.231-.293-1.876-.469-1.465-.41-2.813-1.055-4.161-1.758-2.521-1.348-4.807-3.048-7.093-4.747-.234-.176-.41.176-.234.351 2.169 1.641 4.396 3.224 6.799 4.572 1.055.586 2.11 1.113 3.224 1.524.645.234 1.29.469 1.993.644.41.118.879.176 1.29.352v21.978c0 1.876 2.93 1.876 2.93 0v-15.355c.469-.645.88-1.348 1.348-1.993h.059c3.751-2.286 7.386-4.864 10.844-7.619a138.688 138.688 0 0 0 5.51-4.747c.996-.938 2.93-2.11 2.989-3.575a.715.715 0 0 0-.352-.645Z" fill="#3A95A8"/><path d="M421.032 606.094c22.143 0 40.093-17.082 40.093-38.154 0-21.072-17.95-38.155-40.093-38.155-22.142 0-40.093 17.083-40.093 38.155 0 21.072 17.951 38.154 40.093 38.154Z" fill="#3A95A8"/><path d="M444.947 548.482c0 30.476-26.201 55.151-58.556 55.151-15.006 0-28.663-5.334-39.038-14.066-11.958-10.081-19.519-24.792-19.519-41.085 0-30.477 26.201-55.151 58.557-55.151 16.353 0 31.066 6.271 41.734 16.469 10.374 9.905 16.822 23.561 16.822 38.682Z" fill="#AEB11B"/><path d="M444.947 548.482c0 30.476-26.201 55.151-58.556 55.151-15.006 0-28.663-5.334-39.038-14.066-11.958-10.081-19.519-24.792-19.519-41.085 0-30.477 26.201-55.151 58.557-55.151 16.353 0 31.066 6.271 41.734 16.469 10.374 9.905 16.822 23.561 16.822 38.682Z" fill="url(#j)"/><path d="M420.681 590.387c-.118-.059-.176-.117-.293-.176-.997-.527-1.876.938-.88 1.524-.762-.41-5.392 4.63-6.096 5.275-2.051 1.817-4.103 3.575-6.271 5.275-1.055.82-2.111 1.641-3.224 2.461.996-2.637 1.993-5.216 2.989-7.853.117-.352-.41-.528-.586-.176-1.114 2.872-2.169 5.744-3.282 8.615-2.286 1.7-4.69 3.282-7.093 4.865a127.31 127.31 0 0 0 6.858-13.187c.117-.117.235-.235.293-.41.059-.235.176-.528.235-.762.293-.938-1.231-1.583-1.583-.704-1.817 4.22-3.927 8.323-6.213 12.308-.176-2.52-.645-9.846-.528-9.846.352 0 .352-.586 0-.586-1.231-.059-.586 2.461-.527 3.106l.527 8.088v.117a83.253 83.253 0 0 1-2.989 4.865v-21.744c0-2.637-4.103-2.637-4.103 0v14.887a33.385 33.385 0 0 1-2.579-.645c-2.052-.586-3.927-1.524-5.803-2.52-3.517-1.876-6.8-4.279-9.965-6.682-.293-.234-.586.293-.293.528 3.107 2.286 6.213 4.513 9.554 6.388 1.466.821 2.99 1.524 4.514 2.169.938.351 1.876.644 2.813.938.645.175 1.29.234 1.817.468v30.946c0 2.637 4.104 2.637 4.104 0v-21.627c.644-.938 1.23-1.875 1.875-2.813h.059c5.334-3.223 10.375-6.799 15.24-10.725 2.637-2.11 5.217-4.396 7.737-6.74 1.407-1.29 4.103-2.99 4.22-5.041-.058-.117-.293-.41-.527-.586Z" fill="#3A95A8"/><path d="M122.388 591.208c-.879-4.044-3.459-7.561-6.565-10.433-2.872-2.579-6.448-4.747-10.375-4.981-6.74-.411-13.013 4.805-19.636 3.575-3.048-.586-5.569-2.403-8.323-3.81-.645-.352-1.349-.645-2.052-.938v30.946c9.32.176 18.64.41 27.959.586 5.51.117 11.665 0 15.651-3.634 3.165-2.754 4.22-7.267 3.341-11.311Z" fill="#247889"/><path d="M122.388 591.208c-.879-4.044-3.459-7.561-6.565-10.433-2.872-2.579-6.448-4.747-10.375-4.981-6.74-.411-13.013 4.805-19.636 3.575-3.048-.586-5.569-2.403-8.323-3.81-.645-.352-1.349-.645-2.052-.938v30.946c9.32.176 18.64.41 27.959.586 5.51.117 11.665 0 15.651-3.634 3.165-2.754 4.22-7.267 3.341-11.311Z" fill="url(#k)"/><path d="M75.613 601.464c.234 0 .41-.176.352-.41-.059-.117-.059-.235-.118-.352-.058-.234-.293-.293-.469-.176v1.348c.118-.175.176-.293.235-.41Z" fill="#247889"/><path d="M118.109 596.189a53.59 53.59 0 0 1-8.265 10.667c1.641-2.813 2.99-5.685 4.162-8.733.176-.41-.528-.586-.645-.175-1.758 4.454-3.986 8.732-6.741 12.718v-13.949c0-.879-1.406-.879-1.406 0v2.52a9.155 9.155 0 0 1-.88 2.286c-.351-.938-.762-1.876-1.113-2.813.117-.762.234-1.524.293-2.286.058-.41-.645-.41-.704 0-.058.351-.058.645-.117.996l-.117-.351c-.176-.411-.821-.235-.645.175.176.528.41.997.586 1.524-.469 2.638-1.289 5.158-2.52 7.561v-9.612c0-.879-1.407-.879-1.407 0v6.799c-.645.644-1.465 1.289-1.758 1.582-1.055 1.055-2.345 2.52-3.928 2.813 1.29-1.524 2.286-3.223 2.931-5.099.117-.41-.527-.586-.645-.176-1.113 3.165-3.165 5.803-5.978 7.737v-13.715c0-.879-1.407-.879-1.407 0v10.901a67.894 67.894 0 0 1-2.58-7.326c-.116-.41-.761-.234-.644.176a66.424 66.424 0 0 0 3.224 8.85v2.989c-.938-1.055-1.759-2.168-2.52-3.282 0-.117-.06-.176-.176-.234-1.055-1.583-2.052-3.282-2.873-5.041 0-.293-.058-.41-.351-.586-.352-.176-.587.176-.47.469.704 1.524 1.466 2.989 2.404 4.396-.762-.41-1.524-.821-2.227-1.29-.997-.644-3.166-1.641-3.4-2.871 0-.059-.059-.118-.059-.176v-.645a7.369 7.369 0 0 0 1.114-1.641c.176-.41-.41-.703-.586-.352l-.528.879V596.6c0-.879-1.406-.879-1.406 0v6.857c-.118.117-.235.234-.41.352a11.65 11.65 0 0 0-.939.82v.821c.293-.176.528-.411.821-.586.176-.118.352-.294.528-.411v19.048c0 .879 1.406.879 1.406 0v-18.403c.528.586 1.349.996 1.935 1.407 1.465.996 2.989 1.875 4.572 2.696.996 1.406 2.051 2.813 3.223 4.102v10.198c0 .879 1.407.879 1.407 0v-12.308c1.114-.762 2.169-1.582 3.048-2.579 1.934.059 3.4-1.523 4.69-2.754a21.774 21.774 0 0 0 1.64-1.641v19.224c0 .879 1.407.879 1.407 0v-15.708c1.466-1.406 3.048-3.047 4.221-4.806.293.704.586 1.407.82 2.11l.176.176v18.286c0 .879 1.407.879 1.407 0v-11.604c.645-.88 1.231-1.817 1.817-2.755 0 0 .059 0 .059-.059 3.985-3.751 7.444-7.97 10.199-12.601.175-.293-.411-.644-.645-.293Zm-17.116 9.788c.879-1.934 1.583-3.927 1.993-6.037l.938 2.345c-.762 1.348-1.817 2.52-2.931 3.692Zm4.279-2.286c-.176-.469-.352-.879-.527-1.348l.527-1.055v2.403Z" fill="#247889"/><path d="M116.233 591.442c-2.286-1.465-5.158-1.934-7.913-2.227-7.444-.821-14.888-.703-22.39-.645-2.99.059-6.038.059-8.91.762-.528.117-1.055.293-1.583.469v13.011c1.407.352 2.755.645 4.162.996 1.7.411 3.575.821 5.216.294 1.583-.528 2.755-1.759 4.103-2.579 3.224-1.934 7.386-1.7 11.079-.879 3.693.82 7.327 2.227 11.137 2.285 3.517.059 7.561-1.465 8.44-4.747.586-2.579-1.055-5.275-3.341-6.74Z" fill="#247889"/><path d="M116.233 591.442c-2.286-1.465-5.158-1.934-7.913-2.227-7.444-.821-14.888-.703-22.39-.645-2.99.059-6.038.059-8.91.762-.528.117-1.055.293-1.583.469v13.011c1.407.352 2.755.645 4.162.996 1.7.411 3.575.821 5.216.294 1.583-.528 2.755-1.759 4.103-2.579 3.224-1.934 7.386-1.7 11.079-.879 3.693.82 7.327 2.227 11.137 2.285 3.517.059 7.561-1.465 8.44-4.747.586-2.579-1.055-5.275-3.341-6.74Z" fill="url(#l)"/><path d="M94.311 600.175c-1.934 0-3.458.938-3.458 2.051 0 1.114 1.583 2.051 3.458 2.051 1.876 0 3.459-.937 3.459-2.051 0-1.113-1.524-2.051-3.459-2.051Z" fill="#247889"/><path d="M94.311 600.175c-1.934 0-3.458.938-3.458 2.051 0 1.114 1.583 2.051 3.458 2.051 1.876 0 3.459-.937 3.459-2.051 0-1.113-1.524-2.051-3.459-2.051Z" fill="url(#m)"/><path d="M112.306 624.205s-8.03-2.579-11.02-3.048c-2.99-.469-2.637.352-4.923.234-2.286-.117-3.517-1.992-6.507-3.165-2.989-1.172-5.744.469-9.26.176-2.052-.176-3.46-1.524-5.159-2.813v8.616h36.869Zm16.647-33.115a51.444 51.444 0 0 0-16.119-1.172c-2.931.235-6.038.821-8.148 2.872-.879.879-1.524 2.051-1.348 3.224.117.879.703 1.641 1.348 2.344 2.228 2.286 5.217 3.927 8.441 4.337 1.055.117 2.11.176 3.224.176 1.406 0 2.755.058 4.161.058 2.345.059 4.69.059 6.858-.644 2.169-.704 4.045-2.052 5.276-3.868.938-1.348 1.524-3.107.82-4.631-.762-1.582-2.755-2.285-4.513-2.696Z" fill="#247889"/><path d="M128.953 591.09a51.444 51.444 0 0 0-16.119-1.172c-2.931.235-6.038.821-8.148 2.872-.879.879-1.524 2.051-1.348 3.224.117.879.703 1.641 1.348 2.344 2.228 2.286 5.217 3.927 8.441 4.337 1.055.117 2.11.176 3.224.176 1.406 0 2.755.058 4.161.058 2.345.059 4.69.059 6.858-.644 2.169-.704 4.045-2.052 5.276-3.868.938-1.348 1.524-3.107.82-4.631-.762-1.582-2.755-2.285-4.513-2.696Z" fill="url(#n)"/><path d="M139.738 594.372c-2.989 3.4-6.506 6.213-10.433 8.323 1.289-2.11 2.11-4.63 2.93-6.799.293-.82-1.055-1.172-1.348-.351-.527 1.406-.996 2.93-1.641 4.395-.352-.586-.586-1.172-.879-1.817-.117-.293-.704-1.758-.704-2.403.176-.175.235-.41.235-.644.058-.586-.645-1.114-1.114-.528-.703.821-.293 1.876-.058 2.813.351 1.29.879 2.579 1.582 3.751.059.118.176.176.235.235-.528.938-1.055 1.817-1.759 2.579 0 .058-.058.058-.058.117-2.462 1.113-5.1 2.051-7.796 2.637v-3.692c.117-.059.234-.117.293-.235 1.758-2.871 3.224-5.86 4.572-8.967.351-.82-.997-1.113-1.348-.351a72.607 72.607 0 0 1-3.517 7.091v-8.557c0-.879-1.407-.879-1.407 0v31.532c0 .879 1.407.879 1.407 0v-15.473c8.558-1.934 16.177-6.33 21.863-12.777.528-.586-.469-1.523-1.055-.879Z" fill="#247889"/><path d="M146.596 590.094c-.703-.645-1.641-1.114-2.52-1.582-1.876-.938-3.81-1.817-5.686-2.755-7.385-3.575-15.123-7.268-23.387-6.857-5.803.293-11.43 2.637-15.768 6.271-1.524 1.289-2.93 2.989-3.517 4.806-.41 1.172-.41 2.344.059 3.516.703 1.7 2.403 2.814 4.22 3.341 1.817.528 3.752.528 5.627.528 11.137-.059 22.274-.059 33.411-.118 2.11 0 4.279-.058 6.096-.996 1.817-.938 3.165-3.106 2.403-4.923a5.214 5.214 0 0 0-.938-1.231Z" fill="#247889"/><path d="M146.596 590.094c-.703-.645-1.641-1.114-2.52-1.582-1.876-.938-3.81-1.817-5.686-2.755-7.385-3.575-15.123-7.268-23.387-6.857-5.803.293-11.43 2.637-15.768 6.271-1.524 1.289-2.93 2.989-3.517 4.806-.41 1.172-.41 2.344.059 3.516.703 1.7 2.403 2.814 4.22 3.341 1.817.528 3.752.528 5.627.528 11.137-.059 22.274-.059 33.411-.118 2.11 0 4.279-.058 6.096-.996 1.817-.938 3.165-3.106 2.403-4.923a5.214 5.214 0 0 0-.938-1.231Z" fill="url(#o)"/><path d="M138.39 585.757c-7.385-3.575-15.123-7.268-23.387-6.857-5.803.293-11.43 2.637-15.768 6.271-1.524 1.289-2.93 2.989-3.517 4.806.586.762 1.407 1.406 2.228 1.934 5.334 3.341 12.778 3.282 17.994-.235 2.111-1.406 3.928-3.34 6.331-4.22 2.696-.996 5.744-.468 8.499.469 2.696.938 5.275 2.345 8.03 3.107 1.642.469 3.459.762 5.159.41a6.513 6.513 0 0 0 2.696-1.348c-.704-.645-1.641-1.114-2.521-1.583-1.993-.937-3.868-1.875-5.744-2.754Z" fill="#247889"/><path d="M138.39 585.757c-7.385-3.575-15.123-7.268-23.387-6.857-5.803.293-11.43 2.637-15.768 6.271-1.524 1.289-2.93 2.989-3.517 4.806.586.762 1.407 1.406 2.228 1.934 5.334 3.341 12.778 3.282 17.994-.235 2.111-1.406 3.928-3.34 6.331-4.22 2.696-.996 5.744-.468 8.499.469 2.696.938 5.275 2.345 8.03 3.107 1.642.469 3.459.762 5.159.41a6.513 6.513 0 0 0 2.696-1.348c-.704-.645-1.641-1.114-2.521-1.583-1.993-.937-3.868-1.875-5.744-2.754Z" fill="url(#p)"/><path d="M120.219 618.871c-3.693 0-6.682 2.403-6.682 5.333h13.306c.058-2.93-2.931-5.333-6.624-5.333Z" fill="#247889"/><path d="M111.251 619.164c-2.931 0-5.275 2.227-5.275 5.04h10.55c0-2.754-2.403-5.04-5.275-5.04Z" fill="#247889"/><path d="M134.346 619.398h-.938v24.909h.938v-24.909Z" fill="#fff"/><path d="M134.346 629.421h-.938v14.886h.938v-14.886Z" fill="#3D91D4"/><path d="M139.562 609.201h-8.206v10.197h8.206v-10.197Z" fill="#E21A1A"/><path d="M409.895 536.467h-2.345v101.218h2.345V536.467Z" fill="#FFFFFB"/><path d="M409.895 624.263h-2.345v13.422h2.345v-13.422Z" fill="#EB643D"/><path d="m419.851 533.21-10.817 10.817.414.414 10.818-10.816-.415-.415Z" fill="#FFFFFB"/><path d="m428.3 527.207-1.289-.352c-.821-.176-1.935.059-2.579.586l-6.214 5.392c-.586.528-.469 1.114.352 1.348l1.29.352c.82.176 1.934-.059 2.579-.586l6.213-5.392c.645-.528.469-1.114-.352-1.348Z" fill="#49AAF7"/><path d="M788.608 561.141c0 19.927-17.116 36.045-38.276 36.045-12.368 0-23.329-5.509-30.304-14.066-4.982-6.096-7.913-13.715-7.913-21.979 0-19.927 17.115-36.044 38.275-36.044 9.965 0 19.05 3.575 25.85 9.436 7.561 6.623 12.368 16.117 12.368 26.608Z" fill="#888A17"/><path d="M788.608 561.141c0 19.927-17.116 36.045-38.276 36.045-12.368 0-23.329-5.509-30.304-14.066-4.982-6.096-7.913-13.715-7.913-21.979 0-19.927 17.115-36.044 38.275-36.044 9.965 0 19.05 3.575 25.85 9.436 7.561 6.623 12.368 16.117 12.368 26.608Z" fill="url(#q)"/><path d="M772.729 588.811c-.058-.069-.117-.07-.175-.139-.643-.414-1.228.761-.585 1.176-.526-.346-3.507 3.595-3.975 4.079-1.345 1.382-2.689 2.765-4.092 4.079l-2.105 1.866c.643-2.005 1.286-4.009 1.929-6.084.117-.276-.292-.414-.35-.138-.702 2.212-1.403 4.425-2.163 6.637a81.455 81.455 0 0 1-4.619 3.734c1.637-3.25 3.157-6.638 4.443-10.163.059-.07.117-.208.176-.346l.175-.622c.175-.692-.76-1.245-1.052-.553a132.86 132.86 0 0 1-4.034 9.54c-.117-1.936-.409-7.605-.351-7.605.234 0 .234-.414 0-.484-.818-.069-.409 1.936-.35 2.42l.35 6.222v.07l-1.929 3.733v-16.731c0-2.005-2.689-2.005-2.689 0v11.477a15.786 15.786 0 0 1-1.695-.484c-1.345-.484-2.572-1.176-3.8-1.936-2.28-1.452-4.443-3.319-6.489-5.116-.175-.208-.409.207-.175.415 1.987 1.728 4.033 3.525 6.255 4.977a21.79 21.79 0 0 0 2.981 1.66c.585.276 1.228.484 1.812.691.41.138.819.138 1.17.346v23.851c0 2.075 2.689 2.075 2.689 0v-16.661c.409-.692.818-1.452 1.227-2.143h.059a99.361 99.361 0 0 0 9.938-8.228c1.754-1.659 3.39-3.387 5.027-5.185.936-1.037 2.689-2.281 2.748-3.871-.059-.139-.176-.415-.351-.484Z" fill="#3A95A8"/><path d="m39.398 510.774 434.221-110.595s-.352-.996-.997-2.52c-1.524-3.81-4.513-11.077-6.623-14.77-2.931-5.098-4.338-6.564-4.338-6.564l-10.609-2.227-42.789 12.894L42.914 497.06l-3.516 13.714Z" fill="#889EA3"/><path d="M448.824 378.611 42.563 498.466l-3.986 12.543 415.288-108.192-5.041-24.206Z" fill="#E21A1A"/><path d="m374.84 399.876 19.252 18.526-30.322 7.8-16.846-18.526 27.916-7.8Zm-68.581 20.841 20.372 19.298-32.085 8.125-17.825-19.297 29.538-8.126Zm-64.181 18.648 15.446 14.666-24.328 6.176-13.515-14.667 22.397-6.175Zm-47.716 13.712 15.447 14.666-24.329 6.175-13.515-14.666 22.397-6.175Zm-46.619 13.711 15.446 14.667-24.328 6.175-13.515-14.666 22.397-6.176Zm-33.367 10.969 10.97 10.421-17.277 4.388-9.598-10.421 15.905-4.388ZM78.95 487.63l10.746 10.035-16.924 4.225-9.402-10.035 15.58-4.225Zm-22.985 6.856 8.227 10.146-12.301 3.291-6.895-10.147 10.969-3.29Z" fill="#A1C5CD"/><path d="m331.301 415.125 3.282-.997v5.099l-3.282.997v-5.099Zm-193.782 60.484c.176-1.231.352-2.462.586-3.692l16.12-4.748c-.235 1.231-.352 2.462-.235 3.751l-16.471 4.689Zm-50.467 14.418-41.207 11.78.47-2.93 41.147-12.074a69.462 69.462 0 0 1-.41 3.224Zm23.739-6.799-9.027 2.579c.176-1.114.293-2.227.41-3.341l9.32-2.754-.703 3.516Zm3.458-4.337 6.741-1.993c-.293 1.231-.586 2.403-.879 3.634l-6.624 1.876c.234-1.114.469-2.345.762-3.517Zm9.379-2.755 11.781-3.458c-.176 1.231-.352 2.403-.469 3.634l-12.133 3.458c.234-1.172.527-2.403.821-3.634Zm48.122-14.124 7.269-2.11a30.59 30.59 0 0 0-.411 3.985l-7.209 2.051c.175-1.348.234-2.637.351-3.926Zm11.782-3.458 3.693-1.114c-.118 1.348-.293 2.696-.411 4.044l-3.868 1.114c.058-1.407.234-2.813.586-4.044Zm5.452-1.641 3.575-1.055c0 .703 0 1.406.059 2.168v1.817l-3.986 1.114c.058-1.348.234-2.696.352-4.044Zm10.023-2.931 3.165-.937c-.176 1.348-.235 2.754-.235 4.102l-3.282.938a46.5 46.5 0 0 0 .352-4.103Zm8.733-2.579 11.078-3.223c-.175 1.407-.176 2.813-.176 4.22l-11.371 3.223c.117-1.348.293-2.754.469-4.22Zm27.784-8.146 6.447-1.876c-.117 1.524-.293 3.048-.586 4.513l-6.213 1.758c0-1.465.117-2.93.352-4.395Zm8.147-2.403 5.452-1.583c0 1.524-.059 2.99-.176 4.513l-5.745 1.641c.235-1.523.411-3.047.469-4.571Zm7.151-2.11 28.077-8.264v4.689l-28.253 8.088c.118-1.524.176-2.989.176-4.513Zm36.518-10.725 12.66-3.693v4.806l-12.66 3.634v-4.747Zm17.877-5.275 17.643-5.158v5.04l-17.643 5.041v-4.923Zm31.066-9.085 5.217-1.524v5.158l-5.217 1.465v-5.099Zm10.785 2.052v-5.217l18.992-5.567v5.392l-7.855 2.227v-1.7c0-1.114-1.7-1.114-1.7 0v2.169l-9.437 2.696Z" fill="#E6E6E6"/><path d="m408.263 386.992 47.185 9.964 17.174.703c-1.524-3.81-4.513-11.077-6.623-14.769-2.931-5.099-4.338-6.565-4.338-6.565l-10.609-2.227-42.789 12.894Z" fill="#FBD5A2"/><path d="M451.051 374.098s4.221 14.828 5.276 16.235c.527.703 4.22 1.524 7.678 2.11 3.342.586 6.507 1.055 6.507 1.055s-2.99-10.315-8.851-17.173l-4.865-.996-5.745-1.231Z" fill="#3D213D"/><path d="m469.231 389.455 1.371 4.114-6.581-1.097-2.469-3.565 7.679.548Z" fill="#89CFE1"/><path d="m277.785 426.319-1.172 26.843-6.096 1.465 2.403-26.843 4.865-1.465Zm-112.482 33.876-2.052 21.568-3.634-1.055 2.052-19.4 3.634-1.113Zm-73.21 22.095-2.697 16.411-2.285.644 3.106-16.527 1.876-.528Z" fill="#3D213D"/><path d="m472.124 396.521-10.727-1.41-4.68-3.113-2.207-13.512-42.998 16.86.397 9.576-3.488.47-.706-11.984-2.207.881 1.236 17.8-81.538 29.08-.221 7.52 147.536-50.875-.397-1.293Z" fill="#ED6F01"/><path d="m409.084 392.198-18.283 5.481 2.009 18.651 61.612-16.044-45.338-8.088Z" fill="#E21A1A"/><path d="m426.429 382.874 23.057 21.999-23.057 4.875-20.176-21.999 20.176-4.875Z" fill="#A1C5CD"/><path d="m447.535 380.662 2.462 11.429-28.663-3.634 26.201-7.795Z" fill="#FBD5A2"/><path d="M451.051 374.098s4.221 14.828 5.276 16.235c.527.703 4.22 1.524 7.678 2.11l-12.954-18.345Z" fill="#E21A1A"/><path d="m462.923 377.937-10.146-1.096-1.371-2.743 10.42 2.194 1.097 1.645Z" fill="#607785"/><path d="m255.043 435.403-22.157 6.682v13.245l.997-.586v-12.132l21.277-6.681-.117-.528Zm111.017-32.352v.879l-20.75 5.92.293 10.667h-.586l-.176-11.253 21.219-6.213Zm52.712-13.596v.879l-20.75 5.92.293 10.667h-.586l-.176-11.253 21.219-6.213Zm-105.173 29.069v.527l-9.437 2.872v8.03l-.41.527v-9.084l9.847-2.872Zm-177.252 52.279-.938 9.084-1.055.235.996-9.026.997-.293Zm-18.698 5.509-.762 9.261-.938.293.821-9.319.879-.235Zm-16.53 4.865-1.114 9.026-.82.351 1.289-9.201.645-.176Zm-28.839 8.557-1.7 9.612-.761.351 1.524-9.729.938-.234Z" fill="#E6E6E6"/><path d="M401.426 401.885v-5.217l18.991-5.568v5.392l-7.854 2.228v-1.7c0-1.114-1.7-1.114-1.7 0v2.169l-9.437 2.696Zm-16.436-.665 3.282-.997v5.099l-3.282.997v-5.099Zm4.982-1.466 5.216-1.524v5.158l-5.216 1.465v-5.099Z" fill="#E6E6E6"/><path d="m450.87 374.209 8.03 27.312-181.296 24.909 173.266-52.221Z" fill="#FEEDC5" style="mix-blend-mode:screen" opacity=".61"/><path d="M1206.91 244.113-223.476 582.006v6.74L1483.88 284.15V248.5l-276.97-4.387Z" fill="#003659"/><path opacity=".24" d="m256.349 501.536-94.722-9.495 126.608-30.183 79.893 19.399-111.779 20.279Z" fill="#FEEDC5"/><path d="M1206.91 246.855-223.476 582.006v-3.224L1138.35 227.659l68.56 19.196Z" fill="#5566C5"/><path d="m617.041 367.791-840.517 212.222v.527l842.437-208.362-1.92-4.387Z" fill="#3D213D"/><path d="M416.748 474.561v12.416l-7.606 3.981-11.704-9.684-7.546-5.287v-12.416l26.856 10.99Z" fill="#BDD0F4"/><path d="M397.438 468.799h28.638v157.669h-28.638V468.799Z" fill="#BDD0F4"/><path d="M441.428 626.45h-15.329V470.919h15.329V626.45Z" fill="#3A95A8"/><path d="M448.059 469.155v12.416l-7.664 3.981-11.586-4.753-7.605-10.218v-12.357l26.855 10.931Z" fill="#5566C5"/><path d="m389.892 463.571 31.312-5.347v12.357l-31.312 5.406v-12.416Z" fill="#BDD0F4"/><path d="m434.631 463.69 6.774 23.169v-1.842l6.654-3.445v-12.417l-13.428-5.465Z" fill="#003659"/><path d="m426.076 477.116-28.638 4.158-7.546-5.287 31.312-5.406 4.872 6.535Z" fill="#3D91D4"/><path d="M173.233 516.364v8.792l-5.393 2.813-8.323-6.857-5.334-3.751v-8.792l19.05 7.795Z" fill="#BDD0F4"/><path d="M172.647 624.38c0-15.648-12.661-28.308-28.311-28.308s-28.311 12.66-28.311 28.308h56.622Z" fill="#3A95A8"/><path d="M159.517 512.262h20.339v111.943h-20.339V512.262Z" fill="#BDD0F4"/><path d="M190.76 624.186h-10.902v-110.42h10.902v110.42Z" fill="#003659"/><path d="M195.448 512.555v8.791l-5.451 2.813-8.207-3.341-5.392-7.326v-8.732l19.05 7.795Z" fill="#003659"/><path d="m154.183 508.569 22.215-3.809v8.732l-22.215 3.869v-8.792Z" fill="#BDD0F4"/><path d="m185.893 508.628 4.866 16.469v-1.348l4.689-2.403v-8.791l-9.555-3.927Z" fill="#003659"/><path d="m179.856 518.181-20.339 2.93-5.334-3.75 22.215-3.869 3.458 4.689Z" fill="#3D91D4"/><path opacity=".61" d="m385.828 420.948 1.055 4.337 253.468-62.979-8.502-5.21-246.021 63.852Zm11.899 5.685 2.111 9.495 201.846-47.063 20.842-17.709-224.799 55.277Z" fill="#FEEDC5"/><path d="M771.961 598.827c15.021 0 27.197-11.467 27.197-25.612 0-14.146-12.176-25.612-27.197-25.612-15.021 0-27.197 11.466-27.197 25.612 0 14.145 12.176 25.612 27.197 25.612Z" fill="#3A95A8"/><path d="M787.846 592.673c-.059 0-.059-.059-.118-.059-.468-.234-.879.469-.41.704-.351-.176-2.52 2.168-2.813 2.461-.938.821-1.935 1.641-2.931 2.462-.469.41-.997.762-1.465 1.113.468-1.231.937-2.403 1.406-3.634.059-.175-.176-.234-.234-.058-.528 1.348-.997 2.696-1.524 3.985a64.03 64.03 0 0 1-3.283 2.227c1.173-1.992 2.228-3.985 3.166-6.095.058-.059.117-.117.117-.176.058-.117.059-.234.117-.351.117-.411-.586-.762-.762-.293a65.563 65.563 0 0 1-2.872 5.743c-.059-1.172-.293-4.571-.235-4.571.176 0 .176-.293 0-.293-.586 0-.293 1.172-.234 1.465.059 1.231.176 2.52.234 3.751v.058a72.75 72.75 0 0 1-1.406 2.228v-10.081c0-1.231-1.876-1.231-1.876 0v6.916c-.41-.059-.821-.176-1.231-.293-.938-.293-1.817-.704-2.696-1.172-1.641-.88-3.165-1.993-4.631-3.107-.117-.117-.293.117-.117.235 1.407 1.055 2.872 2.11 4.455 2.989.703.351 1.407.703 2.11.996.41.176.879.293 1.289.41.293.059.587.118.821.235v14.359c0 1.231 1.876 1.231 1.876 0v-10.022c.293-.41.586-.879.879-1.29a73.322 73.322 0 0 0 7.092-4.981c1.231-.997 2.404-2.052 3.576-3.107.645-.586 1.876-1.348 1.934-2.344 0-.176-.058-.352-.234-.41Z" fill="#3A95A8"/><path d="M631.226 624.204H461.828l-576.433 27.964-43.876 27.698 640.063-43.354h215.117L872.9 667.525v-20.293l-241.674-23.028Z" fill="#67B576"/><path d="M355.448 648.099c0-36.923-25.38-86.975-52.519-86.975-11.899 0-22.801 5.743-31.301 15.297-1.817-.293-3.634-.411-5.509-.411-27.139 0-49.179 50.052-49.179 86.976 0 1.289.059 2.637.059 3.927h136.163c1.524-5.978 2.286-12.308 2.286-18.814Z" fill="url(#r)"/><path d="M628.295 610.431c0-27.018 21.922-48.879 48.885-48.879 27.022 0 48.885 21.919 48.885 48.879h-97.77Z" fill="#888A17"/><path d="M628.295 610.431c0-24.029 21.922-43.546 48.885-43.546 27.022 0 48.885 19.517 48.885 43.546h-97.77Z" fill="#3A95A8"/><path d="M567.687 560.965h-1.817v76.72h1.817v-76.72Z" fill="#FFFFFB"/><path d="M567.687 627.545h-1.817v10.14h1.817v-10.14Z" fill="#EB643D"/><path d="m575.254 558.509-8.207 8.206.332.332 8.206-8.206-.331-.332Z" fill="#FFFFFB"/><path d="m581.637 553.991-.996-.234c-.586-.176-1.465.058-1.934.468l-4.748 4.103c-.469.41-.352.821.234.996l.997.235c.586.176 1.465-.059 1.934-.469l4.748-4.103c.527-.41.351-.879-.235-.996Z" fill="#49AAF7"/><path d="M697.579 610.431H590.782c0-36.044 23.915-65.349 53.398-65.349 10.551 0 20.398 3.751 28.722 10.257 14.829 11.604 24.677 31.942 24.677 55.092Z" fill="#888A17"/><path d="M697.579 610.431H590.782c0-36.044 23.915-65.349 53.398-65.349 10.551 0 20.398 3.751 28.722 10.257 14.829 11.604 24.677 31.942 24.677 55.092Z" fill="url(#s)"/><path opacity=".61" d="m476.951 636.512 302.923 13.539-81.182-13.246-221.741-.293Z" fill="#FEEDC5"/><path d="M3279 0H-494v1295h3773V0Z" fill="url(#t)" style="mix-blend-mode:overlay" opacity=".58"/><path d="M688.622 497.71a171.191 171.191 0 0 0 33.083 28.375v-3.443c-5.159-5.936-10.205-11.991-14.915-18.402-2.58-3.562 2.13-8.667 4.71-4.987 3.252 4.393 6.616 8.667 10.093 12.941v-17.096c0-4.63 6.729-4.63 6.729 0v24.814c1.906 2.137 3.925 4.392 5.944 6.411v-36.805c0-6.174 8.971-6.174 8.971 0v16.621c.225.475.337 1.069.561 1.544.897 2.73 1.794 5.461 2.804 8.073 2.243 6.411 4.822 12.704 7.401 18.878 2.804 6.411 5.832 12.585 9.645 18.283v-41.672c0-9.973 14.579-9.973 14.579 0v18.402c13.346-8.073 25.121-18.877 34.654-31.818 1.794-2.375 5.607 0 3.925 2.374-10.542 14.366-23.439 26.239-38.467 34.905V545.2c27.701-8.786 52.709-25.17 72.671-47.49 2.019-2.256 5.159 1.187 3.141 3.324-20.748 23.152-46.99 40.248-75.812 49.153v78.596c0 9.973-14.579 9.973-14.579 0v-64.468c-2.355-2.849-4.486-5.818-6.504-8.904-.673.118-10.094-7.361-13.907-10.804v80.614c0 6.174-8.971 6.174-8.971 0v-86.432c-2.019-1.069-4.038-2.137-5.944-3.206v91.657c0 4.63-6.729 4.63-6.729 0v-95.575c-13.345-8.429-25.569-18.64-36.336-30.631-1.906-2.137 1.234-5.58 3.253-3.324Zm54.84 37.517c2.018 1.9 4.037 3.799 6.056 5.58-.673-1.424-1.346-2.849-1.907-4.393-1.458-3.324-2.804-6.767-4.149-10.091v8.904Z" fill="#247889"/><path d="M568.823 494.746c3.817 7.633 10.215 13.807 16.053 19.98a429.33 429.33 0 0 0 14.145 14.48c-3.929-9.316-6.96-18.97-9.318-28.96-.673-2.806 3.705-4.04 4.378-1.234 2.919 12.684 7.073 24.806 12.686 36.48v-31.878c0-4.378 6.735-4.378 6.735 0v21.215c1.01-.449 2.133-.786 3.143-1.235l13.472-5.388c7.97-3.255 15.604-7.072 22.451-12.347 2.246-1.796 4.491 2.133 2.246 3.929-7.185 5.5-15.268 9.316-23.463 12.796-5.164 2.132-10.327 4.153-15.491 6.286-.674.336-1.46.785-2.246 1.122v93.39c0 4.378-6.735 4.378-6.735 0V545.37c-1.347-2.469-2.582-5.051-3.817-7.633-.674.112-15.043-13.245-21.217-19.868-6.062-6.398-12.798-12.908-16.727-20.878-1.347-2.581 2.47-4.939 3.705-2.245Z" fill="#3A95A8"/><path d="M532.899 463.429c0 19.082 4.154 37.042 11.675 53.318h376.407s45.796-3.339 45.796-47.491c0-52.518-45.796-59.706-45.796-59.706-14.257-12.459-31.208-21.776-49.956-26.939-9.991-6.398-21.105-11.113-33.004-13.919-18.86-30.98-52.987-51.634-91.941-51.634-23.687 0-45.465 7.633-63.314 20.654a130.973 130.973 0 0 0-22.228-1.908c-11.001 0-21.666 1.347-31.881 4.041-55.12 14.143-95.758 64.093-95.758 123.584Z" fill="url(#u)"/><path d="M17.437 521.954c0 38.345 32.966 69.391 73.676 69.391 18.88 0 36.064-6.711 49.117-17.698 15.045-12.684 24.559-31.193 24.559-51.693 0-38.346-32.966-69.392-73.676-69.392-20.576 0-39.087 7.891-52.51 20.722-13.054 12.462-21.166 29.644-21.166 48.67Z" fill="#AEB11B"/><path d="M17.437 521.954c0 38.345 32.966 69.391 73.676 69.391 18.88 0 36.064-6.711 49.117-17.698 15.045-12.684 24.559-31.193 24.559-51.693 0-38.346-32.966-69.392-73.676-69.392-20.576 0-39.087 7.891-52.51 20.722-13.054 12.462-21.166 29.644-21.166 48.67Z" fill="url(#v)"/><path d="M47.97 574.679c.147-.074.22-.147.368-.221 1.254-.664 2.36 1.18 1.106 1.917.96-.516 6.785 5.826 7.67 6.637 2.582 2.286 5.163 4.498 7.892 6.637 1.327 1.032 2.655 2.065 4.056 3.097-1.254-3.318-2.508-6.563-3.761-9.881-.148-.443.516-.664.737-.222 1.401 3.614 2.729 7.227 4.13 10.84 2.876 2.139 5.9 4.13 8.924 6.121a160.41 160.41 0 0 1-8.629-16.592c-.147-.148-.295-.295-.369-.516-.073-.295-.22-.664-.295-.959-.368-1.18 1.55-1.991 1.992-.885 2.286 5.31 4.94 10.472 7.817 15.486.221-3.171.811-12.389.664-12.389-.443 0-.443-.737 0-.737 1.549-.074.737 3.097.664 3.908l-.664 10.177v.147c1.18 2.065 2.434 4.13 3.761 6.121v-27.359c0-3.318 5.163-3.318 5.163 0v18.731a41.592 41.592 0 0 0 3.245-.811c2.58-.738 4.94-1.918 7.3-3.171 4.426-2.36 8.556-5.383 12.538-8.407.369-.295.738.369.369.664-3.909 2.876-7.817 5.678-12.021 8.038-1.844 1.032-3.761 1.917-5.679 2.728-1.18.443-2.36.811-3.54 1.18-.811.221-1.622.295-2.286.59v38.936c0 3.318-5.163 3.318-5.163 0v-27.211c-.81-1.18-1.548-2.36-2.36-3.54h-.073c-6.712-4.055-13.054-8.554-19.175-13.494-3.319-2.655-6.564-5.531-9.735-8.481-1.77-1.622-5.163-3.76-5.31-6.341.074-.148.369-.517.663-.738ZM-1.472 607.12c-2.276.921-4.498 1.788-6.774 2.71-.596.216-1.193.596-1.843.921v19.454h-5.42v-7.099a129.48 129.48 0 0 1-3.089-6.123c-.542.108-12.085-10.676-17.071-15.986-4.878-5.148-10.297-10.405-13.44-16.799-1.03-2.059 2.113-3.902 3.143-1.843 3.035 6.124 8.238 11.109 12.898 16.095 3.685 3.956 7.533 7.803 11.381 11.596a144.112 144.112 0 0 1-7.479-23.301c-.542-2.276 2.981-3.252 3.469-.976 2.33 10.188 5.744 19.942 10.188 29.317v-25.523c0-3.468 5.42-3.468 5.42 0v17.124c.813-.326 1.68-.651 2.493-1.03 2.005-.813 4.065-1.626 6.07-2.439v-16.473c0-2.926 4.498-2.926 4.498 0v14.631c.054-.054.163-.054.217-.108 6.395-2.602 12.573-5.69 18.047-9.917 1.842-1.409 3.631 1.734 1.842 3.143-5.744 4.443-12.248 7.478-18.914 10.242-.379.162-.813.325-1.192.487v4.986c14.145-4.715 27.26-11.759 38.912-21.08 2.276-1.788 5.474 1.355 3.198 3.197a131.628 131.628 0 0 1-40.592 22.11c-.38.379-.868.65-1.518.704v15.011h-4.498V607.12h.054Z" fill="#3A95A8"/><path d="M-66.181 575.636c0-34.139 23.466-80.417 48.559-80.417 11.002 0 21.082 5.31 28.94 14.143 1.68-.271 3.36-.379 5.095-.379 25.092 0 45.47 46.278 45.47 80.417 0 1.192-.055 2.439-.055 3.631H-64.067c-1.41-5.528-2.114-11.38-2.114-17.395Z" fill="url(#w)"/></g><defs><linearGradient id="b" x1="1287.9" y1=".99" x2="1287.9" y2="1132.97" gradientUnits="userSpaceOnUse"><stop stop-color="#51C0E1"/><stop offset=".262" stop-color="#A9E9F2"/><stop offset=".563" stop-color="#CCFCE0"/><stop offset=".881" stop-color="#E0F096"/><stop offset="1" stop-color="#ECE963"/></linearGradient><linearGradient id="c" x1="-92.592" y1="293.851" x2="-92.592" y2="666.186" gradientUnits="userSpaceOnUse"><stop stop-color="#fff"/><stop offset="1"/></linearGradient><linearGradient id="d" x1="538.39" y1="273.728" x2="538.39" y2="662.926" gradientUnits="userSpaceOnUse"><stop stop-color="#fff"/><stop offset="1"/></linearGradient><linearGradient id="e" x1="576.679" y1="598.468" x2="467.795" y2="531.913" gradientUnits="userSpaceOnUse"><stop stop-color="#4DB0A5"/><stop offset="1" stop-color="#EFCE3D"/></linearGradient><linearGradient id="f" x1="321.732" y1="593.397" x2="267.453" y2="575.842" gradientUnits="userSpaceOnUse"><stop stop-color="#4DB0A5"/><stop offset="1" stop-color="#EFCE3D"/></linearGradient><linearGradient id="g" x1="204.684" y1="574.094" x2="66.247" y2="491.189" gradientUnits="userSpaceOnUse"><stop stop-color="#4DB0A5"/><stop offset="1" stop-color="#EFCE3D"/></linearGradient><linearGradient id="h" x1="813.405" y1="630.152" x2="808.719" y2="610.246" gradientUnits="userSpaceOnUse"><stop stop-color="#4DB0A5"/><stop offset="1" stop-color="#EFCE3D"/></linearGradient><linearGradient id="i" x1="673.866" y1="629.702" x2="668.236" y2="612.081" gradientUnits="userSpaceOnUse"><stop stop-color="#4DB0A5"/><stop offset="1" stop-color="#EFCE3D"/></linearGradient><linearGradient id="j" x1="402.533" y1="587.388" x2="304.338" y2="555.261" gradientUnits="userSpaceOnUse"><stop stop-color="#4DB0A5"/><stop offset="1" stop-color="#EFCE3D"/></linearGradient><linearGradient id="k" x1="105.574" y1="601.532" x2="69.414" y2="584.849" gradientUnits="userSpaceOnUse"><stop stop-color="#4DB0A5"/><stop offset="1" stop-color="#EFCE3D"/></linearGradient><linearGradient id="l" x1="103.666" y1="602.021" x2="80.095" y2="581.706" gradientUnits="userSpaceOnUse"><stop stop-color="#4DB0A5"/><stop offset="1" stop-color="#EFCE3D"/></linearGradient><linearGradient id="m" x1="95.265" y1="603.673" x2="90.209" y2="601.047" gradientUnits="userSpaceOnUse"><stop stop-color="#4DB0A5"/><stop offset="1" stop-color="#EFCE3D"/></linearGradient><linearGradient id="n" x1="122.742" y1="601.005" x2="103.94" y2="587.656" gradientUnits="userSpaceOnUse"><stop stop-color="#4DB0A5"/><stop offset="1" stop-color="#EFCE3D"/></linearGradient><linearGradient id="o" x1="128.798" y1="594.638" x2="101.204" y2="570.576" gradientUnits="userSpaceOnUse"><stop stop-color="#4DB0A5"/><stop offset="1" stop-color="#EFCE3D"/></linearGradient><linearGradient id="p" x1="128.207" y1="592.084" x2="104.868" y2="568.446" gradientUnits="userSpaceOnUse"><stop stop-color="#4DB0A5"/><stop offset="1" stop-color="#EFCE3D"/></linearGradient><linearGradient id="q" x1="760.905" y1="586.569" x2="696.761" y2="565.596" gradientUnits="userSpaceOnUse"><stop stop-color="#4DB0A5"/><stop offset="1" stop-color="#EFCE3D"/></linearGradient><linearGradient id="r" x1="309.728" y1="784.751" x2="182.47" y2="679.119" gradientUnits="userSpaceOnUse"><stop stop-color="#4DB0A5"/><stop offset="1" stop-color="#EFCE3D"/></linearGradient><linearGradient id="s" x1="658.901" y1="600.807" x2="579.825" y2="560.985" gradientUnits="userSpaceOnUse"><stop stop-color="#4DB0A5"/><stop offset="1" stop-color="#EFCE3D"/></linearGradient><linearGradient id="u" x1="673.449" y1="487.338" x2="938.583" y2="328.558" gradientUnits="userSpaceOnUse"><stop stop-color="#4DB0A5"/><stop offset="1" stop-color="#EFCE3D"/></linearGradient><linearGradient id="v" x1="70.803" y1="570.906" x2="194.351" y2="530.484" gradientUnits="userSpaceOnUse"><stop stop-color="#4DB0A5"/><stop offset="1" stop-color="#EFCE3D"/></linearGradient><linearGradient id="w" x1="-23.908" y1="701.984" x2="93.754" y2="604.317" gradientUnits="userSpaceOnUse"><stop stop-color="#4DB0A5"/><stop offset="1" stop-color="#EFCE3D"/></linearGradient><radialGradient id="t" cx="0" cy="0" r="1" gradientUnits="userSpaceOnUse" gradientTransform="matrix(2399.12 0 0 1307.67 457.707 409.486)"><stop stop-color="#FEF4DD"/><stop offset="1" stop-color="#5E272A"/></radialGradient><clipPath id="a"><path fill="#fff" d="M0 0h768v648H0z"/></clipPath></defs></svg>