<svg width="66" height="66" fill="none" xmlns="http://www.w3.org/2000/svg"><path d="M20.526 31.502c-6.052 0-10.976-4.924-10.976-10.976 0-6.052 4.924-10.976 10.976-10.976 6.052 0 10.976 4.924 10.976 10.976 0 6.052-4.924 10.976-10.976 10.976Zm0-19.972c-4.963 0-8.996 4.033-8.996 8.996s4.04 8.996 8.996 8.996c4.957 0 8.996-4.033 8.996-8.996s-4.04-8.996-8.996-8.996Zm0 44.92c-6.052 0-10.976-4.924-10.976-10.976 0-6.052 4.924-10.976 10.976-10.976 6.052 0 10.976 4.924 10.976 10.976 0 6.052-4.924 10.976-10.976 10.976Zm0-19.972c-4.963 0-8.996 4.033-8.996 8.996s4.04 8.996 8.996 8.996c4.957 0 8.996-4.033 8.996-8.996s-4.04-8.996-8.996-8.996ZM45.474 56.45c-6.052 0-10.976-4.924-10.976-10.976 0-6.052 4.924-10.976 10.976-10.976 6.052 0 10.976 4.924 10.976 10.976 0 6.052-4.924 10.976-10.976 10.976Zm0-19.972c-4.963 0-8.996 4.033-8.996 8.996s4.04 8.996 8.996 8.996c4.957 0 8.996-4.033 8.996-8.996s-4.04-8.996-8.996-8.996Zm0-26.928c-6.052 0-10.976 4.924-10.976 10.976 0 6.052 4.924 10.976 10.976 10.976 6.052 0 10.976-4.924 10.976-10.976 0-6.052-4.924-10.976-10.976-10.976Zm5.854 8.468-6.567 6.567a.989.989 0 0 1-1.399 0l-3.55-3.55a.984.984 0 0 1 0-1.4.984.984 0 0 1 1.399 0l2.85 2.851 5.868-5.867a.984.984 0 0 1 1.4 0 .984.984 0 0 1 0 1.399Z" fill="#E21A1A"/></svg>