<svg width="223" height="48" fill="none" xmlns="http://www.w3.org/2000/svg"><g clip-path="url(#a)"><path d="M80.727 0H0v48h80.727V0Z" fill="#E21A1A"/><path d="M52 14.068v.876h7.769c.515 0 1.294 0 1.81.506.515.502.515 1.257.515 1.763v7.544c0 .502 0 1.258-.516 1.76-.515.502-1.294.502-1.81.502h-3.752c-.645 0-1.49 0-1.813-.693-.323-.69.13-1.32.52-1.822l5.046-6.532H52l-3.1 4.021c-.518.674-.967 1.258-.967 2.009 0 .755.413 1.3.968 2.016l.779 1.005c.77 1.004 1.55 2.012 2.584 2.514 1.038.502 2.265.502 3.945.502h3.367c1.94 0 4.85 0 6.79-1.884 1.939-1.888 1.939-4.651 1.939-5.66V19.48c0-1.008 0-3.772-1.94-5.656-1.939-1.884-4.854-1.884-6.789-1.884h-5.373c-.515 0-1.164 0-1.68.502C52 12.935 52 13.56 52 14.068Z" fill="#fff"/><path d="M42.69 17.968h7.76L41.137 30.04h-7.76l9.314-12.07Zm-30.272 2.134c0-.503 0-1.13.52-1.631.518-.499 1.16-.499 1.683-.499h13c1.683 0 2.91 0 3.945.498 1.035.503 1.81 1.51 2.592 2.515l.771 1.008c.55.713.972 1.258.972 2.009 0 .755-.449 1.339-.972 2.013l-3.103 4.024H24.06l5.047-6.543c.39-.498.841-1.129.519-1.826-.327-.693-1.164-.693-1.817-.693h-6.074v15.088H15.53V20.981h-3.107v-.88h-.004Z" fill="#fff"/><path d="M100.15 17.68c.515-.86.889-1.646 1.125-2.355.236-.708.397-1.261.484-1.666.043-.222.09-.482.137-.782.051-.3.095-.646.142-1.043.043-.397.079-.853.106-1.374.028-.522.059-1.122.087-1.803l.106-3.729h8.657V17.68h1.715v5.084h-2.143v-3.25h-9.535v3.25h-2.144V17.68h1.263Zm4.095-10.919-.13 3.083a54.292 54.292 0 0 1-.118 2.075 15.75 15.75 0 0 1-.354 2.219 15.21 15.21 0 0 1-.547 1.833 10.214 10.214 0 0 1-.846 1.71h6.601V6.76h-4.606Zm22.09-1.833v14.586h-2.144V6.76h-4.779l-.087 3.586c0 .319-.004.61-.011.875-.008.265-.016.534-.032.814-.016.276-.031.588-.043.926-.012.343-.036.74-.063 1.2-.055.848-.15 1.661-.275 2.448-.13.786-.406 1.448-.83 1.989-.327.4-.701.693-1.117.864-.417.175-.897.26-1.432.26-.24 0-.46-.015-.661-.05a5.273 5.273 0 0 1-.507-.113l.062-1.794c.115.027.24.054.374.082.138.027.26.043.374.043.57 0 .979-.137 1.223-.41a2.52 2.52 0 0 0 .535-.926c.028-.113.059-.245.094-.397a5.31 5.31 0 0 0 .095-.615c.031-.257.059-.58.098-.969.036-.39.067-.872.095-1.44.015-.18.027-.44.043-.771.016-.335.027-.673.043-1.012.016-.343.024-.666.032-.97.007-.307.011-.521.011-.646l.063-4.8h8.839v-.007Zm13.15 14.586h-2.144v-5.835h-2.38l-3.131 5.835h-2.616l3.603-6.252a4.11 4.11 0 0 1-.837-.354 7.216 7.216 0 0 1-.622-.397 3.404 3.404 0 0 1-.409-.343l-.193-.198a3.9 3.9 0 0 1-.672-1.219 4.322 4.322 0 0 1-.248-1.467c0-.25.02-.518.063-.802a3.82 3.82 0 0 1 .236-.852 4.31 4.31 0 0 1 .46-.845c.193-.277.441-.533.739-.77.614-.503 1.255-.807 1.92-.92a11.731 11.731 0 0 1 1.896-.167h4.331v14.586h.004ZM137.341 6.76h-2.317a5.72 5.72 0 0 0-1.05.106c-.37.07-.72.24-1.05.521a2.084 2.084 0 0 0-.59.783c-.15.327-.225.712-.225 1.156 0 .443.075.813.225 1.105.149.292.31.522.483.685.402.39.858.63 1.373.72a8.57 8.57 0 0 0 1.479.137h1.672V6.76Zm21.776-1.832v14.586h-2.144V6.76h-4.779l-.087 3.586c0 .319-.004.61-.012.875-.007.265-.015.534-.031.814-.016.276-.032.588-.043.926-.016.343-.036.74-.063 1.2-.055.848-.15 1.661-.276 2.448-.129.786-.405 1.448-.83 1.989-.326.4-.7.693-1.117.864-.417.175-.897.26-1.435.26a3.85 3.85 0 0 1-.661-.05 5.788 5.788 0 0 1-.512-.113l.063-1.794c.114.027.24.054.374.082.134.027.26.043.374.043.57 0 .979-.137 1.223-.41.244-.272.421-.58.535-.926.028-.113.059-.245.094-.397a5.31 5.31 0 0 0 .095-.615c.031-.257.059-.58.098-.969.036-.39.067-.872.095-1.44.015-.18.027-.44.043-.771.016-.335.027-.673.043-1.012.012-.343.024-.666.032-.97.007-.307.011-.521.011-.646l.063-4.8h8.847v-.007Zm8.649 6.108a7.913 7.913 0 0 1 .535-2.145 6.529 6.529 0 0 1 1.204-1.958 6.285 6.285 0 0 1 2.187-1.627c.857-.39 1.884-.584 3.083-.584 1.2 0 2.239.198 3.12.595a6.625 6.625 0 0 1 2.238 1.616c.558.626 1.003 1.382 1.341 2.27.335.89.504 1.895.504 3.02 0 1.14-.173 2.16-.516 3.063-.342.903-.786 1.65-1.329 2.25-.244.265-.527.53-.858.794-.33.265-.712.499-1.144.709a7.12 7.12 0 0 1-1.491.498 8.565 8.565 0 0 1-1.865.187 8.29 8.29 0 0 1-1.844-.187 7.04 7.04 0 0 1-1.46-.498 6.103 6.103 0 0 1-1.97-1.503 7.03 7.03 0 0 1-1.275-2.176 8.39 8.39 0 0 1-.527-2.487h-2.505v6.645h-2.144V4.928h2.144v6.104h2.572v.004Zm7.009-4.48c-.885 0-1.632.17-2.238.51-.605.342-1.081.727-1.424 1.155-.385.487-.692 1.086-.92 1.803a7.202 7.202 0 0 0-.342 2.199c0 .627.094 1.304.287 2.032a5.4 5.4 0 0 0 .975 1.97c.37.459.85.852 1.436 1.175.586.327 1.33.49 2.23.49.901 0 1.645-.163 2.231-.49.586-.327 1.066-.716 1.435-1.175a5.417 5.417 0 0 0 .976-1.97c.193-.728.291-1.405.291-2.032 0-.751-.114-1.483-.342-2.2-.228-.716-.535-1.315-.921-1.802-.342-.432-.818-.813-1.424-1.156-.617-.342-1.365-.51-2.25-.51Zm9.571 11.124c.515-.86.889-1.646 1.125-2.355.236-.708.397-1.261.483-1.666.044-.222.091-.482.138-.782.051-.3.095-.646.142-1.043.043-.397.078-.853.106-1.374.027-.522.059-1.122.086-1.803l.107-3.729h8.657V17.68h1.715v5.084h-2.144v-3.25h-9.534v3.25h-2.144V17.68h1.263Zm4.094-10.919-.129 3.083a54.292 54.292 0 0 1-.118 2.075 16.04 16.04 0 0 1-.354 2.219 15.21 15.21 0 0 1-.547 1.833 9.989 9.989 0 0 1-.846 1.71h6.6V6.76h-4.606Zm11.054-1.833h8.378v1.833h-6.235v4.275h5.676v1.833h-5.676v4.811h6.235v1.834h-8.378V4.928Zm11.568 0h2.144v9.938l-.063 1.814h.106c.13-.25.248-.471.354-.666a14.934 14.934 0 0 1 .633-1.051 18.2 18.2 0 0 0 .362-.576l6.003-9.459H223v14.586h-2.144V9.576l.063-1.814h-.106c-.142.292-.271.541-.385.751a9.472 9.472 0 0 1-.331.56c-.106.168-.212.328-.311.48-.098.151-.204.319-.322.498l-6.003 9.459h-2.399V4.928Zm9.432-3.854c-.027.487-.149.911-.365 1.273a2.538 2.538 0 0 1-.752.833c-.271.195-.621.347-1.05.46-.429.112-.85.167-1.263.167-.413 0-.837-.055-1.262-.167-.429-.11-.779-.265-1.05-.46-.288-.194-.535-.47-.752-.833-.212-.362-.334-.786-.366-1.273l1.436-.167c.071.292.173.514.299.666.13.151.209.241.236.268.217.195.456.312.732.354.271.043.515.063.727.063.217 0 .457-.02.728-.063.272-.042.515-.16.728-.354a7.79 7.79 0 0 0 .236-.268c.13-.152.228-.374.299-.666l1.439.167ZM100.15 41.25c.515-.86.889-1.646 1.125-2.355a17.15 17.15 0 0 0 .484-1.666c.043-.222.09-.483.137-.782.051-.3.095-.647.142-1.044.043-.397.079-.852.106-1.374.028-.521.059-1.12.087-1.802l.106-3.73h8.657V41.25h1.715v5.084h-2.143v-3.247h-9.535v3.247h-2.144V41.25h1.263Zm4.095-10.919-.13 3.083a54.313 54.313 0 0 1-.118 2.075 15.58 15.58 0 0 1-.354 2.219 15.21 15.21 0 0 1-.547 1.833 10.214 10.214 0 0 1-.846 1.71h6.601V30.33h-4.606Zm11.053-1.833h8.378v1.833h-6.234v4.27h5.676v1.834h-5.676v4.815h6.234v1.834h-8.378V28.498Zm22.515 0v14.586h-2.144V30.33h-4.779l-.087 3.582c0 .319-.003.61-.011.875s-.016.534-.032.814a41.54 41.54 0 0 0-.043.926c-.016.34-.035.74-.063 1.2-.055.848-.15 1.665-.275 2.448-.13.786-.406 1.448-.83 1.989-.327.4-.7.693-1.117.864-.417.175-.897.26-1.432.26-.24 0-.46-.015-.661-.05a5.304 5.304 0 0 1-.507-.113l.062-1.794c.115.027.24.054.374.082.134.027.26.042.374.042.57 0 .979-.136 1.223-.404.244-.273.421-.58.535-.93.028-.11.059-.246.095-.398.035-.151.066-.358.094-.615.031-.257.059-.58.098-.969.036-.39.067-.868.095-1.44.015-.18.027-.44.043-.771.016-.335.027-.674.043-1.012.012-.343.024-.666.032-.97.008-.307.011-.521.011-.646l.063-4.8h8.839v-.003Zm8.823 0h2.249l6.325 14.586h-2.336l-1.522-3.69h-7.328l-1.523 3.69h-2.253l6.388-14.586Zm1.05 1.958-2.982 7.229h5.959l-2.977-7.23Z" fill="#000"/></g><defs><clipPath id="a"><path fill="#fff" d="M0 0h223v48H0z"/></clipPath></defs></svg>