<svg width="1024" height="699" fill="none" xmlns="http://www.w3.org/2000/svg"><g clip-path="url(#a)"><path fill="#fff" d="M-737 0h3273.15v808H-737z"/><g clip-path="url(#b)"><path d="M2797.87-43.413h-3575v1021h3575v-1021Z" fill="url(#c)"/><path d="M1081.45 64.347H926.692v710.028h154.758V64.347Z" fill="#49D8F7"/><path d="M1081.45 89.8H926.692v23.437h154.758V89.801Zm0 45.639H926.692v23.436h154.758v-23.436Zm0 45.639H926.692v23.435h154.758v-23.435Zm0 45.638H926.692v23.436h154.758v-23.436Zm0 45.638H926.692v23.435h154.758v-23.435Zm0 45.638H926.692v23.436h154.758v-23.436Zm0 45.638H926.692v23.436h154.758V363.63Zm0 45.639H926.692v23.436h154.758v-23.436Zm0 45.638H926.692v23.436h154.758v-23.436Zm0 45.638H926.692v23.436h154.758v-23.436Zm0 45.638H926.692v23.324h154.758v-23.324Zm0 45.639H926.692v23.323h154.758v-23.323Zm0 45.638H926.692v23.323h154.758V637.46Zm0 45.638H926.692v23.324h154.758v-23.324Z" opacity=".23" fill="#003659"/><path d="M1298.34 64.347H926.692v710.028h371.648V64.347Z" fill="url(#d)" style="mix-blend-mode:multiply" opacity=".4"/><path d="M-112.533 236.721H4.657v537.654h-117.19V236.721Z" fill="#49D8F7"/><path d="M-112.533 255.996H4.657v17.746h-117.19v-17.746Zm0 34.558H4.657V308.3h-117.19v-17.746Zm0 34.559H4.657v17.746h-117.19v-17.746Zm0 34.558H4.657v17.747h-117.19v-17.747Zm0 34.559H4.657v17.746h-117.19V394.23Zm0 34.558H4.657v17.747h-117.19v-17.747Zm0 34.559H4.657v17.747h-117.19v-17.747Zm0 34.559H4.657v17.746h-117.19v-17.746Zm0 34.559H4.657v17.746h-117.19v-17.746Zm0 34.558H4.657v17.746h-117.19v-17.746Zm0 34.558H4.657v17.662h-117.19v-17.662Zm0 34.559H4.657v17.662h-117.19V636.14Zm0 34.559H4.657v17.661h-117.19v-17.661Z" opacity=".23" fill="#003659"/><path d="M-276.767 236.721H4.657v537.654h-281.424V236.721Z" fill="url(#e)" style="mix-blend-mode:multiply" opacity=".4"/><path d="m375.05 606.399.673 6.728c.785 8.858 1.458 17.717 2.131 26.575.112 1.346.112 2.691.224 4.037h5.832v-3.925h34.204v20.857h12.112v-.224h-.673v-2.467h.673v-.897h-.673v-2.467h.673v-.897h-.673v-2.467h.673v-.897h-.673v-2.467h.673v-1.009h4.71v-94.192h2.467v-25.006h36.671v25.006h2.468v133.102h14.691v8.859h6.616v-26.127h2.58v-11.102h27.812v-.448h-1.907l2.131-3.028v-1.458h1.009l1.122-1.569h-2.131v-2.243h2.243v-1.57h-2.243v-2.243h2.243v-1.569h-2.243v-2.243h2.243v-3.813h1.794v-4.036h4.822v-11.102h3.589v-14.128l10.878-2.58 2.467-.56v-23.324h1.458v22.987l4.374-1.009v18.614h3.028v11.102h2.579v-27.473h1.907v-55.17h-1.01v-2.691h1.57v-1.121c0-.785.561-1.458 1.346-1.458h.785v-5.719c0-1.457 1.121-2.691 2.467-2.691h.112v-5.046c0-1.458.898-2.691 2.243-3.028v-4.485h1.682c.449-3.364 2.916-5.943 6.168-6.504v-4.597c0-.336.113-.561.449-.561v-11.774h1.121v11.774c.225.112.449.337.449.561v4.597c3.14.449 5.607 3.14 6.056 6.504h1.682v4.485c1.234.337 2.243 1.57 2.243 3.028v5.046h.112c1.346 0 2.467 1.234 2.467 2.691v5.719h.897c.785 0 1.346.673 1.346 1.458v1.121h1.234v2.691h-1.234v55.17h1.795v33.976h25.793v17.493h15.925v30.612h5.27v-1.457h22.766v-7.065h3.252v-8.41h18.168v-7.961h20.634v-61.449h2.467v-1.009h-2.467v-3.701h2.467v-1.009h-2.579v-3.7h2.579v-1.01h-2.579v-3.7h2.579v-1.009h-2.579v-3.701h2.579v-1.121h-2.579v-3.7h2.579v-1.01h-2.579v-3.7h2.579v-1.009h-2.579v-79.951h46.877v76.138h-.112v3.701h-3.253v1.009h3.253v3.7h-3.253v1.01h3.253v3.7h-3.253v1.121h3.365v3.701h-3.365v1.009h3.365v3.7h-3.365v1.009h3.365v3.701h-3.365v1.009h3.365v3.7h-3.365v1.01h3.589v46.535h15.7v-12.671h19.626v-20.184l4.037-11.662.112-.448 10.654-30.725 14.803 42.835v2.915h.897v1.346h-1.009v1.794h.897v1.346h-.897v1.794h.897v1.345h-.897v1.795h.897v1.345h-.897v1.794h.897v1.346h-.897v1.794h.897v1.346h-.897v1.794h.897v1.345h-.897v1.795h.897v1.345h-.897v1.794h.897v1.346h-.897v1.794h.897v1.346h-.897v1.794h.897v1.345h-.897v1.794h.897v1.346h-.897v1.794h.897v1.346h-.897v1.794h.897v1.346h-.897v1.794h.897v1.345h-.897v1.794h.897v1.346h-.897v1.794h.897v1.346h-.897v1.794h.897v.448h17.046v-15.698h26.018v-.561l.112-2.243v-4.149l.112-1.906.112-2.242v-1.907l.112-2.242v-1.907l.113-2.242.112-1.907v-4.149l.112-2.242v-1.906l.112-2.243v-1.906l.112-2.243v-1.906l.112-2.243v-1.906l.113-2.243v-1.906l.112-2.243.224-6.952 10.878-3.925v6.055h3.364l-.336-16.483 18.84-5.046 1.907 26.351.224 2.243.112 1.906.225 2.243.112 1.906.112 2.243.112 1.906.112 2.243.112 1.906.112 2.243.113 1.906.224 2.242.112 1.907.112 2.242.112 1.907.112 2.242.113 1.907.224 2.242.112 1.907.224 2.242.112 1.906.113 2.243.112 1.906.224 2.243.112 1.906.112 2.243.112 1.906.225 2.243.112 1.906.224 2.243.112 1.906.112 2.243.113 1.906.112 2.243.112 1.906.112 2.243.112 1.906.112 2.13h18.953v9.756h13.345v-21.53h14.803v-38.798h8.411V579.15h59.657v198.476H336.248V606.511l38.802-.112Z" fill="#BDE0F4"/><path d="M808.827 666.839H760.38v-99.687h48.447v99.687Z" fill="#BDE0F4"/><path d="M798.173 567.152h-27.027v99.687h27.027v-99.687Z" fill="#49AAF7"/><path d="M798.173 567.152h-27.027v4.261h27.027v-4.261Zm0 7.625h-27.027v4.262h27.027v-4.262Zm0 7.738h-27.027v4.261h27.027v-4.261Zm0 7.625h-27.027v4.261h27.027v-4.261Zm0 7.737h-27.027v4.261h27.027v-4.261Zm0 7.625h-27.027v4.261h27.027v-4.261Zm0 7.737h-27.027v4.261h27.027v-4.261Zm0 7.625h-27.027v4.261h27.027v-4.261Zm0 7.625h-27.027v4.261h27.027v-4.261Zm0 7.738h-27.027v4.261h27.027v-4.261Zm0 7.625h-27.027v4.261h27.027v-4.261Zm0 7.737h-27.027v4.261h27.027v-4.261Zm0 7.625h-27.027v4.261h27.027v-4.261Zm-32.41-92.062h-5.383v4.261h5.383v-4.261Zm0 7.625h-5.383v4.262h5.383v-4.262Zm0 7.738h-5.383v4.261h5.383v-4.261Zm0 7.625h-5.383v4.261h5.383v-4.261Zm0 7.737h-5.383v4.261h5.383v-4.261Zm0 7.625h-5.383v4.261h5.383v-4.261Zm0 7.737h-5.383v4.261h5.383v-4.261Zm0 7.625h-5.383v4.261h5.383v-4.261Zm0 7.625h-5.383v4.261h5.383v-4.261Zm0 7.738h-5.383v4.261h5.383v-4.261Zm0 7.625h-5.383v4.261h5.383v-4.261Zm0 7.737h-5.383v4.261h5.383v-4.261Zm0 7.625h-5.383v4.261h5.383v-4.261Zm43.064-92.062h-5.383v4.261h5.383v-4.261Zm0 7.625h-5.383v4.262h5.383v-4.262Zm0 7.738h-5.383v4.261h5.383v-4.261Zm0 7.625h-5.383v4.261h5.383v-4.261Zm0 7.737h-5.383v4.261h5.383v-4.261Zm0 7.625h-5.383v4.261h5.383v-4.261Zm0 7.737h-5.383v4.261h5.383v-4.261Zm0 7.625h-5.383v4.261h5.383v-4.261Zm0 7.625h-5.383v4.261h5.383v-4.261Zm0 7.738h-5.383v4.261h5.383v-4.261Zm0 7.625h-5.383v4.261h5.383v-4.261Zm0 7.737h-5.383v4.261h5.383v-4.261Zm0 7.625h-5.383v4.261h5.383v-4.261Z" fill="#BDE0F4"/><path d="M760.381 567.152h-18.392v99.687h18.392v-99.687Z" fill="#49AAF7"/><path d="M754.549 567.152h-7.738v96.323h7.738v-96.323Z" fill="#49AAF7"/><path d="M754.549 567.152h-7.738v4.261h7.738v-4.261Zm0 7.625h-7.738v4.262h7.738v-4.262Zm0 7.738h-7.738v4.261h7.738v-4.261Zm0 7.625h-7.738v4.261h7.738v-4.261Zm0 7.737h-7.738v4.261h7.738v-4.261Zm0 7.625h-7.738v4.261h7.738v-4.261Zm0 7.737h-7.738v4.261h7.738v-4.261Zm0 7.625h-7.738v4.261h7.738v-4.261Zm0 7.625h-7.738v4.261h7.738v-4.261Zm0 7.738h-7.738v4.261h7.738v-4.261Zm0 7.625h-7.738v4.261h7.738v-4.261Zm0 7.737h-7.738v4.261h7.738v-4.261Zm0 7.625h-7.738v4.261h7.738v-4.261Zm31.625-92.062h-3.14v96.323h3.14v-96.323Z" fill="#49AAF7"/><path d="M808.827 666.839H760.38v99.35h48.447v-99.35Z" fill="#BDE0F4"/><path d="M798.173 666.839h-27.027v99.35h27.027v-99.35Z" fill="#49AAF7"/><path d="M798.173 666.839h-27.027v3.812h27.027v-3.812Zm0 7.288h-27.027v4.262h27.027v-4.262Zm0 7.738h-27.027v4.261h27.027v-4.261Zm0 7.625h-27.027v4.261h27.027v-4.261Zm0 7.737h-27.027v4.261h27.027v-4.261Zm-32.41-30.388h-5.383v3.812h5.383v-3.812Zm0 7.288h-5.383v4.262h5.383v-4.262Zm0 7.738h-5.383v4.261h5.383v-4.261Zm0 7.625h-5.383v4.261h5.383v-4.261Zm0 7.737h-5.383v4.261h5.383v-4.261Zm43.064-30.388h-5.383v3.812h5.383v-3.812Zm0 7.288h-5.383v4.262h5.383v-4.262Zm0 7.738h-5.383v4.261h5.383v-4.261Zm0 7.625h-5.383v4.261h5.383v-4.261Zm0 7.737h-5.383v4.261h5.383v-4.261Z" fill="#BDE0F4"/><path d="M760.381 666.839h-18.392v99.35h18.392v-99.35Z" fill="#49AAF7"/><path d="M754.549 666.839h-7.738v95.874h7.738v-95.874Z" fill="#49AAF7"/><path d="M754.549 666.839h-7.738v3.812h7.738v-3.812Zm0 7.288h-7.738v4.262h7.738v-4.262Zm0 7.738h-7.738v4.261h7.738v-4.261Zm0 7.625h-7.738v4.261h7.738v-4.261Zm0 7.737h-7.738v4.261h7.738v-4.261Zm31.625-30.388h-3.14v95.986h3.14v-95.986Z" fill="#49AAF7"/><path d="M808.939 561.097h-66.95v6.055h66.95v-6.055Z" fill="#BDE0F4"/><path d="M808.939 560.873h-66.95v.224h66.95v-.224Z" fill="#BDE0F4"/><path d="M760.381 561.097h-18.392v6.055h18.392v-6.055Z" fill="#BDE0F4"/><path d="M760.381 560.873h-18.392v.224h18.392v-.224Zm-18.617-18.39h-33.755v231.555h33.755V542.483Zm-33.755 0h-47.774v231.555h47.774V542.483Z" fill="#BDE0F4"/><path d="M741.652 542.483h-33.643v231.555h33.643V542.483Z" fill="#BDE0F4"/><path d="M708.009 542.483h-47.774v231.555h47.774V542.483Z" fill="#003659"/><path d="M710.588 545.511h-12.56v4.261h12.56v-4.261Zm-42.615 0h-12.56v4.261h12.56v-4.261Z" fill="#BDE0F4"/><path d="M719.448 545.511h-8.972v4.261h8.972v-4.261Zm26.69 0h-8.971v4.261h8.971v-4.261Zm-35.55 7.4h-12.56v4.261h12.56v-4.261Zm-42.615 0h-12.56v4.261h12.56v-4.261Z" fill="#BDE0F4"/><path d="M719.448 552.911h-8.972v4.261h8.972v-4.261Zm26.69 0h-8.971v4.261h8.971v-4.261Zm-35.55 7.401h-12.56v4.261h12.56v-4.261Zm-42.615 0h-12.56v4.261h12.56v-4.261Z" fill="#BDE0F4"/><path d="M719.448 560.312h-8.972v4.261h8.972v-4.261Zm26.69 0h-8.971v4.261h8.971v-4.261Zm-35.55 7.401h-12.56v4.261h12.56v-4.261Zm-42.615 0h-12.56v4.261h12.56v-4.261Z" fill="#BDE0F4"/><path d="M719.448 567.713h-8.972v4.261h8.972v-4.261Zm26.69 0h-8.971v4.261h8.971v-4.261Zm-35.55 7.4h-12.56v4.262h12.56v-4.262Zm-42.615 0h-12.56v4.262h12.56v-4.262Z" fill="#BDE0F4"/><path d="M719.448 575.113h-8.972v4.262h8.972v-4.262Zm26.69 0h-8.971v4.262h8.971v-4.262Zm-35.55 7.289h-12.56v4.262h12.56v-4.262Zm-42.615 0h-12.56v4.262h12.56v-4.262Z" fill="#BDE0F4"/><path d="M719.448 582.402h-8.972v4.262h8.972v-4.262Zm26.69 0h-8.971v4.262h8.971v-4.262Zm-35.55 7.401h-12.56v4.261h12.56v-4.261Zm-42.615 0h-12.56v4.261h12.56v-4.261Z" fill="#BDE0F4"/><path d="M719.448 589.803h-8.972v4.261h8.972v-4.261Zm26.69 0h-8.971v4.261h8.971v-4.261Zm-35.55 7.401h-12.56v4.261h12.56v-4.261Zm-42.615 0h-12.56v4.261h12.56v-4.261Z" fill="#BDE0F4"/><path d="M719.448 597.204h-8.972v4.261h8.972v-4.261Zm26.69 0h-8.971v4.261h8.971v-4.261Zm-35.55 7.401h-12.56v4.261h12.56v-4.261Zm-42.615 0h-12.56v4.261h12.56v-4.261Z" fill="#BDE0F4"/><path d="M719.448 604.605h-8.972v4.261h8.972v-4.261Zm26.69 0h-8.971v4.261h8.971v-4.261Zm-35.55 7.288h-12.56v4.262h12.56v-4.262Zm-42.615 0h-12.56v4.261h12.56v-4.261Z" fill="#BDE0F4"/><path d="M719.448 611.893h-8.972v4.262h8.972v-4.262Zm26.69 0h-8.971v4.262h8.971v-4.262Zm-35.55 7.401h-12.56v4.261h12.56v-4.261Zm-42.615 0h-12.56v4.261h12.56v-4.261Z" fill="#BDE0F4"/><path d="M719.448 619.294h-8.972v4.261h8.972v-4.261Zm26.69 0h-8.971v4.261h8.971v-4.261Zm-35.55 7.401h-12.56v4.261h12.56v-4.261Zm-42.615 0h-12.56v4.261h12.56v-4.261Z" fill="#BDE0F4"/><path d="M719.448 626.695h-8.972v4.261h8.972v-4.261Zm26.69 0h-8.971v4.261h8.971v-4.261Zm-35.55 7.401h-12.56v4.261h12.56v-4.261Zm-42.615 0h-12.56v4.261h12.56v-4.261Z" fill="#BDE0F4"/><path d="M719.448 634.096h-8.972v4.261h8.972v-4.261Zm26.69 0h-8.971v4.261h8.971v-4.261Zm-35.55 7.4h-12.56v4.261h12.56v-4.261Zm-42.615 0h-12.56v4.261h12.56v-4.261Z" fill="#BDE0F4"/><path d="M719.448 641.496h-8.972v4.261h8.972v-4.261Zm26.69 0h-8.971v4.261h8.971v-4.261Zm-35.55 7.289h-12.56v4.261h12.56v-4.261Zm-42.615 0h-12.56v4.261h12.56v-4.261Z" fill="#BDE0F4"/><path d="M719.448 648.785h-8.972v4.261h8.972v-4.261Zm26.69 0h-8.971v4.261h8.971v-4.261Zm-35.55 7.401h-12.56v4.261h12.56v-4.261Zm-42.615 0h-12.56v4.261h12.56v-4.261Z" fill="#BDE0F4"/><path d="M719.448 656.186h-8.972v4.261h8.972v-4.261Zm26.69 0h-8.971v4.261h8.971v-4.261Zm-35.55 7.401h-12.56v4.261h12.56v-4.261Zm-42.615 0h-12.56v4.261h12.56v-4.261Z" fill="#BDE0F4"/><path d="M719.448 663.587h-8.972v4.261h8.972v-4.261Zm26.69 0h-8.971v4.261h8.971v-4.261Zm-35.55 7.4h-12.56v4.262h12.56v-4.262Zm-42.615.001h-12.56v4.261h12.56v-4.261Z" fill="#BDE0F4"/><path d="M719.448 670.987h-8.972v4.262h8.972v-4.262Zm26.69 0h-8.971v4.262h8.971v-4.262Zm-35.55 7.401h-12.56v4.261h12.56v-4.261Zm-42.615 0h-12.56v4.261h12.56v-4.261Z" fill="#BDE0F4"/><path d="M719.448 678.388h-8.972v4.261h8.972v-4.261Zm26.69 0h-8.971v4.261h8.971v-4.261Zm-35.55 7.289h-12.56v4.261h12.56v-4.261Zm-42.615 0h-12.56v4.261h12.56v-4.261Z" fill="#BDE0F4"/><path d="M719.448 685.677h-8.972v4.261h8.972v-4.261Zm26.69 0h-8.971v4.261h8.971v-4.261Zm-35.55 7.401h-12.56v4.261h12.56v-4.261Zm-42.615 0h-12.56v4.261h12.56v-4.261Z" fill="#BDE0F4"/><path d="M719.448 693.078h-8.972v4.261h8.972v-4.261Zm26.69 0h-8.971v4.261h8.971v-4.261Z" fill="#BDE0F4"/><path d="M691.748 542.483H673.02v227.855h18.728V542.483Zm42.167 0h-11.664v228.64h11.664v-228.64Z" fill="#003659"/><path d="M336.728 674.127h-48.447V574.44h48.447v99.687Z" fill="#BDE0F4"/><path d="M326.074 574.44h-27.027v99.687h27.027V574.44Z" fill="#49AAF7"/><path d="M326.074 574.44h-27.027v4.261h27.027v-4.261Zm0 7.625h-27.027v4.262h27.027v-4.262Zm0 7.738h-27.027v4.261h27.027v-4.261Zm0 7.625h-27.027v4.261h27.027v-4.261Zm0 7.737h-27.027v4.261h27.027v-4.261Zm0 7.625h-27.027v4.261h27.027v-4.261Zm0 7.737h-27.027v4.261h27.027v-4.261Zm0 7.625h-27.027v4.261h27.027v-4.261Zm0 7.625h-27.027v4.261h27.027v-4.261Zm0 7.737h-27.027v4.261h27.027v-4.261Zm0 7.626h-27.027v4.261h27.027v-4.261Zm0 7.737h-27.027v4.261h27.027v-4.261Zm0 7.624h-27.027v4.262h27.027v-4.262Zm-32.41-92.061h-5.383v4.261h5.383v-4.261Zm0 7.625h-5.383v4.262h5.383v-4.262Zm0 7.738h-5.383v4.261h5.383v-4.261Zm0 7.625h-5.383v4.261h5.383v-4.261Zm0 7.737h-5.383v4.261h5.383v-4.261Zm0 7.625h-5.383v4.261h5.383v-4.261Zm0 7.737h-5.383v4.261h5.383v-4.261Zm0 7.625h-5.383v4.261h5.383v-4.261Zm0 7.625h-5.383v4.261h5.383v-4.261Zm0 7.737h-5.383v4.261h5.383v-4.261Zm0 7.626h-5.383v4.261h5.383v-4.261Zm0 7.737h-5.383v4.261h5.383v-4.261Zm0 7.624h-5.383v4.262h5.383v-4.262Zm43.064-92.061h-5.383v4.261h5.383v-4.261Zm0 7.625h-5.383v4.262h5.383v-4.262Zm0 7.738h-5.383v4.261h5.383v-4.261Zm0 7.625h-5.383v4.261h5.383v-4.261Zm0 7.737h-5.383v4.261h5.383v-4.261Zm0 7.625h-5.383v4.261h5.383v-4.261Zm0 7.737h-5.383v4.261h5.383v-4.261Zm0 7.625h-5.383v4.261h5.383v-4.261Zm0 7.625h-5.383v4.261h5.383v-4.261Zm0 7.737h-5.383v4.261h5.383v-4.261Zm0 7.626h-5.383v4.261h5.383v-4.261Zm0 7.737h-5.383v4.261h5.383v-4.261Zm0 7.624h-5.383v4.262h5.383v-4.262Z" fill="#BDE0F4"/><path d="M288.281 574.44h-18.392v99.686h18.392V574.44Z" fill="#49AAF7"/><path d="M282.449 574.44h-7.738v96.323h7.738V574.44Z" fill="#49AAF7"/><path d="M282.449 574.44h-7.738v4.261h7.738v-4.261Zm0 7.625h-7.738v4.262h7.738v-4.262Zm0 7.738h-7.738v4.261h7.738v-4.261Zm0 7.625h-7.738v4.261h7.738v-4.261Zm0 7.737h-7.738v4.261h7.738v-4.261Zm0 7.625h-7.738v4.261h7.738v-4.261Zm0 7.737h-7.738v4.261h7.738v-4.261Zm0 7.625h-7.738v4.261h7.738v-4.261Zm0 7.625h-7.738v4.261h7.738v-4.261Zm0 7.737h-7.738v4.261h7.738v-4.261Zm0 7.626h-7.738v4.261h7.738v-4.261Zm0 7.737h-7.738v4.261h7.738v-4.261Zm0 7.624h-7.738v4.262h7.738v-4.262Zm31.626-92.061h-3.14v96.323h3.14V574.44Z" fill="#49AAF7"/><path d="M336.728 674.127h-48.447v99.35h48.447v-99.35Z" fill="#BDE0F4"/><path d="M326.074 674.127h-27.027v99.35h27.027v-99.35Z" fill="#49AAF7"/><path d="M326.074 674.127h-27.027v3.812h27.027v-3.812Zm0 7.289h-27.027v4.261h27.027v-4.261Zm0 7.737h-27.027v4.261h27.027v-4.261Zm0 7.625h-27.027v4.261h27.027v-4.261Zm-32.41-22.651h-5.383v3.812h5.383v-3.812Zm0 7.289h-5.383v4.261h5.383v-4.261Zm0 7.737h-5.383v4.261h5.383v-4.261Zm0 7.625h-5.383v4.261h5.383v-4.261Zm43.064-22.651h-5.383v3.812h5.383v-3.812Zm0 7.289h-5.383v4.261h5.383v-4.261Zm0 7.737h-5.383v4.261h5.383v-4.261Zm0 7.625h-5.383v4.261h5.383v-4.261Z" fill="#BDE0F4"/><path d="M288.281 674.127h-18.392v99.35h18.392v-99.35Z" fill="#49AAF7"/><path d="M282.449 674.127h-7.738v95.874h7.738v-95.874Z" fill="#49AAF7"/><path d="M282.449 674.127h-7.738v3.812h7.738v-3.812Zm0 7.289h-7.738v4.261h7.738v-4.261Zm0 7.737h-7.738v4.261h7.738v-4.261Zm0 7.625h-7.738v4.261h7.738v-4.261Zm31.626-22.651h-3.14v95.986h3.14v-95.986Z" fill="#49AAF7"/><path d="M336.84 568.385h-66.951v6.055h66.951v-6.055Zm0-.224h-66.951v.224h66.951v-.224Z" fill="#BDE0F4"/><path d="M288.281 568.385h-18.392v6.055h18.392v-6.055Zm0-.224h-18.392v.224h18.392v-.224Zm-18.616-18.39h-33.756v231.555h33.756V549.771Z" fill="#BDE0F4"/><path d="M235.91 549.771h-47.774v231.555h47.774V549.771Z" fill="#BDE0F4"/><path d="M269.553 549.771h-33.644v231.555h33.644V549.771Z" fill="#BDE0F4"/><path d="M235.91 549.771h-47.774v231.555h47.774V549.771Z" fill="#003659"/><path d="M238.488 552.798h-12.56v4.261h12.56v-4.261Zm-42.614 0h-12.561v4.261h12.561v-4.261Z" fill="#BDE0F4"/><path d="M247.348 552.798h-8.972v4.261h8.972v-4.261Zm26.691 0h-8.972v4.261h8.972v-4.261Zm-35.551 7.401h-12.56v4.261h12.56v-4.261Zm-42.614 0h-12.561v4.261h12.561v-4.261Z" fill="#BDE0F4"/><path d="M247.348 560.199h-8.972v4.261h8.972v-4.261Zm26.691 0h-8.972v4.261h8.972v-4.261Zm-35.551 7.401h-12.56v4.261h12.56V567.6Zm-42.614 0h-12.561v4.261h12.561V567.6Z" fill="#BDE0F4"/><path d="M247.348 567.6h-8.972v4.261h8.972V567.6Zm26.691 0h-8.972v4.261h8.972V567.6Zm-35.551 7.4h-12.56v4.261h12.56V575Zm-42.614.001h-12.561v4.261h12.561v-4.261Z" fill="#BDE0F4"/><path d="M247.348 575h-8.972v4.261h8.972V575Zm26.691 0h-8.972v4.261h8.972V575Zm-35.551 7.401h-12.56v4.262h12.56v-4.262Zm-42.614 0h-12.561v4.262h12.561v-4.262Z" fill="#BDE0F4"/><path d="M247.348 582.401h-8.972v4.262h8.972v-4.262Zm26.691 0h-8.972v4.262h8.972v-4.262Zm-35.551 7.289h-12.56v4.261h12.56v-4.261Zm-42.614 0h-12.561v4.261h12.561v-4.261Z" fill="#BDE0F4"/><path d="M247.348 589.69h-8.972v4.261h8.972v-4.261Zm26.691 0h-8.972v4.261h8.972v-4.261Zm-35.551 7.401h-12.56v4.261h12.56v-4.261Zm-42.614 0h-12.561v4.261h12.561v-4.261Z" fill="#BDE0F4"/><path d="M247.348 597.091h-8.972v4.261h8.972v-4.261Zm26.691 0h-8.972v4.261h8.972v-4.261Zm-35.551 7.401h-12.56v4.261h12.56v-4.261Zm-42.614 0h-12.561v4.261h12.561v-4.261Z" fill="#BDE0F4"/><path d="M247.348 604.492h-8.972v4.261h8.972v-4.261Zm26.691 0h-8.972v4.261h8.972v-4.261Zm-35.551 7.401h-12.56v4.261h12.56v-4.261Zm-42.614 0h-12.561v4.261h12.561v-4.261Z" fill="#BDE0F4"/><path d="M247.348 611.893h-8.972v4.261h8.972v-4.261Zm26.691 0h-8.972v4.261h8.972v-4.261Zm-35.551 7.288h-12.56v4.261h12.56v-4.261Zm-42.614 0h-12.561v4.261h12.561v-4.261Z" fill="#BDE0F4"/><path d="M247.348 619.181h-8.972v4.261h8.972v-4.261Zm26.691 0h-8.972v4.261h8.972v-4.261Zm-35.551 7.401h-12.56v4.261h12.56v-4.261Zm-42.614 0h-12.561v4.261h12.561v-4.261Z" fill="#BDE0F4"/><path d="M247.348 626.582h-8.972v4.261h8.972v-4.261Zm26.691 0h-8.972v4.261h8.972v-4.261Zm-35.551 7.401h-12.56v4.261h12.56v-4.261Zm-42.614 0h-12.561v4.261h12.561v-4.261Z" fill="#BDE0F4"/><path d="M247.348 633.983h-8.972v4.261h8.972v-4.261Zm26.691 0h-8.972v4.261h8.972v-4.261Zm-35.551 7.4h-12.56v4.261h12.56v-4.261Zm-42.614 0h-12.561v4.261h12.561v-4.261Z" fill="#BDE0F4"/><path d="M247.348 641.383h-8.972v4.261h8.972v-4.261Zm26.691 0h-8.972v4.261h8.972v-4.261Zm-35.551 7.401h-12.56v4.261h12.56v-4.261Zm-42.614 0h-12.561v4.261h12.561v-4.261Z" fill="#BDE0F4"/><path d="M247.348 648.784h-8.972v4.261h8.972v-4.261Zm26.691 0h-8.972v4.261h8.972v-4.261Zm-35.551 7.289h-12.56v4.261h12.56v-4.261Zm-42.614 0h-12.561v4.261h12.561v-4.261Z" fill="#BDE0F4"/><path d="M247.348 656.073h-8.972v4.261h8.972v-4.261Zm26.691 0h-8.972v4.261h8.972v-4.261Zm-35.551 7.401h-12.56v4.261h12.56v-4.261Zm-42.614 0h-12.561v4.261h12.561v-4.261Z" fill="#BDE0F4"/><path d="M247.348 663.474h-8.972v4.261h8.972v-4.261Zm26.691 0h-8.972v4.261h8.972v-4.261Zm-35.551 7.4h-12.56v4.262h12.56v-4.262Zm-42.614.001h-12.561v4.261h12.561v-4.261Z" fill="#BDE0F4"/><path d="M247.348 670.874h-8.972v4.262h8.972v-4.262Zm26.691 0h-8.972v4.262h8.972v-4.262Zm-35.551 7.401h-12.56v4.261h12.56v-4.261Zm-42.614 0h-12.561v4.261h12.561v-4.261Z" fill="#BDE0F4"/><path d="M247.348 678.275h-8.972v4.261h8.972v-4.261Zm26.691 0h-8.972v4.261h8.972v-4.261Zm-35.551 7.401h-12.56v4.261h12.56v-4.261Zm-42.614 0h-12.561v4.261h12.561v-4.261Z" fill="#BDE0F4"/><path d="M247.348 685.676h-8.972v4.261h8.972v-4.261Zm26.691 0h-8.972v4.261h8.972v-4.261Zm-35.551 7.289h-12.56v4.261h12.56v-4.261Zm-42.614 0h-12.561v4.261h12.561v-4.261Z" fill="#BDE0F4"/><path d="M247.348 692.965h-8.972v4.261h8.972v-4.261Zm26.691 0h-8.972v4.261h8.972v-4.261Z" fill="#BDE0F4"/><path d="M219.648 549.771H200.92v227.854h18.728V549.771Zm42.167 0h-11.663V778.41h11.663V549.771Z" fill="#003659"/><path d="M141.551 673.82H93.105v-99.686h48.446v99.686Z" fill="#BDE0F4"/><path d="M130.897 574.134H103.87v99.686h27.027v-99.686Z" fill="#49AAF7"/><path d="M130.897 574.134H103.87v4.261h27.027v-4.261Zm0 7.625H103.87v4.261h27.027v-4.261Zm0 7.737H103.87v4.261h27.027v-4.261Zm0 7.625H103.87v4.261h27.027v-4.261Zm0 7.738H103.87v4.261h27.027v-4.261Zm0 7.625H103.87v4.261h27.027v-4.261Zm0 7.737H103.87v4.261h27.027v-4.261Zm0 7.625H103.87v4.261h27.027v-4.261Zm0 7.625H103.87v4.261h27.027v-4.261Zm0 7.737H103.87v4.261h27.027v-4.261Zm0 7.625H103.87v4.261h27.027v-4.261Zm0 7.737H103.87v4.262h27.027v-4.262Zm0 7.625H103.87v4.261h27.027v-4.261Zm-32.41-92.061h-5.382v4.261h5.382v-4.261Zm0 7.625h-5.382v4.261h5.382v-4.261Zm0 7.737h-5.382v4.261h5.382v-4.261Zm0 7.625h-5.382v4.261h5.382v-4.261Zm0 7.738h-5.382v4.261h5.382v-4.261Zm0 7.625h-5.382v4.261h5.382v-4.261Zm0 7.737h-5.382v4.261h5.382v-4.261Zm0 7.625h-5.382v4.261h5.382v-4.261Zm0 7.625h-5.382v4.261h5.382v-4.261Zm0 7.737h-5.382v4.261h5.382v-4.261Zm0 7.625h-5.382v4.261h5.382v-4.261Zm0 7.737h-5.382v4.262h5.382v-4.262Zm0 7.625h-5.382v4.261h5.382v-4.261Zm43.064-92.061h-5.383v4.261h5.383v-4.261Zm0 7.625h-5.383v4.261h5.383v-4.261Zm0 7.737h-5.383v4.261h5.383v-4.261Zm0 7.625h-5.383v4.261h5.383v-4.261Zm0 7.738h-5.383v4.261h5.383v-4.261Zm0 7.625h-5.383v4.261h5.383v-4.261Zm0 7.737h-5.383v4.261h5.383v-4.261Zm0 7.625h-5.383v4.261h5.383v-4.261Zm0 7.625h-5.383v4.261h5.383v-4.261Zm0 7.737h-5.383v4.261h5.383v-4.261Zm0 7.625h-5.383v4.261h5.383v-4.261Zm0 7.737h-5.383v4.262h5.383v-4.262Zm0 7.625h-5.383v4.261h5.383v-4.261Z" fill="#BDE0F4"/><path d="M93.104 574.134H74.712v99.686h18.392v-99.686Z" fill="#49AAF7"/><path d="M87.273 574.134h-7.738v96.322h7.738v-96.322Z" fill="#49AAF7"/><path d="M87.273 574.134h-7.738v4.261h7.738v-4.261Zm0 7.625h-7.738v4.261h7.738v-4.261Zm0 7.737h-7.738v4.261h7.738v-4.261Zm0 7.625h-7.738v4.261h7.738v-4.261Zm0 7.738h-7.738v4.261h7.738v-4.261Zm0 7.625h-7.738v4.261h7.738v-4.261Zm0 7.737h-7.738v4.261h7.738v-4.261Zm0 7.625h-7.738v4.261h7.738v-4.261Zm0 7.625h-7.738v4.261h7.738v-4.261Zm0 7.737h-7.738v4.261h7.738v-4.261Zm0 7.625h-7.738v4.261h7.738v-4.261Zm0 7.737h-7.738v4.262h7.738v-4.262Zm0 7.625h-7.738v4.261h7.738v-4.261Zm31.624-92.061h-3.14v96.322h3.14v-96.322Z" fill="#49AAF7"/><path d="M141.551 673.821H93.105v99.35h48.446v-99.35Z" fill="#BDE0F4"/><path d="M130.897 673.821H103.87v99.35h27.027v-99.35Z" fill="#49AAF7"/><path d="M130.897 673.821H103.87v3.812h27.027v-3.812Zm0 7.288H103.87v4.261h27.027v-4.261Zm0 7.738H103.87v4.261h27.027v-4.261Zm0 7.624H103.87v4.262h27.027v-4.262Zm-32.41-22.65h-5.382v3.812h5.382v-3.812Zm0 7.288h-5.382v4.261h5.382v-4.261Zm0 7.738h-5.382v4.261h5.382v-4.261Zm0 7.624h-5.382v4.262h5.382v-4.262Zm43.064-22.65h-5.383v3.812h5.383v-3.812Zm0 7.288h-5.383v4.261h5.383v-4.261Zm0 7.738h-5.383v4.261h5.383v-4.261Zm0 7.624h-5.383v4.262h5.383v-4.262Z" fill="#BDE0F4"/><path d="M93.104 673.82H74.712v99.351h18.392V673.82Z" fill="#49AAF7"/><path d="M87.273 673.821h-7.738v95.873h7.738v-95.873Z" fill="#49AAF7"/><path d="M87.273 673.821h-7.738v3.812h7.738v-3.812Zm0 7.288h-7.738v4.261h7.738v-4.261Zm0 7.738h-7.738v4.261h7.738v-4.261Zm0 7.624h-7.738v4.262h7.738v-4.262Zm31.624-22.65h-3.14v95.986h3.14v-95.986Z" fill="#49AAF7"/><path d="M141.663 568.079h-66.95v6.055h66.95v-6.055Z" fill="#BDE0F4"/><path d="M141.663 567.854h-66.95v.225h66.95v-.225Z" fill="#BDE0F4"/><path d="M93.104 568.079H74.712v6.055h18.392v-6.055Z" fill="#BDE0F4"/><path d="M93.104 567.854H74.712v.225h18.392v-.225Zm-18.616-18.39H40.732V781.02h33.756V549.464Zm-33.756 0H-7.042V781.02h47.774V549.464Z" fill="#BDE0F4"/><path d="M74.376 549.464H40.732V781.02h33.644V549.464Z" fill="#BDE0F4"/><path d="M40.732 549.464H-7.042V781.02h47.774V549.464Z" fill="#003659"/><path d="M43.311 552.492h-12.56v4.261h12.56v-4.261Zm-42.615 0h-12.56v4.261H.696v-4.261Z" fill="#BDE0F4"/><path d="M52.17 552.492H43.2v4.261h8.97v-4.261Zm26.691 0H69.89v4.261h8.971v-4.261Zm-35.55 7.401h-12.56v4.261h12.56v-4.261Zm-42.615 0h-12.56v4.261H.696v-4.261Z" fill="#BDE0F4"/><path d="M52.17 559.893H43.2v4.261h8.97v-4.261Zm26.691 0H69.89v4.261h8.971v-4.261Zm-35.55 7.401h-12.56v4.261h12.56v-4.261Zm-42.615 0h-12.56v4.261H.696v-4.261Z" fill="#BDE0F4"/><path d="M52.17 567.294H43.2v4.261h8.97v-4.261Zm26.691 0H69.89v4.261h8.971v-4.261Zm-35.55 7.4h-12.56v4.261h12.56v-4.261Zm-42.615 0h-12.56v4.261H.696v-4.261Z" fill="#BDE0F4"/><path d="M52.17 574.694H43.2v4.261h8.97v-4.261Zm26.691 0H69.89v4.261h8.971v-4.261Zm-35.55 7.401h-12.56v4.261h12.56v-4.261Zm-42.615 0h-12.56v4.261H.696v-4.261Z" fill="#BDE0F4"/><path d="M52.17 582.095H43.2v4.261h8.97v-4.261Zm26.691 0H69.89v4.261h8.971v-4.261Zm-35.55 7.289h-12.56v4.261h12.56v-4.261Zm-42.615 0h-12.56v4.261H.696v-4.261Z" fill="#BDE0F4"/><path d="M52.17 589.384H43.2v4.261h8.97v-4.261Zm26.691 0H69.89v4.261h8.971v-4.261Zm-35.55 7.401h-12.56v4.261h12.56v-4.261Zm-42.615 0h-12.56v4.261H.696v-4.261Z" fill="#BDE0F4"/><path d="M52.17 596.785H43.2v4.261h8.97v-4.261Zm26.691 0H69.89v4.261h8.971v-4.261Zm-35.55 7.401h-12.56v4.261h12.56v-4.261Zm-42.615 0h-12.56v4.261H.696v-4.261Z" fill="#BDE0F4"/><path d="M52.17 604.186H43.2v4.261h8.97v-4.261Zm26.691 0H69.89v4.261h8.971v-4.261Zm-35.55 7.4h-12.56v4.261h12.56v-4.261Zm-42.615 0h-12.56v4.261H.696v-4.261Z" fill="#BDE0F4"/><path d="M52.17 611.586H43.2v4.261h8.97v-4.261Zm26.691 0H69.89v4.261h8.971v-4.261Zm-35.55 7.289h-12.56v4.261h12.56v-4.261Zm-42.615 0h-12.56v4.261H.696v-4.261Z" fill="#BDE0F4"/><path d="M52.17 618.875H43.2v4.261h8.97v-4.261Zm26.691 0H69.89v4.261h8.971v-4.261Zm-35.55 7.401h-12.56v4.261h12.56v-4.261Zm-42.615 0h-12.56v4.261H.696v-4.261Z" fill="#BDE0F4"/><path d="M52.17 626.276H43.2v4.261h8.97v-4.261Zm26.691 0H69.89v4.261h8.971v-4.261Zm-35.55 7.401h-12.56v4.261h12.56v-4.261Zm-42.615 0h-12.56v4.261H.696v-4.261Z" fill="#BDE0F4"/><path d="M52.17 633.677H43.2v4.261h8.97v-4.261Zm26.691 0H69.89v4.261h8.971v-4.261Zm-35.55 7.4h-12.56v4.262h12.56v-4.262Zm-42.615.001h-12.56v4.261H.696v-4.261Z" fill="#BDE0F4"/><path d="M52.17 641.077H43.2v4.262h8.97v-4.262Zm26.691 0H69.89v4.262h8.971v-4.262Zm-35.55 7.401h-12.56v4.261h12.56v-4.261Zm-42.615 0h-12.56v4.261H.696v-4.261Z" fill="#BDE0F4"/><path d="M52.17 648.478H43.2v4.261h8.97v-4.261Zm26.691 0H69.89v4.261h8.971v-4.261Zm-35.55 7.289h-12.56v4.261h12.56v-4.261Zm-42.615 0h-12.56v4.261H.696v-4.261Z" fill="#BDE0F4"/><path d="M52.17 655.767H43.2v4.261h8.97v-4.261Zm26.691 0H69.89v4.261h8.971v-4.261Zm-35.55 7.401h-12.56v4.261h12.56v-4.261Zm-42.615 0h-12.56v4.261H.696v-4.261Z" fill="#BDE0F4"/><path d="M52.17 663.168H43.2v4.261h8.97v-4.261Zm26.691 0H69.89v4.261h8.971v-4.261Zm-35.55 7.401h-12.56v4.261h12.56v-4.261Zm-42.615-.001h-12.56v4.262H.696v-4.262Z" fill="#BDE0F4"/><path d="M52.17 670.569H43.2v4.261h8.97v-4.261Zm26.691 0H69.89v4.261h8.971v-4.261Zm-35.55 7.4h-12.56v4.261h12.56v-4.261Zm-42.615 0h-12.56v4.261H.696v-4.261Z" fill="#BDE0F4"/><path d="M52.17 677.969H43.2v4.261h8.97v-4.261Zm26.691 0H69.89v4.261h8.971v-4.261Zm-35.55 7.401h-12.56v4.261h12.56v-4.261Zm-42.615 0h-12.56v4.261H.696v-4.261Z" fill="#BDE0F4"/><path d="M52.17 685.37H43.2v4.261h8.97v-4.261Zm26.691 0H69.89v4.261h8.971v-4.261Zm-35.55 7.288h-12.56v4.262h12.56v-4.262Zm-42.615.001h-12.56v4.261H.696v-4.261Z" fill="#BDE0F4"/><path d="M52.17 692.658H43.2v4.262h8.97v-4.262Zm26.691 0H69.89v4.262h8.971v-4.262Z" fill="#BDE0F4"/><path d="M24.471 549.464H5.743v227.855h18.728V549.464Zm42.167 0H54.975v228.64h11.663v-228.64Z" fill="#003659"/><path d="M376.732 504.245v-30.276h59.773v251.964h-88.818V527.121l29.045-22.876Z" fill="#49AAF7"/><path d="M406.563 504.245v-30.276h59.773v251.964h-88.707V527.121l28.934-22.876Z" fill="#BDE0F4"/><path d="M385.031 504.245v-30.276h7.065v30.276l-29.046 22.876v198.812h-6.953V527.121l28.934-22.876Z" fill="#5566C5"/><path d="M461.178 488.323h-2.468v237.722h2.468V488.323Zm-5.047 0h-2.467v237.722h2.467V488.323Zm-4.934 0h-2.467v237.722h2.467V488.323Zm-5.047 0h-2.467v237.722h2.467V488.323Zm-4.934 0h-2.467v237.722h2.467V488.323Zm-4.934 0h-2.468v237.722h2.468V488.323Zm-5.047 0h-2.467v237.722h2.467V488.323Zm-4.935 0h-2.467v237.722h2.467V488.323Zm-5.046 0h-2.467v237.722h2.467V488.323Zm-4.935 0h-2.467v237.722h2.467V488.323Zm-9.98 27.809h-2.467v209.801h2.467V516.132Zm-4.935 6.952h-2.467v202.849h2.467V523.084Zm-5.046 7.513h-2.467v195.336h2.467V530.597Zm-4.935 7.176h-2.467v188.16h2.467v-188.16Z" fill="#49AAF7"/><path d="M386.377 537.773h-2.467v188.16h2.467v-188.16Z" fill="#BDE0F4"/><path d="M197.518 579.486v-26.874h-53.055v223.644h78.836V599.79l-25.781-20.304Z" fill="#49AAF7"/><path d="M171.04 579.486v-26.873h-53.055v223.643h78.737V599.79l-25.682-20.304Z" fill="#BDE0F4"/><path d="M190.152 579.486v-26.873h-6.272v26.873l25.781 20.304v176.466h6.172V599.79l-25.681-20.304Z" fill="#5566C5"/><path d="M122.564 565.353h2.19v211.003h-2.19V565.353Zm4.48 0h2.189v211.003h-2.189V565.353Zm4.379 0h2.19v211.003h-2.19V565.353Zm4.479 0h2.19v211.003h-2.19V565.353Zm4.38 0h2.19v211.003h-2.19V565.353Zm4.38 0h2.19v211.003h-2.19V565.353Zm4.48 0h2.19v211.003h-2.19V565.353Zm4.38 0h2.189v211.003h-2.189V565.353Zm4.479 0h2.189v211.003h-2.189V565.353Zm4.379 0h2.19v211.003h-2.19V565.353Zm8.859 24.683h2.19v186.22h-2.19v-186.22Zm4.38 6.171h2.19v180.049h-2.19V596.207Zm4.48 6.668h2.19v173.381h-2.19V602.875Zm4.379 6.37h2.19v167.011h-2.19V609.245Z" fill="#49AAF7"/><path d="M188.958 609.245h2.189v167.011h-2.189V609.245Z" fill="#BDE0F4"/><path d="M2.34 579.179v-26.873h-53.055V775.95h78.836V599.483l-25.78-20.304Z" fill="#49AAF7"/><path d="M-24.137 579.179v-26.873h-53.056V775.95H1.544V599.484l-25.681-20.305Z" fill="#BDE0F4"/><path d="M-5.026 579.179v-26.873h-6.271v26.873l25.78 20.305V775.95h6.172V599.484l-25.681-20.305Z" fill="#5566C5"/><path d="M1137.41 64.347s-8.41 149.025-108.11 203.97c-77.151 42.387-102.384 171.564-102.384 171.564l-.224-375.534h210.718ZM-154.844 236.761s6.367 112.848 81.83 154.456c58.401 32.096 77.5 129.915 77.5 129.915l.17-284.371h-159.5Z" fill="#FEEDC5" style="mix-blend-mode:overlay" opacity=".61"/><path d="M502.672 756.097c29.543 0 53.493-23.947 53.493-53.488 0-29.54-23.95-53.487-53.493-53.487-29.544 0-53.493 23.947-53.493 53.487 0 29.541 23.949 53.488 53.493 53.488Z" fill="#723E73"/><path d="M640.498 746.79c29.544 0 53.493-23.948 53.493-53.488s-23.949-53.488-53.493-53.488c-29.543 0-53.493 23.948-53.493 53.488s23.95 53.488 53.493 53.488Z" fill="#3A95A8"/><path d="M788.081 732.437c35.428 0 64.147-27.06 64.147-60.44 0-33.38-28.719-60.44-64.147-60.44-35.427 0-64.147 27.06-64.147 60.44 0 33.38 28.72 60.44 64.147 60.44Z" fill="#888A17"/><path d="M790.436 732.437c34.127 0 61.792-26.357 61.792-58.87s-27.665-58.87-61.792-58.87-61.792 26.357-61.792 58.87 27.665 58.87 61.792 58.87Z" fill="#3D213D"/><path d="M790.436 732.437c34.127 0 61.792-26.357 61.792-58.87s-27.665-58.87-61.792-58.87-61.792 26.357-61.792 58.87 27.665 58.87 61.792 58.87Z" fill="url(#f)"/><path d="M543.268 774.038h-207.02v-218.66l207.02-22.426v241.086Z" fill="#C0BDF4"/><path d="M543.268 774.038h-207.02v-91.052l207.02-9.307v100.359Z" fill="#3D91D4"/><path d="M364.06 649.234c-10.205 0-19.738 2.803-27.812 7.849v91.164c8.074 4.934 17.607 7.85 27.812 7.85 29.494 0 53.493-23.885 53.493-53.488 0-29.491-23.999-53.375-53.493-53.375Z" fill="#3A95A8"/><path d="M478.818 696.801c6.875-28.728-10.843-57.589-39.574-64.463-28.731-6.874-57.596 10.842-64.47 39.57-6.875 28.728 10.843 57.589 39.574 64.463 28.731 6.874 57.595-10.842 64.47-39.57Z" fill="#723E73"/><path d="M568.5 687.92a168.99 168.99 0 0 1-33.083 26.8v-3.252c5.159-5.607 10.206-11.325 14.916-17.381 2.579-3.364-2.131-8.185-4.71-4.709-3.253 4.149-6.617 8.185-10.094 12.222v-16.147c0-4.373-6.728-4.373-6.728 0v23.436c-1.907 2.018-3.925 4.149-5.944 6.055v-34.761c0-5.831-8.972-5.831-8.972 0v15.698c-.224.449-.336 1.01-.56 1.458-.897 2.579-1.795 5.158-2.804 7.625-2.243 6.055-4.822 11.998-7.401 17.829-2.804 6.056-5.832 11.887-9.645 17.269v-39.359c0-9.419-14.579-9.419-14.579 0v17.381c-13.345-7.625-25.12-17.829-34.653-30.052-1.794-2.243-5.607 0-3.925 2.243 10.542 13.568 23.439 24.781 38.466 32.967v9.531c-27.7-8.298-52.708-23.772-72.67-44.853-2.019-2.131-5.159 1.121-3.14 3.14 20.747 21.866 46.989 38.013 75.81 46.423v74.232c0 9.419 14.579 9.419 14.579 0v-60.888c2.355-2.691 4.486-5.495 6.504-8.41.673.112 10.093-6.953 13.906-10.204v76.138c0 5.831 8.972 5.831 8.972 0v-81.633c2.019-1.009 4.037-2.018 5.944-3.028v86.567c0 4.374 6.728 4.374 6.728 0V719.99c13.346-7.961 25.569-17.605 36.335-28.93 1.907-2.019-1.233-5.271-3.252-3.14Zm-54.839 35.434c-2.018 1.794-4.037 3.588-6.056 5.27.673-1.345 1.346-2.691 1.907-4.149 1.458-3.139 2.803-6.391 4.149-9.531v8.41Z" fill="#247889"/><path d="M582.855 683.547v121.104c0 4.373 6.729 4.373 6.729 0V683.547c0-4.261-6.729-4.261-6.729 0Zm105.192 2.018c-3.813 7.625-10.206 13.792-16.037 19.96a430.344 430.344 0 0 1-14.13 14.465c3.925-9.307 6.953-18.951 9.308-28.93.672-2.804-3.701-4.037-4.374-1.234-2.916 12.671-7.065 24.782-12.672 36.443v-31.845c0-4.374-6.729-4.374-6.729 0v21.193c-1.01-.449-2.131-.785-3.14-1.234l-13.458-5.382c-7.962-3.252-15.588-7.065-22.429-12.335-2.243-1.794-4.486 2.131-2.243 3.925 7.178 5.494 15.252 9.307 23.439 12.783 5.158 2.131 10.317 4.149 15.476 6.28.673.336 1.458.784 2.243 1.121v93.295c0 4.373 6.728 4.373 6.728 0v-77.933c1.346-2.467 2.58-5.046 3.813-7.625.673.112 15.028-13.232 21.196-19.848 6.056-6.391 12.784-12.895 16.709-20.856 1.346-2.579-2.467-4.934-3.7-2.243Z" fill="#3A95A8"/><path d="M723.934 654.28c0 19.063-4.15 37.004-11.663 53.263H336.248V600.456c14.242-12.447 31.176-21.754 49.905-26.912 9.981-6.392 21.083-11.101 32.97-13.905 18.841-30.948 52.933-51.581 91.847-51.581 23.663 0 45.419 7.625 63.25 20.633a130.804 130.804 0 0 1 22.205-1.907c10.99 0 21.644 1.346 31.849 4.037 55.063 14.129 95.66 64.028 95.66 123.459Z" fill="url(#g)"/><path d="M994.54 739.389c43.97 0 79.62-33.586 79.62-75.017s-35.65-75.017-79.62-75.017c-43.975 0-79.623 33.586-79.623 75.017s35.648 75.017 79.623 75.017Z" fill="#3A95A8"/><path d="M997.456 739.389c42.364 0 76.704-32.683 76.704-72.999 0-40.316-34.34-72.998-76.704-72.998-42.364 0-76.707 32.682-76.707 72.998s34.343 72.999 76.707 72.999Z" fill="#3A95A8"/><path d="M1043.21 629.162c0 58.309-50.128 105.517-112.032 105.517-28.709 0-54.839-10.204-74.689-26.912-22.877-19.287-37.344-47.432-37.344-78.605 0-58.31 50.129-105.518 112.033-105.518 31.289 0 59.437 11.999 79.852 31.51 19.85 18.95 32.18 45.077 32.18 74.008Z" fill="#AEB11B"/><path d="M1043.21 629.162c0 58.309-50.128 105.517-112.032 105.517-28.709 0-54.839-10.204-74.689-26.912-22.877-19.287-37.344-47.432-37.344-78.605 0-58.31 50.129-105.518 112.033-105.518 31.289 0 59.437 11.999 79.852 31.51 19.85 18.95 32.18 45.077 32.18 74.008Z" fill="url(#h)"/><path d="M426.076 710.907c-1.682-7.737-6.616-14.465-12.56-19.96-5.495-4.934-12.336-9.082-19.85-9.531-12.896-.785-24.896 9.195-37.568 6.84-5.832-1.121-10.654-4.597-15.925-7.289-1.233-.672-2.579-1.233-3.925-1.794v59.207c17.831.336 35.662.785 53.493 1.121 10.542.224 22.317 0 29.943-6.952 6.056-5.271 8.074-13.905 6.392-21.642Z" fill="#247889"/><path d="M426.076 710.907c-1.682-7.737-6.616-14.465-12.56-19.96-5.495-4.934-12.336-9.082-19.85-9.531-12.896-.785-24.896 9.195-37.568 6.84-5.832-1.121-10.654-4.597-15.925-7.289-1.233-.672-2.579-1.233-3.925-1.794v59.207c17.831.336 35.662.785 53.493 1.121 10.542.224 22.317 0 29.943-6.952 6.056-5.271 8.074-13.905 6.392-21.642Z" fill="url(#i)"/><path d="M472.392 708.777c-1.346-1.234-3.14-2.131-4.822-3.028-3.589-1.794-7.29-3.476-10.878-5.27-14.131-6.84-28.934-13.905-44.746-13.12-11.103.561-21.868 5.046-30.167 11.998-2.916 2.467-5.607 5.719-6.729 9.195-.785 2.243-.785 4.486.112 6.728 1.346 3.252 4.598 5.383 8.075 6.392 3.476 1.009 7.177 1.009 10.766 1.009 21.307-.112 42.615-.112 63.922-.224 4.038 0 8.187-.112 11.663-1.906 3.477-1.795 6.056-5.943 4.598-9.42-.56-1.009-1.121-1.682-1.794-2.354Z" fill="#247889"/><path d="M472.392 708.777c-1.346-1.234-3.14-2.131-4.822-3.028-3.589-1.794-7.29-3.476-10.878-5.27-14.131-6.84-28.934-13.905-44.746-13.12-11.103.561-21.868 5.046-30.167 11.998-2.916 2.467-5.607 5.719-6.729 9.195-.785 2.243-.785 4.486.112 6.728 1.346 3.252 4.598 5.383 8.075 6.392 3.476 1.009 7.177 1.009 10.766 1.009 21.307-.112 42.615-.112 63.922-.224 4.038 0 8.187-.112 11.663-1.906 3.477-1.795 6.056-5.943 4.598-9.42-.56-1.009-1.121-1.682-1.794-2.354Z" fill="url(#j)"/><path d="M456.691 700.479c-14.13-6.84-28.933-13.905-44.745-13.12-11.103.561-21.869 5.046-30.167 11.998-2.916 2.467-5.608 5.719-6.729 9.195 1.121 1.458 2.691 2.692 4.261 3.701 10.206 6.391 24.448 6.279 34.429-.449 4.037-2.691 7.514-6.391 12.112-8.073 5.158-1.907 10.99-.898 16.261.897 5.158 1.794 10.093 4.485 15.364 5.943 3.14.897 6.616 1.457 9.868.785a12.462 12.462 0 0 0 5.159-2.579c-1.346-1.234-3.14-2.131-4.822-3.028-3.813-1.794-7.402-3.588-10.991-5.27Z" fill="#247889"/><path d="M456.691 700.479c-14.13-6.84-28.933-13.905-44.745-13.12-11.103.561-21.869 5.046-30.167 11.998-2.916 2.467-5.608 5.719-6.729 9.195 1.121 1.458 2.691 2.692 4.261 3.701 10.206 6.391 24.448 6.279 34.429-.449 4.037-2.691 7.514-6.391 12.112-8.073 5.158-1.907 10.99-.898 16.261.897 5.158 1.794 10.093 4.485 15.364 5.943 3.14.897 6.616 1.457 9.868.785a12.462 12.462 0 0 0 5.159-2.579c-1.346-1.234-3.14-2.131-4.822-3.028-3.813-1.794-7.402-3.588-10.991-5.27Z" fill="url(#k)"/><path d="M976.148 606.175h-4.485v193.654h4.485V606.175Z" fill="#FFFFFB"/><path d="M995.197 599.944 974.5 620.639l.793.792 20.697-20.694-.793-.793Z" fill="#FFFFFB"/><path d="m1011.36 588.457-2.47-.672c-1.57-.337-3.7.112-4.93 1.121l-11.887 10.316c-1.121 1.009-.897 2.131.673 2.579l2.467.673c1.57.336 3.701-.112 4.937-1.121l11.88-10.317c1.24-1.009.9-2.13-.67-2.579Z" fill="#49AAF7"/><path d="m267.297 557.019 830.773-211.595s-.68-1.907-1.91-4.822c-2.91-7.289-8.63-21.193-12.67-28.258-5.61-9.755-8.3-12.559-8.3-12.559l-20.3-4.261-81.864 24.67L274.025 530.78l-6.728 26.239Z" fill="#889EA3"/><path d="M1050.63 304.158 273.353 533.471l-7.626 23.996 794.553-206.998-9.65-46.311Z" fill="#E21A1A"/><path d="m909.08 344.843 36.834 35.445-58.014 14.924-32.229-35.445 53.409-14.924Zm-131.211 39.875 38.976 36.921-61.387 15.546-34.103-36.921 56.514-15.546Zm-122.794 35.678 29.553 28.06-46.546 11.815-25.859-28.06 42.852-11.815Zm-91.293 26.233 29.553 28.06-46.546 11.815-25.859-28.06 42.852-11.815Zm-89.194 26.234 29.553 28.06-46.546 11.815-25.858-28.06 42.851-11.815ZM410.75 493.85l20.987 19.937-33.054 8.395-18.364-19.938 30.431-8.394Zm-67.779 18.888 20.558 19.199-32.379 8.084-17.989-19.199 29.81-8.084Zm-43.977 13.117 15.74 19.412-23.535 6.296-13.192-19.412 20.987-6.296Z" fill="#A1C5CD"/><path d="m825.78 374.018 6.28-1.907v9.756l-6.28 1.906v-9.755ZM455.028 489.739c.336-2.355.673-4.709 1.121-7.064l30.84-9.083c-.448 2.355-.673 4.71-.448 7.177l-31.513 8.97Zm-96.557 27.585-78.838 22.538.897-5.606 78.726-23.1c-.224 2.019-.449 4.037-.785 6.168Zm45.419-13.007-17.271 4.934c.337-2.131.561-4.262.785-6.392l17.831-5.27-1.345 6.728Zm6.617-8.298 12.896-3.813c-.56 2.355-1.121 4.598-1.682 6.952l-12.672 3.589c.448-2.131.897-4.486 1.458-6.728Zm17.942-5.271 22.541-6.616c-.336 2.355-.673 4.598-.897 6.952l-23.214 6.616c.449-2.242 1.009-4.597 1.57-6.952Zm92.071-27.024 13.906-4.037c-.448 2.579-.673 5.046-.785 7.625l-13.794 3.925c.337-2.579.449-5.046.673-7.513Zm22.542-6.616 7.065-2.13c-.224 2.579-.561 5.158-.785 7.737l-7.402 2.13c.113-2.691.449-5.382 1.122-7.737Zm10.429-3.14 6.841-2.018c0 1.346 0 2.691.112 4.149v3.476l-7.626 2.131c.112-2.579.449-5.159.673-7.738Zm19.177-5.606 6.056-1.794c-.336 2.579-.448 5.27-.448 7.849l-6.281 1.794c.337-2.579.561-5.158.673-7.849Zm16.71-4.934 21.195-6.168c-.336 2.692-.336 5.383-.336 8.074l-21.756 6.167c.224-2.579.56-5.27.897-8.073Zm53.157-15.586 12.336-3.589c-.225 2.916-.561 5.831-1.122 8.635l-11.887 3.364c0-2.804.224-5.607.673-8.41Zm15.588-4.598 10.429-3.027c0 2.915-.112 5.718-.336 8.634l-10.99 3.14c.448-2.916.785-5.831.897-8.747Zm13.681-4.037 53.718-15.811v8.971l-54.054 15.474c.224-2.915.336-5.718.336-8.634Zm69.867-20.52 24.224-7.065v9.195l-24.224 6.953v-9.083Zm34.204-10.092 33.756-9.868v9.644l-33.756 9.643v-9.419Zm59.437-17.381 9.98-2.915v9.868l-9.98 2.803v-9.756Zm20.635 3.925v-9.98l36.335-10.653v10.317l-15.027 4.261v-3.252c0-2.131-3.252-2.131-3.252 0v4.149l-18.056 5.158Z" fill="#E6E6E6"/><path d="m973.026 320.194 90.274 19.062 32.86 1.346c-2.91-7.289-8.63-21.193-12.67-28.258-5.61-9.755-8.3-12.559-8.3-12.559l-20.3-4.261-81.864 24.67Z" fill="#FBD5A2"/><path d="m723.391 395.435-2.243 51.357-11.663 2.803 4.598-51.357 9.308-2.803Zm-215.206 64.813-3.926 41.265-6.952-2.018 3.925-37.117 6.953-2.13Zm-140.07 42.274-5.158 31.397-4.374 1.234 5.944-31.622 3.588-1.009Z" fill="#3D213D"/><path d="m1095.21 338.425-20.53-2.697-8.95-5.958-4.22-25.851-82.268 32.258.761 18.321-6.673.899-1.351-22.929-4.223 1.686 2.364 34.057-156.001 55.637-.423 14.387 282.274-97.337-.76-2.473Z" fill="#ED6F01"/><path d="m974.597 330.153-34.979 10.487 3.844 35.684 117.878-30.696-86.743-15.475Z" fill="#E21A1A"/><path d="m1007.78 312.314 44.12 42.09-44.12 9.327-38.599-42.09 38.599-9.327Z" fill="#A1C5CD"/><path d="m1048.16 308.083 4.71 21.866-54.835-6.952 50.125-14.914Z" fill="#FBD5A2"/><path d="m679.879 412.816-42.391 12.783v25.342l1.907-1.121v-23.212l40.709-12.783-.225-1.009Zm212.403-61.898v1.682l-39.699 11.325.561 20.409h-1.122l-.336-21.53 40.596-11.886Zm100.852-26.012v1.682l-39.699 11.325.561 20.408h-1.122l-.336-21.529 40.596-11.886Zm-201.222 55.615v1.009l-18.056 5.495v15.362l-.785 1.009v-17.38l18.841-5.495ZM452.785 480.544l-1.794 17.381-2.019.448 1.907-17.268 1.906-.561Zm-35.774 10.541-1.458 17.717-1.794.56 1.57-17.829 1.682-.448Zm-31.625 9.307-2.131 17.268-1.57.673 2.467-17.605 1.234-.336Zm-55.176 16.371-3.252 18.39-1.458.673 2.916-18.615 1.794-.448Z" fill="#E6E6E6"/><path d="M959.947 348.686v-9.98l36.335-10.652v10.316l-15.027 4.261v-3.252c0-2.13-3.252-2.13-3.252 0v4.149l-18.056 5.158Zm-31.448-1.272 6.28-1.906v9.755l-6.28 1.907v-9.756Zm9.532-2.803 9.981-2.916v9.868l-9.981 2.803v-9.755Z" fill="#E6E6E6"/><path d="m1038.69 300.771 15.36 52.254-346.861 47.657 331.501-99.911Z" fill="#FEEDC5" style="mix-blend-mode:screen" opacity=".61"/><path d="M2501.04 46.83-235.645 693.302v12.896L3030.96 123.432V55.225l-529.92-8.395Z" fill="#003659"/><path opacity=".24" d="m682.376 539.344-181.227-18.166 242.234-57.749 152.853 37.116-213.86 38.799Z" fill="#FEEDC5"/><path d="M2501.04 52.077-235.644 693.302v-6.167L2369.87 15.35l131.17 36.727Z" fill="#5566C5"/><path d="M1372.47 283.457-235.645 689.49v1.009L1376.14 291.852l-3.67-8.395Z" fill="#3D213D"/><path d="M989.317 487.314v23.436l-14.354 7.513-22.093-18.278-14.242-9.98v-23.436l50.689 20.745Z" fill="#BDD0F4"/><path d="M952.87 476.437h54.05v297.602h-54.05V476.437Z" fill="#BDD0F4"/><path d="M1035.9 774.004h-28.93V480.439h28.93v293.565Z" fill="#3A95A8"/><path d="M1048.42 477.11v23.436l-14.47 7.513-21.87-8.971-14.352-19.287v-23.324l50.692 20.633Z" fill="#5566C5"/><path d="m938.627 466.569 59.101-10.092v23.324l-59.101 10.204v-23.436Z" fill="#BDD0F4"/><path d="m1023.07 466.794 12.79 43.732v-3.476l12.56-6.504V477.11l-25.35-10.316Z" fill="#003659"/><path d="m1006.92 492.136-54.05 7.849-14.243-9.98 59.101-10.204 9.192 12.335Z" fill="#3D91D4"/><path d="M523.355 567.713v16.82l-10.317 5.382-15.925-13.12-10.205-7.176v-16.82l36.447 14.914Z" fill="#BDD0F4"/><path d="M497.113 559.863h38.915v214.175h-38.915V559.863Z" fill="#BDD0F4"/><path d="M556.889 774.002H536.03v-211.26h20.859v211.26Z" fill="#003659"/><path d="M565.858 560.424v16.82l-10.429 5.383-15.7-6.392-10.318-14.017v-16.707l36.447 14.913Z" fill="#003659"/><path d="m486.908 552.799 42.503-7.289v16.708l-42.503 7.401v-16.82Z" fill="#BDD0F4"/><path d="m547.579 552.911 9.308 31.51v-2.579l8.971-4.598v-16.82l-18.279-7.513Z" fill="#003659"/><path d="m536.028 571.189-38.915 5.606-10.205-7.176 42.503-7.401 6.617 8.971Z" fill="#3D91D4"/><path opacity=".61" d="m930.104 385.16 2.018 8.298 484.948-120.495-16.27-9.968L930.104 385.16Zm22.766 10.877 4.037 18.166 386.183-90.043 39.87-33.883-430.09 105.76Z" fill="#FEEDC5"/><path d="M871.977 819.755c0-70.644-48.559-166.406-100.482-166.406-22.765 0-43.624 10.989-59.886 29.267-3.476-.561-6.953-.785-10.541-.785-51.923 0-94.09 95.762-94.09 166.406 0 2.467.112 5.046.112 7.513h260.513c2.916-11.438 4.374-23.548 4.374-35.995Z" fill="url(#l)"/><path d="M2764.87-43.413h-3509v1021h3509v-1021Z" fill="url(#m)" style="mix-blend-mode:overlay" opacity=".58"/><path d="M-98.18 783.239c0-97.908 67.3-230.627 139.261-230.627 31.552 0 60.461 15.23 82.997 40.562 4.818-.777 9.637-1.088 14.61-1.088 71.962 0 130.402 132.719 130.402 230.626 0 3.419-.156 6.994-.156 10.413H-92.118c-4.041-15.852-6.062-32.636-6.062-49.886Z" fill="url(#n)"/></g><g clip-path="url(#o)"><path fill="#fff" d="M-973.32 1.271h3829.4v1018.69h-3829.4z"/><g clip-path="url(#p)"><path d="M2559.5-47.99h-3575V973.009h3575v-1021Z" fill="url(#q)"/><path d="m184.157 629.61.702 7.015c.819 9.238 1.52 18.475 2.222 27.712.117 1.404.117 2.807.234 4.21h6.081v-4.093h35.667v21.749h12.629v-.234h-.701v-2.572h.701v-.936h-.701v-2.572h.701v-.935h-.701v-2.573h.701v-.935h-.701v-2.573h.701v-1.052h4.912v-98.22h2.572v-26.075h38.24v26.075h2.573v138.794h15.319v9.237h6.9v-27.244h2.689v-11.576h29.002v-.468h-1.988l2.221-3.157v-1.52h1.053l1.169-1.637h-2.222v-2.338h2.339v-1.637h-2.339v-2.339h2.339v-1.637h-2.339v-2.338h2.339v-3.976h1.871v-4.209h5.029V645.98h3.742v-14.733l11.343-2.69 2.573-.584v-24.321h1.52v23.97l4.561-1.052v19.41h3.157v11.576h2.69v-28.648h1.988v-57.529h-1.053v-2.806h1.637v-1.169c0-.819.585-1.52 1.404-1.52h.818v-5.964c0-1.52 1.17-2.806 2.573-2.806h.117v-5.262c0-1.52.936-2.806 2.339-3.157v-4.677h1.754c.468-3.508 3.04-6.197 6.432-6.782v-4.794c0-.351.117-.584.467-.584V519.58h1.17v12.278c.234.116.468.35.468.584v4.794c3.274.468 5.847 3.274 6.314 6.782h1.755v4.677c1.286.351 2.338 1.637 2.338 3.157v5.262h.117c1.404 0 2.573 1.286 2.573 2.806v5.964h.936c.818 0 1.403.701 1.403 1.52v1.169h1.286v2.806h-1.286v57.529h1.871v35.429h26.896v18.241h16.606V714.5h5.496v-1.52h23.739v-7.367h3.391v-8.769h18.945v-8.302h21.517v-64.077h2.573v-1.052h-2.573v-3.859h2.573v-1.052h-2.69v-3.859h2.69v-1.052h-2.69v-3.859h2.69v-1.052h-2.69v-3.859h2.69v-1.169h-2.69v-3.859h2.69v-1.052h-2.69v-3.859h2.69v-1.052h-2.69v-83.37h48.881v79.394h-.117v3.859h-3.391v1.052h3.391v3.859h-3.391v1.052h3.391v3.859h-3.391v1.169h3.508v3.859h-3.508v1.052h3.508v3.859h-3.508v1.052h3.508v3.859h-3.508v1.052h3.508v3.859h-3.508v1.052h3.742v48.525h16.372V659.66h20.464v-21.047l4.21-12.16.117-.468 11.11-32.038 15.436 44.666v3.04h.935v1.403h-1.052v1.871h.935v1.403h-.935v1.871h.935v1.403h-.935v1.871h.935v1.404h-.935v1.87h.935v1.403h-.935v1.871h.935v1.403h-.935v1.871h.935v1.403h-.935v1.871h.935v1.403h-.935v1.871h.935v1.403h-.935v1.871h.935v1.403h-.935v1.871h.935v1.403h-.935v1.871h.935v1.403h-.935v1.871h.935v1.403h-.935v1.871h.935v1.403h-.935v1.871h.935v1.403h-.935v1.871h.935v1.403h-.935v1.871h.935v1.403h-.935v1.871h.935v.468h17.775v-16.37h27.131v-.585l.117-2.338v-4.327l.117-1.987.117-2.339v-1.988l.117-2.338v-1.988l.116-2.339.117-1.987v-4.327l.117-2.338v-1.988l.117-2.339v-1.987l.117-2.339v-1.988l.117-2.338v-1.988l.117-2.339v-1.988l.117-2.338.234-7.25 11.343-4.092v6.314h3.508l-.35-17.188 19.646-5.262 1.988 27.478.234 2.338.116 1.988.234 2.339.117 1.988.117 2.338.117 1.988.117 2.339.117 1.987.117 2.339.117 1.988.234 2.338.117 1.988.117 2.339.117 1.987.117 2.339.117 1.988.233 2.338.117 1.988.234 2.339.117 1.987.117 2.339.117 1.988.234 2.338.117 1.988.117 2.339.117 1.988.234 2.338.117 1.988.233 2.338.117 1.988.117 2.339.117 1.988.117 2.338.117 1.988.117 2.338.117 1.988.117 2.222h19.763v10.173h13.916v-22.451h15.436v-40.457h8.771v-57.061h62.212v206.963H143.696V629.727l40.461-.117Z" fill="#BDE0F4"/><path d="M636.485 692.634h-50.519V588.685h50.519v103.949Z" fill="#BDE0F4"/><path d="M625.376 588.685h-28.183v103.949h28.183V588.685Z" fill="#49AAF7"/><path d="M625.376 588.685h-28.183v4.443h28.183v-4.443Zm0 7.951h-28.183v4.443h28.183v-4.443Zm0 8.068h-28.183v4.443h28.183v-4.443Zm0 7.951h-28.183v4.443h28.183v-4.443Zm0 8.068h-28.183v4.443h28.183v-4.443Zm0 7.951h-28.183v4.443h28.183v-4.443Zm0 8.068h-28.183v4.443h28.183v-4.443Zm0 7.951h-28.183v4.444h28.183v-4.444Zm0 7.952h-28.183v4.443h28.183v-4.443Zm0 8.067h-28.183v4.444h28.183v-4.444Zm0 7.952h-28.183v4.443h28.183v-4.443Zm0 8.068h-28.183v4.443h28.183v-4.443Zm0 7.951h-28.183v4.443h28.183v-4.443Zm-33.797-95.998h-5.613v4.443h5.613v-4.443Zm0 7.951h-5.613v4.443h5.613v-4.443Zm0 8.068h-5.613v4.443h5.613v-4.443Zm0 7.951h-5.613v4.443h5.613v-4.443Zm0 8.068h-5.613v4.443h5.613v-4.443Zm0 7.951h-5.613v4.443h5.613v-4.443Zm0 8.068h-5.613v4.443h5.613v-4.443Zm0 7.951h-5.613v4.444h5.613v-4.444Zm0 7.952h-5.613v4.443h5.613v-4.443Zm0 8.067h-5.613v4.444h5.613v-4.444Zm0 7.952h-5.613v4.443h5.613v-4.443Zm0 8.068h-5.613v4.443h5.613v-4.443Zm0 7.951h-5.613v4.443h5.613v-4.443Zm44.906-95.998h-5.613v4.443h5.613v-4.443Zm0 7.951h-5.613v4.443h5.613v-4.443Zm0 8.068h-5.613v4.443h5.613v-4.443Zm0 7.951h-5.613v4.443h5.613v-4.443Zm0 8.068h-5.613v4.443h5.613v-4.443Zm0 7.951h-5.613v4.443h5.613v-4.443Zm0 8.068h-5.613v4.443h5.613v-4.443Zm0 7.951h-5.613v4.444h5.613v-4.444Zm0 7.952h-5.613v4.443h5.613v-4.443Zm0 8.067h-5.613v4.444h5.613v-4.444Zm0 7.952h-5.613v4.443h5.613v-4.443Zm0 8.068h-5.613v4.443h5.613v-4.443Zm0 7.951h-5.613v4.443h5.613v-4.443Z" fill="#BDE0F4"/><path d="M585.966 588.685h-19.178v103.949h19.178V588.685Z" fill="#49AAF7"/><path d="M579.885 588.685h-8.069v100.441h8.069V588.685Z" fill="#49AAF7"/><path d="M579.885 588.685h-8.069v4.443h8.069v-4.443Zm0 7.951h-8.069v4.443h8.069v-4.443Zm0 8.068h-8.069v4.443h8.069v-4.443Zm0 7.951h-8.069v4.443h8.069v-4.443Zm0 8.068h-8.069v4.443h8.069v-4.443Zm0 7.951h-8.069v4.443h8.069v-4.443Zm0 8.068h-8.069v4.443h8.069v-4.443Zm0 7.951h-8.069v4.444h8.069v-4.444Zm0 7.952h-8.069v4.443h8.069v-4.443Zm0 8.067h-8.069v4.444h8.069v-4.444Zm0 7.952h-8.069v4.443h8.069v-4.443Zm0 8.068h-8.069v4.443h8.069v-4.443Zm0 7.951h-8.069v4.443h8.069v-4.443Zm32.978-95.998h-3.275v100.441h3.275V588.685Z" fill="#49AAF7"/><path d="M636.485 692.634h-50.519v103.599h50.519V692.634Z" fill="#BDE0F4"/><path d="M625.376 692.634h-28.183v103.599h28.183V692.634Z" fill="#49AAF7"/><path d="M625.376 692.634h-28.183v3.976h28.183v-3.976Zm-33.797 0h-5.613v3.976h5.613v-3.976Zm44.906 0h-5.613v3.976h5.613v-3.976Z" fill="#BDE0F4"/><path d="M585.966 692.634h-19.178v103.599h19.178V692.634Z" fill="#49AAF7"/><path d="M579.885 692.634h-8.069v99.974h8.069v-99.974Z" fill="#49AAF7"/><path d="M579.885 692.634h-8.069v3.976h8.069v-3.976Zm32.978 0h-3.275v100.091h3.275V692.634Z" fill="#49AAF7"/><path d="M636.602 582.37h-69.814v6.315h69.814v-6.315Z" fill="#BDE0F4"/><path d="M636.602 582.137h-69.814v.234h69.814v-.234Z" fill="#BDE0F4"/><path d="M585.966 582.37h-19.178v6.315h19.178v-6.315Z" fill="#BDE0F4"/><path d="M585.966 582.137h-19.178v.234h19.178v-.234Zm-19.411-19.176h-35.2v241.457h35.2V562.961Z" fill="#BDE0F4"/><path d="M531.355 562.961h-49.817v241.457h49.817V562.961Zm35.083 0h-35.083v241.457h35.083V562.961Z" fill="#BDE0F4"/><path d="M531.355 562.961h-49.817v241.457h49.817V562.961Z" fill="#003659"/><path d="M534.045 566.117h-13.098v4.444h13.098v-4.444Zm-44.438.001H476.51v4.443h13.097v-4.443Z" fill="#BDE0F4"/><path d="M543.283 566.117h-9.355v4.444h9.355v-4.444Zm27.832 0h-9.355v4.444h9.355v-4.444Zm-37.07 7.718h-13.098v4.443h13.098v-4.443Zm-44.438 0H476.51v4.443h13.097v-4.443Z" fill="#BDE0F4"/><path d="M543.283 573.835h-9.355v4.443h9.355v-4.443Zm27.832 0h-9.355v4.443h9.355v-4.443Zm-37.07 7.717h-13.098v4.443h13.098v-4.443Zm-44.438 0H476.51v4.444h13.097v-4.444Z" fill="#BDE0F4"/><path d="M543.283 581.552h-9.355v4.443h9.355v-4.443Zm27.832 0h-9.355v4.443h9.355v-4.443Zm-37.07 7.717h-13.098v4.444h13.098v-4.444Zm-44.438 0H476.51v4.444h13.097v-4.444Z" fill="#BDE0F4"/><path d="M543.283 589.269h-9.355v4.444h9.355v-4.444Zm27.832 0h-9.355v4.444h9.355v-4.444Zm-37.07 7.718h-13.098v4.443h13.098v-4.443Zm-44.438 0H476.51v4.443h13.097v-4.443Z" fill="#BDE0F4"/><path d="M543.283 596.987h-9.355v4.443h9.355v-4.443Zm27.832 0h-9.355v4.443h9.355v-4.443Zm-37.07 7.6h-13.098v4.444h13.098v-4.444Zm-44.438 0H476.51v4.443h13.097v-4.443Z" fill="#BDE0F4"/><path d="M543.283 604.587h-9.355v4.444h9.355v-4.444Zm27.832 0h-9.355v4.444h9.355v-4.444Zm-37.07 7.717h-13.098v4.443h13.098v-4.443Zm-44.438 0H476.51v4.444h13.097v-4.444Z" fill="#BDE0F4"/><path d="M543.283 612.304h-9.355v4.443h9.355v-4.443Zm27.832 0h-9.355v4.443h9.355v-4.443Zm-37.07 7.717h-13.098v4.444h13.098v-4.444Zm-44.438.001H476.51v4.443h13.097v-4.443Z" fill="#BDE0F4"/><path d="M543.283 620.021h-9.355v4.444h9.355v-4.444Zm27.832 0h-9.355v4.444h9.355v-4.444Zm-37.07 7.718h-13.098v4.443h13.098v-4.443Zm-44.438 0H476.51v4.443h13.097v-4.443Z" fill="#BDE0F4"/><path d="M543.283 627.739h-9.355v4.443h9.355v-4.443Zm27.832 0h-9.355v4.443h9.355v-4.443Zm-37.07 7.6h-13.098v4.443h13.098v-4.443Zm-44.438 0H476.51v4.443h13.097v-4.443Z" fill="#BDE0F4"/><path d="M543.283 635.339h-9.355v4.443h9.355v-4.443Zm27.832 0h-9.355v4.443h9.355v-4.443Zm-37.07 7.717h-13.098v4.444h13.098v-4.444Zm-44.438 0H476.51v4.444h13.097v-4.444Z" fill="#BDE0F4"/><path d="M543.283 643.056h-9.355v4.444h9.355v-4.444Zm27.832 0h-9.355v4.444h9.355v-4.444Zm-37.07 7.718h-13.098v4.443h13.098v-4.443Zm-44.438 0H476.51v4.443h13.097v-4.443Z" fill="#BDE0F4"/><path d="M543.283 650.774h-9.355v4.443h9.355v-4.443Zm27.832 0h-9.355v4.443h9.355v-4.443Zm-37.07 7.717h-13.098v4.444h13.098v-4.444Zm-44.438 0H476.51v4.443h13.097v-4.443Z" fill="#BDE0F4"/><path d="M543.283 658.491h-9.355v4.444h9.355v-4.444Zm27.832 0h-9.355v4.444h9.355v-4.444Zm-37.07 7.717h-13.098v4.443h13.098v-4.443Zm-44.438 0H476.51v4.444h13.097v-4.444Z" fill="#BDE0F4"/><path d="M543.283 666.208h-9.355v4.443h9.355v-4.443Zm27.832 0h-9.355v4.443h9.355v-4.443Zm-37.07 7.601h-13.098v4.443h13.098v-4.443Zm-44.438 0H476.51v4.443h13.097v-4.443Z" fill="#BDE0F4"/><path d="M543.283 673.809h-9.355v4.443h9.355v-4.443Zm27.832 0h-9.355v4.443h9.355v-4.443Zm-37.07 7.717h-13.098v4.443h13.098v-4.443Zm-44.438 0H476.51v4.443h13.097v-4.443Z" fill="#BDE0F4"/><path d="M543.283 681.526h-9.355v4.443h9.355v-4.443Zm27.832 0h-9.355v4.443h9.355v-4.443Zm-37.07 7.717h-13.098v4.444h13.098v-4.444Zm-44.438 0H476.51v4.443h13.097v-4.443Z" fill="#BDE0F4"/><path d="M543.283 689.243h-9.355v4.444h9.355v-4.444Zm27.832 0h-9.355v4.444h9.355v-4.444Zm-37.07 7.717h-13.098v4.444h13.098v-4.444Zm-44.438 0H476.51v4.444h13.097v-4.444Z" fill="#BDE0F4"/><path d="M543.283 696.96h-9.355v4.444h9.355v-4.444Zm27.832 0h-9.355v4.444h9.355v-4.444Z" fill="#BDE0F4"/><path d="M514.399 562.961H494.87v237.598h19.529V562.961Zm43.969 0h-12.161v238.417h12.161V562.961Z" fill="#003659"/><path d="M431.326 682.537h-63.825V551.209h63.825v131.328Z" fill="#BDE0F4"/><path d="M417.291 551.209h-35.606v131.328h35.606V551.209Z" fill="#49AAF7"/><path d="M417.291 551.209h-35.606v5.613h35.606v-5.613Zm0 10.045h-35.606v5.614h35.606v-5.614Zm0 10.193h-35.606v5.614h35.606v-5.614Zm0 10.045h-35.606v5.614h35.606v-5.614Zm0 10.194h-35.606v5.613h35.606v-5.613Zm0 10.045h-35.606v5.613h35.606v-5.613Zm0 10.193h-35.606v5.614h35.606v-5.614Zm0 10.045h-35.606v5.614h35.606v-5.614Zm0 10.046h-35.606v5.613h35.606v-5.613Zm0 10.193h-35.606v5.613h35.606v-5.613Zm0 10.045h-35.606v5.614h35.606v-5.614Zm0 10.193h-35.606v5.614h35.606v-5.614Zm0 10.046h-35.606v5.613h35.606v-5.613Zm-42.698-121.283h-7.092v5.613h7.092v-5.613Zm0 10.045h-7.092v5.614h7.092v-5.614Zm0 10.193h-7.092v5.614h7.092v-5.614Zm0 10.045h-7.092v5.614h7.092v-5.614Zm0 10.194h-7.092v5.613h7.092v-5.613Zm0 10.045h-7.092v5.613h7.092v-5.613Zm0 10.193h-7.092v5.614h7.092v-5.614Zm0 10.045h-7.092v5.614h7.092v-5.614Zm0 10.046h-7.092v5.613h7.092v-5.613Zm0 10.193h-7.092v5.613h7.092v-5.613Zm0 10.045h-7.092v5.614h7.092v-5.614Zm0 10.193h-7.092v5.614h7.092v-5.614Zm0 10.046h-7.092v5.613h7.092v-5.613Zm56.733-121.283h-7.092v5.613h7.092v-5.613Zm0 10.045h-7.092v5.614h7.092v-5.614Zm0 10.193h-7.092v5.614h7.092v-5.614Zm0 10.045h-7.092v5.614h7.092v-5.614Zm0 10.194h-7.092v5.613h7.092v-5.613Zm0 10.045h-7.092v5.613h7.092v-5.613Zm0 10.193h-7.092v5.614h7.092v-5.614Zm0 10.045h-7.092v5.614h7.092v-5.614Zm0 10.046h-7.092v5.613h7.092v-5.613Zm0 10.193h-7.092v5.613h7.092v-5.613Zm0 10.045h-7.092v5.614h7.092v-5.614Zm0 10.193h-7.092v5.614h7.092v-5.614Zm0 10.046h-7.092v5.613h7.092v-5.613Z" fill="#BDE0F4"/><path d="M367.502 551.209h-24.23v131.328h24.23V551.209Z" fill="#49AAF7"/><path d="M359.819 551.209h-10.194v126.896h10.194V551.209Z" fill="#49AAF7"/><path d="M359.819 551.209h-10.194v5.613h10.194v-5.613Zm.001 10.045h-10.195v5.614h10.195v-5.614Zm0 10.193h-10.195v5.614h10.195v-5.614Zm0 10.045h-10.195v5.614h10.195v-5.614Zm0 10.194h-10.195v5.613h10.195v-5.613Zm0 10.045h-10.195v5.613h10.195v-5.613Zm0 10.193h-10.195v5.614h10.195v-5.614Zm0 10.045h-10.195v5.614h10.195v-5.614Zm0 10.046h-10.195v5.613h10.195v-5.613Zm0 10.193h-10.195v5.613h10.195v-5.613Zm0 10.045h-10.195v5.614h10.195v-5.614Zm0 10.193h-10.195v5.614h10.195v-5.614Zm0 10.046h-10.195v5.613h10.195v-5.613Zm41.662-121.283h-4.136v126.896h4.136V551.209Z" fill="#49AAF7"/><path d="M431.326 682.537h-63.825v130.885h63.825V682.537Z" fill="#BDE0F4"/><path d="M417.291 682.537h-35.606v130.885h35.606V682.537Z" fill="#49AAF7"/><path d="M417.291 682.537h-35.606v5.023h35.606v-5.023Zm0 9.602h-35.606v5.614h35.606v-5.614Zm-42.698-9.602h-7.092v5.023h7.092v-5.023Zm0 9.602h-7.092v5.614h7.092v-5.614Zm56.733-9.602h-7.092v5.023h7.092v-5.023Zm0 9.602h-7.092v5.614h7.092v-5.614Z" fill="#BDE0F4"/><path d="M367.502 682.537h-24.23v130.885h24.23V682.537Z" fill="#49AAF7"/><path d="M359.819 682.537h-10.194v126.305h10.194V682.537Z" fill="#49AAF7"/><path d="M359.819 682.537h-10.194v5.023h10.194v-5.023Zm.001 9.602h-10.195v5.614h10.195v-5.614Zm41.662-9.602h-4.136V808.99h4.136V682.537Z" fill="#49AAF7"/><path d="M431.474 543.232h-88.202v7.977h88.202v-7.977Z" fill="#BDE0F4"/><path d="M431.474 542.936h-88.202v.296h88.202v-.296Z" fill="#BDE0F4"/><path d="M367.502 543.232h-24.23v7.977h24.23v-7.977Z" fill="#BDE0F4"/><path d="M367.502 542.936h-24.23v.296h24.23v-.296Zm-24.526-24.227h-44.47v305.054h44.47V518.709Zm-44.47 0h-62.938v305.054h62.938V518.709Z" fill="#BDE0F4"/><path d="M342.829 518.709h-44.323v305.054h44.323V518.709Z" fill="#BDE0F4"/><path d="M298.506 518.709h-62.938v305.054h62.938V518.709Z" fill="#003659"/><path d="M301.905 522.698h-16.547v5.613h16.547v-5.613Zm-56.142 0h-16.547v5.613h16.547v-5.613Z" fill="#BDE0F4"/><path d="M313.576 522.698h-11.819v5.613h11.819v-5.613Zm35.163 0h-11.82v5.613h11.82v-5.613Zm-46.834 9.75h-16.547v5.613h16.547v-5.613Zm-56.142 0h-16.547v5.613h16.547v-5.613Z" fill="#BDE0F4"/><path d="M313.576 532.448h-11.819v5.613h11.819v-5.613Zm35.163 0h-11.82v5.613h11.82v-5.613Zm-46.834 9.75h-16.547v5.613h16.547v-5.613Zm-56.142 0h-16.547v5.613h16.547v-5.613Z" fill="#BDE0F4"/><path d="M313.576 542.198h-11.819v5.613h11.819v-5.613Zm35.163 0h-11.82v5.613h11.82v-5.613Zm-46.834 9.75h-16.547v5.613h16.547v-5.613Zm-56.142-.001h-16.547v5.614h16.547v-5.614Z" fill="#BDE0F4"/><path d="M313.576 551.948h-11.819v5.613h11.819v-5.613Zm35.163 0h-11.82v5.613h11.82v-5.613Zm-46.834 9.749h-16.547v5.614h16.547v-5.614Zm-56.142 0h-16.547v5.614h16.547v-5.614Z" fill="#BDE0F4"/><path d="M313.576 561.697h-11.819v5.614h11.819v-5.614Zm35.163 0h-11.82v5.614h11.82v-5.614Zm-46.834 9.602h-16.547v5.614h16.547v-5.614Zm-56.142 0h-16.547v5.614h16.547v-5.614Z" fill="#BDE0F4"/><path d="M313.576 571.299h-11.819v5.614h11.819v-5.614Zm35.163 0h-11.82v5.614h11.82v-5.614Zm-46.834 9.75h-16.547v5.614h16.547v-5.614Zm-56.142 0h-16.547v5.614h16.547v-5.614Z" fill="#BDE0F4"/><path d="M313.576 581.049h-11.819v5.614h11.819v-5.614Zm35.163 0h-11.82v5.614h11.82v-5.614Zm-46.834 9.75h-16.547v5.614h16.547v-5.614Zm-56.142 0h-16.547v5.614h16.547v-5.614Z" fill="#BDE0F4"/><path d="M313.576 590.799h-11.819v5.614h11.819v-5.614Zm35.163 0h-11.82v5.614h11.82v-5.614Zm-46.834 9.75h-16.547v5.614h16.547v-5.614Zm-56.142 0h-16.547v5.614h16.547v-5.614Z" fill="#BDE0F4"/><path d="M313.576 600.549h-11.819v5.614h11.819v-5.614Zm35.163 0h-11.82v5.614h11.82v-5.614Zm-46.834 9.602h-16.547v5.614h16.547v-5.614Zm-56.142 0h-16.547v5.614h16.547v-5.614Z" fill="#BDE0F4"/><path d="M313.576 610.151h-11.819v5.614h11.819v-5.614Zm35.163 0h-11.82v5.614h11.82v-5.614Zm-46.834 9.75h-16.547v5.614h16.547v-5.614Zm-56.142 0h-16.547v5.614h16.547v-5.614Z" fill="#BDE0F4"/><path d="M313.576 619.901h-11.819v5.614h11.819v-5.614Zm35.163 0h-11.82v5.614h11.82v-5.614Zm-46.834 9.75h-16.547v5.614h16.547v-5.614Zm-56.142 0h-16.547v5.614h16.547v-5.614Z" fill="#BDE0F4"/><path d="M313.576 629.651h-11.819v5.614h11.819v-5.614Zm35.163 0h-11.82v5.614h11.82v-5.614Zm-46.834 9.75h-16.547v5.614h16.547v-5.614Zm-56.142 0h-16.547v5.614h16.547v-5.614Z" fill="#BDE0F4"/><path d="M313.576 639.401h-11.819v5.614h11.819v-5.614Zm35.163 0h-11.82v5.614h11.82v-5.614Zm-46.834 9.75h-16.547v5.613h16.547v-5.613Zm-56.142 0h-16.547v5.613h16.547v-5.613Z" fill="#BDE0F4"/><path d="M313.576 649.151h-11.819v5.613h11.819v-5.613Zm35.163 0h-11.82v5.613h11.82v-5.613Zm-46.834 9.602h-16.547v5.614h16.547v-5.614Zm-56.142 0h-16.547v5.614h16.547v-5.614Z" fill="#BDE0F4"/><path d="M313.576 658.753h-11.819v5.614h11.819v-5.614Zm35.163 0h-11.82v5.614h11.82v-5.614Zm-46.834 9.75h-16.547v5.614h16.547v-5.614Zm-56.142 0h-16.547v5.613h16.547v-5.613Z" fill="#BDE0F4"/><path d="M313.576 668.503h-11.819v5.614h11.819v-5.614Zm35.163 0h-11.82v5.614h11.82v-5.614Zm-46.834 9.75h-16.547v5.613h16.547v-5.613Zm-56.142 0h-16.547v5.613h16.547v-5.613Z" fill="#BDE0F4"/><path d="M313.576 678.253h-11.819v5.613h11.819v-5.613Zm35.163 0h-11.82v5.613h11.82v-5.613Zm-46.834 9.75h-16.547v5.613h16.547v-5.613Zm-56.142 0h-16.547v5.613h16.547v-5.613Z" fill="#BDE0F4"/><path d="M313.576 688.003h-11.819v5.613h11.819v-5.613Zm35.163 0h-11.82v5.613h11.82v-5.613Zm-46.834 9.75h-16.547v5.613h16.547v-5.613Zm-56.142 0h-16.547v5.613h16.547v-5.613Z" fill="#BDE0F4"/><path d="M313.576 697.753h-11.819v5.613h11.819v-5.613Zm35.163 0h-11.82v5.613h11.82v-5.613Z" fill="#BDE0F4"/><path d="M277.084 518.709h-24.673v300.179h24.673V518.709Zm55.551 0H317.27v301.213h15.365V518.709Z" fill="#003659"/><path d="M247.929 557.856v-35.403h-69.896v294.631h103.86V584.605l-33.964-26.749Z" fill="#49AAF7"/><path d="M213.047 557.856v-35.403h-69.895v294.631H246.88V584.605l-33.833-26.749Z" fill="#BDE0F4"/><path d="M238.225 557.856v-35.403h-8.261v35.403l33.964 26.749v232.479h8.13V584.605l-33.833-26.749Z" fill="#5566C5"/><path d="M149.184 539.237h2.885v277.978h-2.885V539.237Zm5.9 0h2.885v277.978h-2.885V539.237Zm5.771 0h2.885v277.978h-2.885V539.237Zm5.901 0h2.885v277.978h-2.885V539.237Zm5.77 0h2.885v277.978h-2.885V539.237Zm5.77 0h2.885v277.978h-2.885V539.237Zm5.901 0h2.885v277.978h-2.885V539.237Zm5.77 0h2.885v277.978h-2.885V539.237Zm5.901 0h2.885v277.978h-2.885V539.237Zm5.77 0h2.885v277.978h-2.885V539.237Zm11.671 32.518h2.885v245.329h-2.885V571.755Zm5.77 8.129h2.885v237.2h-2.885v-237.2Zm5.901 8.785h2.885v228.415h-2.885V588.669Zm5.77 8.392h2.885v220.023h-2.885V597.061Z" fill="#49AAF7"/><path d="M236.652 597.061h2.885v220.023h-2.885V597.061Zm-261.714 36.285h85.873V456.649h-85.873v176.697Z" fill="#BDE0F4"/><path d="M-6.178 456.649h47.906v176.697H-6.178V456.649Z" fill="#49AAF7"/><path d="M-6.178 456.649h47.906v7.553H-6.178v-7.553Zm0 13.516h47.906v7.553H-6.178v-7.553Zm0 13.714h47.906v7.553H-6.178v-7.553Zm0 13.516h47.906v7.553H-6.178v-7.553Zm0 13.714h47.906v7.553H-6.178v-7.553Zm0 13.516h47.906v7.553H-6.178v-7.553Zm0 13.714h47.906v7.553H-6.178v-7.553Zm0 13.516h47.906v7.553H-6.178v-7.553Zm0 13.515h47.906v7.553H-6.178v-7.553Zm0 13.715h47.906v7.553H-6.178v-7.553Zm0 13.515h47.906v7.553H-6.178V592.6Zm0 13.715h47.906v7.552H-6.178v-7.552Zm0 13.515h47.906v7.553H-6.178v-7.553ZM51.27 456.649h9.541v7.553H51.27v-7.553Zm0 13.516h9.541v7.553H51.27v-7.553Zm0 13.714h9.541v7.553H51.27v-7.553Zm0 13.516h9.541v7.553H51.27v-7.553Zm0 13.714h9.541v7.553H51.27v-7.553Zm0 13.516h9.541v7.553H51.27v-7.553Zm0 13.714h9.541v7.553H51.27v-7.553Zm0 13.516h9.541v7.553H51.27v-7.553Zm0 13.515h9.541v7.553H51.27v-7.553Zm0 13.715h9.541v7.553H51.27v-7.553Zm0 13.515h9.541v7.553H51.27V592.6Zm0 13.715h9.541v7.552H51.27v-7.552Zm0 13.515h9.541v7.553H51.27v-7.553Z" fill="#BDE0F4"/><path d="M60.81 456.65h32.6v176.696h-32.6V456.65Z" fill="#49AAF7"/><path d="M71.147 456.649h13.716v170.734H71.147V456.649Z" fill="#49AAF7"/><path d="M71.147 456.649h13.716v7.553H71.147v-7.553Zm0 13.516h13.716v7.553H71.147v-7.553Zm0 13.714h13.716v7.553H71.147v-7.553Zm0 13.516h13.716v7.553H71.147v-7.553Zm0 13.714h13.716v7.553H71.147v-7.553Zm0 13.516h13.716v7.553H71.147v-7.553Zm0 13.714h13.716v7.553H71.147v-7.553Zm0 13.516h13.716v7.553H71.147v-7.553Zm0 13.515h13.716v7.553H71.147v-7.553Zm0 13.715h13.716v7.553H71.147v-7.553Zm0 13.515h13.716v7.553H71.147V592.6Zm0 13.715h13.716v7.552H71.147v-7.552Zm0 13.515h13.716v7.553H71.147v-7.553ZM15.091 456.649h5.566v170.734h-5.566V456.649Z" fill="#49AAF7"/><path d="M-25.062 633.346h85.873v176.1h-85.873v-176.1Z" fill="#BDE0F4"/><path d="M-6.178 633.346h47.906v176.1H-6.178v-176.1Z" fill="#49AAF7"/><path d="M-6.178 633.346h47.906v6.758H-6.178v-6.758Zm0 12.919h47.906v7.553H-6.178v-7.553Zm0 13.714h47.906v7.553H-6.178v-7.553Zm0 13.516h47.906v7.553H-6.178v-7.553Zm0 13.714h47.906v7.553H-6.178v-7.553Zm57.448-53.863h9.541v6.758H51.27v-6.758Zm0 12.919h9.541v7.553H51.27v-7.553Zm0 13.714h9.541v7.553H51.27v-7.553Zm0 13.516h9.541v7.553H51.27v-7.553Zm0 13.714h9.541v7.553H51.27v-7.553Z" fill="#BDE0F4"/><path d="M60.81 633.346h32.6v176.1h-32.6v-176.1Z" fill="#49AAF7"/><path d="M71.147 633.346h13.716v169.939H71.147V633.346Z" fill="#49AAF7"/><path d="M71.147 633.346h13.716v6.758H71.147v-6.758Zm0 12.919h13.716v7.553H71.147v-7.553Zm0 13.714h13.716v7.553H71.147v-7.553Zm0 13.516h13.716v7.553H71.147v-7.553Zm0 13.714h13.716v7.553H71.147v-7.553Zm-56.056-53.863h5.566v170.137h-5.566V633.346Z" fill="#49AAF7"/><path d="M-25.261 445.917H93.411v10.733H-25.261v-10.733Zm0-.398H93.411v.397H-25.261v-.397Z" fill="#BDE0F4"/><path d="M60.81 445.917h32.6v10.733h-32.6v-10.733Zm0-.398h32.6v.397h-32.6v-.397Zm32.998-32.597h59.833v410.437H93.808V412.922Zm59.833 0h84.68v410.437h-84.68V412.922Z" fill="#BDE0F4"/><path d="M94.007 412.922h59.634v410.437H94.007V412.922Z" fill="#BDE0F4"/><path d="M153.641 412.922h84.68v410.437h-84.68V412.922Z" fill="#003659"/><path d="M149.069 418.289h22.264v7.553h-22.264v-7.553Zm75.536 0h22.264v7.553h-22.264v-7.553Z" fill="#BDE0F4"/><path d="M133.365 418.289h15.903v7.553h-15.903v-7.553Zm-47.309 0h15.902v7.553H86.056v-7.553Zm63.013 13.118h22.264v7.553h-22.264v-7.553Zm75.536 0h22.264v7.553h-22.264v-7.553Z" fill="#BDE0F4"/><path d="M133.365 431.407h15.903v7.553h-15.903v-7.553Zm-47.309 0h15.902v7.553H86.056v-7.553Zm63.013 13.118h22.264v7.553h-22.264v-7.553Zm75.536 0h22.264v7.553h-22.264v-7.553Z" fill="#BDE0F4"/><path d="M133.365 444.525h15.903v7.553h-15.903v-7.553Zm-47.309 0h15.902v7.553H86.056v-7.553Zm63.013 13.118h22.264v7.553h-22.264v-7.553Zm75.536 0h22.264v7.553h-22.264v-7.553Z" fill="#BDE0F4"/><path d="M133.365 457.643h15.903v7.553h-15.903v-7.553Zm-47.309 0h15.902v7.553H86.056v-7.553Zm63.013 13.118h22.264v7.553h-22.264v-7.553Zm75.536 0h22.264v7.553h-22.264v-7.553Z" fill="#BDE0F4"/><path d="M133.365 470.761h15.903v7.553h-15.903v-7.553Zm-47.309 0h15.902v7.553H86.056v-7.553Zm63.013 12.919h22.264v7.553h-22.264v-7.553Zm75.536.001h22.264v7.552h-22.264v-7.552Z" fill="#BDE0F4"/><path d="M133.365 483.68h15.903v7.553h-15.903v-7.553Zm-47.309 0h15.902v7.553H86.056v-7.553Zm63.013 13.119h22.264v7.553h-22.264v-7.553Zm75.536 0h22.264v7.553h-22.264v-7.553Z" fill="#BDE0F4"/><path d="M133.365 496.799h15.903v7.553h-15.903v-7.553Zm-47.309 0h15.902v7.553H86.056v-7.553Zm63.013 13.118h22.264v7.553h-22.264v-7.553Zm75.536 0h22.264v7.553h-22.264v-7.553Z" fill="#BDE0F4"/><path d="M133.365 509.917h15.903v7.553h-15.903v-7.553Zm-47.309 0h15.902v7.553H86.056v-7.553Zm63.013 13.118h22.264v7.553h-22.264v-7.553Zm75.536 0h22.264v7.553h-22.264v-7.553Z" fill="#BDE0F4"/><path d="M133.365 523.035h15.903v7.553h-15.903v-7.553Zm-47.309 0h15.902v7.553H86.056v-7.553Zm63.013 12.919h22.264v7.553h-22.264v-7.553Zm75.536 0h22.264v7.553h-22.264v-7.553Z" fill="#BDE0F4"/><path d="M133.365 535.954h15.903v7.553h-15.903v-7.553Zm-47.309 0h15.902v7.553H86.056v-7.553Zm63.013 13.118h22.264v7.553h-22.264v-7.553Zm75.536 0h22.264v7.553h-22.264v-7.553Z" fill="#BDE0F4"/><path d="M133.365 549.072h15.903v7.553h-15.903v-7.553Zm-47.309 0h15.902v7.553H86.056v-7.553Zm63.013 13.119h22.264v7.552h-22.264v-7.552Zm75.536-.001h22.264v7.553h-22.264v-7.553Z" fill="#BDE0F4"/><path d="M133.365 562.191h15.903v7.552h-15.903v-7.552Zm-47.309 0h15.902v7.552H86.056v-7.552Zm63.013 13.117h22.264v7.553h-22.264v-7.553Zm75.536 0h22.264v7.553h-22.264v-7.553Z" fill="#BDE0F4"/><path d="M133.365 575.308h15.903v7.553h-15.903v-7.553Zm-47.309 0h15.902v7.553H86.056v-7.553Zm63.013 13.119h22.264v7.552h-22.264v-7.552Zm75.536 0h22.264v7.552h-22.264v-7.552Z" fill="#BDE0F4"/><path d="M133.365 588.427h15.903v7.552h-15.903v-7.552Zm-47.309 0h15.902v7.552H86.056v-7.552Zm63.013 12.919h22.264v7.553h-22.264v-7.553Zm75.536 0h22.264v7.553h-22.264v-7.553Z" fill="#BDE0F4"/><path d="M133.365 601.346h15.903v7.553h-15.903v-7.553Zm-47.309 0h15.902v7.553H86.056v-7.553Zm63.013 13.118h22.264v7.553h-22.264v-7.553Zm75.536 0h22.264v7.553h-22.264v-7.553Z" fill="#BDE0F4"/><path d="M133.365 614.464h15.903v7.553h-15.903v-7.553Zm-47.309 0h15.902v7.553H86.056v-7.553Zm63.013 13.118h22.264v7.553h-22.264v-7.553Zm75.536 0h22.264v7.553h-22.264v-7.553Z" fill="#BDE0F4"/><path d="M133.365 627.582h15.903v7.553h-15.903v-7.553Zm-47.309 0h15.902v7.553H86.056v-7.553Zm63.013 13.118h22.264v7.553h-22.264V640.7Zm75.536 0h22.264v7.553h-22.264V640.7Z" fill="#BDE0F4"/><path d="M133.365 640.7h15.903v7.553h-15.903V640.7Zm-47.309 0h15.902v7.553H86.056V640.7Zm63.013 13.118h22.264v7.553h-22.264v-7.553Zm75.536 0h22.264v7.553h-22.264v-7.553Z" fill="#BDE0F4"/><path d="M133.365 653.818h15.903v7.553h-15.903v-7.553Zm-47.309 0h15.902v7.553H86.056v-7.553Zm63.013 12.92h22.264v7.552h-22.264v-7.552Zm75.536 0h22.264v7.552h-22.264v-7.552Z" fill="#BDE0F4"/><path d="M133.365 666.738h15.903v7.552h-15.903v-7.552Zm-47.309 0h15.902v7.552H86.056v-7.552Zm63.013 13.118h22.264v7.552h-22.264v-7.552Zm75.536-.001h22.264v7.553h-22.264v-7.553Z" fill="#BDE0F4"/><path d="M133.365 679.856h15.903v7.552h-15.903v-7.552Zm-47.309 0h15.902v7.552H86.056v-7.552Zm63.013 13.118h22.264v7.552h-22.264v-7.552Zm75.536 0h22.264v7.553h-22.264v-7.553Z" fill="#BDE0F4"/><path d="M133.365 692.974h15.903v7.552h-15.903v-7.552Zm-47.309 0h15.902v7.552H86.056v-7.552Z" fill="#BDE0F4"/><path d="M182.464 412.922h33.196V816.8h-33.196V412.922Zm-74.741 0h20.673v405.27h-20.673v-405.27Z" fill="#003659"/><path d="M221.691 465.593V417.96h94.041v396.413H175.994V501.582l45.697-35.989Z" fill="#49AAF7"/><path d="M268.624 465.593V417.96h94.041v396.413H223.103V501.582l45.521-35.989Z" fill="#BDE0F4"/><path d="M234.748 465.593V417.96h11.116v47.633l-45.698 35.989v312.791h-10.939V501.582l45.521-35.989Z" fill="#5566C5"/><path d="M354.549 440.541h-3.882V814.55h3.882V440.541Zm-7.939 0h-3.882V814.55h3.882V440.541Zm-7.764 0h-3.882V814.55h3.882V440.541Zm-7.939 0h-3.882V814.55h3.882V440.541Zm-7.764 0h-3.881V814.55h3.881V440.541Zm-7.763 0h-3.882V814.55h3.882V440.541Zm-7.94 0h-3.881V814.55h3.881V440.541Zm-7.763 0h-3.882V814.55h3.882V440.541Zm-7.94 0h-3.882V814.55h3.882V440.541Zm-7.763 0h-3.881V814.55h3.881V440.541Zm-15.703 43.752h-3.881v330.08h3.881v-330.08Zm-7.763 10.938h-3.882v319.142h3.882V495.231Zm-7.94 11.82h-3.882v307.323h3.882V507.051Zm-7.763 11.291h-3.881v296.031h3.881V518.342Z" fill="#49AAF7"/><path d="M236.865 518.342h-3.882v296.031h3.882V518.342Z" fill="#BDE0F4"/><path d="M1034.91 64.378H873.537v740.391h161.373V64.378Z" fill="#49D8F7"/><path d="M1034.91 90.92H873.537v24.439h161.373V90.921Zm0 47.59H873.537v24.438h161.373V138.51Zm0 47.59H873.537v24.438h161.373V186.1Zm0 47.59H873.537v24.438h161.373V233.69Zm0 47.59H873.537v24.438h161.373V281.28Zm0 47.59H873.537v24.438h161.373V328.87Zm0 47.59H873.537v24.438h161.373V376.46Zm0 47.59H873.537v24.438h161.373V424.05Zm0 47.59H873.537v24.438h161.373V471.64Zm0 47.589H873.537v24.438h161.373v-24.438Zm0 47.59H873.537v24.321h161.373v-24.321Zm0 47.59H873.537v24.321h161.373v-24.321Zm0 47.59H873.537v24.321h161.373v-24.321Z" opacity=".23" fill="#003659"/><path d="M1261.08 64.378H873.537v740.391h387.543V64.378Z" fill="url(#r)" style="mix-blend-mode:multiply" opacity=".4"/><path d="M1093.27 64.378s-8.77 155.398-112.732 212.693c-80.456 44.199-106.767 178.9-106.767 178.9l-.234-391.593h219.733Z" fill="#FEEDC5" style="mix-blend-mode:overlay" opacity=".61"/><path d="M1260.13 776.94H938.66c0-74.484 48.413-134.819 108.05-134.819 8.07 0 16.02 1.169 23.63 3.274 8.53-8.302 17.89-15.201 27.94-20.228 13.1-6.665 27.25-10.29 42.1-10.29 66.07-.117 119.75 72.495 119.75 162.063Z" fill="#3D213D"/><path d="M1260.13 776.94H938.66c0-74.484 48.413-134.819 108.05-134.819 8.07 0 16.02 1.169 23.63 3.274 8.53-8.302 17.89-15.201 27.94-20.228 13.1-6.665 27.25-10.29 42.1-10.29 66.07-.117 119.75 72.495 119.75 162.063Z" fill="url(#s)"/><path opacity=".43" d="m1098.17 625.167-73.09 151.89h-86.537c0-74.484 48.413-134.819 108.057-134.819 8.07 0 16.02 1.169 23.62 3.274 8.65-8.536 18.01-15.318 27.95-20.345Z" fill="#FEEDC5"/><path d="M317.236 785.709c30.807 0 55.781-24.971 55.781-55.774 0-30.804-24.974-55.775-55.781-55.775s-55.78 24.971-55.78 55.775c0 30.803 24.973 55.774 55.78 55.774Z" fill="#723E73"/><path d="M460.957 776.004c30.806 0 55.78-24.971 55.78-55.775 0-30.803-24.974-55.775-55.78-55.775-30.807 0-55.781 24.972-55.781 55.775 0 30.804 24.974 55.775 55.781 55.775Z" fill="#3A95A8"/><path d="M614.85 761.037c36.943 0 66.89-28.217 66.89-63.024s-29.947-63.024-66.89-63.024c-36.942 0-66.89 28.217-66.89 63.024s29.948 63.024 66.89 63.024Z" fill="#888A17"/><path d="M617.306 761.037c35.586 0 64.434-27.484 64.434-61.387s-28.848-61.387-64.434-61.387c-35.587 0-64.435 27.484-64.435 61.387s28.848 61.387 64.435 61.387Z" fill="#3D213D"/><path d="M617.306 761.037c35.586 0 64.434-27.484 64.434-61.387s-28.848-61.387-64.434-61.387c-35.587 0-64.435 27.484-64.435 61.387s28.848 61.387 64.435 61.387Z" fill="url(#t)"/><path d="M359.569 804.418H143.696V576.407l215.873-23.385v251.396Z" fill="#C0BDF4"/><path d="M172.697 674.277c-10.641 0-20.581 2.923-29.001 8.185v95.062c8.42 5.145 18.36 8.185 29.001 8.185 30.756 0 55.781-24.905 55.781-55.774 0-30.753-25.025-55.658-55.781-55.658Z" fill="#3A95A8"/><path d="M292.363 723.878c7.168-29.957-11.307-60.052-41.267-67.22-29.96-7.168-60.058 11.306-67.227 41.262-7.169 29.957 11.307 60.052 41.267 67.22 29.959 7.168 60.058-11.306 67.227-41.262Z" fill="#723E73"/><path d="M547.96 679.538c0 19.878-4.327 38.587-12.162 55.541H143.696V623.413c14.851-12.979 32.509-22.684 52.038-28.063 10.408-6.665 21.985-11.576 34.381-14.499 19.646-32.273 55.196-53.787 95.775-53.787 24.674 0 47.361 7.951 65.954 21.515a136.382 136.382 0 0 1 23.155-1.988c11.46 0 22.569 1.403 33.211 4.209 57.418 14.733 99.75 66.766 99.75 128.738Z" fill="url(#u)"/><path d="M830.138 768.287c45.855 0 83.028-35.023 83.028-78.225 0-43.203-37.173-78.225-83.028-78.225-45.855 0-83.028 35.022-83.028 78.225 0 43.202 37.173 78.225 83.028 78.225Z" fill="#3A95A8"/><path d="M833.179 768.287c44.176 0 79.987-34.08 79.987-76.12 0-42.04-35.811-76.121-79.987-76.121-44.176 0-79.988 34.081-79.988 76.121 0 42.04 35.812 76.12 79.988 76.12Z" fill="#3A95A8"/><path d="M880.891 653.346c0 60.803-52.273 110.03-116.824 110.03-29.937 0-57.184-10.641-77.883-28.063-23.855-20.112-38.941-49.461-38.941-81.967 0-60.803 52.273-110.029 116.824-110.029 32.627 0 61.979 12.511 83.262 32.856 20.699 19.761 33.562 47.006 33.562 77.173Z" fill="#AEB11B"/><path d="M880.891 653.346c0 60.803-52.273 110.03-116.824 110.03-29.937 0-57.184-10.641-77.883-28.063-23.855-20.112-38.941-49.461-38.941-81.967 0-60.803 52.273-110.029 116.824-110.029 32.627 0 61.979 12.511 83.262 32.856 20.699 19.761 33.562 47.006 33.562 77.173Z" fill="url(#v)"/><path d="M810.96 629.376h-4.678v201.935h4.678V629.376Z" fill="#FFFFFB"/><path d="m830.822 622.879-21.581 21.58.827.826 21.581-21.579-.827-.827Z" fill="#FFFFFB"/><path d="m847.68 610.901-2.573-.701c-1.637-.351-3.859.117-5.145 1.169l-12.396 10.757c-1.17 1.053-.936 2.222.702 2.69l2.572.701c1.637.351 3.859-.117 5.146-1.169l12.395-10.757c1.287-1.053.936-2.222-.701-2.69Z" fill="#49AAF7"/><path d="m71.79 578.12 866.298-220.644s-.702-1.988-1.988-5.028c-3.041-7.6-9.005-22.1-13.214-29.466-5.847-10.173-8.654-13.096-8.654-13.096l-21.166-4.443-85.367 25.724L78.807 550.758 71.79 578.12Z" fill="#889EA3"/><path d="M888.622 314.446 78.105 553.565l-7.952 25.023 828.526-215.85-10.057-48.292Z" fill="#E21A1A"/><path d="m741.018 356.871 38.409 36.96-60.495 15.562-33.608-36.96 55.694-15.562Zm-136.822 41.58 40.642 38.5-64.011 16.211-35.562-38.5 58.931-16.211Zm-128.045 37.203 30.816 29.26-48.536 12.32-26.965-29.26 44.685-12.32Zm-95.197 27.356 30.817 29.26-48.537 12.32-26.964-29.26 44.684-12.32Zm-93.008 27.355 30.817 29.26-48.537 12.32-26.964-29.26 44.684-12.32Zm-66.569 21.884 21.885 20.79-34.468 8.754-19.149-20.79 31.732-8.754ZM150.7 531.945l21.438 20.02-33.765 8.43-18.758-20.02 31.085-8.43Zm-45.856 13.678 16.413 20.243-24.542 6.565-13.756-20.243 21.885-6.565Z" fill="#A1C5CD"/><path d="m654.156 387.293 6.549-1.988v10.173l-6.549 1.987v-10.172Zm-386.607 120.67c.351-2.456.702-4.911 1.17-7.367l32.158-9.471c-.467 2.456-.701 4.911-.467 7.484l-32.861 9.354Zm-100.686 28.764-82.21 23.503.936-5.847 82.093-24.087c-.234 2.105-.468 4.209-.819 6.431Zm47.361-13.563-18.009 5.145c.351-2.222.585-4.444.818-6.665l18.594-5.496-1.403 7.016Zm6.9-8.653 13.448-3.976c-.585 2.456-1.17 4.794-1.754 7.25l-13.215 3.742c.468-2.222.936-4.678 1.521-7.016Zm18.71-5.496 23.505-6.899c-.35 2.456-.701 4.794-.935 7.25l-24.207 6.899c.468-2.339 1.053-4.794 1.637-7.25Zm96.008-28.18 14.501-4.209c-.468 2.689-.702 5.262-.819 7.951l-14.384 4.092c.351-2.689.468-5.261.702-7.834Zm23.506-6.898 7.367-2.222c-.234 2.689-.585 5.379-.819 8.068l-7.718 2.222c.117-2.807.468-5.613 1.17-8.068Zm10.875-3.274 7.134-2.105c0 1.403 0 2.806.117 4.326v3.625l-7.952 2.222c.117-2.69.467-5.379.701-8.068Zm19.997-5.847 6.315-1.871c-.351 2.69-.468 5.496-.468 8.185l-6.548 1.871c.351-2.689.584-5.378.701-8.185Zm17.424-5.145 22.102-6.431c-.351 2.807-.351 5.613-.351 8.419l-22.686 6.431c.234-2.689.584-5.495.935-8.419Zm55.43-16.253 12.864-3.741c-.234 3.04-.585 6.08-1.17 9.003l-12.396 3.508c0-2.923.234-5.846.702-8.77Zm16.255-4.794 10.876-3.157c0 3.04-.117 5.964-.351 9.004l-11.46 3.274c.467-3.04.818-6.08.935-9.121Zm14.266-4.209 56.015-16.487v9.354l-56.366 16.136c.234-3.04.351-5.963.351-9.003Zm72.855-21.398 25.259-7.367v9.589l-25.259 7.249v-9.471Zm35.667-10.524 35.199-10.289v10.055l-35.199 10.056v-9.822Zm61.978-18.124 10.408-3.04v10.29l-10.408 2.923v-10.173Zm21.518 4.093v-10.407l37.888-11.108v10.758l-15.67 4.443v-3.391c0-2.222-3.391-2.222-3.391 0v4.326l-18.827 5.379Z" fill="#E6E6E6"/><path d="m807.699 331.167 94.137 19.878 34.264 1.403c-3.041-7.6-9.005-22.1-13.215-29.466-5.847-10.173-8.653-13.096-8.653-13.096l-21.167-4.443-85.366 25.724Z" fill="#FBD5A2"/><path d="M893.066 305.443s8.42 29.583 10.524 32.389c1.053 1.403 8.42 3.04 15.32 4.209a557.627 557.627 0 0 0 12.98 2.105s-5.964-20.579-17.658-34.26l-9.706-1.988-11.46-2.455Z" fill="#3D213D"/><path d="m929.334 336.081 2.735 8.206-13.13-2.188-4.924-7.112 15.319 1.094Z" fill="#89CFE1"/><path d="m547.389 409.626-2.339 53.553-12.162 2.924 4.795-53.554 9.706-2.923Zm-224.41 67.585-4.092 43.029-7.251-2.104 4.093-38.704 7.25-2.221ZM176.92 521.293l-5.379 32.74-4.561 1.286 6.198-32.974 3.742-1.052Z" fill="#3D213D"/><path d="m935.107 350.178-21.402-2.813-9.336-6.212-4.404-26.957-85.784 33.638.793 19.104-6.958.938-1.409-23.91-4.404 1.758 2.466 35.513-162.673 58.017-.44 15.002 294.343-101.499-.792-2.579Z" fill="#ED6F01"/><path d="m809.337 341.552-36.475 10.936 4.008 37.209 122.921-32.008-90.454-16.137Z" fill="#E21A1A"/><path d="m843.941 322.95 46.001 43.89-46.001 9.727-40.252-43.89 40.252-9.727Z" fill="#A1C5CD"/><path d="m886.049 318.539 4.911 22.801-57.184-7.25 52.273-15.551Z" fill="#FBD5A2"/><path d="M893.066 305.443s8.419 29.583 10.524 32.389c1.053 1.403 8.42 3.04 15.32 4.209l-25.844-36.598Z" fill="#E21A1A"/><path d="m916.751 313.102-20.243-2.188-2.736-5.471 20.791 4.377 2.188 3.282Z" fill="#607785"/><path d="m502.016 427.75-44.204 13.33v26.426l1.988-1.17v-24.204l42.45-13.33-.234-1.052Zm221.485-64.545v1.754l-41.397 11.81.585 21.281h-1.169l-.351-22.45 42.332-12.395Zm105.165-27.124v1.754l-41.397 11.809.585 21.281h-1.17l-.351-22.45 42.333-12.394Zm-209.827 57.994v1.052l-18.828 5.729v16.02l-.818 1.052v-18.124l19.646-5.729Zm-353.629 104.3-1.871 18.124-2.105.467 1.988-18.007 1.988-.584Zm-37.304 10.991-1.52 18.475-1.871.584 1.637-18.591 1.754-.468Zm-32.977 9.705-2.222 18.007-1.637.702 2.572-18.358 1.287-.351Zm-57.535 17.071-3.391 19.177-1.52.701 3.04-19.41 1.871-.468Z" fill="#E6E6E6"/><path d="M794.06 360.878v-10.406l37.889-11.109v10.758l-15.67 4.443v-3.391c0-2.222-3.392-2.222-3.392 0v4.326l-18.827 5.379Zm-32.792-1.326 6.548-1.988v10.173l-6.548 1.987v-10.172Zm9.939-2.924 10.408-3.04v10.29l-10.408 2.923v-10.173Z" fill="#E6E6E6"/><path d="m892.676 306 16.021 54.489-361.698 49.694L892.676 306Z" fill="#FEEDC5" style="mix-blend-mode:screen" opacity=".61"/><path d="M2401.05 46.114-452.658 720.23v13.447L2953.63 125.991V54.868l-552.58-8.754Z" fill="#003659"/><path opacity=".24" d="m504.619 559.689-188.976-18.943 252.592-60.218 159.39 38.703-223.006 40.458Z" fill="#FEEDC5"/><path d="M2401.05 51.585-452.658 720.23v-6.43L2264.28 13.287l136.77 38.298Z" fill="#5566C5"/><path d="M1224.22 292.859-452.659 716.256v1.052L1228.05 301.613l-3.83-8.754Z" fill="#3D213D"/><path d="M824.627 505.872v24.772l-15.173 7.941-23.351-19.319-15.054-10.549v-24.771l53.578 21.926Z" fill="#BDD0F4"/><path d="M786.102 494.376h57.135v314.561h-57.135V494.376Z" fill="#BDD0F4"/><path d="M873.865 808.9h-30.582V498.606h30.582V808.9Z" fill="#3A95A8"/><path d="M887.095 495.087v24.771l-15.291 7.941-23.114-9.482-15.173-20.386v-24.652l53.578 21.808Z" fill="#5566C5"/><path d="m771.048 483.946 62.469-10.667v24.652l-62.469 10.786v-24.771Z" fill="#BDD0F4"/><path d="m860.306 484.183 13.513 46.224v-3.674l13.276-6.875v-24.771l-26.789-10.904Z" fill="#003659"/><path d="m843.237 510.969-57.135 8.297-15.054-10.549 62.469-10.786 9.72 13.038Z" fill="#3D91D4"/><path d="M338.804 589.27v17.539l-10.759 5.612-16.605-13.68-10.642-7.484v-17.539l38.006 15.552Z" fill="#BDD0F4"/><path d="M311.44 581.085h40.578v223.333H311.44V581.085Z" fill="#BDD0F4"/><path d="M373.772 804.38h-21.751V584.087h21.751V804.38Z" fill="#003659"/><path d="M383.125 581.669v17.54l-10.876 5.612-16.372-6.665-10.758-14.616v-17.422l38.006 15.551Z" fill="#003659"/><path d="m300.798 573.718 44.321-7.6v17.422l-44.321 7.718v-17.54Z" fill="#BDD0F4"/><path d="m364.063 573.835 9.706 32.857v-2.689l9.356-4.794v-17.54l-19.062-7.834Z" fill="#003659"/><path d="m352.018 592.894-40.578 5.847-10.642-7.484 44.321-7.717 6.899 9.354Z" fill="#3D91D4"/><path opacity=".61" d="m762.942 398.912 2.105 8.653 505.683-125.648-16.96-10.395-490.828 127.39Zm23.738 11.342 4.21 18.942 402.7-93.893 41.58-35.331-448.49 110.282Z" fill="#FEEDC5"/><path d="M702.334 852.09c0-73.665-50.636-173.522-104.779-173.522-23.739 0-45.49 11.459-62.447 30.518-3.625-.584-7.25-.818-10.992-.818-54.144 0-98.114 99.857-98.114 173.522 0 2.572.117 5.261.117 7.834h271.654c3.04-11.927 4.561-24.555 4.561-37.534Z" fill="url(#w)"/><path d="M2790.11-47.99H-983.175v1097.9H2790.11V-47.99Z" fill="url(#x)" style="mix-blend-mode:overlay" opacity=".58"/><path d="M27.982 600.421c0 76.502 65.77 138.44 146.988 138.44 37.667 0 71.949-13.388 97.992-35.309 30.016-25.305 48.996-62.232 48.996-103.131 0-76.502-65.769-138.44-146.988-138.44-41.05 0-77.981 15.742-104.76 41.341-26.043 24.863-42.228 59.142-42.228 97.099Z" fill="#AEB11B"/><path d="M27.982 600.421c0 76.502 65.77 138.44 146.988 138.44 37.667 0 71.949-13.388 97.992-35.309 30.016-25.305 48.996-62.232 48.996-103.131 0-76.502-65.769-138.44-146.988-138.44-41.05 0-77.981 15.742-104.76 41.341-26.043 24.863-42.228 59.142-42.228 97.099Z" fill="url(#y)"/><path d="M-138.841 707.521c0-68.111 46.817-160.438 96.878-160.438 21.949 0 42.06 10.595 57.738 28.217 3.351-.54 6.703-.756 10.163-.756 50.061 0 90.715 92.327 90.715 160.437 0 2.378-.108 4.865-.108 7.243h-251.169c-2.811-11.027-4.217-22.703-4.217-34.703Z" fill="url(#z)"/></g></g></g><defs><linearGradient id="c" x1="1010.49" y1="-43.422" x2="1010.49" y2="977.764" gradientUnits="userSpaceOnUse"><stop stop-color="#51C0E1"/><stop offset=".262" stop-color="#A9E9F2"/><stop offset=".563" stop-color="#CCFCE0"/><stop offset=".881" stop-color="#E0F096"/><stop offset="1" stop-color="#ECE963"/></linearGradient><linearGradient id="d" x1="1112.52" y1="103.49" x2="1112.52" y2="848.122" gradientUnits="userSpaceOnUse"><stop stop-color="#fff"/><stop offset="1"/></linearGradient><linearGradient id="e" x1="-136.061" y1="266.361" x2="-136.061" y2="830.218" gradientUnits="userSpaceOnUse"><stop stop-color="#fff"/><stop offset="1"/></linearGradient><linearGradient id="f" x1="807.47" y1="715.097" x2="703.622" y2="681.508" gradientUnits="userSpaceOnUse"><stop stop-color="#4DB0A5"/><stop offset="1" stop-color="#EFCE3D"/></linearGradient><linearGradient id="g" x1="583.528" y1="678.164" x2="318.664" y2="519.547" gradientUnits="userSpaceOnUse"><stop stop-color="#4DB0A5"/><stop offset="1" stop-color="#EFCE3D"/></linearGradient><linearGradient id="h" x1="962.062" y1="703.599" x2="774.192" y2="642.133" gradientUnits="userSpaceOnUse"><stop stop-color="#4DB0A5"/><stop offset="1" stop-color="#EFCE3D"/></linearGradient><linearGradient id="i" x1="393.907" y1="730.66" x2="324.724" y2="698.742" gradientUnits="userSpaceOnUse"><stop stop-color="#4DB0A5"/><stop offset="1" stop-color="#EFCE3D"/></linearGradient><linearGradient id="j" x1="438.339" y1="717.47" x2="385.546" y2="671.433" gradientUnits="userSpaceOnUse"><stop stop-color="#4DB0A5"/><stop offset="1" stop-color="#EFCE3D"/></linearGradient><linearGradient id="k" x1="437.21" y1="712.584" x2="392.555" y2="667.358" gradientUnits="userSpaceOnUse"><stop stop-color="#4DB0A5"/><stop offset="1" stop-color="#EFCE3D"/></linearGradient><linearGradient id="l" x1="784.503" y1="1081.2" x2="541.028" y2="879.104" gradientUnits="userSpaceOnUse"><stop stop-color="#4DB0A5"/><stop offset="1" stop-color="#EFCE3D"/></linearGradient><linearGradient id="n" x1="23.054" y1="1145.59" x2="360.492" y2="865.492" gradientUnits="userSpaceOnUse"><stop stop-color="#4DB0A5"/><stop offset="1" stop-color="#EFCE3D"/></linearGradient><linearGradient id="q" x1="772.127" y1="-47.999" x2="772.127" y2="973.187" gradientUnits="userSpaceOnUse"><stop stop-color="#51C0E1"/><stop offset=".262" stop-color="#A9E9F2"/><stop offset=".563" stop-color="#CCFCE0"/><stop offset=".881" stop-color="#E0F096"/><stop offset="1" stop-color="#ECE963"/></linearGradient><linearGradient id="r" x1="1067.32" y1="105.195" x2="1067.32" y2="881.67" gradientUnits="userSpaceOnUse"><stop stop-color="#fff"/><stop offset="1"/></linearGradient><linearGradient id="s" x1="1143.71" y1="753.072" x2="926.475" y2="620.291" gradientUnits="userSpaceOnUse"><stop stop-color="#4DB0A5"/><stop offset="1" stop-color="#EFCE3D"/></linearGradient><linearGradient id="t" x1="635.068" y1="742.956" x2="526.779" y2="707.931" gradientUnits="userSpaceOnUse"><stop stop-color="#4DB0A5"/><stop offset="1" stop-color="#EFCE3D"/></linearGradient><linearGradient id="u" x1="401.55" y1="704.444" x2="125.36" y2="539.044" gradientUnits="userSpaceOnUse"><stop stop-color="#4DB0A5"/><stop offset="1" stop-color="#EFCE3D"/></linearGradient><linearGradient id="v" x1="796.272" y1="730.967" x2="600.368" y2="666.872" gradientUnits="userSpaceOnUse"><stop stop-color="#4DB0A5"/><stop offset="1" stop-color="#EFCE3D"/></linearGradient><linearGradient id="w" x1="611.118" y1="1124.72" x2="357.232" y2="913.977" gradientUnits="userSpaceOnUse"><stop stop-color="#4DB0A5"/><stop offset="1" stop-color="#EFCE3D"/></linearGradient><linearGradient id="y" x1="134.45" y1="698.084" x2="380.937" y2="617.439" gradientUnits="userSpaceOnUse"><stop stop-color="#4DB0A5"/><stop offset="1" stop-color="#EFCE3D"/></linearGradient><linearGradient id="z" x1="-54.504" y1="959.592" x2="180.238" y2="764.741" gradientUnits="userSpaceOnUse"><stop stop-color="#4DB0A5"/><stop offset="1" stop-color="#EFCE3D"/></linearGradient><clipPath id="a"><path fill="#fff" transform="translate(-737)" d="M0 0h3273.15v808H0z"/></clipPath><clipPath id="b"><path fill="#fff" transform="translate(-735.13 -43.413)" d="M0 0h3672.69v1024.16H0z"/></clipPath><clipPath id="o"><path fill="#fff" transform="translate(-973.32 1.271)" d="M0 0h3829.4v1018.69H0z"/></clipPath><clipPath id="p"><path fill="#fff" transform="translate(-973.498 -47.99)" d="M0 0h3829.75v1067.95H0z"/></clipPath><radialGradient id="m" cx="0" cy="0" r="1" gradientUnits="userSpaceOnUse" gradientTransform="matrix(2231.26 0 0 1030.99 140.986 279.432)"><stop stop-color="#FEF4DD"/><stop offset="1" stop-color="#5E272A"/></radialGradient><radialGradient id="x" cx="0" cy="0" r="1" gradientUnits="userSpaceOnUse" gradientTransform="matrix(2399.3 0 0 1108.64 -31.398 299.17)"><stop stop-color="#FEF4DD"/><stop offset="1" stop-color="#5E272A"/></radialGradient></defs></svg>