<svg width="320" height="754" fill="none" xmlns="http://www.w3.org/2000/svg"><path d="M2766 0H-809v1025h3575V0Z" fill="url(#a)"/><g clip-path="url(#b)"><path d="M252.126 419.681h-81.115v372.148h81.115V419.681Z" fill="#49D8F7"/><path d="M315.431 419.681h-63.305v372.148h63.305V419.681Z" fill="#003659"/><path d="M315.372 456.943h-54.605v334.886h54.605V456.943Z" fill="#C0BDF4"/><path d="M294.388 419.681h-29.213v372.148h29.213V419.681Z" fill="#49D8F7"/><path d="M365.804 419.681h-84.347v372.148h84.347V419.681Z" fill="#003659"/><path d="M252.126 433.023h-81.115v12.283h81.115v-12.283Zm113.62 0H265.175v12.283h100.571v-12.283Zm-113.62 23.92h-81.115v12.284h81.115v-12.284Zm113.62 0H265.175v12.284h100.571v-12.284Zm-113.62 23.92h-81.115v12.284h81.115v-12.284Zm113.62 0H265.175v12.284h100.571v-12.284Zm-113.62 23.921h-81.115v12.284h81.115v-12.284Zm113.62 0H265.175v12.284h100.571v-12.284Zm-113.62 23.92h-81.115v12.284h81.115v-12.284Zm113.62 0H265.175v12.284h100.571v-12.284Zm-113.62 23.921h-81.115v12.283h81.115v-12.283Zm113.62 0H265.175v12.283h100.571v-12.283Zm-113.62 23.92h-81.115v12.283h81.115v-12.283Zm113.62 0H265.175v12.283h100.571v-12.283Zm-113.62 23.921h-81.115v12.283h81.115v-12.283Zm113.62 0H265.175v12.283h100.571v-12.283Zm-113.62 23.92h-81.115v12.283h81.115v-12.283Zm113.62 0H265.175v12.283h100.571v-12.283Zm-113.62 23.92h-81.115v12.284h81.115v-12.284Zm113.62 0H265.175v12.284h100.571v-12.284Zm-113.62 23.921h-81.115v12.224h81.115v-12.224Zm113.62 0H265.175v12.224h100.571v-12.224Zm-113.62 23.92h-81.115v12.225h81.115v-12.225Zm113.62 0H265.175v12.225h100.571v-12.225Zm-113.62 23.92h-81.115v12.225h81.115v-12.225Zm113.62 0H265.175v12.225h100.571v-12.225Zm-113.62 23.921h-81.115v12.225h81.115v-12.225Zm113.62 0H265.175v12.225h100.571v-12.225Z" opacity=".23" fill="#003659"/><path opacity=".06" d="M365.745 466.523v126.89l-84.288 194.713v-126.89l84.288-194.713Zm0 224.276v-61.947l-70.593 162.976h26.862l43.731-101.029Z" fill="#fff"/><path d="M365.804 419.681H171.011v372.148h194.793V419.681Z" fill="url(#c)" style="mix-blend-mode:multiply" opacity=".4"/><path d="m-118.121 703.787.353 3.527c.412 4.643.764 9.286 1.117 13.929.059.705.059 1.41.117 2.116h3.057v-2.057h17.927v10.931h6.349v-.117h-.353v-1.293h.353v-.47h-.353v-1.293h.353v-.471h-.353v-1.293h.353v-.47h-.353v-1.293h.353v-.529h2.468v-49.369h1.293v-13.106h19.221v13.106h1.293v69.763h7.7v4.643h3.468v-13.694h1.352v-5.818h14.577v-.235h-1l1.118-1.587v-.764h.529l.588-.823h-1.117v-1.175h1.175v-.823h-1.175v-1.176h1.175v-.822h-1.175v-1.176h1.175v-1.998h.94v-2.116h2.528v-5.818h1.881v-7.406l5.702-1.352 1.293-.293V690.74h.764v12.048l2.292-.529v9.757h1.587v5.818h1.352v-14.399h1v-28.916h-.53v-1.411h.823v-.588c0-.411.294-.764.706-.764h.411v-2.997c0-.764.588-1.411 1.293-1.411h.06v-2.644c0-.764.47-1.411 1.175-1.587v-2.351h.881c.235-1.763 1.529-3.115 3.233-3.409v-2.41c0-.176.059-.293.235-.293v-6.172h.588v6.172c.118.058.235.176.235.293v2.41c1.646.235 2.94 1.646 3.174 3.409h.882v2.351c.646.176 1.175.823 1.175 1.587v2.644h.06c.705 0 1.292.647 1.292 1.411v2.997h.47c.412 0 .706.353.706.764v.588h.647v1.411h-.647v28.916h.94v17.808h13.52v9.168h8.346v16.045h2.763v-.764h11.932v-3.703h1.704v-4.407H48.4v-4.173h10.815v-32.208h1.293v-.529h-1.293v-1.939h1.293v-.529h-1.352v-1.939h1.352v-.529h-1.352v-1.94h1.352v-.529h-1.352v-1.939h1.352v-.588h-1.352v-1.94h1.352v-.529h-1.352v-1.939h1.352v-.529h-1.352v-41.905h24.57v39.907h-.06v1.939h-1.704v.529h1.705v1.94h-1.705v.529h1.705v1.939h-1.705v.588h1.763v1.939h-1.763v.529h1.763v1.94h-1.763v.529h1.763v1.939h-1.763v.529h1.763v1.94h-1.763v.529h1.881v24.39h8.23v-6.641h10.285v-10.579l2.116-6.112.059-.236 5.584-16.103 7.759 22.451v1.528h.47v.705h-.529v.941h.47v.705h-.47v.94h.47v.705h-.47v.941h.47v.705h-.47v.94h.47v.706h-.47v.94h.47v.705h-.47v.941h.47v.705h-.47v.94h.47v.706h-.47v.94h.47v.705h-.47v.941h.47v.705h-.47v.94h.47v.706h-.47v.94h.47v.705h-.47v.941h.47v.705h-.47v.94h.47v.705h-.47v.941h.47v.705h-.47v.94h.47v.706h-.47v.94h.47v.705h-.47v.941h.47v.235h8.935v-8.228h13.636v-.294l.059-1.176v-2.174l.059-.999.059-1.176v-.999l.059-1.175v-1l.058-1.175.059-.999v-2.175l.059-1.175v-.999l.059-1.176v-.999l.058-1.175v-1l.059-1.175v-.999l.059-1.176v-.999l.059-1.175.117-3.644 5.702-2.057v3.174h1.763l-.176-8.64 9.875-2.645.999 13.812.117 1.175.059.999.118 1.176.059.999.058 1.175.059 1 .059 1.175.059.999.058 1.176.059.999.118 1.175.059.999.058 1.176.059.999.059 1.175.059 1 .117 1.175.059.999.118 1.176.058.999.059 1.175.059.999.117 1.176.059.999.059 1.175.059.999.117 1.176.059.999.118 1.175.058 1 .059 1.175.059.999.059 1.176.059.999.058 1.175.059.999.059 1.117h9.934v5.113h6.994v-11.284h7.759v-20.335h4.408v-28.681h31.271v104.027h-361.313v-89.687l20.337-.059Z" fill="#BDE0F4"/><path d="M109.235 735.466H83.843v-52.249h25.392v52.249Z" fill="#BDE0F4"/><path d="M103.652 683.217H89.486v52.249h14.166v-52.249Z" fill="#49AAF7"/><path d="M103.652 683.217H89.486v2.234h14.166v-2.234Zm0 3.997H89.486v2.233h14.166v-2.233Zm0 4.055H89.486v2.233h14.166v-2.233Zm0 3.996H89.486v2.234h14.166v-2.234Zm0 4.056H89.486v2.233h14.166v-2.233Zm0 3.996H89.486v2.234h14.166v-2.234Zm0 4.056H89.486v2.233h14.166v-2.233Zm0 3.996H89.486v2.234h14.166v-2.234Zm0 3.997H89.486v2.233h14.166v-2.233Zm0 4.055H89.486v2.234h14.166v-2.234Zm0 3.997H89.486v2.233h14.166v-2.233Zm0 4.055H89.486v2.233h14.166v-2.233Zm0 3.996H89.486v2.234h14.166v-2.234Zm-16.988-48.252h-2.821v2.234h2.821v-2.234Zm0 3.997h-2.821v2.233h2.821v-2.233Zm0 4.055h-2.821v2.233h2.821v-2.233Zm0 3.996h-2.821v2.234h2.821v-2.234Zm0 4.056h-2.821v2.233h2.821v-2.233Zm0 3.996h-2.821v2.234h2.821v-2.234Zm0 4.056h-2.821v2.233h2.821v-2.233Zm0 3.996h-2.821v2.234h2.821v-2.234Zm0 3.997h-2.821v2.233h2.821v-2.233Zm0 4.055h-2.821v2.234h2.821v-2.234Zm0 3.997h-2.821v2.233h2.821v-2.233Zm0 4.055h-2.821v2.233h2.821v-2.233Zm0 3.996h-2.821v2.234h2.821v-2.234Zm22.571-48.252h-2.821v2.234h2.821v-2.234Zm0 3.997h-2.821v2.233h2.821v-2.233Zm0 4.055h-2.821v2.233h2.821v-2.233Zm0 3.996h-2.821v2.234h2.821v-2.234Zm0 4.056h-2.821v2.233h2.821v-2.233Zm0 3.996h-2.821v2.234h2.821v-2.234Zm0 4.056h-2.821v2.233h2.821v-2.233Zm0 3.996h-2.821v2.234h2.821v-2.234Zm0 3.997h-2.821v2.233h2.821v-2.233Zm0 4.055h-2.821v2.234h2.821v-2.234Zm0 3.997h-2.821v2.233h2.821v-2.233Zm0 4.055h-2.821v2.233h2.821v-2.233Zm0 3.996h-2.821v2.234h2.821v-2.234Z" fill="#BDE0F4"/><path d="M83.843 683.217h-9.64v52.249h9.64v-52.249Z" fill="#49AAF7"/><path d="M80.786 683.217h-4.055v50.486h4.055v-50.486Z" fill="#49AAF7"/><path d="M80.786 683.217h-4.055v2.234h4.055v-2.234Zm0 3.997h-4.055v2.233h4.055v-2.233Zm0 4.055h-4.055v2.233h4.055v-2.233Zm0 3.996h-4.055v2.234h4.055v-2.234Zm0 4.056h-4.055v2.233h4.055v-2.233Zm0 3.996h-4.055v2.234h4.055v-2.234Zm0 4.056h-4.055v2.233h4.055v-2.233Zm0 3.996h-4.055v2.234h4.055v-2.234Zm0 3.997h-4.055v2.233h4.055v-2.233Zm0 4.055h-4.055v2.234h4.055v-2.234Zm0 3.997h-4.055v2.233h4.055v-2.233Zm0 4.055h-4.055v2.233h4.055v-2.233Zm0 3.996h-4.055v2.234h4.055v-2.234Zm16.576-48.252h-1.646v50.486h1.646v-50.486Z" fill="#49AAF7"/><path d="M109.235 735.466H83.843v52.072h25.392v-52.072Z" fill="#BDE0F4"/><path d="M103.652 735.466H89.486v52.072h14.166v-52.072Z" fill="#49AAF7"/><path d="M103.652 735.466H89.486v1.998h14.166v-1.998Zm0 3.82H89.486v2.234h14.166v-2.234Zm0 4.056H89.486v2.233h14.166v-2.233Zm0 3.996H89.486v2.234h14.166v-2.234Zm0 4.056H89.486v2.233h14.166v-2.233Zm-16.988-15.928h-2.821v1.998h2.821v-1.998Zm0 3.82h-2.821v2.234h2.821v-2.234Zm0 4.056h-2.821v2.233h2.821v-2.233Zm0 3.996h-2.821v2.234h2.821v-2.234Zm0 4.056h-2.821v2.233h2.821v-2.233Zm22.571-15.928h-2.821v1.998h2.821v-1.998Zm0 3.82h-2.821v2.234h2.821v-2.234Zm0 4.056h-2.821v2.233h2.821v-2.233Zm0 3.996h-2.821v2.234h2.821v-2.234Zm0 4.056h-2.821v2.233h2.821v-2.233Z" fill="#BDE0F4"/><path d="M83.843 735.466h-9.64v52.072h9.64v-52.072Z" fill="#49AAF7"/><path d="M80.786 735.466h-4.055v50.25h4.055v-50.25Z" fill="#49AAF7"/><path d="M80.786 735.466h-4.055v1.998h4.055v-1.998Zm0 3.82h-4.055v2.234h4.055v-2.234Zm0 4.056h-4.055v2.233h4.055v-2.233Zm0 3.996h-4.055v2.234h4.055v-2.234Zm0 4.056h-4.055v2.233h4.055v-2.233Zm16.576-15.928h-1.646v50.309h1.646v-50.309Z" fill="#49AAF7"/><path d="M109.294 680.043h-35.09v3.174h35.09v-3.174Z" fill="#BDE0F4"/><path d="M109.294 679.926h-35.09v.118h35.09v-.118Z" fill="#BDE0F4"/><path d="M83.843 680.043h-9.64v3.174h9.64v-3.174Z" fill="#BDE0F4"/><path d="M83.843 679.926h-9.64v.118h9.64v-.118Zm-9.758-9.639H56.393v121.365h17.692V670.287Zm-17.692 0h-25.04v121.365h25.04V670.287Z" fill="#BDE0F4"/><path d="M74.027 670.287H56.393v121.365h17.634V670.287Z" fill="#BDE0F4"/><path d="M56.393 670.287h-25.04v121.365h25.04V670.287Z" fill="#003659"/><path d="M57.745 671.874h-6.583v2.234h6.583v-2.234Zm-22.336 0h-6.583v2.233h6.583v-2.233Z" fill="#BDE0F4"/><path d="M62.388 671.874h-4.703v2.234h4.703v-2.234Zm13.99 0h-4.702v2.234h4.702v-2.234Zm-18.633 3.879h-6.583v2.234h6.583v-2.234Zm-22.336 0h-6.583v2.233h6.583v-2.233Z" fill="#BDE0F4"/><path d="M62.388 675.753h-4.703v2.234h4.703v-2.234Zm13.99 0h-4.702v2.234h4.702v-2.234Zm-18.633 3.879h-6.583v2.234h6.583v-2.234Zm-22.336 0h-6.583v2.234h6.583v-2.234Z" fill="#BDE0F4"/><path d="M62.388 679.632h-4.703v2.234h4.703v-2.234Zm13.99 0h-4.702v2.234h4.702v-2.234Zm-18.633 3.879h-6.583v2.233h6.583v-2.233Zm-22.336 0h-6.583v2.233h6.583v-2.233Z" fill="#BDE0F4"/><path d="M62.388 683.511h-4.703v2.233h4.703v-2.233Zm13.99 0h-4.702v2.233h4.702v-2.233Zm-18.633 3.879h-6.583v2.233h6.583v-2.233Zm-22.336 0h-6.583v2.233h6.583v-2.233Z" fill="#BDE0F4"/><path d="M62.388 687.39h-4.703v2.233h4.703v-2.233Zm13.99 0h-4.702v2.233h4.702v-2.233Zm-18.633 3.82h-6.583v2.234h6.583v-2.234Zm-22.336 0h-6.583v2.234h6.583v-2.234Z" fill="#BDE0F4"/><path d="M62.388 691.21h-4.703v2.234h4.703v-2.234Zm13.99 0h-4.702v2.234h4.702v-2.234Zm-18.633 3.879h-6.583v2.233h6.583v-2.233Zm-22.336 0h-6.583v2.233h6.583v-2.233Z" fill="#BDE0F4"/><path d="M62.388 695.089h-4.703v2.233h4.703v-2.233Zm13.99 0h-4.702v2.233h4.702v-2.233Zm-18.633 3.879h-6.583v2.233h6.583v-2.233Zm-22.336 0h-6.583v2.233h6.583v-2.233Z" fill="#BDE0F4"/><path d="M62.388 698.968h-4.703v2.233h4.703v-2.233Zm13.99 0h-4.702v2.233h4.702v-2.233Zm-18.633 3.879h-6.583v2.234h6.583v-2.234Zm-22.336 0h-6.583v2.234h6.583v-2.234Z" fill="#BDE0F4"/><path d="M62.388 702.847h-4.703v2.234h4.703v-2.234Zm13.99 0h-4.702v2.234h4.702v-2.234Zm-18.633 3.82h-6.583v2.234h6.583v-2.234Zm-22.336 0h-6.583v2.234h6.583v-2.234Z" fill="#BDE0F4"/><path d="M62.388 706.667h-4.703v2.234h4.703v-2.234Zm13.99 0h-4.702v2.234h4.702v-2.234Zm-18.633 3.879h-6.583v2.234h6.583v-2.234Zm-22.336 0h-6.583v2.234h6.583v-2.234Z" fill="#BDE0F4"/><path d="M62.388 710.546h-4.703v2.234h4.703v-2.234Zm13.99 0h-4.702v2.234h4.702v-2.234Zm-18.633 3.879h-6.583v2.234h6.583v-2.234Zm-22.336 0h-6.583v2.234h6.583v-2.234Z" fill="#BDE0F4"/><path d="M62.388 714.425h-4.703v2.234h4.703v-2.234Zm13.99 0h-4.702v2.234h4.702v-2.234Zm-18.633 3.879h-6.583v2.233h6.583v-2.233Zm-22.336 0h-6.583v2.233h6.583v-2.233Z" fill="#BDE0F4"/><path d="M62.388 718.304h-4.703v2.233h4.703v-2.233Zm13.99 0h-4.702v2.233h4.702v-2.233Zm-18.633 3.879h-6.583v2.233h6.583v-2.233Zm-22.336 0h-6.583v2.233h6.583v-2.233Z" fill="#BDE0F4"/><path d="M62.388 722.183h-4.703v2.233h4.703v-2.233Zm13.99 0h-4.702v2.233h4.702v-2.233Zm-18.633 3.821h-6.583v2.233h6.583v-2.233Zm-22.336 0h-6.583v2.233h6.583v-2.233Z" fill="#BDE0F4"/><path d="M62.388 726.004h-4.703v2.233h4.703v-2.233Zm13.99 0h-4.702v2.233h4.702v-2.233Zm-18.633 3.878h-6.583v2.234h6.583v-2.234Zm-22.336.001h-6.583v2.233h6.583v-2.233Z" fill="#BDE0F4"/><path d="M62.388 729.882h-4.703v2.234h4.703v-2.234Zm13.99 0h-4.702v2.234h4.702v-2.234Zm-18.633 3.879h-6.583v2.234h6.583v-2.234Zm-22.336.001h-6.583v2.233h6.583v-2.233Z" fill="#BDE0F4"/><path d="M62.388 733.761h-4.703v2.234h4.703v-2.234Zm13.99 0h-4.702v2.234h4.702v-2.234Zm-18.633 3.88h-6.583v2.233h6.583v-2.233Zm-22.336-.001h-6.583v2.234h6.583v-2.234Z" fill="#BDE0F4"/><path d="M62.388 737.641h-4.703v2.233h4.703v-2.233Zm13.99 0h-4.702v2.233h4.702v-2.233Zm-18.633 3.879h-6.583v2.233h6.583v-2.233Zm-22.336-.001h-6.583v2.234h6.583v-2.234Z" fill="#BDE0F4"/><path d="M62.388 741.52h-4.703v2.233h4.703v-2.233Zm13.99 0h-4.702v2.233h4.702v-2.233Zm-18.633 3.819h-6.583v2.234h6.583v-2.234Zm-22.336.001h-6.583v2.233h6.583v-2.233Z" fill="#BDE0F4"/><path d="M62.388 745.339h-4.703v2.234h4.703v-2.234Zm13.99 0h-4.702v2.234h4.702v-2.234Zm-18.633 3.88h-6.583v2.233h6.583v-2.233Zm-22.336 0h-6.583v2.233h6.583v-2.233Z" fill="#BDE0F4"/><path d="M62.388 749.219h-4.703v2.233h4.703v-2.233Zm13.99 0h-4.702v2.233h4.702v-2.233Zm-18.633 3.878h-6.583v2.234h6.583v-2.234Zm-22.336.001h-6.583v2.233h6.583v-2.233Z" fill="#BDE0F4"/><path d="M62.388 753.097h-4.703v2.234h4.703v-2.234Zm13.99 0h-4.702v2.234h4.702v-2.234Z" fill="#BDE0F4"/><path d="M47.87 670.287h-9.816v119.426h9.816V670.287Zm22.1 0h-6.112v119.837h6.113V670.287Z" fill="#003659"/><path d="M403.363 698.733H267.702v92.919h135.661v-92.919Z" fill="#fff"/><path d="M409.477 711.192H261.531v69.117h147.946v-69.117Z" fill="#49D8F7"/><path opacity=".36" d="M409.477 749.982H261.531v7.347h147.946v-7.347Zm0-15.104H261.531v7.346h147.946v-7.346Zm0-15.34H261.531v7.347h147.946v-7.347Z" fill="#49D8F7"/><path d="M262.824 711.192h-1.293v69.117h1.293v-69.117Zm9.169 0H270.7v69.117h1.293v-69.117Zm9.229 0h-1.293v69.117h1.293v-69.117Zm9.227 0h-1.293v69.117h1.293v-69.117Zm9.17 0h-1.293v69.117h1.293v-69.117Zm9.229 0h-1.293v69.117h1.293v-69.117Zm9.227 0h-1.293v69.117h1.293v-69.117Z" fill="#fff"/><path d="M281.456 419.681s-4.408 78.109-56.662 106.907c-40.44 22.216-53.665 89.922-53.665 89.922l-.118-196.829h110.445Z" fill="#FEEDC5" style="mix-blend-mode:overlay" opacity=".61"/><path d="M422.701 777.841H261.119c0-37.438 24.334-67.765 54.311-67.765 4.056 0 8.053.588 11.873 1.646 4.291-4.173 8.994-7.64 14.049-10.168 6.583-3.35 13.695-5.172 21.16-5.172 33.21-.058 60.189 36.439 60.189 81.459Z" fill="#3D213D"/><path d="M422.701 777.841H261.119c0-37.438 24.334-67.765 54.311-67.765 4.056 0 8.053.588 11.873 1.646 4.291-4.173 8.994-7.64 14.049-10.168 6.583-3.35 13.695-5.172 21.16-5.172 33.21-.058 60.189 36.439 60.189 81.459Z" fill="url(#d)"/><path opacity=".43" d="m341.293 701.554-36.736 76.345h-43.496c0-37.438 24.334-67.764 54.311-67.764 4.056 0 8.053.587 11.873 1.645 4.35-4.29 9.052-7.699 14.048-10.226Z" fill="#FEEDC5"/><path d="M21.008 777.371c15.485 0 28.038-12.552 28.038-28.035s-12.553-28.034-28.038-28.034-28.037 12.551-28.037 28.034c0 15.483 12.552 28.035 28.037 28.035Z" fill="#3A95A8"/><path d="M98.361 769.848c18.569 0 33.622-14.183 33.622-31.678 0-17.496-15.053-31.679-33.622-31.679-18.568 0-33.621 14.183-33.621 31.679 0 17.495 15.053 31.678 33.621 31.678Z" fill="#888A17"/><path d="M99.596 769.848c17.886 0 32.387-13.815 32.387-30.856 0-17.041-14.501-30.855-32.387-30.855-17.887 0-32.388 13.814-32.388 30.855s14.5 30.856 32.388 30.856Z" fill="#3D213D"/><path d="M99.596 769.848c17.886 0 32.387-13.815 32.387-30.856 0-17.041-14.501-30.855-32.387-30.855-17.887 0-32.388 13.814-32.388 30.855s14.5 30.856 32.388 30.856Z" fill="url(#e)"/><path d="M45.93 745.281c-1.998 3.996-5.349 7.229-8.405 10.461a225.77 225.77 0 0 1-7.406 7.582c2.057-4.878 3.644-9.933 4.879-15.163.352-1.47-1.94-2.116-2.293-.647-1.528 6.641-3.703 12.989-6.642 19.101v-16.691c0-2.292-3.527-2.292-3.527 0v11.108c-.529-.235-1.116-.412-1.645-.647l-7.054-2.821c-4.173-1.704-8.17-3.702-11.756-6.465-1.175-.94-2.35 1.117-1.175 2.057 3.762 2.88 7.994 4.878 12.285 6.7 2.703 1.117 5.407 2.175 8.111 3.292.353.176.764.411 1.176.587v48.899c0 2.292 3.526 2.292 3.526 0v-40.847c.706-1.293 1.352-2.645 1.999-3.996.352.058 7.876-6.935 11.109-10.403 3.174-3.35 6.7-6.759 8.758-10.932.705-1.352-1.293-2.586-1.94-1.175Z" fill="#3A95A8"/><path d="M64.74 728.883c0 9.991-2.175 19.395-6.113 27.917h-197.085v-56.128c7.465-6.523 16.34-11.402 26.157-14.105 5.231-3.35 11.05-5.819 17.28-7.288 9.875-16.221 27.744-27.035 48.14-27.035 12.403 0 23.806 3.996 33.151 10.814a68.536 68.536 0 0 1 11.639-.999c5.76 0 11.344.705 16.693 2.116 28.86 7.405 50.138 33.559 50.138 64.708Z" fill="url(#f)"/><path d="M206.573 773.492c23.048 0 41.733-17.604 41.733-39.319 0-21.715-18.685-39.319-41.733-39.319-23.049 0-41.733 17.604-41.733 39.319 0 21.715 18.684 39.319 41.733 39.319Z" fill="#3A95A8"/><path d="M208.101 773.492c22.204 0 40.205-17.13 40.205-38.261 0-21.131-18.001-38.261-40.205-38.261-22.204 0-40.205 17.13-40.205 38.261 0 21.131 18.001 38.261 40.205 38.261Z" fill="#3A95A8"/><path d="M232.083 715.718c0 30.562-26.274 55.305-58.72 55.305-15.047 0-28.743-5.348-39.147-14.105-11.99-10.109-19.573-24.861-19.573-41.2 0-30.562 26.274-55.305 58.72-55.305 16.399 0 31.153 6.289 41.85 16.515 10.404 9.933 16.87 23.627 16.87 38.79Z" fill="#AEB11B"/><path d="M232.083 715.718c0 30.562-26.274 55.305-58.72 55.305-15.047 0-28.743-5.348-39.147-14.105-11.99-10.109-19.573-24.861-19.573-41.2 0-30.562 26.274-55.305 58.72-55.305 16.399 0 31.153 6.289 41.85 16.515 10.404 9.933 16.87 23.627 16.87 38.79Z" fill="url(#g)"/><path d="M196.932 703.67h-2.351v101.5h2.351v-101.5Z" fill="#FFFFFB"/><path d="m206.916 700.404-10.848 10.847.416.415 10.848-10.846-.416-.416Z" fill="#FFFFFB"/><path d="m215.388 694.384-1.293-.353c-.823-.176-1.939.059-2.586.588l-6.231 5.407c-.587.529-.47 1.116.353 1.352l1.293.352c.823.177 1.94-.059 2.587-.588l6.23-5.407c.647-.529.47-1.116-.353-1.351Z" fill="#49AAF7"/><path d="m-174.597 677.906 435.433-110.904s-.353-.999-.999-2.527c-1.529-3.82-4.526-11.108-6.642-14.811-2.939-5.113-4.35-6.582-4.35-6.582l-10.639-2.233-42.908 12.929-366.368 110.375-3.527 13.753Z" fill="#889EA3"/><path d="m235.973 545.374-407.395 120.19-3.997 12.577 416.447-108.494-5.055-24.273Z" fill="#E21A1A"/><path d="m161.782 566.698 19.305 18.578-30.406 7.822-16.893-18.578 27.994-7.822Zm-68.772 20.9 20.428 19.351-32.174 8.148-17.875-19.351 29.621-8.148Zm-64.36 18.699 15.49 14.708-24.397 6.192L6.19 612.49l22.46-6.193Z" fill="#A1C5CD"/><path d="m118.121 581.989 3.292-.999v5.113l-3.292.999v-5.113Zm-123.905 36.38 11.11-3.232c-.177 1.41-.177 2.821-.177 4.231l-11.403 3.233c.117-1.352.294-2.762.47-4.232Zm27.861-8.169 6.466-1.881c-.118 1.529-.294 3.057-.588 4.526l-6.23 1.763c0-1.469.117-2.939.352-4.408Zm8.17-2.409 5.467-1.587a58.49 58.49 0 0 1-.176 4.525l-5.76 1.646c.234-1.528.41-3.056.47-4.584Zm7.172-2.117 28.155-8.287v4.702L37.242 610.2c.118-1.528.177-2.998.177-4.526Zm36.619-10.755 12.696-3.702v4.819l-12.696 3.644v-4.761Zm17.927-5.289 17.692-5.172v5.054l-17.692 5.055v-4.937Zm31.153-9.11 5.231-1.528v5.172l-5.231 1.469v-5.113Zm10.815 2.057v-5.231l19.044-5.583v5.407l-7.876 2.233v-1.704c0-1.117-1.705-1.117-1.705 0v2.174l-9.463 2.704Z" fill="#E6E6E6"/><path d="m195.297 553.779 47.317 9.991 17.222.705c-1.528-3.82-4.526-11.108-6.642-14.811-2.938-5.113-4.349-6.582-4.349-6.582l-10.639-2.233-42.909 12.93Z" fill="#FBD5A2"/><path d="M238.206 540.849s4.232 14.869 5.29 16.28c.529.705 4.232 1.528 7.7 2.115a281.24 281.24 0 0 0 6.525 1.058s-2.998-10.344-8.876-17.22l-4.879-.999-5.76-1.234Z" fill="#3D213D"/><path d="m256.436 556.248 1.375 4.125-6.6-1.1-2.475-3.575 7.7.55Z" fill="#89CFE1"/><path d="m64.456 593.215-1.175 26.918-6.114 1.469 2.41-26.918 4.88-1.469Z" fill="#3D213D"/><path d="m259.338 563.334-10.758-1.414-4.692-3.122-2.214-13.55-43.118 16.908.399 9.602-3.498.472-.708-12.018-2.213.884 1.239 17.85-81.765 29.161-.221 7.54 147.947-51.017-.398-1.296Z" fill="#ED6F01"/><path d="m196.121 558.998-18.334 5.497 2.015 18.703 61.784-16.088-45.465-8.112Z" fill="#E21A1A"/><path d="m213.515 549.648 23.122 22.061-23.122 4.889-20.232-22.061 20.232-4.889Z" fill="#A1C5CD"/><path d="m234.68 547.431 2.468 11.461-28.742-3.644 26.274-7.817Z" fill="#FBD5A2"/><path d="M238.206 540.849s4.232 14.869 5.29 16.28c.529.705 4.232 1.528 7.7 2.115l-12.99-18.395Z" fill="#E21A1A"/><path d="m250.111 544.699-10.175-1.1-1.375-2.75 10.45 2.2 1.1 1.65Z" fill="#607785"/><path d="m41.65 602.325-22.218 6.7v13.282l1-.588v-12.165l21.336-6.701-.117-.528Zm111.327-32.443v.882l-20.808 5.936.294 10.696h-.587l-.177-11.284 21.278-6.23Zm52.86-13.634v.882l-20.808 5.936.294 10.696h-.588l-.176-11.284 21.278-6.23Zm-105.467 29.15v.529l-9.463 2.88v8.052l-.412.529v-9.11l9.875-2.88Z" fill="#E6E6E6"/><path d="M188.443 568.712v-5.23l19.044-5.584v5.407l-7.877 2.234v-1.705c0-1.116-1.704-1.116-1.704 0v2.175l-9.463 2.703Zm-16.484-.667 3.292-.999v5.114l-3.292.999v-5.114Zm4.997-1.469 5.231-1.528v5.172l-5.231 1.47v-5.114Z" fill="#E6E6E6"/><path d="m229.714 543.598 8.053 27.388-181.803 24.979 173.75-52.367Z" fill="#FEEDC5" style="mix-blend-mode:screen" opacity=".61"/><path d="M996.175 410.5-438.204 749.336v6.759L1273.92 450.65V414.9l-277.745-4.4Z" fill="#003659"/><path opacity=".24" d="m42.959 668.642-94.987-9.521 126.963-30.268 80.115 19.453-112.091 20.336Z" fill="#FEEDC5"/><path d="M996.175 413.25-438.204 749.336v-3.232l1365.63-352.103 68.749 19.249Z" fill="#5566C5"/><path d="m404.658 534.524-842.862 212.814v.529l844.787-208.943-1.925-4.4Z" fill="#3D213D"/><path d="M203.836 641.371v12.283l-7.524 3.938-11.579-9.58-7.465-5.23v-12.284l26.568 10.873Z" fill="#BDD0F4"/><path d="M184.733 635.67h28.331v155.982h-28.331V635.67Z" fill="#BDD0F4"/><path d="M228.251 791.634h-15.165V637.767h15.165v153.867Z" fill="#3A95A8"/><path d="M234.812 636.023v12.283l-7.582 3.938-11.462-4.702-7.523-10.109v-12.224l26.567 10.814Z" fill="#5566C5"/><path d="m177.268 630.498 30.976-5.289v12.224l-30.976 5.349v-12.284Z" fill="#BDD0F4"/><path d="m221.529 630.616 6.7 22.921v-1.822l6.583-3.409v-12.283l-13.283-5.407Z" fill="#003659"/><path d="m213.064 643.898-28.331 4.114-7.465-5.23 30.976-5.349 4.82 6.465Z" fill="#3D91D4"/><path opacity=".61" d="m172.801 587.829 1.058 4.35 254.174-63.155-8.525-5.225-246.707 64.03Zm11.932 5.701 2.116 9.521 202.41-47.194 20.899-17.759-225.425 55.432Z" fill="#FEEDC5"/><path d="M142.334 815.614c0-37.027-25.452-87.218-52.666-87.218-11.932 0-22.865 5.759-31.388 15.339-1.822-.294-3.644-.411-5.525-.411-27.215 0-49.316 50.191-49.316 87.218 0 1.293.06 2.645.06 3.938H140.04c1.528-5.995 2.293-12.342 2.293-18.866Z" fill="url(#h)"/><path d="M293.835 731.981c0 38.453 33.058 69.585 73.882 69.585 18.932 0 36.164-6.729 49.254-17.747 15.087-12.719 24.627-31.28 24.627-51.838 0-38.452-33.058-69.584-73.881-69.584-20.634 0-39.197 7.912-52.657 20.779-13.09 12.497-21.225 29.727-21.225 48.805Z" fill="#AEB11B"/><path d="M293.835 731.981c0 38.453 33.058 69.585 73.882 69.585 18.932 0 36.164-6.729 49.254-17.747 15.087-12.719 24.627-31.28 24.627-51.838 0-38.452-33.058-69.584-73.881-69.584-20.634 0-39.197 7.912-52.657 20.779-13.09 12.497-21.225 29.727-21.225 48.805Z" fill="url(#i)"/></g><defs><linearGradient id="a" x1="978.624" y1="-.009" x2="978.624" y2="1025.18" gradientUnits="userSpaceOnUse"><stop stop-color="#51C0E1"/><stop offset=".262" stop-color="#A9E9F2"/><stop offset=".563" stop-color="#CCFCE0"/><stop offset=".881" stop-color="#E0F096"/><stop offset="1" stop-color="#ECE963"/></linearGradient><linearGradient id="c" x1="268.411" y1="440.198" x2="268.411" y2="830.482" gradientUnits="userSpaceOnUse"><stop stop-color="#fff"/><stop offset="1"/></linearGradient><linearGradient id="d" x1="364.182" y1="765.844" x2="254.994" y2="699.104" gradientUnits="userSpaceOnUse"><stop stop-color="#4DB0A5"/><stop offset="1" stop-color="#EFCE3D"/></linearGradient><linearGradient id="e" x1="108.524" y1="760.759" x2="54.094" y2="743.154" gradientUnits="userSpaceOnUse"><stop stop-color="#4DB0A5"/><stop offset="1" stop-color="#EFCE3D"/></linearGradient><linearGradient id="f" x1="-8.851" y1="741.402" x2="-147.674" y2="658.265" gradientUnits="userSpaceOnUse"><stop stop-color="#4DB0A5"/><stop offset="1" stop-color="#EFCE3D"/></linearGradient><linearGradient id="g" x1="189.55" y1="754.733" x2="91.082" y2="722.517" gradientUnits="userSpaceOnUse"><stop stop-color="#4DB0A5"/><stop offset="1" stop-color="#EFCE3D"/></linearGradient><linearGradient id="h" x1="96.486" y1="952.647" x2="-31.127" y2="846.721" gradientUnits="userSpaceOnUse"><stop stop-color="#4DB0A5"/><stop offset="1" stop-color="#EFCE3D"/></linearGradient><linearGradient id="i" x1="347.349" y1="781.07" x2="471.243" y2="740.535" gradientUnits="userSpaceOnUse"><stop stop-color="#4DB0A5"/><stop offset="1" stop-color="#EFCE3D"/></linearGradient><clipPath id="b"><path fill="#fff" transform="translate(-700.037 352)" d="M0 0h1925.07v548H0z"/></clipPath></defs></svg>